<?xml version="1.0" encoding="utf-8"?>
<!-- Generator: Adobe Illustrator 26.5.0, SVG Export Plug-In . SVG Version: 6.00 Build 0)  -->
<svg version="1.1" xmlns="http://www.w3.org/2000/svg" xmlns:xlink="http://www.w3.org/1999/xlink" x="0px" y="0px"
	 viewBox="0 0 90 90" style="enable-background:new 0 0 90 90;" xml:space="preserve">
<style type="text/css">
	.st0{fill:#CECECE;stroke:#F9F9F9;stroke-width:0.025;stroke-linecap:round;stroke-linejoin:round;}
	.st1{display:none;fill:none;stroke:#47CCCC;stroke-width:0.5;stroke-linecap:round;stroke-linejoin:round;}
	.st2{fill:#CECECE;}
</style>
<g id="ALABAMA">
	<path id="AL__x2F__STATE_COLOR" class="st0" d="M32.72,85.46l-0.11,0.08l-0.09,0.12l-0.12,0.09l-0.2,0.05l-0.75,0.08l-1.24,0.34
		l-0.18,0.14l3-0.45l0.08-0.02l0.18-0.1l-0.01-0.1L32.72,85.46z M73.53,68.42l-0.15-0.15l-0.27-0.71l-0.41-0.63l-0.44-0.45
		l-0.29-0.11l-0.18-0.18l-0.05-0.25l-0.01-0.58l-0.05-0.14l-0.16-0.29l-0.04-0.12l0.01-0.16l0.14-0.27l0.05-0.15l-0.08-1.22
		l0.01-0.59l0.24-0.41l-0.2-0.44l0.04-0.33l0.11-0.32l0.04-0.39l-0.06-0.21l-0.16-0.3l-0.04-0.12l-0.07-0.43l-0.06-0.2l-0.15-0.27
		l-0.54-0.58l-0.15-0.25l-0.6-1.7l-0.13-0.31l0.04-0.35v-0.09l0.01-0.08l0.04-0.21l0.04-0.54l0.18-0.64l0.29-0.67l0.05-0.08
		l0.08-0.25l0.01-0.06l-0.01-0.4l-0.15-0.34v-0.37l0.09-0.28l0.01-0.21l-0.06-0.39v-0.14l0.14-0.54l0.07-0.15l0.08-0.07l0.18-0.06
		l0.21-0.09l0.21-0.13l0.14-0.14l-0.24-0.12l0.02-0.13l0.2-0.08l0.25,0.07l0.11-0.09l0.09-0.13l0.01-0.16l-0.11-0.18l0.12-0.02
		l0.11-0.06l0.08-0.11l0.02-0.13l-0.05-0.11l-0.06-0.02l-0.06-0.01l-0.11-0.17l-0.14-0.08l-0.68-0.28l-0.3-0.23l-0.09-0.28
		l0.25-0.35l-0.09-0.17l0.04-0.16l0.07-0.19l-0.01-0.2l-0.05-0.21l-0.14-0.21l-0.16-0.21l-0.14-0.22l-0.13-0.49l-0.08-0.2
		l-0.19-0.24l-1.07-1.06l0.05-0.22l-0.12-0.11l-0.18-0.08l-0.09-0.14l-0.01-0.28l-0.04-0.2l-0.18-0.31l-0.16-0.53l-0.13-0.18
		l-0.14-0.14l-0.07-0.14l0.08-0.17l-0.08-0.1l-0.31-0.26l-0.09-0.08l-0.08-0.11l-0.06-0.12l-0.04-0.13l-0.02-0.46l-0.58-1.08
		l0.01-0.14l-0.19-0.6l-0.02-0.1l-0.08-0.26l-0.13-0.41l-0.18-0.57L65.91,36l-0.26-0.83l-0.29-0.93l-0.33-1.05l-0.37-1.13
		l-0.38-1.21l-0.4-1.27l-0.41-1.35l-0.44-1.38l-0.44-1.42l-0.45-1.44l-0.46-1.45l-0.45-1.45l-0.45-1.44l-0.44-1.43l-0.44-1.38
		l-0.41-1.33l-0.39-1.29l-0.38-1.2l-0.35-1.14l-0.32-1.04l-0.3-0.94l-0.25-0.82l-0.22-0.7L57.13,7.8l-0.14-0.43l-0.07-0.26
		l-0.02-0.08l-2.05,0.24L52.8,7.51l-2.04,0.24l-2.04,0.24l-2.04,0.24l-2.05,0.22l-2.04,0.22l-2.04,0.22L38.5,9.1l-2.05,0.21
		l-2.04,0.21l-2.04,0.21l-2.05,0.21l-2.04,0.2l-2.05,0.2l-2.04,0.2l-0.45,0.04l-0.15,0.01l0.19,0.4l0.31,0.61l0.35,0.43l0.45,0.25
		h0.24v0.26v0.71v0.4v1.5v1.07v1.26v1.44v1.59l-0.01,1.73v1.85l-0.01,1.96v2.04l-0.01,2.11v2.17l-0.01,2.19l-0.02,4.44v2.21
		l-0.02,2.17v2.11L25,47.56l-0.01,1.95l-0.01,1.86l-0.01,1.73l-0.01,1.59l-0.01,1.44l-0.01,1.26l-0.01,1.07v0.86l-0.01,0.65v0.39
		v0.14l0.22,1.47l0.22,1.47l0.22,1.48l0.24,1.47l0.22,1.47l0.23,1.47l0.45,2.95l0.22,1.47l0.24,1.47l0.22,1.48l0.23,1.47l0.22,1.47
		l0.24,1.47l0.45,2.95l0.33-0.13l0.28-0.19l0.27-0.02l0.28,0.33h0.08l0.02-0.09l0.02-0.06l0.02-0.06v-0.12l0.38,0.14l0.86,0.11
		l0.41,0.11l-0.08,0.34l0.04,0.15l0.14,0.04h0.24v-0.01l0.28-0.02l0.04,0.06l0.04,0.09l0.07,0.04l0.14-0.12l0.06-0.2l0.01-1.17
		l-0.09-0.66v-0.28l0.07-0.54v-0.26l0.01-0.14l0.11-0.2l0.02-0.12l-0.05-0.29v-0.14l0.04-0.12l0.13-0.19l0.08-0.18l0.04-0.21
		l-0.02-0.32l0.05-0.27l0.11-0.18l0.06-0.16l-0.11-0.21l0.16-0.15l0.08-0.2l-0.02-0.22l-0.12-0.21l0.19,0.02l0.09,0.12l0.05,0.2
		l0.01,0.24l0.06,0.18l0.11,0.04l0.15-0.01l0.16,0.01l0.32,0.13l0.18,0.18l0.54,1.16l0.11,0.32l-0.02,0.24l-0.11,0.2l-0.12,0.3
		l-0.07,0.32v0.27l0.05,0.08l0.12,0.12l0.11,0.16l0.07,0.19l0.04,0.19l0.05,0.16l0.09,0.14l0.12,0.13l0.12,0.08l0.13,0.07l0.14,0.05
		l0.15,0.01l0.21-0.01l0.01-0.04l-0.04-0.07l0.16-0.23l0.04-0.08l0.06-0.01l0.13,0.12l0.04,0.11l-0.08,0.37l-0.01,0.18l0.12,0.18
		l0.72,0.54l0.22,0.51l-0.35,0.31l-0.61,0.25l-0.48,0.22l-0.55-0.05l-0.31-0.24l-0.11,0.06l-0.06,0.12l-0.12,0.08l-0.51,0.19
		l-0.3,0.17l-0.14,0.18l0.44-0.05l1.18-0.33l1.69-0.19l1.77-0.45l0.84-0.46l0.28-0.64l-0.11,0.08l-0.14,0.06l-0.14,0.04h-0.15
		l0.06-0.27l-0.07-0.17l-0.12-0.15l-0.05-0.26l0.08-0.01l0.07,0.09l0.26,0.19l0.09,0.13l0.02,0.09l0.06,0.06l0.22,0.01l0.31-0.11
		l0.14-0.21l0.1-0.21l0.19-0.11l0.33-0.13l0.14-0.21l0.07-0.27l0.12-0.27l0.52-0.64v-0.14l0.11-0.02l-0.16-0.06l-0.13-0.08
		l-0.12-0.11l-0.11-0.12l-0.01-0.11l0.09,0.05l-0.01-0.01l-0.33-0.73l-0.07-0.25l0.01-0.07L41.39,80l0.19-0.45l0.06-0.43l0.02-0.56
		l-0.01-0.23l-0.04-0.16l-0.06-0.05l-0.12-0.08l-1.17-0.55l-0.2-0.13l-0.22-0.25l-0.34-0.49l-0.09-0.12l-0.72-0.57l-0.18-0.18
		l-0.16-0.2l-0.07-0.13l-0.04-0.12v-0.09l0.01-0.11l0.04-0.16l0.21-0.64l0.01-0.08l-0.11-0.73l0.06-0.24l0.61-0.07l2.15-0.24
		l2.16-0.26l2.15-0.25l2.15-0.25l2.15-0.26l2.16-0.26l2.15-0.27l2.15-0.26l2.15-0.27l2.15-0.27l2.15-0.27l2.15-0.28l2.15-0.28
		l2.14-0.28l2.15-0.3l2.15-0.28l0.04-0.07l0.07-0.12l0.02-0.13L73.53,68.42z"/>
</g>
<g id="ALASKA">
</g>
<g id="ARIZONA">
</g>
<g id="ARKANSAS_1_">
</g>
<g id="CALIFORNIA">
</g>
<g id="COLORADO">
</g>
<g id="CONNECTICUT">
</g>
<g id="DELAWARE">
</g>
<g id="DC">
</g>
<g id="FLORIDA">
</g>
<g id="GEORGIA">
</g>
<g id="HAWAII">
</g>
<g id="IDAHO">
</g>
<g id="IOWA">
</g>
<g id="ILLINOIS">
</g>
<g id="INDIANA">
</g>
<g id="KANSAS">
</g>
<g id="KETUCKY">
</g>
<g id="LOUISANA">
</g>
<g id="MAINE">
</g>
<g id="MARYLAND">
</g>
<g id="MASSACHUSETTS">
</g>
<g id="MICHIGAN">
</g>
<g id="MINNESOTA">
</g>
<g id="MISSOURI">
</g>
<g id="MISSISSIPPI">
</g>
<g id="MONTANA">
</g>
<g id="NORTH_CAROLINA">
</g>
<g id="NORTH_DAKOTA">
</g>
<g id="NEBRASKA">
</g>
<g id="NEW_HAMPSHIRE">
</g>
<g id="NEW_JERSEY">
</g>
<g id="NEW_YORK">
</g>
<g id="NEW_MEXICO">
</g>
<g id="NEVADA">
</g>
<g id="OHIO">
</g>
<g id="OKLAHOMA">
</g>
<g id="OREGON">
</g>
<g id="PENNSYLVANIA">
</g>
<g id="RHODE_ISLAND">
</g>
<g id="SOUTH_CAROLINA">
</g>
<g id="SOUTH_DAKOTA">
</g>
<g id="TENNESSEE">
</g>
<g id="TEXAS">
</g>
<g id="UTAH">
</g>
<g id="VIRGINIA">
</g>
<g id="VERMONT">
</g>
<g id="WASHINGTON">
</g>
<g id="WISCONSIN">
</g>
<g id="WEST_VIRGINIA">
</g>
<g id="WYOMING">
</g>
</svg>
