<?xml version="1.0" encoding="UTF-8"?>
<svg id="ALABAMA" xmlns="http://www.w3.org/2000/svg" viewBox="0 0 90 90">
  <defs>
    <style>
      .cls-1 {
        fill: #e2e2e2;
        stroke: #f9f9f9;
        stroke-linecap: round;
        stroke-linejoin: round;
        stroke-width: .03px;
      }
    </style>
  </defs>
  <path id="AL_STATE_COLOR" data-name="AL / STATE COLOR" class="cls-1" d="M32.72,85.46l-.11,.08-.09,.12-.12,.09-.2,.05-.75,.08-1.24,.34-.18,.14,3-.45,.08-.02,.18-.1v-.1s-.57-.24-.57-.24Zm40.81-17.04l-.15-.15-.27-.71-.41-.63-.44-.45-.29-.11-.18-.18-.05-.25v-.58s-.06-.14-.06-.14l-.16-.29-.04-.12v-.16s.15-.27,.15-.27l.05-.15-.08-1.22v-.59s.25-.41,.25-.41l-.2-.44,.04-.33,.11-.32,.04-.39-.06-.21-.16-.3-.04-.12-.07-.43-.06-.2-.15-.27-.54-.58-.15-.25-.6-1.7-.13-.31,.04-.35v-.18s.05-.21,.05-.21l.04-.54,.18-.64,.29-.67,.05-.08,.08-.25v-.06s0-.4,0-.4l-.15-.34v-.37l.09-.28v-.21s-.05-.39-.05-.39v-.14l.14-.54,.07-.15,.08-.07,.18-.06,.21-.09,.21-.13,.14-.14-.24-.12,.02-.13,.2-.08,.25,.07,.11-.09,.09-.13v-.16s-.09-.18-.09-.18l.12-.02,.11-.06,.08-.11,.02-.13-.05-.11-.06-.02h-.06s-.11-.18-.11-.18l-.14-.08-.68-.28-.3-.23-.09-.28,.25-.35-.09-.17,.04-.16,.07-.19v-.2s-.06-.21-.06-.21l-.14-.21-.16-.21-.14-.22-.13-.49-.08-.2-.19-.24-1.07-1.06,.05-.22-.12-.11-.18-.08-.09-.14v-.28s-.05-.2-.05-.2l-.18-.31-.16-.53-.13-.18-.14-.14-.07-.14,.08-.17-.08-.1-.31-.26-.09-.08-.08-.11-.06-.12-.04-.13-.02-.46-.58-1.08v-.14s-.18-.6-.18-.6l-.02-.1-.08-.26-.13-.41-.18-.57-.22-.71-.26-.83-.29-.93-.33-1.05-.37-1.13-.38-1.21-.4-1.27-.41-1.35-.44-1.38-.44-1.42-.45-1.44-.46-1.45-.45-1.45-.45-1.44-.44-1.43-.44-1.38-.41-1.33-.39-1.29-.38-1.2-.35-1.14-.32-1.04-.3-.94-.25-.82-.22-.7-.16-.57-.14-.43-.07-.26-.02-.08-2.05,.24-2.04,.24-2.04,.24-2.04,.24-2.04,.24-2.05,.22-2.04,.22-2.04,.22-2.04,.21-2.05,.21-2.04,.21-2.04,.21-2.05,.21-2.04,.2-2.05,.2-2.04,.2-.45,.04h-.15s.19,.41,.19,.41l.31,.61,.35,.43,.45,.25h.24v9.97s-.01,1.85-.01,1.85v1.96s-.01,2.04-.01,2.04v2.11s-.01,2.17-.01,2.17v2.19s-.04,4.44-.04,4.44v2.21l-.02,2.17v4.16s-.02,1.95-.02,1.95v1.86s-.02,1.73-.02,1.73v1.59s-.02,1.44-.02,1.44v1.26s-.02,1.07-.02,1.07v1.51s-.01,.39-.01,.39v.14l.22,1.47,.22,1.47,.22,1.48,.24,1.47,.22,1.47,.23,1.47,.45,2.95,.22,1.47,.24,1.47,.22,1.48,.23,1.47,.22,1.47,.24,1.47,.45,2.95,.33-.13,.28-.19,.27-.02,.28,.33h.08l.02-.09,.02-.06,.02-.06v-.12l.38,.14,.86,.11,.41,.11-.08,.34,.04,.15,.14,.04h.24s.28-.04,.28-.04l.04,.06,.04,.09,.07,.04,.14-.12,.06-.2v-1.17s-.08-.66-.08-.66v-.28l.07-.54v-.4s.12-.2,.12-.2l.02-.12-.05-.29v-.14l.04-.12,.13-.19,.08-.18,.04-.21-.02-.32,.05-.27,.11-.18,.06-.16-.11-.21,.16-.15,.08-.2-.02-.22-.12-.21,.19,.02,.09,.12,.05,.2v.24s.07,.18,.07,.18l.11,.04h.15s.16,0,.16,0l.32,.13,.18,.18,.54,1.16,.11,.32-.02,.24-.11,.2-.12,.3-.07,.32v.27l.05,.08,.12,.12,.11,.16,.07,.19,.04,.19,.05,.16,.09,.14,.12,.13,.12,.08,.13,.07,.14,.05h.15s.21,0,.21,0v-.04s-.02-.07-.02-.07l.16-.23,.04-.08h.06s.13,.11,.13,.11l.04,.11-.08,.37v.18s.11,.18,.11,.18l.72,.54,.22,.51-.35,.31-.61,.25-.48,.22-.55-.05-.31-.24-.11,.06-.06,.12-.12,.08-.51,.19-.3,.17-.14,.18,.44-.05,1.18-.33,1.69-.19,1.77-.45,.84-.46,.28-.64-.11,.08-.14,.06-.14,.04h-.15l.06-.27-.07-.17-.12-.15-.05-.26h.08s.07,.08,.07,.08l.26,.19,.09,.13,.02,.09,.06,.06h.22s.31-.1,.31-.1l.14-.21,.1-.21,.19-.11,.33-.13,.14-.21,.07-.27,.12-.27,.52-.64v-.14l.11-.02-.16-.06-.13-.08-.12-.11-.11-.12v-.11s.08,.05,.08,.05h-.01s-.33-.74-.33-.74l-.07-.25v-.07s.05-.14,.05-.14l.19-.45,.06-.43,.02-.56v-.23s-.05-.16-.05-.16l-.06-.05-.12-.08-1.17-.55-.2-.13-.22-.25-.34-.49-.09-.12-.72-.57-.18-.18-.16-.2-.07-.13-.04-.12v-.2s.05-.16,.05-.16l.21-.64v-.08s-.09-.73-.09-.73l.06-.24,.61-.07,2.15-.24,2.16-.26,2.15-.25,2.15-.25,2.15-.26,2.16-.26,2.15-.27,2.15-.26,2.15-.27,2.15-.27,2.15-.27,2.15-.28,2.15-.28,2.14-.28,2.15-.3,2.15-.28,.04-.07,.07-.12,.02-.13-.05-.16Z"/>
  <g>
    <path d="M44.12,43.59h-1.91l-.32,.93h-1.3l1.86-5.05h1.42l1.86,5.05h-1.31l-.32-.93Zm-.32-.94l-.63-1.87-.64,1.87h1.27Z"/>
    <path d="M47.46,43.58h1.64v.94h-2.87v-5.09h1.23v4.15Z"/>
  </g>
</svg>