<?xml version="1.0" encoding="utf-8"?>
<!-- Generator: Adobe Illustrator 26.5.0, SVG Export Plug-In . SVG Version: 6.00 Build 0)  -->
<svg version="1.1" xmlns="http://www.w3.org/2000/svg" xmlns:xlink="http://www.w3.org/1999/xlink" x="0px" y="0px"
	 viewBox="0 0 90 90" style="enable-background:new 0 0 90 90;" xml:space="preserve">
<style type="text/css">
	.st0{fill:#CECECE;stroke:#F9F9F9;stroke-width:0.025;stroke-linecap:round;stroke-linejoin:round;}
	.st1{display:none;fill:none;stroke:#47CCCC;stroke-width:0.5;stroke-linecap:round;stroke-linejoin:round;}
	.st2{fill:#CECECE;}
</style>
<g id="ALABAMA">
</g>
<g id="ALASKA">
</g>
<g id="ARIZONA">
	<path id="AZ_1_" class="st0" d="M72.65,26.34l-0.17,2.09l-0.18,2.09l-0.17,2.09l-0.18,2.09l-0.17,2.1l-0.18,2.09l-0.17,2.09
		l-0.17,2.1l-0.18,2.09l-0.18,2.1l-0.17,2.09l-0.17,2.09l-0.18,2.1l-0.18,2.09l-0.17,2.1l-0.17,2.1l-0.18,2.09l-0.17,2.1l-0.18,2.09
		l-0.17,2.1l-0.18,2.1l-0.17,2.09l-0.18,2.1l-0.17,2.1l-0.18,2.09l-0.17,2.1l-0.18,2.1l0,0l0,0v0.01l0,0l0,0l0,0l0,0l0,0v0.01l0,0
		l0,0l0,0l0,0v0.01l0,0l0,0l0,0v0.01l0,0l0,0l0,0l0,0v0.01l0,0l0,0l0,0v0.01l0,0l0,0l0,0l0,0l0,0l-0.23-0.02l-0.43-0.04l-0.43-0.04
		l-0.43-0.04l-0.43-0.04l-0.43-0.04l-0.43-0.04l-0.43-0.04l-0.43-0.04l-0.43-0.04l-0.43-0.04l-0.43-0.03l-0.43-0.04l-0.43-0.04
		l-0.43-0.04l-0.43-0.04l-0.43-0.04l-0.43-0.04l-0.43-0.04l-0.43-0.04l-0.43-0.04l-0.43-0.04l-0.43-0.04l-0.43-0.04l-0.43-0.04
		L57,81.9l-0.43-0.04l-0.43-0.04l-0.43-0.04l-0.43-0.04l-0.42-0.04l-0.44-0.04l-0.42-0.04l-0.43-0.04l-0.43-0.04l-0.43-0.04
		l-0.43-0.04l-0.43-0.04l-0.43-0.04l-0.43-0.04l-0.43-0.04l-0.43-0.04l-0.43-0.04l-0.43-0.04l-0.43-0.04l-0.58-0.05l-0.6-0.14
		l-0.26-0.13l-0.5-0.25l-0.5-0.25l-0.49-0.25l-0.5-0.25l-0.5-0.25l-0.49-0.25l-0.5-0.25l-0.49-0.25l-3.96-1.93l-3.94-1.94
		l-3.94-1.96l-3.92-1.96l-3.91-1.99l-3.89-2l-3.87-2.01l-3.87-2.03l-0.35-0.19l-0.04-0.03l0,0l0.14-0.11l0,0l0.2-0.47l0.04-0.25
		l-0.05-0.25l0.2-0.29l0.06-0.07l0,0l0.26-0.17l0.09-0.07l0,0l0.14-0.19l0.11-0.19L13,60.42l0.06-0.15l0.41-0.22l1,0.34l0.43-0.04
		l0.11-0.17l0.04-0.21l0.02-0.21l0.06-0.2l0.15-0.14l0.41-0.2l0.13-0.14l0.06-0.25l-0.06-0.78l0.04-0.15l0.04-0.11l0.02-0.11
		l-0.02-0.16l-0.22-0.43l-0.32-0.24l-0.89-0.18l-0.37-0.2l-0.24-0.46l0.09-0.41l0.2-0.42l0.12-0.5L14.27,54l-0.04-0.17l-0.26-0.4
		v-0.18l0.14-0.32l0.13-0.1l0.05-0.1l-0.04-0.13l-0.06-0.11l-0.09-0.17l-0.03-0.14l0.11-0.05l0.48,0.04l0.26-0.04l0.19-0.11
		l0.45-0.64l0.13-0.27l0.11-0.11l0.22-0.17l0.16-0.15l0.04-0.08l0.05-0.15l-0.02-0.26l0.03-0.16l0.09-0.05l0.04-0.05l0.03-0.13
		l0.03-0.26l0.08-0.28l0.13-0.15l0.13-0.12l0.09-0.16l-0.08-0.23l-0.03-0.13l0.06-0.05l0.04-0.06l0.03-0.13l0.01-0.14l-0.03-0.07
		l-0.11-0.14l0.01-0.29l0.04-0.3V47.1l0.2-0.12l0.09-0.1v-0.11l-0.16-0.25l-0.06-0.14l-0.02-0.14l0.1-0.25l0.18-0.14l0.42-0.2
		l0.18-0.14l0.18-0.17l0.14-0.21l0.14-0.49l0.13-0.2l0.18-0.15l0.37-0.06l1.09-0.58l0.19-0.03l0.36-0.36l0.37-0.28l0.33-0.19
		l0.11-0.15l-0.03-0.26l0.02-0.16l-0.28-0.25l-0.1-0.14l-0.09-0.09l-0.16-0.11l-0.73-0.7l-0.12-0.19l-0.04-0.04l-0.18-0.16
		l-0.04-0.04l-0.07-0.1l-0.04-0.04l-0.04-0.02l-0.04-0.02l-0.13-0.02l-0.05-0.03l-0.04-0.06l-0.04-0.08l-0.01-0.15v-0.11l0.01-0.01
		l0.07-0.18l0.07-0.16l-0.08-0.13l-0.02-0.01l-0.02-0.25l-0.09-0.13l-0.11-0.11l-0.1-0.21V38.6l0.05-0.27v-0.1l-0.04-0.06
		l-0.04-0.05l-0.46-1.38l-0.26-0.08L18,36.51l-0.1-0.24l0.03-0.33l-0.02-0.15l-0.05-0.19l-0.09-0.18l-0.13-0.09l-0.14-0.07
		l-0.05-0.15l0.08-1.39l0.01-0.09l0.01-0.13l-0.04-0.4l0.26-0.26l0.05-0.11l-0.02-0.16l-0.15-0.24l-0.04-0.12l0.05-0.16l0.11-0.03
		l0.13,0.02l0.14-0.02l0.12-0.04l0.04-0.04l0.15-0.46l0.04-0.25l0.01-0.47l-0.05-0.58l0.02-0.3l0.05-0.32l-0.05-0.29l-0.22-0.65
		l-0.11-0.59l-0.1-0.48l0.27-0.55l0.01-0.52l0.11-0.24l-0.04-0.2l-0.22-0.9l-0.02-0.24l0.02-0.33l0.1-0.65l0.07-0.17l0.21-0.27
		l0.05-0.13v-0.13l-0.04-0.11l-0.32-0.54l-0.11-0.29L18,21.97l0.03-0.33l0.18-0.15l0.06-0.12l0.02-0.13l0.01-0.27l0.02-0.13
		l0.03-0.1l0.04-0.04l0.08-0.09l0.04-0.04l0.04-0.04l0.34-0.11l0.33-0.15l0.57-0.07l0.16-0.04l0.08-0.01l0.09,0.02l0.49,0.22
		l0.04,0.03l0.04,0.04l0.07,0.07l0.09,0.08l0.12,0.06l0.08,0.02l0.07,0.01h0.06l0.06-0.02l0.26-0.11l0.05-0.02l0.06-0.01h0.06h0.07
		l0.06,0.02l0.08,0.04l0.08,0.06l0.09,0.12l0.08,0.12l0.05,0.12l0.16,0.51l0.07,0.15l0.1,0.17l0.16,0.18l0.21,0.12l0.24,0.04
		l0.48-0.02l0.35-0.14l0.21-0.49l0.18-0.42l0.15-0.35l0.21-0.21l0.23-0.24l0.04-0.11l0.03-0.11l0.06-0.49l0.02-0.1l0.04-0.27
		l0.05-0.43l0.07-0.55l0.09-0.66l0.09-0.73l0.11-0.78l0.11-0.81l0.11-0.81l0.1-0.78l0.1-0.73l0.09-0.66l0.07-0.56l0.05-0.43
		l0.04-0.27l0.02-0.1l1.47,0.19l1.48,0.18l1.47,0.18l1.48,0.18l1.47,0.19l1.48,0.18l1.48,0.18L38,12.37l1.48,0.17l1.48,0.17
		l1.48,0.17l1.47,0.17l1.48,0.17l1.48,0.16l1.48,0.16l1.48,0.16l1.48,0.15l1.47,0.16l1.48,0.15l1.48,0.15l1.49,0.15l1.48,0.14
		l1.48,0.14l1.48,0.14l1.48,0.14l1.48,0.13l1.48,0.13l1.48,0.13l1.49,0.13l1.48,0.13l1.48,0.12l1.48,0.12l-0.17,2.08l-0.17,2.09
		l-0.18,2.09l-0.18,2.09L72.65,26.34L72.65,26.34z"/>
</g>
<g id="ARKANSAS_1_">
</g>
<g id="CALIFORNIA">
</g>
<g id="COLORADO">
</g>
<g id="CONNECTICUT">
</g>
<g id="DELAWARE">
</g>
<g id="DC">
</g>
<g id="FLORIDA">
</g>
<g id="GEORGIA">
</g>
<g id="HAWAII">
</g>
<g id="IDAHO">
</g>
<g id="IOWA">
</g>
<g id="ILLINOIS">
</g>
<g id="INDIANA">
</g>
<g id="KANSAS">
</g>
<g id="KETUCKY">
</g>
<g id="LOUISANA">
</g>
<g id="MAINE">
</g>
<g id="MARYLAND">
</g>
<g id="MASSACHUSETTS">
</g>
<g id="MICHIGAN">
</g>
<g id="MINNESOTA">
</g>
<g id="MISSOURI">
</g>
<g id="MISSISSIPPI">
</g>
<g id="MONTANA">
</g>
<g id="NORTH_CAROLINA">
</g>
<g id="NORTH_DAKOTA">
</g>
<g id="NEBRASKA">
</g>
<g id="NEW_HAMPSHIRE">
</g>
<g id="NEW_JERSEY">
</g>
<g id="NEW_YORK">
</g>
<g id="NEW_MEXICO">
</g>
<g id="NEVADA">
</g>
<g id="OHIO">
</g>
<g id="OKLAHOMA">
</g>
<g id="OREGON">
</g>
<g id="PENNSYLVANIA">
</g>
<g id="RHODE_ISLAND">
</g>
<g id="SOUTH_CAROLINA">
</g>
<g id="SOUTH_DAKOTA">
</g>
<g id="TENNESSEE">
</g>
<g id="TEXAS">
</g>
<g id="UTAH">
</g>
<g id="VIRGINIA">
</g>
<g id="VERMONT">
</g>
<g id="WASHINGTON">
</g>
<g id="WISCONSIN">
</g>
<g id="WEST_VIRGINIA">
</g>
<g id="WYOMING">
</g>
</svg>
