<?xml version="1.0" encoding="UTF-8"?>
<svg id="ARIZONA" xmlns="http://www.w3.org/2000/svg" viewBox="0 0 90 90">
  <defs>
    <style>
      .cls-1 {
        fill: #e2e2e2;
        stroke: #f9f9f9;
        stroke-linecap: round;
        stroke-linejoin: round;
        stroke-width: .03px;
      }
    </style>
  </defs>
  <path id="AZ" class="cls-1" d="M72.65,26.34l-.17,2.09-.18,2.09-.17,2.09-.18,2.09-.17,2.1-.18,2.09-.17,2.09-.17,2.1-.18,2.09-.18,2.1-.17,2.09-.17,2.09-.18,2.1-.18,2.09-.17,2.1-.17,2.1-.18,2.09-.17,2.1-.18,2.09-.17,2.1-.18,2.1-.17,2.09-.18,2.1-.17,2.1-.18,2.09-.17,2.1-.18,2.1h0v.02h0v.02h0v.02h0l-.23-.02-.43-.04-.43-.04-.43-.04-.43-.04-.43-.04-.43-.04-.43-.04-.43-.04-.43-.04-.43-.04-.43-.03-.43-.04-.43-.04-.43-.04-.43-.04-.43-.04-.43-.04-.43-.04-.43-.04-.43-.04-.43-.04-.43-.04-.43-.04-.43-.04-.43-.04-.43-.04-.43-.04-.43-.04-.43-.04-.42-.04-.44-.04-.42-.04-.43-.04-.43-.04-.43-.04-.43-.04-.43-.04-.43-.04-.43-.04-.43-.04-.43-.04-.43-.04-.43-.04-.43-.04-.58-.05-.6-.14-.26-.13-.5-.25-.5-.25-.49-.25-.5-.25-.5-.25-.49-.25-.5-.25-.49-.25-3.96-1.93-3.94-1.94-3.94-1.96-3.92-1.96-3.91-1.99-3.89-2-3.87-2.01-3.87-2.03-.35-.19-.04-.03h0l.14-.11h0l.2-.47,.04-.25-.05-.25,.2-.29,.06-.07h0l.26-.17,.09-.07h0l.14-.19,.11-.19,.11-.28,.06-.15,.41-.22,1,.34,.43-.04,.11-.17,.04-.21,.02-.21,.06-.2,.15-.14,.41-.2,.13-.14,.06-.25-.06-.78,.04-.15,.04-.11,.02-.11-.02-.16-.22-.43-.32-.24-.89-.18-.37-.2-.24-.46,.09-.41,.2-.42,.12-.5v-.69s-.05-.17-.05-.17l-.26-.4v-.18l.14-.32,.13-.1,.05-.1-.04-.13-.06-.11-.09-.17-.03-.14,.11-.05,.48,.04,.26-.04,.19-.11,.45-.64,.13-.27,.11-.11,.22-.17,.16-.15,.04-.08,.05-.15-.02-.26,.03-.16,.09-.05,.04-.05,.03-.13,.03-.26,.08-.28,.13-.15,.13-.12,.09-.16-.08-.23-.03-.13,.06-.05,.04-.06,.03-.13v-.14s-.02-.07-.02-.07l-.11-.14v-.29s.04-.3,.04-.3v-.18l.2-.12,.09-.1v-.11l-.16-.25-.06-.14-.02-.14,.1-.25,.18-.14,.42-.2,.18-.14,.18-.17,.14-.21,.14-.49,.13-.2,.18-.15,.37-.06,1.09-.58,.19-.03,.36-.36,.37-.28,.33-.19,.11-.15-.03-.26,.02-.16-.28-.25-.1-.14-.09-.09-.16-.11-.73-.7-.12-.19-.04-.04-.18-.16-.04-.04-.07-.1-.04-.04-.04-.02-.04-.02-.13-.02-.05-.03-.04-.06-.04-.08v-.15s0-.11,0-.11h0s.07-.19,.07-.19l.07-.16-.08-.13h-.02s-.02-.26-.02-.26l-.09-.13-.11-.11-.1-.21v-.08l.05-.27v-.1l-.04-.06-.04-.05-.46-1.38-.26-.08-.18-.15-.1-.24,.03-.33-.02-.15-.05-.19-.09-.18-.13-.09-.14-.07-.05-.15,.08-1.39v-.09s.02-.13,.02-.13l-.04-.4,.26-.26,.05-.11-.02-.16-.15-.24-.04-.12,.05-.16,.11-.03,.13,.02,.14-.02,.12-.04,.04-.04,.15-.46,.04-.25v-.47s-.04-.58-.04-.58l.02-.3,.05-.32-.05-.29-.22-.65-.11-.59-.1-.48,.27-.55v-.52s.12-.24,.12-.24l-.04-.2-.22-.9-.02-.24,.02-.33,.1-.65,.07-.17,.21-.27,.05-.13v-.13l-.04-.11-.32-.54-.11-.29-.05-.33,.03-.33,.18-.15,.06-.12,.02-.13v-.27s.03-.13,.03-.13l.03-.1,.04-.04,.08-.09,.04-.04,.04-.04,.34-.11,.33-.15,.57-.07,.16-.04h.08s.09,0,.09,0l.49,.22,.04,.03,.04,.04,.07,.07,.09,.08,.12,.06,.08,.02h.07s.06,0,.06,0l.06-.02,.26-.11,.05-.02h.06s.06,0,.06,0h.07l.06,.02,.08,.04,.08,.06,.09,.12,.08,.12,.05,.12,.16,.51,.07,.15,.1,.17,.16,.18,.21,.12,.24,.04,.48-.02,.35-.14,.21-.49,.18-.42,.15-.35,.21-.21,.23-.24,.04-.11,.03-.11,.06-.49,.02-.1,.04-.27,.05-.43,.07-.55,.09-.66,.09-.73,.11-.78,.11-.81,.11-.81,.1-.78,.1-.73,.09-.66,.07-.56,.05-.43,.04-.27,.02-.1,1.47,.19,1.48,.18,1.47,.18,1.48,.18,1.47,.19,1.48,.18,1.48,.18,1.47,.18,1.48,.17,1.48,.17,1.48,.17,1.47,.17,1.48,.17,1.48,.16,1.48,.16,1.48,.16,1.48,.15,1.47,.16,1.48,.15,1.48,.15,1.49,.15,1.48,.14,1.48,.14,1.48,.14,1.48,.14,1.48,.13,1.48,.13,1.48,.13,1.49,.13,1.48,.13,1.48,.12,1.48,.12-.17,2.08-.17,2.09-.18,2.09-.18,2.09-.17,2.09h0Z"/>
  <g>
    <path d="M43.12,46.61h-1.91l-.32,.93h-1.3l1.86-5.05h1.42l1.86,5.05h-1.31l-.32-.93Zm-.32-.94l-.63-1.87-.64,1.87h1.27Z"/>
    <path d="M46.49,46.55h2.25v.99h-3.62v-.94l2.21-3.17h-2.18v-.99h3.57v.94l-2.23,3.16Z"/>
  </g>
</svg>