<?xml version="1.0" encoding="utf-8"?>
<!-- Generator: Adobe Illustrator 26.5.0, SVG Export Plug-In . SVG Version: 6.00 Build 0)  -->
<svg version="1.1" xmlns="http://www.w3.org/2000/svg" xmlns:xlink="http://www.w3.org/1999/xlink" x="0px" y="0px"
	 viewBox="0 0 90 90" style="enable-background:new 0 0 90 90;" xml:space="preserve">
<style type="text/css">
	.st0{fill:#CECECE;stroke:#F9F9F9;stroke-width:0.025;stroke-linecap:round;stroke-linejoin:round;}
	.st1{display:none;fill:none;stroke:#47CCCC;stroke-width:0.5;stroke-linecap:round;stroke-linejoin:round;}
	.st2{fill:#CECECE;}
</style>
<g id="ALABAMA">
</g>
<g id="ALASKA">
</g>
<g id="ARIZONA">
</g>
<g id="ARKANSAS_1_">
	<path id="AR_1_" class="st0" d="M78.57,26.48l-0.01,0.12l0.28,0.37l0.36,0.32l0.22,0.46l-0.07,0.31l-0.2-0.04l-0.4-0.26l-0.28,0.06
		l-0.22,0.14l-0.18,0.22l-0.09,0.29l0.35,0.13l0.36,0.22l0.14,0.27l-0.75,0.75l-1.87,1.03l-0.17,0.22l0.03,0.28l0.22,0.35l0.4,0.43
		l0.01,0.2l-0.2,0.27l-0.2,0.2l-0.07,0.15l0.07,0.18l0.22,0.28l0.21,0.36l-0.12,0.21l-0.28,0.11l-0.32,0.07l-0.3,0.12l-0.14,0.18
		l-0.04,0.27l0.04,0.4l-0.05,0.27l-0.13,0.27l-0.18,0.25l-0.63,0.63l-0.14,0.26l-0.02,0.38l0.08,0.71l0.08,0.3l0.33,0.76l0.19,0.65
		l0.05,0.63l-0.23,0.42h-0.27l-0.35-0.06l-0.32,0.04l-0.11,0.28v0.32l-0.06,0.27l-0.12,0.26l-0.18,0.21l-0.45,0.32l-0.29,0.15
		l-0.25,0.07l-0.13,0.13l0.12,0.18l0.05,0.07l0.44,0.45l0.04,0.66l-0.39,0.57l-0.58,0.45l-1.39,0.69l-0.13,0.22l0.08,0.26l0.18,0.31
		l0.08,0.28l-0.17,0.22l-0.11,0.15l-0.27,0.11l-0.29,0.01l-0.26-0.14l-0.16,0.07l-0.15,0.33l-0.18,0.57l-0.06,0.67l0.33,1.07
		l-0.02,1.34l0.05,0.55l-0.06,0.46l-0.39,0.49l-0.46,0.31l-0.28,0.14l-0.54,0.11h-0.15l-0.11-0.05l-0.18-0.12l-0.05,0.09v0.14
		l0.07,0.22l0.14,0.28l0.04,0.2l-0.04,0.13l-0.15,0.3l-0.04,0.16l-0.05,0.07l-0.13-0.01l-0.22-0.08l-0.18,0.02l-0.08,0.04
		l-0.05,0.09l-0.41,1.19l-0.15,0.14l-0.2,0.09l-0.62,0.46l-0.15,0.18l0.05,0.44l0.99,0.39l0.08,0.6l-0.15,0.29l-0.2,0.14l-0.26,0.06
		l-0.31,0.02l-0.29,0.07l-0.7,0.43l-0.68,0.21l-0.11,0.12l0.07,0.22l0.14,0.09l0.18,0.06l0.19,0.08l0.25,0.42l-0.15,0.39l-0.22,0.38
		l0.13,0.54l0.17,0.24l0.11,0.29l-0.14,0.35l-0.13,0.06l-0.35,0.05l-0.14,0.05l-0.13,0.11l-0.25,0.31l-0.08,0.06l-0.11,0.12
		l-0.46,0.74l-0.23,0.19l-0.19,0.13l-0.02,0.15l0.28,0.25l0.56,0.22l0.22,0.19l0.08,0.4l-0.09,0.33l-0.21,0.18l-0.28,0.08
		l-0.32,0.02l-0.2,0.13l0.08,0.26l0.22,0.25l0.22,0.09l0.25,0.07l0.28,0.2l0.48,0.42l0.04,0.28l0.05,0.45v0.47l-0.05,0.31
		l-0.44,0.69L63.3,70.2l0.21,0.29l0.15,0.01l0.41,0.12l0.19,0.13l0.09,0.19l0.07,0.79l0.19,0.51l0.06,0.26l-0.06,0.29l-0.16,0.12
		L64.18,73l-0.25,0.14l-0.09,0.2l0.06,1.64l-0.19,0.04l-2.36,0.19l-2.37,0.19l-2.37,0.18l-2.36,0.18l-2.36,0.17l-2.37,0.18
		l-2.37,0.16l-2.35,0.16l-2.37,0.15l-2.37,0.15l-2.36,0.15l-2.37,0.15l-2.37,0.14l-2.37,0.14l-2.36,0.14l-2.37,0.13l-0.13-1.89
		l-0.12-1.88l-0.12-1.88l-0.12-1.87l-0.06-1.03v-0.01l-0.13-0.05l-0.21-0.08l-0.39-0.27l-0.23,0.14l-0.28,0.02l-0.26-0.05
		l-0.46-0.23l-0.19,0.08l-0.16,0.16l-0.19,0.08l-0.65-0.29L22,68.57l-0.13,0.2l-0.08,0.25l-0.12,0.15l-0.28-0.14l-0.27,0.15
		l-0.25-0.04L20.78,69l0.15-0.16v-0.11L20.6,68.8l-0.33-0.08l-0.26-0.21l-0.11-0.32l-0.14-0.28l-0.24-0.05l-0.09-3.42L19.35,61
		l-0.11-3.42l-0.09-3.42l-0.11-3.43l-0.09-3.42l-0.09-3.42l-0.11-3.42l-0.4-2.18l-0.4-2.17l-0.4-2.18l-0.39-2.17l-0.4-2.18
		l-0.4-2.17l-0.39-2.17l-0.4-2.18l3.49-0.18l3.49-0.18l3.49-0.2l3.49-0.2l3.49-0.21l3.48-0.21l3.49-0.23l3.49-0.23l3.49-0.24
		l3.48-0.26l3.48-0.26l3.49-0.27l3.48-0.28l3.49-0.28l3.48-0.29l3.48-0.3l0.88-0.08l0.02,0.04l0.02,0.04l0.08,0.12l0.15,0.34
		l0.04,0.05l0.06,0.05l0.07,0.04l0.05,0.04l0.02,0.06l0.02,0.07l0.04,0.25l0.02,0.08l0.02,0.08l0.05,0.07l0.05,0.05l0.44,0.22
		l0.07,0.05l0.06,0.05l0.05,0.06l0.05,0.06l0.04,0.07l0.04,0.08v0.09v0.09l-0.05,0.39v0.09l0.09,0.46l0.01,0.08l-0.01,0.08
		l-0.02,0.08l-0.02,0.07l-0.05,0.07l-0.04,0.06l-0.06,0.05l-0.07,0.05l-0.31,0.13l-0.06,0.05L73.11,23l-0.01,0.07l-0.02,0.32
		l-0.02,0.08l-0.04,0.08l-0.04,0.06l-0.06,0.06l-0.39,0.26l-0.27,0.14l-0.17,0.07l-0.06,0.04l-0.12,0.09l-0.05,0.06l-0.05,0.07
		l-0.02,0.08l-0.01,0.08l-0.01,0.14v0.08l-0.02,0.09l-0.04,0.07l-0.04,0.07l-0.06,0.05l-0.06,0.05l-0.07,0.04l-0.26,0.08l-0.06,0.05
		l-0.06,0.05l-0.05,0.06l-0.07,0.13l-0.14,0.19l-0.18,0.37l-0.11,0.16l-0.37,0.91l-0.04,0.16l0.01,0.06l0.02,0.07l0.08,0.01
		l0.93-0.11l1.82-0.21l1.82-0.21l1.8-0.22l1.82-0.21h0.02l0.02-0.01h0.02H78.57L78.57,26.48z"/>
</g>
<g id="CALIFORNIA">
</g>
<g id="COLORADO">
</g>
<g id="CONNECTICUT">
</g>
<g id="DELAWARE">
</g>
<g id="DC">
</g>
<g id="FLORIDA">
</g>
<g id="GEORGIA">
</g>
<g id="HAWAII">
</g>
<g id="IDAHO">
</g>
<g id="IOWA">
</g>
<g id="ILLINOIS">
</g>
<g id="INDIANA">
</g>
<g id="KANSAS">
</g>
<g id="KETUCKY">
</g>
<g id="LOUISANA">
</g>
<g id="MAINE">
</g>
<g id="MARYLAND">
</g>
<g id="MASSACHUSETTS">
</g>
<g id="MICHIGAN">
</g>
<g id="MINNESOTA">
</g>
<g id="MISSOURI">
</g>
<g id="MISSISSIPPI">
</g>
<g id="MONTANA">
</g>
<g id="NORTH_CAROLINA">
</g>
<g id="NORTH_DAKOTA">
</g>
<g id="NEBRASKA">
</g>
<g id="NEW_HAMPSHIRE">
</g>
<g id="NEW_JERSEY">
</g>
<g id="NEW_YORK">
</g>
<g id="NEW_MEXICO">
</g>
<g id="NEVADA">
</g>
<g id="OHIO">
</g>
<g id="OKLAHOMA">
</g>
<g id="OREGON">
</g>
<g id="PENNSYLVANIA">
</g>
<g id="RHODE_ISLAND">
</g>
<g id="SOUTH_CAROLINA">
</g>
<g id="SOUTH_DAKOTA">
</g>
<g id="TENNESSEE">
</g>
<g id="TEXAS">
</g>
<g id="UTAH">
</g>
<g id="VIRGINIA">
</g>
<g id="VERMONT">
</g>
<g id="WASHINGTON">
</g>
<g id="WISCONSIN">
</g>
<g id="WEST_VIRGINIA">
</g>
<g id="WYOMING">
</g>
</svg>
