<?xml version="1.0" encoding="UTF-8"?>
<svg id="ARKANSAS" xmlns="http://www.w3.org/2000/svg" viewBox="0 0 90 90">
  <defs>
    <style>
      .cls-1 {
        fill: #e2e2e2;
        stroke: #f9f9f9;
        stroke-linecap: round;
        stroke-linejoin: round;
        stroke-width: .03px;
      }
    </style>
  </defs>
  <path id="AR" class="cls-1" d="M78.57,26.48v.12s.27,.37,.27,.37l.36,.32,.22,.46-.07,.31-.2-.04-.4-.26-.28,.06-.22,.14-.18,.22-.09,.29,.35,.13,.37,.22,.14,.27-.75,.75-1.87,1.03-.17,.22,.03,.28,.22,.35,.4,.43v.2s-.19,.27-.19,.27l-.2,.2-.07,.15,.07,.18,.22,.28,.21,.36-.12,.21-.28,.11-.32,.07-.3,.12-.14,.18-.04,.27,.04,.4-.05,.27-.13,.27-.18,.25-.63,.63-.14,.26-.02,.38,.08,.71,.08,.3,.33,.76,.19,.65,.05,.63-.23,.42h-.27l-.35-.06-.32,.04-.11,.28v.32l-.06,.27-.12,.26-.18,.21-.45,.32-.29,.15-.25,.07-.13,.13,.12,.18,.05,.07,.44,.45,.04,.66-.39,.57-.58,.45-1.39,.69-.13,.22,.08,.26,.18,.31,.08,.28-.17,.22-.11,.15-.27,.11h-.29s-.26-.13-.26-.13l-.16,.07-.15,.33-.18,.57-.06,.67,.33,1.07-.02,1.34,.05,.55-.06,.46-.39,.49-.46,.31-.28,.14-.54,.11h-.15l-.11-.05-.18-.12-.05,.09v.14l.07,.22,.14,.28,.04,.2-.04,.13-.15,.3-.04,.16-.05,.07h-.13s-.22-.09-.22-.09l-.18,.02-.08,.04-.05,.09-.41,1.19-.15,.14-.2,.09-.62,.46-.15,.18,.05,.44,.99,.39,.08,.6-.15,.29-.2,.14-.26,.06-.31,.02-.29,.07-.7,.43-.68,.21-.11,.12,.07,.22,.14,.09,.18,.06,.19,.08,.25,.42-.15,.39-.22,.38,.13,.54,.17,.24,.11,.29-.14,.35-.13,.06-.35,.05-.14,.05-.13,.11-.25,.31-.08,.06-.11,.12-.46,.74-.23,.19-.19,.13-.02,.15,.28,.25,.56,.22,.22,.19,.08,.4-.09,.33-.21,.18-.28,.08-.32,.02-.2,.13,.08,.26,.22,.25,.22,.09,.25,.07,.28,.2,.48,.42,.04,.28,.05,.45v.47l-.05,.31-.44,.69-.12,.35,.21,.29h.15s.41,.13,.41,.13l.19,.13,.09,.19,.07,.79,.19,.51,.06,.26-.06,.29-.16,.12-.27,.09-.25,.14-.09,.2,.06,1.64-.19,.04-2.36,.19-2.37,.19-2.37,.18-2.36,.18-2.36,.17-2.37,.18-2.37,.16-2.35,.16-2.37,.15-2.37,.15-2.36,.15-2.37,.15-2.37,.14-2.37,.14-2.36,.14-2.37,.13-.13-1.89-.12-1.88-.12-1.88-.12-1.87-.06-1.03h0s-.13-.06-.13-.06l-.21-.08-.39-.27-.23,.14-.28,.02-.26-.05-.46-.23-.19,.08-.16,.16-.19,.08-.65-.29-.22,.02-.13,.2-.08,.25-.12,.15-.28-.14-.27,.15-.25-.04-.09-.15,.15-.16v-.11l-.33,.07-.33-.08-.26-.21-.11-.32-.14-.28-.24-.05-.09-3.42-.09-3.43-.11-3.42-.09-3.42-.11-3.43-.09-3.42-.09-3.42-.11-3.42-.4-2.18-.4-2.17-.4-2.18-.39-2.17-.4-2.18-.4-2.17-.39-2.17-.4-2.18,3.49-.18,3.49-.18,3.49-.2,3.49-.2,3.49-.21,3.48-.21,3.49-.23,3.49-.23,3.49-.24,3.48-.26,3.48-.26,3.49-.27,3.48-.28,3.49-.28,3.48-.29,3.48-.3,.88-.08,.02,.04,.02,.04,.08,.12,.15,.34,.04,.05,.06,.05,.07,.04,.05,.04,.02,.06,.02,.07,.04,.25,.02,.08,.02,.08,.05,.07,.05,.05,.44,.22,.07,.05,.06,.05,.05,.06,.05,.06,.04,.07,.04,.08v.19l-.05,.39v.09l.09,.46v.08s0,.08,0,.08l-.02,.08-.02,.07-.05,.07-.04,.06-.06,.05-.07,.05-.31,.13-.06,.05-.05,.06v.07s-.04,.32-.04,.32l-.02,.08-.04,.08-.04,.06-.06,.06-.39,.26-.27,.14-.17,.07-.06,.04-.12,.09-.05,.06-.05,.07-.02,.08v.08s-.02,.14-.02,.14v.08l-.02,.09-.04,.07-.04,.07-.06,.05-.06,.05-.07,.04-.26,.08-.06,.05-.06,.05-.05,.06-.07,.13-.14,.19-.18,.37-.11,.16-.37,.91-.04,.16v.06s.04,.07,.04,.07h.08s.93-.09,.93-.09l1.82-.21,1.82-.21,1.8-.22,1.82-.21h.05s.02-.01,.02-.01h.02Z"/>
  <g>
    <path d="M41.32,48.69h-1.91l-.32,.93h-1.3l1.86-5.05h1.42l1.86,5.05h-1.31l-.32-.93Zm-.32-.94l-.63-1.87-.64,1.87h1.27Z"/>
    <path d="M46.03,49.62l-1.1-1.92h-.28v1.92h-1.23v-5.09h2.1c.4,0,.74,.07,1.02,.21,.28,.14,.49,.33,.63,.57,.14,.24,.21,.52,.21,.83,0,.37-.1,.68-.31,.94-.2,.26-.5,.44-.89,.53l1.21,2h-1.36Zm-1.38-2.76h.76c.25,0,.42-.05,.54-.16s.17-.27,.17-.48-.06-.36-.18-.48c-.12-.12-.3-.17-.54-.17h-.76v1.29Z"/>
  </g>
</svg>