<?xml version="1.0" encoding="UTF-8"?>
<svg id="CALIFORNIA" xmlns="http://www.w3.org/2000/svg" viewBox="0 0 90 90">
  <defs>
    <style>
      .cls-1 {
        fill: #e2e2e2;
        stroke: #f9f9f9;
        stroke-linecap: round;
        stroke-linejoin: round;
        stroke-width: .03px;
      }
    </style>
  </defs>
  <path id="CA" class="cls-1" d="M40.12,80.86l-.18-.35-.26-.28-.11-.15-.06-.22-.03-.06-.03-.08-.02-.09v-.07l-.02-.07-.07-.03-.08-.03-.07-.05-.04,.17,.07,.21,.08,.2,.06,.3,.18,.37,.07,.28,.12,.14,.14,.12,.11,.07,.06,.02h.04s.04-.03,.04-.03h.04s.17,.03,.17,.03h.08l.08-.03-.25-.27-.15-.11Zm-6.07-4.09l-.18-.11-.02-.03-.09-.08-.07,.04-.08,.02h-.08s-.08-.06-.08-.06l.03,.23,.12,.18,.18,.13,.22,.08,.22-.03-.03-.16-.16-.2Zm7.02,.13l-.5-.3-.1-.05-.37-.32-.16-.07h-.15s-.07,.09-.07,.09l.06,.11,.13,.11,.15,.08,.12,.04,.16,.07,.04,.12-.04,.31v.17s.04,.14,.04,.14l.07,.1,.13,.05h.06s.17-.05,.17-.05h.07s.08,.03,.08,.03l.19,.17,.12,.04,.11-.02,.04-.1-.27-.6-.07-.11Zm-9.51-6.17l-.04-.18,.04-.19-.11,.06-.11,.02-.37-.04-.08,.02-.07,.03-.1,.02-.13-.03-.25-.09-.13,.03,.1,.13,.11,.19,.09,.2,.02,.15,.04,.08,.11,.12,.14,.09h.11l.07-.04h.06s.07,.03,.07,.03l.1,.03h.07s.36-.17,.36-.17l.09-.07,.07-.11,.04-.17h-.18s-.12-.1-.12-.1Zm-1.68-.66l-.05-.05-.06-.04-.07-.04-.03-.06-.03-.07-.06-.07-.05,.13-.09,.03-.19-.02-.13,.07-.03,.07,.05,.03,.09-.07,.16,.11,.16,.06,.38,.06-.02-.08-.03-.07Zm4.63,.75l-.04-.03-.07-.02-.1,.04-.27,.16h-.05s-.07,.01-.07,.01l-.49-.34-.12-.03-.26-.03-.11-.04-.3-.24-.17-.04h-.05l-.04,.02-.07,.05-.04,.04,.03,.03,.1,.04,.07,.07,.06,.09,.04,.11-.11,.18,.12,.17,.24,.14,.21,.07,1.41-.03,.16-.04,.08-.08,.02-.11-.02-.02-.14-.16Zm33.77,3.21v-.1s-.17-.16-.17-.16l-.06-.09-.06-.06-.1-.07-.46-.44-.08-.12-.03-.03-.11-.1-.02-.03-.04-.06-.02-.02h-.02s-.03-.02-.03-.02h-.08s-.03-.03-.03-.03l-.03-.04-.02-.05v-.1s0-.07,0-.07h0s.04-.12,.04-.12l.04-.1-.05-.08h-.01s-.01-.16-.01-.16l-.06-.08-.07-.07-.06-.13v-.05l.03-.17v-.06l-.02-.04-.02-.03-.29-.88-.16-.05-.12-.09-.06-.15,.02-.21v-.09s-.04-.12-.04-.12l-.06-.11-.08-.06-.09-.04-.03-.1,.05-.88v-.06s-.99-1.21-.99-1.21l-.99-1.22-1.03-1.27-.95-1.21-.84-1.07-.84-1.08-.84-1.08-.83-1.07-.83-1.08-.83-1.08-.83-1.08-.82-1.08-.95-1.19-.94-1.19-.94-1.19-.93-1.19-.93-1.19-.93-1.19-.92-1.19-.91-1.19-1.18-1.43-1.18-1.43-1.17-1.44-1.17-1.44-1.16-1.44-1.15-1.44-1.15-1.45-1.14-1.44,.02-.1,.08-.41,.25-1.34,.24-1.34,.25-1.34,.25-1.34,.25-1.34,.25-1.34,.25-1.34,.24-1.34,.25-1.33,.25-1.33,.24-1.34,.25-1.33,.25-1.33,.24-1.33,.25-1.33,.24-1.33-1.47-.27-1.47-.27-1.46-.27-1.46-.28-1.47-.28-1.46-.29-1.46-.29-1.46-.3-1.46-.3-1.46-.3-1.46-.3-1.46-.31-1.46-.31-1.46-.32-1.46-.32-1.46-.32h-.03s-.16-.04-.16-.04l.03,.15v.08s0,.08,0,.08l-.17,.66-.07,.11-.2,.25-.2,.16v.04s.16,.12,.16,.12l.23,.26,.17,.29-.03,.21-.03,.11,.03,.19,.03,.18,.03,.08v.04s-.03,.19-.03,.19v.07s0,.07,0,.07l.03,.07,.04,.06,.06,.05-.11,.11-.02,.23v.46s-.07,.21-.07,.21l-.21,.39-.13,.37-.23,.46-.16,.23-.12,.26-.12,.09-.04,.11-.02,.13v.1s-.03,.1-.03,.1l.12,.32,.02,.17-.04,.16-.57,1-.34,.33-.09,.15,.12-.03,.12-.11,.35-.38,.03-.02,.23,.08,.07-.02,.04,.06h.02s-.13,.16-.13,.16l-.12,.04h-.13s-.16,.02-.16,.02l-.1,.07-.21,.26-.08,.05-.08,.28-.08,.13-.12-.09-.07-.09v-.03s.07-.14,.07-.14l.03-.05-.22,.18-.14,.16-.12,.21v.02s.02,.04,.02,.04v.03s-.02,0-.02,0h-.02l-.02,.02-.02,.02-.03,.08-.22,.25-.07,.1-.1,.18-.09,.18-.04,.12-.05,.1-.08,.11-.06,.11v.1s.05,.17,.05,.17l.07,.47v.19l-.14,.32-.02,.17,.07,.1,.07,.06,.61,.83,.27,.26,.08,.12,.15,.37v.06s-.02,.17-.02,.17v.07s.05,.03,.05,.03l.13,.08,.04,.04,.15,.21,.56,1.36v.13s-.04,.32-.04,.32l.02,.18,.02,.1,.03,.05,.06,.04,.02,.07v.08s.03,.08,.03,.08v.12s-.12,.51-.12,.51l.07,.46-.03,.06-.1,.05-.09,.14-.14,.31-.17,.49-.15,.24,.06,.28-.03,.13,.04,.06,.02,.11,.02,.21v.35l.02,.17,.08,.08,.11,.55v.08s-.07,.24-.07,.24v.07s.02,.16,.02,.16v.08l-.07,.18-.08,.08-.09,.05-.11,.11-.02,.22,.11,.28,.31,.52,.26,.31,.03,.09,.03,.12,.1,.14,.18,.2,.14,.22,.7,1.51,.16,.21,.62,.51,.13,.22,.06,.46,.12,.17-.08,.36,.04,.13v-.05s.04-.15,.04-.15l.29,.3,.08,.14v.06s.01,.14,.01,.14v.07s.13,.23,.13,.23l.18,.5,.18,.33,.06,.17v.18l-.07-.17-.12-.16-.1-.18v-.21s-.05-.13-.05-.13l-.24-.37-.09-.12,.08,.47-.02,.2-.35,.68-.22,.26-.06,.11,.16,.05h.04l.05-.02v-.02s.02-.02,.02-.02l.09-.08,.04-.06,.06-.06,.09-.04-.04-.03-.02-.03-.04-.11h.06s.04-.03,.04-.03l.04-.03,.04-.05,.06,.24,.13,.18,.33,.26,.03,.03,.06,.08,.04,.1,.02,.21,.06,.08,.13,.1,.06,.08,.1,.23,.07,.05,.07-.03,.05-.09v-.12l.27,.34,.13,.22,.17,.18,.07,.09,.09,.1,.13,.07,.13,.02,.1-.07,.02-.13-.04-.12-.02-.09,.09-.07,.03,.12,.07,.06,.06-.03v-.12s-.03-.12-.03-.12l-.15-.19-.06-.11h.04s.06-.06,.06-.06l.04-.02-.04-.09,.02-.08,.07-.06,.18-.02-.04-.08-.13-.14-.02-.14,.08-.42v-.19s.24,.04,.24,.04h.16s.13-.09,.13-.09l.15-.18,.55,.47,.08,.15v.07s.06,.07,.06,.07l.08,.06,.18,.07,.27,.19,.12,.02h.08l.08-.03,.25-.15,.04-.04,.04-.06,.07-.14,.03-.04,.07-.04,.12-.03,.12-.02,.09,.02,.08,.09v.1s-.17,.21-.17,.21l.25,.13,.29,.08-.07,.08-.03,.03-.05,.02,.07,.04h.09s.11,0,.11,0l.09-.02,.02-.08h.07l.2,.08h.08s.23,.01,.23,.01l.13-.05,.16-.12,.23-.26h.03s-.06,.17-.06,.17l-.08,.13-.11,.1-.13,.06h-.07s-.07,.01-.07,.01h-.07s-.06,.04-.06,.04l-.03,.06v.07s.01,.05,.01,.05l.04,.03h.27s.15-.02,.15-.02l.07-.07,.02-.1,.03-.05,.1-.08,.04-.02,.03,.02,.03,.03,.04,.02h.03s.06-.06,.06-.06h.03s.14,.01,.14,.01l.09,.05,.07,.06,.33,.42,.09,.06,.05,.07,.08,.14,.06,.14v.06s-.1-.06-.1-.06l-.1-.12-.09-.14-.03-.11h-.11l-.12-.09-.17-.2-.02-.05v-.12s-.07-.05-.07-.05h-.06s-.06,.02-.06,.02l-.04,.03h-.04s-.13-.02-.13-.02h-.07s-.04,.07-.04,.07l-.02,.06-.03,.07-.03,.06-.03,.02h-.06s-.07,.01-.07,.01l-.06,.03-.03,.05,.03,.02,.16,.09-.13,.04-.12-.04-.22-.14-.7-.22-.26-.15-.7-.23h-.14s-.31,.13-.31,.13h-.15s-.11-.05-.11-.05l-.18-.22-.12-.06h-.13s-.1,.03-.1,.03l-.33,.22-.07,.02h-.08s-.06-.03-.06-.03l-.05-.04h-.05s-.08,.15-.08,.15l-.09,.1-.11,.07h-.1l.11,.28,.21,.16,.17,.18-.02,.36-.13,.26-.04,.16,.1,.09,.12,.05,.28,.18,.1,.09-.26,.05,.03,.02,.08,.06-.06,.1,.04,.03h.16s.06,.07,.06,.07l.02,.07,.06,.31,.08,.9,.04,.17,.07,.12,.15,.03,.03,.02,.02,.04,.02,.07v.04l-.02,.04v.04s0,.02,0,.02l.04,.02,.09,.07-.1,.06h-.13s-.12-.03-.12-.03l-.11-.07-.05-.11-.04-.14-.05-.11h-.08s-.06-.07-.06-.07l-.05-.08-.06-.05-.14,.03-.02-.06v-.09s-.02-.07-.02-.07l-.08-.07-.06-.02-.03-.04v-.13s-.02-.03-.02-.03h-.2s-.07-.03-.07-.03l-.07-.17-.03-.05-.04-.03-.11-.03-.04-.03-.06-.08v-.12s-.02-.1-.02-.1v-.07s.15-.46,.15-.46l.03-.06,.05-.03,.1-.02-.09-.02-.02-.05,.02-.06v-.06s-.01-.31-.01-.31l-.04-.09-.12-.05-.25-.04h-.13l-.1,.05-.16,.27-.03,.32,.02,.33-.03,.29-.07,.13-.15,.19-.06,.17-.03,.33,.06,.08,.07,.03,.07,.02,.06,.04,.06,.15v.33l.04,.15,.06,.13,.03,.16v.17l-.02,.15-.09,.31-.12,.27-.06,.27,.08,.3,.15,.18,.06,.11v.15s.04,.1,.04,.1l.32,.37,.25,.5,.15,.22,.4,.37,.11,.07,.13,.04h.15l.14-.02h.12s.08,.12,.08,.12l.22-.08,.18,.02,.14,.12,.12,.23,.21,.72,.1,.23-.21,.43,.04,.04,.05,.02h.06l.06-.02v.06s.01,.05,.01,.05l-.02,.05-.03,.04-.13-.07-.08-.03-.06,.07-.1,.35-.08,.14-.09,.12-.11,.1-.13,.04-.09-.07-.07-.11-.11-.07-.11,.04-.11,.1-.16,.26,.09,.05,.07,.07,.06,.05,.05,.07v.11s-.03,.06-.03,.06h-.12s-.04,.05-.04,.05v.13s.07,.38,.07,.38v.32l-.05,.32v.06l.03,.23v.15s0,.04,0,.04l.03,.08,.06,.06,.06,.04,.04,.06v.18s.06,.09,.06,.09l.07,.07,.17,.09,.5,.5,.13,.22,.21,.57,.04,.28,.04,.15,.08,.08,.14,.04,.11,.08,.08,.09,.06,.11,.04,.13,.02,.15v.16s-.01,.17-.01,.17v.15s.07,.13,.07,.13l.17,.22,.1,.24,.07,.11,.19,.16,.04,.18v.33l.15,.49,.12,.05,.31,.25,.21,.08,.14,.22,.11,.39,.16,.28,.13,.26,.14,.19,.15,.15,.4,.15,.14,.1,.06,.11,.02,.12,.02,.21,.03,.09,.09,.18,.03,.11-.11,.04h-.09s-.03-.06-.03-.06l.08-.12-.03-.06-.26,.45-.06,.26v.13s.03,.12,.03,.12l.13,.17,.33,.22,.13,.14,.03-.03,.11-.02h.13s.09,.03,.09,.03l.04,.05,.09,.14,.05,.03,.1,.06,.04,.04v.23s0,.26,0,.26l-.07,.28-.09,.28-.27,.43-.06,.17,.02,.07,.15,.2,.04,.06,.02,.07,.02,.07v.08l-.04,.17-.15,.27-.06,.16,.06,.12,.04,.15,.02,.15-.06,.19-.08,.12-.07,.1-.06,.11-.11,.22-.08,.11,.02,.09,.06,.08,.15,.08,.17,.09,.14,.02,.2,.22,.13,.28,.09,.31,.26,.06,.6-.02,.92,.11,.29,.08,.24,.15,.33-.03,.33,.19,.57,.43h.12l.15-.03h.14s.09,.05,.09,.05l.07,.08,.12,.11,.14,.09,.11,.03,.08-.04,.06-.06,.07-.04,.32-.02,.12,.07,.15,.02,.07,.02,.06,.04,.12,.15,.36,.25,.21,.11,.62,.79,.08,.06,.15,.02,.07,.02,.06,.05v.07s0,.08,0,.08v.07s.08,.06,.08,.06l-.04,.08v.11l.04,.11,.04,.11,.02,.05v.09s.02,.04,.02,.04l.03,.03,.06,.02,.03,.03,.23,.3,.15,.12,.2,.04-.08-.03-.05-.03h-.04l-.02-.07,.2,.08,.46,.4,.59,.29,.3,.08,.22,.14,.09,.12,.13-.04,.13-.03,.91,.05,.08,.02,.06,.04h.05s.07,0,.07,0l.1-.04,.15,.06,.17,.16,.16,.2,.17,.41,.08,.37,.08,.3,.02,.14v.11s-.06,.24-.06,.24l-.07,.09-.11,.08-.05,.12,.09,.18,.04,.03,.06,.03,.07,.02,.07-.02h.07s.05,.07,.05,.07l.05,.09,.06,.05,.06,.03,.07,.04,.07,.03h.07s.04-.05,.04-.05l.02-.06v-.07s.08-.21,.08-.21l.04-.04h.13s.06-.03,.06-.03h.06s.13,.13,.13,.13l.1,.02h.13s.16,.04,.16,.04l.11,.07,.71,.98,.18,.21,.67,.5,.26,.28,.2,.37,.12,.09,.25,.21,.09,.09,.3,.44,.51,.5,.7,1.37,.22,.75,.06,.4v.14s.03,.1,.03,.1l.04,.78-.02,.12-.08,.14-.08,.07-.06,.07-.02,.16,.12,.26v.11s-.03,.15-.03,.15l-.1,.32v.08s.04,.14,.04,.14v.1s.05-.06,.05-.06l.07-.23,.07-.07,.09-.03h.04s.11,.04,.11,.04l.09,.08,.13,.08,.06,.07,.08,.16,.06,.18v.14l-.06,.06-.08-.03-.03-.11-.07-.16-.04-.15-.07-.08v-.1s-.11-.07-.11-.07l-.09-.02-.07,.07-.06,.07,.18,.03,.12,.12,.08,.18,.07,.24v.19s-.06,.17-.06,.17v.22s.04,.06,.04,.06h0l.47,.03,.46,.03,.47,.03,.47,.03,.46,.03,.47,.03,.47,.03,.47,.03,.46,.03,.47,.03,.47,.02,.46,.03,.47,.03,.47,.03,.47,.02,.93,.06,.47,.02,.46,.02,.47,.03,.47,.02,.46,.02,.47,.03,.47,.02,.46,.02,.47,.02,.47,.02,.46,.02,.47,.02,.47,.02,.46,.02,.47,.02h.26v.02l.04-.09,.26-.14,.64,.22,.27-.02,.07-.11,.03-.13v-.13s.05-.13,.05-.13l.09-.09,.26-.13,.08-.09,.04-.16-.04-.49,.02-.09,.02-.07v-.07s0-.1,0-.1l-.14-.27-.2-.15-.56-.12-.23-.13-.15-.29,.06-.26,.13-.27,.08-.32v-.44s-.03-.11-.03-.11l-.17-.25v-.11l.09-.2,.08-.07,.03-.06-.03-.08-.04-.07-.06-.11-.02-.09,.07-.03,.31,.02,.16-.03,.12-.07,.28-.41,.08-.17,.07-.07,.14-.11,.1-.1,.03-.05,.03-.09v-.17s0-.1,0-.1l.06-.03,.03-.03,.02-.08,.02-.16,.05-.18,.08-.09,.08-.08,.06-.1-.05-.15-.02-.08,.04-.03,.03-.04,.02-.08v-.09s-.01-.04-.01-.04l-.07-.09v-.18s.03-.19,.03-.19v-.11l.13-.08,.06-.06v-.07l-.1-.16-.04-.09v-.09s.05-.16,.05-.16l.11-.09,.27-.13,.11-.09,.12-.11,.09-.13,.09-.31,.08-.13,.11-.1,.23-.04,.69-.37,.12-.02,.23-.23,.23-.18,.21-.12,.07-.09-.02-.16ZM19.11,39.99l-.03,.03v.02s0,.01,0,.01h0s0,0,0,0h-.01s.04-.06,.04-.06h0s0,0,0,0Zm3.58-.55v.02s-.04,0-.04,0l-.02,.03v.06h0s.03,.03,.03,.03h.05s.05-.09,.05-.09h0l-.07-.04Zm.27,.36v.09h0s.05,.1,.05,.1v-.02s.01,0,.01,0h0l-.03-.02,.03-.12h0l-.07-.02Zm12.54,31.54l-.08-.03-.05-.04-.07-.03h-.06s-.02,.01-.02,.01v.02s.11,.07,.11,.07h.06l.08,.02h.09s0-.03,0-.03h-.05Zm1.58,4.24l-.04,.02h-.07s-.02,.02-.02,.02v.03s.02,.07,.02,.07l.02,.04h0s.08-.11,.08-.11v-.06s0,0,0,0h0Z"/>
  <g>
    <path d="M35.91,47.17c.42,.34,.7,.8,.82,1.38h-1.3c-.1-.24-.24-.42-.44-.55-.2-.13-.44-.2-.71-.2-.36,0-.65,.13-.87,.4-.22,.26-.33,.62-.33,1.06s.11,.79,.33,1.05c.22,.26,.51,.39,.87,.39,.27,0,.51-.07,.71-.2s.35-.32,.44-.55h1.3c-.12,.58-.4,1.04-.82,1.38s-.96,.51-1.61,.51c-.49,0-.93-.11-1.3-.33-.38-.22-.66-.52-.87-.92-.2-.39-.31-.84-.31-1.35s.1-.95,.31-1.35,.49-.7,.87-.92c.37-.22,.81-.33,1.3-.33,.65,0,1.18,.17,1.61,.51Z"/>
    <path d="M40.58,50.87h-1.91l-.32,.93h-1.3l1.86-5.05h1.42l1.86,5.05h-1.31l-.32-.93Zm-.32-.94l-.63-1.87-.64,1.87h1.27Z"/>
  </g>
</svg>