<?xml version="1.0" encoding="utf-8"?>
<!-- Generator: Adobe Illustrator 26.5.0, SVG Export Plug-In . SVG Version: 6.00 Build 0)  -->
<svg version="1.1" xmlns="http://www.w3.org/2000/svg" xmlns:xlink="http://www.w3.org/1999/xlink" x="0px" y="0px"
	 viewBox="0 0 90 90" style="enable-background:new 0 0 90 90;" xml:space="preserve">
<style type="text/css">
	.st0{fill:#CECECE;stroke:#F9F9F9;stroke-width:0.025;stroke-linecap:round;stroke-linejoin:round;}
	.st1{display:none;fill:none;stroke:#47CCCC;stroke-width:0.5;stroke-linecap:round;stroke-linejoin:round;}
	.st2{fill:#CECECE;}
</style>
<g id="ALABAMA">
</g>
<g id="ALASKA">
</g>
<g id="ARIZONA">
</g>
<g id="ARKANSAS_1_">
</g>
<g id="CALIFORNIA">
	<g>
		<path id="CA_1_" class="st0" d="M40.12,80.86l-0.18-0.35l-0.26-0.28l-0.11-0.15l-0.06-0.22l-0.03-0.06l-0.03-0.08l-0.02-0.09
			v-0.07l-0.02-0.07l-0.07-0.03l-0.08-0.03l-0.07-0.05l-0.04,0.17l0.07,0.21l0.08,0.2l0.06,0.3l0.18,0.37l0.07,0.28l0.12,0.14
			l0.14,0.12l0.11,0.07l0.06,0.02l0.04-0.01l0.04-0.02l0.04-0.01l0.17,0.03h0.08l0.08-0.03l-0.25-0.27L40.12,80.86z M34.05,76.77
			l-0.18-0.11l-0.02-0.03l-0.09-0.08l-0.07,0.04l-0.08,0.02l-0.08-0.01l-0.08-0.05l0.03,0.23l0.12,0.18l0.18,0.13l0.22,0.08
			l0.22-0.03l-0.03-0.16L34.05,76.77z M41.07,76.9l-0.5-0.3l-0.1-0.05l-0.37-0.32l-0.16-0.07l-0.15-0.01l-0.07,0.1l0.06,0.11
			l0.13,0.11l0.15,0.08l0.12,0.04l0.16,0.07l0.04,0.12l-0.04,0.31l0.01,0.17l0.03,0.14l0.07,0.1l0.13,0.05l0.06-0.01l0.17-0.04
			l0.07-0.01l0.08,0.03l0.19,0.17l0.12,0.04l0.11-0.02l0.04-0.1L41.14,77L41.07,76.9z M31.56,70.73l-0.04-0.18l0.04-0.19l-0.11,0.06
			l-0.11,0.02l-0.37-0.04l-0.08,0.02l-0.07,0.03l-0.1,0.02l-0.13-0.03l-0.25-0.09l-0.13,0.03l0.1,0.13l0.11,0.19l0.09,0.2l0.02,0.15
			l0.04,0.08l0.11,0.12l0.14,0.09h0.11L31,71.28l0.06,0.01l0.07,0.03l0.1,0.03l0.07-0.01l0.36-0.16l0.09-0.07l0.07-0.11l0.04-0.17
			l-0.18,0.01L31.56,70.73z M29.88,70.07l-0.05-0.05l-0.06-0.04l-0.07-0.04l-0.03-0.06l-0.03-0.07l-0.06-0.07l-0.05,0.13l-0.09,0.03
			l-0.19-0.02l-0.13,0.07l-0.03,0.07l0.05,0.03l0.09-0.07l0.16,0.11l0.16,0.06l0.38,0.06l-0.02-0.08L29.88,70.07z M34.51,70.82
			l-0.04-0.03l-0.07-0.02l-0.1,0.04l-0.27,0.16l-0.05,0.01H33.9l-0.49-0.34l-0.12-0.03l-0.26-0.03l-0.11-0.04l-0.3-0.24l-0.17-0.04
			H32.4l-0.04,0.02l-0.07,0.05l-0.04,0.04l0.03,0.03l0.1,0.04l0.07,0.07l0.06,0.09l0.04,0.11l-0.11,0.18l0.12,0.17l0.24,0.14
			L33,71.25l1.41-0.03l0.16-0.04l0.08-0.08l0.02-0.11l-0.02-0.02L34.51,70.82z M68.28,74.03l0.01-0.1l-0.18-0.16l-0.06-0.09
			L68,73.63l-0.1-0.07l-0.46-0.44l-0.08-0.12l-0.03-0.03l-0.11-0.1l-0.02-0.03l-0.04-0.06l-0.02-0.02l-0.02-0.01l-0.03-0.01
			l-0.08-0.01l-0.03-0.02l-0.03-0.04l-0.02-0.05l-0.01-0.1v-0.07l0.01-0.01l0.04-0.11l0.04-0.1l-0.05-0.08l-0.01-0.01l-0.01-0.16
			l-0.06-0.08l-0.07-0.07l-0.06-0.13v-0.05l0.03-0.17v-0.06l-0.02-0.04l-0.02-0.03l-0.29-0.88l-0.16-0.05l-0.12-0.09l-0.06-0.15
			l0.02-0.21l-0.01-0.09l-0.03-0.12l-0.06-0.11l-0.08-0.06l-0.09-0.04l-0.03-0.1l0.05-0.88l0.01-0.06l-1-1.21l-0.99-1.22l-1.03-1.27
			l-0.95-1.21l-0.84-1.07l-0.84-1.08l-0.84-1.08l-0.83-1.07l-0.83-1.08l-0.83-1.08l-0.83-1.08l-0.82-1.08l-0.95-1.19l-0.94-1.19
			l-0.94-1.19l-0.93-1.19l-0.93-1.19l-0.93-1.19l-0.92-1.19l-0.91-1.19l-1.18-1.43l-1.18-1.43l-1.17-1.44l-1.17-1.44l-1.16-1.44
			l-1.15-1.44l-1.15-1.45l-1.14-1.44l0.02-0.1l0.08-0.41l0.25-1.34l0.24-1.34l0.25-1.34l0.25-1.34l0.25-1.34l0.25-1.34l0.25-1.34
			l0.24-1.34l0.25-1.33l0.25-1.33l0.24-1.34l0.25-1.33l0.25-1.33L42,14.72l0.25-1.33l0.24-1.33l-1.47-0.27l-1.47-0.27l-1.46-0.27
			l-1.46-0.28l-1.47-0.28l-1.46-0.29l-1.46-0.29l-1.46-0.3l-1.46-0.3l-1.46-0.3l-1.46-0.3l-1.46-0.31l-1.46-0.31l-1.46-0.32
			l-1.46-0.32L19.1,7.32l-0.03-0.01l-0.16-0.03l0.03,0.15l0.01,0.08l-0.01,0.08l-0.17,0.66L18.7,8.36l-0.2,0.25l-0.2,0.16L18.3,8.81
			l0.17,0.12l0.23,0.26l0.17,0.29l-0.03,0.21L18.82,9.8l0.03,0.19l0.03,0.18l0.03,0.08l0.01,0.04l-0.04,0.19l-0.01,0.07l0.02,0.07
			l0.03,0.07l0.04,0.06l0.06,0.05l-0.11,0.11l-0.02,0.23l-0.01,0.46l-0.06,0.21l-0.21,0.39l-0.13,0.37l-0.23,0.46l-0.16,0.23
			l-0.12,0.26l-0.12,0.09l-0.04,0.11l-0.02,0.13l0.01,0.1l-0.03,0.1l0.12,0.32l0.02,0.17l-0.04,0.16l-0.57,1l-0.34,0.33l-0.09,0.15
			l0.12-0.03l0.12-0.11l0.35-0.38l0.03-0.02l0.23,0.08l0.07-0.02l0.04,0.06l0.02,0.01l-0.13,0.14l-0.12,0.04l-0.13-0.01l-0.16,0.02
			l-0.1,0.07l-0.21,0.26l-0.08,0.05l-0.08,0.28l-0.08,0.13l-0.12-0.09l-0.07-0.09l0.01-0.03l0.06-0.14l0.03-0.05l-0.22,0.18
			l-0.14,0.16l-0.12,0.21l0.01,0.02l0.01,0.04l0.01,0.03l-0.03,0.01h-0.02l-0.02,0.02l-0.02,0.02l-0.03,0.08l-0.22,0.25l-0.07,0.1
			l-0.1,0.18l-0.09,0.18l-0.04,0.12l-0.05,0.1l-0.08,0.11l-0.06,0.11l-0.01,0.1l0.06,0.17l0.07,0.47v0.19l-0.14,0.32l-0.02,0.17
			l0.07,0.1l0.07,0.06l0.61,0.83l0.27,0.26l0.08,0.12l0.15,0.37l0.01,0.06l-0.02,0.17l0.01,0.07l0.04,0.03l0.13,0.08l0.04,0.04
			l0.15,0.21l0.56,1.36l0.01,0.13l-0.04,0.32l0.02,0.18l0.02,0.1l0.03,0.05l0.06,0.04l0.02,0.07l0.01,0.08l0.02,0.08l0.01,0.12
			l-0.13,0.51l0.07,0.46l-0.03,0.06l-0.1,0.05l-0.09,0.14l-0.14,0.31l-0.17,0.49l-0.15,0.24l0.06,0.28l-0.03,0.13l0.04,0.06
			l0.02,0.11l0.02,0.21v0.35l0.02,0.17l0.08,0.08l0.11,0.55l-0.01,0.08l-0.06,0.24l-0.01,0.07l0.02,0.16v0.08l-0.07,0.18l-0.08,0.08
			l-0.09,0.05l-0.11,0.11l-0.02,0.22l0.11,0.28l0.31,0.52l0.26,0.31l0.03,0.09l0.03,0.12l0.1,0.14l0.18,0.2l0.14,0.22l0.7,1.51
			l0.16,0.21l0.62,0.51l0.13,0.22l0.06,0.46l0.12,0.17l-0.08,0.36l0.04,0.13l0.01-0.05l0.04-0.15l0.29,0.3l0.08,0.14l0.01,0.06v0.14
			l0.01,0.07l0.12,0.23l0.18,0.5l0.18,0.33l0.06,0.17v0.18l-0.07-0.17l-0.12-0.16l-0.1-0.18l-0.01-0.21l-0.04-0.13l-0.24-0.37
			l-0.09-0.12l0.08,0.47l-0.02,0.2l-0.35,0.68l-0.22,0.26l-0.06,0.11l0.16,0.05h0.04l0.05-0.02l0.01-0.02l0.01-0.02l0.09-0.08
			l0.04-0.06l0.06-0.06l0.09-0.04l-0.04-0.03l-0.02-0.03l-0.04-0.11l0.06-0.01l0.04-0.02l0.04-0.03l0.04-0.05l0.06,0.24l0.13,0.18
			l0.33,0.26l0.03,0.03l0.06,0.08l0.04,0.1l0.02,0.21l0.06,0.08l0.13,0.1l0.06,0.08l0.1,0.23l0.07,0.05l0.07-0.03l0.05-0.09v-0.12
			l0.27,0.34l0.13,0.22l0.17,0.18l0.07,0.09l0.09,0.1l0.13,0.07l0.13,0.02l0.1-0.07l0.02-0.13l-0.04-0.12l-0.02-0.09l0.09-0.07
			l0.03,0.12l0.07,0.06l0.06-0.03l0.01-0.12l-0.04-0.12l-0.15-0.19l-0.06-0.11l0.04-0.01l0.06-0.04l0.04-0.02l-0.04-0.09l0.02-0.08
			l0.07-0.06l0.18-0.02L22.7,38.5l-0.13-0.14l-0.02-0.14l0.08-0.42l0.01-0.19l0.23,0.04l0.16-0.01l0.13-0.08l0.15-0.18l0.55,0.47
			l0.08,0.15l0.01,0.07L24,38.13l0.08,0.06l0.18,0.07l0.27,0.19l0.12,0.02h0.08l0.08-0.03l0.25-0.15l0.04-0.04l0.04-0.06l0.07-0.14
			l0.03-0.04l0.07-0.04l0.12-0.03l0.12-0.02l0.09,0.02l0.08,0.09l-0.01,0.1l-0.16,0.21l0.25,0.13l0.29,0.08l-0.07,0.08l-0.03,0.03
			l-0.05,0.02L26,38.72l0.09,0.01l0.11-0.01l0.09-0.02l0.02-0.08h0.07l0.2,0.08l0.08,0.01h0.23l0.13-0.05l0.16-0.12l0.23-0.26
			l0.03,0.01l-0.06,0.16l-0.08,0.13l-0.11,0.1l-0.13,0.06l-0.07,0.01h-0.07l-0.07,0.01l-0.06,0.04l-0.03,0.06l-0.01,0.07l0.02,0.05
			l0.04,0.03l0.27,0.01L27.26,39l0.07-0.07l0.02-0.1l0.03-0.05l0.1-0.08l0.04-0.02l0.03,0.02l0.03,0.03l0.04,0.02l0.03-0.01
			l0.06-0.06l0.03-0.01l0.14,0.02l0.09,0.05l0.07,0.06l0.33,0.42l0.09,0.06l0.05,0.07l0.08,0.14l0.06,0.14l-0.01,0.06l-0.09-0.06
			l-0.1-0.12l-0.09-0.14l-0.03-0.11h-0.11l-0.12-0.09l-0.17-0.2l-0.02-0.05v-0.06l-0.01-0.06l-0.06-0.05l-0.06-0.01l-0.06,0.02
			l-0.04,0.03l-0.04,0.01l-0.13-0.03l-0.07,0.01l-0.04,0.06l-0.02,0.06l-0.03,0.07l-0.03,0.06l-0.03,0.02l-0.06-0.01l-0.07,0.02
			l-0.06,0.03l-0.03,0.05l0.03,0.02l0.16,0.09l-0.13,0.04l-0.12-0.04l-0.22-0.14l-0.7-0.22l-0.26-0.15l-0.7-0.23l-0.14,0.01
			l-0.31,0.12l-0.15,0.01l-0.11-0.06l-0.18-0.22l-0.12-0.06l-0.13-0.01l-0.1,0.04l-0.33,0.22l-0.07,0.02l-0.08-0.01l-0.06-0.03
			l-0.05-0.04l-0.05-0.01l-0.08,0.16l-0.09,0.1l-0.11,0.07h-0.1l0.11,0.28l0.21,0.16l0.17,0.18l-0.02,0.36l-0.13,0.26l-0.04,0.16
			l0.1,0.09l0.12,0.05l0.28,0.18l0.1,0.09l-0.26,0.05l0.03,0.02l0.08,0.06l-0.06,0.1l0.04,0.03l0.16,0.01l0.06,0.06l0.02,0.07
			l0.06,0.31l0.08,0.9l0.04,0.17l0.07,0.12l0.15,0.03l0.03,0.02l0.02,0.04l0.02,0.07v0.04l-0.02,0.04l-0.01,0.04l0.02,0.02
			l0.04,0.02l0.09,0.07l-0.1,0.06l-0.13,0.01l-0.12-0.03l-0.11-0.07l-0.05-0.11l-0.04-0.14l-0.05-0.11l-0.08-0.01l-0.06-0.06
			l-0.05-0.08l-0.06-0.05l-0.14,0.03l-0.02-0.06l-0.01-0.09l-0.01-0.07l-0.08-0.07l-0.06-0.02l-0.03-0.04l0.01-0.13l-0.03-0.03
			l-0.2-0.01l-0.07-0.02l-0.07-0.17l-0.03-0.05l-0.04-0.03l-0.11-0.03l-0.04-0.03l-0.06-0.08v-0.06l0.01-0.06l-0.03-0.1l0.01-0.07
			l0.13-0.46l0.03-0.06l0.05-0.03l0.1-0.02l-0.09-0.02l-0.02-0.05l0.02-0.06l0.01-0.06l-0.02-0.31L22.8,40l-0.12-0.05l-0.25-0.04
			H22.3l-0.1,0.05l-0.16,0.27l-0.03,0.32l0.02,0.33L22,41.17l-0.07,0.13l-0.15,0.19l-0.06,0.17l-0.03,0.33l0.06,0.08l0.07,0.03
			l0.07,0.02l0.06,0.04l0.06,0.15v0.33l0.04,0.15l0.06,0.13l0.03,0.16v0.17l-0.02,0.15l-0.09,0.31l-0.12,0.27l-0.06,0.27l0.08,0.3
			l0.15,0.18l0.06,0.11l0.01,0.15l0.04,0.1l0.32,0.37l0.25,0.5l0.15,0.22l0.4,0.37l0.11,0.07l0.13,0.04h0.15l0.14-0.02l0.12,0.01
			l0.08,0.11l0.22-0.08l0.18,0.02l0.14,0.12l0.12,0.23l0.21,0.72l0.1,0.23l-0.21,0.43l0.04,0.04l0.05,0.02h0.06l0.06-0.02l0.01,0.06
			v0.05l-0.02,0.05l-0.03,0.04l-0.13-0.07l-0.08-0.03l-0.06,0.07l-0.1,0.35l-0.08,0.14l-0.09,0.12l-0.11,0.1l-0.13,0.04l-0.09-0.07
			l-0.07-0.11l-0.11-0.07l-0.11,0.04l-0.11,0.1l-0.16,0.26l0.09,0.05l0.07,0.07l0.06,0.05l0.05,0.07l0.01,0.11l-0.04,0.06
			l-0.12-0.01l-0.04,0.06l-0.01,0.13l0.07,0.38v0.32l-0.05,0.32v0.06l0.03,0.23v0.09l-0.01,0.06l0.01,0.04l0.03,0.08l0.06,0.06
			l0.06,0.04l0.04,0.06v0.11l0.01,0.08l0.05,0.09l0.07,0.07l0.17,0.09l0.5,0.5l0.13,0.22l0.21,0.57l0.04,0.28l0.04,0.15l0.08,0.08
			l0.14,0.04l0.11,0.08l0.08,0.09l0.06,0.11l0.04,0.13l0.02,0.15l0.01,0.16l-0.02,0.17l0.01,0.15l0.07,0.13l0.17,0.22l0.1,0.24
			l0.07,0.11l0.19,0.16l0.04,0.18v0.33l0.15,0.49l0.12,0.05l0.31,0.25l0.21,0.08l0.14,0.22l0.11,0.39l0.16,0.28l0.13,0.26l0.14,0.19
			l0.15,0.15l0.4,0.15l0.14,0.1l0.06,0.11l0.02,0.12l0.02,0.21l0.03,0.09l0.09,0.18l0.03,0.11l-0.11,0.04l-0.09-0.01l-0.03-0.05
			l0.08-0.12l-0.03-0.06l-0.26,0.45l-0.06,0.26l-0.01,0.13l0.04,0.12l0.13,0.17l0.33,0.22l0.13,0.14l0.03-0.03l0.11-0.02l0.13,0.01
			l0.09,0.03l0.04,0.05l0.09,0.14l0.05,0.03l0.1,0.06l0.04,0.04l0.01,0.23l-0.02,0.26l-0.07,0.28l-0.09,0.28l-0.27,0.43l-0.06,0.17
			l0.02,0.07l0.15,0.2l0.04,0.06l0.02,0.07l0.02,0.07v0.08l-0.04,0.17l-0.15,0.27l-0.06,0.16l0.06,0.12l0.04,0.15l0.02,0.15
			l-0.06,0.19l-0.08,0.12l-0.07,0.1l-0.06,0.11l-0.11,0.22l-0.08,0.11l0.02,0.09l0.06,0.08l0.15,0.08l0.17,0.09l0.14,0.02l0.2,0.22
			l0.13,0.28l0.09,0.31l0.26,0.06l0.6-0.02l0.92,0.11l0.29,0.08l0.24,0.15l0.33-0.03l0.33,0.19l0.57,0.43h0.12l0.15-0.03l0.14-0.01
			l0.09,0.06l0.07,0.08l0.12,0.11l0.14,0.09l0.11,0.03l0.08-0.04l0.06-0.06l0.07-0.04l0.32-0.02l0.12,0.07l0.15,0.02l0.07,0.02
			l0.06,0.04l0.12,0.15l0.36,0.25l0.21,0.11l0.62,0.79l0.08,0.06l0.15,0.02l0.07,0.02l0.06,0.05l0.01,0.07l-0.01,0.08l0.01,0.07
			l0.07,0.06l-0.04,0.08v0.11l0.04,0.11l0.04,0.11l0.02,0.05l0.01,0.09l0.01,0.04l0.03,0.03l0.06,0.02l0.03,0.03l0.23,0.3l0.15,0.12
			l0.2,0.04l-0.08-0.03l-0.05-0.03h-0.04l-0.02-0.07l0.2,0.08l0.46,0.4l0.59,0.29l0.3,0.08l0.22,0.14l0.09,0.12l0.13-0.04l0.13-0.03
			l0.91,0.05l0.08,0.02l0.06,0.04l0.05,0.01L40.51,72l0.1-0.04l0.15,0.06l0.17,0.16l0.16,0.2l0.17,0.41l0.08,0.37l0.08,0.3
			l0.02,0.14l-0.01,0.11l-0.04,0.24l-0.07,0.09l-0.11,0.08l-0.05,0.12l0.09,0.18l0.04,0.03l0.06,0.03l0.07,0.02l0.07-0.02l0.07-0.01
			l0.05,0.08l0.05,0.09l0.06,0.05l0.06,0.03l0.07,0.04l0.07,0.03l0.07-0.01l0.04-0.04l0.02-0.06l0.01-0.07l0.08-0.21l0.04-0.04h0.08
			l0.05-0.01l0.06-0.02l0.06-0.01l0.13,0.14l0.1,0.02l0.13,0.01l0.16,0.04l0.11,0.07l0.71,0.98l0.18,0.21l0.67,0.5l0.26,0.28
			l0.2,0.37l0.12,0.09l0.25,0.21l0.09,0.09l0.3,0.44l0.51,0.5l0.7,1.37l0.22,0.75l0.06,0.4l-0.01,0.14l0.04,0.1l0.04,0.78
			l-0.02,0.12l-0.08,0.14l-0.08,0.07l-0.06,0.07l-0.02,0.16l0.12,0.26l0.01,0.11l-0.03,0.15l-0.1,0.32l0.01,0.08l0.04,0.14l0.01,0.1
			l0.04-0.06l0.07-0.23l0.07-0.07l0.09-0.03l0.04,0.01l0.11,0.04l0.09,0.08l0.13,0.08l0.06,0.07l0.08,0.16l0.06,0.18v0.14
			l-0.06,0.06l-0.08-0.03l-0.03-0.11l-0.07-0.16l-0.04-0.15l-0.07-0.08l0.01-0.1l-0.11-0.07l-0.09-0.02l-0.07,0.07l-0.06,0.07
			l0.18,0.03l0.12,0.12l0.08,0.18l0.07,0.24l-0.01,0.19l-0.05,0.17l0.01,0.22l0.04,0.06l0,0l0.47,0.03l0.46,0.03l0.47,0.03
			l0.47,0.03l0.46,0.03l0.47,0.03l0.47,0.03l0.47,0.03l0.46,0.03l0.47,0.03l0.47,0.02l0.46,0.03L53.86,85l0.47,0.03l0.47,0.02
			l0.93,0.06l0.47,0.02l0.46,0.02l0.47,0.03l0.47,0.02l0.46,0.02l0.47,0.03L59,85.28l0.46,0.02l0.47,0.02l0.47,0.02l0.46,0.02
			l0.47,0.02l0.47,0.02l0.46,0.02l0.47,0.02l0.26,0.01v0.01l0.04-0.09l0.26-0.14l0.64,0.22l0.27-0.02l0.07-0.11l0.03-0.13l0.01-0.13
			l0.04-0.13l0.09-0.09l0.26-0.13l0.08-0.09l0.04-0.16l-0.04-0.49l0.02-0.09l0.02-0.07l0.01-0.07l-0.01-0.1l-0.14-0.27l-0.2-0.15
			l-0.56-0.12l-0.23-0.13l-0.15-0.29l0.06-0.26l0.13-0.27l0.08-0.32L63.8,81.4l-0.03-0.11l-0.17-0.25v-0.11l0.09-0.2l0.08-0.07
			l0.03-0.06l-0.03-0.08l-0.04-0.07l-0.06-0.11l-0.02-0.09l0.07-0.03l0.31,0.02l0.16-0.03l0.12-0.07l0.28-0.41l0.08-0.17l0.07-0.07
			l0.14-0.11l0.1-0.1l0.03-0.05l0.03-0.09l-0.01-0.17l0.02-0.1l0.06-0.03l0.03-0.03l0.02-0.08l0.02-0.16l0.05-0.18l0.08-0.09
			l0.08-0.08l0.06-0.1l-0.05-0.15L65.4,77.9l0.04-0.03l0.03-0.04l0.02-0.08l0.01-0.09l-0.02-0.04l-0.07-0.09l0.01-0.18l0.02-0.19
			v-0.11l0.13-0.08l0.06-0.06v-0.07l-0.1-0.16l-0.04-0.09l-0.01-0.09l0.06-0.16l0.11-0.09l0.27-0.13l0.11-0.09l0.12-0.11l0.09-0.13
			l0.09-0.31l0.08-0.13l0.11-0.1l0.23-0.04l0.69-0.37l0.12-0.02l0.23-0.23l0.23-0.18l0.21-0.12l0.07-0.09L68.28,74.03z M19.11,39.99
			l-0.03,0.03l0.01,0.02l-0.01,0.01l0.01-0.01l0.01,0.01l-0.01,0.01L19.11,39.99V40V39.99z M22.69,39.45l-0.01,0.02l-0.03-0.01
			l-0.02,0.03l-0.01,0.06l0,0v0.01l0.03,0.03l0.05-0.01l0.05-0.08h-0.01h0.01L22.69,39.45z M22.96,39.8v0.09l0.01,0.01l0.05,0.1
			l0.01-0.02v-0.01l0,0l-0.03-0.02l0.03-0.12l0,0l0,0L22.96,39.8z M35.49,71.35l-0.08-0.03l-0.05-0.04l-0.07-0.03l-0.06-0.01
			l-0.02,0.02l0.01,0.02l0.09,0.07h0.06l0.08,0.02l0.09-0.01l-0.01-0.02L35.49,71.35z M37.07,75.58l-0.04,0.02l-0.07,0.01
			l-0.02,0.01l0.01,0.03l0.01,0.07l0.02,0.04l0,0v0.01l0.08-0.11L37.07,75.58L37.07,75.58L37.07,75.58z"/>
	</g>
</g>
<g id="COLORADO">
</g>
<g id="CONNECTICUT">
</g>
<g id="DELAWARE">
</g>
<g id="DC">
</g>
<g id="FLORIDA">
</g>
<g id="GEORGIA">
</g>
<g id="HAWAII">
</g>
<g id="IDAHO">
</g>
<g id="IOWA">
</g>
<g id="ILLINOIS">
</g>
<g id="INDIANA">
</g>
<g id="KANSAS">
</g>
<g id="KETUCKY">
</g>
<g id="LOUISANA">
</g>
<g id="MAINE">
</g>
<g id="MARYLAND">
</g>
<g id="MASSACHUSETTS">
</g>
<g id="MICHIGAN">
</g>
<g id="MINNESOTA">
</g>
<g id="MISSOURI">
</g>
<g id="MISSISSIPPI">
</g>
<g id="MONTANA">
</g>
<g id="NORTH_CAROLINA">
</g>
<g id="NORTH_DAKOTA">
</g>
<g id="NEBRASKA">
</g>
<g id="NEW_HAMPSHIRE">
</g>
<g id="NEW_JERSEY">
</g>
<g id="NEW_YORK">
</g>
<g id="NEW_MEXICO">
</g>
<g id="NEVADA">
</g>
<g id="OHIO">
</g>
<g id="OKLAHOMA">
</g>
<g id="OREGON">
</g>
<g id="PENNSYLVANIA">
</g>
<g id="RHODE_ISLAND">
</g>
<g id="SOUTH_CAROLINA">
</g>
<g id="SOUTH_DAKOTA">
</g>
<g id="TENNESSEE">
</g>
<g id="TEXAS">
</g>
<g id="UTAH">
</g>
<g id="VIRGINIA">
</g>
<g id="VERMONT">
</g>
<g id="WASHINGTON">
</g>
<g id="WISCONSIN">
</g>
<g id="WEST_VIRGINIA">
</g>
<g id="WYOMING">
</g>
</svg>
