<?xml version="1.0" encoding="utf-8"?>
<!-- Generator: Adobe Illustrator 26.5.0, SVG Export Plug-In . SVG Version: 6.00 Build 0)  -->
<svg version="1.1" xmlns="http://www.w3.org/2000/svg" xmlns:xlink="http://www.w3.org/1999/xlink" x="0px" y="0px"
	 viewBox="0 0 90 90" style="enable-background:new 0 0 90 90;" xml:space="preserve">
<style type="text/css">
	.st0{fill:#CECECE;stroke:#F9F9F9;stroke-width:0.025;stroke-linecap:round;stroke-linejoin:round;}
	.st1{display:none;fill:none;stroke:#47CCCC;stroke-width:0.5;stroke-linecap:round;stroke-linejoin:round;}
	.st2{fill:#CECECE;}
</style>
<g id="ALABAMA">
</g>
<g id="ALASKA">
</g>
<g id="ARIZONA">
</g>
<g id="ARKANSAS_1_">
</g>
<g id="CALIFORNIA">
</g>
<g id="COLORADO">
	<path id="CO_1_" class="st0" d="M78.46,34.59l-0.02,1.11l-0.02,1.12l-0.02,1.12l-0.02,1.12l-0.01,1.12l-0.02,1.12l-0.02,1.12
		l-0.02,1.12l-0.02,1.12l-0.02,1.12l-0.02,1.13l-0.02,1.12l-0.02,1.12l-0.02,1.12l-0.02,1.13l-0.02,1.12l-0.01,1.12l-0.02,1.13
		l-0.02,1.12l-0.02,1.12l-0.02,1.13l-0.02,1.12l-0.02,1.13l-0.02,1.12l-0.01,1.13l-0.02,1.12L78,64.98l-0.02,1.12l-0.02,1.13
		l-0.02,1.13l-0.02,1.12l-0.02,1.13l-1.2-0.03l-1.2-0.02l-1.2-0.03l-1.2-0.03l-1.21-0.03l-1.2-0.03l-1.2-0.04l-1.2-0.03l-1.83-0.05
		l-1.83-0.05l-1.84-0.05l-1.83-0.06l-1.83-0.06l-1.83-0.07l-1.84-0.07l-1.83-0.07l-1.83-0.07l-1.84-0.08l-1.83-0.08l-1.83-0.09
		l-1.83-0.09l-1.83-0.09l-1.83-0.1l-1.83-0.1l-1.84-0.1l-1.83-0.11l-1.83-0.11l-1.83-0.11l-1.83-0.11l-1.83-0.12l-1.83-0.13
		l-1.83-0.13l-1.83-0.13l-1.83-0.13l-1.83-0.14l-1.83-0.13l-1.83-0.14l-1.83-0.13l-1.83-0.14L9.6,67.21l0.13-1.5l0.13-1.5l0.12-1.5
		l0.13-1.5l0.13-1.5l0.12-1.49l0.13-1.5l0.13-1.5l0.12-1.5l0.13-1.49l0.13-1.5l0.12-1.5l0.13-1.49l0.13-1.5l0.12-1.49l0.13-1.49
		l0.13-1.5l0.12-1.49l0.13-1.49l0.12-1.49l0.13-1.49l0.13-1.49l0.12-1.49l0.13-1.49l0.12-1.49l0.13-1.49l0.13-1.48l0.12-1.49
		l0.13-1.49l0.13-1.48l0.12-1.49l0.12-1.48l1.46,0.12l1.46,0.12l1.46,0.12l1.46,0.11l1.46,0.11l1.46,0.11l1.45,0.11l1.46,0.1
		l1.46,0.11l1.46,0.1l1.46,0.1l1.46,0.09l1.46,0.1l1.46,0.09l1.46,0.09l1.46,0.08l1.46,0.09l1.46,0.08l1.46,0.08l1.47,0.08
		l1.46,0.07l1.46,0.08l1.46,0.07l1.46,0.07l1.46,0.06l1.46,0.07l1.46,0.06l1.46,0.06l1.47,0.06l1.46,0.05l1.46,0.05l1.46,0.05
		l1.11,0.04l1.11,0.04l1.11,0.04l1.11,0.04l1.11,0.04l1.11,0.04l1.11,0.03l1.11,0.04l1.11,0.03l1.11,0.04l1.11,0.03l1.11,0.03
		l1.11,0.02l1.11,0.03l1.11,0.03l1.11,0.02l0.85,0.02l-0.02,0.75l-0.01,0.75l-0.02,0.75l-0.01,0.75l-0.02,0.75l-0.01,0.75
		l-0.02,0.75l-0.01,0.75l-0.02,0.75l-0.01,0.75l-0.02,0.74l-0.01,0.75l-0.02,0.75l-0.01,0.75l-0.02,0.75L78.46,34.59L78.46,34.59z"
		/>
</g>
<g id="CONNECTICUT">
</g>
<g id="DELAWARE">
</g>
<g id="DC">
</g>
<g id="FLORIDA">
</g>
<g id="GEORGIA">
</g>
<g id="HAWAII">
</g>
<g id="IDAHO">
</g>
<g id="IOWA">
</g>
<g id="ILLINOIS">
</g>
<g id="INDIANA">
</g>
<g id="KANSAS">
</g>
<g id="KETUCKY">
</g>
<g id="LOUISANA">
</g>
<g id="MAINE">
</g>
<g id="MARYLAND">
</g>
<g id="MASSACHUSETTS">
</g>
<g id="MICHIGAN">
</g>
<g id="MINNESOTA">
</g>
<g id="MISSOURI">
</g>
<g id="MISSISSIPPI">
</g>
<g id="MONTANA">
</g>
<g id="NORTH_CAROLINA">
</g>
<g id="NORTH_DAKOTA">
</g>
<g id="NEBRASKA">
</g>
<g id="NEW_HAMPSHIRE">
</g>
<g id="NEW_JERSEY">
</g>
<g id="NEW_YORK">
</g>
<g id="NEW_MEXICO">
</g>
<g id="NEVADA">
</g>
<g id="OHIO">
</g>
<g id="OKLAHOMA">
</g>
<g id="OREGON">
</g>
<g id="PENNSYLVANIA">
</g>
<g id="RHODE_ISLAND">
</g>
<g id="SOUTH_CAROLINA">
</g>
<g id="SOUTH_DAKOTA">
</g>
<g id="TENNESSEE">
</g>
<g id="TEXAS">
</g>
<g id="UTAH">
</g>
<g id="VIRGINIA">
</g>
<g id="VERMONT">
</g>
<g id="WASHINGTON">
</g>
<g id="WISCONSIN">
</g>
<g id="WEST_VIRGINIA">
</g>
<g id="WYOMING">
</g>
</svg>
