<?xml version="1.0" encoding="UTF-8"?>
<svg id="COLORADO" xmlns="http://www.w3.org/2000/svg" viewBox="0 0 90 90">
  <defs>
    <style>
      .cls-1 {
        fill: #e2e2e2;
        stroke: #f9f9f9;
        stroke-linecap: round;
        stroke-linejoin: round;
        stroke-width: .03px;
      }
    </style>
  </defs>
  <path id="CO" class="cls-1" d="M78.46,34.59l-.02,1.11-.02,1.12-.02,1.12-.02,1.12v1.12s-.03,1.12-.03,1.12l-.02,1.12-.02,1.12-.02,1.12-.02,1.12-.02,1.13-.02,1.12-.02,1.12-.02,1.12-.02,1.13-.02,1.12v1.12s-.03,1.13-.03,1.13l-.02,1.12-.02,1.12-.02,1.13-.02,1.12-.02,1.13-.02,1.12v1.13s-.03,1.12-.03,1.12l-.02,1.13-.02,1.12-.02,1.13-.02,1.13-.02,1.12-.02,1.13-1.2-.03-1.2-.02-1.2-.03-1.2-.03-1.21-.03-1.2-.03-1.2-.04-1.2-.03-1.83-.05-1.83-.05-1.84-.05-1.83-.06-1.83-.06-1.83-.07-1.84-.07-1.83-.07-1.83-.07-1.84-.08-1.83-.08-1.83-.09-1.83-.09-1.83-.09-1.83-.1-1.83-.1-1.84-.1-1.83-.11-1.83-.11-1.83-.11-1.83-.11-1.83-.12-1.83-.13-1.83-.13-1.83-.13-1.83-.13-1.83-.14-1.83-.13-1.83-.14-1.83-.13-1.83-.14-1.83-.15,.13-1.5,.13-1.5,.12-1.5,.13-1.5,.13-1.5,.12-1.49,.13-1.5,.13-1.5,.12-1.5,.13-1.49,.13-1.5,.12-1.5,.13-1.49,.13-1.5,.12-1.49,.13-1.49,.13-1.5,.12-1.49,.13-1.49,.12-1.49,.13-1.49,.13-1.49,.12-1.49,.13-1.49,.12-1.49,.13-1.49,.13-1.48,.12-1.49,.13-1.49,.13-1.48,.12-1.49,.12-1.48,1.46,.12,1.46,.12,1.46,.12,1.46,.11,1.46,.11,1.46,.11,1.45,.11,1.46,.1,1.46,.11,1.46,.1,1.46,.1,1.46,.09,1.46,.1,1.46,.09,1.46,.09,1.46,.08,1.46,.09,1.46,.08,1.46,.08,1.47,.08,1.46,.07,1.46,.08,1.46,.07,1.46,.07,1.46,.06,1.46,.07,1.46,.06,1.46,.06,1.47,.06,1.46,.05,1.46,.05,1.46,.05,1.11,.04,1.11,.04,1.11,.04,1.11,.04,1.11,.04,1.11,.04,1.11,.03,1.11,.04,1.11,.03,1.11,.04,1.11,.03,1.11,.03,1.11,.02,1.11,.03,1.11,.03,1.11,.02,.85,.02-.02,.75v.75s-.03,.75-.03,.75v.75s-.03,.75-.03,.75v.75s-.03,.75-.03,.75v.75s-.03,.75-.03,.75v.75s-.03,.74-.03,.74v.75s-.03,.75-.03,.75v.75s-.03,.75-.03,.75v.76h0Z"/>
  <g>
    <path d="M43.17,43.2c.42,.34,.7,.8,.82,1.38h-1.3c-.1-.24-.24-.42-.44-.55-.2-.13-.44-.2-.71-.2-.36,0-.65,.13-.87,.4-.22,.26-.33,.62-.33,1.06s.11,.79,.33,1.05c.22,.26,.51,.39,.87,.39,.27,0,.51-.07,.71-.2s.35-.32,.44-.55h1.3c-.12,.58-.4,1.04-.82,1.38s-.96,.51-1.61,.51c-.49,0-.93-.11-1.3-.33-.37-.22-.66-.52-.87-.92-.2-.39-.31-.84-.31-1.35s.1-.95,.31-1.35,.49-.7,.87-.92c.37-.22,.81-.33,1.3-.33,.65,0,1.18,.17,1.61,.51Z"/>
    <path d="M48.41,43c.39,.22,.7,.53,.93,.93,.23,.4,.34,.84,.34,1.34s-.11,.95-.34,1.35-.54,.71-.93,.93c-.39,.22-.82,.33-1.3,.33s-.91-.11-1.3-.33c-.39-.22-.7-.53-.93-.93s-.34-.85-.34-1.35,.11-.95,.34-1.34,.54-.71,.93-.93,.82-.33,1.3-.33,.92,.11,1.31,.33Zm-2.27,1.2c-.24,.26-.36,.62-.36,1.07s.12,.8,.36,1.07,.56,.4,.96,.4,.72-.13,.96-.4c.24-.26,.36-.62,.36-1.07s-.12-.8-.36-1.07c-.24-.26-.56-.4-.96-.4s-.72,.13-.96,.39Z"/>
  </g>
</svg>