<?xml version="1.0" encoding="UTF-8"?>
<svg id="CONNECTICUT" xmlns="http://www.w3.org/2000/svg" viewBox="0 0 90 90">
  <defs>
    <style>
      .cls-1 {
        fill: #e2e2e2;
        stroke: #f9f9f9;
        stroke-linecap: round;
        stroke-linejoin: round;
        stroke-width: .03px;
      }
    </style>
  </defs>
  <path id="CT" class="cls-1" d="M74.09,15.85l.72,2.77,.76,2.8,.76,2.8,.76,2.81,.73,2.8,.76,2.77,.76,2.8,.76,2.8,.38,1.48,.42,2.05,.57,3.03-.45,.27-.11,.45-.08,.73,.3,2.53,.04,1.02-1.21,.5-.08-.34,.57-.26-.11-.26-.42-.23-.57-.15-.53,.04-2.43,.72-.34,.15-2.08,1.86-2.2-1.18-.38,.42,.08,1.18-.23,.64-.95,.19-1.37-.19-1.02,.19,.11,1.36-1.17-.38-1.97,1.94-1.33-.23-.34-.15-.57-.11-.3-.11-.19-.34v-.34l.04-.42-.08-.45-.34-.46-.45-.34-.64-.23-.73,.11,.61,.68,.79,.49,.57,.69-.11,1.25,.45,.19,.15,.04-.53,.83-.83,.15-1.75-.19-.72,.26-.76,.57-.61,.72-.34,.79-.26-.19-.15-.04-.11-.08-.16-.22-.3,.08-.34,.41-1.74-.34-.91-.04-2.05,1.02-.26,.42-.19,.42-.26,.26-.49,.11-.42-.08-.38-.19-.45-.11-.53,.04-1.41,.45-.38,.23-.49,.61h-.3l-.42-.11-2.24,.64-.53-.08-.42-.45-.38-1.14-.23-.19-.26,.42-.19,.57-.04,.27-1.1,1.66-.61,1.59-.26,.45-.45,.26-1.06,.34-.34,.34-.3,.46-.72,.57-.26,.38-.23,.61-.08,.3-.16,.23-.45,.34-.64,.3-.3-.11-.26-.3-.49-.19-.26,.15-1.02,1.25-.19,.04-.19-.11-.15-.11-.08-.04-.11,.23v.49l-.12,.08-.11,.19-.34,.76-.19,.26-.34,.08-.61-.15h-.34l-.3,.19-.3,.57-.26,.19-.49,.19-.68,.42-.61,.53-.15,.6-.26,.15-1.4,1.52-.45,.34-1.21,1.25-.39,.11-.68-.08-.45,1.37-.42-.34-.49,.87-.57,.65-.72,.23-.95-.42-.08,.23-.11,.08-.42,.34-.76,.68-.23-.34-.3-.38-.15-.15-.11-.04-.23-.08-.15-.11-1.29-1.21-1.22-1.21-.3-.26,.45-.49,1.41-1.4,1.82-1.82,1.94-1.93,1.59-1.59,.49-.57-.76-.68-.72-.72-.76-.76-.99-1.06-.15-.91-.42-2.31-.38-2.31-.42-2.27-.42-2.31-.38-2.27-.42-2.31-.38-2.27-.42-2.31-.42-2.28-.38-2.31-.42-2.27-.42-2.31-.38-2.28-.42-2.31-.42-2.27-.38-2.27,4.62-.99,4.62-.95,4.62-.95,4.58-.99,2.58-.53,2.42-.49,2.09-.34,.34,1.25,1.59-.56-.08-1.14,5.19-1.25,.95,.04,.49-.04,.3-.08,.6-.53,1.89-.42,5.57-1.33,5.57-1.32,5.57-1.29,5.57-1.33,4.28-1.1,.19,.53h0Z"/>
  <g>
    <path d="M46.85,38.91c.42,.34,.7,.8,.82,1.38h-1.3c-.1-.24-.24-.42-.44-.55-.2-.13-.44-.2-.71-.2-.36,0-.65,.13-.87,.4-.22,.26-.33,.62-.33,1.06s.11,.79,.33,1.05c.22,.26,.51,.39,.87,.39,.27,0,.51-.07,.71-.2s.35-.32,.44-.55h1.3c-.12,.58-.4,1.04-.82,1.38s-.96,.51-1.61,.51c-.49,0-.93-.11-1.3-.33-.37-.22-.66-.52-.87-.92-.2-.39-.31-.84-.31-1.35s.1-.95,.31-1.35,.49-.7,.87-.92c.37-.22,.81-.33,1.3-.33,.65,0,1.18,.17,1.61,.51Z"/>
    <path d="M52.03,38.45v.98h-1.38v4.11h-1.24v-4.11h-1.37v-.98h3.99Z"/>
  </g>
</svg>