<?xml version="1.0" encoding="utf-8"?>
<!-- Generator: Adobe Illustrator 26.5.0, SVG Export Plug-In . SVG Version: 6.00 Build 0)  -->
<svg version="1.1" xmlns="http://www.w3.org/2000/svg" xmlns:xlink="http://www.w3.org/1999/xlink" x="0px" y="0px"
	 viewBox="0 0 90 90" style="enable-background:new 0 0 90 90;" xml:space="preserve">
<style type="text/css">
	.st0{fill:#CECECE;stroke:#F9F9F9;stroke-width:0.025;stroke-linecap:round;stroke-linejoin:round;}
	.st1{display:none;fill:none;stroke:#47CCCC;stroke-width:0.5;stroke-linecap:round;stroke-linejoin:round;}
	.st2{fill:#CECECE;}
</style>
<g id="ALABAMA">
</g>
<g id="ALASKA">
</g>
<g id="ARIZONA">
</g>
<g id="ARKANSAS_1_">
</g>
<g id="CALIFORNIA">
</g>
<g id="COLORADO">
</g>
<g id="CONNECTICUT">
	<path id="CT_1_" class="st0" d="M74.09,15.85l0.72,2.77l0.76,2.8l0.76,2.8l0.76,2.81l0.73,2.8l0.76,2.77l0.76,2.8l0.76,2.8
		l0.38,1.48l0.42,2.05l0.57,3.03l-0.45,0.27l-0.11,0.45l-0.08,0.73l0.3,2.53l0.04,1.02l-1.21,0.5l-0.08-0.34l0.57-0.26l-0.11-0.26
		l-0.42-0.23L79.32,49l-0.53,0.04l-2.43,0.72l-0.34,0.15l-2.08,1.86l-2.2-1.18l-0.38,0.42l0.08,1.18l-0.23,0.64l-0.95,0.19
		l-1.37-0.19l-1.02,0.19l0.11,1.36L66.81,54l-1.97,1.94l-1.33-0.23l-0.34-0.15l-0.57-0.11l-0.3-0.11l-0.19-0.34v-0.34l0.04-0.42
		l-0.08-0.45l-0.34-0.46l-0.45-0.34l-0.64-0.23l-0.73,0.11l0.61,0.68l0.79,0.49l0.57,0.69l-0.11,1.25l0.45,0.19l0.15,0.04
		l-0.53,0.83l-0.83,0.15l-1.75-0.19l-0.72,0.26l-0.76,0.57l-0.61,0.72l-0.34,0.79l-0.26-0.19l-0.15-0.04l-0.11-0.08l-0.16-0.22
		l-0.3,0.08l-0.34,0.41l-1.74-0.34l-0.91-0.04l-2.05,1.02l-0.26,0.42l-0.19,0.42l-0.26,0.26l-0.49,0.11l-0.42-0.08l-0.38-0.19
		l-0.45-0.11l-0.53,0.04l-1.41,0.45l-0.38,0.23l-0.49,0.61h-0.3L44.85,62l-2.24,0.64l-0.53-0.08l-0.42-0.45l-0.38-1.14l-0.23-0.19
		l-0.26,0.42l-0.19,0.57l-0.04,0.27l-1.1,1.66l-0.61,1.59l-0.26,0.45l-0.45,0.26l-1.06,0.34l-0.34,0.34l-0.3,0.46l-0.72,0.57
		l-0.26,0.38l-0.23,0.61L35.15,69l-0.16,0.23l-0.45,0.34l-0.64,0.3l-0.3-0.11l-0.26-0.3l-0.49-0.19l-0.26,0.15l-1.02,1.25
		l-0.19,0.04l-0.19-0.11l-0.15-0.11l-0.08-0.04l-0.11,0.23v0.49l-0.12,0.08l-0.11,0.19l-0.34,0.76l-0.19,0.26l-0.34,0.08l-0.61-0.15
		h-0.34l-0.3,0.19l-0.3,0.57l-0.26,0.19l-0.49,0.19l-0.68,0.42l-0.61,0.53l-0.15,0.6l-0.26,0.15l-1.4,1.52l-0.45,0.34l-1.21,1.25
		l-0.39,0.11l-0.68-0.08l-0.45,1.37l-0.42-0.34l-0.49,0.87l-0.57,0.65l-0.72,0.23l-0.95-0.42l-0.08,0.23l-0.11,0.08l-0.42,0.34
		l-0.76,0.68l-0.23-0.34l-0.3-0.38l-0.15-0.15l-0.11-0.04l-0.23-0.08l-0.15-0.11l-1.29-1.21l-1.22-1.21l-0.3-0.26l0.45-0.49
		l1.41-1.4l1.82-1.82l1.94-1.93l1.59-1.59l0.49-0.57l-0.76-0.68l-0.72-0.72l-0.76-0.76l-0.99-1.06l-0.15-0.91L16.55,64l-0.38-2.31
		l-0.42-2.27l-0.42-2.31l-0.38-2.27l-0.42-2.31l-0.38-2.27l-0.42-2.31l-0.42-2.28l-0.38-2.31l-0.42-2.27l-0.42-2.31l-0.38-2.28
		l-0.42-2.31l-0.42-2.27l-0.38-2.27l4.62-0.99l4.62-0.95l4.62-0.95l4.58-0.99l2.58-0.53l2.42-0.49l2.09-0.34l0.34,1.25l1.59-0.56
		l-0.08-1.14l5.19-1.25l0.95,0.04l0.49-0.04l0.3-0.08l0.6-0.53l1.89-0.42l5.57-1.33l5.57-1.32l5.57-1.29l5.57-1.33l4.28-1.1
		L74.09,15.85L74.09,15.85z"/>
</g>
<g id="DELAWARE">
</g>
<g id="DC">
</g>
<g id="FLORIDA">
</g>
<g id="GEORGIA">
</g>
<g id="HAWAII">
</g>
<g id="IDAHO">
</g>
<g id="IOWA">
</g>
<g id="ILLINOIS">
</g>
<g id="INDIANA">
</g>
<g id="KANSAS">
</g>
<g id="KETUCKY">
</g>
<g id="LOUISANA">
</g>
<g id="MAINE">
</g>
<g id="MARYLAND">
</g>
<g id="MASSACHUSETTS">
</g>
<g id="MICHIGAN">
</g>
<g id="MINNESOTA">
</g>
<g id="MISSOURI">
</g>
<g id="MISSISSIPPI">
</g>
<g id="MONTANA">
</g>
<g id="NORTH_CAROLINA">
</g>
<g id="NORTH_DAKOTA">
</g>
<g id="NEBRASKA">
</g>
<g id="NEW_HAMPSHIRE">
</g>
<g id="NEW_JERSEY">
</g>
<g id="NEW_YORK">
</g>
<g id="NEW_MEXICO">
</g>
<g id="NEVADA">
</g>
<g id="OHIO">
</g>
<g id="OKLAHOMA">
</g>
<g id="OREGON">
</g>
<g id="PENNSYLVANIA">
</g>
<g id="RHODE_ISLAND">
</g>
<g id="SOUTH_CAROLINA">
</g>
<g id="SOUTH_DAKOTA">
</g>
<g id="TENNESSEE">
</g>
<g id="TEXAS">
</g>
<g id="UTAH">
</g>
<g id="VIRGINIA">
</g>
<g id="VERMONT">
</g>
<g id="WASHINGTON">
</g>
<g id="WISCONSIN">
</g>
<g id="WEST_VIRGINIA">
</g>
<g id="WYOMING">
</g>
</svg>
