<?xml version="1.0" encoding="utf-8"?>
<!-- Generator: Adobe Illustrator 26.5.0, SVG Export Plug-In . SVG Version: 6.00 Build 0)  -->
<svg version="1.1" xmlns="http://www.w3.org/2000/svg" xmlns:xlink="http://www.w3.org/1999/xlink" x="0px" y="0px"
	 viewBox="0 0 90 90" style="enable-background:new 0 0 90 90;" xml:space="preserve">
<style type="text/css">
	.st0{fill:#CECECE;stroke:#F9F9F9;stroke-width:0.025;stroke-linecap:round;stroke-linejoin:round;}
	.st1{display:none;fill:none;stroke:#47CCCC;stroke-width:0.5;stroke-linecap:round;stroke-linejoin:round;}
	.st2{fill:#CECECE;}
</style>
<g id="ALABAMA">
</g>
<g id="ALASKA">
</g>
<g id="ARIZONA">
</g>
<g id="ARKANSAS_1_">
</g>
<g id="CALIFORNIA">
</g>
<g id="COLORADO">
</g>
<g id="CONNECTICUT">
</g>
<g id="DELAWARE">
	<path id="DE_2_" class="st0" d="M36.09,9.86l-0.28,0.57l-1.21,1.33l-0.4,0.77v2.23l-0.32,1.05l-1.37,2.76l-0.16,0.24l-1.38,0.89
		l-0.12,0.4v0.57l-0.12,0.64l-0.04,0.61l0.2,0.45l1.46,0.89l0.49,0.4l0.61,0.81l0.24,0.97l-0.04,1.01l-0.4,1.06l-0.08,1.21
		l0.65,1.06l0.93,0.76L35.4,31l0.77,0.69l2.39,3.04l0.16,0.32l0.28,0.08l0.73-0.16l0.36,0.16l1.58,1.26l1.33,1.94l0.65,1.01
		l0.44,1.26l0.36,3.44l0.4,1.18l0.24,0.49l0.49,0.69l0.25,0.49l0.08,1.25l0.24,0.65l1.33,0.44l0.85,0.81l1.9,2.51l0.49,0.81
		l0.36,1.01l0.32,1.3l0.44,0.44l2.67,1.33l2.8,2.43l1.37,0.73l1.71,0.04l1.17-0.28l0.73-0.08l0.44,0.57l1.83,5.55l0.12,1.26
		l-0.12,0.81l-0.69-2.43l-0.78-0.65l-1.98,0.44l-0.04,0.32l1.25,1.7l-0.65,0.04l-0.24-0.04l-0.24,0.08l-0.04,0.12l-0.12,0.04
		l-0.12,0.08l0.53,0.32l0.61,0.28l0.65,0.08l0.77-0.16l-0.77,1.13l-2.71,1.42l-0.53,1.05l0.85-0.2l-0.08,0.45l-0.16,0.36l-0.16,0.28
		l-0.2,0.2l0.69-0.04l1.42-1.5l1.09-0.32l0.32,0.24l0.44,0.44l0.45,0.37l0.32-0.12l0.61-1.26l0.24-0.73l-0.24-0.45l0.08-0.4
		l0.28-0.12l0.4,0.57l0.12,0.49l0.24,2.27l0.53,1.29l0.69,1.21l0.53,1.26L68,77.94l-0.57,0.12l-0.24-0.12l-0.28-0.08h-0.32
		l-0.4,0.08l0.16,0.4l-1.01,0.2l-2.27,0.53l-3.28,0.77l-3.24,0.74l-3.32,0.72l-3.24,0.73l-3.27,0.73l-3.28,0.73l-3.28,0.73
		l-0.73-2.43l-0.69-2.51l-1.05-3.81l-1.06-3.85l-1.05-3.81l-1.05-3.84l-1.01-3.81l-1.05-3.85l-1.06-3.81l-1.05-3.85l-1.05-3.8
		l-1.01-3.84l-1.06-3.81l-1.05-3.81l-1.05-3.85l-1.05-3.81l-1.06-3.84L22,18.08l0.32-0.04l0.04-0.12l0.61-1.7l0.57-1.66l0.65-1.86
		l0.61-0.89l0.77-0.81l0.69-0.53l1.25-0.69l0.9-0.36l1.82-0.49l2.03-0.16l1.62,0.16l1.37,0.45l0.81,0.44L36.09,9.86L36.09,9.86z"/>
</g>
<g id="DC">
</g>
<g id="FLORIDA">
</g>
<g id="GEORGIA">
</g>
<g id="HAWAII">
</g>
<g id="IDAHO">
</g>
<g id="IOWA">
</g>
<g id="ILLINOIS">
</g>
<g id="INDIANA">
</g>
<g id="KANSAS">
</g>
<g id="KETUCKY">
</g>
<g id="LOUISANA">
</g>
<g id="MAINE">
</g>
<g id="MARYLAND">
</g>
<g id="MASSACHUSETTS">
</g>
<g id="MICHIGAN">
</g>
<g id="MINNESOTA">
</g>
<g id="MISSOURI">
</g>
<g id="MISSISSIPPI">
</g>
<g id="MONTANA">
</g>
<g id="NORTH_CAROLINA">
</g>
<g id="NORTH_DAKOTA">
</g>
<g id="NEBRASKA">
</g>
<g id="NEW_HAMPSHIRE">
</g>
<g id="NEW_JERSEY">
</g>
<g id="NEW_YORK">
</g>
<g id="NEW_MEXICO">
</g>
<g id="NEVADA">
</g>
<g id="OHIO">
</g>
<g id="OKLAHOMA">
</g>
<g id="OREGON">
</g>
<g id="PENNSYLVANIA">
</g>
<g id="RHODE_ISLAND">
</g>
<g id="SOUTH_CAROLINA">
</g>
<g id="SOUTH_DAKOTA">
</g>
<g id="TENNESSEE">
</g>
<g id="TEXAS">
</g>
<g id="UTAH">
</g>
<g id="VIRGINIA">
</g>
<g id="VERMONT">
</g>
<g id="WASHINGTON">
</g>
<g id="WISCONSIN">
</g>
<g id="WEST_VIRGINIA">
</g>
<g id="WYOMING">
</g>
</svg>
