<?xml version="1.0" encoding="UTF-8"?>
<svg id="DELAWARE" xmlns="http://www.w3.org/2000/svg" viewBox="0 0 90 90">
  <defs>
    <style>
      .cls-1 {
        fill: #e2e2e2;
        stroke: #f9f9f9;
        stroke-linecap: round;
        stroke-linejoin: round;
        stroke-width: .03px;
      }
    </style>
  </defs>
  <path id="DE" class="cls-1" d="M36.09,9.86l-.28,.57-1.21,1.33-.4,.77v2.23l-.32,1.05-1.37,2.76-.16,.24-1.38,.89-.12,.4v.57l-.12,.64-.04,.61,.2,.45,1.46,.89,.49,.4,.61,.81,.24,.97-.04,1.01-.4,1.06-.08,1.21,.65,1.06,.93,.76,.69,.45,.77,.69,2.39,3.04,.16,.32,.28,.08,.73-.16,.36,.16,1.58,1.26,1.33,1.94,.65,1.01,.44,1.26,.36,3.44,.4,1.18,.24,.49,.49,.69,.25,.49,.08,1.25,.24,.65,1.33,.44,.85,.81,1.9,2.51,.49,.81,.36,1.01,.32,1.3,.44,.44,2.67,1.33,2.8,2.43,1.37,.73,1.71,.04,1.17-.28,.73-.08,.44,.57,1.83,5.55,.12,1.26-.12,.81-.69-2.43-.78-.65-1.98,.44-.04,.32,1.25,1.7-.65,.04-.24-.04-.24,.08-.04,.12-.12,.04-.12,.08,.53,.32,.61,.28,.65,.08,.77-.16-.77,1.13-2.71,1.42-.53,1.05,.85-.2-.08,.45-.16,.36-.16,.28-.2,.2,.69-.04,1.42-1.5,1.09-.32,.32,.24,.44,.44,.45,.37,.32-.12,.61-1.26,.24-.73-.24-.45,.08-.4,.28-.12,.4,.57,.12,.49,.24,2.27,.53,1.29,.69,1.21,.53,1.26,.04,1.34-.57,.12-.24-.12-.28-.08h-.32l-.4,.08,.16,.4-1.01,.2-2.27,.53-3.28,.77-3.24,.74-3.32,.72-3.24,.73-3.27,.73-3.28,.73-3.28,.73-.73-2.43-.69-2.51-1.05-3.81-1.06-3.85-1.05-3.81-1.05-3.84-1.01-3.81-1.05-3.85-1.06-3.81-1.05-3.85-1.05-3.8-1.01-3.84-1.06-3.81-1.05-3.81-1.05-3.85-1.05-3.81-1.06-3.84-1.01-3.81,.32-.04,.04-.12,.61-1.7,.57-1.66,.65-1.86,.61-.89,.77-.81,.69-.53,1.25-.69,.9-.36,1.82-.49,2.03-.16,1.62,.16,1.37,.45,.81,.44,.04,.04h0Z"/>
  <g>
    <path d="M46.39,66.34c-.21,.39-.52,.69-.92,.9-.4,.22-.87,.32-1.42,.32h-1.92v-5.09h1.92c.55,0,1.02,.11,1.42,.32,.4,.21,.7,.51,.92,.89,.21,.38,.32,.83,.32,1.32s-.11,.94-.32,1.33Zm-1.32-.26c.27-.25,.4-.61,.4-1.07s-.13-.82-.4-1.07c-.27-.25-.64-.38-1.12-.38h-.58v2.91h.58c.48,0,.85-.13,1.12-.38Z"/>
    <path d="M48.64,63.46v1.07h1.72v.93h-1.72v1.13h1.94v.99h-3.17v-5.09h3.17v.98h-1.94Z"/>
  </g>
</svg>