<?xml version="1.0" encoding="UTF-8"?>
<svg id="DC" xmlns="http://www.w3.org/2000/svg" viewBox="0 0 90 90">
  <defs>
    <style>
      .cls-1 {
        fill: #e2e2e2;
        stroke: #f9f9f9;
        stroke-linecap: round;
        stroke-linejoin: round;
        stroke-width: .03px;
      }
    </style>
  </defs>
  <path id="DC-2" data-name="DC" class="cls-1" d="M57,85.64l-2.4-12.93-6-18.63-14.1-4.8h0l-3.66-3.33-14.1-7.2-1.8-1.53L33.25,6.59l44.82,41.19-21.06,37.86h0Z"/>
  <g>
    <path d="M53.82,46.5c-.21,.39-.52,.69-.92,.9-.4,.22-.87,.32-1.42,.32h-1.92v-5.09h1.92c.55,0,1.02,.11,1.42,.32,.4,.21,.7,.51,.92,.89,.21,.38,.32,.83,.32,1.32s-.11,.94-.32,1.33Zm-1.32-.26c.27-.25,.4-.61,.4-1.07s-.13-.82-.4-1.07c-.27-.25-.64-.38-1.12-.38h-.58v2.91h.58c.48,0,.85-.13,1.12-.38Z"/>
    <path d="M55.9,46.5v1.23h-1.27v-1.23h1.27Z"/>
    <path d="M60.48,43.1c.42,.34,.7,.8,.83,1.38h-1.3c-.1-.24-.24-.42-.44-.55-.2-.13-.44-.2-.71-.2-.36,0-.65,.13-.87,.4-.22,.26-.33,.62-.33,1.06s.11,.79,.33,1.05c.22,.26,.51,.39,.87,.39,.27,0,.51-.07,.71-.2s.35-.32,.44-.55h1.3c-.12,.58-.4,1.04-.83,1.38s-.96,.51-1.61,.51c-.5,0-.93-.11-1.3-.33-.37-.22-.66-.52-.87-.92-.2-.39-.31-.84-.31-1.35s.1-.95,.31-1.35,.49-.7,.87-.92c.38-.22,.81-.33,1.3-.33,.65,0,1.18,.17,1.61,.51Z"/>
    <path d="M63.05,46.5v1.23h-1.27v-1.23h1.27Z"/>
  </g>
</svg>