<?xml version="1.0" encoding="utf-8"?>
<!-- Generator: Adobe Illustrator 26.5.0, SVG Export Plug-In . SVG Version: 6.00 Build 0)  -->
<svg version="1.1" xmlns="http://www.w3.org/2000/svg" xmlns:xlink="http://www.w3.org/1999/xlink" x="0px" y="0px"
	 viewBox="0 0 90 90" style="enable-background:new 0 0 90 90;" xml:space="preserve">
<style type="text/css">
	.st0{fill:#CECECE;stroke:#F9F9F9;stroke-width:0.025;stroke-linecap:round;stroke-linejoin:round;}
	.st1{display:none;fill:none;stroke:#47CCCC;stroke-width:0.5;stroke-linecap:round;stroke-linejoin:round;}
	.st2{fill:#CECECE;}
</style>
<g id="ALABAMA">
</g>
<g id="ALASKA">
</g>
<g id="ARIZONA">
</g>
<g id="ARKANSAS_1_">
</g>
<g id="CALIFORNIA">
</g>
<g id="COLORADO">
</g>
<g id="CONNECTICUT">
</g>
<g id="DELAWARE">
</g>
<g id="DC">
</g>
<g id="FLORIDA">
	<path id="FL_1_" class="st0" d="M32.57,26.83L32.38,27l-0.34,0.24l-0.05,0.09l0.48-0.18l0.19-0.14l0.06-0.22l-0.07-0.01
		L32.57,26.83z M31.65,27.61l-0.14,0.21l-0.12,0.05l-0.04,0.02l-0.02,0.05l-0.03,0.05l-0.07,0.03l-0.09,0.02l-0.02,0.05v0.05
		l-0.02,0.05l-1.81,1.2l-0.38,0.15l-0.2,0.05l-0.27-0.12l-0.15-0.02l0.25,0.12l0.21,0.04l0.53-0.08l0.19-0.09l0.51-0.39l0.16-0.19
		l0.85-0.52l0.48-0.49l0.2-0.12l-0.01-0.04l0.06-0.08l0.05-0.04l-0.01-0.07L31.65,27.61z M28.33,28.95l-0.03-0.11l-0.02-0.01h-0.12
		l-0.13-0.02l-0.23-0.01l-0.12,0.13l-0.17,0.04l-0.38-0.01l0.11,0.07l0.19,0.05l0.11,0.04l0.07,0.06l0.07,0.09l0.09,0.08l0.08,0.03
		l0.21,0.05l0.1-0.02l0.03-0.11l0.01-0.1l0.04-0.1l0.05-0.09L28.33,28.95z M13.07,23.04l-0.3,0.12l-0.07-0.06l-0.2,0.12l-0.95,0.25
		l-0.4,0.03l-0.14,0.04l-0.23,0.12l-0.08,0.05l-0.21,0.1l-0.64,0.06l-0.51,0.25l-1.03,0.3l-0.73,0.1l-0.16,0.08l0.51,0.01l6.04-1.52
		l0,0l0,0l0,0l0.1,0.03l0.1,0.01l0.09-0.03l0.07-0.05l-0.88-0.01L13.07,23.04z M80.18,63.23l0.07,0.07l0.01-0.01l0.01,0.01
		l0.12-0.02l0.03-0.08l-0.09-0.57h-0.01v-0.01l-0.06,0.02l-0.02,0.08l-0.03,0.05l-0.04,0.06l-0.06,0.06l0.01,0.06h0.01v0.01h0.04
		l0.02,0.01l0.03,0.02l0.03,0.02h0.01l-0.09,0.11L80.18,63.23z M61.53,58.29l-0.19-0.07l-0.23-0.08H61.1l0,0l-0.06,0.13l-0.17,0.05
		l-0.32-0.02l-0.02-0.01l-0.16-0.04l-0.16-0.09l-0.14-0.14l-0.11-0.2l-0.05-0.11l-0.05-0.09l-0.06-0.08l-0.1-0.05l0,0h-0.01
		l0.1,0.31l0.14,0.31l0.09,0.14l0.11,0.1l0.12,0.07l0.62,0.23l0,0v0.01l0.16,0.01l0.15-0.08l0.2-0.23L61.53,58.29L61.53,58.29
		L61.53,58.29z M79.91,58.91l-0.02-0.08l0.13-0.15l0.03-0.32l-0.04-1.57l-0.07-0.23l0.02-0.16l-0.02-0.18l-0.07-0.35l-0.01-0.16
		l0.03-0.33l-0.17-1.42l0.14-0.04v-0.31l-0.27-1.32l-0.12-0.31l-0.15-0.14l-0.02-0.07l0.12-0.18l-0.05-0.28l-0.42-0.94l-0.08-0.09
		l-0.1-0.05l-0.22-0.02l-0.12-0.03l-0.02-0.07l0.1-0.07l0.11-0.03l0.09-0.05l0.05-0.13l-0.03-0.12l-0.25-0.35l-0.29-0.53l-0.31-0.41
		l-0.05-0.14l-0.09-0.16l-0.28-0.08l-0.09-0.13l-0.42-0.33l-0.07,0.02l-0.2,0.1l-0.09-0.02l-0.16-0.06l-0.07-0.01l-0.28-0.23
		l-0.07-0.07l0.12-0.03l0.09,0.02l0.07,0.05l0.07,0.04l0.23,0.07l0.38,0.03l0.12,0.07l0.12,0.2l-0.04-0.16l-1.95-3.05l-0.61-1.51
		l-4.1-6l-0.12-0.23l-0.36-0.5l-0.28-0.57l-0.12-0.19l-0.39-0.97l-0.11-0.41l-0.07-0.2l-0.37-0.5l0.05-0.08l-0.02-0.08l-0.15-0.24
		l-0.31-0.92l0.2,0.05l0.35,0.24l0.41,0.07l0.06,0.18l-0.03,0.22l-0.05,0.17l-0.08-0.05l-0.04,0.16v0.21l0.04,0.2l0.06,0.15
		l0.16,0.12l0.18,0.05h0.59l0.09-0.02l0.1-0.05v-0.04l-0.04-0.15v-0.04l0.05-0.02l0.05,0.02l0.05,0.03l0.03,0.01l0.18-0.05
		l0.13,0.02l0.1,0.09l0.08,0.15l0.14,0.4l0.06,0.41l-0.04,1.36l0.3,1.79l0.16,0.41l0.42,0.78l0.72,0.89l0.15,0.34l0.33,0.27
		l0.05,0.06l0.05,0.09l0.3,0.39l-0.09-0.45l-0.94-1l-0.27-0.41l-0.06-0.16l-0.18-0.27l-0.38-1.02l-0.14-0.56l-0.02-0.23l-0.09-0.05
		l0.05-0.15l-0.18-1.01l0.02-0.06l0.07-0.05l0.05-0.09l0.03-0.09l0.01-0.06l0.09-0.03l0.12-0.22l0.08-0.24l-0.17-0.18l-0.34-0.64
		l-0.72-0.87l-0.6-0.6L69.2,31.7l-1.56-1.75l-0.09-0.19l-0.11-0.17l-0.18-0.09l-0.14-0.09l0.02-0.2l-1.11-1.42l-0.88-1.54
		l-0.75-1.13l-0.53-0.68l-0.09-0.17l-0.08-0.21l-0.05-0.19l-0.08-0.2l-0.36-0.44l-0.23-0.6l-0.11-0.08l-0.08-0.1l-0.13-0.5
		L62.6,21.8l0.05-0.09l-0.1-0.03l-0.07-0.05l-0.03-0.07l0.02-0.11l-0.05-0.01l-0.09-0.03h-0.05v-0.34l-0.52-1.14l-0.19-0.78
		l-0.07-0.2l-0.26-0.32l-0.11-0.18l-0.48-1.09l-0.08-0.42l-0.02-0.48l-0.05-0.09l-0.07-0.05l-0.07-0.05l-0.04-0.06l-0.02-0.34
		l-0.05-0.13l-0.06-0.09l-0.05-0.03l-0.05-0.02l-0.06-0.05l-0.06-0.07l-0.09-0.15l-0.06-0.08l-0.28-0.16l-0.02-0.05l-0.16-0.03
		l-0.09-0.13l-0.05-0.19l-0.01-0.18l-0.05-0.24v-0.09l0.08-0.05l0.09,0.02l0.08,0.07l0.06,0.09l0.03,0.1l0.05,0.24l0.05,0.18
		l0.1,0.13l0.16,0.09l-0.08-0.3l-0.12-0.88l0.02-0.29l-0.01-0.18l-0.06-0.07l-0.04-0.02l-0.02-0.05l-0.02-0.05l-0.07-0.01
		l-0.07,0.02l-0.12,0.06l-0.05,0.02l-0.23-0.05l-0.02-0.08l-0.07-0.01l-0.17-0.02l-0.27,0.13l-0.09,0.02l-0.38-0.02l-0.1-0.02
		l-0.14-0.05l-0.06,0.01l-0.09,0.03l-0.09,0.01l-0.45-0.06l-0.14-0.03l-0.1-0.05l-0.06-0.04l-0.1-0.05l-0.13-0.01l-0.09,0.01
		l-0.08,0.02l-0.87-0.2l-0.13-0.05l-0.08-0.05l-0.15-0.06h-0.08l-0.07,0.01l-0.05,0.01l-0.12,0.02l-0.07,0.02l-0.07,0.04l-0.04,0.04
		l-0.02,0.05v0.07V13v0.07v0.05l-0.02,0.06l-0.03,0.04l-0.08,0.03H54.4l-0.09-0.02l-0.05,0.02l-0.02,0.04v0.11l-0.01,0.06
		l-0.02,0.05l-0.09,0.12l-0.02,0.04l-0.01,0.05l-0.01,0.05l0.01,0.1l0.08,0.25v0.06v0.07l-0.02,0.24l0.01,0.06l0.02,0.12l0.03,0.08
		l0.05,0.09l0.05,0.09l0.21,0.22l0.05,0.07l0.02,0.05l0.02,0.1l0.02,0.12l-0.01,0.71l-0.07,0.68v0.14v0.06l0.07,0.3l0.01,0.06
		l-0.01,0.09l-0.02,0.05l-0.05,0.03l-0.24,0.11l-0.04,0.01h-0.05l-0.17-0.02h-0.06l-0.41,0.12l-0.09,0.01l-0.07-0.02l-0.05-0.02
		l-0.04-0.03L53.3,17.7l-0.2-0.37l-0.04-0.09l-0.01-0.05l-0.01-0.06L53.06,17l0.02-0.16v-0.06v-0.05l-0.02-0.05l-0.02-0.05
		l-0.06-0.09l-0.05-0.06l-0.26-0.24l-0.06-0.08l-0.02-0.04l-0.01-0.04l0.01-0.04l0.03-0.08l0.01-0.07v-0.03l-0.02-0.02l-0.38,0.04
		l-0.33,0.03l-0.42,0.04l-0.52,0.05l-0.59,0.05l-0.67,0.06l-0.73,0.06l-0.79,0.07l-0.85,0.07l-0.88,0.08l-0.93,0.08l-0.96,0.09
		l-0.99,0.08l-1,0.09l-1.02,0.08l-1.02,0.09l-1.02,0.08l-1.01,0.08l-0.99,0.08l-0.97,0.08l-0.94,0.07l-0.91,0.06l-0.86,0.06
		l-0.81,0.06l-0.76,0.05l-0.7,0.05l-0.62,0.05l-0.55,0.04l-0.46,0.03l-0.37,0.02l-0.27,0.02l-0.17,0.02h-0.05l-0.29,0.02l-0.08,0.02
		l-0.45-0.38l-0.24-0.66l-0.07-0.44l-0.1-0.24l-0.16-0.23l-0.09-0.06l-0.11-0.3l-0.07-0.11l-0.06-0.05l-0.17-0.09l-0.04-0.04
		l-0.03-0.13l0.02-0.03l-1.42,0.19l-1.42,0.2l-1.42,0.19l-1.42,0.19l-1.43,0.19l-1.42,0.18l-1.42,0.18l-1.43,0.18l-1.42,0.17
		l-1.42,0.18l-1.43,0.17l-1.42,0.17l-1.43,0.16L7.2,17.53l-1.43,0.17l-1.42,0.16l-0.41,0.05L3.9,18.07l0.07,0.49l-0.01,0.05
		l-0.14,0.42L3.8,19.14l-0.01,0.07v0.06l0.02,0.08l0.05,0.09l0.11,0.13l0.12,0.12l0.48,0.38l0.06,0.08l0.23,0.32L5,20.63l0.13,0.09
		l0.78,0.37l0.08,0.05l0.04,0.03l0.02,0.11l0.01,0.16L6.05,21.8l-0.04,0.28l-0.13,0.3l-0.02,0.09l-0.01,0.05l0.05,0.16l0.22,0.48
		l0.01,0.01l0.17,0.07l0.07,0.04l0.09,0.03l0.17-0.05l0.08,0.02l0.09,0.09l0.06,0.13l0.01,0.13l-0.08,0.06l-0.21,0.08l-0.16,0.15
		l-0.23,0.35l0.01,0.07l0.13,0.06l0.02,0.11l-0.05,0.11l-0.1,0.09l-0.11,0.04L5.85,24.8l-0.1,0.05l0.16,0.03l0.16,0.06l-0.33,0.09
		l-0.1,0.05l-0.08,0.06l-0.05,0.07l-0.05,0.06l-0.1,0.05l0.02,0.08l0.1-0.06l0.19-0.08l0.08,0.02l0.15-0.1l1.25-0.42l0.19-0.12
		l-0.05-0.19l0.09-0.04l0.22-0.06l0.08-0.05l0.02-0.1l-0.05-0.26l0.01-0.1l0.16-0.13l0.2-0.04l0.17-0.09l0.05-0.25l0.04,0.02
		l0.01,0.02l0.02,0.02h0.05l0.17-0.43l0.02-0.13l-0.06-0.18l-0.2-0.24l-0.05-0.13l-0.08-0.33l0.02-0.12l0.12-0.04l0.12,0.05
		l0.05,0.1l0.08,0.08l0.16,0.01l-0.02,0.05l-0.01,0.12l-0.01,0.05h0.2l0.1,0.14L9,22.59l0.08,0.13l-0.04,0.15l0.01,0.17l0.06,0.11
		l0.14-0.02L9.33,23l0.02-0.36l0.09-0.26l0.13-0.6l0.04-0.08V21.6l-0.11-0.17l0.2,0.1l0.13,0.2l0.11,0.12l0.16-0.13l0.05,0.06
		l0.02,0.03l0.01,0.05l-0.29,0.17l-0.12,0.13l-0.04,0.16l0.03,0.1l0.05,0.05l0.07,0.01l0.09-0.01l0.05,0.04l0.14,0.19l0.09,0.04
		h0.16l0.2,0.02l0.2,0.07l0.12,0.11l0.01,0.12l-0.14-0.02l-0.18-0.08l-0.12-0.03l-0.52,0.55L9.8,23.52L9.3,23.58L8.78,23.8
		l-0.32,0.2l-0.07,0.03l-0.05,0.05l-0.02,0.13l0.45-0.11l0.87-0.36l1.39-0.36l0.51-0.06l0.25-0.07l0.18-0.13l0.2,0.05l0.73-0.17
		l0.7-0.04l0.09-0.09l-0.02-0.16l0.01-0.05l0.22,0.01l0.1-0.05l0.09-0.17l0.08-0.04l0.12-0.02l0.11-0.06l0.1-0.07l0.09-0.08
		l0.01-0.08l-0.08-0.26l-0.02-0.13l0.09,0.13l0.1,0.09h0.09l0.05-0.12l0.06-0.06l0.09-0.03l0.21-0.02L15,22l-0.02,0.16l0.14,0.12
		h0.16l0.12-0.09l0.1-0.12l0.12-0.06l0.17-0.05l0.38-0.15l0.17-0.05l0.39,0.02l0.18-0.04l0.12-0.15l0.15,0.26l0.12,0.09l0.16-0.06
		l0.22-0.14l0.02,0.17l-0.06,0.06l-0.05,0.05l0.08,0.15l0.31,0.27L18,22.51l0.09,0.07l0.01,0.14l-0.08,0.09l-0.18-0.11l-0.09-0.04
		l-0.45-0.07l-0.27-0.16l-0.14-0.06h-0.13l-0.11,0.08l0.03,0.07l0.12,0.05l0.14,0.01l0.05,0.02l-0.02,0.07l-0.05,0.07l-0.05,0.06
		l-0.42-0.06l-0.11-0.08l-0.08-0.11l-0.05-0.11l-0.01,0.01l-0.02-0.02l-0.04,0.02l-0.04,0.11l-0.03,0.15l-0.05,0.13l-0.11,0.07
		l-0.6-0.06l-0.74,0.06l-0.15-0.03v0.03v0.03l-0.01,0.02l0.26,0.13l1.1-0.02l1.61,0.24l1.19,0.21l1.11,0.42l0.82,0.28l1.2,0.66
		l0.22,0.02l-0.09-0.09l-0.06-0.06l0.07-0.03l0.13,0.11l0.05-0.16l-0.17-0.13l-0.18-0.09l-0.09-0.11l0.11-0.22l-0.12-0.1l-0.1-0.1
		l-0.11-0.09l-0.17-0.02L21,23.9l-0.12,0.06l-0.1,0.02l-0.16-0.1l-0.09-0.17l0.07-0.15l0.16-0.12l0.14-0.06l0.28-0.07l0.09-0.09
		l0.08-0.2l0.14,0.2l0.14,0.16l0.1,0.14l0.02,0.18l0.11,0.02l0.05-0.1l0.05-0.12l0.1-0.07l0.12-0.07l0.12-0.09l0.1-0.02l0.06,0.13
		l0.14-0.13l0.17-0.41l0.08-0.1l0.1,0.04l0.1,0.12l0.14,0.23L23,23.16l-0.3,0.47l-0.23-0.06l-0.14,0.04l-0.31,0.53l-0.18,0.14
		l0.09,0.09L22,24.43l0.08,0.05l0.34,0.12l0.09,0.05l0.09,0.12l0.14-0.06l0.23,0.05l0.21,0.11l0.14,0.09l0.01-0.06l0.02-0.04
		l0.01-0.05l-0.01-0.08l0.18,0.05l0.13-0.06l0.12-0.09l0.17-0.03l0.01,0.06l-0.12,0.12l-0.02,0.16l0.08,0.09l0.16-0.1l0.05,0.16
		l0.02,0.35l0.11,0.16l0.14,0.05l0.08-0.1l0.08-0.25l0.08-0.06l0.01,0.02l0.01,0.05l0.04,0.05h0.07l0.15-0.03l0.07,0.02l0.05,0.11
		l-0.1,0.06l-0.14,0.06l-0.06,0.09l-0.13,0.1l-0.34-0.09l-0.35-0.2l-0.17-0.2l-0.18-0.13l-0.61-0.11l-0.02-0.19l-0.56-0.03
		l-0.07,0.03l0.09,0.11l0.51,0.39l0.13,0.04l1.27,0.8l-0.18,0.02l-0.23-0.11l-0.21-0.17l-0.13-0.16l-0.07,0.01l0.03,0.1l0.04,0.07
		l0.04,0.05l0.05,0.05l0.3,0.2l1.1,0.35l0.17,0.11l0.18,0.14l0.16,0.18l0.08,0.18l0.09,0.15l0.34,0.34l0.12,0.21l0.06,0.74
		l0.02,0.12l0.04,0.04l-0.05,0.1l-0.09,0.12l-0.09,0.05l-0.13,0.02l-0.08-0.04l-0.28-0.33l-0.13-0.2l-0.1-0.23l-0.05-0.24
		l-0.07-0.72l-0.04-0.1l-0.1,0.25l0.09,0.53l0.29,0.85l0.11,0.14l0.16,0.14l0.2,0.05l0.32-0.2l0.2-0.02l0.22,0.01l0.2-0.02
		l1.01-0.49l0.37-0.07l0.73-0.02l0.11-0.09l0.15-0.3l0.22-0.06l0.12-0.29l0.11-0.09l0.13-0.07l0.11-0.12l0.11-0.07l0.16,0.05
		L30,27.86l-0.02,0.09l0.06,0.17l0.1-0.04l0.11-0.14l0.12-0.08l0.17-0.06l0.13-0.11l0.19-0.2L31,27.43l0.24-0.06l0.1-0.08l0.4-0.51
		l0.24-0.24l0.42-0.18l0.34-0.36l0.45-0.36l0.11,0.09l0.15-0.04l0.16-0.08l0.17-0.06l0.38-0.02l0.36,0.06l0.01,0.06l-0.03,0.04
		l-0.07,0.13l0.23-0.2l0.08-0.26l-0.09-0.21l-0.29-0.06l-0.57,0.01l-0.09-0.04l-0.03-0.12l-0.04-0.09l-0.15,0.02l0.09-0.18
		l0.15,0.02l0.19,0.09l0.32,0.05l0.24,0.06h0.13l0.02-0.04l-0.21-0.2l-0.07-0.09l-0.03,0.04l-0.05,0.08l-0.02,0.05l-0.05-0.09
		l-0.03-0.05l0.02-0.09l0.01-0.02l-0.01-0.03l-0.05-0.08l0.05-0.09l0.04,0.02l0.02,0.02l0.07,0.02l-0.03-0.17l0.05-0.09l0.3-0.23
		l0.1-0.03L35,23.86L35,23.81l0.04-0.12l0.05-0.13l0.07-0.09h0.05l0.05,0.01l0.04,0.02l-0.01,0.02l0.19-0.03l0.05-0.03l0.04-0.1
		l0.05-0.03l0.05,0.01l0.03,0.02l0.02,0.03l0.02,0.01l0.08,0.05l0.05,0.13l0.06,0.08l0.09-0.05l0.17-0.15l0.64-0.15l0.27-0.16
		l0.17-0.04l0.74,0.45l0.93,0.41l0.43,0.12l0.2-0.08l0.23,0.2l0.12,0.08l0.16,0.01l0.12,0.05l0.45,0.24l0.1,0.09l0.09,0.12
		l0.39,0.31l0.11,0.22l0.05,0.05l0.09,0.04l0.1,0.05l0.05,0.1l0.08,0.24l0.02,0.1l0.09,0.16l0.16,0.18l0.19,0.17l0.16,0.1l0.34,0.09
		l0.07,0.04l0.12,0.09l0.09,0.05l0.2,0.05h0.19l0.16,0.02l0.12,0.12l0.07,0.21l0.02,0.24l-0.03,0.22l-0.08,0.13l0.07,0.09l0.06,0.14
		l0.03,0.15l-0.02,0.1l0.25,0.14l0.13,0.04l0.09-0.02l0.54,0.47l0.28,0.16l0.22-0.07l0.21,0.13l0.19,0.15l0.33,0.34l0.2,0.28
		l0.03,0.02l0.05,0.21l0.04,0.11l0.04,0.06l0.1,0.08l0.16,0.07l0.18,0.05h0.14l0.14,0.04l0.1,0.13l0.09,0.13l0.08,0.08l-0.09,0.12
		l0.02,0.09l0.08,0.06l0.13,0.01l0.06,0.05l0.02,0.12l0.06,0.12l0.16,0.03l0.12-0.02L48,31.39l0.16-0.09l0.13-0.04l0.26-0.05
		l0.1-0.05l0.17,0.08l0.22,0.05l0.21-0.02l0.16-0.16l0.05,0.05l0.12,0.09l0.05,0.05l0.07-0.06l0.16-0.12l0.03,0.2l0.05,0.16
		l0.09,0.12l0.17,0.05l-0.18,0.15l0.13,0.16l0.38,0.22v0.04l0.05,0.32v0.1l-0.04,0.12l0.07,0.07l0.11,0.04l0.12-0.01l-0.03,0.21
		l0.08,0.17l0.45,0.42l0.08,0.05l0.07,0.02l0.18-0.01l0.07,0.02l0.12,0.12l0.05,0.15l0.01,0.52l0.03,0.11l0.11,0.3l-0.27-0.25
		l-0.16-0.06l-0.1,0.18l0.05,0.09l0.21,0.21l0.07,0.12l0.03,0.04l0.06-0.02L52,35.26l0.04,0.09l0.06,0.35l0.03,0.1l0.04,0.07
		l0.01,0.07l-0.06,0.11l-0.02,0.09l0.02,0.09l0.04,0.09l0.05,0.06l-0.06,0.2l0.11,0.89l-0.05,0.33v0.13l0.08,0.56l-0.14,0.38
		l0.02,0.07L52.17,39l-0.09,0.15l-0.2,0.92l0.06-0.03l0.02-0.02l0.03-0.04l0.04,0.13L52,40.27l-0.15,0.33l-0.03,0.31l-0.03,0.14
		l-0.1,0.16l-0.09-0.04l-0.02,0.14l0.02,0.21l0.02,0.13l0.09,0.26l0.08,0.15l0.11,0.13l-0.07,0.11l-0.01,0.13l0.03,0.28l-0.05,0.99
		l-0.18,0.88l-0.07-0.14l-0.01-0.19l0.04-0.18l0.06-0.16l-0.08,0.11l-0.08,0.16l-0.05,0.19l-0.01,0.2l0.05,0.2l0.13,0.28l0.04,0.13
		l0.16,0.23l0.66,0.47l0.18,0.32l0.06,0.16l0.11,0.22l0.13,0.17l0.12,0.01l-0.02-0.13l-0.09-0.22l-0.2-0.34l-0.13-0.17L52,45.38
		l-0.1-0.12l0.01-0.16l0.21,0.15l0.4,0.23l0.2,0.16l0.2,0.24l0.13,0.05l0.2-0.01l0.02,0.05l0.02,0.23l0.04,0.09l0.05,0.04l0.06,0.01
		l0.17-0.03l0.14-0.09l0.08-0.16v-0.2l-0.09-0.16l0.06-0.34v-0.07l0.02-0.06l0.1-0.18l0.02-0.11l-0.02-0.12l-0.08-0.21l-0.04-0.13
		l0.27-0.22l0.08-0.08l-0.39,0.11l-0.38-0.09l-0.37-0.15l-0.38-0.08l0.13-0.2l0.4-0.19l0.09-0.15l-0.34,0.05l-0.09-0.01l-0.01-0.05
		l0.05-0.09l-0.01-0.05l0.03-0.12V43.1l-0.03-0.07l-0.1-0.15l-0.04-0.09l0.43,0.3l-0.02-0.1v-0.04l0.05-0.01l0.09,0.1l0.13,0.08
		l0.27,0.09l0.02,0.08l-0.18,0.1l0.02,0.08l0.29-0.04l0.24,0.02l0.19,0.11l0.1,0.25l0.02,0.52l0.05,0.25l0.15,0.19l0.08,0.01
		l0.34-0.04l0.02-0.11l-0.03-0.11l-0.09-0.14L54.85,44l0.01-0.17l0.06-0.14l0.18-0.13l0.16-0.01l0.13,0.1l0.16,0.41l0.25,0.41
		l0.06,0.24l-0.05,0.16l-0.25,0.38l-0.05,0.12l-0.23,0.23l-0.04,0.08l-0.09,0.31l-0.05,0.05l-0.09,0.04l-0.06,0.06l-0.01,0.13
		l-0.02,0.09L54.7,46.6l-0.09,0.23l-0.03,0.23l-0.06,0.2l-0.18,0.16l0.05,0.09l0.03,0.03l-0.09,0.15l0.11-0.07l0.14-0.05l-0.04,0.13
		l-0.11,0.12l-0.26,0.12l-0.13,0.1h0.14l0.12,0.02l0.11,0.05l0.11,0.07l-0.2,0.04l-0.26-0.09l-0.23-0.03l-0.13,0.2l0.07,0.06
		l0.07,0.03h0.07l0.05-0.05l0.05-0.01l0.02,0.1v0.09l-0.03,0.09l-0.05,0.09l-0.12-0.09l-0.27-0.09l-0.1-0.05l-0.06-0.07l-0.2-0.32
		l-0.06,0.01l0.05,0.16l0.26,0.44l0.13,0.13l0.16,0.04l0.35,0.01l0.41,0.21l0.19,0.07l0.15,0.11l0.18,0.49l0.26,0.37l0.06,0.26
		l-0.06,0.01l-0.05-0.05l-0.03-0.02l-0.04-0.02l-0.04-0.03l0.03,0.23l0.16,0.18l0.18,0.18l0.15,0.21l0.06-0.02l-0.02-0.14l0.1,0.05
		l0.09,0.1l0.05,0.14l0.02,0.17l-0.05-0.04l-0.04-0.05L55.8,51.2l0.09,0.23l0.29,0.39l0.15,0.36l1.11,1.54l0.09,0.2l0.05,0.03
		l0.05,0.03l0.12,0.05l-0.07-0.16l-0.16-0.22l-0.05-0.16l0.29,0.24l0.42,0.84l0.3,0.14l0.09-0.01l0.06,0.01l0.14,0.02l0.09,0.03
		l0.1,0.08h0.06l0.05-0.02l0.02-0.03l0.02-0.02l0.02-0.02l0.05,0.02l0.11,0.09l0.03,0.02l0.05-0.05l0.06-0.09l0.04-0.09l0.01-0.03
		l0.09,0.09L59.66,55l0.07-0.06l0.04-0.14l-0.03-0.16l-0.16-0.45l-0.21-0.36l-0.06-0.06l-0.07-0.06l-0.18-0.3l-0.12-0.1l-0.05,0.09
		l-0.12-0.08l-0.33-0.3l-0.13-0.17l-0.05-0.08l0.21,0.06l0.12,0.1l0.24,0.28l0.14,0.02l0.14-0.11l0.09-0.04l-0.01,0.18l0.2,0.17
		l0.12,0.07l0.04-0.04l0.04-0.11l0.12-0.03l0.1-0.06l0.02-0.16l0.23,0.02l0.16-0.06l0.15-0.09l0.37-0.14l0.17-0.23l0.14-0.07
		l-0.06,0.34l-0.04,0.08l-0.08,0.06l-0.2,0.08l-0.42,0.35l-0.16,0.17l0.01,0.13l0.22,0.13l0.13,0.05l0.09,0.09l0.06,0.25l0.02,0.23
		l-0.03,1.24l0.03,0.23l0.07,0.16l0.23,0.34l0.07,0.18l0.02,0.24L61,57.04v0.13l0.11,0.16l0.17,0.14l0.12-0.02l0.11-0.1l0.18-0.11
		l0.02,0.14l0.08-0.05l0.21-0.1l0.06-0.05l0.03-0.06l0.16-0.85l0.07-0.18l0.25-0.38l0.16-0.18l0.14-0.09l0.17-0.05l0.2-0.17
		l0.12-0.08l-0.02,0.13l-0.04,0.1l-0.05,0.09l-0.09,0.09l-0.1-0.04l-0.09,0.06l-0.07,0.11l-0.02,0.1l-0.34,0.47l-0.09,0.15
		l0.08,0.26l-0.12,0.31l-0.21,0.28l-0.23,0.21l-0.03,0.05l-0.03,0.05l-0.07,0.03l-0.07-0.02l-0.09-0.1h-0.04l-0.04,0.11v0.15
		l0.03,0.16l0.03,0.09l0.05-0.09l0.06,0.05l0.03,0.01l0.11-0.09l0.56,0.2l0.2-0.04l0.05,0.02l0.05,0.04l0.07,0.02l0.04-0.04
		l0.02-0.09l-0.08-0.26l-0.03-0.15l0.09,0.15l0.24,0.3l0.1,0.15l0.08,0.2L63.42,59l-0.06,0.01l-0.02-0.07l-0.06,0.01l0.06,0.17
		l0.36,0.46l0.02,0.03l0.01,0.07v0.36l0.22,0.8l0.29,0.71l0.07-0.01l-0.02-0.12l-0.02-0.1l0.01-0.11l0.02-0.1l0.28,0.71l0.19,0.24
		l0.31,0.16l-0.06,0.11l0.05,0.12l0.1,0.11l0.12,0.06h0.09l0.21-0.05l0.14-0.02l-0.02,0.13l-0.05,0.16l-0.07,0.12l-0.08,0.06
		l-0.12-0.03l-0.12-0.09l-0.12-0.05l-0.12,0.07l0.12,0.3l0.05,0.07l0.11,0.09l0.04,0.02h0.07l0.05-0.01l-0.02-0.07l0.04-0.05
		l0.02-0.03l0.02-0.08l0.02-0.06l0.08,0.07l0.11,0.05l0.11-0.01l0.11-0.04l0.09-0.08l0.05-0.15l0.08-0.09l0.07,0.11l0.11,0.07
		l0.11,0.02l0.07-0.04l0.03,0.06l0.02,0.02l0.01,0.02l-0.02,0.09l0.07-0.04l0.1-0.11l0.04-0.03l0.09,0.02L67,63.11l0.21,0.05
		l0.12,0.09l0.1,0.02l0.1-0.16l0.12,0.08l0.15,0.15l0.13,0.07l0.12,0.02l0.28,0.01l0.12,0.02l0.26,0.12l0.26,0.16L69.2,64l0.09,0.06
		l-0.21,0.23L69,64.42l0.13,0.03l0.05,0.05l0.16,0.26l0.08,0.08h0.09l0.32-0.04l0.04,0.19l0.05,0.11l0.09,0.07l0.02,0.14l0.26,0.33
		l0.18,0.45l0.05,0.09l0.12,0.02l0.2-0.09l0.1,0.02l0.02,0.07l-0.02,0.09l-0.05,0.07l-0.16,0.15l0.14,0.19l0.37,0.29l0.2,0.37
		l0.03,0.1l0.08,0.2l0.03,0.11l0.09,0.09l0.49,0.27l0.37,0.01l0.05,0.02l0.18,0.07h0.35l0.19,0.05l0.63,0.48l0.09,0.17L74,69.2
		l-0.14,0.15l-0.2,0.09l-0.21,0.02l-0.18-0.04l-0.01-0.06l0.05-0.03l0.08-0.06l0.05-0.02l-0.02-0.07L72.66,69l-0.14-0.06h-0.03
		l-0.22-0.29l-0.08-0.07l-0.11-0.08l-0.13-0.05l-0.12-0.01l0.03-0.16l-0.15,0.16l-0.1,0.38l-0.03,0.41l0.05,0.33l0.16,0.3l0.2,0.3
		l0.52,0.34l0.15,0.01l0.42-0.18l0.38-0.1l0.3-0.12l0.36-0.07l0.17-0.06l0.17-0.27l0.04-0.02l0.24-0.22l0.16,0.11l0.29,0.01
		l-0.02,0.09l0.01,0.08l0.09,0.01h0.05l0.02-0.03l0.02-0.09l0.06,0.05l0.06,0.02l0.05,0.02l0.05,0.02l0.01-0.05l0.01-0.04l0.02-0.03
		l0.02-0.05l0.11,0.09l0.16,0.03l0.16-0.02l0.11-0.04l0.16-0.21l0.12-0.08l0.16,0.06l0.05-0.02l0.04-0.09l-0.02-0.06l-0.04-0.06
		l-0.04-0.09l0.05-0.04l0.34-0.14l-0.02,0.05l-0.01,0.01h-0.02L76.93,69l0.16,0.02l0.06-0.16l0.02-0.24l0.06-0.19l0.13-0.07
		l0.38-0.07l0.12-0.05l0.05,0.06l0.02,0.03l0.02,0.04l-0.09,0.03l-0.04,0.03l-0.02,0.05l-0.02,0.07l0.07,0.02l0.05,0.04l0.05,0.05
		l0.04,0.06l0.15-0.13l0.19-0.01l0.17,0.11l0.07,0.22l0.06-0.01l-0.06-0.21l-0.14-0.13l-0.19-0.07l-0.21,0.02l0.1-0.15l0.17-0.12
		l0.14-0.04l0.03,0.16l0.13,0.02l0.23,0.23l0.17,0.09l-0.01-0.1l-0.15-0.09l-0.14-0.13l-0.01-0.2l-0.01-0.12l0.12-0.21l0.02-0.1
		v-0.09l0.03-0.09l0.34-0.56l0.3-0.36l-0.02-0.12l-0.08-0.07l-0.13-0.05l-0.09-0.07l0.03-0.21l0.05-0.16l-0.05-0.05l-0.07-0.03
		l-0.05-0.05l-0.07-0.22l-0.02-0.19l0.04-0.2l0.12-0.25l0.03-0.18l-0.09-0.51v-0.2l0.23-0.32l0.12-0.47l-0.03-0.26l0.02-0.1
		l0.09-0.11l0.09-0.03l0.09-0.02l0.09-0.06l0.1-0.22l-0.08-0.44l0.07-0.29l-0.01-0.38l0.26-0.5l0.08-0.02l0.05,0.13l0.05,0.27
		l0.02,0.48l0.08,0.43l0.06-0.02l-0.4-3.05L79.91,58.91z M70.85,34.42v-0.34l-0.21-0.28l-0.12,0.03l-0.1,0.07l-0.17,0.18l-0.18,0.15
		l-0.04,0.09L70,34.5l-0.2,0.03l-0.02,0.29l0.09,0.34l0.11,0.15l0.23,0.82l0.08,0.19l0.17,0.2l0.49,0.94l0.2,0.26l-0.05-0.16
		L71,37.4l-0.13-0.19l-0.04-0.12L70.82,37l0.02-0.2l-0.17-1.28l0.02-0.4L70.85,34.42z M71.26,37.91l0.05,0.11l0.04,0.13l0,0v0.01
		l0.07-0.02l-0.04-0.09l-0.22-0.3l0.05,0.07l-0.05-0.07L71.26,37.91z M74.2,42.17l0.23,0.27l0.04,0.09l0.04,0.12l0.13,0.2l0.09,0.3
		l0.09,0.14l0.11,0.11l0.11,0.16l0.66,1.49l0.18,0.31l0.04,0.13l0.04,0.06l0.14,0.08l0.04,0.05l0.06,0.15l0.78,1.13l0.17,0.38
		l0.23,0.2l0.19,0.27l-0.01-0.02l0.02,0.02l-0.09-0.24l-2.34-3.95l-0.05-0.16l-0.05-0.21l-0.08-0.21l-0.2-0.36l-0.49-0.59L74,41.69
		l-0.14-0.41l-0.04-0.03l-0.03-0.02l-0.02-0.02l-0.01-0.05l-0.01,0.01v-0.01l-0.06,0.03l-0.02,0.03l-0.03,0.04l0.16,0.2L74.2,42.17z
		 M80.68,81.59l0.05-0.06l0.02-0.05l-0.04,0.04L80.68,81.59z M81.55,81.05l0.06-0.03L81.59,81L81.55,81.05z M81.7,81.01l0.05-0.05
		l-0.05-0.01L81.7,81.01z M82.23,80.65h0.07l-0.01-0.06L82.23,80.65z M82.58,80.51l-0.01,0.08l0.04-0.02L82.58,80.51z M51.95,36.54
		l0.06,0.05l0.04,0.02l0.02,0.01l0.01-0.02v-0.04l-0.02-0.04l-0.14,0.01l-0.02,0.02L51.95,36.54z M51.7,34.1l0.01,0.06l0.02,0.05
		l0.08,0.03l0.02-0.03l-0.01-0.03l-0.02-0.02l-0.02-0.14l-0.05-0.07l-0.09-0.02l-0.05,0.04l0.09,0.05v0.05L51.7,34.1z M51.82,35.3
		l-0.06,0.05l0.02,0.04l0.17-0.06l-0.05-0.02L51.82,35.3z M51.69,35.51l-0.05-0.01l-0.05,0.03l0.01,0.04l0.03,0.02L51.6,35.6
		l-0.03,0.01l-0.04,0.01l0.01,0.03l0.13,0.03l0.01,0.04l0.04,0.02l0.04-0.01l0.02-0.01l0.03-0.09l-0.01-0.12l-0.07-0.02L51.69,35.51
		z M51.83,35.88l-0.04-0.03v0.05l0.03,0.01L51.83,35.88z M51.59,35.01l-0.08-0.02L51.45,35l-0.02,0.06l0.03,0.06l0.04,0.02v0.04
		l-0.03,0.06v0.03l0.05,0.01l0.09-0.02l0.06-0.08l-0.02-0.1L51.59,35.01z M51.75,36.25l0.04,0.05l-0.02-0.07L51.75,36.25z
		 M51.1,34.17l-0.02,0.02v0.05l0.03-0.04l0.03,0.02l0.01,0.02l0.05-0.08l-0.05-0.03l-0.04,0.02l0.03,0.02l-0.01,0.01H51.1z
		 M51.18,34.67l-0.07,0.02l-0.04,0.05l0.03,0.02l0.07-0.05l0.03-0.01l0.03,0.01l0.04,0.01l0.02-0.02l-0.03-0.02L51.18,34.67z
		 M51.01,34.29L51,34.35l0.05,0.02l-0.01-0.02L51.01,34.29z M51.55,34.13l0.04-0.01V34.1l-0.05-0.02l-0.05-0.02l-0.05,0.01
		l-0.05,0.02l-0.05,0.05l0.02,0.04l0.11-0.04L51.55,34.13z M50.98,35.08l0.03-0.02v-0.04l-0.02,0.02L50.98,35.08z M49.9,31.85
		l-0.04,0.01l-0.05,0.03l-0.01,0.08L49.85,32l0.05-0.02l0.05-0.06l-0.01-0.05L49.9,31.85z M47.74,31.77l-0.05-0.05l-0.07-0.04
		l-0.06,0.07l0.02,0.15l0.09,0.02l0.11-0.07l0.06-0.03l-0.03-0.02L47.74,31.77z M51.38,33.87l0.07,0.03l0.06,0.01l0.03-0.03
		l-0.02-0.02l-0.03-0.01l-0.03-0.02l-0.05-0.02l-0.05,0.02l-0.03,0.02l0.02,0.02L51.38,33.87z M51.49,35.69v-0.02l-0.05-0.01
		l-0.04,0.05l0.02,0.02l0.03-0.02L51.49,35.69z M67.47,77.26l-0.05-0.03l-0.05-0.02l0,0h-0.01l-0.05,0.01l-0.17,0.2l-0.06,0.05
		l-0.1,0.01l-0.11-0.02l-0.08,0.03l-0.02,0.17l0.01-0.01v0.01l0.28-0.09l0.13-0.06l0.09-0.08l0.03-0.07l0.02-0.08l0.04,0.05h0.01
		l0,0h0.01v-0.04v-0.02l0.03,0.04l0.03,0.04l0.04,0.02l0,0h0.01l0.05,0.01l-0.03-0.08L67.47,77.26z M66.81,63.44v-0.05l-0.04-0.02
		l-0.03,0.02l-0.01,0.09l0.03,0.03l0.04-0.04L66.81,63.44z M63.78,77.6l-0.12-0.02l-0.1,0.04l-0.02,0.04l0.05-0.02l0.05-0.01
		l0.07,0.03l0.09,0.03l0.1,0.13l0.02,0.06l0.02-0.11l-0.04-0.11L63.78,77.6z M63.77,78.03v0.03l0.09-0.05l0.04-0.05l-0.04,0.02
		L63.77,78.03z M63.58,78.1L63.58,78.1h-0.02l0.02,0.02l0,0l0.01,0.01l0.01-0.01L63.58,78.1L63.58,78.1z M68.19,76.84L68.19,76.84
		L68.19,76.84l-0.25,0.11l-0.11,0.02l-0.1-0.05h-0.01l0,0l-0.05,0.01l-0.04,0.07l-0.01,0.06l0.02,0.05l0.06,0.05l0.01,0.06
		l-0.08,0.12l-0.03,0.04l0.01-0.01v0.01l0.68-0.33l-0.07-0.16L68.19,76.84z M68.5,64.09l0.03,0.01l-0.01-0.03l0.02-0.03l0.03-0.05
		l0.05-0.05l0.09-0.02l0.05-0.05l-0.03-0.05l-0.08-0.04l-0.07-0.02l-0.19-0.1l-0.08-0.05l-0.18-0.05l-0.09,0.11l0.01,0.1l0.03,0.06
		l0.04,0.23l0.05-0.02l0.06-0.09l0.08,0.02l0.12,0.11L68.5,64.09z M68.71,63.93l-0.09,0.09l0.02,0.05l0.26,0.06l0.07-0.03l0.05-0.08
		l-0.05-0.07h-0.11l-0.05,0.02L68.77,64l-0.03-0.05L68.71,63.93z M63.48,77.89l0.02-0.01l-0.02-0.02V77.89z M67.05,63.25l-0.08-0.06
		l-0.12,0.01l-0.01,0.09l0.03,0.05l0.05,0.04l0.06,0.02l0.02,0.09l0.01,0.16l0.03,0.03l0.06-0.19l0.01-0.09l-0.03-0.06l-0.05-0.05
		l-0.03-0.02l0.02-0.01L67.05,63.25z M67.51,63.63l0.03,0.02l0.15-0.01l0.07,0.06l0.03,0.05l0.05,0.05l0.08,0.05l0.05-0.03
		l0.02-0.08l-0.04-0.06l-0.03-0.02l-0.03-0.09l-0.09-0.15l-0.09-0.06l-0.14,0.06l-0.04,0.02l-0.08,0.04l-0.12,0.08L67.3,63.7
		l0.06,0.05l0.03,0.02v0.04h0.02v-0.08V63.7v-0.06l0.04-0.04L67.51,63.63z M65.75,63.4l-0.12,0.05l-0.09,0.01l-0.09,0.02l-0.01,0.1
		l0.03,0.05l0.02,0.02l0.05,0.03l0.03,0.05l0.04,0.07l0.06,0.02l0.12-0.01l0.05-0.06l0.08-0.22l-0.05-0.1L65.75,63.4z M56.54,78.44
		l0.01-0.02l-0.02-0.04L56.54,78.44z M56.59,78.39h0.02l-0.01-0.03L56.59,78.39z M56.64,78.42l0.01-0.03h-0.02L56.64,78.42z
		 M56.06,78.45l0.03-0.03l-0.03-0.03V78.45z M54.77,49.89l-0.42-0.35l-0.28-0.38l-0.11-0.06l-0.02-0.01l-0.16-0.05l0.06,0.13
		L54,49.33l0.08,0.07l0.1,0.15l0.46,0.4l0.19,0.1v-0.01l0.01,0.01L54.77,49.89z M60.24,56.07l-0.21-0.16l-0.2-0.04v0.01l-0.01-0.01
		l-0.13,0.02l0.17,0.28l0.23,0.31l0.18,0.29v0.27l0.16,0.18l0.23,0.48l0.16,0.19h0.01l0,0l0.12,0.02l-0.02-0.18l-0.16-0.52
		l-0.09-0.13l-0.18-0.2l-0.15-0.21l0.02-0.38L60.24,56.07z M63.42,78.11l0.03,0.02l0.02-0.02l-0.03-0.02L63.42,78.11z M56.71,78.15
		L56.71,78.15l-0.02,0.01l0.01,0.02l0,0h0.01l0.01-0.01L56.71,78.15L56.71,78.15z M63.41,78.01l0.02,0.02l-0.02-0.06V78.01z
		 M59.33,56.67l-0.2-0.37l-0.05-0.24L59,56.03l-0.02-0.01l-0.02-0.01l-0.04,0.01l0.2,0.47l0.11,0.2l0.17,0.21l-0.01-0.01l0.01,0.02
		L59.33,56.67z M69.17,75.85l-0.09-0.1l-0.03-0.01l-0.01,0.01v-0.01l-0.02,0.01L69,75.74l-0.01-0.05l0,0l0,0l-0.06,0.01l-0.03,0.24
		l0.01-0.01v0.01l0.1-0.01l0.06,0.02l0.02,0.03l-0.04,0.07l0.02,0.08h0.01l0,0l0.16-0.04l0.1,0.03l0.06,0.1l-0.02,0.14l-0.06,0.02
		l-0.07-0.12h-0.01l-0.13-0.06l-0.24-0.02l-0.05-0.01v0.01l-0.01-0.01l0.07,0.06l0.06,0.05l0.16,0.06l-0.05,0.1l-0.02,0.02
		l-0.02,0.04l-0.05,0.05l-0.2,0.13l-0.09-0.04l0,0h-0.01l-0.1,0.06l-0.16,0.19l0.01,0.07l0.01-0.01v0.01l0.65-0.3l0.3-0.2l0.21-0.2
		l-0.02-0.08L69.17,75.85z M58.77,55.2l-0.14-0.22l-0.05-0.06h-0.01l0,0l-0.03,0.01L58.5,55l0.12,0.17l0.11,0.51l0.11,0.2v-0.01
		l0.01,0.01l0.03-0.24l-0.02-0.22L58.77,55.2z M72.1,68.46l0.09,0.05l0.1,0.04l0.01-0.1l0.02-0.06l-0.02-0.04l-0.04-0.08h-0.08
		l-0.1,0.05h-0.04l0.02-0.02L72,68.29l-0.05,0.06L72.1,68.46z M73.46,69.01l0.05-0.05l0.06-0.02l-0.06-0.07l-0.06,0.01v0.02
		l0.02,0.02l0.01,0.01l-0.03,0.06L73.46,69.01z M73.69,69.28l0.1,0.01h0.01l-0.02-0.08l0.07-0.05l0.04-0.03l-0.02-0.02v-0.04
		l-0.07-0.02l-0.06,0.01l0.03,0.03l-0.02,0.05L73.69,69.28z M72.68,68.46l0.07-0.08l-0.02-0.04l-0.17-0.02l-0.05,0.02l-0.01,0.06
		l0.04,0.06l0.05,0.04L72.68,68.46z M72.43,68.64l0.05,0.13l0.09,0.11l0.09,0.02l0.05-0.06l0.02-0.07l0.05-0.13l-0.05-0.11
		l-0.05-0.02h-0.12l-0.12,0.04L72.43,68.64z M72.39,68.21l0.01-0.03h-0.16l-0.19-0.03L72,68.18l-0.02,0.06l0.07,0.01L72.39,68.21z
		 M54.25,47.69L54.25,47.69l-0.05-0.01l-0.02,0.04l-0.03,0.09l0.01-0.01v0.01l0.16-0.1l0.01,0.01l0,0h0.01l0.02-0.02l-0.02,0.01
		l0.01-0.01l-0.03,0.02L54.25,47.69z M73.88,68.92l0.04,0.05l0.04,0.15l0.02-0.01L74,69.05v-0.09l-0.07-0.13l-0.07-0.05l-0.05,0.07
		v0.09l0.02,0.01L73.88,68.92z M69.69,75.68l-0.04-0.03l-0.08-0.05l-0.08-0.01h-0.06l-0.05-0.02l-0.03,0.01l-0.02,0.12l0.01,0.14
		l0.06,0.08l0.03,0.02l0.02,0.02h0.05l0.04-0.03l0.04-0.02l0.06,0.01l0.06,0.05l0.05,0.07l0.02-0.05l-0.04-0.19L69.69,75.68z
		 M52.2,37.45l0.01,0.02l0.01,0.01l0.03-0.02v-0.02l-0.05-0.06l-0.09,0.02l0.05,0.02L52.2,37.45z M77.77,68.88l-0.04,0.02v0.04
		l-0.05,0.02L77.67,69h0.01l0.07-0.03L77.77,68.88z M76.54,69.9l-0.02-0.05l-0.04-0.02l0.01,0.1l0.02-0.02L76.54,69.9z M76.72,72.09
		l0.02,0.05l0.04-0.02L76.72,72.09z M76.84,69.93l-0.05-0.02l-0.05,0.02l0.01,0.02L76.8,70l0.02,0.05l0.03,0.01l0.02,0.03l0.02-0.05
		l-0.02-0.07L76.84,69.93z M76.25,69.72l-0.07,0.02l0.07,0.07V69.72z M76.59,72.54l-0.07,0.05l-0.05,0.06l-0.01,0.08l0.04-0.01
		l0.13-0.12l0.06-0.06l0.09-0.14l-0.02-0.05L76.59,72.54z M77.42,71.6l-0.05,0.06l-0.24,0.42l0.09-0.05l0.16-0.24l0.06-0.13
		l-0.01-0.02L77.42,71.6z M76.9,69.87l0.04-0.01v-0.1l-0.06-0.12l-0.02-0.02l-0.02,0.04l0.01,0.11L76.9,69.87z M79.93,66.78
		l-0.14,0.12l-0.19,0.41l-0.11,0.1l-0.29,0.13l-0.05,0.07l0.05,0.11l0.08,0.04l0.09,0.06l0.05,0.14l-0.05,0.23l-0.28,0.44l-0.1,0.48
		l-0.45-0.02l-0.02,0.2V69.3v0.01l0.12-0.07h0.04l0.07,0.02l0.07,0.09l-0.02,0.12l-0.07-0.02l0,0h-0.01l-0.03,0.01l0.01,0.04
		l0.05,0.06l-0.06,0.14l-0.09,0.07l-0.2,0.07l0.05,0.12l-0.05,0.13l-0.19,0.29l-0.09,0.24l-0.06,0.06l-0.15,0.05l-0.04,0.07
		l-0.05,0.38l-0.09,0.06l-0.14,0.05l-0.08,0.08l0.07,0.1h0.01l0,0l0.19-0.03l0.17-0.26l0.27-0.51l0.25-0.31l0.05-0.12L78.58,70
		l0.05-0.13l0.11,0.01l0.09-0.07l0.63-0.89l-0.02-0.06l-0.07-0.15l0.08-0.27l0.23-0.5l0.21-0.4l0.03-0.12v-0.08l0.02-0.13L80,67.08
		L80.05,67l0.04-0.03l0.03-0.04l0.02-0.04l0.02-0.06L79.93,66.78L79.93,66.78z M77.31,69.2l-0.06-0.02l-0.08-0.02l-0.03,0.05
		l0.04,0.04l0.12,0.02L77.31,69.2z M76.89,70.2l0.04,0.05l0.03-0.03l-0.03-0.06L76.89,70.2z M76.26,71.23l0.05-0.06l-0.05-0.01
		L76.26,71.23z M76.66,70.03l-0.1,0.01l0.15,0.05L76.66,70.03z M71.78,75.45l-0.09,0.16l0.02,0.02l0.09-0.07l0.05-0.09l-0.02-0.04
		L71.78,75.45z M70.52,75.07l-0.31-0.17H70.2l0,0h-0.07l-0.02-0.01l-0.04-0.03l0.03,0.03l0,0l-0.04-0.03l0.8,0.86l0.06,0.3h0.01
		v0.01l0.19-0.2l-0.21-0.38L70.52,75.07z M70.02,75.65l-0.07,0.01l-0.01,0.04l0.03-0.01l-0.01,0.02l-0.05,0.06l0.02,0.06l0.12,0.08
		l0.02,0.05l0.05-0.01l0.01-0.11l-0.05-0.11L70.02,75.65z M70.29,75.87l0.03,0.03l0.07,0.03l0.02-0.09l-0.07-0.03L70.29,75.87z
		 M71.11,75.22l-0.07,0.01L71,75.27l0.04,0.07l0.04,0.03l0.1,0.04l0.09,0.09l0.01-0.05l-0.07-0.14L71.11,75.22z M75.83,71.89
		l0.05,0.04v-0.02L75.83,71.89z M76.03,73.02L76.03,73.02l-0.06,0.01l-0.05,0.06l-0.02-0.01l0,0l-0.01-0.07v-0.11l-0.01,0.01v-0.01
		l-0.37,0.38l-0.08,0.13h0.01l0,0l0.35-0.09l0.14-0.07L76,73.17l0.04-0.07l0.01-0.03L76.03,73.02L76.03,73.02z M74.93,71.08
		L74.93,71.08l-0.03-0.03L74.93,71.08z M73.81,74.43L73.81,74.43l-0.2,0.06l-0.48,0.25l-0.18,0.13l0.02-0.01l-0.01,0.01l0.3-0.05
		l0.08,0.03l0.03,0.02L73.44,75V75L73.45,75l0.02-0.14l0.04-0.11l0.08-0.09l0.2-0.13l0.02-0.04L73.81,74.43L73.81,74.43z
		 M74.83,73.82L74.83,73.82l-0.29,0.11l-0.65,0.63l0.02-0.02l-0.02,0.02l0.65-0.41l0.12-0.15l0.12-0.05l0.03-0.02l0.03-0.05
		L74.83,73.82L74.83,73.82z M75.99,70.88l-0.05-0.09l-0.03,0.05L76,70.93L75.99,70.88z M80.46,65.13L80.46,65.13l-0.08,0.05
		l-0.02,0.05l-0.04,0.62l-0.05,0.18l-0.11,0.13l0.03,0.01l0,0h0.01l0.02-0.01l0.01,0.01l0,0l0.01,0.01l0.11-0.15l0.09-0.24
		l0.05-0.25v-0.23l0.01-0.05v-0.08L80.46,65.13L80.46,65.13z M78.46,69.61l-0.05-0.14l-0.02,0.1l-0.05,0.07l-0.01,0.05l-0.02,0.02
		l-0.02,0.04l0.02,0.03l0.1-0.15L78.46,69.61z"/>
</g>
<g id="GEORGIA">
</g>
<g id="HAWAII">
</g>
<g id="IDAHO">
</g>
<g id="IOWA">
</g>
<g id="ILLINOIS">
</g>
<g id="INDIANA">
</g>
<g id="KANSAS">
</g>
<g id="KETUCKY">
</g>
<g id="LOUISANA">
</g>
<g id="MAINE">
</g>
<g id="MARYLAND">
</g>
<g id="MASSACHUSETTS">
</g>
<g id="MICHIGAN">
</g>
<g id="MINNESOTA">
</g>
<g id="MISSOURI">
</g>
<g id="MISSISSIPPI">
</g>
<g id="MONTANA">
</g>
<g id="NORTH_CAROLINA">
</g>
<g id="NORTH_DAKOTA">
</g>
<g id="NEBRASKA">
</g>
<g id="NEW_HAMPSHIRE">
</g>
<g id="NEW_JERSEY">
</g>
<g id="NEW_YORK">
</g>
<g id="NEW_MEXICO">
</g>
<g id="NEVADA">
</g>
<g id="OHIO">
</g>
<g id="OKLAHOMA">
</g>
<g id="OREGON">
</g>
<g id="PENNSYLVANIA">
</g>
<g id="RHODE_ISLAND">
</g>
<g id="SOUTH_CAROLINA">
</g>
<g id="SOUTH_DAKOTA">
</g>
<g id="TENNESSEE">
</g>
<g id="TEXAS">
</g>
<g id="UTAH">
</g>
<g id="VIRGINIA">
</g>
<g id="VERMONT">
</g>
<g id="WASHINGTON">
</g>
<g id="WISCONSIN">
</g>
<g id="WEST_VIRGINIA">
</g>
<g id="WYOMING">
</g>
</svg>
