<?xml version="1.0" encoding="UTF-8"?>
<svg id="FLORIDA" xmlns="http://www.w3.org/2000/svg" viewBox="0 0 90 90">
  <defs>
    <style>
      .cls-1 {
        fill: #e2e2e2;
        stroke: #f9f9f9;
        stroke-linecap: round;
        stroke-linejoin: round;
        stroke-width: .03px;
      }
    </style>
  </defs>
  <path id="FL" class="cls-1" d="M32.57,26.83l-.19,.17-.34,.24-.05,.09,.48-.18,.19-.14,.06-.22h-.07s-.09,.03-.09,.03Zm-.93,.77l-.14,.21-.12,.05-.04,.02-.02,.05-.03,.05-.07,.03-.09,.02-.02,.05v.05l-.02,.05-1.81,1.2-.38,.15-.2,.05-.27-.12-.15-.02,.25,.12,.21,.04,.53-.08,.19-.09,.51-.39,.16-.19,.85-.52,.48-.49,.2-.12v-.04s.06-.08,.06-.08l.05-.04v-.07s-.12,.08-.12,.08Zm-3.32,1.34l-.03-.11h-.02s-.12,0-.12,0l-.13-.02h-.23s-.12,.13-.12,.13l-.17,.04h-.38s.11,.06,.11,.06l.19,.05,.11,.04,.07,.06,.07,.09,.09,.08,.08,.03,.21,.05,.1-.02,.03-.11v-.1s.05-.1,.05-.1l.05-.09,.04-.06Zm-15.25-5.91l-.3,.12-.07-.06-.2,.12-.95,.25-.4,.03-.14,.04-.23,.12-.08,.05-.21,.1-.64,.06-.51,.25-1.03,.3-.73,.1-.16,.08h.51s6.04-1.51,6.04-1.51h0l.1,.03h.1s.09-.02,.09-.02l.07-.05h-.88s-.38,0-.38,0ZM80.18,63.23l.07,.07h0s0,0,0,0l.12-.02,.03-.08-.09-.57h0s-.06,0-.06,0l-.02,.08-.03,.05-.04,.06-.06,.06v.06h.02s.04,0,.04,0h.02s.03,.02,.03,.02l.03,.02h0l-.09,.11v.12Zm-18.64-4.94l-.19-.07-.23-.08h0l-.06,.13-.17,.05-.32-.02h-.02s-.16-.05-.16-.05l-.16-.09-.14-.14-.11-.2-.05-.11-.05-.09-.06-.08-.1-.05h0l.1,.31,.14,.31,.09,.14,.11,.1,.12,.07,.62,.23h0s.16,.02,.16,.02l.15-.08,.2-.23,.17-.07h0Zm18.38,.62l-.02-.08,.13-.15,.03-.32-.04-1.57-.07-.23,.02-.16-.02-.18-.07-.35v-.16s.02-.33,.02-.33l-.17-1.42,.14-.04v-.31l-.27-1.32-.12-.31-.15-.14-.02-.07,.12-.18-.05-.28-.42-.94-.08-.09-.1-.05-.22-.02-.12-.03-.02-.07,.1-.07,.11-.03,.09-.05,.05-.13-.03-.12-.25-.35-.29-.53-.31-.41-.05-.14-.09-.16-.28-.08-.09-.13-.42-.33-.07,.02-.2,.1-.09-.02-.16-.06h-.07s-.28-.24-.28-.24l-.07-.07,.12-.03,.09,.02,.07,.05,.07,.04,.23,.07,.38,.03,.12,.07,.12,.2-.04-.16-1.95-3.05-.61-1.51-4.1-6-.12-.23-.36-.5-.28-.57-.12-.19-.39-.97-.11-.41-.07-.2-.37-.5,.05-.08-.02-.08-.15-.24-.31-.92,.2,.05,.35,.24,.41,.07,.06,.18-.03,.22-.05,.17-.08-.05-.04,.16v.21l.04,.2,.06,.15,.16,.12,.18,.05h.59l.09-.02,.1-.05v-.04l-.04-.15v-.04l.05-.02,.05,.02,.05,.03h.03s.18-.04,.18-.04l.13,.02,.1,.09,.08,.15,.14,.4,.06,.41-.04,1.36,.3,1.79,.16,.41,.42,.78,.72,.89,.15,.34,.33,.27,.05,.06,.05,.09,.3,.39-.09-.45-.94-1-.27-.41-.06-.16-.18-.27-.38-1.02-.14-.56-.02-.23-.09-.05,.05-.15-.18-1.01,.02-.06,.07-.05,.05-.09,.03-.09v-.06s.09-.03,.09-.03l.12-.22,.08-.24-.17-.18-.34-.64-.72-.87-.6-.6-.76-.96-1.56-1.75-.09-.19-.11-.17-.18-.09-.14-.09,.02-.2-1.11-1.42-.88-1.54-.75-1.13-.53-.68-.09-.17-.08-.21-.05-.19-.08-.2-.36-.44-.23-.6-.11-.08-.08-.1-.13-.5-.07-.14,.05-.09-.1-.03-.07-.05-.03-.07,.02-.11h-.05s-.09-.04-.09-.04h-.05v-.34l-.52-1.14-.19-.78-.07-.2-.26-.32-.11-.18-.48-1.09-.08-.42-.02-.48-.05-.09-.07-.05-.07-.05-.04-.06-.02-.34-.05-.13-.06-.09-.05-.03-.05-.02-.06-.05-.06-.07-.09-.15-.06-.08-.28-.16-.02-.05-.16-.03-.09-.13-.05-.19v-.18s-.05-.24-.05-.24v-.09l.08-.05,.09,.02,.08,.07,.06,.09,.03,.1,.05,.24,.05,.18,.1,.13,.16,.09-.08-.3-.12-.88,.02-.29v-.18s-.07-.07-.07-.07l-.04-.02-.02-.05-.02-.05h-.07s-.07,.02-.07,.02l-.12,.06-.05,.02-.23-.05-.02-.08h-.07s-.17-.02-.17-.02l-.27,.13-.09,.02-.38-.02-.1-.02-.14-.05h-.06s-.09,.04-.09,.04h-.09s-.45-.05-.45-.05l-.14-.03-.1-.05-.06-.04-.1-.05h-.13s-.09,0-.09,0l-.08,.02-.87-.2-.13-.05-.08-.05-.15-.06h-.15s-.05,.02-.05,.02l-.12,.02-.07,.02-.07,.04-.04,.04-.02,.05v.21l-.02,.06-.03,.04-.08,.03h-.08l-.09-.02-.05,.02-.02,.04v.17s-.02,.05-.02,.05l-.09,.12-.02,.04v.05s-.02,.05-.02,.05v.1s.09,.25,.09,.25v.13l-.02,.24v.06s.03,.12,.03,.12l.03,.08,.05,.09,.05,.09,.21,.22,.05,.07,.02,.05,.02,.1,.02,.12v.71s-.08,.68-.08,.68v.2l.07,.3v.06s0,.09,0,.09l-.02,.05-.05,.03-.24,.11h-.04s-.05,0-.05,0l-.17-.02h-.06l-.41,.12h-.09s-.07,0-.07,0l-.05-.02-.04-.03-.06-.08-.2-.37-.04-.09v-.05s-.02-.06-.02-.06v-.12s.02-.16,.02-.16v-.11l-.02-.05-.02-.05-.06-.09-.05-.06-.26-.24-.06-.08-.02-.04v-.04s0-.04,0-.04l.03-.08v-.07s0-.03,0-.03l-.02-.02-.38,.04-.33,.03-.42,.04-.52,.05-.59,.05-.67,.06-.73,.06-.79,.07-.85,.07-.88,.08-.93,.08-.96,.09-.99,.08-1,.09-1.02,.08-1.02,.09-1.02,.08-1.01,.08-.99,.08-.97,.08-.94,.07-.91,.06-.86,.06-.81,.06-.76,.05-.7,.05-.62,.05-.55,.04-.46,.03-.37,.02-.27,.02-.17,.02h-.05l-.29,.02-.08,.02-.45-.38-.24-.66-.07-.44-.1-.24-.16-.23-.09-.06-.11-.3-.07-.11-.06-.05-.17-.09-.04-.04-.03-.13,.02-.03-1.42,.19-1.42,.2-1.42,.19-1.42,.19-1.43,.19-1.42,.18-1.42,.18-1.43,.18-1.42,.17-1.42,.18-1.43,.17-1.42,.17-1.43,.16-1.42,.16-1.43,.17-1.42,.16-.41,.05-.04,.16,.07,.49v.05s-.15,.42-.15,.42l-.02,.11v.07s0,.06,0,.06l.02,.08,.05,.09,.11,.13,.12,.12,.48,.38,.06,.08,.23,.32,.15,.16,.13,.09,.78,.37,.08,.05,.04,.03,.02,.11v.16s0,.37,0,.37l-.04,.28-.13,.3-.02,.09v.05s.04,.16,.04,.16l.22,.48h0s.17,.08,.17,.08l.07,.04,.09,.03,.17-.05,.08,.02,.09,.09,.06,.13v.13s-.07,.06-.07,.06l-.21,.08-.16,.15-.23,.35v.07s.13,.06,.13,.06l.02,.11-.05,.11-.1,.09-.11,.04-.23,.02-.1,.05,.16,.03,.16,.06-.33,.09-.1,.05-.08,.06-.05,.07-.05,.06-.1,.05,.02,.08,.1-.06,.19-.08,.08,.02,.15-.1,1.25-.42,.19-.12-.05-.19,.09-.04,.22-.06,.08-.05,.02-.1-.05-.26v-.1s.17-.13,.17-.13l.2-.04,.17-.09,.05-.25,.04,.02v.02s.03,.02,.03,.02h.05l.17-.43,.02-.13-.06-.18-.2-.24-.05-.13-.08-.33,.02-.12,.12-.04,.12,.05,.05,.1,.08,.08h.16s-.02,.06-.02,.06v.12s-.02,.05-.02,.05h.2l.1,.14,.05,.19,.08,.13-.04,.15v.17s.07,.11,.07,.11l.14-.02,.08-.13,.02-.36,.09-.26,.13-.6,.04-.08v-.11l-.11-.17,.2,.1,.13,.2,.11,.12,.16-.13,.05,.06,.02,.03v.05s-.28,.17-.28,.17l-.12,.13-.04,.16,.03,.1,.05,.05h.07s.09,0,.09,0l.05,.04,.14,.19,.09,.04h.16l.2,.02,.2,.07,.12,.11v.12s-.13-.02-.13-.02l-.18-.08-.12-.03-.52,.55-.16,.05-.49,.06-.52,.21-.32,.2-.07,.03-.05,.05-.02,.13,.45-.11,.87-.36,1.39-.36,.51-.06,.25-.07,.18-.13,.2,.05,.73-.17,.7-.04,.09-.09-.02-.16v-.05s.23,0,.23,0l.1-.05,.09-.17,.08-.04,.12-.02,.11-.06,.1-.07,.09-.08v-.08s-.07-.26-.07-.26l-.02-.13,.09,.13,.1,.09h.09l.05-.12,.06-.06,.09-.03,.21-.02-.17,.31-.02,.16,.14,.12h.16l.12-.09,.1-.12,.12-.06,.17-.05,.38-.15,.17-.05,.39,.02,.18-.04,.12-.15,.15,.26,.12,.09,.16-.06,.22-.14,.02,.17-.06,.06-.05,.05,.08,.15,.31,.27v.05s.09,.07,.09,.07v.14s-.07,.09-.07,.09l-.18-.11-.09-.04-.45-.07-.27-.16-.14-.06h-.13l-.11,.08,.03,.07,.12,.05h.14s.05,.03,.05,.03l-.02,.07-.05,.07-.05,.06-.42-.06-.11-.08-.08-.11-.05-.11h0s-.02,0-.02,0l-.04,.02-.04,.11-.03,.15-.05,.13-.11,.07-.6-.06-.74,.06-.15-.03v.08s.25,.13,.25,.13l1.1-.02,1.61,.24,1.19,.21,1.11,.42,.82,.28,1.2,.66,.22,.02-.09-.09-.06-.06,.07-.03,.13,.11,.05-.16-.17-.13-.18-.09-.09-.11,.11-.22-.12-.1-.1-.1-.11-.09-.17-.02-.19,.06-.12,.06-.1,.02-.16-.1-.09-.17,.07-.15,.16-.12,.14-.06,.28-.07,.09-.09,.08-.2,.14,.2,.14,.16,.1,.14,.02,.18,.11,.02,.05-.1,.05-.12,.1-.07,.12-.07,.12-.09,.1-.02,.06,.13,.14-.13,.17-.41,.08-.1,.1,.04,.1,.12,.14,.23h-.21s-.3,.48-.3,.48l-.23-.06-.14,.04-.31,.53-.18,.14,.09,.09,.08,.06,.08,.05,.34,.12,.09,.05,.09,.12,.14-.06,.23,.05,.21,.11,.14,.09v-.06s.03-.04,.03-.04v-.05s0-.08,0-.08l.18,.05,.13-.06,.12-.09,.17-.03v.06s-.11,.12-.11,.12l-.02,.16,.08,.09,.16-.1,.05,.16,.02,.35,.11,.16,.14,.05,.08-.1,.08-.25,.08-.06v.02s.02,.05,.02,.05l.04,.05h.07l.15-.03,.07,.02,.05,.11-.1,.06-.14,.06-.06,.09-.13,.1-.34-.09-.35-.2-.17-.2-.18-.13-.61-.11-.02-.19-.56-.03-.07,.03,.09,.11,.51,.39,.13,.04,1.27,.8-.18,.02-.23-.11-.21-.17-.13-.16h-.07s.03,.1,.03,.1l.04,.07,.04,.05,.05,.05,.3,.2,1.1,.35,.17,.11,.18,.14,.16,.18,.08,.18,.09,.15,.34,.34,.12,.21,.06,.74,.02,.12,.04,.04-.05,.1-.09,.12-.09,.05-.13,.02-.08-.04-.28-.33-.13-.2-.1-.23-.05-.24-.07-.72-.04-.1-.1,.25,.09,.53,.29,.85,.11,.14,.16,.14,.2,.05,.32-.2,.2-.02h.22s.2-.02,.2-.02l1.01-.49,.37-.07,.73-.02,.11-.09,.15-.3,.22-.06,.12-.29,.11-.09,.13-.07,.11-.12,.11-.07,.16,.05-.21,.48-.02,.09,.06,.17,.1-.04,.11-.14,.12-.08,.17-.06,.13-.11,.19-.2,.13-.06,.24-.06,.1-.08,.4-.51,.24-.24,.42-.18,.34-.36,.45-.36,.11,.09,.15-.04,.16-.08,.17-.06,.38-.02,.36,.06v.06s-.02,.04-.02,.04l-.07,.13,.23-.2,.08-.26-.09-.21-.29-.06h-.57s-.09-.03-.09-.03l-.03-.12-.04-.09-.15,.02,.09-.18,.15,.02,.19,.09,.32,.05,.24,.06h.13l.02-.04-.21-.2-.07-.09-.03,.04-.05,.08-.02,.05-.05-.09-.03-.05,.02-.09v-.02s0-.03,0-.03l-.05-.08,.05-.09,.04,.02,.02,.02,.07,.02-.03-.17,.05-.09,.3-.23,.1-.03,.29-.02v-.05s.05-.12,.05-.12l.05-.13,.07-.09h.1s.04,.03,.04,.03v.02s.18-.03,.18-.03l.05-.03,.04-.1,.05-.03h.05s.03,.02,.03,.02l.02,.03h.02s.08,.05,.08,.05l.05,.13,.06,.08,.09-.05,.17-.15,.64-.15,.27-.16,.17-.04,.74,.45,.93,.41,.43,.12,.2-.08,.23,.2,.12,.08h.16s.12,.05,.12,.05l.45,.24,.1,.09,.09,.12,.39,.31,.11,.22,.05,.05,.09,.04,.1,.05,.05,.1,.08,.24,.02,.1,.09,.16,.16,.18,.19,.17,.16,.1,.34,.09,.07,.04,.12,.09,.09,.05,.2,.05h.19l.16,.02,.12,.12,.07,.21,.02,.24-.03,.22-.08,.13,.07,.09,.06,.14,.03,.15-.02,.1,.25,.14,.13,.04,.09-.02,.54,.47,.28,.16,.22-.07,.21,.13,.19,.15,.33,.34,.2,.28,.03,.02,.05,.21,.04,.11,.04,.06,.1,.08,.16,.07,.18,.05h.14l.14,.04,.1,.13,.09,.13,.08,.08-.09,.12,.02,.09,.08,.06h.13s.06,.05,.06,.05l.02,.12,.06,.12,.16,.03,.12-.02,.06-.02,.16-.09,.13-.04,.26-.05,.1-.05,.17,.08,.22,.05,.21-.02,.16-.16,.05,.05,.12,.09,.05,.05,.07-.06,.16-.12,.03,.2,.05,.16,.09,.12,.17,.05-.18,.15,.13,.16,.38,.22v.04l.05,.32v.1l-.04,.12,.07,.07,.11,.04h.12s-.03,.2-.03,.2l.08,.17,.45,.42,.08,.05,.07,.02h.18s.07,0,.07,0l.12,.12,.05,.15v.52s.04,.11,.04,.11l.11,.3-.27-.25-.16-.06-.1,.18,.05,.09,.21,.21,.07,.12,.03,.04,.06-.02h.07s.04,.09,.04,.09l.06,.35,.03,.1,.04,.07v.07s-.05,.11-.05,.11l-.02,.09,.02,.09,.04,.09,.05,.06-.06,.2,.11,.89-.05,.33v.13l.08,.56-.14,.38,.02,.07v.06s-.08,.15-.08,.15l-.2,.92,.06-.03,.02-.02,.03-.04,.04,.13-.05,.16-.15,.33-.03,.31-.03,.14-.1,.16-.09-.04-.02,.14,.02,.21,.02,.13,.09,.26,.08,.15,.11,.13-.07,.11v.13s.02,.28,.02,.28l-.05,.99-.18,.88-.07-.14v-.19s.03-.18,.03-.18l.06-.16-.08,.11-.08,.16-.05,.19v.2s.05,.2,.05,.2l.13,.28,.04,.13,.16,.23,.66,.47,.18,.32,.06,.16,.11,.22,.13,.17h.12s-.02-.13-.02-.13l-.09-.22-.2-.34-.13-.17-.64-.52-.1-.12v-.16s.22,.15,.22,.15l.4,.23,.2,.16,.2,.24,.13,.05h.2s.02,.04,.02,.04l.02,.23,.04,.09,.05,.04h.06s.17-.02,.17-.02l.14-.09,.08-.16v-.2l-.09-.16,.06-.34v-.07l.02-.06,.1-.18,.02-.11-.02-.12-.08-.21-.04-.13,.27-.22,.08-.08-.39,.11-.38-.09-.37-.15-.38-.08,.13-.2,.4-.19,.09-.15-.34,.05h-.09s0-.05,0-.05l.05-.09v-.05s.02-.12,.02-.12v-.09l-.03-.07-.1-.15-.04-.09,.43,.3-.02-.1v-.04h.05s.09,.09,.09,.09l.13,.08,.27,.09,.02,.08-.18,.1,.02,.08,.29-.04,.24,.02,.19,.11,.1,.25,.02,.52,.05,.25,.15,.19h.08s.34-.03,.34-.03l.02-.11-.03-.11-.09-.14-.05-.38v-.17s.07-.14,.07-.14l.18-.13h.16s.13,.09,.13,.09l.16,.41,.25,.41,.06,.24-.05,.16-.25,.38-.05,.12-.23,.23-.04,.08-.09,.31-.05,.05-.09,.04-.06,.06v.13s-.02,.09-.02,.09l-.23,.25-.09,.23-.03,.23-.06,.2-.18,.16,.05,.09,.03,.03-.09,.15,.11-.07,.14-.05-.04,.13-.11,.12-.26,.12-.13,.1h.14l.12,.02,.11,.05,.11,.07-.2,.04-.26-.09-.23-.03-.13,.2,.07,.06,.07,.03h.07l.05-.05h.05s.02,.09,.02,.09v.09l-.03,.09-.05,.09-.12-.09-.27-.09-.1-.05-.06-.07-.2-.32h-.06s.05,.17,.05,.17l.26,.44,.13,.13,.16,.04h.35s.41,.22,.41,.22l.19,.07,.15,.11,.18,.49,.26,.37,.06,.26h-.06s-.05-.05-.05-.05l-.03-.02-.04-.02-.04-.03,.03,.23,.16,.18,.18,.18,.15,.21,.06-.02-.02-.14,.1,.05,.09,.1,.05,.14,.02,.17-.05-.04-.04-.05-.06-.11,.09,.23,.29,.39,.15,.36,1.11,1.54,.09,.2,.05,.03,.05,.03,.12,.05-.07-.16-.16-.22-.05-.16,.29,.24,.42,.84,.3,.14h.09s.06,0,.06,0l.14,.02,.09,.03,.1,.08h.06l.05-.02,.02-.03,.02-.02,.02-.02,.05,.02,.11,.09,.03,.02,.05-.05,.06-.09,.04-.09v-.03s.1,.09,.1,.09l.09,.29,.07-.06,.04-.14-.03-.16-.16-.45-.21-.36-.06-.06-.07-.06-.18-.3-.12-.1-.05,.09-.12-.08-.33-.3-.13-.17-.05-.08,.21,.06,.12,.1,.24,.28,.14,.02,.14-.11,.09-.04v.18s.2,.17,.2,.17l.12,.07,.04-.04,.04-.11,.12-.03,.1-.06,.02-.16,.23,.02,.16-.06,.15-.09,.37-.14,.17-.23,.14-.07-.06,.34-.04,.08-.08,.06-.2,.08-.42,.35-.16,.17v.13s.23,.13,.23,.13l.13,.05,.09,.09,.06,.25,.02,.23-.03,1.24,.03,.23,.07,.16,.23,.34,.07,.18,.02,.24-.02,.16v.13l.11,.16,.17,.14,.12-.02,.11-.1,.18-.11,.02,.14,.08-.05,.21-.1,.06-.05,.03-.06,.16-.85,.07-.18,.25-.38,.16-.18,.14-.09,.17-.05,.2-.17,.12-.08-.02,.13-.04,.1-.05,.09-.09,.09-.1-.04-.09,.06-.07,.11-.02,.1-.34,.47-.09,.15,.08,.26-.12,.31-.21,.28-.23,.21-.03,.05-.03,.05-.07,.03-.07-.02-.09-.1h-.04l-.04,.11v.15l.03,.16,.03,.09,.05-.09,.06,.05h.03s.11-.08,.11-.08l.56,.2,.2-.04,.05,.02,.05,.04,.07,.02,.04-.04,.02-.09-.08-.26-.03-.15,.09,.15,.24,.3,.1,.15,.08,.2,.12,.64h-.06s-.02-.06-.02-.06h-.06s.06,.18,.06,.18l.36,.46,.02,.03v.07s0,.36,0,.36l.22,.8,.29,.71h.07s-.02-.13-.02-.13l-.02-.1v-.11s.03-.1,.03-.1l.28,.71,.19,.24,.31,.16-.06,.11,.05,.12,.1,.11,.12,.06h.09l.21-.05,.14-.02-.02,.13-.05,.16-.07,.12-.08,.06-.12-.03-.12-.09-.12-.05-.12,.07,.12,.3,.05,.07,.11,.09,.04,.02h.12s-.02-.08-.02-.08l.04-.05,.02-.03,.02-.08,.02-.06,.08,.07,.11,.05h.11s.11-.05,.11-.05l.09-.08,.05-.15,.08-.09,.07,.11,.11,.07,.11,.02,.07-.04,.03,.06,.02,.02v.02s-.02,.09-.02,.09l.07-.04,.1-.11,.04-.03,.09,.02,.14,.07,.21,.05,.12,.09,.1,.02,.1-.16,.12,.08,.15,.15,.13,.07,.12,.02h.28s.12,.03,.12,.03l.26,.12,.26,.16,.22,.24,.09,.06-.21,.23-.07,.13,.13,.03,.05,.05,.16,.26,.08,.08h.09l.32-.04,.04,.19,.05,.11,.09,.07,.02,.14,.26,.33,.18,.45,.05,.09,.12,.02,.2-.09,.1,.02,.02,.07-.02,.09-.05,.07-.16,.15,.14,.19,.37,.29,.2,.37,.03,.1,.08,.2,.03,.11,.09,.09,.49,.27h.37s.05,.02,.05,.02l.18,.07h.35l.19,.05,.63,.48,.09,.17-.05,.24-.14,.15-.2,.09-.21,.02-.18-.04v-.06s.05-.03,.05-.03l.08-.06,.05-.02-.02-.07-.77-.18-.14-.06h-.03l-.22-.29-.08-.07-.11-.08-.13-.05h-.12s.03-.16,.03-.16l-.15,.16-.1,.38-.03,.41,.05,.33,.16,.3,.2,.3,.52,.34h.15s.42-.17,.42-.17l.38-.1,.3-.12,.36-.07,.17-.06,.17-.27,.04-.02,.24-.22,.16,.11h.29s-.02,.1-.02,.1v.08s.1,0,.1,0h.05l.02-.03,.02-.09,.06,.05,.06,.02,.05,.02,.05,.02v-.05s.02-.04,.02-.04l.02-.03,.02-.05,.11,.09,.16,.03,.16-.02,.11-.04,.16-.21,.12-.08,.16,.06,.05-.02,.04-.09-.02-.06-.04-.06-.04-.09,.05-.04,.34-.14-.02,.05h0s-.02,0-.02,0l-.02,.02,.16,.02,.06-.16,.02-.24,.06-.19,.13-.07,.38-.07,.12-.05,.05,.06,.02,.03,.02,.04-.09,.03-.04,.03-.02,.05-.02,.07,.07,.02,.05,.04,.05,.05,.04,.06,.15-.13h.19s.17,.1,.17,.1l.07,.22h.06s-.06-.22-.06-.22l-.14-.13-.19-.07-.21,.02,.1-.15,.17-.12,.14-.04,.03,.16,.13,.02,.23,.23,.17,.09v-.1s-.16-.09-.16-.09l-.14-.13v-.2s-.02-.12-.02-.12l.12-.21,.02-.1v-.09l.03-.09,.34-.56,.3-.36-.02-.12-.08-.07-.13-.05-.09-.07,.03-.21,.05-.16-.05-.05-.07-.03-.05-.05-.07-.22-.02-.19,.04-.2,.12-.25,.03-.18-.09-.51v-.2l.23-.32,.12-.47-.03-.26,.02-.1,.09-.11,.09-.03,.09-.02,.09-.06,.1-.22-.08-.44,.07-.29v-.38s.25-.5,.25-.5l.08-.02,.05,.13,.05,.27,.02,.48,.08,.43,.06-.02-.4-3.05-.19-.2Zm-9.06-24.49v-.34l-.21-.28-.12,.03-.1,.07-.17,.18-.18,.15-.04,.09-.02,.18-.2,.03-.02,.29,.09,.34,.11,.15,.23,.82,.08,.19,.17,.2,.49,.94,.2,.26-.05-.16-.09-.16-.13-.19-.04-.12v-.09s0-.2,0-.2l-.17-1.28,.02-.4,.16-.7Zm.41,3.48l.05,.11,.04,.13h0s.07,0,.07,0l-.04-.09-.22-.3,.05,.07-.05-.07,.1,.17Zm2.94,4.27l.23,.27,.04,.09,.04,.12,.13,.2,.09,.3,.09,.14,.11,.11,.11,.16,.66,1.49,.18,.31,.04,.13,.04,.06,.14,.08,.04,.05,.06,.15,.78,1.13,.17,.38,.23,.2,.19,.27v-.02s0,.02,0,.02l-.09-.24-2.34-3.95-.05-.16-.05-.21-.08-.21-.2-.36-.49-.59-.27-.39-.14-.41-.04-.03-.03-.02-.02-.02v-.05s-.02,0-.02,0h0s-.06,.02-.06,.02l-.02,.03-.03,.04,.16,.2,.4,.72Zm6.48,39.42l.05-.06,.02-.05-.04,.04-.03,.07Zm.88-.54l.06-.03-.03-.02-.03,.06Zm.14-.05l.05-.05h-.05s0,.05,0,.05Zm.53-.36h.07v-.06s-.07,.06-.07,.06Zm.35-.14v.08s.03-.02,.03-.02l-.03-.05Zm-30.63-43.96l.06,.05,.04,.02h.02s0-.02,0-.02v-.04l-.02-.04h-.14s-.02,.02-.02,.02h.05Zm-.24-2.43v.06s.03,.05,.03,.05l.08,.03,.02-.03v-.03s-.03-.02-.03-.02l-.02-.14-.05-.07-.09-.02-.05,.04,.09,.05v.05l.02,.04Zm.12,1.2l-.06,.05,.02,.04,.17-.06-.05-.02h-.08Zm-.13,.2h-.05s-.05,.02-.05,.02v.04s.04,.02,.04,.02h-.02s-.03,.02-.03,.02h-.04s0,.04,0,.04l.13,.03v.04s.05,.02,.05,.02h.04s.02-.02,.02-.02l.03-.09v-.12s-.08-.02-.08-.02l-.04,.02Zm.14,.37l-.04-.03v.05h.03s0-.02,0-.02Zm-.24-.87l-.08-.02-.06,.02-.02,.06,.03,.06,.04,.02v.04l-.03,.06v.03h.05s.09-.02,.09-.02l.06-.08-.02-.1-.07-.07Zm.16,1.24l.04,.05-.02-.07-.02,.02Zm-.65-2.09l-.02,.02v.05l.03-.04,.03,.02v.02s.06-.08,.06-.08l-.05-.03-.04,.02,.03,.02h0s-.04,0-.04,0Zm.08,.5l-.07,.02-.04,.05,.03,.02,.07-.05h.03s.03,0,.03,0h.04s.02-.02,.02-.02l-.03-.02h-.09Zm-.17-.38v.05s.04,.02,.04,.02v-.02s-.04-.05-.04-.05Zm.54-.16h.04v-.03l-.05-.02-.05-.02h-.05s-.05,.03-.05,.03l-.05,.05,.02,.04,.11-.04h.09Zm-.57,.94l.03-.02v-.04l-.02,.02v.03Zm-1.09-3.23h-.04s-.05,.04-.05,.04v.08s.04,.03,.04,.03l.05-.02,.05-.06v-.05s-.05-.02-.05-.02Zm-2.16-.08l-.05-.05-.07-.04-.06,.07,.02,.15,.09,.02,.11-.07,.06-.03-.03-.02-.05-.03Zm3.64,2.1l.07,.03h.06s.03-.02,.03-.02l-.02-.02h-.03s-.03-.02-.03-.02l-.05-.02-.05,.02-.03,.02,.02,.02h.02Zm.11,1.82v-.02h-.05s-.04,.04-.04,.04l.02,.02,.03-.02,.04-.02Zm15.99,41.57l-.05-.03-.05-.02h-.06s-.17,.21-.17,.21l-.06,.05h-.1s-.11,0-.11,0l-.08,.03-.02,.17h0s0,0,0,0l.28-.09,.13-.06,.09-.08,.03-.07,.02-.08,.04,.05h.02v-.05l.03,.04,.03,.04,.04,.02h.06s-.03-.07-.03-.07l-.04-.05Zm-.66-13.82v-.05l-.04-.02-.03,.02v.09s.02,.03,.02,.03l.04-.04v-.05Zm-3.02,14.16l-.12-.02-.1,.04-.02,.04,.05-.02h.05s.07,.02,.07,.02l.09,.03,.1,.13,.02,.06,.02-.11-.04-.11-.11-.07Zm-.02,.44v.03l.09-.05,.04-.05-.04,.02-.09,.05Zm-.19,.06h0s-.02,0-.02,0l.02,.02h0s0,0,0,0v-.02s0,0,0,0Zm4.61-1.26h0s0,0,0,0l-.24,.11-.11,.02-.1-.05h-.06s-.04,.08-.04,.08v.06s.02,.05,.02,.05l.06,.05v.06s-.07,.12-.07,.12l-.03,.04h0s0,0,0,0l.68-.33-.07-.16-.03-.05Zm.31-12.75h.03s0-.02,0-.02l.02-.03,.03-.05,.05-.05,.09-.02,.05-.05-.03-.05-.08-.04-.07-.02-.19-.1-.08-.05-.18-.05-.09,.11v.1s.04,.06,.04,.06l.04,.23,.05-.02,.06-.09,.08,.02,.12,.11,.04,.03Zm.21-.16l-.09,.09,.02,.05,.26,.06,.07-.03,.05-.08-.05-.07h-.11l-.05,.02-.03,.03-.03-.05-.03-.02Zm-5.23,13.96h.02s-.02-.02-.02-.02v.02Zm3.56-14.64l-.08-.06h-.12s0,.1,0,.1l.03,.05,.05,.04,.06,.02,.02,.09v.16s.04,.03,.04,.03l.06-.19v-.09s-.02-.06-.02-.06l-.05-.05-.03-.02h.02s.02-.03,.02-.03Zm.46,.38l.03,.02h.15s.07,.05,.07,.05l.03,.05,.05,.05,.08,.05,.05-.03,.02-.08-.04-.06-.03-.02-.03-.09-.09-.15-.09-.06-.14,.06-.04,.02-.08,.04-.12,.08-.02,.13,.06,.05,.03,.02v.04h.02v-.17l.04-.04,.05,.03Zm-1.76-.24l-.12,.05h-.09s-.09,.03-.09,.03v.1s.02,.05,.02,.05l.02,.02,.05,.03,.03,.05,.04,.07,.06,.02h.12s.05-.07,.05-.07l.08-.22-.05-.1-.13-.03Zm-9.2,15.04v-.02s0-.04,0-.04v.06Zm.05-.06h.02v-.03s-.02,.03-.02,.03Zm.05,.04v-.03s0,0,0,0v.03Zm-.58,.02l.03-.03-.03-.03v.06Zm-1.28-28.56l-.42-.35-.28-.38-.11-.06h-.02s-.16-.05-.16-.05l.06,.13,.14,.16,.08,.07,.1,.15,.46,.4,.19,.1h0s0,0,0,0l-.06-.16Zm5.46,6.18l-.21-.16-.2-.04h0s0,0,0,0l-.13,.02,.17,.28,.23,.31,.18,.29v.27l.16,.18,.23,.48,.16,.19h0l.12,.02-.02-.18-.16-.52-.09-.13-.18-.2-.15-.21,.02-.38-.13-.21Zm3.19,22.04l.03,.02,.02-.02-.03-.02-.02,.02Zm-6.72,.04h0s-.02,0-.02,0v.02h.02v-.02h0Zm6.7-.14l.02,.02-.02-.06v.04Zm-4.08-21.34l-.2-.37-.05-.24-.07-.04h-.02s-.02-.02-.02-.02h-.04s.2,.48,.2,.48l.11,.2,.17,.21h0s0,0,0,0l-.07-.23Zm9.84,19.18l-.09-.1h-.03s0,0,0,0h0s-.02,0-.02,0h-.02s0-.06,0-.06h-.06s-.03,.24-.03,.24h0s0,0,0,0h.1s.06,0,.06,0l.02,.03-.04,.07,.02,.08h0l.16-.04,.1,.03,.06,.1-.02,.14-.06,.02-.07-.12h0l-.13-.06-.24-.02h-.05s0,0,0,0h0s.07,.05,.07,.05l.06,.05,.16,.06-.05,.1-.02,.02-.02,.04-.05,.05-.2,.13-.09-.04h0l-.1,.06-.16,.19v.07s.02,0,.02,0h0s.65-.3,.65-.3l.3-.2,.21-.2-.02-.08-.38-.32Zm-10.39-20.65l-.14-.22-.05-.06h-.04s-.04,.08-.04,.08l.12,.17,.11,.51,.11,.2h0s0,0,0,0l.03-.24-.02-.22-.08-.22Zm13.33,13.26l.09,.05,.1,.04v-.1s.02-.06,.02-.06l-.02-.04-.04-.08h-.08l-.1,.05h-.04l.02-.02h-.06s-.05,.05-.05,.05l.15,.11Zm1.36,.55l.05-.05,.06-.02-.06-.07h-.06v.02l.02,.02h0s-.03,.07-.03,.07l.02,.03Zm.23,.27h.1s0,0,0,0l-.02-.08,.07-.05,.04-.03-.02-.02v-.04l-.07-.02h-.06s.03,.04,.03,.04l-.02,.05-.06,.13Zm-1.01-.81l.07-.08-.02-.04-.17-.02-.05,.02v.06s.03,.06,.03,.06l.05,.04,.1-.05Zm-.25,.18l.05,.13,.09,.11,.09,.02,.05-.06,.02-.07,.05-.13-.05-.11-.05-.02h-.12l-.12,.04-.04,.09Zm-.04-.43v-.03s-.15,0-.15,0l-.19-.03-.05,.03-.02,.06h.07s.34-.03,.34-.03Zm-18.14-20.52h-.05s-.02,.03-.02,.03l-.03,.09h0s0,0,0,0l.16-.1h0s0,0,0,0l.02-.02h-.02s0,0,0,0l-.03,.02-.06-.02Zm19.63,21.23l.04,.05,.04,.15h.02s.02-.08,.02-.08v-.09l-.07-.13-.07-.05-.05,.07v.09h.02s.04,0,.04,0Zm-4.19,6.75l-.04-.03-.08-.05h-.08s-.06-.01-.06-.01l-.05-.02h-.03s-.02,.12-.02,.12v.14s.06,.08,.06,.08l.03,.02,.02,.02h.05l.04-.03,.04-.02h.06s.06,.05,.06,.05l.05,.07,.02-.05-.04-.19-.05-.1Zm-17.49-38.22v.02s.02,0,.02,0l.03-.02v-.02l-.05-.06-.09,.02,.05,.02,.03,.04Zm25.57,31.42l-.04,.02v.04l-.05,.02-.02,.05h0l.07-.03,.02-.09Zm-1.23,1.03l-.02-.05-.04-.02v.1s.03-.02,.03-.02h.03Zm.18,2.18l.02,.05,.04-.02-.05-.04Zm.12-2.16l-.05-.02-.05,.02v.02s.05,.04,.05,.04l.02,.05h.03s.02,.04,.02,.04l.02-.05-.02-.07-.03-.03Zm-.6-.21l-.07,.02,.07,.07v-.09Zm.34,2.82l-.07,.05-.05,.06v.08s.03,0,.03,0l.13-.12,.06-.06,.09-.14-.02-.05-.17,.18Zm.84-.94l-.05,.06-.24,.42,.09-.05,.16-.24,.06-.13v-.02s-.02-.03-.02-.03Zm-.53-1.73h.04v-.11l-.06-.12-.02-.02-.02,.04v.11s.06,.1,.06,.1Zm3.03-3.09l-.14,.12-.19,.41-.11,.1-.29,.13-.05,.07,.05,.11,.08,.04,.09,.06,.05,.14-.05,.23-.28,.44-.1,.48-.45-.02-.02,.2h0s0,0,0,0l.12-.07h.04l.07,.02,.07,.09-.02,.12-.07-.02h-.04s0,.05,0,.05l.05,.06-.06,.14-.09,.07-.2,.07,.05,.12-.05,.13-.19,.29-.09,.24-.06,.06-.15,.05-.04,.07-.05,.38-.09,.06-.14,.05-.08,.08,.07,.1h0l.19-.03,.17-.26,.27-.51,.25-.31,.05-.12,.04-.25,.05-.13h.11s.09-.06,.09-.06l.63-.89-.02-.06-.07-.15,.08-.27,.23-.5,.21-.4,.03-.12v-.08l.02-.13,.05-.13,.05-.08,.04-.03,.03-.04,.02-.04,.02-.06-.22-.05h0Zm-2.62,2.43l-.06-.02-.08-.02-.03,.05,.04,.04,.12,.02,.02-.08Zm-.42,.99l.04,.05,.03-.03-.03-.06-.04,.03Zm-.63,1.03l.05-.06h-.05s0,.06,0,.06Zm.4-1.2h-.1s.15,.05,.15,.05l-.05-.05Zm-4.88,5.42l-.09,.16,.02,.02,.09-.07,.05-.09-.02-.04-.05,.02Zm-1.26-.38l-.31-.17h-.1s-.04-.04-.04-.04l.03,.03h0l-.04-.03,.8,.86,.06,.3h0s.19-.19,.19-.19l-.21-.38-.38-.38Zm-.5,.58h-.07s0,.05,0,.05h.03s0,.02,0,.02l-.05,.06,.02,.06,.12,.08,.02,.05h.05s0-.12,0-.12l-.05-.11-.07-.09Zm.27,.23l.03,.03,.07,.03,.02-.09-.07-.03-.05,.06Zm.81-.65h-.07s-.03,.05-.03,.05l.04,.07,.04,.03,.1,.04,.09,.09v-.05s-.06-.14-.06-.14l-.1-.08Zm4.72-3.33l.05,.04v-.02l-.05-.02Zm.2,1.13h-.06s-.05,.07-.05,.07h-.02s0-.08,0-.08v-.11h0s0,0,0,0l-.37,.38-.08,.13h0l.35-.09,.14-.07,.07-.09,.04-.07v-.03s0-.05,0-.05h0Zm-1.1-1.94h0s-.04-.03-.04-.03l.03,.03Zm-1.13,3.35h0s-.2,.06-.2,.06l-.48,.25-.18,.13h.02s0,0,0,0l.3-.05,.08,.03,.03,.02,.08,.14h0s0,0,0,0l.02-.14,.04-.11,.08-.09,.2-.13,.02-.04v-.07h0Zm1.03-.61h0s-.29,.11-.29,.11l-.65,.63,.02-.02-.02,.02,.65-.41,.12-.15,.12-.05,.03-.02,.03-.05v-.06s-.02,0-.02,0Zm1.16-2.94l-.05-.09-.03,.05,.09,.09v-.05Zm4.46-5.75h0s-.08,.05-.08,.05l-.02,.05-.04,.62-.05,.18-.11,.13h.03s0,0,0,0h.02s0,0,0,0h0s.11-.14,.11-.14l.09-.24,.05-.25v-.28s0-.08,0-.08l-.02-.06h0Zm-2,4.49l-.05-.14-.02,.1-.05,.07v.05s-.03,.02-.03,.02l-.02,.04,.02,.03,.1-.15,.05-.02Z"/>
  <g>
    <path d="M66.96,44v.98h-2.09v1.12h1.61v.94h-1.61v2.06h-1.23v-5.09h3.32Z"/>
    <path d="M68.82,48.15h1.64v.94h-2.87v-5.09h1.23v4.15Z"/>
  </g>
</svg>