<?xml version="1.0" encoding="utf-8"?>
<!-- Generator: Adobe Illustrator 26.5.0, SVG Export Plug-In . SVG Version: 6.00 Build 0)  -->
<svg version="1.1" xmlns="http://www.w3.org/2000/svg" xmlns:xlink="http://www.w3.org/1999/xlink" x="0px" y="0px"
	 viewBox="0 0 90 90" style="enable-background:new 0 0 90 90;" xml:space="preserve">
<style type="text/css">
	.st0{fill:#CECECE;stroke:#F9F9F9;stroke-width:0.025;stroke-linecap:round;stroke-linejoin:round;}
	.st1{display:none;fill:none;stroke:#47CCCC;stroke-width:0.5;stroke-linecap:round;stroke-linejoin:round;}
	.st2{fill:#CECECE;}
</style>
<g id="ALABAMA">
</g>
<g id="ALASKA">
</g>
<g id="ARIZONA">
</g>
<g id="ARKANSAS_1_">
</g>
<g id="CALIFORNIA">
</g>
<g id="COLORADO">
</g>
<g id="CONNECTICUT">
</g>
<g id="DELAWARE">
</g>
<g id="DC">
</g>
<g id="FLORIDA">
</g>
<g id="GEORGIA">
	<path id="GA_1_" class="st0" d="M73.95,72.06l-0.05-0.24l0.14-0.47l0.04-0.58l-0.04-0.47l0.04-0.53l-0.04-0.39l-0.06-0.32
		l-0.08,0.01l-0.04,0.52l-0.58,0.65l-0.05,0.49l0.04,0.08l0.18,0.28l0.06,0.14l0.02,0.13l0.06,0.4l0.33,1.17l0.12,0.04l0.07-0.16
		v-0.31L73.95,72.06z M78.74,51.38l-0.24-0.02l-0.19,0.02l-0.15-0.04l-0.01-0.02h-0.01l-0.27,0.02l-0.26-0.05l-0.22-0.13l-0.13-0.19
		l-0.11-0.11l-0.57-0.15l-0.3-0.02l-0.75,0.2l-0.13-0.05l-0.46-0.41l-0.08-0.05l-0.15-0.06l-0.07-0.06l-0.06-0.11l-0.01-0.08
		l0.02-0.07l-0.01-0.05l-0.32-0.46l-0.06-0.1v-0.16l0.08-0.29l0.01-0.11l-0.09-0.4l-0.01-0.18l0.02-0.15l0.07-0.22l-0.01-0.2
		l-0.08-0.32l-0.15-0.26l-0.19-0.15l-0.21-0.04l-0.62-1.21l-0.07-0.48l-0.11-0.26l-0.2-0.08l-0.19-0.04l-0.09-0.14l-0.06-0.17
		l-0.07-0.13l-0.08-0.05l-0.31-0.11l-0.06,0.01l-0.07-0.03l-0.23-0.2l-0.12-0.08l-0.13-0.07l-0.13-0.04l-0.4-0.01l-0.29-0.08
		l-0.27-0.13l-0.19-0.14l-0.18-0.23l-0.02-0.24l0.04-0.25l-0.01-0.31l-0.05-0.11l-0.08-0.11l-0.09-0.09l-0.07-0.02l-0.05-0.07
		l0.02-0.18v-0.19l0.06-0.13l-0.01-0.21l-0.13-0.24l-0.16-0.19l-0.12-0.23l-0.05-0.22l-0.08-0.23l-0.2-0.41l-0.87-1.06l-0.18-0.11
		l-0.05-0.31l0.01-0.55l-0.08-0.26l-0.18-0.29l-0.21-0.24l-0.19-0.08h-0.3l-0.21-0.09l-0.43-0.29l-0.59-0.22l-1.22-0.28l-0.53-0.32
		l-0.11-0.2l-0.19-0.61l-0.11-0.12l-0.29,0.04l-0.25-0.05l-0.23-0.17l-0.26-0.32l0.16-0.15l0.01-0.17l-0.12-0.16l-0.26-0.14
		l0.16-0.13l-0.02-0.11l-0.09-0.04L62,33.41l-0.14,0.01L61.8,33.5l-0.04,0.08l-0.13-0.08l-0.66-0.58l-0.13-0.21l0.16-0.13
		l-0.21-0.36l0.01-0.12l0.2-0.07l-0.15-0.21l-0.08-0.07l0.05-0.35l-0.23-0.25L60,30.88l-0.3-0.21l-0.67-0.61l-0.31-0.18l-0.28-0.09
		l-0.64-0.08l-0.3-0.08l-0.34-0.15l-0.3-0.25l-0.27-0.42l-0.16-0.33l-0.26-0.28l-0.27-0.67l-0.42-0.36l-0.73-0.48l-0.62-0.36
		l-0.55-0.25l-0.45-0.13l-0.45-0.2l-0.37-0.31l-0.27-0.29l-0.25-0.18L51.54,25l-0.22-0.04l-0.19-0.15l-0.17-0.39l-0.2-0.35
		l-0.2-0.41l-0.14-0.15l-0.33-0.12l-0.14-0.2l-0.21-0.41l-0.13-0.14l-0.18-0.15l-0.19-0.13l-0.32-0.07l-0.26-0.26l-0.11-0.06
		l-0.11-0.2l-0.45-1.3l-0.16-0.34l-0.92-1.02l-0.14-0.12l-0.26-0.48l-0.13-0.41l-0.2-0.39l-0.6-0.26l-0.89,0.13l-0.6,0.12
		l-0.46-0.17l-0.23-0.21l-0.27-0.33l-0.3-0.14l-0.34-0.32L42,16.34l-0.13-0.18l-0.05-0.21l-0.1-0.01l-0.3,0.14l-0.46-0.15
		l-1.29-0.59l-0.49-0.51l0.02-0.68l0.18-0.3l0.04-0.14v-0.13l-0.01-0.13l0.01-0.12l0.04-0.09L39.53,13l0.15-0.19l0.18-0.15L40,12.49
		l0.09-0.25l0.12-0.52l0.08-0.25l0.12-0.19l0.46-0.46l0.15-0.12l0.33-0.15l0.13-0.16l0.08-0.19l0.05-0.2l-0.01-0.19L41.58,9.8
		l-0.97,0.17l-0.96,0.16l-0.96,0.15l-0.97,0.16l-0.97,0.16l-0.96,0.15l-0.98,0.17l-0.96,0.15l-0.97,0.15l-1.94,0.32l-0.98,0.15
		l-0.96,0.15L28.01,12l-0.97,0.15l-0.96,0.15l-1.14,0.11l-1.22,0.11L22.8,12.6l-0.09-0.02l-0.45,0.06l-1.62,0.23l-1.61,0.22
		l-1.62,0.22l-1.62,0.22l-1.61,0.21l-1.62,0.21l-1.62,0.22L9.33,14.4l0.02,0.08l0.07,0.26l0.14,0.42l0.16,0.56l0.22,0.69l0.25,0.82
		l0.3,0.94l0.32,1.03l0.35,1.14l0.38,1.2l0.39,1.28l0.41,1.33l0.43,1.37l0.44,1.42l0.45,1.43l0.45,1.44l0.46,1.44L15,32.7l0.43,1.41
		l0.44,1.37l0.41,1.34l0.4,1.27l0.38,1.21l0.36,1.13l0.33,1.05l0.29,0.93l0.26,0.82l0.22,0.71l0.18,0.56l0.13,0.41l0.08,0.26
		l0.02,0.09l0.19,0.6l-0.01,0.14l0.58,1.08l0.02,0.46l0.04,0.13l0.06,0.12l0.08,0.11l0.09,0.08l0.3,0.26l0.08,0.09l-0.08,0.17
		l0.07,0.14l0.14,0.14l0.13,0.18l0.15,0.53l0.18,0.3l0.04,0.2L21,50.25l0.09,0.14l0.18,0.08l0.12,0.11l-0.05,0.22l1.07,1.06
		l0.19,0.23l0.08,0.2l0.13,0.49l0.14,0.22l0.16,0.21l0.14,0.21l0.05,0.21v-0.06l0.01,0.12l-0.01-0.06l0.01,0.2l-0.07,0.19
		l-0.04,0.16l0.09,0.17l-0.25,0.35L23.15,55l0.3,0.22l0.68,0.28l0.14,0.08l0.11,0.17l0.06,0.01l0.06,0.02l0.05,0.11l-0.02,0.13
		l-0.08,0.11l-0.11,0.06l-0.12,0.02l0.11,0.18l-0.01,0.16l-0.09,0.13l-0.11,0.09l-0.25-0.07l-0.2,0.08l-0.02,0.13l0.23,0.12
		l-0.14,0.14l-0.21,0.13l-0.21,0.09l-0.18,0.06l-0.08,0.07l-0.07,0.15l-0.14,0.54v0.14l0.06,0.39l-0.01,0.21l-0.09,0.28v0.36
		l0.15,0.34l0.01,0.4l-0.01,0.06l-0.08,0.24l-0.05,0.08l-0.29,0.67l-0.18,0.63l-0.04,0.54l-0.04,0.21l-0.01,0.08v0.09l-0.04,0.35
		l0.13,0.31l0.6,1.69l0.15,0.25l0.54,0.58l0.15,0.27l0.06,0.2l0.07,0.42l0.04,0.12l0.16,0.29l0.06,0.21l-0.04,0.39l-0.11,0.32
		l-0.04,0.33l0.2,0.43l-0.23,0.41l-0.01,0.59l0.08,1.21L24,71.47l-0.14,0.27l-0.01,0.16l0.04,0.12l0.16,0.29l0.05,0.14l0.01,0.58
		l0.05,0.25l0.18,0.18l0.29,0.11L25.05,74l0.41,0.62l0.27,0.7l0.15,0.15l0.05,0.16l-0.02,0.13l-0.07,0.12l-0.04,0.07l-0.02,0.05
		l0.05,0.2l0.06,0.06l0.26,0.14l0.09,0.07l0.11,0.17l0.16,0.46l0.13,0.09l0.23,0.35l0.15,0.35l0.11,0.66l0.35,1l0.68,0.56l0.12-0.04
		l0.44-0.04h0.08l0.26-0.02L29.47,80l0.55-0.04l0.69-0.05l0.82-0.06l0.93-0.07l1.05-0.07l1.14-0.08l1.22-0.09l1.29-0.09l1.36-0.09
		l1.41-0.11l1.46-0.12l1.49-0.12l1.51-0.12l1.53-0.12l1.53-0.13l1.53-0.12l1.5-0.13l1.48-0.12l1.44-0.13l1.4-0.12l1.33-0.12
		l1.27-0.11l1.19-0.11l1.09-0.09l1-0.09l0.88-0.07l0.77-0.07l0.64-0.06l0.49-0.05L64,77.22l0.04,0.02v0.05l-0.01,0.11l-0.05,0.12
		l-0.01,0.06l0.01,0.06L64,77.69l0.09,0.12l0.39,0.36l0.07,0.09l0.09,0.13l0.02,0.07l0.02,0.07v0.07v0.09l-0.02,0.23l-0.01,0.19
		l0.01,0.09l0.01,0.08l0.06,0.13l0.29,0.55l0.09,0.12l0.06,0.05l0.08,0.04l0.11,0.02l0.13-0.01l0.61-0.18h0.09l0.26,0.04h0.07
		l0.06-0.01l0.35-0.16l0.07-0.05l0.04-0.07l0.01-0.13l-0.01-0.09l-0.11-0.45v-0.09v-0.21l0.11-1.02l0.01-1.07l-0.02-0.18l-0.04-0.15
		l-0.04-0.07l-0.08-0.11l-0.32-0.33l-0.08-0.13l-0.07-0.14l-0.05-0.12l-0.04-0.18l-0.01-0.09l0.04-0.36v-0.11v-0.09l-0.12-0.38
		l-0.01-0.15l0.01-0.08l0.01-0.07l0.04-0.06l0.13-0.19l0.02-0.08l0.01-0.09v-0.16l0.02-0.06l0.07-0.04l0.14,0.02h0.12l0.12-0.05
		l0.05-0.06l0.04-0.08v-0.07v-0.11V72.9v-0.11l0.02-0.07l0.06-0.06l0.11-0.06l0.11-0.02l0.19-0.02l0.08-0.01l0.11-0.01h0.12
		l0.22,0.09l0.12,0.07l0.2,0.07l1.3,0.3l0.12-0.04l0.13-0.01l0.19,0.01l0.15,0.08l0.09,0.06l0.15,0.07l0.21,0.05l0.68,0.09
		l0.14-0.01l0.14-0.05l0.09-0.01l0.21,0.08l0.14,0.04l0.57,0.04l0.13-0.02l0.41-0.2l0.25,0.02l0.11,0.01l-0.05-0.19l0.02-0.41
		l-0.04-0.35l-0.08-0.18l-0.2-0.18l-0.08-0.13l-0.06-0.21l-0.04-0.2l-0.08-0.14l-0.2-0.05l-0.02-0.11l0.15-0.03l0.14-0.01l0.14,0.02
		l0.14,0.04l-0.05-0.19l-0.07-0.11L73.1,70.8l-0.07-0.14v-0.07l0.02-0.23v-0.08l0.06-0.22l0.33-0.54l0.12-0.26l-0.2-0.05l-0.46,0.08
		l-0.3-0.08l-0.01-0.12l0.61-0.22l0.19-0.19l0.02-0.33l-0.17-0.25l-0.63-0.47l-0.23-0.26l0.36,0.06l0.38,0.23l0.34,0.3l0.21,0.28
		l0.09-0.02l0.06-1.13l-0.05-0.41l-0.25,0.31l-0.05,0.19l0.06,0.31l-0.15-0.09l-0.37-0.28l-0.41-0.11l-0.08-0.19l0.09-0.14
		l0.52,0.19l0.04-0.24l-0.08-0.3l-0.21-0.6l-0.01-0.25l0.11-0.19l0.28-0.09l0.13,0.18l0.08,0.74l0.04,0.18l0.14,0.06l0.3-0.02
		l0.22-0.22l0.25-0.48l0.35-0.86l0.28,0.11l0.14-0.26l0.02-0.37l-0.07-0.25l-0.23-0.16l-0.65-0.33l-0.23-0.05l-0.5,0.04l-0.62-0.05
		l-0.57-0.14l-0.39-0.24l0.15-0.13h0.12l0.29,0.13l0.32,0.08l1.44,0.07l0.52-0.08l0.12-0.15l-0.11-0.31l-0.2-0.21l-0.48-0.34
		l-0.12-0.23l-0.05-0.2l0.02-0.04l0.09-0.12l0.11-0.07l0.08,0.07l0.07,0.13l0.04,0.15l0.06,0.15l0.11,0.14l0.13,0.11l0.11,0.04
		l0.16-0.07l0.01-0.11l-0.02-0.14v-0.15l0.7-1.54l0.14-0.59l-0.46,0.11l-0.38,0.27l-0.67,0.65l0.07-0.26l0.11-0.2l0.04-0.16
		l-0.14-0.15l-0.02,0.04l-0.4,0.04l-0.08-0.01l-0.11-0.07l-0.09-0.08l-0.09-0.09l0.21-0.11l0.21-0.15l0.23-0.07l0.29,0.11l0.25,0.02
		l0.22-0.2l0.32-0.46l-0.2-0.17l-0.38-0.26l-0.2-0.2l0.31-0.04l0.26,0.07l0.19,0.15l0.15,0.19l0.25,0.55l0.09,0.06l0.07-0.07
		l0.05-0.15l0.14-1.06v-0.4l-0.1-0.33l-0.21-0.18l-0.21,0.09l-0.07,0.2l0.18,0.16l0.02,0.11l-0.81,0.25l-0.27,0.04l0.44-0.66
		l-0.01-0.29l-0.45-0.25l-0.42-0.04l-0.19-0.08l-0.09-0.2l0.07-0.13h0.19l0.21,0.08l0.15,0.11l0.35,0.15h0.46l0.69-0.13l0.17-0.12
		l0.15-0.21l0.32-0.6l0.08-0.42l0.08-0.22h-0.07l-0.2,0.05l-0.33-0.22l-0.08-0.04l-0.75,0.01l0.14-0.22l0.49-0.22l-0.04-0.14
		l-0.3-0.16l-0.11-0.13l0.11-0.17l0.18-0.02l0.13,0.12L76,53.87l0.09,0.12l0.25,0.06l0.61,0.01l0.26,0.12l0.2-0.05l0.26-0.27
		l0.36-0.54l-0.35-0.01l-0.22-0.23l-0.07-0.28l0.12-0.15l0.07-0.07l0.04-0.14l0.07-0.13l0.18-0.05l0.01,0.06l0.07,0.13l0.12,0.13
		l0.14,0.06l0.56-0.61l0.19-0.36L78.74,51.38z"/>
</g>
<g id="HAWAII">
</g>
<g id="IDAHO">
</g>
<g id="IOWA">
</g>
<g id="ILLINOIS">
</g>
<g id="INDIANA">
</g>
<g id="KANSAS">
</g>
<g id="KETUCKY">
</g>
<g id="LOUISANA">
</g>
<g id="MAINE">
</g>
<g id="MARYLAND">
</g>
<g id="MASSACHUSETTS">
</g>
<g id="MICHIGAN">
</g>
<g id="MINNESOTA">
</g>
<g id="MISSOURI">
</g>
<g id="MISSISSIPPI">
</g>
<g id="MONTANA">
</g>
<g id="NORTH_CAROLINA">
</g>
<g id="NORTH_DAKOTA">
</g>
<g id="NEBRASKA">
</g>
<g id="NEW_HAMPSHIRE">
</g>
<g id="NEW_JERSEY">
</g>
<g id="NEW_YORK">
</g>
<g id="NEW_MEXICO">
</g>
<g id="NEVADA">
</g>
<g id="OHIO">
</g>
<g id="OKLAHOMA">
</g>
<g id="OREGON">
</g>
<g id="PENNSYLVANIA">
</g>
<g id="RHODE_ISLAND">
</g>
<g id="SOUTH_CAROLINA">
</g>
<g id="SOUTH_DAKOTA">
</g>
<g id="TENNESSEE">
</g>
<g id="TEXAS">
</g>
<g id="UTAH">
</g>
<g id="VIRGINIA">
</g>
<g id="VERMONT">
</g>
<g id="WASHINGTON">
</g>
<g id="WISCONSIN">
</g>
<g id="WEST_VIRGINIA">
</g>
<g id="WYOMING">
</g>
</svg>
