<?xml version="1.0" encoding="UTF-8"?>
<svg id="GEORGIA" xmlns="http://www.w3.org/2000/svg" viewBox="0 0 90 90">
  <defs>
    <style>
      .cls-1 {
        fill: #e2e2e2;
        stroke: #f9f9f9;
        stroke-linecap: round;
        stroke-linejoin: round;
        stroke-width: .03px;
      }
    </style>
  </defs>
  <path id="GA" class="cls-1" d="M73.95,72.06l-.05-.24,.14-.47,.04-.58-.04-.47,.04-.53-.04-.39-.06-.32h-.08s-.04,.53-.04,.53l-.58,.65-.05,.49,.04,.08,.18,.28,.06,.14,.02,.13,.06,.4,.33,1.17,.12,.04,.07-.16v-.31l-.16-.46Zm4.79-20.67l-.24-.02-.19,.02-.15-.04v-.02h-.02l-.27,.02-.26-.05-.22-.13-.13-.19-.11-.11-.57-.15-.3-.02-.75,.2-.13-.05-.46-.41-.08-.05-.15-.06-.07-.06-.06-.11v-.08s.01-.07,.01-.07v-.05s-.33-.46-.33-.46l-.06-.1v-.16l.08-.29v-.11s-.08-.4-.08-.4v-.18s.01-.15,.01-.15l.07-.22v-.2s-.09-.32-.09-.32l-.15-.26-.19-.15-.21-.04-.62-1.21-.07-.48-.11-.26-.2-.08-.19-.04-.09-.14-.06-.17-.07-.13-.08-.05-.31-.11h-.06s-.07-.02-.07-.02l-.23-.2-.12-.08-.13-.07-.13-.04h-.4s-.29-.09-.29-.09l-.27-.13-.19-.14-.18-.23-.02-.24,.04-.25v-.31s-.06-.11-.06-.11l-.08-.11-.09-.09-.07-.02-.05-.07,.02-.18v-.19l.06-.13v-.21s-.14-.24-.14-.24l-.16-.19-.12-.23-.05-.22-.08-.23-.2-.41-.87-1.06-.18-.11-.05-.31v-.55s-.07-.26-.07-.26l-.18-.29-.21-.24-.19-.08h-.3l-.21-.09-.43-.29-.59-.22-1.22-.28-.53-.32-.11-.2-.19-.61-.11-.12-.29,.04-.25-.05-.23-.17-.26-.32,.16-.15v-.17s-.11-.16-.11-.16l-.26-.14,.16-.13-.02-.11-.09-.04-.16-.04h-.14s-.06,.09-.06,.09l-.04,.08-.13-.08-.66-.58-.13-.21,.16-.13-.21-.36v-.12s.21-.07,.21-.07l-.15-.21-.08-.07,.05-.35-.23-.25-.59-.27-.3-.21-.67-.61-.31-.18-.28-.09-.64-.08-.3-.08-.34-.15-.3-.25-.27-.42-.16-.33-.26-.28-.27-.67-.42-.36-.73-.48-.62-.36-.55-.25-.45-.13-.45-.2-.37-.31-.27-.29-.25-.18-.26,.04-.22-.04-.19-.15-.17-.39-.2-.35-.2-.41-.14-.15-.33-.12-.14-.2-.21-.41-.13-.14-.18-.15-.19-.13-.32-.07-.26-.26-.11-.06-.11-.2-.45-1.3-.16-.34-.92-1.02-.14-.12-.26-.48-.13-.41-.2-.39-.6-.26-.89,.13-.6,.12-.46-.17-.23-.21-.27-.33-.3-.14-.34-.32-.52-.2-.13-.18-.05-.21h-.1s-.3,.13-.3,.13l-.46-.15-1.29-.59-.49-.51,.02-.68,.18-.3,.04-.14v-.26s0-.12,0-.12l.04-.09,.07-.23,.15-.19,.18-.15,.14-.18,.09-.25,.12-.52,.08-.25,.12-.19,.46-.46,.15-.12,.33-.15,.13-.16,.08-.19,.05-.2v-.19s-.02-.02-.02-.02l-.97,.17-.96,.16-.96,.15-.97,.16-.97,.16-.96,.15-.97,.17-.96,.15-.97,.15-1.94,.32-.97,.15-.96,.15-.97,.15-.97,.15-.96,.15-1.14,.11-1.22,.11-.92,.08-.09-.02-.45,.06-1.62,.23-1.61,.22-1.62,.22-1.62,.22-1.61,.21-1.62,.21-1.62,.22-1.61,.21,.02,.08,.07,.26,.14,.42,.16,.56,.22,.69,.25,.82,.3,.94,.32,1.03,.35,1.14,.37,1.2,.39,1.28,.41,1.33,.43,1.37,.44,1.42,.45,1.43,.45,1.44,.46,1.44,.45,1.43,.43,1.41,.44,1.37,.41,1.34,.4,1.27,.38,1.21,.36,1.13,.33,1.05,.29,.93,.26,.82,.22,.71,.18,.56,.13,.41,.08,.26,.02,.09,.19,.6v.14s.56,1.08,.56,1.08l.02,.46,.04,.13,.06,.12,.08,.11,.09,.08,.3,.26,.08,.09-.08,.17,.07,.14,.14,.14,.13,.18,.15,.53,.18,.3,.04,.2v.28s.11,.14,.11,.14l.18,.08,.12,.11-.05,.22,1.07,1.06,.19,.23,.08,.2,.13,.49,.14,.22,.16,.21,.14,.21,.05,.21v.06s0-.06,0-.06v.2s-.06,.19-.06,.19l-.04,.16,.09,.17-.25,.35,.09,.28,.3,.22,.68,.28,.14,.08,.11,.17h.06s.06,.04,.06,.04l.05,.11-.02,.13-.08,.11-.11,.06-.12,.02,.11,.18v.16s-.11,.13-.11,.13l-.11,.09-.25-.07-.2,.08-.02,.13,.23,.12-.14,.14-.21,.13-.21,.09-.18,.06-.08,.07-.07,.15-.14,.54v.14l.06,.39v.21s-.11,.28-.11,.28v.36l.15,.34v.4s0,.06,0,.06l-.08,.24-.05,.08-.29,.67-.18,.63-.04,.54-.04,.21v.08s-.01,.09-.01,.09l-.04,.35,.13,.31,.6,1.69,.15,.25,.54,.58,.15,.27,.06,.2,.07,.42,.04,.12,.16,.29,.06,.21-.04,.39-.11,.32-.04,.33,.2,.43-.23,.41v.59s.07,1.21,.07,1.21l-.05,.15-.14,.27v.16s.02,.12,.02,.12l.16,.29,.05,.14v.58s.06,.25,.06,.25l.18,.18,.29,.11,.44,.45,.41,.62,.27,.7,.15,.15,.05,.16-.02,.13-.07,.12-.04,.07-.02,.05,.05,.2,.06,.06,.26,.14,.09,.07,.11,.17,.16,.46,.13,.09,.23,.35,.15,.35,.11,.66,.35,1,.68,.56,.12-.04,.44-.04h.08l.26-.02,.41-.02,.55-.04,.69-.05,.82-.06,.93-.07,1.05-.07,1.14-.08,1.22-.09,1.29-.09,1.36-.09,1.41-.11,1.46-.12,1.49-.12,1.51-.12,1.53-.12,1.53-.13,1.53-.12,1.5-.13,1.48-.12,1.44-.13,1.4-.12,1.33-.12,1.27-.11,1.19-.11,1.09-.09,1-.09,.88-.07,.77-.07,.64-.06,.49-.05,.56-.06,.04,.02v.15s-.06,.12-.06,.12v.06s0,.06,0,.06l.02,.06,.09,.12,.39,.36,.07,.09,.09,.13,.02,.07,.02,.07v.16l-.02,.23v.19s0,.09,0,.09v.08s.07,.13,.07,.13l.29,.55,.09,.12,.06,.05,.08,.04,.11,.02h.13s.61-.19,.61-.19h.09l.26,.04h.13s.35-.18,.35-.18l.07-.05,.04-.07v-.13s0-.09,0-.09l-.11-.45v-.3l.11-1.02v-1.07s-.01-.18-.01-.18l-.04-.15-.04-.07-.08-.11-.32-.33-.08-.13-.07-.14-.05-.12-.04-.18v-.09s.02-.36,.02-.36v-.2l-.12-.38v-.15s0-.08,0-.08v-.07s.05-.06,.05-.06l.13-.19,.02-.08v-.09s.01-.16,.01-.16l.02-.06,.07-.04,.14,.02h.12l.12-.05,.05-.06,.04-.08v-.32l.02-.07,.06-.06,.11-.06,.11-.02,.19-.02h.08s.11-.02,.11-.02h.12l.22,.09,.12,.07,.2,.07,1.3,.3,.12-.04h.13s.19,0,.19,0l.15,.08,.09,.06,.15,.07,.21,.05,.68,.09h.14s.14-.06,.14-.06h.09s.21,.07,.21,.07l.14,.04,.57,.04,.13-.02,.41-.2,.25,.02h.11s-.05-.18-.05-.18l.02-.41-.04-.35-.08-.18-.2-.18-.08-.13-.06-.21-.04-.2-.08-.14-.2-.05-.02-.11,.15-.03h.14s.14,.01,.14,.01l.14,.04-.05-.19-.07-.11-.09-.07-.07-.14v-.07l.02-.23v-.08l.06-.22,.33-.54,.12-.26-.2-.05-.46,.08-.3-.08v-.12s.6-.22,.6-.22l.19-.19,.02-.33-.17-.25-.63-.47-.23-.26,.36,.06,.37,.23,.34,.3,.21,.28,.09-.02,.06-1.13-.05-.41-.25,.31-.05,.19,.06,.31-.15-.09-.37-.28-.41-.11-.08-.19,.09-.14,.52,.19,.04-.24-.08-.3-.21-.6v-.25s.09-.19,.09-.19l.28-.09,.13,.18,.08,.74,.04,.18,.14,.06,.3-.02,.22-.22,.25-.48,.35-.86,.28,.11,.14-.26,.02-.37-.07-.25-.23-.16-.65-.33-.23-.05-.5,.04-.62-.05-.57-.14-.39-.24,.15-.13h.12l.29,.13,.32,.08,1.44,.07,.52-.08,.12-.15-.11-.31-.2-.21-.48-.34-.12-.23-.05-.2,.02-.04,.09-.12,.11-.07,.08,.07,.07,.13,.04,.15,.06,.15,.11,.14,.13,.11,.11,.04,.16-.07v-.11s-.01-.14-.01-.14v-.15l.7-1.54,.14-.59-.46,.11-.37,.27-.67,.65,.07-.26,.11-.2,.04-.16-.14-.15-.02,.04-.4,.04h-.08s-.11-.08-.11-.08l-.09-.08-.09-.09,.21-.11,.21-.15,.23-.07,.29,.11,.25,.02,.22-.2,.32-.46-.2-.17-.37-.26-.2-.2,.31-.04,.26,.07,.19,.15,.15,.19,.25,.55,.09,.06,.07-.07,.05-.15,.14-1.06v-.4l-.1-.33-.21-.18-.21,.09-.07,.2,.18,.16,.02,.11-.81,.25-.27,.04,.44-.66v-.29s-.46-.25-.46-.25l-.42-.04-.19-.08-.09-.2,.07-.13h.19l.21,.08,.15,.11,.35,.15h.46l.69-.13,.17-.12,.15-.21,.32-.6,.08-.42,.08-.22h-.07l-.2,.05-.33-.22-.08-.04h-.75s.14-.21,.14-.21l.49-.22-.04-.14-.3-.16-.11-.13,.11-.17,.18-.02,.13,.12,.12,.15,.09,.12,.25,.06h.61s.26,.13,.26,.13l.2-.05,.26-.27,.36-.54h-.35s-.22-.25-.22-.25l-.07-.28,.12-.15,.07-.07,.04-.14,.07-.13,.18-.05v.06s.08,.13,.08,.13l.12,.13,.14,.06,.56-.61,.19-.36-.21-.27Z"/>
  <g>
    <path d="M41.38,44.77c.41,.31,.67,.73,.77,1.27h-1.3c-.09-.18-.22-.33-.4-.44-.18-.11-.39-.16-.64-.16-.39,0-.7,.13-.94,.39-.24,.26-.35,.62-.35,1.06,0,.48,.12,.86,.37,1.12,.25,.26,.6,.39,1.06,.39,.29,0,.55-.08,.77-.24,.22-.16,.38-.39,.47-.69h-1.56v-.89h2.58v1.22c-.1,.3-.25,.57-.46,.83-.21,.25-.48,.46-.81,.62-.33,.16-.7,.24-1.13,.24-.51,0-.96-.11-1.35-.33-.38-.22-.68-.52-.89-.92-.21-.39-.31-.84-.31-1.35s.1-.95,.31-1.35c.21-.39,.5-.7,.89-.92,.38-.22,.83-.33,1.34-.33,.64,0,1.16,.16,1.58,.47Z"/>
    <path d="M46.06,48.51h-1.91l-.32,.93h-1.3l1.86-5.05h1.42l1.86,5.05h-1.31l-.32-.93Zm-.32-.94l-.63-1.87-.64,1.87h1.27Z"/>
  </g>
</svg>