<?xml version="1.0" encoding="UTF-8"?>
<svg id="HAWAII" xmlns="http://www.w3.org/2000/svg" viewBox="0 0 90 90">
  <defs>
    <style>
      .cls-1 {
        fill: #e2e2e2;
        stroke: #f9f9f9;
        stroke-linecap: round;
        stroke-linejoin: round;
        stroke-width: .03px;
      }
    </style>
  </defs>
  <path id="HI" class="cls-1" d="M68.81,47.22l.2-.58-.23-.55-.89-.48-.22-.07-.7-.1-.14-.15-.09-.33-.1-.16-.55-.09-.35-.1-.15-.19-.09-.17-.22-.22-.25-.15-.2,.06-.04-.06-.05-.03h-.05s-.07-.02-.07-.02l-.21-.08-.26-.04h-.26s-.24,.02-.24,.02l-.25,.08-.5,.34-.17,.04-.45,.02-.23,.04-.25,.11-.2,.11-.19,.03-.22-.14-.45-1-.11-.18-.13-.15-.61-.58-.2-.12-.24-.18-.13-.03-.06,.16-.05,.08-.12,.02-.14-.02-.11-.04-.02,.11-.07,.19v.12s-.08-.03-.08-.03l-.19-.04-.08-.03-.07,.36-.57,1.13,1.04,1.41,.09,.08,.12,.03,.37,.15,.28,.18,.45,.18,.2,.02,.14-.03,.13-.05,.16-.03h.38s.18,.03,.18,.03l.08,.12,.05,.34,.05,.17,.06,.07,.14,.12,.09,.3,.04,1.31,.18,.52,.4,.3h.69s.29-.14,.29-.14l.17-.06,.08,.04,.08,.09h.18s.58-.11,.58-.11l.87-.56,.3-.06,.28,.05,.29,.08,.34,.04,.29-.08,1.06-.56,.46-.37,.43-.52Zm-8.65,2.07l-.24-.22-.3,.04-.29,.16-.47,.33-.58,.22-.23,.16-.16,.26,.48,.3,.21,.03,.37-.19,.16-.03,.67,.02,.36-.06,.19-.19-.2-.14,.03-.7Zm26.24,15.7l-.8-.41-.63-.61-.1-.21-.13-.79-.08-.26-.19-.14-.38-.04-.62,.1-.17-.07-.11-.34v-1.23l-.05-.34-.14-.27-1.32-1.4-.52-.39-2.03-.99-1.69-.66-.69-.12-.58-.35-.34-.12-.16,.04-.15,.1-.17,.05-.2-.13-.2-.18-.11-.07-.3-.08-.41-.36-.93-.35-.1-.09-.04-.14-.02-.15-.05-.12-.08-.08-.44-.08-.9-.38-.51-.08-.38,.41-.23,.6-.06,.46,.14,.59,.26,.51,.77,.93,.05,.06,.17,.31v.27s-.15,.2-.15,.2l-.49,.38-.11,.11-.59,.86-.15,.18-.31,.52-.65,.23-.22,.17-.08,.3-.14,.15-.32,.21-.33,.28-.18,.37,.08,.66,.32,.5,.41,.45,.37,.53,.14,.32,.1,.32,.06,.34,.02,.36,.02,.14,.19,.54h.06s.21-.01,.21-.01h.05s.01,.09,.01,.09l-.02,.17v.07s.38,1.27,.38,1.27l.21,.35,.06,.19v.13s-.41,2.48-.41,2.48l-.02,1.3,.08,.33,.19,.14,.19,.08,.07,.19,.04,.22,.08,.15,.13,.03,.51-.03,.59,.15,.63,.26,.55,.32,.35,.33,.27,.45v.09s.2-.07,.2-.07l.28-.29,.16-.07,.22-.13,.69-.93,.23-.88,.14-.24,.67-.61,.24-.08,.79-.43,.22-.16,.37-.37,.22-.15,.26-.06,.19-.07,.5-.47,.38-.27,.19-.08,.28-.07,1.23,.05,.27-.14,1.06-.23,.54-.29,.3-.11,.39-.04,.26-.07,1.39-1.19,.11-.17,1.28-.69,.2-.24,.17-.32,.12-.34,.04-.33-1.17-.69Zm-28.81-24.56l-.46-.11h-.31s0,0,0,0l-.12-.04-.09-.05-.08-.04h-.12s-.09,.06-.09,.06l-.17,.14-.12,.03h-1.07l-.32-.05-.21-.12-.38-.38-.29-.22-.03,.05,.02,.2-.13,.2-.23,.03-.54-.2-.24-.05-2.08-.1-.18-.13-.18-.17-.17-.12-.16,.05-.15,.07h-.18s-.16-.06-.16-.06l-.1-.07-.02,.3,.04,.22-.04,.23-.28,.31-.15,.13-.17,.19-.12,.24v.29s.18,.23,.18,.23l.3,.12,.34-.02,.3-.16,.26-.08,.97,.03,1.33-.12,.35,.05,1.51,.6,.62,.17,.61,.06,.6-.12,.59-.23,.59-.3,.48-.44,.26-.63h-.18ZM17.36,25.05l-.1-.06-.08-.14-.06-.18-.02-.17-.1-.22-.22-.21-.26-.15-.39-.12-.17-.11-.16-.06-.15,.07-.11,.07-.16,.04-1.21,.17-.12,.04-.21-.16-.25-.12-.24-.02-.21,.13-.28,.09-.86,.42-1.21,.75-.04,.05-.1,.05-.03,.11v.14l-.03,.13-.63,.74-.18,.12-.11,.16,.14,.34,.22,.32,.11,.08,.08,.26,.19,.11,.26,.08,.27,.19,.26,.07,.38-.02,.34,.03,.24,.41,.42,.37,.13,.15h.11l.36-.11,.72,.04,.72,.18,.34,.32,.85-.54,.86-.74-.07-.17v-.09s.11-.02,.11-.02l.17,.06,.02-.29-.02-.3-.05-.27-.07-.21,.56-.92,.17-.65v-.17s-.14-.07-.14-.07Zm-12.3,2.1l-.18,.07-.19,.18-.34,.44-.17,.17-.22,.14-.04,.18-.48,.12-.55,.75-.2,.43-.08,.45,.11,.35,.39,.16h.17s.13-.04,.13-.04l.09-.11,.08-.47,.11-.22,.53-.61,.15-.04h.29s.2-.05,.2-.05l.31-.21,.19-.07-.11-.42,.06-.4,.19-.34,.28-.24-.2-.21-.5-.04Zm37.23,10.29l-.07-.3v-.28s-.05-.21-.05-.21l-.25-.08-.24-.13,.05-.28,.16-.28,.09-.11h-.75l-.21,.06,.42,.31-.27,.1-.18,.02-.08-.07h-.07s-.36-.36-.36-.36l-.21-.17-.16-.2-.27-.59h.1s.05,.01,.05,.01l.06,.09v-.3s-.02-.24-.02-.24l-.1-.18-.39-.26-.28-.37-.24-.42-.04-.27-.16-.3-.18-.24-.23-.19-.29-.13-.04-.06-.04-.04-.03-.05v-.08s-.93,.46-.93,.46l-.24,.19-.15,.29-.11,.17-.12,.08-.12,.05-.47,.27-.07,.14v.14s-.06,.1-.06,.1l-.24,.04-.17-.02-.3-.07-.86-.04-.35,.03-.29,.1-.15,.27,.57,.47-.05,.28-.12,.32,.16,.31,.26,.25,.18,.14,.18,.21,.3,.53,.21,.27,.13,.09,.25,.09,.11,.08,.06,.1,.31,1.07,.09,.03,.07,.06,.07,.03,.15-.11,.19-.09,.74-.11h.34s.34,.09,.34,.09l.04-.47-.2-.23-.31-.15-.29-.23h.31s.36,.11,.36,.11l.19-.03-.22-.42,.24,.15,.08,.07,.12-.09h.13s.11,.06,.11,.06l.07,.14-.02,.2-.14,.07-.17,.04-.1,.12,.08,.33,.31,.08,.35-.1,.21-.22,.34,.17,.14,.1,.16,.15-.07,.16,.15,.13,.47,.24,.22,.2,.1,.02h.26s.36-.09,.36-.09l.41-.16,.36-.03,.21,.28,.24-.2,.83-.55-.23-.21-.73-.43Zm13.39,7.52l-.1-.06-.21-.12-.8-.72-1.8,.11-.46,.25,.32,.48,.55,.3,.16,.17,.05,.33v.37s.05,.35,.05,.35l.13,.3,.25,.21,.65,.1,.66-.2,.57-.39,.36-.47,.15-.27v-.15s-.09-.17-.09-.17l-.44-.43Z"/>
  <g>
    <path d="M78.04,62.28v5.09h-1.24v-2.12h-1.93v2.12h-1.23v-5.09h1.23v1.97h1.93v-1.97h1.24Z"/>
    <path d="M80.12,62.28v5.09h-1.23v-5.09h1.23Z"/>
  </g>
</svg>