<?xml version="1.0" encoding="utf-8"?>
<!-- Generator: Adobe Illustrator 26.5.0, SVG Export Plug-In . SVG Version: 6.00 Build 0)  -->
<svg version="1.1" xmlns="http://www.w3.org/2000/svg" xmlns:xlink="http://www.w3.org/1999/xlink" x="0px" y="0px"
	 viewBox="0 0 90 90" style="enable-background:new 0 0 90 90;" xml:space="preserve">
<style type="text/css">
	.st0{fill:#CECECE;stroke:#F9F9F9;stroke-width:0.025;stroke-linecap:round;stroke-linejoin:round;}
	.st1{display:none;fill:none;stroke:#47CCCC;stroke-width:0.5;stroke-linecap:round;stroke-linejoin:round;}
	.st2{fill:#CECECE;}
</style>
<g id="ALABAMA">
</g>
<g id="ALASKA">
</g>
<g id="ARIZONA">
</g>
<g id="ARKANSAS_1_">
</g>
<g id="CALIFORNIA">
</g>
<g id="COLORADO">
</g>
<g id="CONNECTICUT">
</g>
<g id="DELAWARE">
</g>
<g id="DC">
</g>
<g id="FLORIDA">
</g>
<g id="GEORGIA">
</g>
<g id="HAWAII">
	<path id="HI_1_" class="st0" d="M68.81,47.22l0.2-0.58l-0.23-0.55l-0.89-0.48l-0.22-0.07l-0.7-0.1l-0.14-0.15l-0.09-0.33l-0.1-0.16
		l-0.55-0.09l-0.35-0.1l-0.15-0.19l-0.09-0.17l-0.22-0.22l-0.25-0.15l-0.2,0.06l-0.04-0.06l-0.05-0.03l-0.05-0.01l-0.07-0.01
		l-0.21-0.08l-0.26-0.04l-0.26,0l-0.24,0.03l-0.25,0.08l-0.5,0.34l-0.17,0.04l-0.45,0.02l-0.23,0.04l-0.25,0.11l-0.2,0.11
		l-0.19,0.03l-0.22-0.14l-0.45-1l-0.11-0.18l-0.13-0.15l-0.61-0.58l-0.2-0.12l-0.24-0.18l-0.13-0.03l-0.06,0.16l-0.05,0.08
		l-0.12,0.02l-0.14-0.02l-0.11-0.04l-0.02,0.11l-0.07,0.19l-0.01,0.12l-0.07-0.03l-0.19-0.04l-0.08-0.03l-0.07,0.36l-0.57,1.13
		l1.04,1.41l0.09,0.08l0.12,0.03l0.37,0.15l0.28,0.18l0.45,0.18l0.2,0.02l0.14-0.03l0.13-0.05l0.16-0.03l0.38-0.01l0.18,0.04
		l0.08,0.12l0.05,0.34l0.05,0.17l0.06,0.07l0.14,0.12l0.09,0.3l0.04,1.31l0.18,0.52l0.4,0.3l0.69,0l0.29-0.14l0.17-0.06l0.08,0.04
		l0.08,0.09l0.18,0.01l0.58-0.12l0.87-0.56l0.3-0.06l0.28,0.05l0.29,0.08l0.34,0.04l0.29-0.08l1.06-0.56l0.46-0.37L68.81,47.22z
		 M60.16,49.3l-0.24-0.22l-0.3,0.04l-0.29,0.16l-0.47,0.33l-0.58,0.22l-0.23,0.16l-0.16,0.26l0.48,0.3l0.21,0.03l0.37-0.19
		l0.16-0.03l0.67,0.02l0.36-0.06l0.19-0.19L60.13,50L60.16,49.3z M86.39,64.99l-0.8-0.41l-0.63-0.61l-0.1-0.21l-0.13-0.79
		l-0.08-0.26l-0.19-0.14l-0.38-0.04l-0.62,0.1l-0.17-0.07l-0.11-0.34v-1.23l-0.05-0.34l-0.14-0.27l-1.32-1.4l-0.52-0.39l-2.03-0.99
		l-1.69-0.66l-0.69-0.12l-0.58-0.35l-0.34-0.12l-0.16,0.04l-0.15,0.1l-0.17,0.05l-0.2-0.13l-0.2-0.18l-0.11-0.07l-0.3-0.08
		L74.1,55.7l-0.93-0.35l-0.1-0.09l-0.04-0.14l-0.02-0.15l-0.05-0.12l-0.08-0.08l-0.44-0.08l-0.9-0.38l-0.51-0.08l-0.38,0.41
		l-0.23,0.6l-0.06,0.46l0.14,0.59l0.26,0.51l0.77,0.93l0.05,0.06l0.17,0.31l-0.01,0.27l-0.14,0.2l-0.49,0.38l-0.11,0.11l-0.59,0.86
		l-0.15,0.18l-0.31,0.52l-0.65,0.23l-0.22,0.17l-0.08,0.3l-0.14,0.15l-0.32,0.21l-0.33,0.28l-0.18,0.37l0.08,0.66l0.32,0.5
		l0.41,0.45l0.37,0.53l0.14,0.32l0.1,0.32l0.06,0.34l0.02,0.36l0.02,0.14l0.19,0.54l0.06,0.01L70,66.47l0.05,0.01l0.01,0.07
		l-0.02,0.17l0.01,0.07l0.36,1.27l0.21,0.35l0.06,0.19l-0.01,0.13l-0.4,2.48l-0.02,1.3l0.08,0.33L70.53,73l0.19,0.08l0.07,0.19
		l0.04,0.22l0.08,0.15l0.13,0.03l0.51-0.03l0.59,0.15l0.63,0.26l0.55,0.32l0.35,0.33l0.27,0.45l0.01,0.09l0.19-0.07l0.28-0.29
		l0.16-0.07l0.22-0.13l0.69-0.93l0.23-0.88l0.14-0.24L76.55,72l0.24-0.08l0.79-0.43l0.22-0.16l0.37-0.37l0.22-0.15l0.26-0.06
		l0.19-0.07l0.5-0.47l0.38-0.27l0.19-0.08l0.28-0.07l1.23,0.05l0.27-0.14l1.06-0.23l0.54-0.29l0.3-0.11l0.39-0.04l0.26-0.07
		l1.39-1.19l0.11-0.17l1.28-0.69l0.2-0.24l0.17-0.32l0.12-0.34l0.04-0.33L86.39,64.99z M57.59,40.43l-0.46-0.11l-0.31-0.01
		l-0.01,0.01l-0.12-0.04l-0.09-0.05l-0.08-0.04l-0.12,0.01l-0.09,0.05l-0.17,0.14l-0.12,0.03h-1.07l-0.32-0.05l-0.21-0.12
		l-0.38-0.38l-0.29-0.22l-0.03,0.05l0.02,0.2l-0.13,0.2l-0.23,0.03l-0.54-0.2l-0.24-0.05l-2.08-0.1l-0.18-0.13l-0.18-0.17
		l-0.17-0.12l-0.16,0.05l-0.15,0.07l-0.18-0.01l-0.16-0.05l-0.1-0.07l-0.02,0.3l0.04,0.22l-0.04,0.23l-0.28,0.31l-0.15,0.13
		l-0.17,0.19l-0.12,0.24l0.01,0.29l0.18,0.23l0.3,0.12l0.34-0.02l0.3-0.16l0.26-0.08l0.97,0.03l1.33-0.12l0.35,0.05l1.51,0.6
		l0.62,0.17l0.61,0.06l0.6-0.12l0.59-0.23l0.59-0.3l0.48-0.44l0.26-0.63L57.59,40.43z M17.36,25.05l-0.1-0.06l-0.08-0.14l-0.06-0.18
		l-0.02-0.17l-0.1-0.22l-0.22-0.21l-0.26-0.15l-0.39-0.12l-0.17-0.11l-0.16-0.06l-0.15,0.07l-0.11,0.07l-0.16,0.04L14.16,24
		l-0.12,0.04l-0.21-0.16l-0.25-0.12l-0.24-0.02l-0.21,0.13l-0.28,0.09l-0.86,0.42l-1.21,0.75l-0.04,0.05l-0.1,0.05l-0.03,0.11v0.14
		l-0.03,0.13l-0.63,0.74l-0.18,0.12L9.66,26.6l0.14,0.34l0.22,0.32l0.11,0.08l0.08,0.26l0.19,0.11l0.26,0.08l0.27,0.19l0.26,0.07
		l0.38-0.02l0.34,0.03l0.24,0.41l0.42,0.37L12.71,29h0.11l0.36-0.11l0.72,0.04l0.72,0.18l0.34,0.32l0.85-0.54l0.86-0.74l-0.07-0.17
		l0.01-0.09l0.1-0.02l0.17,0.06l0.02-0.29l-0.02-0.3l-0.05-0.27l-0.07-0.21l0.56-0.92l0.17-0.65l0-0.17L17.36,25.05z M5.06,27.15
		l-0.18,0.07L4.7,27.4l-0.34,0.44l-0.17,0.17l-0.22,0.14l-0.04,0.18l-0.48,0.12l-0.55,0.75l-0.2,0.43l-0.08,0.45l0.11,0.35L3.1,30.6
		l0.17,0l0.13-0.04l0.09-0.11l0.08-0.47l0.11-0.22l0.53-0.61l0.15-0.04l0.29-0.01l0.2-0.04l0.31-0.21l0.19-0.07l-0.11-0.42l0.06-0.4
		l0.19-0.34l0.28-0.24l-0.2-0.21L5.06,27.15z M42.29,37.44l-0.07-0.3l0.01-0.28l-0.05-0.21l-0.25-0.08l-0.24-0.13l0.05-0.28
		l0.16-0.28l0.09-0.11h-0.75l-0.21,0.06l0.42,0.31l-0.27,0.1l-0.18,0.02l-0.08-0.07l-0.07,0.01l-0.36-0.37l-0.21-0.17l-0.16-0.2
		l-0.27-0.59l0.1-0.01l0.05,0.02l0.06,0.09l0-0.3l-0.02-0.24l-0.1-0.18l-0.39-0.26l-0.28-0.37l-0.24-0.42l-0.04-0.27l-0.16-0.3
		l-0.18-0.24l-0.23-0.19l-0.29-0.13l-0.04-0.06L38.05,32l-0.03-0.05l0-0.08l-0.93,0.46l-0.24,0.19l-0.15,0.29l-0.11,0.17l-0.12,0.08
		l-0.12,0.05l-0.47,0.27l-0.07,0.14l0,0.14l-0.06,0.1l-0.24,0.04l-0.17-0.02l-0.3-0.07l-0.86-0.04l-0.35,0.03l-0.29,0.1l-0.15,0.27
		l0.57,0.47l-0.05,0.28l-0.12,0.32l0.16,0.31l0.26,0.25l0.18,0.14l0.18,0.21l0.3,0.53l0.21,0.27l0.13,0.09l0.25,0.09l0.11,0.08
		l0.06,0.1l0.31,1.07l0.09,0.03l0.07,0.06l0.07,0.03l0.15-0.11l0.19-0.09l0.74-0.11l0.34-0.01l0.34,0.11l0.04-0.47l-0.2-0.23
		l-0.31-0.15l-0.29-0.23l0.31,0l0.36,0.11l0.19-0.03l-0.22-0.42l0.24,0.15l0.08,0.07l0.12-0.09l0.13-0.01l0.11,0.06l0.07,0.14
		l-0.02,0.2l-0.14,0.07l-0.17,0.04l-0.1,0.12l0.08,0.33l0.31,0.08l0.35-0.1l0.21-0.22l0.34,0.17l0.14,0.1l0.16,0.15l-0.07,0.16
		l0.15,0.13l0.47,0.24l0.22,0.2l0.1,0.02l0.26,0l0.36-0.1l0.41-0.16l0.36-0.03l0.21,0.28l0.24-0.2l0.83-0.55l-0.23-0.21L42.29,37.44
		z M55.68,44.96l-0.1-0.06l-0.21-0.12l-0.8-0.72l-1.8,0.11l-0.46,0.25l0.32,0.48l0.55,0.3l0.16,0.17l0.05,0.33l0,0.37l0.04,0.35
		l0.13,0.3l0.25,0.21l0.65,0.1l0.66-0.2l0.57-0.39l0.36-0.47l0.15-0.27l0.01-0.15l-0.1-0.17L55.68,44.96z"/>
</g>
<g id="IDAHO">
</g>
<g id="IOWA">
</g>
<g id="ILLINOIS">
</g>
<g id="INDIANA">
</g>
<g id="KANSAS">
</g>
<g id="KETUCKY">
</g>
<g id="LOUISANA">
</g>
<g id="MAINE">
</g>
<g id="MARYLAND">
</g>
<g id="MASSACHUSETTS">
</g>
<g id="MICHIGAN">
</g>
<g id="MINNESOTA">
</g>
<g id="MISSOURI">
</g>
<g id="MISSISSIPPI">
</g>
<g id="MONTANA">
</g>
<g id="NORTH_CAROLINA">
</g>
<g id="NORTH_DAKOTA">
</g>
<g id="NEBRASKA">
</g>
<g id="NEW_HAMPSHIRE">
</g>
<g id="NEW_JERSEY">
</g>
<g id="NEW_YORK">
</g>
<g id="NEW_MEXICO">
</g>
<g id="NEVADA">
</g>
<g id="OHIO">
</g>
<g id="OKLAHOMA">
</g>
<g id="OREGON">
</g>
<g id="PENNSYLVANIA">
</g>
<g id="RHODE_ISLAND">
</g>
<g id="SOUTH_CAROLINA">
</g>
<g id="SOUTH_DAKOTA">
</g>
<g id="TENNESSEE">
</g>
<g id="TEXAS">
</g>
<g id="UTAH">
</g>
<g id="VIRGINIA">
</g>
<g id="VERMONT">
</g>
<g id="WASHINGTON">
</g>
<g id="WISCONSIN">
</g>
<g id="WEST_VIRGINIA">
</g>
<g id="WYOMING">
</g>
</svg>
