<?xml version="1.0" encoding="utf-8"?>
<!-- Generator: Adobe Illustrator 26.5.0, SVG Export Plug-In . SVG Version: 6.00 Build 0)  -->
<svg version="1.1" xmlns="http://www.w3.org/2000/svg" xmlns:xlink="http://www.w3.org/1999/xlink" x="0px" y="0px"
	 viewBox="0 0 90 90" style="enable-background:new 0 0 90 90;" xml:space="preserve">
<style type="text/css">
	.st0{fill:#CECECE;stroke:#F9F9F9;stroke-width:0.025;stroke-linecap:round;stroke-linejoin:round;}
	.st1{display:none;fill:none;stroke:#47CCCC;stroke-width:0.5;stroke-linecap:round;stroke-linejoin:round;}
	.st2{fill:#CECECE;}
</style>
<g id="ALABAMA">
</g>
<g id="ALASKA">
</g>
<g id="ARIZONA">
</g>
<g id="ARKANSAS_1_">
</g>
<g id="CALIFORNIA">
</g>
<g id="COLORADO">
</g>
<g id="CONNECTICUT">
</g>
<g id="DELAWARE">
</g>
<g id="DC">
</g>
<g id="FLORIDA">
</g>
<g id="GEORGIA">
</g>
<g id="HAWAII">
</g>
<g id="IDAHO">
	<path id="ID_1_" class="st0" d="M73.79,58.51l-0.16,1.61l-0.17,1.62l-0.16,1.61l-0.16,1.62l-0.17,1.62l-0.16,1.62l-0.16,1.62
		l-0.17,1.62l-0.16,1.62l-0.17,1.62l-0.16,1.62l-0.16,1.62l-0.17,1.62l-0.17,1.62l-0.16,1.62l-0.16,1.63l-1.51-0.16l-1.51-0.15
		l-1.51-0.16l-1.51-0.16l-1.51-0.17l-1.51-0.17l-1.51-0.17l-1.5-0.17l-1.51-0.17l-1.51-0.17l-1.51-0.18l-1.51-0.17l-1.5-0.18
		l-1.51-0.19l-1.51-0.19l-1.5-0.19l-1.5-0.19l-1.49-0.19l-1.49-0.2l-1.5-0.2l-1.49-0.2l-1.49-0.21l-1.49-0.21l-1.49-0.21l-1.49-0.21
		l-1.49-0.21l-1.49-0.22l-1.49-0.21L27.75,79l-1.49-0.22l-1.49-0.23l-1.48-0.23l0.16-1.07l0.17-1.06l0.17-1.07l0.16-1.07l0.17-1.06
		l0.17-1.07l0.16-1.07l0.17-1.06l0.17-1.06l0.16-1.07l0.17-1.06l0.16-1.06l0.17-1.06l0.17-1.07l0.16-1.06l0.17-1.06l0.07-0.46
		l0.14-0.93l-0.01-0.13l0,0l0.01-0.08l-0.02-0.25l0.15-0.15l0.19-0.1l0.11-0.12l0.13-0.22l0.06-0.24l0.15-0.32L27,57.87l0.06-0.11
		l0.05-0.07l0.04-0.08l0.02-0.11l-0.02-0.23l-0.16-0.38l0.02-0.17l0.09-0.08h0.11l0.1,0.02l0.09-0.02l0.08-0.09l0.05-0.11l0.03-0.12
		l0.02-0.12l0.04-0.06l0.06-0.05l0.04-0.07l-0.02-0.1l-0.13-0.17l-0.12-0.12l-0.16-0.12l-0.03-0.06l-0.04-0.15V55.2l0.02-0.12
		l-0.02-0.09l-0.09-0.05h-0.18l-0.15,0.04l-0.13,0.02l-0.16-0.08l-0.05-0.09l-0.03-0.1l-0.05-0.1l-0.1-0.04l-0.11,0.02l-0.09,0.06
		l-0.08,0.08l-0.09,0.07l-0.27-0.25l-0.1-0.16l-0.02-0.2l0.02-0.1l0.06-0.13l0.03-0.1l-0.01-0.14l-0.07-0.23l-0.02-0.12l0.06-0.24
		l0.12-0.19l0.09-0.17l-0.03-0.28l0.06-0.06l0.09-0.05l0.04-0.06l0.05-0.13l0.08-0.04l0.09-0.01l0.09-0.03l0.12-0.1l0.13-0.16
		l0.11-0.18l0.13-0.39l0.12-0.21l0.25-0.32l0.29-0.49l0.1-0.14l0.17-0.14l0.51-0.22l0.17-0.09l0.13-0.11l0.52-0.59l0.23-0.33
		l0.09-0.18l0.16-0.46l0.04-0.21l-0.01-0.03l-0.03-0.06l-0.02-0.09v-0.12l0.04-0.1l0.08-0.1l1-1.05l0.22-0.37l0.23-0.6l0.13-0.16
		l0.1-0.16l0.09-0.42l0.06-0.21l0.13-0.17l0.31-0.25l0.17-0.32l0.44-0.39l0.04-0.1l0.07-0.21l0.19-0.33l0.06-0.06l0.26-0.21
		l0.13-0.14l0.09-0.18l0.02-0.22l-0.02-0.21L33.13,41l-0.08-0.44l-0.07-0.21l-0.08-0.13l-0.09-0.11L32.49,40l-0.4-0.33l-0.13-0.2
		l-0.06-0.08l-0.53-0.2l-0.06-0.14l-0.04-0.17l-0.39-0.52l-0.14-0.6l-0.02-0.32L30.7,37.4l-0.11-0.48l-0.33-0.55l-0.03-0.12
		l0.27-0.2l0.11-0.13l0.11-0.2l0.03-0.21l-0.13-0.3l-0.01-0.51l-0.07-0.23l-0.19-0.44l-0.29-0.49l-0.03-0.16l0.06-0.18l0.17-0.3
		l0.04-0.29L30.54,31l0.25-1.6l0.24-1.61l0.25-1.6l0.24-1.6l0.25-1.59l0.24-1.6l0.25-1.59l0.24-1.59l0.24-1.59l0.25-1.59l0.24-1.58
		l0.24-1.58l0.25-1.59l0.24-1.58l0.24-1.58l0.73,0.11l1.62,0.25l1.62,0.25l1.62,0.25l1.62,0.24l0.09,0.01l-0.17,1.17l-0.17,1.17
		l-0.17,1.17l-0.17,1.18l-0.17,1.17l-0.17,1.18l-0.17,1.17l-0.17,1.18L40,18.1l0.02,0.06l0.05,0.11l0.14,0.17l0.18,0.28l0.07,0.17
		l0.15,0.25l0.04,0.12l0.02,0.06l0.04,0.05l0.09,0.09l0.07,0.09l0.06,0.11L41,19.74l0.16,0.13l0.06,0.06L41.25,20l0.02,0.06
		l0.07,0.51l0.02,0.06l0.05,0.06l0.18,0.13l0.06,0.06l0.03,0.1l0.01,0.07l0.02,0.07l0.03,0.06l0.2,0.17l0.05,0.06l0.03,0.1
		l0.02,0.07l-0.01,0.07l-0.06,0.25l0.02,0.09l0.17,0.33l0.03,0.11l0.01,0.09l-0.02,0.06l-0.06,0.09l-0.04,0.04l-0.04,0.03
		l-0.04,0.03l-0.2,0.07l-0.05,0.02l-0.04,0.03v0.06l0.03,0.06l0.18,0.15l0.06,0.07l0.05,0.12l0.01,0.21l0.01,0.01l0.06,0.06
		l0.11,0.07l0.06,0.06l0.02,0.07l-0.02,0.05l-0.04,0.04l-0.05,0.02l-0.06,0.02l-0.06,0.01l-0.32-0.02l-0.05,0.01l-0.04,0.02
		l-0.02,0.01l-0.03,0.03l-0.02,0.05l0.01,0.06l0.05,0.06l0.12,0.07l0.28,0.13l0.52,0.43l0.06,0.06l0.21,0.3l0.09,0.18l0.05,0.15
		l0.06,0.14l0.03,0.06l0.06,0.05l0.1,0.06l0.37,0.11l0.64,0.35l0.06,0.06l0.06,0.06l0.06,0.13l0.06,0.16l0.02,0.06l0.04,0.06
		l0.02,0.06l0.02,0.05l0.01,0.11l0.02,0.06l0.04,0.05l0.07,0.05l0.06,0.05l0.04,0.06l0.06,0.1l0.06,0.08l0.19,0.16l0.07,0.09
		l0.17,0.3l0.08,0.25l0.58,0.79l0.01,0.05l0.02,0.18v0.02l0.01,0.02l0.03,0.05l0.06,0.05l0.1,0.06l0.14,0.06l0.05,0.04l0.04,0.06
		l0.17,0.29l0.05,0.05l0.06,0.06l0.17,0.14l0.04,0.05v0.06l-0.02,0.05l-0.03,0.06l-0.02,0.06l-0.02,0.06l-0.01,0.17l0.01,0.11
		l0.02,0.11l0.05,0.15l0.04,0.05l0.06,0.06l0.21,0.17l0.07,0.08l0.1,0.13l0.07,0.08l0.11,0.06l0.21,0.09l0.05,0.04l0.03,0.05
		l0.02,0.08l-0.01,0.07l-0.01,0.06l-0.09,0.24l-0.01,0.06l0.02,0.05l0.03,0.05l0.07,0.02h0.06l0.06-0.02l0.19-0.17l0.13-0.08
		l0.06-0.02h0.05h0.06l0.06,0.02l0.06,0.03l0.17,0.16l0.04,0.06l0.06,0.1v0.08l-0.02,0.06l-0.12,0.11l-0.03,0.05l-0.02,0.06
		l0.01,0.06l0.01,0.05l0.05,0.07l0.07,0.08l0.17,0.13l0.1,0.06l0.1,0.04l0.13,0.01l0.1-0.02l0.18-0.04h0.06l0.05,0.02l0.12,0.06
		l0.06,0.02h0.06l0.06-0.01l0.1-0.04l0.13-0.07l0.05-0.01l0.53-0.06l0.06,0.01l0.06,0.02l0.06,0.03l0.04,0.05l0.02,0.07l0.01,0.06
		l-0.01,0.06l-0.02,0.19l-0.04,0.12l-0.06,0.09l-0.02,0.06l-0.02,0.06l-0.01,0.06l0.01,0.05v0.06l-0.02,0.05l-0.02,0.06l-0.07,0.08
		l-0.02,0.05l-0.01,0.06l0.01,0.06l0.02,0.05l0.01,0.05l0.01,0.05l-0.02,0.06l-0.03,0.03l-0.04,0.03l-0.05,0.02l-0.05,0.02
		l-0.22,0.05l-0.05,0.02l-0.03,0.02l-0.02,0.05v0.01v0.02l0.02,0.05l0.09,0.14l0.02,0.06l0.02,0.06l0.01,0.06v0.06l-0.02,0.06
		l-0.02,0.06l-0.02,0.06l-0.22,0.33l-0.05,0.11l-0.04,0.12l-0.02,0.13l-0.01,0.13l-0.01,0.06l-0.02,0.06l-0.03,0.04l-0.18,0.2
		l-0.03,0.05l-0.02,0.06l-0.02,0.12l-0.02,0.06l-0.03,0.05l-0.08,0.08l-0.02,0.04l-0.02,0.05v0.06l0.02,0.06l0.02,0.07l0.03,0.11
		l0.01,0.06v0.06l-0.01,0.18l0.01,0.11l-0.01,0.06l-0.02,0.06l-0.03,0.04l-0.04,0.03l-0.05,0.02l-0.06,0.01l-0.26-0.01l-0.05,0.02
		l-0.04,0.02l-0.02,0.02l-0.02,0.04l-0.02,0.06v0.06l0.03,0.06l0.26,0.35l0.02,0.05l0.02,0.06L49.39,39l-0.02,0.06l-0.02,0.05
		l-0.03,0.05l-0.18,0.2l-0.03,0.05l-0.02,0.06l-0.01,0.06l0.02,0.08l0.05,0.11v0.07l-0.02,0.06L49.1,39.9l0.02,0.06l0.06,0.07
		l0.17,0.1l0.2,0.08l0.06,0.04l0.02,0.06v0.07l-0.02,0.06l-0.09,0.14l-0.02,0.06l-0.02,0.06l-0.02,0.06v0.06l0.01,0.05l0.02,0.06
		l0.13,0.27v0.07l-0.02,0.06l-0.04,0.04l-0.21,0.15l-0.05,0.02l-0.06,0.02h-0.06l-0.27-0.02l-0.06,0.01l-0.05,0.02l-0.09,0.05
		l-0.03,0.03l-0.02,0.02l-0.05,0.09l-0.1,0.12l-0.06,0.09l-0.03,0.05l-0.03,0.05l-0.05,0.03l-0.09,0.06l-0.04,0.03l-0.02,0.05
		l0.01,0.08l0.05,0.1l0.02,0.14l0.01,0.06l0.04,0.06l0.17,0.21l0.04,0.08v0.07l-0.04,0.09l-0.01,0.05l0.02,0.11l-0.01,0.06
		l-0.02,0.06l-0.02,0.05l-0.02,0.03l-0.02,0.02l-0.12,0.09l-0.17,0.11l-0.04,0.03l-0.02,0.06l0.01,0.06l0.03,0.09L48.12,44v0.06
		l-0.02,0.06l-0.03,0.05l-0.1,0.12l-0.01,0.04l0.02,0.04l0.11,0.03l0.15,0.02l0.35,0.12l0.07,0.03l0.24,0.21l0.03,0.06l0.01,0.06
		l0.01,0.06l0.04,0.06l0.07,0.06l0.25,0.17l0.03,0.08l0.02,0.04l0.06,0.05l0.08,0.04l0.16,0.03l0.09-0.01l0.07-0.02l0.05-0.02
		l0.19-0.06l0.04-0.02l0.01-0.01l0.04-0.05l0.11-0.21l0.03-0.05l0.04-0.04l0.04-0.03l0.05-0.02l0.05-0.02h0.06l0.13,0.03h0.06
		l0.05-0.02l0.19-0.09l0.33-0.09l0.05-0.02l0.03-0.03l0.02-0.05l0.03-0.05l0.03-0.05l0.05-0.03l0.14-0.06l0.04-0.02l0.04-0.05
		l0.03-0.05l0.02-0.06l0.06-0.1l0.04-0.04l0.04-0.03l0.05-0.02l0.06-0.02l0.21-0.04l0.04-0.02l0.02-0.02l0.02-0.04v-0.06v-0.05
		l-0.02-0.07l-0.01-0.05l0.01-0.06l0.01-0.06l0.02-0.05l0.02-0.02l0.03-0.02l0.05-0.01l0.09,0.05l0.14,0.09l0.25,0.22l0.18,0.19
		l0.02,0.05l0.01,0.06l-0.01,0.11l0.05,0.06l0.09,0.06l0.38,0.18l0.06,0.03l0.05,0.06l0.06,0.08l0.02,0.06l0.01,0.06l-0.02,0.06
		l-0.03,0.05l-0.07,0.08l-0.02,0.05l-0.06,0.11l-0.03,0.13l-0.02,0.06l0.02,0.06l0.06,0.06l0.23,0.13l0.07,0.08l0.02,0.08
		l-0.01,0.01l-0.01,0.06v0.17l-0.01,0.06l-0.02,0.06l-0.06,0.09l-0.02,0.06l-0.02,0.06l-0.01,0.06l0.01,0.06l0.01,0.05v0.12
		l0.02,0.08l0.2,0.2l0.05,0.07l0.02,0.07l-0.02,0.13l-0.05,0.25l-0.03,0.12l-0.01,0.06L54,47.8l0.02,0.05l0.02,0.05l0.04,0.06
		l0.16,0.14l0.06,0.06l0.02,0.06l0.01,0.06l-0.01,0.11l0.01,0.06l0.03,0.06l0.12,0.12l0.13,0.19l0.11,0.11l0.1,0.13l0.04,0.09
		l0.02,0.06l0.02,0.1v0.06l0.01,0.06l0.01,0.05l0.06,0.09l0.02,0.04l0.01,0.06l-0.02,0.13l0.01,0.06l0.04,0.04l0.06,0.03l0.25,0.02
		l0.06,0.04l0.05,0.08l0.02,0.19l0.02,0.05l0.21,0.36l0.03,0.1l0.09,0.3l0.01,0.06l0.02,0.17v0.02l-0.02,0.06l-0.08,0.25l-0.02,0.06
		l-0.03,0.05l-0.04,0.04l-0.04,0.03l-0.16,0.05l-0.04,0.02l-0.04,0.03l-0.02,0.05l0.01,0.05l0.02,0.05l0.06,0.09l0.05,0.09l0.03,0.1
		l0.07,0.32l0.04,0.1l0.06,0.09l0.09,0.08l0.34,0.21l0.1,0.08l0.06,0.06l0.01,0.06v0.17l0.04,0.05l0.07,0.02l0.14,0.01l0.08-0.02
		l0.06-0.02l0.17-0.12l0.04-0.02l0.06-0.02L57,53.31l0.13,0.02l0.17,0.06l0.19,0.13l0.17,0.17l0.13,0.16l0.02,0.05l0.09,0.18
		l0.03,0.05l0.09,0.12l0.02,0.05l0.02,0.05l0.01,0.05l0.01,0.06l0.01,0.06l0.02,0.05l0.02,0.05l0.06,0.09l0.02,0.05l0.02,0.05
		l0.04,0.16l0.02,0.05l0.07,0.14l0.04,0.09l0.01,0.05v0.06l-0.01,0.06l-0.03,0.04l-0.04,0.04l-0.09,0.06l-0.04,0.03l-0.03,0.04
		l-0.01,0.05v0.05l0.02,0.05l0.18,0.25l0.02,0.05l0.01,0.06l-0.02,0.12l0.04,0.06l0.06,0.05l0.12,0.07l0.05,0.06l0.02,0.05
		l-0.02,0.06l-0.09,0.15l-0.04,0.09l-0.01,0.02l0.01,0.05l0.06,0.14l0.01,0.05l-0.01,0.12l0.02,0.06l0.06,0.05l0.13,0.06l0.06,0.05
		l0.04,0.06l0.1,0.17l0.04,0.04l0.05,0.04l0.34,0.15l0.04,0.03l0.03,0.04l0.16,0.27l0.04,0.03l0.07,0.02l0.13-0.05l0.04-0.06
		l0.02-0.06l-0.11-0.24l-0.02-0.05l0.01-0.06l0.02-0.05l0.03-0.05l0.03-0.04l0.04-0.04l0.5-0.38l0.05-0.02l0.23-0.02l0.05-0.02
		l0.15-0.07l0.06-0.01l0.08,0.01l0.26,0.1l0.94,0.23l0.05,0.03l0.04,0.03l0.06,0.07l0.05,0.02l0.21-0.01l0.12,0.02l0.14,0.06
		L63,57.65l0.05,0.05l0.03,0.04l0.04,0.04l0.07,0.02h0.09l0.13-0.02l0.07-0.04l0.05-0.05l0.17-0.32l0.09-0.24l0.03-0.05l0.03-0.04
		l0.05-0.02l0.09-0.04l0.13-0.04l0.21-0.02l0.06-0.02l0.04-0.02l0.07-0.06l0.06-0.02l0.07,0.01l0.11,0.06l0.1,0.09L64.89,57
		l0.09,0.02l0.18,0.02l0.14,0.02l0.21,0.08l0.18,0.09l0.07,0.02l0.76-0.05l0.13,0.03l0.15-0.01l0.08-0.02l0.06-0.02l0.04-0.03
		l0.06-0.01l0.07-0.01l0.33,0.05l0.13,0.06l0.07,0.06l0.05,0.05l0.06,0.09l0.02,0.05l0.02,0.05l0.04,0.03l0.06,0.02l0.07,0.01
		l0.17-0.06l0.07-0.02l0.16,0.01l0.13-0.02l0.06-0.02l0.37-0.18l0.12-0.01l0.85,0.1l0.09,0.03l0.23,0.14l0.09,0.08l0.05,0.02
		l0.07,0.02h0.14l0.08-0.02l0.06-0.02v-0.05l-0.02-0.04l-0.04-0.04l-0.17-0.08l-0.05-0.02l-0.03-0.04l-0.02-0.03l-0.02-0.02
		l-0.01-0.05l-0.02-0.11v-0.06v-0.06l0.02-0.06l0.02-0.06l0.07-0.11l0.02-0.05l0.02-0.11l0.02-0.04l0.04-0.03l0.21-0.06l0.05-0.02
		l0.03-0.04l0.02-0.06l0.01-0.06l-0.01-0.06l-0.01-0.05l-0.02-0.05l-0.03-0.04l-0.02-0.05l-0.02-0.05L70.78,56l0.03-0.05l0.08-0.06
		l0.1-0.05l0.06-0.02h0.22l0.06-0.02l0.05-0.04l0.1-0.13l0.04-0.03l0.06,0.01l0.1,0.03l0.27,0.18l0.07,0.06l0.06,0.19l0.27,0.51
		l0.05,0.14l0.03,0.05l0.07,0.04l0.06,0.05l0.04,0.05l0.02,0.08l-0.01,0.06l-0.01,0.07v0.13l0.01,0.06l0.02,0.05l0.02,0.05
		l0.04,0.05l0.06,0.05l0.11,0.07l0.08,0.07l0.09,0.13l0.11,0.24l0.2,0.28l0.12,0.1L73.79,58.51L73.79,58.51z"/>
</g>
<g id="IOWA">
</g>
<g id="ILLINOIS">
</g>
<g id="INDIANA">
</g>
<g id="KANSAS">
</g>
<g id="KETUCKY">
</g>
<g id="LOUISANA">
</g>
<g id="MAINE">
</g>
<g id="MARYLAND">
</g>
<g id="MASSACHUSETTS">
</g>
<g id="MICHIGAN">
</g>
<g id="MINNESOTA">
</g>
<g id="MISSOURI">
</g>
<g id="MISSISSIPPI">
</g>
<g id="MONTANA">
</g>
<g id="NORTH_CAROLINA">
</g>
<g id="NORTH_DAKOTA">
</g>
<g id="NEBRASKA">
</g>
<g id="NEW_HAMPSHIRE">
</g>
<g id="NEW_JERSEY">
</g>
<g id="NEW_YORK">
</g>
<g id="NEW_MEXICO">
</g>
<g id="NEVADA">
</g>
<g id="OHIO">
</g>
<g id="OKLAHOMA">
</g>
<g id="OREGON">
</g>
<g id="PENNSYLVANIA">
</g>
<g id="RHODE_ISLAND">
</g>
<g id="SOUTH_CAROLINA">
</g>
<g id="SOUTH_DAKOTA">
</g>
<g id="TENNESSEE">
</g>
<g id="TEXAS">
</g>
<g id="UTAH">
</g>
<g id="VIRGINIA">
</g>
<g id="VERMONT">
</g>
<g id="WASHINGTON">
</g>
<g id="WISCONSIN">
</g>
<g id="WEST_VIRGINIA">
</g>
<g id="WYOMING">
</g>
</svg>
