<?xml version="1.0" encoding="UTF-8"?>
<svg id="IDAHO" xmlns="http://www.w3.org/2000/svg" viewBox="0 0 90 90">
  <defs>
    <style>
      .cls-1 {
        fill: #e2e2e2;
        stroke: #f9f9f9;
        stroke-linecap: round;
        stroke-linejoin: round;
        stroke-width: .03px;
      }
    </style>
  </defs>
  <path id="ID" class="cls-1" d="M73.79,58.51l-.16,1.61-.17,1.62-.16,1.61-.16,1.62-.17,1.62-.16,1.62-.16,1.62-.17,1.62-.16,1.62-.17,1.62-.16,1.62-.16,1.62-.17,1.62-.17,1.62-.16,1.62-.16,1.63-1.51-.16-1.51-.15-1.51-.16-1.51-.16-1.51-.17-1.51-.17-1.51-.17-1.5-.17-1.51-.17-1.51-.17-1.51-.18-1.51-.17-1.5-.18-1.51-.19-1.51-.19-1.5-.19-1.5-.19-1.49-.19-1.49-.2-1.5-.2-1.49-.2-1.49-.21-1.49-.21-1.49-.21-1.49-.21-1.49-.21-1.49-.22-1.49-.21-1.49-.22-1.49-.22-1.49-.23-1.48-.23,.16-1.07,.17-1.06,.17-1.07,.16-1.07,.17-1.06,.17-1.07,.16-1.07,.17-1.06,.17-1.06,.16-1.07,.17-1.06,.16-1.06,.17-1.06,.17-1.07,.16-1.06,.17-1.06,.07-.46,.14-.93v-.13h0v-.08s-.02-.25-.02-.25l.15-.15,.19-.1,.11-.12,.13-.22,.06-.24,.15-.32,.12-.41,.06-.11,.05-.07,.04-.08,.02-.11-.02-.23-.16-.38,.02-.17,.09-.08h.11l.1,.02,.09-.02,.08-.09,.05-.11,.03-.12,.02-.12,.04-.06,.06-.05,.04-.07-.02-.1-.13-.17-.12-.12-.16-.12-.03-.06-.04-.15v-.11l.02-.12-.02-.09-.09-.05h-.18l-.15,.04-.13,.02-.16-.08-.05-.09-.03-.1-.05-.1-.1-.04-.11,.02-.09,.06-.08,.08-.09,.07-.27-.25-.1-.16-.02-.2,.02-.1,.06-.13,.03-.1v-.14s-.08-.23-.08-.23l-.02-.12,.06-.24,.12-.19,.09-.17-.03-.28,.06-.06,.09-.05,.04-.06,.05-.13,.08-.04h.09s.09-.04,.09-.04l.12-.1,.13-.16,.11-.18,.13-.39,.12-.21,.25-.32,.29-.49,.1-.14,.17-.14,.51-.22,.17-.09,.13-.11,.52-.59,.23-.33,.09-.18,.16-.46,.04-.21v-.03s-.04-.06-.04-.06l-.02-.09v-.12l.04-.1,.08-.1,1-1.05,.22-.37,.23-.6,.13-.16,.1-.16,.09-.42,.06-.21,.13-.17,.31-.25,.17-.32,.44-.39,.04-.1,.07-.21,.19-.33,.06-.06,.26-.21,.13-.14,.09-.18,.02-.22-.02-.21-.2-.54-.08-.44-.07-.21-.08-.13-.09-.11-.31-.11-.4-.33-.13-.2-.06-.08-.53-.2-.06-.14-.04-.17-.39-.52-.14-.6-.02-.32v-.05s-.12-.48-.12-.48l-.33-.55-.03-.12,.27-.2,.11-.13,.11-.2,.03-.21-.13-.3v-.51s-.08-.23-.08-.23l-.19-.44-.29-.49-.03-.16,.06-.18,.17-.3,.04-.29,.25-1.61,.25-1.6,.24-1.61,.25-1.6,.24-1.6,.25-1.59,.24-1.6,.25-1.59,.24-1.59,.24-1.59,.25-1.59,.24-1.58,.24-1.58,.25-1.59,.24-1.58,.24-1.58,.73,.11,1.62,.25,1.62,.25,1.62,.25,1.62,.24h.09s-.17,1.18-.17,1.18l-.17,1.17-.17,1.17-.17,1.18-.17,1.17-.17,1.18-.17,1.17-.17,1.18-.07,.5,.02,.06,.05,.11,.14,.17,.18,.28,.07,.17,.15,.25,.04,.12,.02,.06,.04,.05,.09,.09,.07,.09,.06,.11,.06,.07,.16,.13,.06,.06,.04,.09,.02,.06,.07,.51,.02,.06,.05,.06,.18,.13,.06,.06,.03,.1v.07s.02,.07,.02,.07l.03,.06,.2,.17,.05,.06,.03,.1,.02,.07v.07s-.06,.25-.06,.25l.02,.09,.17,.33,.03,.11v.09s-.02,.06-.02,.06l-.06,.09-.04,.04-.04,.03-.04,.03-.2,.07-.05,.02-.04,.03v.06l.03,.06,.18,.15,.06,.07,.05,.12v.21s.02,0,.02,0l.06,.06,.11,.07,.06,.06,.02,.07-.02,.05-.04,.04-.05,.02-.06,.02h-.06s-.32-.02-.32-.02h-.05s-.04,.03-.04,.03h-.02s-.03,.05-.03,.05l-.02,.05v.06s.06,.06,.06,.06l.12,.07,.28,.13,.52,.43,.06,.06,.21,.3,.09,.18,.05,.15,.06,.14,.03,.06,.06,.05,.1,.06,.37,.11,.64,.35,.06,.06,.06,.06,.06,.13,.06,.16,.02,.06,.04,.06,.02,.06,.02,.05v.11s.03,.06,.03,.06l.04,.05,.07,.05,.06,.05,.04,.06,.06,.1,.06,.08,.19,.16,.07,.09,.17,.3,.08,.25,.58,.79v.05s.02,.18,.02,.18v.05s.04,.05,.04,.05l.06,.05,.1,.06,.14,.06,.05,.04,.04,.06,.17,.29,.05,.05,.06,.06,.17,.14,.04,.05v.06l-.02,.05-.03,.06-.02,.06-.02,.06v.17s0,.11,0,.11l.02,.11,.05,.15,.04,.05,.06,.06,.21,.17,.07,.08,.1,.13,.07,.08,.11,.06,.21,.09,.05,.04,.03,.05,.02,.08v.07s-.02,.06-.02,.06l-.09,.24v.06s0,.05,0,.05l.03,.05,.07,.02h.06l.06-.02,.19-.17,.13-.08,.06-.02h.11l.06,.02,.06,.03,.17,.16,.04,.06,.06,.1v.08l-.02,.06-.12,.11-.03,.05-.02,.06v.06s.02,.05,.02,.05l.05,.07,.07,.08,.17,.13,.1,.06,.1,.04h.13s.1,0,.1,0l.18-.04h.06l.05,.02,.12,.06,.06,.02h.12s.1-.05,.1-.05l.13-.07h.05s.53-.07,.53-.07h.06s.06,.02,.06,.02l.06,.03,.04,.05,.02,.07v.06s0,.06,0,.06l-.02,.19-.04,.12-.06,.09-.02,.06-.02,.06v.06s0,.05,0,.05v.06l-.02,.05-.02,.06-.07,.08-.02,.05v.06s0,.06,0,.06l.02,.05v.05s.02,.05,.02,.05l-.02,.06-.03,.03-.04,.03-.05,.02-.05,.02-.22,.05-.05,.02-.03,.02-.02,.05h0v.02l.02,.05,.09,.14,.02,.06,.02,.06v.06s0,.06,0,.06l-.02,.06-.02,.06-.02,.06-.22,.33-.05,.11-.04,.12-.02,.13v.13s-.02,.06-.02,.06l-.02,.06-.03,.04-.18,.2-.03,.05-.02,.06-.02,.12-.02,.06-.03,.05-.08,.08-.02,.04-.02,.05v.06l.02,.06,.02,.07,.03,.11v.06s0,.06,0,.06v.18s0,.11,0,.11v.06s-.02,.06-.02,.06l-.03,.04-.04,.03-.05,.02h-.06s-.26,0-.26,0l-.05,.02-.04,.02-.02,.02-.02,.04-.02,.06v.06l.03,.06,.26,.35,.02,.05,.02,.06v.06s-.02,.06-.02,.06l-.02,.05-.03,.05-.18,.2-.03,.05-.02,.06v.06s0,.08,0,.08l.05,.11v.07l-.02,.06-.02,.05,.02,.06,.06,.07,.17,.1,.2,.08,.06,.04,.02,.06v.07l-.02,.06-.09,.14-.02,.06-.02,.06-.02,.06v.1s.03,.06,.03,.06l.13,.27v.07l-.02,.06-.04,.04-.21,.15-.05,.02-.06,.02h-.06l-.27-.02h-.06s-.05,.02-.05,.02l-.09,.05-.03,.03-.02,.02-.05,.09-.1,.12-.06,.09-.03,.05-.03,.05-.05,.03-.09,.06-.04,.03-.02,.05v.08s.06,.1,.06,.1l.02,.14v.06s.05,.06,.05,.06l.17,.21,.04,.08v.07l-.04,.09v.05s0,.11,0,.11v.06s-.03,.06-.03,.06l-.02,.05-.02,.03-.02,.02-.12,.09-.17,.11-.04,.03-.02,.06v.06s.04,.09,.04,.09l.02,.06v.06l-.02,.06-.03,.05-.1,.12v.04s.02,.04,.02,.04l.11,.03,.15,.02,.35,.12,.07,.03,.24,.21,.03,.06v.06s.02,.06,.02,.06l.04,.06,.07,.06,.25,.17,.03,.08,.02,.04,.06,.05,.08,.04,.16,.03h.09s.07-.02,.07-.02l.05-.02,.19-.06,.04-.02h0s.04-.06,.04-.06l.11-.21,.03-.05,.04-.04,.04-.03,.05-.02,.05-.02h.06l.13,.03h.06l.05-.02,.19-.09,.33-.09,.05-.02,.03-.03,.02-.05,.03-.05,.03-.05,.05-.03,.14-.06,.04-.02,.04-.05,.03-.05,.02-.06,.06-.1,.04-.04,.04-.03,.05-.02,.06-.02,.21-.04,.04-.02,.02-.02,.02-.04v-.1l-.02-.07v-.05s0-.06,0-.06v-.06s.02-.05,.02-.05l.02-.02,.03-.02h.05s.09,.04,.09,.04l.14,.09,.25,.22,.18,.19,.02,.05v.06s0,.11,0,.11l.05,.06,.09,.06,.38,.18,.06,.03,.05,.06,.06,.08,.02,.06v.06s0,.06,0,.06l-.03,.05-.07,.08-.02,.05-.06,.11-.03,.13-.02,.06,.02,.06,.06,.06,.23,.13,.07,.08,.02,.08h0s0,.07,0,.07v.23s-.03,.06-.03,.06l-.06,.09-.02,.06-.02,.06v.06s0,.06,0,.06v.05s0,.12,0,.12l.02,.08,.2,.2,.05,.07,.02,.07-.02,.13-.05,.25-.03,.12v.06s-.02,.12-.02,.12l.02,.05,.02,.05,.04,.06,.16,.14,.06,.06,.02,.06v.06s0,.11,0,.11v.06s.04,.06,.04,.06l.12,.12,.13,.19,.11,.11,.1,.13,.04,.09,.02,.06,.02,.1v.12s.02,.05,.02,.05l.06,.09,.02,.04v.06s0,.13,0,.13v.06s.05,.04,.05,.04l.06,.03,.25,.02,.06,.04,.05,.08,.02,.19,.02,.05,.21,.36,.03,.1,.09,.3v.06s.02,.17,.02,.17v.02l-.02,.06-.08,.25-.02,.06-.03,.05-.04,.04-.04,.03-.16,.05-.04,.02-.04,.03-.02,.05v.05s.03,.05,.03,.05l.06,.09,.05,.09,.03,.1,.07,.32,.04,.1,.06,.09,.09,.08,.34,.21,.1,.08,.06,.06v.06s0,.17,0,.17l.04,.05,.07,.02h.14s.08,0,.08,0l.06-.02,.17-.12,.04-.02,.06-.02,.06-.02,.13,.02,.17,.06,.19,.13,.17,.17,.13,.16,.02,.05,.09,.18,.03,.05,.09,.12,.02,.05,.02,.05v.05s.02,.06,.02,.06v.06s.02,.05,.02,.05l.02,.05,.06,.09,.02,.05,.02,.05,.04,.16,.02,.05,.07,.14,.04,.09v.05s0,.06,0,.06v.06s-.04,.04-.04,.04l-.04,.04-.09,.06-.04,.03-.03,.04v.05s0,.05,0,.05l.02,.05,.18,.25,.02,.05v.06s0,.12,0,.12l.04,.06,.06,.05,.12,.07,.05,.06,.02,.05-.02,.06-.09,.15-.04,.09v.02s0,.05,0,.05l.06,.14v.05s0,.12,0,.12l.02,.06,.06,.05,.13,.06,.06,.05,.04,.06,.1,.17,.04,.04,.05,.04,.34,.15,.04,.03,.03,.04,.16,.27,.04,.03,.07,.02,.13-.05,.04-.06,.02-.06-.11-.24-.02-.05v-.06s.03-.05,.03-.05l.03-.05,.03-.04,.04-.04,.5-.38,.05-.02,.23-.02,.05-.02,.15-.07h.06s.08,0,.08,0l.26,.1,.94,.23,.05,.03,.04,.03,.06,.07,.05,.02h.21s.12,0,.12,0l.14,.06,.06,.06,.05,.05,.03,.04,.04,.04,.07,.02h.09l.13-.02,.07-.04,.05-.05,.17-.32,.09-.24,.03-.05,.03-.04,.05-.02,.09-.04,.13-.04,.21-.02,.06-.02,.04-.02,.07-.06,.06-.02h.07s.11,.07,.11,.07l.1,.09,.06,.03,.09,.02,.18,.02,.14,.02,.21,.08,.18,.09,.07,.02,.76-.05,.13,.03h.15s.08-.02,.08-.02l.06-.02,.04-.03h.06s.07-.02,.07-.02l.33,.05,.13,.06,.07,.06,.05,.05,.06,.09,.02,.05,.02,.05,.04,.03,.06,.02h.07s.17-.05,.17-.05l.07-.02h.16s.13,0,.13,0l.06-.02,.37-.18h.12s.85,.09,.85,.09l.09,.03,.23,.14,.09,.08,.05,.02,.07,.02h.14l.08-.02,.06-.02v-.05l-.02-.04-.04-.04-.17-.08-.05-.02-.03-.04-.02-.03-.02-.02v-.05s-.02-.11-.02-.11v-.11l.02-.06,.02-.06,.07-.11,.02-.05,.02-.11,.02-.04,.04-.03,.21-.06,.05-.02,.03-.04,.02-.06v-.06s0-.06,0-.06v-.05s-.03-.05-.03-.05l-.03-.04-.02-.05-.02-.05,.02-.05,.03-.05,.08-.06,.1-.05,.06-.02h.22l.06-.02,.05-.04,.1-.13,.04-.03h.06s.1,.04,.1,.04l.27,.18,.07,.06,.06,.19,.27,.51,.05,.14,.03,.05,.07,.04,.06,.05,.04,.05,.02,.08v.06s-.02,.07-.02,.07v.18s.02,.05,.02,.05l.02,.05,.04,.05,.06,.05,.11,.07,.08,.07,.09,.13,.11,.24,.2,.28,.12,.1,.33,.13h0Z"/>
  <g>
    <path d="M45.87,62.78v5.09h-1.23v-5.09h1.23Z"/>
    <path d="M50.98,66.64c-.21,.39-.52,.69-.92,.9-.4,.22-.87,.32-1.42,.32h-1.92v-5.09h1.92c.55,0,1.02,.11,1.42,.32,.4,.21,.7,.51,.92,.89,.21,.38,.32,.83,.32,1.32s-.11,.94-.32,1.33Zm-1.33-.26c.27-.25,.4-.61,.4-1.07s-.13-.82-.4-1.07c-.27-.25-.64-.38-1.12-.38h-.58v2.91h.58c.48,0,.85-.13,1.12-.38Z"/>
  </g>
</svg>