<?xml version="1.0" encoding="UTF-8"?>
<svg id="ILLINOIS" xmlns="http://www.w3.org/2000/svg" viewBox="0 0 90 90">
  <defs>
    <style>
      .cls-1 {
        fill: #e2e2e2;
        stroke: #f9f9f9;
        stroke-linecap: round;
        stroke-linejoin: round;
        stroke-width: .03px;
      }
    </style>
  </defs>
  <polygon id="IL" class="cls-1" points="68.05 56.45 67.86 55.93 67.89 55.76 68.01 55.53 68.04 55.35 67.97 54.77 67.87 54.6 67.51 54.35 67.36 54.2 67.27 53.98 67.11 53.45 66.97 53.21 66.58 52.9 66.4 52.81 66.31 52.76 66.24 52.64 66.22 52.09 66.86 51.31 66.81 50.69 66.5 50.24 66.41 50 66.5 49.7 66.68 49.47 67.32 49.07 67.36 49 67.3 48.46 67.08 46.39 66.84 44.33 66.63 42.27 66.17 38.13 65.95 36.07 65.72 34.01 65.5 31.95 65.27 29.89 65.04 27.84 64.82 25.78 64.59 23.73 64.38 21.67 64.15 19.61 63.92 17.56 63.7 15.5 63.68 15.36 62.97 14.57 62.73 14.14 62.35 13.14 61.94 12.45 61.66 11.21 61.57 10.95 61.44 10.69 61.37 10.6 61.29 10.51 60.89 10.38 60.81 10.32 60.76 10.23 60.65 10.13 60.54 10.01 60.47 9.86 60.43 9.71 60.35 9.58 59.91 8.93 59.68 8.46 59.51 7.93 59.36 6.86 59.35 6.7 59.38 6.58 59.43 6.51 59.46 6.41 59.41 5.02 59.38 4.9 57.49 5.09 55.56 5.28 53.63 5.47 51.7 5.66 49.77 5.84 47.85 6.01 45.91 6.19 43.98 6.37 42.06 6.53 40.13 6.7 38.19 6.86 36.26 7.02 34.33 7.17 32.4 7.34 30.47 7.49 28.53 7.63 28.53 7.63 28.53 7.63 28.53 7.63 28.52 7.63 28.52 7.63 28.52 7.63 28.52 7.63 28.51 7.64 28.51 7.64 28.51 7.64 28.5 7.64 28.5 7.64 28.5 7.64 28.49 7.64 28.37 7.96 28.52 8.14 28.87 8.29 29.05 8.43 29.23 8.63 29.61 8.88 30.6 9.39 30.96 9.69 31.2 10.16 31.19 10.06 31.28 10.86 31.41 11.19 31.78 11.36 32.05 11.67 32.2 11.74 32.35 11.76 33.34 12.22 33.46 12.32 33.76 12.61 33.87 12.67 34.04 12.68 34.13 12.78 34.16 12.95 34.17 13.17 34.22 13.36 34.56 13.98 34.52 14.15 34.52 14.75 34.37 15.27 34.36 16.15 34.27 16.79 34.16 17.11 33.97 17.26 33.8 17.34 33.37 17.74 33.23 17.9 33.1 18.13 32.98 18.43 32.9 18.75 32.88 19.07 32.75 19.37 32.77 19.42 32.82 19.49 32.85 19.56 32.88 19.91 32.87 20.06 32.82 20.21 32.67 20.39 32.21 20.7 32.12 20.81 32.05 21.01 31.86 21.17 31.41 21.39 30.34 21.68 30.11 21.8 29.74 22.33 29.53 22.54 29.07 22.73 25.93 23.24 25.51 23.56 25.28 24.03 25.1 24.61 24.98 25.24 24.94 25.86 24.96 26.16 25.04 26.5 25.19 26.79 25.43 26.9 25.59 26.95 26.18 27.33 26.54 27.74 26.78 28.31 26.91 28.96 26.92 29.63 26.76 30.16 25.77 31.49 25.59 31.79 25.49 32.02 25.46 32.25 25.47 32.88 25.43 33.2 25.26 33.79 25 34.23 24.65 34.53 24.21 34.71 23.77 34.8 23.43 34.92 22.95 35.18 22.53 35.48 22.35 35.75 22.33 35.84 22.25 36 22.22 36.14 22.28 36.26 22.6 36.51 22.72 36.74 22.75 36.99 22.71 37.44 22.73 37.68 22.82 38.05 22.85 38.26 22.76 38.41 22.12 38.66 21.79 38.99 21.58 39.65 21.47 40.39 21.44 40.99 21.48 41.64 21.96 43.98 22.03 44.19 22.2 44.42 22.42 44.63 22.48 44.73 22.55 44.83 22.59 44.94 22.61 45.07 22.63 45.41 22.58 45.84 22.6 46 22.65 46.1 22.82 46.25 22.91 46.43 23.24 46.7 23.32 46.84 23.35 46.99 23.41 47.33 23.58 47.8 23.84 48.13 26.86 50.45 27.06 50.65 27.21 50.91 27.29 51.21 27.37 51.4 27.55 51.55 30.33 53.23 30.6 53.46 30.89 53.78 31.22 54.29 31.38 54.58 31.48 54.86 31.51 55.05 31.52 55.45 31.54 55.63 31.62 55.81 31.86 56.11 31.91 56.26 31.88 56.42 31.8 56.59 31.77 56.77 31.86 56.96 31.96 57.12 32.04 57.35 32.07 57.59 32.04 57.77 32.64 58.8 33.03 59.2 33.51 59.34 33.98 59.07 34.62 58.08 35.18 57.9 35.41 57.97 35.82 58.19 36.03 58.23 36.3 58.23 36.89 58.34 38.06 58.87 38.56 59.21 38.77 59.57 38.71 59.83 38.55 60.21 38.37 60.55 38.22 60.7 38.08 60.87 38.09 61.23 38.19 61.8 38.24 62.39 38.08 62.85 37.59 63.82 37.15 65.47 36.68 66.41 36.54 66.88 36.54 67.42 36.7 68.06 36.78 68.29 36.87 68.45 36.96 68.59 37.06 68.72 37.74 69.2 37.83 69.33 38.18 69.63 38.27 69.75 38.37 69.97 38.58 70.12 39.03 70.33 39.36 70.6 39.67 70.94 40 71.21 40.42 71.3 41.1 71.79 41.29 71.87 41.71 71.83 41.86 71.86 42.24 71.94 42.66 72.19 43.38 72.82 43.67 72.97 44.4 73.21 44.7 73.38 45.02 73.76 45.43 74.51 45.7 74.78 46.87 75.2 47.2 75.43 47.12 75.62 47.19 75.84 47.3 76.1 47.36 76.36 47.36 76.6 47.33 76.84 47.32 77.11 47.38 77.4 47.67 77.88 48.04 78.31 48.35 78.78 48.53 79.36 48.37 79.9 48.01 80.33 47.71 80.77 47.76 81.33 47.83 81.37 48.06 81.45 48.17 81.49 48.36 81.62 48.36 81.82 48.43 82.05 48.54 82.27 48.85 82.72 49.37 83.32 49.58 83.71 49.54 84.14 49.75 84.33 50.38 84.75 50.87 84.9 51 84.89 51.04 84.74 50.99 84.53 50.89 84.41 50.78 84.33 50.67 84.23 50.52 83.91 50.57 83.76 50.78 83.71 51.07 83.69 51.14 83.75 51.23 84.1 51.27 84.22 51.39 84.3 51.65 84.43 51.74 84.52 51.82 84.67 51.86 84.82 51.91 84.97 52.03 85.08 52.17 85.1 52.31 85.05 52.44 84.98 52.55 84.94 52.79 85.02 52.35 84.6 52.1 84.27 52.03 83.9 52.24 83.43 52.59 82.95 52.91 82.18 53.02 82.01 53.39 81.64 53.85 81.38 54.38 81.27 54.95 81.32 58.28 82.5 59.16 82.97 59.63 83.05 60.06 82.93 60.36 82.56 60.55 81.96 60.49 81.5 60.24 81.08 59.85 80.62 59.54 80.17 59.38 79.66 59.38 79.09 59.53 78.47 59.64 78.25 59.77 78.09 59.95 77.98 60.19 77.91 60.71 77.87 60.9 77.79 61.53 77.34 63.61 76.72 63.96 76.45 64 76.04 63.69 75.44 63.3 75.12 63.24 75.05 63 74.67 62.89 74.41 62.94 74.06 63.05 73.72 63.16 73.52 63.75 72.89 63.9 72.69 63.99 72.36 63.97 72.07 63.99 71.87 63.71 71.8 63.48 71.8 63.41 71.77 63.35 71.71 63.35 71.64 63.39 71.6 63.72 71.59 63.9 71.56 64.01 71.48 63.92 71.33 63.3 70.86 63.09 70.64 63.61 70.68 63.72 70.67 63.89 70.56 63.91 70.45 63.87 70.31 63.82 70.12 63.72 69.84 63.71 69.66 63.81 69.57 63.85 69.47 63.82 69.25 63.75 69.02 63.69 68.88 63.81 68.7 63.61 68.36 63.74 68.29 63.93 68.23 64.13 68.12 64.3 67.98 64.45 67.82 64.26 67.68 63.91 67.76 63.72 67.69 63.96 67.47 64.18 67.2 64.28 67.1 64.53 67.02 64.62 66.94 64.72 66.67 64.56 66.53 64.32 66.43 64.2 66.31 64.15 66.22 64.06 66.14 63.97 66.04 63.92 65.89 63.93 65.71 64.01 65.6 64.1 65.51 64.18 65.37 64.24 65.14 64.28 64.89 64.37 64.7 64.58 64.63 64.6 64.72 64.73 64.87 64.86 64.93 64.92 64.65 64.98 64.53 65.06 64.41 65.14 64.36 65.19 64.41 65.24 64.55 65.3 64.68 65.41 64.74 65.49 64.65 65.5 64.49 65.49 64.31 65.51 64.18 65.57 64.01 65.64 63.67 65.71 63.5 65.8 63.42 66.01 63.32 66.09 63.26 66.24 63.03 66.38 62.7 66.4 62.41 66.22 62.26 66.19 62.15 66.53 62 66.87 61.79 66.96 61.69 67.07 61.53 67.14 61.46 67.25 61.44 67.32 61.5 67.38 61.5 67.44 61.34 67.42 61.16 67.2 60.88 67.13 60.67 67.16 60.44 67.26 60.27 67.4 60.13 67.53 60.03 67.46 60.03 67.51 60 67.54 59.96 67.57 59.89 67.59 59.82 67.51 59.54 67.57 59.24 67.71 58.98 67.89 58.81 67.99 58.77 68.15 58.75 68.28 58.71 68.33 58.6 68.56 57.52 68.36 56.97 68.05 56.45"/>
  <g>
    <path d="M46.66,36.92v5.09h-1.23v-5.09h1.23Z"/>
    <path d="M48.74,41.06h1.64v.94h-2.87v-5.09h1.23v4.15Z"/>
  </g>
</svg>