<?xml version="1.0" encoding="UTF-8"?>
<svg id="INDIANA" xmlns="http://www.w3.org/2000/svg" viewBox="0 0 90 90">
  <defs>
    <style>
      .cls-1 {
        fill: #e2e2e2;
        stroke: #f9f9f9;
        stroke-linecap: round;
        stroke-linejoin: round;
        stroke-width: .03px;
      }
    </style>
  </defs>
  <polygon id="IN" class="cls-1" points="68.97 58.44 69.11 58.12 69.1 57.87 68.79 57.8 68.2 57.85 67.97 57.78 67.77 57.58 67.88 57.4 68.29 56.88 68.38 56.56 68.26 56.27 68.03 56.04 67.61 55.71 67.5 55.17 67.85 54.67 68.08 54.47 67.9 53.09 67.72 51.7 67.54 50.33 67.36 48.94 67.18 47.55 67 46.18 66.82 44.79 66.64 43.41 66.46 42.03 66.3 40.65 66.12 39.28 65.93 37.89 65.76 36.52 65.58 35.13 65.4 33.76 65.22 32.38 65.04 31 64.86 29.62 64.68 28.25 64.5 26.87 64.33 25.5 64.15 24.12 63.97 22.74 63.79 21.36 63.61 19.99 63.43 18.61 63.25 17.24 63.07 15.86 62.71 13.13 62.54 11.75 62.37 10.38 62.22 9.4 61.21 9.53 60.19 9.67 59.19 9.82 58.18 9.94 57.16 10.08 56.15 10.21 55.13 10.35 54.13 10.49 53.12 10.62 52.1 10.75 51.09 10.88 50.07 11.02 49.07 11.15 47.04 11.41 46.03 11.54 45.01 11.66 44 11.79 42.98 11.92 40.95 12.17 39.95 12.29 38.93 12.41 37.92 12.54 36.91 12.65 35.89 12.78 35.51 12.82 33.22 14.44 31.06 15.48 29.89 15.74 28.63 15.67 28.34 15.61 28.12 15.49 28.01 15.29 28.01 14.93 27.61 15.13 27.12 14.86 26.7 14.4 26.72 14.57 26.99 17.02 27.26 19.47 27.53 21.93 27.79 24.38 28.06 26.83 28.33 29.29 28.6 31.74 28.87 34.19 29.14 36.66 29.41 39.11 29.68 41.58 30.22 46.51 30.47 48.98 30.76 51.43 31.02 53.9 31.09 54.55 31.05 54.63 30.28 55.1 30.06 55.39 29.96 55.75 30.06 56.03 30.43 56.57 30.5 57.3 29.73 58.24 29.75 58.89 29.84 59.03 29.94 59.1 30.17 59.2 30.63 59.58 30.79 59.86 30.99 60.49 31.09 60.76 31.27 60.94 31.71 61.23 31.82 61.44 31.9 62.13 31.87 62.34 31.72 62.62 31.69 62.82 31.91 63.44 32.28 64.06 32.53 64.71 32.25 66.01 32.19 66.14 32.04 66.19 31.85 66.21 31.72 66.25 31.51 66.46 31.35 66.77 31.27 67.13 31.37 67.46 31.35 67.55 31.31 67.63 31.27 67.68 31.22 67.72 31.29 67.72 31.14 67.83 30.97 68 30.86 68.21 30.82 68.48 30.9 68.73 31.17 69.07 31.19 69.27 31.11 69.46 31.05 69.46 30.96 69.4 30.83 69.41 30.74 69.5 30.61 69.7 30.51 69.81 30.1 70.07 29.7 70.25 29.73 70.38 29.94 70.56 29.92 70.9 29.75 71.29 29.57 71.57 29.48 71.63 29.23 71.76 29.12 71.85 29.03 72.06 28.96 72.46 28.88 72.66 28.86 72.82 28.87 73.04 28.86 73.23 28.77 73.33 28.63 73.27 28.56 73.11 28.51 72.95 28.44 72.88 28.35 72.95 28.25 73.09 28.19 73.23 28.11 73.56 27.96 73.49 27.8 73.3 27.78 73.2 27.52 73.29 27.42 73.51 27.37 73.81 27.3 74.09 27.2 74.26 27.09 74.36 27 74.49 26.99 74.7 27.04 74.89 27.16 75 27.26 75.1 27.33 75.21 27.47 75.35 27.75 75.48 27.94 75.64 27.83 75.96 27.71 76.05 27.42 76.16 27.3 76.27 27.03 76.59 26.75 76.85 26.98 76.94 27.39 76.84 27.62 77 27.44 77.2 27.24 77.36 27 77.5 26.77 77.57 26.62 77.66 26.85 78.06 26.71 78.28 26.79 78.44 26.86 78.71 26.9 78.98 26.85 79.1 26.73 79.2 26.75 79.42 26.86 79.75 26.93 79.98 26.98 80.15 26.95 80.28 26.75 80.41 26.62 80.42 25.99 80.38 26.25 80.64 26.99 81.2 27.09 81.38 26.97 81.47 26.75 81.51 26.35 81.53 26.31 81.56 26.31 81.65 26.38 81.73 26.47 81.76 26.73 81.76 27.07 81.85 27.38 81.77 27.63 81.83 28.16 82.09 28.42 82.13 28.47 82.01 29.02 81.24 28.51 80.27 28.42 80.05 28.48 79.68 28.7 79.51 29.01 79.54 29.29 79.73 29.52 79.95 29.75 80.13 30.02 80.23 30.33 80.25 30.6 80.19 31.13 79.95 31.26 79.92 31.37 79.78 31.57 79.64 31.8 79.6 31.99 79.72 32.04 79.95 31.96 80.52 32.01 80.78 32.35 80.95 32.75 80.74 33.06 80.32 33.15 79.83 33.03 79.5 32.73 79.02 32.63 78.65 32.66 78.43 32.73 78.31 32.86 78.28 32.96 78.31 33.06 78.43 33.08 78.71 33.13 78.88 33.66 79.28 34.18 79.1 34.71 78.74 35.28 78.52 35.57 78.56 35.91 78.67 36.24 78.84 36.51 79.02 36.78 79.16 37.74 79.42 38.27 79.69 38.42 79.74 38.61 79.77 38.87 79.75 39.04 79.8 39.12 79.95 39.18 80.14 39.27 80.32 39.5 80.56 39.64 80.65 39.8 80.73 40.2 80.39 40.36 79.96 40.62 78.84 40.75 78.55 40.89 78.34 41.06 78.19 41.29 78.06 42.07 77.88 42.25 77.76 42.52 77.43 42.99 76.97 43.47 76.72 43.73 77 43.89 77.44 44.24 77.86 44.7 78.15 45.19 78.19 45.78 77.99 46.05 78.03 45.94 78.39 45.86 78.7 46.09 78.84 46.41 78.81 46.68 78.6 46.75 78.24 46.71 77.9 46.76 77.63 47.47 77.39 47.62 77.2 47.63 76.94 47.45 75.82 47.48 75.45 47.63 75.27 47.93 75.22 48.22 75.08 48.43 74.83 48.44 74.46 48.34 74.28 48.07 74.05 47.99 73.87 48.04 73.7 48.2 73.69 48.36 73.75 48.45 73.82 48.54 73.97 48.71 74 49.03 73.94 49.57 73.61 49.78 73.32 49.65 73.2 49.35 73.15 49.07 73.02 48.87 72.73 49 72.6 49.29 72.59 49.56 72.68 50.33 73.14 50.47 73.32 50.52 74.05 50.57 74.31 50.73 74.54 50.97 74.69 51.54 74.91 51.78 75.06 52.08 75.18 52.77 75.14 53.08 75.18 53.67 75.67 53.99 75.86 54.11 75.72 54.21 75.41 54.5 75.26 55.16 75.05 55.3 74.94 55.42 74.79 55.51 74.64 55.57 74.49 55.66 74.02 55.57 72.38 55.6 72.02 55.67 71.62 55.81 71.3 56.03 71.15 56.14 70.98 56.34 70.23 56.5 70 56.64 69.99 56.83 70.02 57.01 70.06 57.09 70.11 57.16 70.25 57.33 70.23 57.82 70.02 58.08 69.82 58.51 69.4 58.73 68.77 58.84 67.23 59.19 66.69 59.46 66.57 60.03 66.43 60.22 66.25 60.39 65.93 60.54 65.7 61.2 65.07 61.35 64.8 61.38 64.47 61 63.84 60.75 62.81 60.62 62.59 60.46 62.25 60.43 61.92 60.66 61.74 62.2 61.4 63.06 61.32 63.3 61.41 63.84 61.87 64.12 62 64.67 61.81 66.46 60.33 67.28 59.86 67.73 59.73 68.85 59.7 69.02 59.58 68.76 59.03 68.81 58.69 68.97 58.44"/>
  <g>
    <path d="M46.54,39.37v5.09h-1.23v-5.09h1.23Z"/>
    <path d="M51.91,44.46h-1.23l-2.06-3.12v3.12h-1.23v-5.09h1.23l2.06,3.15v-3.15h1.23v5.09Z"/>
  </g>
</svg>