<?xml version="1.0" encoding="UTF-8"?>
<svg id="IOWA" xmlns="http://www.w3.org/2000/svg" viewBox="0 0 90 90">
  <defs>
    <style>
      .cls-1 {
        fill: #e2e2e2;
        stroke: #f9f9f9;
        stroke-linecap: round;
        stroke-linejoin: round;
        stroke-width: .03px;
      }
    </style>
  </defs>
  <path id="IA" class="cls-1" d="M78.75,37.41l-.12,.34,.16,.19,.37,.16,.18,.15,.19,.2,.39,.27,1.04,.53,.38,.31,.25,.49v-.1s.09,.84,.09,.84l.13,.34,.38,.18,.28,.33,.16,.07,.16,.02,1.04,.48,.12,.1,.31,.3,.11,.07h.18s.09,.11,.09,.11l.03,.18v.22s.07,.2,.07,.2l.35,.64-.03,.18v.63l-.16,.54v.92s-.11,.67-.11,.67l-.11,.33-.19,.16-.18,.09-.45,.42-.15,.17-.13,.23-.13,.32-.08,.34-.02,.33-.14,.32,.02,.06,.06,.07,.02,.08,.03,.36v.16s-.06,.16-.06,.16l-.16,.19-.48,.33-.09,.11-.08,.21-.2,.17-.46,.22-1.13,.3-.24,.13-.39,.55-.21,.22-.49,.2-3.28,.53-.44,.34-.24,.48-.19,.61-.12,.66-.04,.64,.02,.31,.09,.36,.16,.3,.25,.11,.17,.06,.62,.39,.37,.43,.25,.6,.13,.68v.71s-.15,.55-.15,.55l-1.04,1.39-.18,.3-.1,.25-.03,.24v.66s-.03,.33-.03,.33l-.18,.62-.27,.46-.37,.31-.45,.19-.46,.09-.36,.12-.5,.27-.45,.32-.18,.28-.02,.1-.09,.17-.02,.15,.06,.12,.34,.26,.12,.24,.03,.27-.04,.46,.02,.26,.09,.38,.03,.22-.09,.16-.67,.26-.13-.11-.35-.1-.15-.1-.46-.38-.11-.13,.02-.1v-.1s-.06-.1-.06-.1l-.08-.1-.1-.07-.24-.08-.11-.07-.03-.08-.03-.08-.03-.07-.08-.02h-.12s-.06,0-.06,0l-.06-.03-.06-.09-.07-.2-.03-.06-.28-.16-.26-.04-.11-.06-.1-.1-.06-.11-.03-.14-.02-.2-.06-.08-.22-.13-.06-.07-.11-.21-.47,.03-1.11,.09-2.83,.22-2.83,.22-2.83,.21-2.84,.2-2.83,.2-2.83,.2-2.83,.19-2.84,.18-2.85,.18-2.83,.17-2.83,.16-2.85,.16-2.83,.16-2.83,.15-2.85,.13-2.85,.13h-.07l.03-.25v-.33l-.12-.33-.22-.15-.63-.22-.13-.25-.04-.13-.08-.1-.06-.11-.02-.21,.03-.16,.04-.08,.16-.18,.22-.37-.02-.12-.12-.19-.03-.18,.03-.35,.08-.28,.06-.29-.06-.37-.16-.36-.02-.19,.03-.31v-.15s-.09-.16-.09-.16l-.21-.16-.1-.11-.07-.17,.02-.14,.07-.08,.03-.08-.07-.11-.04-.08-.02-.06-.03-.04-.06-.03v-.09l.07-.1,.15-.43-.08-.2-.04-.48-.07-.23,.27-.14-.16-.11-.53-.15-.17-.18v-.25s.06-.64,.06-.64l.12-.07,.24-.28,.16-.3-.11-.12-.2-.02-.53-.16-.19-.1,.24-.96v-.17l.09-.62-.08-.15-.08-.03h-.1s-.47-.08-.47-.08l-.16-.09-.08-.17,.02-.15,.04-.19,.06-.18,.06-.07v-.05s-.08-.1-.08-.1l-.15-.1-.15-.03-.1,.03-.23,.16h-.13s-.26-.16-.26-.16l-.02-.3,.06-.3v-.12l-.17-.11-.09-.26-.04-.34-.02-.63,.03-.11,.07-.12,.11-.16,.03-.08-.02-.08-.02-.2,.04-.28,.09-.27,.03-.29-.12-.34-.71-.68-.04-.09-.2-.38-.04-.13v-.17l.11-.3,.03-.14-.16-.6-.43-.32-.48-.26-.34-.42-.06-.34v-.3s-.03-.28-.03-.28l-.13-.25-.21-.18-.39-.24-.17-.23-.12-.36,.03-.27,.09-.26,.04-.28-.03-.35-.07-.25-.13-.19-.17-.12-.02-.24-.39-.45,.03-.63,.13-.65-.18-.61-.2-.15-.27-.08-.51-.07-.02-.53-.08-.18-.07-.03-.06-.08v-.09s-.01-.12-.01-.12v-.09s-.04-.08-.04-.08l-.08-.13-.04-.07-.04-.04-.07-.03-.19-.11-.02-.05v-.03l.03-.06v-.02s.14-.1,.14-.1l.03-.07v-.07s-.06-.06-.06-.06l-.09-.1-.1-.09-.62-.42-.1-.09-.1-.11-.19-.27-.07-.15-.02-.12,.02-.2,.04-.15,.09-.21,.17-.25,.02-.07,.03-.08v-.08s.04-.08,.04-.08l.03-.07,.04-.06,.03-.04,.04-.02,.17-.08,.04-.03,.03-.06v-.08s.01-.19,.01-.19l.02-.09,.02-.07,.04-.06,.04-.03,.02-.08,.02-.11v-.4s.02-.1,.02-.1v-.03s.22-.24,.22-.24l.03-.09,.04-.18-.02-.28v-.06s0-.03,0-.03v-.02l.04-.08,.07-.2,.02-.1v-.07s-.03-.04-.03-.04l-.03-.06-.06-.08v-.08l.02-.08,.36-.36,.04-.08,.04-.11,.1-.6v-.12l-.02-.09-.03-.11-.04-.15-.11-.64-.04-.16-.03-.07-.04-.06-.07-.03h-.18s-.09,.01-.09,.01l-.25-.03-.18,.02h-.1s-.08-.03-.08-.03l-.08-.08-.02-.08v-.08s.04-.07,.04-.07l.1-.11,.03-.06-.02-.06-.06-.06-.09-.06-.1-.16v-.1s.02-.07,.02-.07l.07-.02,.17,.02,.08-.02,.06-.03,.04-.06,.02-.06,.03-.36-.02-.76-.03-.16-.04-.06-.2-.2-.09-.12-.21-.21-.06-.08-.06-.15v-.11s-.01-.13-.01-.13l.02-.17v-.1s-.04-.1-.04-.1l-.03-.08-.03-.09,.04-.04,1.6-.07,3.67-.12,3.67-.13,3.67-.15,3.68-.14,3.67-.17,3.67-.18,3.67-.19,3.67-.19,3.67-.21,3.67-.23,3.67-.22,3.66-.25,3.67-.25,3.67-.27,3.66-.27,3.67-.29v.22l.02,.18,.04,.17,.07,.16,.18,.29,.07,.13,.04,.16,.09,.41,.1,.15,.13,.09,1,.3,.3,.31,.07,.55-.18,.46-.53,.84-.09,.53,.15,1.03,.12,.5,.04,.54,.03,.17,.07,.17,.07,.68,.09,.33,.15,.24,.35,.36,.14,.2,.09,.26,.08,.63,.07,.27,.44,.71,.16,.18,.28,.17,.51,.17,1.98,.21,.53,.15h.27s.28,.08,.28,.08l.19,.2,.27,.59,.11,.17,.33,.39,.11,.21v.17s-.13,.34-.13,.34h0Z"/>
  <g>
    <path d="M43.2,44.68v5.09h-1.23v-5.09h1.23Z"/>
    <path d="M47.21,48.84h-1.91l-.32,.93h-1.3l1.86-5.05h1.42l1.86,5.05h-1.31l-.32-.93Zm-.32-.94l-.63-1.87-.64,1.87h1.27Z"/>
  </g>
</svg>