<?xml version="1.0" encoding="utf-8"?>
<!-- Generator: Adobe Illustrator 26.5.0, SVG Export Plug-In . SVG Version: 6.00 Build 0)  -->
<svg version="1.1" xmlns="http://www.w3.org/2000/svg" xmlns:xlink="http://www.w3.org/1999/xlink" x="0px" y="0px"
	 viewBox="0 0 90 90" style="enable-background:new 0 0 90 90;" xml:space="preserve">
<style type="text/css">
	.st0{fill:#CECECE;stroke:#F9F9F9;stroke-width:0.025;stroke-linecap:round;stroke-linejoin:round;}
	.st1{display:none;fill:none;stroke:#47CCCC;stroke-width:0.5;stroke-linecap:round;stroke-linejoin:round;}
	.st2{fill:#CECECE;}
</style>
<g id="ALABAMA">
</g>
<g id="ALASKA">
</g>
<g id="ARIZONA">
</g>
<g id="ARKANSAS_1_">
</g>
<g id="CALIFORNIA">
</g>
<g id="COLORADO">
</g>
<g id="CONNECTICUT">
</g>
<g id="DELAWARE">
</g>
<g id="DC">
</g>
<g id="FLORIDA">
</g>
<g id="GEORGIA">
</g>
<g id="HAWAII">
</g>
<g id="IDAHO">
</g>
<g id="IOWA">
	<path id="IA_1_" class="st0" d="M78.75,37.41l-0.12,0.34l0.16,0.19l0.37,0.16l0.18,0.15l0.19,0.2l0.39,0.27l1.04,0.53l0.38,0.31
		l0.25,0.49l-0.01-0.1l0.1,0.84l0.13,0.34l0.38,0.18l0.28,0.33l0.16,0.07l0.16,0.02l1.04,0.48l0.12,0.1l0.31,0.3l0.11,0.07
		l0.18,0.01l0.09,0.1l0.03,0.18l0.01,0.22l0.06,0.2l0.35,0.64l-0.03,0.18v0.63l-0.16,0.54l-0.01,0.92l-0.1,0.67l-0.11,0.33
		l-0.19,0.16l-0.18,0.09l-0.45,0.42l-0.15,0.17l-0.13,0.23l-0.13,0.32l-0.08,0.34l-0.02,0.33l-0.14,0.32l0.02,0.06l0.06,0.07
		l0.02,0.08l0.03,0.36l-0.01,0.16l-0.04,0.16l-0.16,0.19l-0.48,0.33l-0.09,0.11l-0.08,0.21l-0.2,0.17l-0.46,0.22l-1.13,0.3
		l-0.24,0.13l-0.39,0.55l-0.21,0.22l-0.49,0.2l-3.28,0.53l-0.44,0.34l-0.24,0.48l-0.19,0.61l-0.12,0.66l-0.04,0.64l0.02,0.31
		l0.09,0.36l0.16,0.3l0.25,0.11l0.17,0.06L76.34,58l0.37,0.43l0.25,0.6l0.13,0.68l0.01,0.71l-0.16,0.55l-1.04,1.39l-0.18,0.3
		l-0.1,0.25l-0.03,0.24l0.01,0.66l-0.04,0.33l-0.18,0.62l-0.27,0.46l-0.37,0.31l-0.45,0.19l-0.46,0.09l-0.36,0.12l-0.5,0.27
		l-0.45,0.32l-0.18,0.28l-0.02,0.1l-0.09,0.17l-0.02,0.15l0.06,0.12l0.34,0.26l0.12,0.24l0.03,0.27l-0.04,0.46l0.02,0.26l0.09,0.38
		l0.03,0.22l-0.09,0.16l-0.67,0.26l-0.13-0.11l-0.35-0.1l-0.15-0.1L71,69.15l-0.11-0.13l0.02-0.1l-0.01-0.1l-0.04-0.1l-0.08-0.1
		l-0.1-0.07l-0.24-0.08l-0.11-0.07l-0.03-0.08l-0.03-0.08l-0.03-0.07l-0.08-0.02l-0.12,0.01l-0.06-0.01l-0.06-0.03l-0.06-0.09
		l-0.07-0.2l-0.03-0.06l-0.28-0.16l-0.26-0.04L69.1,67.5l-0.1-0.1l-0.06-0.11l-0.03-0.14l-0.02-0.2l-0.06-0.08l-0.22-0.13
		l-0.06-0.07l-0.11-0.21l-0.47,0.03l-1.11,0.09l-2.83,0.22l-2.83,0.22l-2.83,0.21l-2.84,0.2l-2.83,0.2l-2.83,0.2L47,68.04
		l-2.84,0.18l-2.85,0.18l-2.83,0.17l-2.83,0.16l-2.85,0.16l-2.83,0.16l-2.83,0.15l-2.85,0.13l-2.85,0.13l0,0l0,0h-0.01l0,0h-0.01
		l0,0l0,0H21.4l0,0l0,0h-0.01l0,0l0,0h-0.01l0,0h-0.01l0.03-0.25v-0.33l-0.12-0.33l-0.22-0.15l-0.63-0.22l-0.13-0.25l-0.04-0.13
		l-0.08-0.1l-0.06-0.11l-0.02-0.21l0.03-0.16l0.04-0.08l0.16-0.18l0.22-0.37l-0.02-0.12l-0.12-0.19l-0.03-0.18l0.03-0.35l0.08-0.28
		l0.06-0.29l-0.06-0.37l-0.16-0.36l-0.02-0.19l0.03-0.31l-0.01-0.15l-0.08-0.16l-0.21-0.16l-0.1-0.11l-0.07-0.17l0.02-0.14
		l0.07-0.08L20,62.9l-0.07-0.11l-0.04-0.08l-0.02-0.06l-0.03-0.04l-0.06-0.03v-0.09l0.07-0.1l0.15-0.43l-0.08-0.2l-0.04-0.48
		l-0.07-0.23l0.27-0.14l-0.16-0.11l-0.53-0.15l-0.17-0.18l-0.01-0.25l0.07-0.64l0.12-0.07l0.24-0.28l0.16-0.3l-0.11-0.12l-0.2-0.02
		l-0.53-0.16l-0.19-0.1l0.24-0.96V57.4l0.09-0.62L19,56.64l-0.08-0.03l-0.1,0.01l-0.47-0.09l-0.16-0.09l-0.08-0.17l0.02-0.15
		l0.04-0.19l0.06-0.18l0.06-0.07l0.01-0.05l-0.09-0.1l-0.15-0.1l-0.15-0.03l-0.1,0.03l-0.23,0.16l-0.13,0.01l-0.26-0.17l-0.02-0.3
		l0.06-0.3V54.7l-0.17-0.11l-0.09-0.26l-0.04-0.34l-0.02-0.63l0.03-0.11l0.07-0.12l0.11-0.16l0.03-0.08l-0.02-0.08l-0.02-0.2
		l0.04-0.28l0.09-0.27l0.03-0.29l-0.12-0.34l-0.71-0.68l-0.04-0.09l-0.2-0.38l-0.04-0.13v-0.17l0.11-0.3l0.03-0.14l-0.16-0.6
		l-0.43-0.32l-0.48-0.26l-0.34-0.42l-0.06-0.34l-0.01-0.3l-0.02-0.28l-0.13-0.25l-0.21-0.18l-0.39-0.24l-0.17-0.23l-0.12-0.36
		l0.03-0.27l0.09-0.26l0.04-0.28l-0.03-0.35l-0.07-0.25l-0.13-0.19l-0.17-0.12l-0.02-0.24l-0.39-0.45l0.03-0.63l0.13-0.65
		l-0.18-0.61l-0.2-0.15l-0.27-0.08l-0.51-0.07l-0.02-0.53l-0.08-0.18l-0.07-0.03l-0.06-0.08l-0.01-0.09v-0.12l-0.01-0.09l-0.03-0.08
		l-0.08-0.13l-0.04-0.07l-0.04-0.04l-0.07-0.03l-0.19-0.11l-0.02-0.05v-0.03l0.03-0.06l0.01-0.02l0.13-0.1l0.03-0.07l-0.01-0.07
		l-0.04-0.06l-0.09-0.1l-0.1-0.09l-0.62-0.42l-0.1-0.09l-0.1-0.11l-0.19-0.27l-0.07-0.15l-0.02-0.12l0.02-0.2l0.04-0.15l0.09-0.21
		l0.17-0.25l0.02-0.07l0.03-0.08l0.01-0.08l0.03-0.08l0.03-0.07l0.04-0.06l0.03-0.04l0.04-0.02L11,36.41l0.04-0.03l0.03-0.06
		l0.01-0.08v-0.19l0.02-0.09l0.02-0.07l0.04-0.06l0.04-0.03l0.02-0.08l0.02-0.11l0.01-0.4l0.01-0.1l0.01-0.03l0.2-0.24l0.03-0.09
		l0.04-0.18l-0.02-0.28l-0.01-0.06l0.01-0.03v-0.02l0.04-0.08l0.07-0.2l0.02-0.1l-0.01-0.07l-0.02-0.04l-0.03-0.06l-0.06-0.08v-0.08
		l0.02-0.08l0.36-0.36L12,32.94l0.04-0.11l0.1-0.6v-0.12l-0.02-0.09l-0.03-0.11l-0.04-0.15l-0.11-0.64l-0.04-0.16l-0.03-0.07
		l-0.04-0.06l-0.07-0.03h-0.07l-0.11,0.01h-0.09l-0.25-0.03l-0.18,0.02l-0.1-0.01l-0.08-0.02l-0.08-0.08l-0.02-0.08l0.01-0.08
		l0.03-0.07l0.1-0.11l0.03-0.06l-0.02-0.06l-0.06-0.06l-0.09-0.06l-0.1-0.16l-0.01-0.1l0.03-0.07l0.07-0.02l0.17,0.02l0.08-0.02
		l0.06-0.03l0.04-0.06l0.02-0.06l0.03-0.36l-0.02-0.76l-0.03-0.16l-0.04-0.06l-0.2-0.2l-0.09-0.12l-0.21-0.21l-0.06-0.08l-0.06-0.15
		l-0.01-0.11v-0.13l0.02-0.17l-0.01-0.1l-0.03-0.1l-0.03-0.08l-0.03-0.09l0.04-0.04l1.6-0.07l3.67-0.12l3.67-0.13l3.67-0.15
		l3.68-0.14l3.67-0.17L34,25.73l3.67-0.19l3.67-0.19l3.67-0.21l3.67-0.23l3.67-0.22L56,24.44l3.67-0.25l3.67-0.27l3.66-0.27
		l3.67-0.29v0.02v0.19l0.02,0.18l0.04,0.17l0.07,0.16l0.18,0.29l0.07,0.13l0.04,0.16l0.09,0.41l0.1,0.15l0.13,0.09l1,0.3l0.3,0.31
		l0.07,0.55l-0.18,0.46l-0.53,0.84l-0.09,0.53l0.15,1.03l0.12,0.5l0.04,0.54l0.03,0.17l0.07,0.17l0.07,0.68l0.09,0.33l0.15,0.24
		l0.35,0.36l0.14,0.2l0.09,0.26l0.08,0.63l0.07,0.27l0.44,0.71l0.16,0.18l0.28,0.17l0.51,0.17l1.98,0.21l0.53,0.15l0.27,0.01
		l0.28,0.07l0.19,0.2l0.27,0.59l0.11,0.17l0.33,0.39l0.11,0.21l-0.01,0.17L78.75,37.41L78.75,37.41z"/>
</g>
<g id="ILLINOIS">
</g>
<g id="INDIANA">
</g>
<g id="KANSAS">
</g>
<g id="KETUCKY">
</g>
<g id="LOUISANA">
</g>
<g id="MAINE">
</g>
<g id="MARYLAND">
</g>
<g id="MASSACHUSETTS">
</g>
<g id="MICHIGAN">
</g>
<g id="MINNESOTA">
</g>
<g id="MISSOURI">
</g>
<g id="MISSISSIPPI">
</g>
<g id="MONTANA">
</g>
<g id="NORTH_CAROLINA">
</g>
<g id="NORTH_DAKOTA">
</g>
<g id="NEBRASKA">
</g>
<g id="NEW_HAMPSHIRE">
</g>
<g id="NEW_JERSEY">
</g>
<g id="NEW_YORK">
</g>
<g id="NEW_MEXICO">
</g>
<g id="NEVADA">
</g>
<g id="OHIO">
</g>
<g id="OKLAHOMA">
</g>
<g id="OREGON">
</g>
<g id="PENNSYLVANIA">
</g>
<g id="RHODE_ISLAND">
</g>
<g id="SOUTH_CAROLINA">
</g>
<g id="SOUTH_DAKOTA">
</g>
<g id="TENNESSEE">
</g>
<g id="TEXAS">
</g>
<g id="UTAH">
</g>
<g id="VIRGINIA">
</g>
<g id="VERMONT">
</g>
<g id="WASHINGTON">
</g>
<g id="WISCONSIN">
</g>
<g id="WEST_VIRGINIA">
</g>
<g id="WYOMING">
</g>
</svg>
