<?xml version="1.0" encoding="utf-8"?>
<!-- Generator: Adobe Illustrator 26.5.0, SVG Export Plug-In . SVG Version: 6.00 Build 0)  -->
<svg version="1.1" xmlns="http://www.w3.org/2000/svg" xmlns:xlink="http://www.w3.org/1999/xlink" x="0px" y="0px"
	 viewBox="0 0 90 90" style="enable-background:new 0 0 90 90;" xml:space="preserve">
<style type="text/css">
	.st0{fill:#CECECE;stroke:#F9F9F9;stroke-width:0.025;stroke-linecap:round;stroke-linejoin:round;}
	.st1{display:none;fill:none;stroke:#47CCCC;stroke-width:0.5;stroke-linecap:round;stroke-linejoin:round;}
	.st2{fill:#CECECE;}
</style>
<g id="ALABAMA">
</g>
<g id="ALASKA">
</g>
<g id="ARIZONA">
</g>
<g id="ARKANSAS_1_">
</g>
<g id="CALIFORNIA">
</g>
<g id="COLORADO">
</g>
<g id="CONNECTICUT">
</g>
<g id="DELAWARE">
</g>
<g id="DC">
</g>
<g id="FLORIDA">
</g>
<g id="GEORGIA">
</g>
<g id="HAWAII">
</g>
<g id="IDAHO">
</g>
<g id="IOWA">
</g>
<g id="ILLINOIS">
</g>
<g id="INDIANA">
</g>
<g id="KANSAS">
	<path id="KA_1_" class="st0" d="M85.21,64.11l-2.49,0.12l-2.48,0.11l-2.5,0.11l-2.49,0.11l-2.49,0.1l-2.49,0.09l-2.49,0.09
		l-2.5,0.08l-2.49,0.07l-2.49,0.08l-2.49,0.06l-2.5,0.06l-2.48,0.06l-2.5,0.05l-2.48,0.05l-2.49,0.04l-2.5,0.04l-2.49,0.02
		l-2.5,0.03l-2.49,0.02l-2.51,0.01l-2.49,0.01l-2.49,0.01h-2.5l-2.5-0.01l-2.49-0.01l-2.5-0.02l-2.5-0.02l-2.49-0.03l-2.49-0.03
		l-2.49-0.04l-2.5-0.04l0.02-1.26l0.02-1.25l0.02-1.26l0.02-1.26l0.02-1.25l0.02-1.26l0.02-1.25l0.01-1.26l0.02-1.25l0.02-1.26
		l0.02-1.25l0.02-1.26l0.02-1.25l0.02-1.25l0.02-1.26l0.01-1.25l0.02-1.25l0.02-1.26l0.02-1.25l0.02-1.25l0.02-1.25l0.02-1.26
		l0.02-1.25l0.02-1.25l0.02-1.25l0.02-1.25l0.02-1.25l0.01-1.25l0.02-1.25l0.02-1.25l0.02-1.25L6,25.32l2.19,0.03l2.19,0.04
		l2.19,0.03l2.2,0.02l2.19,0.02l2.19,0.02l2.19,0.01l2.19,0.01l2.2,0.01h2.19h2.19l2.19-0.01l2.2-0.01l2.19-0.02l2.18-0.02
		l2.19-0.02l2.19-0.03l2.19-0.04l2.18-0.03l2.19-0.04l2.2-0.05l2.19-0.05l2.19-0.05l2.19-0.06l2.19-0.06l2.19-0.07l2.19-0.07
		l2.2-0.07l2.19-0.08l2.19-0.08l2.18-0.09l2.2-0.09l0.61,0.52l0.15,0.2l0.12,0.02l0.13,0.02l0.09,0.04l0.08,0.11l0.04,0.11
		l0.06,0.09l0.09,0.08l0.09,0.02l0.22,0.02l0.12,0.04l0.12,0.08l0.3,0.31l0.22,0.1l0.24-0.08L78.86,26l0.31-0.29l0.15-0.09
		l0.18-0.05l0.24-0.02l0.14,0.07l0.08,0.15v0.18l-0.08,0.14l0.16,0.18l0.47,0.25l0.11,0.14l-0.01,0.13l-0.03,0.27l-0.01,0.15
		l0.05,0.16l0.08,0.09l0.06,0.09l-0.01,0.15l-0.16,0.17h-0.24l-0.51-0.13l-0.08,0.05l-0.05,0.11l-0.03,0.14l-0.01,0.33l-0.06,0.08
		l-0.09,0.05l-0.11,0.08l-0.32,0.35l-0.15,0.23l-0.07,0.23l0.03,0.29l-0.01,0.15l-0.03,0.11l-0.11,0.08l-0.28,0.03l-0.08,0.04v0.28
		l0.14,0.26l0.19,0.2l0.19,0.07l0.06,0.1l0.26,0.46l0.11,0.15l0.08,0.05l0.2,0.08l0.46,0.29l0.04,0.08l0.07,0.21l0.05,0.07
		l0.47,0.08l-0.09,0.24l0.11,0.53l0.26,0.52l0.36,0.23l0.11,0.12l0.03,0.28l0.06,0.28l0.2,0.12l0.22,0.05l0.48,0.29l0.24,0.08
		L83,35.16l0.16,0.01l0.11-0.02l0.05,0.01l0.06,0.04l0.02,0.11l0.04,0.02l0.25,0.01l0.18,0.06l0.02,0.11l-0.14,0.17l0.02,0.02v0.04
		l0.01,0.04l0.05,0.02l0.01,0.09l0.04,0.98l0.09,1.7l0.08,1.7l0.08,1.71l0.08,1.7l0.09,1.71l0.08,1.7l0.08,1.71l0.08,1.7l0.09,1.71
		l0.08,1.71l0.08,1.71l0.09,1.71l0.08,1.7l0.08,1.71l0.09,1.71L85.21,64.11L85.21,64.11z"/>
</g>
<g id="KETUCKY">
</g>
<g id="LOUISANA">
</g>
<g id="MAINE">
</g>
<g id="MARYLAND">
</g>
<g id="MASSACHUSETTS">
</g>
<g id="MICHIGAN">
</g>
<g id="MINNESOTA">
</g>
<g id="MISSOURI">
</g>
<g id="MISSISSIPPI">
</g>
<g id="MONTANA">
</g>
<g id="NORTH_CAROLINA">
</g>
<g id="NORTH_DAKOTA">
</g>
<g id="NEBRASKA">
</g>
<g id="NEW_HAMPSHIRE">
</g>
<g id="NEW_JERSEY">
</g>
<g id="NEW_YORK">
</g>
<g id="NEW_MEXICO">
</g>
<g id="NEVADA">
</g>
<g id="OHIO">
</g>
<g id="OKLAHOMA">
</g>
<g id="OREGON">
</g>
<g id="PENNSYLVANIA">
</g>
<g id="RHODE_ISLAND">
</g>
<g id="SOUTH_CAROLINA">
</g>
<g id="SOUTH_DAKOTA">
</g>
<g id="TENNESSEE">
</g>
<g id="TEXAS">
</g>
<g id="UTAH">
</g>
<g id="VIRGINIA">
</g>
<g id="VERMONT">
</g>
<g id="WASHINGTON">
</g>
<g id="WISCONSIN">
</g>
<g id="WEST_VIRGINIA">
</g>
<g id="WYOMING">
</g>
</svg>
