<?xml version="1.0" encoding="UTF-8"?>
<svg id="KANSAS" xmlns="http://www.w3.org/2000/svg" viewBox="0 0 90 90">
  <defs>
    <style>
      .cls-1 {
        fill: #e2e2e2;
        stroke: #f9f9f9;
        stroke-linecap: round;
        stroke-linejoin: round;
        stroke-width: .03px;
      }
    </style>
  </defs>
  <path id="KA" class="cls-1" d="M85.21,64.11l-2.49,.12-2.48,.11-2.5,.11-2.49,.11-2.49,.1-2.49,.09-2.49,.09-2.5,.08-2.49,.07-2.49,.08-2.49,.06-2.5,.06-2.48,.06-2.5,.05-2.48,.05-2.49,.04-2.5,.04-2.49,.02-2.5,.03-2.49,.02h-2.51s-2.49,.02-2.49,.02h-2.49s-2.5,0-2.5,0h-2.5s-2.49-.02-2.49-.02l-2.5-.02-2.5-.02-2.49-.03-2.49-.03-2.49-.04-2.5-.04,.02-1.26,.02-1.25,.02-1.26,.02-1.26,.02-1.25,.02-1.26,.02-1.25v-1.26s.03-1.25,.03-1.25l.02-1.26,.02-1.25,.02-1.26,.02-1.25,.02-1.25,.02-1.26v-1.25s.03-1.25,.03-1.25l.02-1.26,.02-1.25,.02-1.25,.02-1.25,.02-1.26,.02-1.25,.02-1.25,.02-1.25,.02-1.25,.02-1.25v-1.25s.03-1.25,.03-1.25l.02-1.25,.02-1.25,.02-1.24,2.19,.03,2.19,.04,2.19,.03,2.2,.02,2.19,.02,2.19,.02h2.19s2.19,.02,2.19,.02h2.2s2.19,0,2.19,0h4.37s2.2-.02,2.2-.02l2.19-.02,2.18-.02,2.19-.02,2.19-.03,2.19-.04,2.18-.03,2.19-.04,2.2-.05,2.19-.05,2.19-.05,2.19-.06,2.19-.06,2.19-.07,2.19-.07,2.2-.07,2.19-.08,2.19-.08,2.18-.09,2.2-.09,.61,.52,.15,.2,.12,.02,.13,.02,.09,.04,.08,.11,.04,.11,.06,.09,.09,.08,.09,.02,.22,.02,.12,.04,.12,.08,.3,.31,.22,.1,.24-.08,.21-.15,.31-.29,.15-.09,.18-.05,.24-.02,.14,.07,.08,.15v.18l-.08,.14,.16,.18,.47,.25,.11,.14v.13s-.04,.27-.04,.27v.15s.04,.16,.04,.16l.08,.09,.06,.09v.15s-.17,.17-.17,.17h-.24l-.51-.13-.08,.05-.05,.11-.03,.14v.33s-.07,.08-.07,.08l-.09,.05-.11,.08-.32,.35-.15,.23-.07,.23,.03,.29v.15s-.04,.11-.04,.11l-.11,.08-.28,.03-.08,.04v.28l.14,.26,.19,.2,.19,.07,.06,.1,.26,.46,.11,.15,.08,.05,.2,.08,.46,.29,.04,.08,.07,.21,.05,.07,.47,.08-.09,.24,.11,.53,.26,.52,.36,.23,.11,.12,.03,.28,.06,.28,.2,.12,.22,.05,.48,.29,.24,.08,.32-.03h.16s.11,0,.11,0h.05s.06,.05,.06,.05l.02,.11,.04,.02h.25s.18,.07,.18,.07l.02,.11-.14,.17,.02,.02v.08s.06,.02,.06,.02v.09s.05,.98,.05,.98l.09,1.7,.08,1.7,.08,1.71,.08,1.7,.09,1.71,.08,1.7,.08,1.71,.08,1.7,.09,1.71,.08,1.71,.08,1.71,.09,1.71,.08,1.7,.08,1.71,.09,1.71,.08,1.71h0Z"/>
  <g>
    <path d="M40.25,46.43l2.05,2.6h-1.49l-1.73-2.28v2.28h-1.23v-5.09h1.23v2.24l1.74-2.24h1.48l-2.05,2.49Z"/>
    <path d="M46.27,48.33c-.14,.23-.34,.41-.6,.54-.27,.13-.59,.2-.97,.2-.57,0-1.04-.14-1.41-.42s-.57-.67-.6-1.17h1.31c.02,.19,.09,.34,.21,.45s.27,.17,.45,.17c.16,0,.28-.04,.37-.13s.14-.2,.14-.35c0-.13-.04-.24-.13-.32-.08-.09-.19-.16-.31-.21-.12-.06-.3-.12-.52-.2-.32-.11-.58-.22-.79-.32-.2-.1-.38-.26-.53-.46s-.22-.47-.22-.8c0-.3,.08-.56,.23-.79,.15-.22,.37-.39,.64-.51s.58-.18,.93-.18c.57,0,1.02,.13,1.35,.4,.33,.27,.52,.64,.56,1.11h-1.33c-.02-.17-.09-.3-.18-.4-.1-.1-.23-.15-.4-.15-.14,0-.26,.04-.35,.11-.09,.08-.13,.19-.13,.34,0,.12,.04,.22,.12,.31s.18,.15,.3,.21c.12,.05,.29,.12,.52,.2,.33,.11,.59,.22,.8,.33,.21,.11,.38,.27,.53,.47,.15,.21,.22,.48,.22,.81,0,.27-.07,.52-.21,.74Z"/>
  </g>
</svg>