<?xml version="1.0" encoding="UTF-8"?>
<svg id="KETUCKY" xmlns="http://www.w3.org/2000/svg" viewBox="0 0 90 90">
  <defs>
    <style>
      .cls-1 {
        fill: #e2e2e2;
        stroke: #f9f9f9;
        stroke-linecap: round;
        stroke-linejoin: round;
        stroke-width: .03px;
      }
    </style>
  </defs>
  <path id="KY" class="cls-1" d="M84.86,42.38h-.12s-.3,.13-.3,.13h-.12s-.87-.12-.87-.12l-.16-.05-.08-.07v-.07s0-.08,0-.08l-.03-.06-.03-.06-.05-.05-.1-.08-.36-.24h-.09l-.05,.03-.04,.03-.03-.02-.23-.25-.12-.09-.09-.04-.09-.03-.43-.09-.1-.04-.06-.07-.08-.19-.22-.4-.02-.07v-.07s-.11-.13-.11-.13l-.16-.16-.76-.56-.03-.05-.04-.06-.05-.13-.12-.4-.03-.09-.06-.08-.1-.13-.07-.06-.07-.05-.47-.23-.06-.06-.02-.07v-.04s.11-.23,.11-.23l.02-.06v-.05l-.03-.06-.05-.1-.07-.07-.04-.04-.65-.41-.09-.08-.07-.11-.09-.18-.07-.11-.95-.97-.08-.11-.02-.06v-.11l.02-.03,.03-.04,.16-.17,.07-.1,.02-.06v-.05s0-.07,0-.07l-.05-.22v-.13s.03-.04,.03-.04l.05-.03,.13-.04,.04-.04,.02-.05v-.07s-.02-.07-.02-.07l-.02-.07-.03-.14-.02-.29v-.17l-.03-.13-.06-.15-.25-.37-.05-.1v-.03s-.02-.05-.02-.05v-.34s-.03-.15-.03-.15v-.08s-.14-.14-.14-.14l-.23-.39-.14-.17-.86-.63-.43-.19-.5-.09-.49-.18-.38-.45-.38-.82-.07-.24-.04-.25-.06-.19-.14-.07-.27,.09-.58,.41-.25,.08-.2,.1-.14,.18-.12,.21-.13,.16-.25,.15-.08,.08-.04,.11-.07,.28-.06,.15-.17,.14-.21,.05-.48-.02-.23,.06-.15,.12-.11,.13-.35,.14-.09-.02-.15-.12-.31-.36-.08-.08-.15-.08-.31-.09h-.15s-.37,.05-.37,.05l-.1-.03-.2-.15-.21-.1-.22-.06-.22,.02-.7,.34-.11,.1v.24s-.1,.24-.1,.24l-.17,.18-.2,.1-.46-.03-.45-.21-.79-.6-.2-.19-.17-.21-.19-.17-.46-.06-.44-.14h-.25l-.89,.31h-.24s-1.21-.25-1.21-.25l-.24-.14-.13-.21-.06-.31-.07-.25-.1-.23-.14-.2-.12-.11-.16-.11-.15-.13-.08-.18-.05-.22-.1-.23-.14-.21-.18-.14-.47-.17-.26-.06h-.21s-.13-.1-.13-.1l-.15-.21-.18-.23-.23-.09-.43,.15-.82,.52-.44,.02-.6-.45-.17-.07-.06-.03-.16-.18-.1-.03-.13,.04-.08,.09-.14,.21-.53,.43-.18,.15-.26,.38,.08,.41,.32,.25,.18,.18,.09,.22-.07,.25-.31,.4-.08,.14,.15,.15,.18,.06,.45-.04,.24,.05v.2s-.1,.24-.1,.24l-.12,.19-.04,.26,.2,.41-.13,.1-.85,.02-.34,.1-.62,.36-1.37,1.12-.41,.15-.21-.1-.41-.35-.19-.07-.65,.06-1.17,.26-.18,.14,.03,.25,.12,.26,.1,.17,.2,.78,.28,.48-.02,.25-.12,.21-.5,.48-.12,.18-.13,.24-.15,.14-.43,.11-.21,.09-.27,.41-.09,1.17-.17,.48-.33,.32-.2,.15-.37,.17h-.13s-.06-.1-.06-.1l-.06-.04-.14-.03-.15-.02h-.11s-.12,.19-.12,.19l-.16,.57-.08,.13-.17,.12-.11,.24-.06,.3-.02,.27,.07,1.25-.07,.35-.05,.12-.07,.12-.09,.11-.11,.09-.5,.16-.22,.12-.08,.23-.09,.11-.24-.15-.45-.37-.23-.03-.53,.03-.22-.09-.19-.12-.43-.17-.19-.12-.12-.18-.04-.2-.04-.56-.11-.14-.59-.35-.21-.07h-.22s-.1,.11-.1,.11l.16,.22,.21,.1,.22,.04,.1,.09-.16,.23-.41,.25-.25,.05-.13-.02-.07-.12-.07-.05-.13-.05h-.12s-.04,.14-.04,.14l.06,.14,.21,.18,.08,.14v.28s-.17,.19-.17,.19l-.22,.11-.22,.04-.12,.14-.02,.28,.14,.85v.2s-.13,.15-.13,.15l-.54,.19-.04,.21,.03,.25-.05,.27-.21,.17-.24,.02-.18-.11,.06-.23,.09-.27-.21-.03-.45,.15-.37-.03-.35-.22-.26-.32-.13-.33-.2-.21-.36,.19-.36,.35-.21,.25-.14,.09-.6,.14-.18,.1-.13,.12-.11,.16-.1,.22-.2,.85-.13,.33-.3,.25-.12-.06-.11-.07-.18-.19-.07-.14-.05-.15-.06-.11-.13-.04h-.2s-.15,0-.15,0l-.12-.04-.4-.21-.73-.2-.21-.11-.2-.14-.25-.13-.26-.09-.22-.03-.43,.17-.4,.27-.4,.14-.4-.3-.04-.13-.02-.21-.07-.09-.08-.03-.1,.03-.06,.09-.02,.17,.08,.28,.23,.36,.09,.25-.07,.37-.24,.32-.3,.16-.25-.13-.04-.2,.06-.44-.04-.18-.15-.09-.18,.03-.15,.11-.09,.11-.1,.02-.4,.19-.2,.05-.24-.02-.2-.08-.18-.14-.18-.17-.21-.15-.23-.02-.17,.13-.05,.28,.07,.17,.39,.74-.42,.59-.04,.09-.2-.03-.4-.2-.2-.05-.24,.06-.02,.18,.02,.26-.08,.3-.14,.19-.54,.57-.1,.19-.11,.3-.04,.32,.1,.23,.21,.34,.06,.07,.35,.29,.28,.54-.04,.37-.31,.25-1.89,.56-.58,.41-.18,.07-.47,.04-.21,.06-.17,.11-.12,.15-.1,.2-.14,.57v.52l.15,.46,.27,.41,.36,.42,.22,.38,.05,.41-.17,.55-.27,.34-.39,.11-.43-.08-.8-.42-3.02-1.08-.52-.05-.48,.11-.42,.24-.33,.33-.1,.16-.29,.69-.32,.44-.19,.43,.06,.33,.22,.3,.4,.38,.08,.23-.02,.58,.06,.41v.13l-.05,.1-.09,.12-.09,.15-.03,.16,.07,.27,.21,.44,.05,.29-.05,.35-.33,.95-.19,.77-.2,.38-.27,.18-.34-.09-.3-.22-.29-.27-.28-.21-.11,.08-.06,.08-.08,.23-.11,.5v.2s-.12,.63-.12,.63l-.05,.16,1.83-.18,1.84-.18,1.82-.19,1.84-.19,1.82-.19,1.83-.19,1.83-.2,1.83-.2v-.31l-.04-.47-.04-.2-.21-.66-.25-.6-.04-.13v-.07s0-.02,0-.02h.05s.58-.02,.58-.02h.96s.59-.02,.59-.02l.09,.02,.06,.07,.09,.18,.06,.07,.06,.04,.06-.02,.43-.05,.15-.02,.4-.05,.62-.08,.81-.1,.96-.13,1.06-.13,1.14-.15,1.17-.16,1.18-.15,1.13-.15,1.07-.15,.96-.13,.8-.1,.62-.09,.4-.05,.14-.02,.46-.07,.36-.13,.1-.02,.46-.04,.31-.03,.91-.08,1.4-.13,1.82-.17,2.15-.2,2.4-.23,2.57-.25,2.65-.26,2.65-.27,2.56-.26,2.4-.25,2.15-.22,1.82-.21,1.4-.16,.9-.1,.32-.03,.51-.07,.36-.16,.26-.18,.4-.46,.2-.13,.07-.02,.87-.48,1-.25,.11-.05,.07-.06,.12-.14,.38-.29,1.03-.52,1.05-.33,.08-.06,.06-.06v-.06s0-.07,0-.07l-.04-.12v-.05l.02-.05,.11-.16,.05-.13,.14-.45,.18-.25,.05-.04,.07-.03,.45-.08,.61-.35,.6-.34,.15-.11,.04-.06,.03-.06v-.07s.03-.07,.03-.07v-.26s-.04-.15-.04-.15l-.02-.07-.03-.21,.04-.12,.09-.13,.23-.23,.85-.6,.1-.09,.03-.06,.03-.06,.02-.08v-.16l-.06-.28-.07-.2v-.09s.06-.14,.06-.14l.17-.21,.45-.43,1.02-.71,.76-.54,.69-.49,.22-.21,.78-.9,.86-1,.55-.65,.77-.89,.5-.59-.21-.08ZM7.28,65.36l-.33,.18-.05,.47,.12,.16,.11,.11,.69-.09,.04-.18-.19-.51-.38-.14Z"/>
  <g>
    <path d="M56.56,46.54l2.05,2.6h-1.49l-1.73-2.28v2.28h-1.23v-5.09h1.23v2.24l1.74-2.24h1.48l-2.05,2.49Z"/>
    <path d="M63.53,44.05l-1.76,3.4v1.69h-1.24v-1.69l-1.76-3.4h1.41l.98,2.07,.98-2.07h1.4Z"/>
  </g>
</svg>