<?xml version="1.0" encoding="utf-8"?>
<!-- Generator: Adobe Illustrator 26.5.0, SVG Export Plug-In . SVG Version: 6.00 Build 0)  -->
<svg version="1.1" xmlns="http://www.w3.org/2000/svg" xmlns:xlink="http://www.w3.org/1999/xlink" x="0px" y="0px"
	 viewBox="0 0 90 90" style="enable-background:new 0 0 90 90;" xml:space="preserve">
<style type="text/css">
	.st0{fill:#CECECE;stroke:#F9F9F9;stroke-width:0.025;stroke-linecap:round;stroke-linejoin:round;}
	.st1{display:none;fill:none;stroke:#47CCCC;stroke-width:0.5;stroke-linecap:round;stroke-linejoin:round;}
	.st2{fill:#CECECE;}
</style>
<g id="ALABAMA">
</g>
<g id="ALASKA">
</g>
<g id="ARIZONA">
</g>
<g id="ARKANSAS_1_">
</g>
<g id="CALIFORNIA">
</g>
<g id="COLORADO">
</g>
<g id="CONNECTICUT">
</g>
<g id="DELAWARE">
</g>
<g id="DC">
</g>
<g id="FLORIDA">
</g>
<g id="GEORGIA">
</g>
<g id="HAWAII">
</g>
<g id="IDAHO">
</g>
<g id="IOWA">
</g>
<g id="ILLINOIS">
</g>
<g id="INDIANA">
</g>
<g id="KANSAS">
</g>
<g id="KETUCKY">
	<path id="KY_1_" class="st0" d="M84.86,42.38l-0.12,0.01l-0.3,0.12l-0.12,0.01l-0.87-0.13l-0.16-0.05l-0.08-0.07l-0.01-0.07v-0.08
		l-0.03-0.06l-0.03-0.06l-0.05-0.05L83,41.88l-0.36-0.24h-0.09l-0.05,0.03l-0.04,0.03l-0.03-0.02l-0.23-0.25l-0.12-0.09l-0.09-0.04
		l-0.09-0.03l-0.43-0.09l-0.1-0.04l-0.06-0.07l-0.08-0.19l-0.22-0.4l-0.02-0.07l-0.01-0.07l-0.1-0.13l-0.16-0.16l-0.76-0.56
		l-0.03-0.05l-0.04-0.06l-0.05-0.13l-0.12-0.4l-0.03-0.09l-0.06-0.08l-0.1-0.13l-0.07-0.06l-0.07-0.05l-0.47-0.23l-0.06-0.06
		l-0.02-0.07l0.01-0.04l0.1-0.23l0.02-0.06v-0.05l-0.03-0.06l-0.05-0.1l-0.07-0.07l-0.04-0.04l-0.65-0.41l-0.09-0.08L78,36.88
		l-0.09-0.18l-0.07-0.11l-0.95-0.97l-0.08-0.11l-0.02-0.06v-0.06v-0.05l0.02-0.03l0.03-0.04L77,35.12l0.07-0.1l0.02-0.06l0.01-0.05
		v-0.07l-0.05-0.22v-0.07l0.01-0.06l0.02-0.04l0.05-0.03l0.13-0.04l0.04-0.04l0.02-0.05l-0.01-0.07l-0.01-0.07l-0.02-0.07
		l-0.03-0.14l-0.02-0.29v-0.17l-0.03-0.13l-0.06-0.15l-0.25-0.37l-0.05-0.1l-0.01-0.03l-0.01-0.05l-0.01-0.34l-0.02-0.15l-0.01-0.08
		l-0.13-0.14l-0.23-0.39l-0.14-0.17l-0.86-0.63l-0.43-0.19l-0.5-0.09L74,30.35l-0.38-0.45l-0.38-0.82l-0.07-0.24l-0.04-0.25
		l-0.06-0.19l-0.14-0.07l-0.27,0.09l-0.58,0.41l-0.25,0.08l-0.2,0.1l-0.14,0.18l-0.12,0.21l-0.13,0.16l-0.25,0.15l-0.08,0.08
		l-0.04,0.11l-0.07,0.28l-0.06,0.15l-0.17,0.14l-0.21,0.05l-0.48-0.02l-0.23,0.06l-0.15,0.12l-0.11,0.13l-0.35,0.14l-0.09-0.02
		l-0.15-0.12l-0.31-0.36l-0.08-0.08l-0.15-0.08l-0.31-0.09l-0.15-0.01l-0.37,0.06l-0.1-0.03l-0.2-0.15l-0.21-0.1l-0.22-0.06
		L66.5,29.9l-0.7,0.34l-0.11,0.1l-0.01,0.24l-0.09,0.24l-0.17,0.18l-0.2,0.1l-0.46-0.03l-0.45-0.21l-0.79-0.6l-0.2-0.19l-0.17-0.21
		l-0.19-0.17l-0.46-0.06l-0.44-0.14h-0.25l-0.89,0.31l-0.24,0.01l-1.21-0.26l-0.24-0.14l-0.13-0.21l-0.06-0.31L59,28.65l-0.1-0.23
		l-0.14-0.2l-0.12-0.11l-0.16-0.11l-0.15-0.13l-0.08-0.18l-0.05-0.22l-0.1-0.23l-0.14-0.21l-0.18-0.14l-0.47-0.17l-0.26-0.06
		l-0.21-0.01l-0.13-0.09l-0.15-0.21l-0.18-0.23l-0.23-0.09l-0.43,0.15l-0.82,0.52l-0.44,0.02l-0.6-0.45l-0.17-0.07l-0.06-0.03
		l-0.16-0.18L53.42,26l-0.13,0.04l-0.08,0.09l-0.14,0.21l-0.53,0.43l-0.18,0.15l-0.26,0.38l0.08,0.41l0.32,0.25l0.18,0.18l0.09,0.22
		l-0.07,0.25l-0.31,0.4l-0.08,0.14l0.15,0.15l0.18,0.06l0.45-0.04l0.24,0.05l0.01,0.2l-0.11,0.24l-0.12,0.19l-0.04,0.26l0.2,0.41
		l-0.13,0.1l-0.85,0.02l-0.34,0.1l-0.62,0.36l-1.37,1.12l-0.41,0.15l-0.21-0.1l-0.41-0.35l-0.19-0.07l-0.65,0.06l-1.17,0.26
		l-0.18,0.14l0.03,0.25l0.12,0.26l0.1,0.17l0.2,0.78l0.28,0.48l-0.02,0.25l-0.12,0.21l-0.5,0.48l-0.12,0.18l-0.13,0.24l-0.15,0.14
		l-0.43,0.11l-0.21,0.09l-0.27,0.41l-0.09,1.17l-0.17,0.48l-0.33,0.32l-0.2,0.15l-0.37,0.17l-0.13,0.01l-0.06-0.11l-0.06-0.04
		l-0.14-0.03l-0.15-0.02l-0.11,0.01l-0.12,0.18l-0.16,0.57l-0.08,0.13l-0.17,0.12l-0.11,0.24l-0.06,0.3l-0.02,0.27l0.07,1.25
		L43.02,42l-0.05,0.12l-0.07,0.12l-0.09,0.11l-0.11,0.09l-0.5,0.16l-0.22,0.12l-0.08,0.23l-0.09,0.11l-0.24-0.15l-0.45-0.37
		l-0.23-0.03l-0.53,0.03l-0.22-0.09l-0.19-0.12l-0.43-0.17l-0.19-0.12l-0.12-0.18l-0.04-0.2l-0.04-0.56l-0.11-0.14l-0.59-0.35
		l-0.21-0.07l-0.22,0.01l-0.1,0.1l0.16,0.22l0.21,0.1l0.22,0.04l0.1,0.09l-0.16,0.23l-0.41,0.25l-0.25,0.05l-0.13-0.02l-0.07-0.12
		l-0.07-0.05l-0.13-0.05l-0.12,0.01l-0.04,0.13l0.06,0.14l0.21,0.18l0.08,0.14l-0.01,0.28l-0.16,0.19l-0.22,0.11l-0.22,0.04
		l-0.12,0.14l-0.02,0.28l0.14,0.85l-0.01,0.2l-0.12,0.15L36.3,44.4l-0.04,0.21l0.03,0.25l-0.05,0.27l-0.21,0.17l-0.24,0.02
		l-0.18-0.11l0.06-0.23l0.09-0.27l-0.21-0.03l-0.45,0.15l-0.37-0.03l-0.35-0.22l-0.26-0.32L34,43.92l-0.2-0.21l-0.36,0.19
		l-0.36,0.35l-0.21,0.25l-0.14,0.09l-0.6,0.14l-0.18,0.1l-0.13,0.12l-0.11,0.16l-0.1,0.22l-0.2,0.85l-0.13,0.33L31,46.76l-0.12-0.06
		l-0.11-0.07l-0.18-0.19l-0.07-0.14l-0.05-0.15l-0.06-0.11l-0.13-0.04l-0.2,0.01L29.95,46l-0.12-0.04l-0.4-0.21l-0.73-0.2
		l-0.21-0.11l-0.2-0.14l-0.25-0.13l-0.26-0.09l-0.22-0.03l-0.43,0.17l-0.4,0.27l-0.4,0.14l-0.4-0.3l-0.04-0.13L25.87,45l-0.07-0.09
		l-0.08-0.03l-0.1,0.03L25.56,45l-0.02,0.17l0.08,0.28l0.23,0.36l0.09,0.25l-0.07,0.37l-0.24,0.32l-0.3,0.16l-0.25-0.13l-0.04-0.2
		l0.06-0.44l-0.04-0.18l-0.15-0.09l-0.18,0.03l-0.15,0.11l-0.09,0.11l-0.1,0.02L24,46.34l-0.2,0.05l-0.24-0.02l-0.2-0.08l-0.18-0.14
		L23,45.99l-0.21-0.15l-0.23-0.02l-0.17,0.13l-0.05,0.28l0.07,0.17l0.39,0.74l-0.42,0.59l-0.04,0.09l-0.2-0.03l-0.4-0.2l-0.2-0.05
		l-0.24,0.06l-0.02,0.18l0.02,0.26l-0.08,0.3l-0.14,0.19l-0.54,0.57l-0.1,0.19l-0.11,0.3l-0.04,0.32l0.1,0.23l0.21,0.34l0.06,0.07
		l0.35,0.29l0.28,0.54l-0.04,0.37l-0.31,0.25l-1.89,0.56l-0.58,0.41l-0.18,0.07l-0.47,0.04l-0.21,0.06l-0.17,0.11l-0.12,0.15
		l-0.1,0.2l-0.14,0.57v0.52l0.15,0.46l0.27,0.41l0.36,0.42l0.22,0.38l0.05,0.41l-0.17,0.55l-0.27,0.34l-0.39,0.11l-0.43-0.08
		l-0.8-0.42l-3.02-1.08l-0.52-0.05l-0.48,0.11l-0.42,0.24l-0.33,0.33l-0.1,0.16l-0.29,0.69l-0.32,0.44l-0.19,0.43l0.06,0.33
		l0.22,0.3l0.4,0.38l0.08,0.23l-0.02,0.58l0.06,0.41v0.13L11.19,61l-0.09,0.12l-0.09,0.15l-0.03,0.16l0.07,0.27l0.21,0.44l0.05,0.29
		l-0.05,0.35l-0.33,0.95l-0.19,0.77l-0.2,0.38l-0.27,0.18l-0.34-0.09l-0.3-0.22l-0.29-0.27l-0.28-0.21l-0.11,0.08L8.9,64.42
		l-0.08,0.23l-0.11,0.5l-0.01,0.21L8.6,65.99l-0.05,0.16l1.83-0.18l1.84-0.18l1.82-0.19l1.84-0.19l1.82-0.19l1.83-0.19l1.83-0.2
		l1.83-0.2v-0.31l-0.04-0.47l-0.04-0.2l-0.21-0.66l-0.25-0.6l-0.04-0.13l-0.01-0.07l0.02-0.02l0.05-0.01l0.58-0.01l0.96-0.01
		l0.59-0.01l0.09,0.02l0.06,0.07l0.09,0.18l0.06,0.07l0.06,0.04l0.06-0.02l0.43-0.05l0.15-0.02l0.4-0.05l0.62-0.08l0.81-0.1
		l0.96-0.13l1.06-0.13l1.14-0.15l1.17-0.16l1.18-0.15l1.13-0.15l1.07-0.15l0.96-0.13l0.8-0.1l0.62-0.09l0.4-0.05l0.14-0.02
		l0.46-0.07l0.36-0.13l0.1-0.02l0.46-0.04l0.31-0.03l0.91-0.08l1.4-0.13l1.82-0.17l2.15-0.2l2.4-0.23l2.57-0.25l2.65-0.26l2.65-0.27
		l2.56-0.26l2.4-0.25l2.15-0.22l1.82-0.21l1.4-0.16l0.9-0.1l0.32-0.03l0.51-0.07l0.36-0.16l0.26-0.18l0.4-0.46l0.2-0.13l0.07-0.02
		l0.87-0.48l1-0.25l0.11-0.05l0.07-0.06L72,55.77l0.38-0.29l1.03-0.52l1.05-0.33l0.08-0.06l0.06-0.06l0.01-0.06l-0.01-0.07
		l-0.04-0.12v-0.05l0.02-0.05L74.68,54l0.05-0.13l0.14-0.45l0.18-0.25l0.05-0.04l0.07-0.03l0.45-0.08l0.61-0.35l0.6-0.34l0.15-0.11
		L77,52.17l0.03-0.06l0.01-0.07l0.02-0.07V51.9l-0.01-0.2l-0.03-0.15L77,51.49l-0.03-0.21l0.04-0.12l0.09-0.13l0.23-0.23l0.85-0.6
		l0.1-0.09l0.03-0.06l0.03-0.06l0.02-0.08v-0.08v-0.08l-0.06-0.28l-0.07-0.2l-0.01-0.09l0.07-0.14l0.17-0.21l0.45-0.43l1.02-0.71
		l0.76-0.54l0.69-0.49l0.22-0.21l0.78-0.9l0.86-1l0.55-0.65l0.77-0.89l0.5-0.59L84.86,42.38z M7.28,65.36l-0.33,0.18L6.9,66.01
		l0.12,0.16l0.11,0.11l0.69-0.09l0.04-0.18L7.66,65.5L7.28,65.36z"/>
</g>
<g id="LOUISANA">
</g>
<g id="MAINE">
</g>
<g id="MARYLAND">
</g>
<g id="MASSACHUSETTS">
</g>
<g id="MICHIGAN">
</g>
<g id="MINNESOTA">
</g>
<g id="MISSOURI">
</g>
<g id="MISSISSIPPI">
</g>
<g id="MONTANA">
</g>
<g id="NORTH_CAROLINA">
</g>
<g id="NORTH_DAKOTA">
</g>
<g id="NEBRASKA">
</g>
<g id="NEW_HAMPSHIRE">
</g>
<g id="NEW_JERSEY">
</g>
<g id="NEW_YORK">
</g>
<g id="NEW_MEXICO">
</g>
<g id="NEVADA">
</g>
<g id="OHIO">
</g>
<g id="OKLAHOMA">
</g>
<g id="OREGON">
</g>
<g id="PENNSYLVANIA">
</g>
<g id="RHODE_ISLAND">
</g>
<g id="SOUTH_CAROLINA">
</g>
<g id="SOUTH_DAKOTA">
</g>
<g id="TENNESSEE">
</g>
<g id="TEXAS">
</g>
<g id="UTAH">
</g>
<g id="VIRGINIA">
</g>
<g id="VERMONT">
</g>
<g id="WASHINGTON">
</g>
<g id="WISCONSIN">
</g>
<g id="WEST_VIRGINIA">
</g>
<g id="WYOMING">
</g>
</svg>
