<?xml version="1.0" encoding="utf-8"?>
<!-- Generator: Adobe Illustrator 26.5.0, SVG Export Plug-In . SVG Version: 6.00 Build 0)  -->
<svg version="1.1" xmlns="http://www.w3.org/2000/svg" xmlns:xlink="http://www.w3.org/1999/xlink" x="0px" y="0px"
	 viewBox="0 0 90 90" style="enable-background:new 0 0 90 90;" xml:space="preserve">
<style type="text/css">
	.st0{fill:#CECECE;stroke:#F9F9F9;stroke-width:0.025;stroke-linecap:round;stroke-linejoin:round;}
	.st1{display:none;fill:none;stroke:#47CCCC;stroke-width:0.5;stroke-linecap:round;stroke-linejoin:round;}
	.st2{fill:#CECECE;}
</style>
<g id="ALABAMA">
</g>
<g id="ALASKA">
</g>
<g id="ARIZONA">
</g>
<g id="ARKANSAS_1_">
</g>
<g id="CALIFORNIA">
</g>
<g id="COLORADO">
</g>
<g id="CONNECTICUT">
</g>
<g id="DELAWARE">
</g>
<g id="DC">
</g>
<g id="FLORIDA">
</g>
<g id="GEORGIA">
</g>
<g id="HAWAII">
</g>
<g id="IDAHO">
</g>
<g id="IOWA">
</g>
<g id="ILLINOIS">
</g>
<g id="INDIANA">
</g>
<g id="KANSAS">
</g>
<g id="KETUCKY">
</g>
<g id="LOUISANA">
	<path id="LA_1_" class="st0" d="M45.17,70.67h-0.33l-0.4-0.07l-0.01-0.02l-0.42-0.15l-0.36-0.3l-0.21-0.12l-0.74-0.11l-0.17,0.02
		l-0.04,0.06l-0.12,0.2l-0.07,0.07l-0.31,0.12l-0.25,0.04l-0.25,0.09l-0.29,0.29v0.21l0.24,0.18l1.38,0.5l0.13,0.12l0.15,0.04
		l0.79,0.45l0.51-0.13l0.18-0.02l0.09-0.04l0.02-0.11l-0.01-0.2l0.06-0.26l0.16-0.17l0.46-0.3l0.1-0.24l-0.09-0.11L45.17,70.67z
		 M56.17,77.76h0.03l-0.17-0.04L56.17,77.76z M56.2,77.76l0.4,0.11l0.46-0.03l-0.31-0.07L56.2,77.76z M57.68,77.79l-0.1-0.02
		l-0.04,0.06l0.02,0.07l0.09,0.04l0.1,0.02l0.02-0.03l-0.03-0.07L57.68,77.79z M60.04,77.34l-0.06,0.01h-0.22l-0.03,0.04l-0.09,0.08
		l-0.17,0.04l-0.11-0.03l-0.04-0.06l-0.08,0.01l-0.27,0.13l-0.06,0.08l-0.35,0.12l0.03,0.09l0.2-0.02l0.99-0.33l0.21-0.11l0.16-0.12
		l0.02-0.03l-0.09,0.06L60.04,77.34z M63.17,77.25l-0.16-0.07l-0.33-0.1l-0.79-0.09l-0.01,0.08l0.65,0.2l0.6,0.09l0.09-0.01
		l-0.01-0.06L63.17,77.25z M81.4,66.69l0.06-0.07l-0.07,0.06l-0.11,0.11l0.01,0.01L81.4,66.69z M77.41,62.66l0.07-0.04l-0.04-0.07
		l-0.01-0.07l0.04-0.11l-0.34,0.11L76.9,62.6l-0.2,0.2l0.03,0.07l0.11-0.06l0.13-0.06l0.24-0.07L77.41,62.66z M78.85,69.46l0.2-0.16
		l0.06-0.24l-0.02-0.04l-0.01-0.03l-0.02-0.02L79,68.99l-0.04,0.21l-0.18,0.16l-0.44,0.2l0.25-0.01L78.85,69.46z M62.54,74.47
		l0.07-0.09l0.08-0.12l-0.02-0.13l-0.15,0.08l-0.07,0.34l0.03,0.21l0.01-0.17L62.54,74.47z M80.07,68.49l0.35-0.5l0.04-0.09
		l-0.07,0.03l-0.02,0.02l-0.49,0.67l0.09-0.06L80.07,68.49z M76.05,60.97l0.26-0.08l0.01-0.03l0.03-0.08l0.07-0.08l0.09-0.04
		l0.05,0.01l0.04,0.03l0.06,0.03l0.1,0.01l0.01-0.03l0.03-0.08l0.06-0.09l0.09-0.03l0.1,0.02l0.06,0.09l0.06,0.1l0.04,0.07l0.2,0.24
		l0.09,0.02l0.07-0.18l0.2,0.03l0.11-0.12l0.03-0.23l-0.03-0.24h-0.09l-0.02,0.1l-0.06,0.09l-0.07,0.08l-0.09,0.08l-0.02-0.07
		l-0.08-0.15l0.02-0.21l-0.25-0.08l-0.19-0.1l0.17-0.3l0.33-0.43l0.16-0.15l0.17-0.11l-0.02-0.1l-0.19,0.07l-0.16,0.17l-0.22,0.34
		l-0.3,0.28l-0.18,0.11l-0.19,0.09l0.12,0.25l-0.1,0.1l-0.17,0.01l-0.09,0.02l-0.04,0.11l-0.13,0.09L76,60.69l-0.16,0.03l0.1,0.2
		L76.05,60.97z M76.58,62.7l0.1-0.16l0.16-0.37l0.08-0.26h-0.07l-0.18,0.33l-0.11,0.26l-0.05,0.15l-0.1,0.17l-0.11,0.17l0.07-0.02
		L76.58,62.7z M77.11,64.47l-0.08,0.02l-0.12,0.08l-0.13,0.03l-0.42-0.07l-0.02,0.09l0.66,0.47L77.11,64.47z M58.18,77.75
		l-0.06,0.06v0.06l-0.01,0.06h0.03l0.12-0.1l0.03-0.11h-0.04L58.18,77.75z M81.02,73.78l0.01,0.11l0.1-0.01l0.04-0.16l0.09-0.04
		l0.29,0.06l-0.11-0.15l-0.06-0.02l-0.12-0.01l-0.01-0.11l0.27-0.02l-0.16-0.2l-0.16-0.09l-0.2-0.01l-0.22,0.06l0.07,0.15l0.03,0.07
		h-0.17l-0.21-0.03l-0.19-0.1l-0.09-0.17l-0.56-0.1l-0.01-0.1l0.15-0.06l0.12-0.07l0.09-0.1l0.07-0.14l-0.15-0.04l-0.06-0.12
		l-0.07-0.16l-0.13-0.16l-0.04,0.04l-0.12,0.09l-0.06-0.18l-0.09-0.1l-0.09-0.08l-0.09-0.13l-0.04,0.04l-0.13,0.07L79,71.62
		l-0.02-0.15l-0.03-0.09h-0.06l-0.02-0.03l-0.01-0.04l-0.02-0.02l-0.06,0.01l-0.09,0.28l-0.19,0.21l-0.22,0.12l-0.17-0.03l-0.07-0.1
		l-0.07-0.28l-0.09-0.11l-0.15-0.06l-0.11,0.02l-0.11,0.05l-0.27,0.07l-0.19,0.09l-0.1,0.02l-0.15-0.01l-0.21-0.12l-0.11-0.02
		l-0.07-0.05l0.01-0.1l0.07-0.12l0.14-0.06l0.15-0.01l0.11-0.03l0.08-0.07l-0.01-0.08l-0.17-0.01l-0.16-0.01l-0.14,0.04L76.37,71
		l-0.08,0.01l-0.09-0.06h-0.11l-0.12,0.03l-0.04-0.03l-0.28-0.12l-0.29,0.02l-0.77,0.25h-0.18l-0.15-0.06l-0.08-0.15l0.07-0.03
		l0.13-0.03l0.12-0.11v-0.26l-0.19,0.12l-0.08-0.1l0.03-0.21l0.11-0.21l-0.01-0.11l-0.24,0.01l-0.38-0.18l-0.22-0.06l0.02-0.06
		l0.01-0.01l0.06-0.06l-0.2-0.07l-0.33,0.07l-0.33-0.17l-0.37-0.09l-0.13-0.08l-0.09-0.15l-0.1-0.33l-0.09-0.17l-0.42-0.42
		l-0.09-0.17l0.05-0.01l0.12-0.01l-0.1-0.13l-0.14-0.06l-0.33-0.06l0.45-0.13l1.11,0.19l0.25-0.12l-0.37-0.32l-0.02-0.07v-0.03
		l-0.01-0.07l-0.28-0.09l0.12-0.08l0.04-0.02l-0.19-0.14l-0.36-0.18l-0.13-0.16l0.4,0.09l0.68,0.35l0.38,0.04l0.36-0.01l0.42,0.06
		l0.16,0.09l0.17,0.15l0.19,0.11h0.24l-0.01-0.11l-0.47-0.35l-0.22-0.1l0.07-0.01l0.06-0.01l0.06-0.01l0.09,0.01l-0.17-0.17
		l-0.27,0.01l-0.29,0.06l-0.27-0.01l-0.17-0.15l-0.11-0.25l0.01-0.28l0.18-0.26l0.12-0.04l0.29,0.01l0.12-0.02l0.15-0.09l0.07-0.08
		l0.11-0.28l0.17-0.21l0.18-0.19l0.1-0.2l-0.08-0.26l0.17-0.01l0.17,0.03l0.15,0.08l0.11,0.1l0.17,0.25l0.11,0.09l0.16-0.01
		l-0.01,0.1l-0.01,0.21l-0.01,0.1l0.11-0.11l0.09-0.3l0.1-0.12h0.1l0.31,0.04h0.13l-0.19-0.09l-0.11-0.16l-0.09-0.18l-0.12-0.16
		l0.06-0.1l0.09-0.11l0.11-0.09l0.17-0.03l-0.06-0.07l-0.02-0.05l-0.04-0.05l-0.08-0.03l0.08-0.04l0.26-0.19l-0.38-0.11l-0.09-0.06
		l-0.08,0.11l-0.07,0.06l-0.19,0.08l-0.01-0.11l0.24-0.2l0.09-0.14l-0.06-0.16l-0.11-0.02l-0.16,0.08l-0.13,0.12l-0.07,0.13
		l-0.08,0.01v-0.08l-0.02-0.01l0.01-0.01l-0.09-0.06l-0.21-0.23l-0.01-0.09l0.34-0.24l0.11,0.24l0.25-0.08l0.12-0.24l-0.24-0.27
		l-0.19-0.03l-0.36,0.1h-0.17l-0.18-0.08l0.02-0.06l0.12-0.06L74.79,62l-0.01-0.14l-0.07-0.11l-0.03-0.12l0.07-0.16l0.16-0.11
		l0.37-0.01l0.17-0.06l0.15-0.14l0.01-0.12l-0.09-0.08l-0.19-0.04l-0.09,0.04l-0.26,0.21l-0.07,0.09l-0.08,0.01l-0.03-0.06
		l-0.01-0.01h-0.02l-0.04-0.02l-0.01-0.11l0.1-0.01l-0.01-0.09l-0.1-0.06l-0.31-0.1l-0.13-0.01l-0.09-0.08l-0.07-0.01l-0.09,0.07
		l-0.02,0.09l0.02,0.19l-0.01,0.08l-0.06,0.13l-0.04,0.1l-0.04,0.1l-0.08,0.1l-0.13,0.1l-0.26,0.09l-0.12,0.07l-0.17,0.17
		l-0.06,0.19l0.04,0.55l-0.02,0.33l-0.11,0.34l-0.18,0.3l-0.21,0.18l-0.28,0.1L71.94,64l-0.29-0.08l-0.27-0.2l-0.34-0.34l0.03-0.18
		l0.16-0.27l0.02-0.09l-0.11-0.06l-0.43,0.25l-0.2,0.08l-0.36,0.02l-0.22-0.03l-0.16-0.15l-0.16-0.27L69.5,62.4l-0.04-0.24
		l0.04-0.24l0.16-0.24l0.26-0.18l0.36-0.02l0.35,0.11l0.27,0.22l0.12-0.13l-0.01-0.15l-0.06-0.13l0.02-0.16l0.1-0.09L71.45,61
		l0.02-0.38l0.11-0.2l0.17-0.16l0.15-0.28l-0.15-0.08l-0.25-0.24l-0.19-0.06l-0.34,0.13l-0.04,0.11l0.08,0.06l0.11,0.03l0.04-0.01
		v-0.08l0.07-0.04l0.07,0.02l0.04,0.09l-0.02,0.12l-0.06,0.07l-0.17,0.15l-0.07,0.03l-0.2-0.01l-0.08,0.01v0.06l-0.15,0.37
		l-0.04-0.08l-0.06-0.04l-0.06-0.03l-0.04-0.03l0.08-0.16l0.1-0.41l0.12-0.19l-0.11-0.2l-0.1,0.01l-0.02,0.2l-0.06,0.2l-0.1,0.2
		l-0.25,0.4l-0.03,0.12l-0.02,0.07h-0.11l-0.19-0.04l-0.21-0.09l-0.19-0.12l-0.09-0.15l-0.06-0.22l-0.11-0.08l-0.31-0.02l-0.2,0.51
		L68.21,61l-0.84,0.74l-0.25,0.13l-0.27,0.09l-0.88,0.16l-0.52,0.21l-0.31,0.02l-0.83-0.16l-0.5-0.27h-0.95l-0.55-0.17l-0.48-0.36
		l-0.29-0.53v-0.7l0.26-0.5l0.89-0.93l0.31-0.47l0.42-0.76l0.27-0.34l0.28-0.24l0.43-0.09l0.61,0.03L65.62,57l0.52,0.16l0.64,0.46
		l0.11,0.04l0.07,0.13l0.33,0.55l0.13,0.15l0.6,0.06l0.15-0.03l0.24-0.09l0.15-0.03l0.29,0.08l0.5,0.35h0.29l0.43-0.19l0.25,0.01
		l0.13,0.26l-0.01,0.15l-0.02,0.1v0.1l0.08,0.11l0.1,0.06l0.27,0.06l0.1,0.06l0.2-0.11l0.2-0.01l0.45,0.05l0.21-0.08l0.2-0.11
		l0.18-0.04l0.15,0.17l-0.13,0.09l-0.08,0.03l-0.12,0.01l0.24,0.17l0.38-0.16l0.36-0.28l0.12-0.21l-0.1-0.09l-0.17-0.03l-0.16,0.07
		l-0.09,0.17l-0.33-0.31L72,57.95l-0.29-0.42l-0.03-0.62l-0.09-0.25l-0.42-0.55l-0.11-0.24l-0.02-0.12l-0.01-0.27L71,55.36
		l-0.04-0.1l-0.25-0.38l-0.39-0.22L70.1,54.2l-0.22-0.13l-0.44-0.12l-0.21-0.19l-0.41-0.7l0.13-0.33l-0.13-0.25l-0.21-0.21
		l-0.15-0.21l-0.01-0.27l0.07-0.34l0.19-0.56l-0.1-0.28l0.09-0.27l0.28-0.42l0.13-0.89l0.25-0.59l0.12-0.55l0.03-0.54l-0.06-0.22
		l-0.49,0.06l-0.56,0.04l-0.26,0.02l-0.73,0.07l-1.15,0.1l-1.47,0.14l-1.75,0.16l-1.96,0.17l-2.09,0.19l-2.16,0.18l-2.16,0.18
		l-2.09,0.17l-1.96,0.16l-1.75,0.14l-1.49,0.12l-1.14,0.08l-0.74,0.06l-0.26,0.02l-0.6,0.04l-0.08,0.01l0.95-0.92l-0.11-0.38
		l-0.43-0.45l-0.18-0.41v-0.15l0.11-0.27l0.02-0.17l0.03-0.06L45,46.25l0.01-0.17L44.93,46l-0.18-0.1l-0.22-0.24l-0.16-0.3v-0.24
		L44.56,45l0.29-0.05l0.62-0.02l0.27-0.08l0.15-0.18l0.07-0.25l0.09-0.99l0.11-0.15l0.02-0.14v-0.29l-0.03-0.09l-0.19-0.31
		l-0.13-0.17l-0.07-0.1l-0.11-0.65l0.27-0.47l0.86-0.72v-0.1l0.06-0.17l-0.02-0.36l0.15-1.33l-0.01-0.3l0.03-0.26l0.34-0.75
		l0.12-0.57l0.1-0.28l0.17-0.27l0.21-0.17l0.53-0.16l0.25-0.11l0.23-0.21l0.54-0.73l0.07-0.13l0.1-0.33l0.09-0.13l0.12-0.09
		l0.38-0.16l0.44-0.38l0.24-0.54l-0.03-0.55l-0.43-0.42l-0.01-0.1l-0.01-0.14l0.03-0.16l0.11-0.14l0.69-0.02l0.38-0.8l0.33-1
		l0.53-0.62l-0.01-0.11l0.1-0.06l0.02-0.21l-0.1-0.22l-0.3-0.09l-0.45-0.03l-0.21-0.07l-0.1-0.1l-0.16-0.59l-0.31-0.26l-0.4-0.13
		l-0.45-0.23l-0.17-0.2l-0.06-0.25l-0.03-0.62l0.02-0.15l0.04-0.17l0.02-0.19l-0.04-0.17l-0.1-0.11l-0.33-0.17l-0.13-0.1l-0.17-0.2
		l-0.12-0.24l-0.09-0.28l-0.06-0.33L49,23.35l0.31-0.09l0.35-0.04l0.22-0.08l0.18-0.34l-0.08-0.26l-0.24-0.17l-0.64-0.06l-0.17-0.11
		l-0.04-0.21l0.04-0.61l0.15-0.74l0.11-0.17l0.15-0.1l0.18-0.22l0.16-0.28l0.1-0.27l-0.27-0.28l-0.17-0.15l-0.17-0.04l-0.2-0.01
		l-0.22-0.06l-0.18-0.1l-0.09-0.13l-0.01-0.51l-0.18,0.03l-2.26,0.18l-2.27,0.18l-2.27,0.17l-2.26,0.17l-2.26,0.17l-2.27,0.17
		l-2.27,0.16l-2.26,0.16l-2.27,0.14l-2.27,0.15l-2.26,0.15l-2.27,0.15l-2.27,0.13l-2.27,0.13l-2.26,0.14l-2.27,0.12l0.09,1.78
		l0.18,3.54l0.1,1.78l0.09,1.78l0.09,1.78l0.1,1.77l0.09,1.78l0.06,1.13l0.01,0.03l0.03,0.05l0.07,0.08l0.18,0.12l0.09,0.03
		l0.17,0.12l0.06,0.07l0.29,0.47l0.04,0.06l0.06,0.04l0.07,0.03l0.43,0.19l0.12,0.09l0.26,0.25l0.19,0.21l0.12,0.2l0.07,0.13
		l0.06,0.15l0.11,0.19l0.35,0.46l0.04,0.13l0.12,0.59l0.06,0.18l0.06,0.11l0.04,0.03l0.03,0.06l0.03,0.06L16,40.35v0.09l-0.04,0.25
		l-0.02,0.13l0.01,0.43l-0.01,0.12l-0.02,0.09l-0.04,0.11l-0.04,0.16v0.1l0.02,0.11l0.04,0.15l0.04,0.09l0.08,0.13l0.15,0.17
		l0.36,0.36l0.11,0.09l0.07,0.03l0.08,0.03l0.31,0.08l0.08,0.03l0.07,0.03l0.04,0.06l0.01,0.09l-0.03,0.08l-0.03,0.04l-0.01,0.01
		v0.01l-0.13,0.09l-0.03,0.07l-0.01,0.07l0.03,0.12l0.03,0.07l0.04,0.07l0.04,0.03L17.26,44l0.16,0.03l0.07,0.02l0.06,0.04
		l0.06,0.09l0.03,0.12l0.06,0.24l0.03,0.12l0.06,0.1l0.13,0.17l0.21,0.2l0.18,0.11l0.03,0.04l-0.01,0.04l-0.15,0.22l-0.03,0.06
		l-0.04,0.14l-0.02,0.09l-0.01,0.11l0.03,0.16l0.04,0.09l0.07,0.07l0.35,0.26l0.15,0.15l0.04,0.06l0.03,0.08l0.04,0.08l0.02,0.12
		l0.04,0.1l0.04,0.08l0.07,0.1l0.02,0.08l0.08,0.41l0.03,0.08l0.03,0.04l0.04,0.04l0.03,0.02l0.03,0.01h0.04h0.04l0.25-0.08
		l0.24,0.04l0.08,0.25v0.67l-0.01,0.15l-0.11,0.21l-0.02,0.17l0.38,0.54l0.19,0.16l0.06,0.1l-0.04,0.16l-0.09,0.08l-0.35,0.12
		l-0.13,0.03l-0.18,0.17l0.13,0.34l0.23,0.3l0.1,0.11l0.11,0.19l-0.01,0.07l-0.08,0.16l-0.18,0.19l-0.11,0.13l-0.03,0.16l0.02,0.17
		l0.08,0.28l0.02,0.17l0.01,0.18l-0.01,0.13l-0.07,0.26l-0.42,0.9l-0.07,0.73l-0.11,0.22l-0.42,0.37l-0.1,0.25l-0.15,0.76
		l-0.01,0.16l-0.26,0.09l-0.18,0.2l-0.1,0.27l0.01,0.3l0.04,0.07l0.1,0.06l0.04,0.08l0.02,0.29v0.01l0.18,0.45l0.02,0.11l-0.02,0.28
		l-0.08,0.21l-0.3,0.42l-0.16,0.35l-0.03,0.29l0.09,0.66l0.1,0.23l0.21,0.17l0.2,0.21l0.08,0.34l-0.02,0.15l-0.11,0.3l-0.01,0.18
		l0.03,0.15l0.15,0.21l0.03,0.1l0.04,0.28l0.06,0.21l0.02,0.24l-0.07,0.35l-0.15,0.32l-0.01,0.13l0.1,0.18l-0.72,0.92l-0.24,0.48
		l0,0l0.1,0.01l0.22,0.08l0.08,0.21l-0.01,0.98l-0.48,1.1l-0.2,0.07l-0.82,0.1l-0.11,0.17l0.04,0.35l0.17,0.62l0.35,0.44l0.27,0.18
		l0.27-0.09l0.2-0.18l0.39-0.22l0.18-0.17l0.42-0.27l0.61-0.13l1.1-0.08h-0.02h0.09h-0.07l1.34-0.04l0.33-0.16l0.24,0.04l0.59-0.1
		l0.28,0.1l0.27-0.17l0.74-0.18l0.69-0.07l0.73,0.08l1.45,0.27l0.91,0.36l1.62,0.43l0.72,0.51l0.49,0.24l1.41,0.49l2.23,0.35
		l0.45-0.15l0.15,0.07l0.12-0.08l0.31,0.15l2.03,0.21l0.39-0.04l0.37-0.12l0.92-0.57l0.38-0.12l0.82,0.02l0.36-0.03l0.16-0.2
		l-0.28-0.07l0.07-0.16l0.16-0.1l0.4-0.11l-0.17-0.13l-0.3,0.02l-0.31,0.12l-0.19,0.17h-0.1l-0.1-0.25l-0.43-0.75l0.17-0.07
		l0.36-0.28l-0.12-0.07l-0.1,0.02l-0.12,0.04l-0.3,0.08l-0.18,0.16l-0.1,0.04l-0.12-0.12L39,69.02l-0.12-0.35l-0.07-0.26l0.29,0.17
		l0.08,0.01l0.07-0.07l0.09-0.21l0.04-0.04l0.22,0.04l0.11,0.15l-0.02,0.18l-0.16,0.15l0.19-0.01l0.15-0.12l0.28-0.34l0.17-0.11
		l1.1-0.49l0.11-0.11l0.07-0.2l-0.03-0.13l0.02-0.07l0.22-0.03l0.16,0.04l0.15,0.1l0.16,0.03l0.33-0.3l0.17-0.01l0.62,0.04
		l0.16,0.08l0.1,0.15l0.04,0.2l-0.02,0.27l-0.1-0.04l-0.12-0.16l-0.11-0.1l-0.13,0.15l-0.1,0.29l-0.03,0.28l0.11,0.13l0.04,0.11
		l0.02,0.21l0.12,0.15l0.33-0.09l0.47-0.33l0.22-0.11l1.22-0.16l0.3,0.01l0.33,0.11l0.11,0.19l0.01,0.66l-0.03,0.35l-0.06,0.26
		l0.07,0.15l0.35-0.01l0.15-0.04l0.28-0.16l0.13-0.03l0.11,0.07l0.04,0.16l0.01,0.19l0.06,0.13l0.16,0.26l0.08,0.34l-0.03,0.32
		l-0.17,0.17l0.33,0.04l0.54-0.13l0.52-0.21l0.29-0.24l0.2,0.11l-0.02,0.13l-0.08,0.16l-0.06,0.16l0.08,0.1l0.16,0.02l0.33-0.01
		l0.32,0.06l0.58,0.19l0.3,0.18l0.04-0.17l0.13-0.3l0.04-0.17l-0.03-0.03l-0.07-0.12l-0.03-0.16l0.04-0.15l0.36-0.35l0.06-0.21
		l-0.17-0.34l0.22-0.01l0.17,0.06l0.12,0.13l0.06,0.19l-0.02,0.25l-0.1,0.16l-0.15,0.11l-0.12,0.14l-0.15,0.36l-0.02,0.41l0.1,0.39
		l0.22,0.34l0.09,0.06L52,72.37l0.07,0.04l0.03,0.1v0.25l0.04,0.11L52.3,73l0.44,0.2l0.77,0.56l0.18,0.32l-0.2,0.4l0.01,0.1
		l0.07,0.02l0.07,0.1l0.07,0.07l-0.11,0.12L53.47,75l-0.27,0.12l-0.01-0.17l-0.07-0.12l-0.1-0.07l-0.15-0.02l0.11-0.21l0.03-0.23
		l-0.03-0.51l-0.38,0.15l-0.33-0.16L52.1,73.5l0.03-0.25l-0.31,0.05l-0.15,0.18l-0.08,0.26l-0.13,0.28l-0.18,0.16l-0.25,0.08
		l-0.24-0.04l-0.16-0.22l0.21,0.66l0.61,0.46l0.77,0.28l1.39,0.12l0.16,0.04l0.33,0.26l0.13,0.06h0.21l0.17-0.04l0.11-0.12
		l0.02-0.24l0.08-0.08h0.21l0.22,0.07l0.13,0.12l-0.13,0.04l-0.09,0.09l-0.03,0.12l0.02,0.17l0.36-0.17l0.37,0.06l0.35,0.19
		l0.65,0.52l0.13-0.03l0.03-0.07v-0.07l0.04-0.06l0.28-0.18l0.04-0.13l-0.1-0.24l0.24,0.07l0.24,0.13l0.22,0.07l0.22-0.12l0.12,0.27
		l-0.13,0.11l-0.2,0.07l-0.1,0.19h0.16l0.48,0.11l0.1-0.01l0.07-0.22l0.23-0.01l0.2,0.08l0.09,0.06l0.1-0.03l0.04-0.08l0.03-0.08
		l0.18-0.1v-0.14l-0.02-0.13l0.01-0.09l0.15-0.07l0.15,0.02l0.09,0.12l0.1,0.19l-0.02-0.26l0.04-0.58l-0.03-0.02l-0.07-0.07
		l0.08-0.36l0.06-0.16l0.08-0.12l0.13,0.15l0.12,0.15L60.6,75l0.11-0.18l-0.18-0.21l0.07-0.16l0.12-0.19v-0.28l-0.3-0.01l-0.07-0.04
		l-0.02-0.17l0.06-0.09l0.1-0.02l0.13,0.04l0.01-0.15l0.07-0.08l0.11-0.03l0.15,0.02l0.01,0.11l-0.17,0.1l0.13,0.06l0.46,0.11
		l0.16-0.09l0.1-0.13l0.13-0.04l0.19,0.21l0.28-0.37l0.09-0.2l0.01-0.24l0.04-0.24h0.13l0.11,0.09l0.02,0.06l0.08,0.09l0.3,0.41
		l0.09,0.19l0.08,0.84l0.27-0.45l0.03-0.16v-0.2l0.06-0.15l0.11-0.09l0.16-0.06v0.1l0.03,0.17l0.54,0.5l0.15,0.26l0.06,0.07
		l0.09-0.19l0.08-0.25v-0.12l0.13,0.01l0.1,0.14l0.06,0.19l0.02,0.16v0.18l-0.04,0.23l0.01,0.18l-0.03,0.16l-0.07,0.17l-0.04,0.16
		l0.07,0.13l0.31,0.25l0.09,0.11l0.06,0.19l0.02,0.19v0.15l-0.08,0.09l0.2,0.06L66,76.35l0.63-0.48l0.21-0.1l0.2-0.2l0.17-0.22
		l0.17-0.17l0.07-0.1l0.25-0.62l0.07-0.25l-0.43,0.1l-0.26-0.4l0.03-0.46l0.39-0.04l-0.17-0.25l0.1-0.13l0.21,0.02l0.2,0.24
		l0.26-0.15l-0.01-0.1l-0.22-0.09l-0.2-0.17l-0.13-0.24l-0.06-0.28l0.11,0.02l0.08,0.07l0.07,0.09l0.04,0.11l-0.01-0.4l-0.03-0.12
		l-0.05-0.09l-0.07-0.08l-0.09-0.07l-0.01-0.25l0.02-0.15l0.1-0.1l0.19-0.11l-0.32-0.25l-0.33-0.17l-0.34-0.08h-0.38l-0.14-0.01
		l-0.13-0.08l-0.61-0.47l-0.13-0.08l-0.07,0.09l-0.06,0.02l-0.07-0.06l-0.08-0.13l0.12-0.01l0.11-0.03l0.19-0.1l-0.01-0.1
		l-0.08,0.01l-0.27,0.02l0.06-0.22l0.18-0.27l0.07-0.16l0.2,0.16l0.36,0.43l0.22,0.18l0.09-0.12l-0.19-0.09l0.04-0.09l0.17-0.06
		l0.22,0.02l0.26,0.09l1.52,0.83l0.4,0.1l0.43-0.24l0.45,0.39l0.22,0.06l0.07-0.35l-0.01-0.21l0.06-0.04l0.1,0.04l0.32,0.04
		l0.04,0.09l-0.04,0.19l-0.02-0.01l-0.06,0.07l-0.06,0.09l-0.02,0.08l0.01,0.09l0.03,0.06l0.03,0.02l0.02,0.02L70.49,71l0.06,0.1
		l0.09,0.09l0.08,0.03l0.27-0.19l0.15-0.04l0.08,0.13l-0.03,0.11l-0.07,0.09l-0.02,0.11l0.08,0.17l0.03-0.08l0.02-0.03l0.04-0.03
		l0.07-0.08l0.09,0.2l0.07,0.17l-0.01,0.17L71.4,72.1l-0.15,0.13l-0.2,0.15l-0.44,0.2h1.84l0.15-0.07l0.33-0.36l0.18-0.11l0.16,0.12
		l0.01,0.13l-0.19,0.37l0.24,0.17l0.1,0.24l0.13,0.19l0.36,0.04h0.35l0.81,0.21l-0.17-0.3l0.13-0.15l0.27-0.02l0.27,0.1l-0.24,0.14
		l-0.11,0.01l0.86,1.26l0.28,0.08l0.11,0.08l-0.06,0.18v0.11l0.19,0.39l0.15,0.11l0.29-0.09l0.29-0.2l0.15-0.26l-0.02-0.18
		l-0.1-0.32l-0.03-0.18l0.02-0.17l0.08-0.1h0.09l0.06,0.15l0.02,0.37l0.04,0.19l0.1,0.1l0.1-0.06l0.02-0.18l-0.01-0.19l0.01-0.11
		h0.2v0.3L78,74.95l-0.08,0.18l-0.18,0.54l-0.11,0.07l-0.29,0.09l-0.1,0.1v0.09l0.03,0.15l0.02,0.18l-0.06,0.16l-0.25,0.37
		l-0.08,0.16l-0.21,0.21l-0.07,0.09l-0.02,0.15v0.48l0.28-0.11l0.21-0.23l0.53-0.98l0.07-0.21l0.01-0.19l0.09-0.25l0.27-0.12
		l0.3-0.07l0.2-0.1l0.06-0.14l-0.02-0.09l-0.04-0.1l-0.03-0.15l0.01-0.16l0.06-0.01l0.16,0.09l0.1,0.11l0.4,0.54l0.09,0.18l0.1,0.15
		l0.44,0.46l0.16,0.09l0.17-0.1l-0.31-0.48l0.01-0.28l0.33-0.39l0.15-0.22l0.04-0.21l0.07,0.11l0.08,0.07l0.16,0.11l-0.01-0.17
		l-0.06-0.17l-0.08-0.13l-0.1-0.12l0.22-0.01l0.16,0.08l0.09,0.17l0.03,0.22l0.16-0.19l0.29-0.79l-0.86,0.07l-0.12,0.02v-0.18
		l0.17-0.23l0.21-0.2L81,73.58v0.09L81.02,73.78z M75.09,65.27L75,65.09L74.81,65l-0.06-0.04l-0.07-0.04l-0.17-0.09l-0.18,0.2
		l-0.02,0.23l0.11,0.63l0.17-0.12l0.09-0.36l0.1-0.08l0.09,0.06l0.08,0.13l0.11,0.13l0.18,0.04l-0.09-0.2L75.09,65.27z M81.91,65.96
		l0.4-0.67l0.17-0.36l-0.73,1.2L81.91,65.96z M69.96,72.49l-0.02,0.09l-0.09-0.02l-0.09-0.09h-0.03l-0.03,0.09l-0.1,0.1l-0.01,0.07
		l0.24,0.02l0.17,0.11l-0.04-0.08l-0.01-0.07l0.03-0.03l0.09-0.03v-0.03l-0.03-0.07L69.96,72.49z M82.87,61.29l-0.22-0.25
		l-0.15-0.35l-0.17-0.3l-0.3-0.16l0.21,0.15l0.15,0.21l0.18,0.53l0.1,0.1l-0.04,0.17l0.08,0.24l0.23,0.39l-0.07,0.1l0.03,0.25
		l0.07,0.79l-0.04,0.26l-0.32,0.82l0.07,0.08l0.02,0.09l0.02,0.08l-0.01,0.09l0.26-0.65l0.08-0.35l0.01-1.26L82.87,61.29z
		 M64.09,76.06l-0.1-0.04l-0.08,0.02l-0.02,0.08v0.08l-0.03,0.03l-0.26,0.15l-0.2,0.05l-0.07,0.04l0.03,0.04l0.68-0.28l0.08-0.09
		L64.09,76.06z M68.97,73.46l-0.1,0.01L68.7,73.7l-0.31,0.16l-0.28,0.18l-0.06,0.35l0.09-0.01l0.16-0.21l0.44-0.28l0.25-0.2
		l-0.1-0.1L68.97,73.46z M69.31,73.18l-0.08,0.05l-0.06,0.11h0.13l0.18-0.15l0.01-0.08l-0.12,0.02L69.31,73.18z M64.75,76.66
		l-0.11,0.02l-0.1,0.04l-0.1,0.07l-0.35,0.35l0.81-0.38l-0.01-0.11L64.75,76.66z M67.28,70.55l0.07,0.1l0.06,0.03l0.06,0.02h0.07
		l0.07-0.06l0.1,0.01l0.1,0.09l0.06,0.12l0.08,0.06l0.19-0.04l0.07,0.01l0.06-0.07l-0.01-0.1l-0.03-0.04l-0.01,0.03l-0.01-0.05
		l-0.01-0.08l-0.02-0.01l-0.01,0.07l-0.04,0.03l-0.09,0.03l-0.12-0.05l-0.15-0.14l-0.01-0.06l0.15,0.01l0.03-0.07l-0.09-0.12
		l-0.13-0.04l-0.16-0.02l-0.1-0.04l-0.07-0.06l-0.1-0.04L66.97,70l-0.18,0.03l-0.11-0.01l-0.11,0.02l-0.08,0.09l0.02,0.13l0.25,0.25
		l0.13,0.07l0.17-0.07l0.19-0.04h0.08l-0.03,0.01L67.28,70.55z M82.37,63.2l0.09,0.23l-0.04-0.15L82.37,63.2z M81.88,63.11
		l-0.06-0.03l-0.07,0.03l-0.12,0.18l0.04,0.01l0.21-0.15L81.88,63.11z M82.07,62.88l0.04-0.02l0.03-0.15L82.1,62.7L81.87,63
		l0.01,0.04l0.09-0.06L82.07,62.88z M82.19,62.81l-0.03-0.02l0.02,0.25l0.01-0.11V62.81z M74.03,66.6l0.21,0.01l0.06-0.03
		l-0.03-0.06l-0.04-0.03l-0.08-0.02l-0.06-0.03l-0.02-0.08l-0.03-0.17l-0.08-0.03l-0.04,0.01l0.08,0.11l-0.04,0.08l-0.01,0.08
		l0.02,0.06l0.02,0.02l0.01,0.02l-0.01,0.04L74.03,66.6z M81.02,64.21l-0.01-0.09l0.01-0.09l-0.01-0.06l-0.04,0.12v0.27l0.01,0.03
		L81.02,64.21z M77.55,62.07l-0.03-0.08L77.46,62l-0.07,0.1l-0.33,0.31l-0.02,0.07l0.12-0.04l0.06-0.03l0.11-0.15l0.16-0.13
		L77.55,62.07z"/>
</g>
<g id="MAINE">
</g>
<g id="MARYLAND">
</g>
<g id="MASSACHUSETTS">
</g>
<g id="MICHIGAN">
</g>
<g id="MINNESOTA">
</g>
<g id="MISSOURI">
</g>
<g id="MISSISSIPPI">
</g>
<g id="MONTANA">
</g>
<g id="NORTH_CAROLINA">
</g>
<g id="NORTH_DAKOTA">
</g>
<g id="NEBRASKA">
</g>
<g id="NEW_HAMPSHIRE">
</g>
<g id="NEW_JERSEY">
</g>
<g id="NEW_YORK">
</g>
<g id="NEW_MEXICO">
</g>
<g id="NEVADA">
</g>
<g id="OHIO">
</g>
<g id="OKLAHOMA">
</g>
<g id="OREGON">
</g>
<g id="PENNSYLVANIA">
</g>
<g id="RHODE_ISLAND">
</g>
<g id="SOUTH_CAROLINA">
</g>
<g id="SOUTH_DAKOTA">
</g>
<g id="TENNESSEE">
</g>
<g id="TEXAS">
</g>
<g id="UTAH">
</g>
<g id="VIRGINIA">
</g>
<g id="VERMONT">
</g>
<g id="WASHINGTON">
</g>
<g id="WISCONSIN">
</g>
<g id="WEST_VIRGINIA">
</g>
<g id="WYOMING">
</g>
</svg>
