<?xml version="1.0" encoding="UTF-8"?>
<svg id="LOUISANA" xmlns="http://www.w3.org/2000/svg" viewBox="0 0 90 90">
  <defs>
    <style>
      .cls-1 {
        fill: #e2e2e2;
        stroke: #f9f9f9;
        stroke-linecap: round;
        stroke-linejoin: round;
        stroke-width: .03px;
      }
    </style>
  </defs>
  <path id="LA" class="cls-1" d="M45.17,70.67h-.33l-.4-.07v-.02s-.43-.15-.43-.15l-.36-.3-.21-.12-.74-.11-.17,.02-.04,.06-.12,.2-.07,.07-.31,.12-.25,.04-.25,.09-.29,.29v.21l.24,.18,1.38,.5,.13,.12,.15,.04,.79,.45,.51-.13,.18-.02,.09-.04,.02-.11v-.2s.04-.26,.04-.26l.16-.17,.46-.3,.1-.24-.09-.11-.18-.03Zm11,7.09h.03l-.17-.04,.13,.04Zm.03,0l.4,.11,.46-.03-.31-.07h-.54Zm1.48,.02l-.1-.02-.04,.06,.02,.07,.09,.04,.1,.02,.02-.03-.03-.07-.06-.07Zm2.36-.45h-.06s-.22,.01-.22,.01l-.03,.04-.09,.08-.17,.04-.11-.03-.04-.06h-.08s-.27,.15-.27,.15l-.06,.08-.35,.12,.03,.09,.2-.02,.99-.33,.21-.11,.16-.12,.02-.03-.09,.06-.04,.03Zm3.13-.09l-.16-.07-.33-.1-.79-.09v.08s.64,.2,.64,.2l.6,.09h.09s-.01-.07-.01-.07l-.04-.04Zm18.24-10.56l.06-.07-.07,.06-.11,.11h.01s.11-.1,.11-.1Zm-3.99-4.03l.07-.04-.04-.07v-.07s.03-.11,.03-.11l-.34,.11-.22,.11-.2,.2,.03,.07,.11-.06,.13-.06,.24-.07,.19-.02Zm1.44,6.79l.2-.16,.06-.24-.02-.04v-.03s-.04-.02-.04-.02l-.06,.02-.04,.21-.18,.16-.44,.2h.25s.27-.1,.27-.1Zm-16.31,5.02l.07-.09,.08-.12-.02-.13-.15,.08-.07,.34,.03,.21v-.17s.06-.11,.06-.11Zm17.53-5.98l.35-.5,.04-.09-.07,.03-.02,.02-.49,.67,.09-.06,.09-.09Zm-4.02-7.52l.26-.08v-.03s.04-.08,.04-.08l.07-.08,.09-.04h.05s.04,.05,.04,.05l.06,.03h.1s.01-.02,.01-.02l.03-.08,.06-.09,.09-.03,.1,.02,.06,.09,.06,.1,.04,.07,.2,.24,.09,.02,.07-.18,.2,.03,.11-.12,.03-.23-.03-.24h-.09l-.02,.1-.06,.09-.07,.08-.09,.08-.02-.07-.08-.15,.02-.21-.25-.08-.19-.1,.17-.3,.33-.43,.16-.15,.17-.11-.02-.1-.19,.07-.16,.17-.22,.34-.3,.28-.18,.11-.19,.09,.12,.25-.1,.1h-.17s-.09,.03-.09,.03l-.04,.11-.13,.09-.17,.07-.16,.03,.1,.2,.1,.04Zm.53,1.72l.1-.16,.16-.37,.08-.26h-.07l-.18,.33-.11,.26-.05,.15-.1,.17-.11,.17,.07-.02,.22-.26Zm.53,1.78l-.08,.02-.12,.08-.13,.03-.42-.07-.02,.09,.66,.47,.11-.63Zm-18.92,13.28l-.06,.06v.11s.02,0,.02,0l.12-.1,.03-.11h-.04l-.08,.04Zm22.84-3.97v.11s.11-.01,.11-.01l.04-.16,.09-.04,.29,.06-.11-.15-.06-.02h-.12s-.01-.12-.01-.12l.27-.02-.16-.2-.16-.09h-.2s-.22,.04-.22,.04l.07,.15,.03,.07h-.17l-.21-.03-.19-.1-.09-.17-.56-.1v-.1s.13-.06,.13-.06l.12-.07,.09-.1,.07-.14-.15-.04-.06-.12-.07-.16-.13-.16-.04,.04-.12,.09-.06-.18-.09-.1-.09-.08-.09-.13-.04,.04-.13,.07v-.17s-.03-.15-.03-.15l-.03-.09h-.06l-.02-.03v-.04s-.03-.02-.03-.02h-.06s-.09,.29-.09,.29l-.19,.21-.22,.12-.17-.03-.07-.1-.07-.28-.09-.11-.15-.06-.11,.02-.11,.05-.27,.07-.19,.09-.1,.02h-.15s-.21-.13-.21-.13l-.11-.02-.07-.05v-.1s.08-.12,.08-.12l.14-.06h.15s.11-.04,.11-.04l.08-.07v-.08s-.18-.01-.18-.01h-.16s-.14,.03-.14,.03l-.1,.08h-.08s-.09-.04-.09-.04h-.11l-.12,.03-.04-.03-.28-.12-.29,.02-.77,.25h-.18l-.15-.06-.08-.15,.07-.03,.13-.03,.12-.11v-.26l-.19,.12-.08-.1,.03-.21,.11-.21v-.11s-.25,.01-.25,.01l-.38-.18-.22-.06,.02-.06h.01s.06-.07,.06-.07l-.2-.07-.33,.07-.33-.17-.37-.09-.13-.08-.09-.15-.1-.33-.09-.17-.42-.42-.09-.17h.05s.12-.02,.12-.02l-.1-.13-.14-.06-.33-.06,.45-.13,1.11,.19,.25-.12-.37-.32-.02-.07v-.1s-.29-.09-.29-.09l.12-.08,.04-.02-.19-.14-.36-.18-.13-.16,.4,.09,.68,.35,.38,.04h.36s.42,.04,.42,.04l.16,.09,.17,.15,.19,.11h.24v-.11s-.48-.35-.48-.35l-.22-.1h.07s.06-.02,.06-.02h.06s.09,0,.09,0l-.17-.17h-.27s-.29,.07-.29,.07h-.27s-.17-.16-.17-.16l-.11-.25v-.28s.19-.26,.19-.26l.12-.04h.29s.12-.01,.12-.01l.15-.09,.07-.08,.11-.28,.17-.21,.18-.19,.1-.2-.08-.26h.17s.17,.02,.17,.02l.15,.08,.11,.1,.17,.25,.11,.09h.16s-.01,.09-.01,.09v.21s-.02,.1-.02,.1l.11-.11,.09-.3,.1-.12h.1l.31,.04h.13l-.19-.09-.11-.16-.09-.18-.12-.16,.06-.1,.09-.11,.11-.09,.17-.03-.06-.07-.02-.05-.04-.05-.08-.03,.08-.04,.26-.19-.38-.11-.09-.06-.08,.11-.07,.06-.19,.08v-.11s.22-.2,.22-.2l.09-.14-.06-.16-.11-.02-.16,.08-.13,.12-.07,.13h-.08s0-.07,0-.07h-.02s.01-.02,.01-.02l-.09-.06-.21-.23v-.09s.33-.24,.33-.24l.11,.24,.25-.08,.12-.24-.24-.27-.19-.03-.36,.1h-.17l-.18-.08,.02-.06,.12-.06,.09-.11v-.14s-.08-.11-.08-.11l-.03-.12,.07-.16,.16-.11h.37s.17-.07,.17-.07l.15-.14v-.12s-.08-.08-.08-.08l-.19-.04-.09,.04-.26,.21-.07,.09h-.08s-.03-.04-.03-.04h-.01s-.02-.01-.02-.01l-.04-.02v-.11s.09-.01,.09-.01v-.09s-.11-.06-.11-.06l-.31-.1h-.13s-.09-.09-.09-.09h-.07s-.09,.06-.09,.06l-.02,.09,.02,.19v.08s-.07,.13-.07,.13l-.04,.1-.04,.1-.08,.1-.13,.1-.26,.09-.12,.07-.17,.17-.06,.19,.04,.55-.02,.33-.11,.34-.18,.3-.21,.18-.28,.1-.3,.02-.29-.08-.27-.2-.34-.34,.03-.18,.16-.27,.02-.09-.11-.06-.43,.25-.2,.08-.36,.02-.22-.03-.16-.15-.16-.27-.11-.28-.04-.24,.04-.24,.16-.24,.26-.18,.36-.02,.35,.11,.27,.22,.12-.13v-.15s-.07-.13-.07-.13l.02-.16,.1-.09,.37-.17,.02-.38,.11-.2,.17-.16,.15-.28-.15-.08-.25-.24-.19-.06-.34,.13-.04,.11,.08,.06,.11,.03h.04v-.09l.07-.04,.07,.02,.04,.09-.02,.12-.06,.07-.17,.15-.07,.03h-.2s-.08,0-.08,0v.06l-.15,.37-.04-.08-.06-.04-.06-.03-.04-.03,.08-.16,.1-.41,.12-.19-.11-.2h-.1s-.02,.21-.02,.21l-.06,.2-.1,.2-.25,.4-.03,.12-.02,.07h-.11l-.19-.04-.21-.09-.19-.12-.09-.15-.06-.22-.11-.08-.31-.02-.2,.51-.33,.44-.84,.74-.25,.13-.27,.09-.88,.16-.52,.21-.31,.02-.83-.16-.5-.27h-.95l-.55-.17-.48-.36-.29-.53v-.7l.26-.5,.89-.93,.31-.47,.42-.76,.27-.34,.28-.24,.43-.09,.61,.03,.63,.11,.52,.16,.64,.46,.11,.04,.07,.13,.33,.55,.13,.15,.6,.06,.15-.03,.24-.09,.15-.03,.29,.08,.5,.35h.29l.43-.19h.25s.13,.27,.13,.27v.15s-.03,.1-.03,.1v.1l.08,.11,.1,.06,.27,.06,.1,.06,.2-.11h.2s.45,.04,.45,.04l.21-.08,.2-.11,.18-.04,.15,.17-.13,.09-.08,.03h-.12s.24,.18,.24,.18l.38-.16,.36-.28,.12-.21-.1-.09-.17-.03-.16,.07-.09,.17-.33-.31-.47-.89-.29-.42-.03-.62-.09-.25-.42-.55-.11-.24-.02-.12v-.27s-.03-.12-.03-.12l-.04-.1-.25-.38-.39-.22-.22-.45-.22-.13-.44-.12-.21-.19-.41-.7,.13-.33-.13-.25-.21-.21-.15-.21v-.27s.06-.34,.06-.34l.19-.56-.1-.28,.09-.27,.28-.42,.13-.89,.25-.59,.12-.55,.03-.54-.06-.22-.49,.06-.56,.04-.26,.02-.73,.07-1.15,.1-1.47,.14-1.75,.16-1.96,.17-2.09,.19-2.16,.18-2.16,.18-2.09,.17-1.96,.16-1.75,.14-1.49,.12-1.14,.08-.74,.06-.26,.02-.6,.04h-.08s.95-.91,.95-.91l-.11-.38-.43-.45-.18-.41v-.15l.11-.27,.02-.17,.03-.06,.04-.17v-.17s-.07-.08-.07-.08l-.18-.1-.22-.24-.16-.3v-.24l.19-.12,.29-.05,.62-.02,.27-.08,.15-.18,.07-.25,.09-.99,.11-.15,.02-.14v-.29l-.03-.09-.19-.31-.13-.17-.07-.1-.11-.65,.27-.47,.86-.72v-.1l.06-.17-.02-.36,.15-1.33v-.3s.02-.26,.02-.26l.34-.75,.12-.57,.1-.28,.17-.27,.21-.17,.53-.16,.25-.11,.23-.21,.54-.73,.07-.13,.1-.33,.09-.13,.12-.09,.38-.16,.44-.38,.24-.54-.03-.55-.43-.42v-.1s-.02-.14-.02-.14l.03-.16,.11-.14,.69-.02,.38-.8,.33-1,.53-.62v-.11s.09-.06,.09-.06l.02-.21-.1-.22-.3-.09-.45-.03-.21-.07-.1-.1-.16-.59-.31-.26-.4-.13-.45-.23-.17-.2-.06-.25-.03-.62,.02-.15,.04-.17,.02-.19-.04-.17-.1-.11-.33-.17-.13-.1-.17-.2-.12-.24-.09-.28-.06-.33,.12-.22,.31-.09,.35-.04,.22-.08,.18-.34-.08-.26-.24-.17-.64-.06-.17-.11-.04-.21,.04-.61,.15-.74,.11-.17,.15-.1,.18-.22,.16-.28,.1-.27-.27-.28-.17-.15-.17-.04h-.2s-.22-.07-.22-.07l-.18-.1-.09-.13v-.51s-.19,.03-.19,.03l-2.26,.18-2.27,.18-2.27,.17-2.26,.17-2.26,.17-2.27,.17-2.27,.16-2.26,.16-2.27,.14-2.27,.15-2.26,.15-2.27,.15-2.27,.13-2.27,.13-2.26,.14-2.27,.12,.09,1.78,.18,3.54,.1,1.78,.09,1.78,.09,1.78,.1,1.77,.09,1.78,.06,1.13v.03s.04,.05,.04,.05l.07,.08,.18,.12,.09,.03,.17,.12,.06,.07,.29,.47,.04,.06,.06,.04,.07,.03,.43,.19,.12,.09,.26,.25,.19,.21,.12,.2,.07,.13,.06,.15,.11,.19,.35,.46,.04,.13,.12,.59,.06,.18,.06,.11,.04,.03,.03,.06,.03,.06,.02,.07v.09l-.04,.25-.02,.13v.43s0,.12,0,.12l-.02,.09-.04,.11-.04,.16v.1l.02,.11,.04,.15,.04,.09,.08,.13,.15,.17,.36,.36,.11,.09,.07,.03,.08,.03,.31,.08,.08,.03,.07,.03,.04,.06v.09s-.02,.08-.02,.08l-.03,.04h-.01v.02l-.13,.09-.03,.07v.07s.02,.12,.02,.12l.03,.07,.04,.07,.04,.03,.07,.03,.16,.03,.07,.02,.06,.04,.06,.09,.03,.12,.06,.24,.03,.12,.06,.1,.13,.17,.21,.2,.18,.11,.03,.04v.04s-.16,.22-.16,.22l-.03,.06-.04,.14-.02,.09v.11s.02,.16,.02,.16l.04,.09,.07,.07,.35,.26,.15,.15,.04,.06,.03,.08,.04,.08,.02,.12,.04,.1,.04,.08,.07,.1,.02,.08,.08,.41,.03,.08,.03,.04,.04,.04,.03,.02h.03s.04,.01,.04,.01h.04l.25-.08,.24,.04,.08,.25v.82s-.13,.21-.13,.21l-.02,.17,.38,.54,.19,.16,.06,.1-.04,.16-.09,.08-.35,.12-.13,.03-.18,.17,.13,.34,.23,.3,.1,.11,.11,.19v.07s-.09,.16-.09,.16l-.18,.19-.11,.13-.03,.16,.02,.17,.08,.28,.02,.17v.18s0,.13,0,.13l-.07,.26-.42,.9-.07,.73-.11,.22-.42,.37-.1,.25-.15,.76v.16s-.27,.09-.27,.09l-.18,.2-.1,.27v.3s.06,.07,.06,.07l.1,.06,.04,.08,.02,.29h0s.18,.46,.18,.46l.02,.11-.02,.28-.08,.21-.3,.42-.16,.35-.03,.29,.09,.66,.1,.23,.21,.17,.2,.21,.08,.34-.02,.15-.11,.3v.18s.02,.15,.02,.15l.15,.21,.03,.1,.04,.28,.06,.21,.02,.24-.07,.35-.15,.32v.13s.09,.18,.09,.18l-.72,.92-.24,.48h.1s.22,.09,.22,.09l.08,.21v.98s-.49,1.1-.49,1.1l-.2,.07-.82,.1-.11,.17,.04,.35,.17,.62,.35,.44,.27,.18,.27-.09,.2-.18,.39-.22,.18-.17,.42-.27,.61-.13,1.1-.08h0l1.34-.04,.33-.16,.24,.04,.59-.1,.28,.1,.27-.17,.74-.18,.69-.07,.73,.08,1.45,.27,.91,.36,1.62,.43,.72,.51,.49,.24,1.41,.49,2.23,.35,.45-.15,.15,.07,.12-.08,.31,.15,2.03,.21,.39-.04,.37-.12,.92-.57,.38-.12,.82,.02,.36-.03,.16-.2-.28-.07,.07-.16,.16-.1,.4-.11-.17-.13-.3,.02-.31,.12-.19,.17h-.1l-.1-.25-.43-.75,.17-.07,.36-.28-.12-.07-.1,.02-.12,.04-.3,.08-.18,.16-.1,.04-.12-.12-.16-.28-.12-.35-.07-.26,.29,.17h.08s.07-.06,.07-.06l.09-.21,.04-.04,.22,.04,.11,.15-.02,.18-.16,.15h.19s.15-.13,.15-.13l.28-.34,.17-.11,1.1-.49,.11-.11,.07-.2-.03-.13,.02-.07,.22-.03,.16,.04,.15,.1,.16,.03,.33-.3h.17s.62,.03,.62,.03l.16,.08,.1,.15,.04,.2-.02,.27-.1-.04-.12-.16-.11-.1-.13,.15-.1,.29-.03,.28,.11,.13,.04,.11,.02,.21,.12,.15,.33-.09,.47-.33,.22-.11,1.22-.16h.3s.33,.12,.33,.12l.11,.19v.66s-.02,.35-.02,.35l-.06,.26,.07,.15h.35s.15-.06,.15-.06l.28-.16,.13-.03,.11,.07,.04,.16v.19s.07,.13,.07,.13l.16,.26,.08,.34-.03,.32-.17,.17,.33,.04,.54-.13,.52-.21,.29-.24,.2,.11-.02,.13-.08,.16-.06,.16,.08,.1,.16,.02h.33s.32,.05,.32,.05l.58,.19,.3,.18,.04-.17,.13-.3,.04-.17-.03-.03-.07-.12-.03-.16,.04-.15,.36-.35,.06-.21-.17-.34h.22s.17,.04,.17,.04l.12,.13,.06,.19-.02,.25-.1,.16-.15,.11-.12,.14-.15,.36-.02,.41,.1,.39,.22,.34,.09,.06,.18,.03,.07,.04,.03,.1v.25l.04,.11,.16,.12,.44,.2,.77,.56,.18,.32-.2,.4v.1s.08,.02,.08,.02l.07,.1,.07,.07-.11,.12-.12,.1-.27,.12v-.17s-.08-.12-.08-.12l-.1-.07-.15-.02,.11-.21,.03-.23-.03-.51-.38,.15-.33-.16-.18-.29,.03-.25-.31,.05-.15,.18-.08,.26-.13,.28-.18,.16-.25,.08-.24-.04-.16-.22,.21,.66,.61,.46,.77,.28,1.39,.12,.16,.04,.33,.26,.13,.06h.21l.17-.04,.11-.12,.02-.24,.08-.08h.21l.22,.07,.13,.12-.13,.04-.09,.09-.03,.12,.02,.17,.36-.17,.37,.06,.35,.19,.65,.52,.13-.03,.03-.07v-.07l.04-.06,.28-.18,.04-.13-.1-.24,.24,.07,.24,.13,.22,.07,.22-.12,.12,.27-.13,.11-.2,.07-.1,.19h.16l.48,.11h.1s.07-.24,.07-.24h.23s.2,.07,.2,.07l.09,.06,.1-.03,.04-.08,.03-.08,.18-.1v-.14l-.02-.13v-.09s.16-.07,.16-.07l.15,.02,.09,.12,.1,.19-.02-.26,.04-.58-.03-.02-.07-.07,.08-.36,.06-.16,.08-.12,.13,.15,.12,.15,.1,.06,.11-.18-.18-.21,.07-.16,.12-.19v-.28h-.3s-.07-.06-.07-.06l-.02-.17,.06-.09,.1-.02,.13,.04v-.15s.08-.08,.08-.08l.11-.03,.15,.02v.11s-.16,.1-.16,.1l.13,.06,.46,.11,.16-.09,.1-.13,.13-.04,.19,.21,.28-.37,.09-.2v-.24s.06-.24,.06-.24h.13l.11,.09,.02,.06,.08,.09,.3,.41,.09,.19,.08,.84,.27-.45,.03-.16v-.2l.06-.15,.11-.09,.16-.06v.1l.03,.17,.54,.5,.15,.26,.06,.07,.09-.19,.08-.25v-.12h.13s.1,.15,.1,.15l.06,.19,.02,.16v.18l-.04,.23v.18s-.02,.16-.02,.16l-.07,.17-.04,.16,.07,.13,.31,.25,.09,.11,.06,.19,.02,.19v.15l-.08,.09,.2,.06,.39-.21,.63-.48,.21-.1,.2-.2,.17-.22,.17-.17,.07-.1,.25-.62,.07-.25-.43,.1-.26-.4,.03-.46,.39-.04-.17-.25,.1-.13,.21,.02,.2,.24,.26-.15v-.1s-.24-.09-.24-.09l-.2-.17-.13-.24-.06-.28,.11,.02,.08,.07,.07,.09,.04,.11v-.4s-.04-.12-.04-.12l-.05-.09-.07-.08-.09-.07v-.25s.01-.15,.01-.15l.1-.1,.19-.11-.32-.25-.33-.17-.34-.08h-.52s-.13-.09-.13-.09l-.61-.47-.13-.08-.07,.09-.06,.02-.07-.06-.08-.13h.12s.11-.04,.11-.04l.19-.1v-.1s-.09,.01-.09,.01l-.27,.02,.06-.22,.18-.27,.07-.16,.2,.16,.36,.43,.22,.18,.09-.12-.19-.09,.04-.09,.17-.06,.22,.02,.26,.09,1.52,.83,.4,.1,.43-.24,.45,.39,.22,.06,.07-.35v-.21s.04-.04,.04-.04l.1,.04,.32,.04,.04,.09-.04,.19h-.02s-.06,.06-.06,.06l-.06,.09-.02,.08v.09s.04,.06,.04,.06l.03,.02,.02,.02,.03,.07,.06,.1,.09,.09,.08,.03,.27-.19,.15-.04,.08,.13-.03,.11-.07,.09-.02,.11,.08,.17,.03-.08,.02-.03,.04-.03,.07-.08,.09,.2,.07,.17v.17s-.09,.18-.09,.18l-.15,.13-.2,.15-.44,.2h1.84l.15-.07,.33-.36,.18-.11,.16,.12v.13s-.18,.37-.18,.37l.24,.17,.1,.24,.13,.19,.36,.04h.35l.81,.21-.17-.3,.13-.15,.27-.02,.27,.1-.24,.14h-.11s.86,1.27,.86,1.27l.28,.08,.11,.08-.06,.18v.11l.19,.39,.15,.11,.29-.09,.29-.2,.15-.26-.02-.18-.1-.32-.03-.18,.02-.17,.08-.1h.09l.06,.15,.02,.37,.04,.19,.1,.1,.1-.06,.02-.18v-.19s0-.11,0-.11h.2v.3l-.09,.35-.08,.18-.18,.54-.11,.07-.29,.09-.1,.1v.09l.03,.15,.02,.18-.06,.16-.25,.37-.08,.16-.21,.21-.07,.09-.02,.15v.48l.28-.11,.21-.23,.53-.98,.07-.21v-.19s.1-.25,.1-.25l.27-.12,.3-.07,.2-.1,.06-.14-.02-.09-.04-.1-.03-.15v-.16s.07-.01,.07-.01l.16,.09,.1,.11,.4,.54,.09,.18,.1,.15,.44,.46,.16,.09,.17-.1-.31-.48v-.28s.34-.39,.34-.39l.15-.22,.04-.21,.07,.11,.08,.07,.16,.11v-.17s-.07-.17-.07-.17l-.08-.13-.1-.12h.22s.16,.07,.16,.07l.09,.17,.03,.22,.16-.19,.29-.79-.86,.07-.12,.02v-.18l.17-.23,.21-.2,.18-.07v.09l.02,.11Zm-5.93-8.5l-.09-.18-.19-.09-.06-.04-.07-.04-.17-.09-.18,.2-.02,.23,.11,.63,.17-.12,.09-.36,.1-.08,.09,.06,.08,.13,.11,.13,.18,.04-.09-.2-.07-.21Zm6.82,.69l.4-.67,.17-.36-.73,1.2,.16-.17Zm-11.95,6.54l-.02,.09-.09-.02-.09-.09h-.03l-.03,.09-.1,.1v.07s.22,.02,.22,.02l.17,.11-.04-.08v-.07s.02-.03,.02-.03l.09-.03v-.03l-.03-.07-.06-.06Zm12.91-11.21l-.22-.25-.15-.35-.17-.3-.3-.16,.21,.15,.15,.21,.18,.53,.1,.1-.04,.17,.08,.24,.23,.39-.07,.1,.03,.25,.07,.79-.04,.26-.32,.82,.07,.08,.02,.09,.02,.08v.09s.25-.65,.25-.65l.08-.35v-1.26s-.18-1.03-.18-1.03Zm-18.78,14.77l-.1-.04-.08,.02-.02,.08v.08l-.03,.03-.26,.15-.2,.05-.07,.04,.03,.04,.68-.28,.08-.09-.02-.08Zm4.88-2.6h-.1s-.17,.24-.17,.24l-.31,.16-.28,.18-.06,.35h.09s.16-.22,.16-.22l.44-.28,.25-.2-.1-.1,.09-.11Zm.34-.28l-.08,.05-.06,.11h.13l.18-.15v-.08s-.11,.02-.11,.02l-.07,.03Zm-4.56,3.48l-.11,.02-.1,.04-.1,.07-.35,.35,.81-.38v-.11s-.15,.01-.15,.01Zm2.53-6.11l.07,.1,.06,.03,.06,.02h.07l.07-.06h.1s.1,.1,.1,.1l.06,.12,.08,.06,.19-.04h.07s.06-.06,.06-.06v-.1s-.04-.04-.04-.04v.03s-.02-.05-.02-.05v-.08s-.03-.01-.03-.01v.07s-.06,.03-.06,.03l-.09,.03-.12-.05-.15-.14v-.06s.13,.01,.13,.01l.03-.07-.09-.12-.13-.04-.16-.02-.1-.04-.07-.06-.1-.04-.29-.08-.18,.03h-.11s-.11,.01-.11,.01l-.08,.09,.02,.13,.25,.25,.13,.07,.17-.07,.19-.04h.04s-.01,.08-.01,.08Zm15.09-7.35l.09,.23-.04-.15-.04-.08Zm-.49-.09l-.06-.03-.07,.03-.12,.18h.04s.21-.14,.21-.14v-.04Zm.18-.24l.04-.02,.03-.15h-.04s-.24,.29-.24,.29v.04s.1-.06,.1-.06l.1-.11Zm.12-.07l-.03-.02,.02,.25v-.11s.01-.11,.01-.11Zm-8.17,3.79h.21s.06-.02,.06-.02l-.03-.06-.04-.03-.08-.02-.06-.03-.02-.08-.03-.17-.08-.03h-.04s.08,.12,.08,.12l-.04,.08v.08s.01,.06,.01,.06l.02,.02v.02s0,.04,0,.04l.06,.02Zm7-2.39v-.09s0-.09,0-.09v-.06s-.06,.12-.06,.12v.3s.06-.19,.06-.19Zm-3.48-2.15l-.03-.08h-.06s-.07,.11-.07,.11l-.33,.31-.02,.07,.12-.04,.06-.03,.11-.15,.16-.13,.06-.06Z"/>
  <g>
    <path d="M29.56,47.27h1.64v.94h-2.87v-5.09h1.23v4.15Z"/>
    <path d="M34.92,47.29h-1.91l-.32,.93h-1.3l1.86-5.05h1.42l1.86,5.05h-1.31l-.32-.93Zm-.32-.94l-.63-1.87-.64,1.87h1.27Z"/>
  </g>
</svg>