<?xml version="1.0" encoding="UTF-8"?>
<svg id="MAINE" xmlns="http://www.w3.org/2000/svg" viewBox="0 0 90 90">
  <defs>
    <style>
      .cls-1 {
        fill: #e2e2e2;
        stroke: #f9f9f9;
        stroke-linecap: round;
        stroke-linejoin: round;
        stroke-width: .03px;
      }
    </style>
  </defs>
  <path id="ME" class="cls-1" d="M54.13,61.58l-.57,.08h-.28s-.53-.18-.53-.18l-.22,.05v.34s.3,.01,.3,.01l.28,.1,.15,.19-.03,.31,.49,.09h.25s.08-.13,.08-.13l.04-.18,.16-.14,.1-.19-.08-.34h-.14Zm1.26-2.13l-.12-.06-.12-.13,.13-.1,.28-.17,.12-.12-.12-.17-.09-.21-.14-.18-.28-.09-.36-.08-.14,.05-.09,.19-.03,.18,.04,.18,.08,.17,.09,.14h-.1s-.21,.1-.21,.1h-.1s.22,.27,.22,.27l.09,.16v.17s-.03,.17-.03,.17l.06,.06,.49,.12,.23-.13,.42-.39-.03-.1-.3-.04Zm3.91-5.03l-.13-.31-.43-.13-.51,.18-.41,.36-.17,.4,.18,.09v.15l-.1,.16-.15,.1-.08,.1-.06,.22-.06,.63v.23l.05,.21,.12,.05h.19l.12,.08v.13l-.17,.12,.19,.22,.48,.08,.21,.18,.05-.05,.13-.1,.04-.04,.15,.25,.18-.1,.15-.26,.1-.23-.05-.18-.22-.12-.19-.18-.04-.42,.09-.03,.36,.18,.52-.2,.45-.37,.18-.4-.25-.44-.93-.57Zm13.47-11.37l-.27-.35-.03-.06v-.08s-.03-.06-.03-.06h-.05l-.17,.06h-.04l-.39-.36-.18-.12h-.21l.43,.63,.08,.34-.22,.27-.12-.36-.24-.39-.25-.23-.21,.15,.09,.06,.12,.14,.05,.06-.14,.14,.14,.09-.17,.1-.28-.23-.13,.06v.13s.13,.5,.13,.5l.03,.17-.43-.78-.17-.13-.3-.15-.22-.18v-.25s.17-.01,.17-.01l.52,.22,.18,.03,.18-.12,.06-.2-.06-.18-.23-.11,.03-.41h.14l.21,.17,.17,.08,.23-.17v-.26s-.03-.27-.03-.27l.09-.23-.19-.12-.39-.43-.1-.09-.18-.03-.25-.14-.16-.23,.05-.3-.25-.23-.26-.21-.18-.09-.09-.04h-.09l-.03-.03-.13-.19-.13-.14-.06-.1-.08-.08h-.11s-.25,.08-.25,.08h-.05l-.12-.17-.23-.03-.34-.08h-.17s-.13,.09-.13,.09l-.09,.15v.14s.05,.13,.05,.13v.17s-.36,.39-.36,.39l-.5-.06-.54-.31-.67-.56-.67-.32-.13-.25v-.34s.03-.3,.03-.3l.14-.61-.12-.62-.98-.91-.31-.56,.23-.35,.23-.31,.14-.25-.12-.58-.26-.44-.28-.13-.33,.06-.36,.16-.54,.15-.73,.05-.72-.09-.45-.15-.22-.12-.13-.15-.13-.14-.15-.06-.09,.05-.03,.13-.06,.13h-.17s-.35-.08-.35-.08l-.22-.09-.14-.2-.31-.84v-.27s.05-.32,.05-.32l.09-.31,.03-.22-.1-.21-.28-.22-.15-.25,.06-.27,.15-.3,.06-.28-.06-.14-.13-.09-.14-.08-.12-.1-.06-.15-.69-2.15-.67-2.15-.67-2.15-.68-2.15-.67-2.15-.67-2.15-.67-2.14-.67-2.15-.23-.62-.09-.09-.57-.1-.23-.09-.49-.4-.65-.26-.12-.1-.12-.21-.15-.15-.49-.3-.65-.18-.93-.44-.19-.05-.4-.04-.15-.04-.46-.32-.19-.09-.67-.13-.66,.06-.53,.32-.27,.61,.03,.19,.06,.14v.09l-.28,.16-.12,.12-.14,.06-.44-.12-.33,.07-.3,.13-.23,.16-.45,.44-.22,.27-.14,.3-.17,.22-.28,.12-.59,.14-.49,.28-1.3,1.19-.2,.06-1.88-.49-.3-.26-.17-.31-.05-.1-.15-.52-.14-1-.13-.47-.25-.17-1.94,.08-.18,.06-.13,.14-.14,.26-.67,1.75-.66,1.75-.67,1.75-.68,1.75-.67,1.75-.67,1.75-.69,1.75-.68,1.75-.13,.34v.75l.12,.85,.23,1.64,.15,1.11-.04,.45-.74,1.02-.15,.12-.22,.23v.37l.06,.36v.16s-.23,.15-.23,.15l-.09,.25-.05,.65-.15,.74,.05,.34,.3,.07,.26,.28,.16,.34,.03,.35-.12,.27-.36,.4-.1,.2,.05,.13,.1,.06,.06,.06,.08,.04,.05,.05,.04,.09v.06s-.09,.13-.09,.13v.06s.01,.62,.01,.62l.08,.26,.21,.2,.34,.06h.22s.12,.09,.12,.09l.04,.44-.1,.6-.26,.47-.75,.96-.18,.3-.04,.12,.03,.18,.06,.09,.09,.08,.1,.15,.12,.35,.03,.31-.09,.27-.19,.25-.12,.06-.28,.08-.13,.1-.28,.4-.62,.5-.15,.22-.84,1.62-.25,1.19,.05,.27,.21,.31,.25,.18,.56,.16,.27,.13,.19,.27-.09,.26-.25,.18-.26,.06-.3-.06-.53-.3-.27-.05-.28,.06-.19,.18-.1,.25v.31s.05,.34,.05,.34l.23,.71,.05,.31-.05,.17-.21,.24-.05,.14v.14s.12,.31,.12,.31v.17l-.18,.23-.22-.14-.93-1.24-.26-.15-.32,.04-.26,.14-.11,.18-.06,.21-.15,.27-.1,.09-.25,.1,.28,.87,.28,.85,.27,.87,.28,.85,.28,.85,.57,1.72,.27,.87,.28,.85,.28,.87,.28,.85,.28,.87,.27,.87,.28,.85,.28,.87,.28,.85,.28,.87,.29,.87,.28,.85,.27,.87,.3,.87,.28,.87,.27,.85,.28,.87,.28,.87,.28,.87,.28,.85,.29,.87,.28,.87,.28,.87,.28,.87,.28,.87,.17,.48,.08,.53,.07,.25,.03,.25v.2s.05,.14,.05,.14l.1,.22,.09,.27v.19s0,.44,0,.44v.1l.04,.12,.04,.11,.1,.17,.1,.13,.13,.1,.49,.34,.57,.46,.53,.45,.57,.18,.11,.06,.09,.1,.12,.22,.04,.14,.03,.14v.53l.03,.18,.05,.09,.34,.35,.57,.36,.45,.3v-.08l.03-.48-.05-.09,.22-.09,.25,.18,.25,.22,.22,.05,.1-.18,.13-.97,.13-.49,.12-.19,.18-.16-.21-.06,.08-.35,.12-.3-.27-.31-.09-.4,.04-.43,.09-.39,.26-.61,.1-.17,.12-.06,.37-.13,.27-.21,.16-.26,.13-.29,.18-.27,.09-.08,.15-.06,.05-.08v-.09s.01-.23,.01-.23v-.1s.17-.36,.17-.36l.12-.17,.14-.14-.03-.09-.13,.05-.12,.09-.21,.22-.17-.35-.12-.31-.04-.31,.04-.4,.09-.25,.19-.23,.18-.03,.13,.34,.17-.17,.15-.44,.22-.14v.13s-.03,.13-.03,.13l.16-.09,.28-.25,.18-.08v-.12l-.08-.53-.05-.18-.27-.36-.3-.04-.31,.1-.39,.06-.03-.13,.37-.09,.15-.11,.09-.21-.06-.13-.12-.22-.06-.21,.31-.35,.13-.78,.24-.23,.46-.84,.12-.09,.13-.05,.14-.1,.27-.23,.1-.14,.13-.34,.09-.18,.13-.13,.17-.08-.03,.22-.06,.19-.09,.15-.09,.12,.17-.03,.34-.44,.26-.12v.5s-.35,1.05-.35,1.05l-.1,.5,.22-.09,.14-.22,.06-.3-.03-.28v-.27l.09-.41,.12-.37,.1-.17,.14,.32-.35,1.91,.09-.04,.06-.08,.03-.1-.03-.28,.05-.06,.08-.05,.06-.09,.33-.81,.13,.21,.12-.06,.1-.23,.03-.25-.08-.3-.13-.17-.17-.09-.17-.04,.05-.14,.09-.1,.1-.06,.13-.03,.17,.03,.03,.05-.03,.12v.18s.1,.14,.1,.14l.22,.1,.09,.13,.03,.18-.04,.08-.04,.06v.12s.05,.39,.05,.39l.08,.27,.12,.1,.15,.08,.17,.49,.19,.14v-.21s.06-.22,.06-.22l.1-.17,.14-.1v-.09s-.01-.44-.01-.44l-.08-.15-.19-.26-.27-.53-.18-.57-.52-1.26-.35-.59-.15,.35-.09,.15-.13,.08-.13-.03-.12-.1-.05-.14,.03-.19,.52-1.02,.15-.18,.1-.09,.08-.27,.14-.09,.09,.06-.06,.22-.17,.35v.39s.05,.36,.05,.36l.14,.32,.1,.3,.12,.17,.06,.18,.04,.19,.08,.21,.09,.17,.16,.19,.09,.15,.3,.78h.1s.06,0,.06,0l.05,.1v.05l-.03,.05v.08s.01,.12,.01,.12l.25,.44,.15-.04,.1-.32,.05-.92-.03-.26-.13-.09-.1,.12-.06,.43-.09,.14,.04-.49-.03-.25-.09-.21-.13-.06-.18-.03-.1-.09,.05-.27,.65-2.1,.12-.25,.14-.14,.2-.04v.15s-.12,.19-.12,.19l-.05,.09-.05,.65,.03,.22,.13,.25,.14,.06,.15,.03,.17,.17h-.09s-.17,0-.17,0l-.1-.03v.14s-.01,.1-.01,.1l.04,.09,.09,.1-.14,.47,.05,.1,.18,.13,.28,.13,.21,.05,.18-.08,.14-.21,.14,.56,.08,.12,.08-.27v-.3s-.12-.27-.12-.27l-.15-.22-.18-.17,.04-.11v-.13s-.08-.13-.08-.13l-.09-.08,.04-.12,.03-.15v-.15s-.08-.1-.08-.1l-.05-.12,.03-.15,.09-.3,.05-.48,.05-.25,.09-.18,.14,.25-.19,.76v.4l.06,.12,.14,.08,.06,.1v.08s0,.21,0,.21v.12s.01,.18,.01,.18l-.03,.17,.06,.16,.25,.14-.06,.14,.25,.19-.15-.54-.05-.26v-.26h.08s.12,.21,.12,.21l.17,.18,.15,.21,.12,.34,.15-.34,.05-.53v-1.53s.01-.25,.01-.25l.08-.23h.08l.19-.1,.12-.18-.19-.36,.12-.13,.16-.13,.05-.15v-.27s.12-.04,.12-.04l.13,.13v.23l-.15,.34,.04,.09,.23-.03,.08,.08v.24s-.1,.41-.1,.41l.19-.05,.26-.27,.17-.09,.15,.04v.48s.09,.19,.09,.19l.1-.18,.49-1.14,.23-.09-.04,.31-.22,.7,.08,.43h.08s.22-.12,.22-.12l.13-.1,.36-.4-.17-.09-.06-.16v-.21s.04-.21,.04-.21h.13s.06-.03,.06-.03l.03-.12-.03-.17,.39,.04,.09-.26-.04-.32,.05-.19,.31-.14,.17-.2,.05-.28,.04-.4-.4,.17-.08-.18v-.3l-.14-.23-.03-.09,.09-.18,.06-.26,.05-.48v-.84s.1-.3,.1-.3l.05-.84,.15-.16,.22-.18,.18-.22,.04-.27-.17-.25-.52-.48-.08-.15v-.19s-.18-.09-.18-.09l-.09-.12,.22-.25,.52-.32,.13-.15,.23-.43,.18-.17h.19s-.04,.3-.04,.3h.15s.22-.19,.22-.19l.17-.26-.21-.04h-.08s-.01-.96-.01-.96l-.05-.45,.06-.04,.21-.05h.44s.13,.26,.13,.26l-.14,.93v.11s.06,.25,.06,.25v.12l-.05,.1-.12,.13-.04,.05-.03,.22v.29s.04,.26,.04,.26l.15,.16,.14-.07,.09-.21,.13-.43,.09-.13,.39-.37,.08,.22,.34,.3-.04,.1h-.14s-.3-.07-.3-.07l-.08,.04-.09,.18-.13,.18,.12,.1,.13,.17,.05,.15-.09,.12h-.12s-.15-.13-.15-.13h-.13l-.13,.17-.03,.32,.06,.63,.35-.14,.36-.41h.32s.45,.29,.45,.29l.31,.1,.18-.12,.43-.09,1.41,.62,.31-.25-.15-.04-.14-.05-.13-.09-.12-.16,.21,.08,.1-.08-.03-.18-.13-.22-.13-.06h-.15s-.14-.01-.14-.01l-.1-.18v-.21s.04-.49,.04-.49l-.06-.14-.16-.16-.25-.34-.19-.13h.34l.29-.09,.23-.19,.15-.38,.1,.14,.08,.17,.12,.39,.06,.06,.09-.15,.05-.22,.03-.17-.04-.13-.04-.05-.06-.03-.08-.04-.08-.09v-.08l.03-.08v-.1l-.09-.21-.39-.44,.35-.1,.26,.04,.18,.23,.22,.88,.1,.18,.17-.04,.3-.19-.12-.21,.21-.44v-.35s.25,.12,.25,.12h.28s.54-.18,.54-.18l-.06-.05-.04-.05-.07-.05-.08-.03,.12-.39-.22-.18-.44-.05-.03-.32,.18-.04,.26,.05,.22-.06,.06,.27,.12,.15,.52,.32v-.1s-.06-.22-.06-.22l-.04-.25,.08-.45,.13,.05,.14,.35,.14,.45,.06,.1,.09,.04,.18-.05,.09-.06-.04-.09-.08-.1-.03-.08v-.13l-.03-.09v-.09l.09-.1h.07l.04,.08,.03,.09,.06,.04h.36l.13,.25,.05,.39,.18,.4,.27,.44,.19,.23,.05-.06,.18-.13-.03,.26,.03,.22,.1,.17,.21,.12,.06-.24,.19-.7,.03-.17-.04-.08v-.05s.09-.09,.09-.09h.08l.05,.1,.08,.08,.12-.04,.05-.09v-.14s.01-.14,.01-.14l-.03-.12-.05-.04-.26-.4-.03-.08-.45-.1-.19-.1,.13-.12,.25,.04,.12-.04v-.17l-.04-.17v-.13s.01-.1,.01-.1l.12-.06,.36,1.06,.06,.13,.06,.05,.09,.04,.09,.05,.16,.05v-.13l-.13-.3-.05-.27v-.3l.08-.26,.15-.14-.06,.39,.04,.49,.15,.41,.3,.17-.08-.41-.04-.79-.14-.3,.15,.03h.18l.13-.1v-.25s-.13-.17-.13-.17l-.34-.28-.1-.18,.06-.06,.13-.06,.12-.13v-.45s.06-.14,.06-.14l.13-.04,.17,.1,.03-.25,.06-.21,.08-.05,.13,.23v.27s-.06,.3-.06,.3v.23s.19,.12,.19,.12l.06,.05v-.17s-.06-.06-.06-.06l.14-.88,.1-.14,.08,.1,.1,.85,.13,.25,.15,.17,.18,.07h.18s.15-.89,.15-.89l.12-.27,.09-.12,.12-.06,.08,.05,.09,.13,.04,.12,.06,.13v.08l.03,.05,.16,.03h.09s.1-.04,.1-.04l.1-.06,.06-.06,.08-.06,.14-.08,.09-.09-.05-.09-.09-.13-.03-.14v-.3s-.14-.5-.14-.5l-.13-.09-.25,.09,.35-.6,.18-.09,.18,.34,.08-.03,.06-.21,.14-.03,.13,.14v.25s.21,.03,.21,.03l.22-.04,.22-.09,.19-.14-.22-.12-.08-.21-.06-.25-.17-.26h.31s.19,.3,.19,.3l.17,.39,.26,.26v-.18l.05-.12,.14-.26,.05,.03,.09-.04,.03-.1-.23-.1,.03-.36-.13-.19-.21-.14-.15-.25,.15,.09,.18,.04,.16-.04,.13-.17-.19-.05,.3-.29,.26,.08,.13,.28-.1,.35,.04,.12,.26,.05,.22,.12,.21,.08,.29-.05-.21-.23-.05-.13,.08-.08,.13-.04,.04,.03,.25,.08h.12s.34-.09,.34-.09l-.1-.13-.05-.05,.08-.13,.19-.14,.09-.08,.45-.94,.05-.25,.03-.32,.13,.09,.03-.11v-.32s0-.05,0-.05l.12-.06,.27-.04,.12-.05,.12-.18,.28-.61,.04-.21-.05-.04Z"/>
  <g>
    <path d="M43.13,40.04v5.05h-1.23v-3.16l-1.09,3.16h-1.07l-1.1-3.17v3.17h-1.23v-5.05h1.5l1.38,3.52,1.35-3.52h1.5Z"/>
    <path d="M45.21,40.99v1.07h1.72v.93h-1.72v1.13h1.94v.99h-3.17v-5.09h3.17v.98h-1.94Z"/>
  </g>
</svg>