<?xml version="1.0" encoding="utf-8"?>
<!-- Generator: Adobe Illustrator 26.5.0, SVG Export Plug-In . SVG Version: 6.00 Build 0)  -->
<svg version="1.1" xmlns="http://www.w3.org/2000/svg" xmlns:xlink="http://www.w3.org/1999/xlink" x="0px" y="0px"
	 viewBox="0 0 90 90" style="enable-background:new 0 0 90 90;" xml:space="preserve">
<style type="text/css">
	.st0{fill:#CECECE;stroke:#F9F9F9;stroke-width:0.025;stroke-linecap:round;stroke-linejoin:round;}
	.st1{display:none;fill:none;stroke:#47CCCC;stroke-width:0.5;stroke-linecap:round;stroke-linejoin:round;}
	.st2{fill:#CECECE;}
</style>
<g id="ALABAMA">
</g>
<g id="ALASKA">
</g>
<g id="ARIZONA">
</g>
<g id="ARKANSAS_1_">
</g>
<g id="CALIFORNIA">
</g>
<g id="COLORADO">
</g>
<g id="CONNECTICUT">
</g>
<g id="DELAWARE">
</g>
<g id="DC">
</g>
<g id="FLORIDA">
</g>
<g id="GEORGIA">
</g>
<g id="HAWAII">
</g>
<g id="IDAHO">
</g>
<g id="IOWA">
</g>
<g id="ILLINOIS">
</g>
<g id="INDIANA">
</g>
<g id="KANSAS">
</g>
<g id="KETUCKY">
</g>
<g id="LOUISANA">
</g>
<g id="MAINE">
	<path id="ME_1_" class="st0" d="M54.13,61.58l-0.57,0.08l-0.28-0.01l-0.53-0.17l-0.22,0.05l-0.01,0.34l0.31,0.01l0.28,0.1
		l0.15,0.19l-0.03,0.31l0.49,0.09l0.25-0.01l0.08-0.12l0.04-0.18l0.16-0.14l0.1-0.19l-0.08-0.34L54.13,61.58z M55.38,59.45
		l-0.12-0.06l-0.12-0.13l0.13-0.1l0.28-0.17l0.12-0.12l-0.12-0.17l-0.09-0.21l-0.14-0.18l-0.28-0.09l-0.36-0.08l-0.14,0.05
		l-0.09,0.19l-0.03,0.18l0.04,0.18l0.08,0.17l0.09,0.14l-0.1,0.01l-0.21,0.09l-0.1,0.01l0.22,0.26l0.09,0.16l-0.01,0.17l-0.01,0.17
		L54.57,60l0.49,0.12l0.23-0.13l0.42-0.39l-0.03-0.1L55.38,59.45z M59.29,54.42l-0.13-0.31l-0.43-0.13l-0.51,0.18l-0.41,0.36
		l-0.17,0.4l0.18,0.09v0.15l-0.1,0.16l-0.15,0.1l-0.08,0.1l-0.06,0.22l-0.06,0.63v0.23l0.05,0.21l0.12,0.05h0.19l0.12,0.08v0.13
		l-0.17,0.12l0.19,0.22l0.48,0.08l0.21,0.18l0.05-0.05l0.13-0.1l0.04-0.04l0.15,0.25l0.18-0.1l0.15-0.26l0.1-0.23l-0.05-0.18
		l-0.22-0.12l-0.19-0.18l-0.04-0.42l0.09-0.03l0.36,0.18l0.52-0.2l0.45-0.37l0.18-0.4l-0.25-0.44L59.29,54.42z M72.76,43.05
		l-0.27-0.35l-0.03-0.06l-0.01-0.08l-0.01-0.06h-0.05l-0.17,0.06h-0.04l-0.39-0.36l-0.18-0.12H71.4l0.43,0.63l0.08,0.34l-0.22,0.27
		l-0.12-0.36l-0.24-0.39l-0.25-0.23l-0.21,0.15l0.09,0.06l0.12,0.14l0.05,0.06L71,42.91L71.14,43l-0.17,0.1l-0.28-0.23l-0.13,0.06
		l0.01,0.13l0.12,0.5l0.03,0.17l-0.43-0.78l-0.17-0.13l-0.3-0.15l-0.22-0.18l0.01-0.25l0.15-0.01l0.52,0.22l0.18,0.03l0.18-0.12
		l0.06-0.2l-0.06-0.18l-0.23-0.11l0.03-0.41h0.14l0.21,0.17l0.17,0.08l0.23-0.17l0.01-0.26l-0.04-0.27l0.09-0.23l-0.19-0.12
		l-0.39-0.43l-0.1-0.09l-0.18-0.03l-0.25-0.14l-0.16-0.23l0.05-0.3l-0.25-0.23l-0.26-0.21l-0.18-0.09l-0.09-0.04h-0.09l-0.03-0.03
		l-0.13-0.19l-0.13-0.14l-0.06-0.1l-0.08-0.08l-0.11-0.01l-0.25,0.09h-0.05l-0.12-0.17L68,38.22l-0.34-0.08l-0.17,0.01l-0.13,0.08
		l-0.09,0.15l0.01,0.14l0.04,0.13l-0.01,0.17l-0.35,0.39l-0.5-0.06l-0.54-0.31l-0.67-0.56l-0.67-0.32l-0.13-0.25l-0.01-0.34
		l0.04-0.3l0.14-0.61l-0.12-0.62l-0.98-0.91l-0.31-0.56l0.23-0.35l0.23-0.31l0.14-0.25l-0.12-0.58l-0.26-0.44l-0.28-0.13l-0.33,0.06
		l-0.36,0.16l-0.54,0.15l-0.73,0.05l-0.72-0.09l-0.45-0.15l-0.22-0.12l-0.13-0.15l-0.13-0.14l-0.15-0.06l-0.09,0.05l-0.03,0.13
		l-0.06,0.13l-0.17,0.01l-0.35-0.09l-0.22-0.09l-0.14-0.2l-0.31-0.84l-0.01-0.27l0.06-0.32l0.09-0.31l0.03-0.22l-0.1-0.21
		l-0.28-0.22l-0.15-0.25l0.06-0.27l0.15-0.3l0.06-0.28l-0.06-0.14l-0.13-0.09l-0.14-0.08l-0.12-0.1l-0.06-0.15l-0.69-2.15
		l-0.67-2.15l-0.67-2.15l-0.68-2.15l-0.67-2.15l-0.67-2.15l-0.67-2.14l-0.67-2.15l-0.23-0.62l-0.09-0.09l-0.57-0.1l-0.23-0.09
		l-0.49-0.4l-0.65-0.26l-0.12-0.1l-0.12-0.21l-0.15-0.15l-0.49-0.3L48.2,8.25l-0.93-0.44l-0.19-0.05l-0.4-0.04l-0.15-0.04
		l-0.46-0.32l-0.19-0.09l-0.67-0.13L44.53,7.2l-0.53,0.32l-0.27,0.61l0.03,0.19l0.06,0.14v0.09l-0.28,0.16l-0.12,0.12l-0.14,0.06
		l-0.44-0.12l-0.33,0.07l-0.3,0.13l-0.23,0.16l-0.45,0.44l-0.22,0.27l-0.14,0.3l-0.17,0.22l-0.28,0.12l-0.59,0.14l-0.49,0.28
		l-1.3,1.19l-0.2,0.06l-1.88-0.49l-0.3-0.26l-0.17-0.31l-0.05-0.1l-0.15-0.52l-0.14-1L35.3,9.01l-0.25-0.17l-1.94,0.08l-0.18,0.06
		l-0.13,0.14l-0.14,0.26l-0.67,1.75l-0.66,1.75l-0.67,1.75l-0.68,1.75l-0.67,1.75l-0.67,1.75l-0.69,1.75l-0.68,1.75l-0.13,0.34v0.75
		l0.12,0.85l0.23,1.64l0.15,1.11l-0.04,0.45l-0.74,1.02l-0.15,0.12l-0.22,0.23v0.37l0.06,0.36l0.01,0.16l-0.25,0.15l-0.09,0.25
		l-0.05,0.65l-0.15,0.74l0.05,0.34l0.3,0.07l0.26,0.28l0.16,0.34l0.03,0.35l-0.12,0.27l-0.36,0.4l-0.1,0.2l0.05,0.13l0.1,0.06
		l0.06,0.06l0.08,0.04l0.05,0.05l0.04,0.09l-0.01,0.06l-0.08,0.13l-0.01,0.06l0.03,0.62l0.08,0.26l0.21,0.2l0.34,0.06l0.22-0.01
		l0.12,0.1l0.04,0.44l-0.1,0.6l-0.26,0.47l-0.75,0.96l-0.18,0.3l-0.04,0.12l0.03,0.18l0.06,0.09l0.09,0.08l0.1,0.15l0.12,0.35
		l0.03,0.31l-0.09,0.27l-0.19,0.25l-0.12,0.06l-0.28,0.08l-0.13,0.1l-0.28,0.4l-0.62,0.5l-0.15,0.22l-0.84,1.62l-0.25,1.19
		l0.05,0.27l0.21,0.31l0.25,0.18l0.56,0.16l0.27,0.13l0.19,0.27l-0.09,0.26l-0.25,0.18l-0.26,0.06l-0.3-0.06l-0.53-0.3l-0.27-0.05
		l-0.28,0.06l-0.19,0.18l-0.1,0.25l-0.01,0.31L22.96,48l0.23,0.71l0.05,0.31l-0.05,0.17l-0.21,0.24l-0.05,0.14l0.01,0.14l0.1,0.31
		v0.17l-0.18,0.23l-0.22-0.14l-0.93-1.24l-0.26-0.15l-0.32,0.04l-0.26,0.14l-0.11,0.18l-0.06,0.21l-0.15,0.27l-0.1,0.09l-0.25,0.1
		l0.28,0.87l0.28,0.85l0.27,0.87l0.28,0.85l0.28,0.85l0.57,1.72l0.27,0.87l0.28,0.85l0.28,0.87l0.28,0.85l0.28,0.87l0.27,0.87
		l0.28,0.85l0.28,0.87l0.28,0.85L25,64.56l0.29,0.87l0.28,0.85l0.27,0.87l0.3,0.87l0.28,0.87l0.27,0.85l0.28,0.87l0.28,0.87
		l0.28,0.87l0.28,0.85l0.29,0.87l0.28,0.87l0.28,0.87l0.28,0.87l0.28,0.87l0.17,0.48l0.08,0.53l0.07,0.25l0.03,0.25v0.08l0.01,0.12
		l0.04,0.14l0.1,0.22l0.09,0.27l0.01,0.19l-0.01,0.44v0.1l0.04,0.12l0.04,0.11l0.1,0.17l0.1,0.13l0.13,0.1l0.49,0.34l0.57,0.46
		l0.53,0.45l0.57,0.18l0.11,0.06l0.09,0.1l0.12,0.22l0.04,0.14l0.03,0.14v0.53l0.03,0.18l0.05,0.09l0.34,0.35l0.57,0.36l0.45,0.3
		v-0.08l0.03-0.48L34.2,84.5l0.22-0.09l0.25,0.18l0.25,0.22l0.22,0.05l0.1-0.18l0.13-0.97l0.13-0.49l0.12-0.19l0.18-0.16l-0.21-0.06
		l0.08-0.35l0.12-0.3l-0.27-0.31l-0.09-0.4l0.04-0.43l0.09-0.39l0.26-0.61l0.1-0.17l0.12-0.06l0.37-0.13l0.27-0.21l0.16-0.26
		l0.13-0.29l0.18-0.27l0.09-0.08l0.15-0.06l0.05-0.08l0.01-0.09V78.1l0.01-0.1l0.15-0.36l0.12-0.17l0.14-0.14l-0.03-0.09l-0.13,0.05
		l-0.12,0.09l-0.21,0.22l-0.17-0.35l-0.12-0.31l-0.04-0.31l0.04-0.4l0.09-0.25l0.19-0.23l0.18-0.03l0.13,0.34l0.17-0.17l0.15-0.44
		l0.22-0.14l-0.01,0.13l-0.01,0.13l0.16-0.09l0.28-0.25l0.18-0.08v-0.12l-0.08-0.53l-0.05-0.18l-0.27-0.36l-0.3-0.04l-0.31,0.1
		l-0.39,0.06l-0.03-0.13l0.37-0.09l0.15-0.11l0.09-0.21l-0.06-0.13l-0.12-0.22l-0.06-0.21l0.31-0.35l0.13-0.78l0.24-0.23l0.46-0.84
		l0.12-0.09l0.13-0.05l0.14-0.1l0.27-0.23l0.1-0.14l0.13-0.34l0.09-0.18l0.13-0.13l0.17-0.08l-0.03,0.22l-0.06,0.19l-0.09,0.15
		l-0.09,0.12l0.17-0.03l0.34-0.44l0.26-0.12l-0.01,0.5l-0.34,1.05l-0.1,0.5l0.22-0.09l0.14-0.22l0.06-0.3l-0.03-0.28v-0.27
		l0.09-0.41l0.12-0.37l0.1-0.17l0.14,0.32l-0.35,1.91l0.09-0.04l0.06-0.08l0.03-0.1l-0.03-0.28l0.05-0.06l0.08-0.05l0.06-0.09
		l0.33-0.81l0.13,0.21l0.12-0.06l0.1-0.23l0.03-0.25l-0.08-0.3l-0.13-0.17l-0.17-0.09l-0.17-0.04l0.05-0.14l0.09-0.1l0.1-0.06
		l0.13-0.03l0.17,0.03L41.84,69l-0.03,0.12l0.01,0.18l0.09,0.14l0.22,0.1l0.09,0.13l0.03,0.18l-0.04,0.08L42.17,70l-0.01,0.12
		l0.06,0.39l0.08,0.27l0.12,0.1l0.15,0.08l0.17,0.49l0.19,0.14l0.01-0.21L43,71.16L43.1,71l0.14-0.1l0.01-0.09l-0.03-0.44
		l-0.08-0.15l-0.19-0.26l-0.27-0.53l-0.18-0.57l-0.52-1.26L41.64,67l-0.15,0.35L41.4,67.5l-0.13,0.08l-0.13-0.03l-0.12-0.1
		l-0.05-0.14l0.03-0.19l0.52-1.02l0.15-0.18l0.1-0.09l0.08-0.27l0.14-0.09l0.09,0.06l-0.06,0.22l-0.17,0.35l-0.01,0.39l0.06,0.36
		l0.14,0.32l0.1,0.3l0.12,0.17l0.06,0.18l0.04,0.19l0.08,0.21l0.09,0.17l0.16,0.19l0.09,0.15l0.3,0.78h0.04l0.06-0.01l0.06,0.01
		l0.05,0.1v0.05l-0.03,0.05l-0.01,0.08l0.03,0.12l0.25,0.44l0.15-0.04l0.1-0.32l0.05-0.92l-0.03-0.26l-0.13-0.09l-0.1,0.12
		l-0.06,0.43l-0.09,0.14l0.04-0.49l-0.03-0.25l-0.09-0.21l-0.13-0.06l-0.18-0.03l-0.1-0.09l0.05-0.27l0.65-2.1l0.12-0.25l0.14-0.14
		l0.2-0.04l-0.01,0.15l-0.11,0.19l-0.05,0.09l-0.05,0.65l0.03,0.22l0.13,0.25l0.14,0.06l0.15,0.03l0.17,0.17l-0.09-0.01l-0.17,0.01
		l-0.1-0.03l-0.01,0.14v0.1l0.04,0.09l0.09,0.1l-0.14,0.47l0.05,0.1l0.18,0.13l0.28,0.13l0.21,0.05L45,68.51l0.14-0.21l0.14,0.56
		l0.08,0.12l0.08-0.27l-0.01-0.3l-0.1-0.27l-0.15-0.22l-0.18-0.17l0.04-0.11l-0.01-0.13l-0.06-0.13l-0.09-0.08l0.04-0.12l0.03-0.15
		l-0.01-0.15l-0.06-0.1l-0.05-0.12l0.03-0.15l0.09-0.3l0.05-0.48l0.05-0.25l0.09-0.18l0.14,0.25l-0.19,0.76v0.4l0.06,0.12l0.14,0.08
		l0.06,0.1l0.01,0.08l-0.01,0.21l0.01,0.12v0.18l-0.03,0.17l0.06,0.16l0.25,0.14l-0.06,0.14l0.25,0.19l-0.15-0.54l-0.05-0.26v-0.26
		l0.08-0.01l0.12,0.22l0.17,0.18l0.15,0.21l0.12,0.34l0.15-0.34l0.05-0.53l-0.01-1.53l0.03-0.25l0.08-0.23h0.08l0.19-0.1l0.12-0.18
		l-0.19-0.36l0.12-0.13L47,64.47l0.05-0.15l-0.01-0.27l0.13-0.04l0.13,0.13v0.23l-0.15,0.34l0.04,0.09l0.23-0.03l0.08,0.08
		l-0.01,0.24l-0.09,0.41l0.19-0.05l0.26-0.27l0.17-0.09l0.15,0.04l-0.01,0.48l0.1,0.19l0.1-0.18l0.49-1.14l0.23-0.09l-0.04,0.31
		l-0.22,0.7l0.08,0.43l0.08,0.01l0.22-0.13l0.13-0.1l0.36-0.4l-0.17-0.09l-0.06-0.16l-0.01-0.21l0.05-0.21l0.13,0.01l0.06-0.04
		l0.03-0.12l-0.03-0.17l0.39,0.04l0.09-0.26l-0.04-0.32l0.05-0.19l0.31-0.14l0.17-0.2l0.05-0.28l0.04-0.4l-0.4,0.17l-0.08-0.18v-0.3
		l-0.14-0.23l-0.03-0.09l0.09-0.18l0.06-0.26l0.05-0.48l-0.01-0.84l0.12-0.3l0.05-0.84l0.15-0.16l0.22-0.18l0.18-0.22l0.04-0.27
		l-0.17-0.25l-0.52-0.48l-0.08-0.15l-0.01-0.19l-0.17-0.09l-0.09-0.12l0.22-0.25l0.52-0.32l0.13-0.15l0.23-0.43l0.18-0.17l0.19-0.01
		l-0.04,0.31l0.15-0.01l0.22-0.18L52,55.35l-0.21-0.04l-0.08,0.01l-0.01-0.97l-0.05-0.45l0.06-0.04l0.21-0.05l0.44-0.01l0.13,0.27
		l-0.14,0.93l0.01,0.11l0.05,0.25v0.12l-0.05,0.1l-0.12,0.13l-0.04,0.05l-0.03,0.22l-0.01,0.29l0.05,0.26l0.15,0.16l0.14-0.07
		l0.09-0.21l0.13-0.43l0.09-0.13l0.39-0.37l0.08,0.22l0.34,0.3l-0.04,0.1l-0.14,0.01l-0.3-0.08l-0.08,0.04l-0.09,0.18l-0.13,0.18
		l0.12,0.1l0.13,0.17l0.05,0.15l-0.09,0.12l-0.12-0.01l-0.15-0.12h-0.13l-0.13,0.17l-0.03,0.32l0.06,0.63l0.35-0.14l0.36-0.41
		l0.32,0.01l0.45,0.27l0.31,0.1l0.18-0.12l0.43-0.09l1.41,0.62l0.31-0.25l-0.15-0.04l-0.14-0.05l-0.13-0.09l-0.12-0.16l0.21,0.08
		l0.1-0.08l-0.03-0.18l-0.13-0.22l-0.13-0.06l-0.15,0.01l-0.14-0.03l-0.1-0.18l-0.01-0.21l0.05-0.49l-0.06-0.14l-0.16-0.16
		l-0.25-0.34l-0.19-0.13h0.34l0.29-0.09l0.23-0.19l0.15-0.38l0.1,0.14l0.08,0.17l0.12,0.39l0.06,0.06l0.09-0.15l0.05-0.22l0.03-0.17
		l-0.04-0.13l-0.04-0.05l-0.06-0.03l-0.08-0.04l-0.08-0.09v-0.08l0.03-0.08v-0.1l-0.09-0.21l-0.39-0.44l0.35-0.1l0.26,0.04
		l0.18,0.23l0.22,0.88l0.1,0.18l0.17-0.04l0.3-0.19l-0.12-0.21l0.21-0.44l-0.01-0.35l0.26,0.12l0.28-0.01l0.54-0.17l-0.06-0.05
		l-0.04-0.05l-0.07-0.05l-0.08-0.03l0.12-0.39l-0.22-0.18l-0.44-0.05l-0.03-0.32l0.18-0.04l0.26,0.05l0.22-0.06l0.06,0.27l0.12,0.15
		l0.52,0.32l0.01-0.1l-0.08-0.22l-0.04-0.25l0.08-0.45l0.13,0.05l0.14,0.35l0.14,0.45l0.06,0.1l0.09,0.04l0.18-0.05l0.09-0.06
		l-0.04-0.09l-0.08-0.1l-0.03-0.08V52.8l-0.03-0.09v-0.09l0.09-0.1h0.07l0.04,0.08l0.03,0.09l0.06,0.04h0.36l0.13,0.25l0.05,0.39
		l0.18,0.4l0.27,0.44l0.19,0.23l0.05-0.06l0.18-0.13l-0.03,0.26l0.03,0.22l0.1,0.17l0.21,0.12l0.06-0.24l0.19-0.7l0.03-0.17
		l-0.04-0.08l-0.01-0.05l0.1-0.09h0.08l0.05,0.1l0.08,0.08l0.12-0.04l0.05-0.09l0.01-0.14v-0.14l-0.03-0.12l-0.05-0.04l-0.26-0.4
		l-0.03-0.08l-0.45-0.1l-0.19-0.1l0.13-0.12l0.25,0.04l0.12-0.04v-0.17l-0.04-0.17l-0.01-0.13l0.03-0.1l0.12-0.06l0.36,1.06
		l0.06,0.13l0.06,0.05l0.09,0.04l0.09,0.05l0.16,0.05v-0.13l-0.13-0.3l-0.05-0.27v-0.3l0.08-0.26l0.15-0.14l-0.06,0.39l0.04,0.49
		l0.15,0.41l0.3,0.17l-0.08-0.41l-0.04-0.79l-0.14-0.3l0.15,0.03h0.18l0.13-0.1l-0.01-0.25l-0.12-0.17l-0.34-0.28l-0.1-0.18
		l0.06-0.06l0.13-0.06l0.12-0.13l-0.01-0.45L63.52,50l0.13-0.04l0.17,0.1l0.03-0.25l0.06-0.21l0.08-0.05l0.13,0.23l-0.01,0.27
		l-0.05,0.3l0.01,0.23l0.18,0.12l0.06,0.05l-0.01-0.17l-0.05-0.06l0.14-0.88l0.1-0.14l0.08,0.1l0.1,0.85l0.13,0.25l0.15,0.17
		l0.18,0.07l0.18-0.01l0.15-0.88l0.12-0.27l0.09-0.12l0.12-0.06l0.08,0.05l0.09,0.13L66,49.89l0.06,0.13v0.08l0.03,0.05l0.16,0.03
		l0.09-0.01l0.1-0.03l0.1-0.06l0.06-0.06l0.08-0.06l0.14-0.08l0.09-0.09l-0.05-0.09l-0.09-0.13l-0.03-0.14v-0.15l-0.01-0.14
		l-0.13-0.5l-0.13-0.09l-0.25,0.09l0.35-0.6l0.18-0.09l0.18,0.34l0.08-0.03l0.06-0.21L67.23,48l0.13,0.14l-0.01,0.25l0.22,0.03
		l0.22-0.04l0.22-0.09l0.19-0.14l-0.22-0.12l-0.08-0.21l-0.06-0.25l-0.17-0.26l0.31,0.01l0.19,0.28L68.34,48l0.26,0.26v-0.18
		l0.05-0.12l0.14-0.26l0.05,0.03l0.09-0.04l0.03-0.1l-0.23-0.1l0.03-0.36l-0.13-0.19l-0.21-0.14l-0.15-0.25l0.15,0.09l0.18,0.04
		l0.16-0.04l0.13-0.17l-0.19-0.05l0.3-0.29l0.26,0.08l0.13,0.28l-0.1,0.35l0.04,0.12l0.26,0.05l0.22,0.12L70,47.2l0.29-0.05
		l-0.21-0.23l-0.05-0.13l0.08-0.08l0.13-0.04l0.04,0.03l0.25,0.08l0.12,0.01l0.34-0.1l-0.1-0.13l-0.05-0.05l0.08-0.13l0.19-0.14
		l0.09-0.08l0.45-0.94l0.05-0.25l0.03-0.32l0.13,0.09l0.03-0.11l0.01-0.32l-0.01-0.05l0.12-0.06l0.27-0.04l0.12-0.05l0.12-0.18
		l0.28-0.61l0.04-0.21L72.76,43.05z"/>
</g>
<g id="MARYLAND">
</g>
<g id="MASSACHUSETTS">
</g>
<g id="MICHIGAN">
</g>
<g id="MINNESOTA">
</g>
<g id="MISSOURI">
</g>
<g id="MISSISSIPPI">
</g>
<g id="MONTANA">
</g>
<g id="NORTH_CAROLINA">
</g>
<g id="NORTH_DAKOTA">
</g>
<g id="NEBRASKA">
</g>
<g id="NEW_HAMPSHIRE">
</g>
<g id="NEW_JERSEY">
</g>
<g id="NEW_YORK">
</g>
<g id="NEW_MEXICO">
</g>
<g id="NEVADA">
</g>
<g id="OHIO">
</g>
<g id="OKLAHOMA">
</g>
<g id="OREGON">
</g>
<g id="PENNSYLVANIA">
</g>
<g id="RHODE_ISLAND">
</g>
<g id="SOUTH_CAROLINA">
</g>
<g id="SOUTH_DAKOTA">
</g>
<g id="TENNESSEE">
</g>
<g id="TEXAS">
</g>
<g id="UTAH">
</g>
<g id="VIRGINIA">
</g>
<g id="VERMONT">
</g>
<g id="WASHINGTON">
</g>
<g id="WISCONSIN">
</g>
<g id="WEST_VIRGINIA">
</g>
<g id="WYOMING">
</g>
</svg>
