<?xml version="1.0" encoding="UTF-8"?>
<svg id="MARYLAND" xmlns="http://www.w3.org/2000/svg" viewBox="0 0 90 90">
  <defs>
    <style>
      .cls-1 {
        fill: #e2e2e2;
        stroke: #f9f9f9;
        stroke-linecap: round;
        stroke-linejoin: round;
        stroke-width: .03px;
      }
    </style>
  </defs>
  <path id="MD" class="cls-1" d="M72.12,70.84l-.21-.15-.22-.07-.15,.1-.02,.32,.15,.22,.51,.13,.24,.17-.22,.12-.54,.08-.07,.14,.15,.17,.53,.12,.19,.17,.08-.42,.07-.51-.1-.42-.39-.17Zm-.85-3.41l-.19-.17-.32-.17-.37,.19-.22,.37,.19,.4,.19,.03,.69-.08,.15-.2v-.19l-.12-.19Zm15.39-5.52l-.32,1.76-.25,.96-.07,.61,.07,.66-.03,.24-.37,.88-.2,.81,.12-.05,.17-.07,.05-.22,.44-.83,.3-1.96-.02-1.33,.35-1.35,.03-.69-.1,.03-.17,.56Zm.49-3.48l-.13-.62h0l-.24,.05v.02l.12,.67v1.3l.1,.67,.21-.45,.03-.78-.09-.86Zm-.99,4.5l.2-1.1,.15-.32,.15-.46,.07-.46-.03-.35-.2-.2-.2,.03-.24,.1-.25-.03,.05-.05,.08-.08,.07-.08-.03-.13-.13,.03-.03-.17,.1-.34-.3-.14-.8-.07,.27-.25h.31l.32,.1,.32,.02,.29-.12-.02-.15-.44-.47,.27,.03,.19-.03,.05-.15-.03-.12-.42,.08-.95,.22-1.36,.32-1.35,.31-1.38,.3-1.35,.3-1.36,.3-1.37,.3-1.37,.3-.3-1.01-.29-1.05-.44-1.59-.44-1.6-.44-1.59-.44-1.6-.42-1.59-.44-1.6-.88-3.19-.44-1.59-.42-1.6-.44-1.59-.44-1.59-.44-1.6-.44-1.59-.44-1.6-.42-1.59-1.99,.44-2.01,.44-1.99,.44-1.99,.44-1.99,.44-2.01,.42-1.99,.44-2.01,.42-1.99,.42-1.99,.44-2.01,.4-1.99,.42-2.01,.42-1.99,.42-2.01,.4-2.01,.42-1.99,.41-2.01,.41-2.01,.4-1.99,.4-2.01,.39-2.01,.41-1.99,.41-2.01,.39-2.01,.39-2.01,.39-2.01,.39-2.01,.39-2.01,.39-2.01,.37-1.99,.39-2.01,.37,1.92,11.36,.05,.07,.08-.02,.16-.12,.19-.19,1.63-2.09,.14-.07,.69-.27,.13-.08,.05-.1,.12-.51,.08-.22,.19-.27,.42-.47,.73-.59,.08-.07,.05-.1,.15-.32,.29-.3,.05-.08,.05-.08,.03-.1,.03-.07,.1-.61,.03-.1,.05-.12,.08-.08,.59-.45,.13-.05,.15-.02,.32,.07,.32,.1,.39,.25,.2,.07h.14l.15-.03,.17-.12,.1-.1,.05-.1,.13-.3,.83-1.27,.17-.32,.1-.34,.05-.08,.05-.08,.07-.07,.07-.07,.08-.05,.29-.12,.1-.07,.03-.07-.03-.05-.08-.12-.03-.08-.02-.12,.02-.13,.03-.1,.19-.44,.05-.2,.05-.18,.02-.09,.05-.09,.05-.03h.08l.15,.08,.07,.09,.19,.13,.22,.1,.05,.07v.05l-.08,.05-.13,.12-.02,.05-.03,.07v.08l.02,.08,.02,.07v.03l.03,.02,.12,.12,.05,.03,.07,.03,.68,.17,.34,.15,.08,.05,.1,.05,.45,.07,1.45-.05,.03-.08,.56-.3,1.28-.08,.45-.49,.05-.25-.12-.08-.37-.05v-.32l.27-.15,.34-.07,.21-.12-.61-.57,.15-.15,.15-.05h.36l.15-.05,.4-.32,.34-.13h.72l.34-.07,.12-.14,.24-.45,.17-.2,.39-.73,.12-.12,.15-.12,.19-.1,.91-.12,.89,.35,1.59,1.06,.39,.15,.41,.07,.39-.07,.24-.2,.17-.1,.52,.03,.08-.08,.05-.19,.2-.08h.26l.19,.03,.32,.29-.02,.35-.27,.34-.41,.2,.15,.22,.42,.77,.1-.03v-.22l.05-.25,.1-.17,.17,.03,.15,.22-.02,.19-.08,.13,.02,.15,.27,.22,.25-.05,.29-.15,.31-.08,.03,.15-.22,.1-.08,.2,.05,.24,.17,.25-.32,.36,.27,.17,.86,.19,.24,.34-.02,.42-.05,.44,.1,.41,.34,.37h.03l.37,.1,.88-.19h.34l.81,.13,.83,.03,.22,.13,.45,.49,.37,.15,.42,.03,.37,.08,.27,.3,.02,.45-.19,.39-.47,.62-.05,.41,.17,.32,.29,.24,.32,.19,.74,.51,.47,.14,1.57-.17,.59,.05,.56,.17,.48,.32,.17,.29,.15,.34,.17,.27,.27,.07h.25l.64,.08,.56-.02,.22,.12,.27,.24,1.03-1.72,2.52,2.31-1.18,2.13,.08,.37,.4,.51-.05,.2-.05,.15-.07,.12-.1,.08,.27,.41-.15,.3-.66,.35-.22,.19-.12,.13-.1,.17-.07,.22,.02,.39-.08,.39-.03,.39-.07,.15-.17,.1-.39,.05-.1,.07-.12,.14-.1,.07-.08,.08-.05,.19v.24l.05,.15h.1l.17-.13,.15,.12-.44,.32-.15,.13-.37,.2-.1,.47-.02,.47-.12,.24-.07,.3,.13,.61,.24,.64,.17,.41,.29,.35,.4,.39,.44,.19,.35-.22,.15-.19,.35-.25,.17-.25,.2-.85-.24-.24-.1-.08-.12-.05,.19-.22,.2-.19,.05,.03,.02,.03,.03,.02,.07,.03,.03,.17-.07,.19,.08,.24,.19,.2,.21,.09,.22-.09,.19-.22,.2-.47,.05-.19,.03-.2v-.2l-.03-.22,.37,.27,.35,.51,.85,1.52,.34,.37,1.47,1.03,.54,.2,.35-.1-.03-.56-.27-.61-.29-.49-.64-.88,.64,.24,.47,.35,.34,.54,.24,.81,.1,.2,.19,.27,.4,.42,.32,.19,.27,.03,1.64-.56,.64-.07,.56,.22,.29,.19,.27,.12,.27,.17,.29,.32,.17,.27,.24,.52,.07,.19,.27,.1,.08-.2-.02-.61,.49,.36,.27,.12,.07-.34,.07-.13,.05-.2-.02-.22-.05-.15-.17-.3-.05-.2,.47,.29,.29,.69,.22,.69,.27,.29,.51,.07,1.54,.89-.08-.32-.15-.17-.17-.13-.15-.19-.03-.35,.05-.46v-.46l-.19-.37-.72-.71-.57-.32-.15-.14-.21-.4,.03-.35,.08-.34,.02-.41-.25-.3-.4,.07-.45,.22-.39,.1-.41-.15-.39-.3-.32-.39-.17-.39-.2-.1-1.27-.3-.71-.41-.57-.51-.46-.69-.27-.81-.07-.15-.13-.1,.1-.2-.2-.3-.17-.47-.44-1.59-.03-.25-.05-.17v-.17l.3,.51,1.21,3.26,.14,.15,.22,.1,1.5,1.25,.34,.17h.59l.2,.05,.34,.1,.15,.14,.05,.12,.05,.13,.13,.19,.34,.29,.29,.07,.61-.15,.35-.27-.02-.44-.24-.47-.25-.39-.66-.64-1.52-1.15-.52-.77-.14-.49-.15-1.42-.15-.39-.2-.39-.15-.42,.02-.52-.61-.42-.29-.34-.12-.44,.12-.36,.57-.54,.17-.39v-.49l-.19,.03-.45,.42-.2-.12,.08-.78-.22-.13-.12-.12-.03-.07-.03-.08,.41-.1h.19l.15,.08,.22-.36-.24-.22-.66-.24-.24-.2-.2-.29-.03-.27,.27-.13,.39,.13,.76,.56,.34,.08,.08-.25-.34-.49-.94-.96-.49-.37-.2-.12-.4-.07-.2-.1-.17-.2-.05-.22,.05-.2,.2-.1,.19,.07,.22,.19,.35,.37,1.22,.81,.13-.09,.07-.17,.1-.1,.4-.12,.29-.17,.02-.24-.32-.34-.37-.19-1.01-.24h-.41l-.13-.05-.15-.13-.08-.2,.07-.17h.15l.68,.31,.19-.21h.24l.22,.14,.13,.22,.13-.03-.02-.51-.29-.44-.35-.4-.42-.76-.22,.07-.34,.34-.2-.08-.32-.36-.13-.05-.08-.12-.12-.24-.22-.22-.56-.07-.13-.12-.12-.19-.2-.17h-.13l-.32-.05-.25-.05,.12-.09,.44-.13,.15-.12,.12-.2,.24,.13,.96,.22,.27,.19,.27,.22,.19,.13,.12-.1,.15,.15,.1-.17,.15-.03,.19,.07,.19,.13,.62-.61-.03-.13-.62,.05-.54-.32-.47-.49-.4-.56,.61,.07,.17,.08,.41,.44,.2,.19,.3,.12,.13-.24-.02-.15-.73-.62-.2-.24,.08-.15,1.01,.02,.03-.1-.19-.25,.15-.2,.19-.05,.17-.08,.1-.27-.1,.02-.05-.4-.4-.1h-.51l-.32-.17,1.25-.63,.25,.07,.58,.93,.34,1,.39-.78,.12-.1-.02-.13-.17-.24-.34-.32-.12-1.7,.08-.12,.07-.22,.1-.19,.17-.05,.15,.14,.03,.19-.02,.44,.08,.96,.15,.42,.35,.22,.35-.49,.95-.86,.64-1.01,.08-.22-.03-.29-.15-.07-.67-.08-.24-.17,.2-1.33,.13-.2,.17-.13,.24-.08,1.18-.24,.17-.13,.17-.59,.15-.27,.27-.13-.02,.91-.05,.4-.12,.37-.3,.72-.07,.46,.15,.39,.22-.44,1.01-1.28,.25-.4,.19-.46,.24-.39,.37-.24-.02,.52-.08,.56-.22,.49-.39,.34,.25,.32,.32,.19,.59,.19,.02,.13-.47,.03-.88-.08-.37,.12-.26,.25-.3,.42-.52,.91,.03,.42,.45,.05,1.97-.42,.49,.03,.29,.24-.44,.12h-.13l-.76,.2-1.97,.37-1.47,.52-.05,.1-.02,.51-.07,.2-.15,.12-.35,.15-.15,.2-.02,.19,.07,.46-.03,.22-.51,1.76-.12,.83-.05,.15-.05,.27,.05,.25,.46,.1,.17,.17,.13,.2,.07,.17,.17,.98,.1,.39,.2,.19,.25-.36-.03-.84,.07-.9,.52-.45,.03,.15-.2,.22,.46,.05,.34-.25,.3-.35,.35-.25-.12,.44-.61,.94-.22,.57,.17,.13-.19,.1-.41,.15,.1,.2,.12,.15,.13,.12,.15,.05,.03,.47-.24,.34-.37,.24-.37,.12-.51,.03-.34-.12-.58-.39-.2-.08-.22-.03-.15,.07v.54l-.13,.52-.02,.17,.07,.56,.03,1.72,.12,.37,.27-.07,.32-.3,.12-.27-.12-.12-.2-.15-.15-.2v-.22l.13-.19,.13-.07,.53-.15,.12-.07,.15-.13v-.07l.08-.22,.12-.19h.07l.05-.41,.3,.07,.66,.36-.02,.29,.03,.35,.13,.3,.25,.08,.08-.13,.02-.56,.03-.13,.24-.02,.05,.19-.02,.49,.13,.05,.79,.15-.32,.34-.44,.29-.34,.37,.07,.64,.35,.45,.37-.02,.32-.3,.15-.4,.15,.34-.08,.39-.19,.3-.19,.15-.34,.03-.34-.05-.32-.13-.29-.2-.24-.47-.07-.08-.19,.02-.13-.07-.24-.24-.3-.08-.24,.2-.39,.51v.19l-.03,.24-.07,1.37-.07,.42v.32l.07,.54,.13,.1,.22-.08,.22-.2,.12-.19-.13-.3-.07-.51v-.54l.07-.37,.2-.32,.07,.19,.03,.94,.19,.19,.25-.39,.41-.86,.37,.08,.03,.37-.2,.76,.25,.1,.27,.47,.17,.08,.19-.15,.05-.27,.02-.32,.08-.29,.12,.2,.05,.22-.03,.19-.08,.17,.22,.24,.31-.07,.35-.17,.37-.1,.03,.15-.22,.13-.4,.32-.13,.17,.03,.15,.37,.07,.25-.1,.19-.19,.25-.17v.47l.4,.3,.56,.17,.44,.02,.37-.22,.19-.35,.2-.86,.1-.02,.07,.05,.1,.05-.1,.37,.05,.71-.13,.4-.17,.19-.25,.15-.54,.19-1.92-.29-.3,.14-.22-.08-.22-.14,.1-.08,.21-.29-.24,.1-.4,.29-.25,.12-.29,.07-.83,.02,.24,.24,.1,.08,.13,.05,.03,.15-.29,.54-.07,.34,.25,.09,.54-.12,.2-.12,.15-.19,.07-.19-.02-.12,.03-.08,.19-.07,.15-.03h.12l.1,.02,.08,.07,.12,.22-.22,.35,.15,.2-.31,.25-.37,.2-.29,.25-.05,.39,.05,.57-.1,.35-.19-.02-.19-.49-.2-.17-.32,.02-.24,.22,.12,.45,.12,.1,.2,.09,.19,.13,.22,.46,.17,.24,.17,.2,.13,.1,.69,.71,.45,.47,.22,.57,.1-.02-.05-.49-.45-.95,.15-.22,.34,.13,1.33,1.08,.25,.37,.15,.12,.49,.03,.2,.13,.8,.86,.24,.12,.12-.25,.07-.61-.07-.3-.1-.29-.17-.19-.22-.07,.2-.63,.37-.71,.39-.35,.27,.45-.03,.35-.44,.34-.05,.3,.12,.19,.19,.15,.2,.12,.13,.12,.07,.2,.03,.22,.03,.2,.12,.1,.08-.24,.14-1.4,.08-.2,.67-1.23,.03-.22-.02-.27,.02-.22,.1-.1,.24-.03,.05,.08-.02,.12v.51l-.08,.37-.35,1.08-.1,.52,.03,.51,.27,.4,.35,.12,.8-.12,.32,.08-.59,.45-.67,.36-.47,.49-.05,.89,.12,.44,.1,.17,.12,.03,.13-.1v-.19l-.03-.2,.07-.17,.34-.19,.83-.08,.37-.25h.24l.3-.1,.27,.02,.1,.22-.1,.15-.51,.2-.17,.13,.13,.12-.03,.22-.12,.2-.15,.19-.17,.12,.05,.17,.07,.02,.03,.02v.03l.05,.05,.19-.17,.25-.1,.44-.08,.24-.17,.13-.27,.15-.2h.27l-.15,.45-.63,.93-.12,.3-.1,.1-.47,.19-.07,.19-.03,.25-.25,.67-.1,.17,.05,.02h.05l.03,.02,.02,.12,.12-.03,.05-.15,.08-.12,.13-.08,.15-.05-.02,.3-.12,.2-.12,.17-.07,.19,.02,.2,.07,.08,.07,.07,.07,.15,.19,.07,.3-.3,.42-.61,.32-.35,.4-.13,1.62-.22h.35l.22,.05,.07-.35,.07-.36,.08-.13,.42-.15,.74-.27,.57-.22,.86-.3,.76-.29,.49-.17,.34-.14v-.19l.14-1.2-.12-.15,.09-.12,.19-.44,.13-.15,.17-.03,.35,.05,.12-.03,.08-.24,.03-.74,.05-.17,.13-.24-.05-1.35,.12-.3,.19-.25,.49-.44-.12,.52,.1,.17,.57-.17,.13-.19Z"/>
  <g>
    <path d="M47.79,41.75v5.05h-1.23v-3.16l-1.09,3.16h-1.07l-1.1-3.17v3.17h-1.23v-5.05h1.5l1.38,3.52,1.35-3.52h1.5Z"/>
    <path d="M52.9,45.58c-.21,.39-.52,.69-.92,.9-.4,.22-.87,.32-1.41,.32h-1.92v-5.09h1.92c.55,0,1.02,.11,1.42,.32,.4,.21,.7,.51,.92,.89,.21,.38,.32,.83,.32,1.32s-.11,.94-.32,1.33Zm-1.33-.26c.27-.25,.4-.61,.4-1.07s-.13-.82-.4-1.07c-.27-.25-.64-.38-1.12-.38h-.58v2.91h.58c.48,0,.85-.13,1.12-.38Z"/>
  </g>
</svg>