<?xml version="1.0" encoding="utf-8"?>
<!-- Generator: Adobe Illustrator 26.5.0, SVG Export Plug-In . SVG Version: 6.00 Build 0)  -->
<svg version="1.1" xmlns="http://www.w3.org/2000/svg" xmlns:xlink="http://www.w3.org/1999/xlink" x="0px" y="0px"
	 viewBox="0 0 90 90" style="enable-background:new 0 0 90 90;" xml:space="preserve">
<style type="text/css">
	.st0{fill:#CECECE;stroke:#F9F9F9;stroke-width:0.025;stroke-linecap:round;stroke-linejoin:round;}
	.st1{display:none;fill:none;stroke:#47CCCC;stroke-width:0.5;stroke-linecap:round;stroke-linejoin:round;}
	.st2{fill:#CECECE;}
</style>
<g id="ALABAMA">
</g>
<g id="ALASKA">
</g>
<g id="ARIZONA">
</g>
<g id="ARKANSAS_1_">
</g>
<g id="CALIFORNIA">
</g>
<g id="COLORADO">
</g>
<g id="CONNECTICUT">
</g>
<g id="DELAWARE">
</g>
<g id="DC">
</g>
<g id="FLORIDA">
</g>
<g id="GEORGIA">
</g>
<g id="HAWAII">
</g>
<g id="IDAHO">
</g>
<g id="IOWA">
</g>
<g id="ILLINOIS">
</g>
<g id="INDIANA">
</g>
<g id="KANSAS">
</g>
<g id="KETUCKY">
</g>
<g id="LOUISANA">
</g>
<g id="MAINE">
</g>
<g id="MARYLAND">
	<path id="MD_1_" class="st0" d="M72.12,70.84l-0.21-0.15l-0.22-0.07l-0.15,0.1l-0.02,0.32l0.15,0.22l0.51,0.13l0.24,0.17
		l-0.22,0.12l-0.54,0.08L71.6,71.9l0.15,0.17l0.53,0.12l0.19,0.17l0.08-0.42l0.07-0.51L72.51,71L72.12,70.84z M71.28,67.43
		l-0.19-0.17l-0.32-0.17l-0.37,0.19l-0.22,0.37l0.19,0.4l0.19,0.03L71.24,68l0.15-0.2v-0.19L71.28,67.43z M86.67,61.91l-0.32,1.76
		l-0.25,0.96l-0.07,0.61l0.07,0.66l-0.03,0.24l-0.37,0.88l-0.2,0.81l0.12-0.05l0.17-0.07l0.05-0.22l0.44-0.83l0.3-1.96l-0.02-1.33
		l0.35-1.35l0.03-0.69l-0.1,0.03L86.67,61.91z M87.15,58.43l-0.13-0.62l0,0l-0.24,0.05v0.02l0.12,0.67v1.3l0.1,0.67l0.21-0.45
		l0.03-0.78L87.15,58.43z M86.16,62.94l0.2-1.1l0.15-0.32l0.15-0.46l0.07-0.46l-0.03-0.35l-0.2-0.2l-0.2,0.03l-0.24,0.1l-0.25-0.03
		l0.05-0.05l0.08-0.08l0.07-0.08l-0.03-0.13l-0.13,0.03l-0.03-0.17l0.1-0.34l-0.3-0.14l-0.8-0.07l0.27-0.25h0.31l0.32,0.1l0.32,0.02
		l0.29-0.12l-0.02-0.15l-0.44-0.47l0.27,0.03l0.19-0.03l0.05-0.15l-0.03-0.12l-0.42,0.08l-0.95,0.22L83.6,58.6l-1.35,0.31l-1.38,0.3
		l-1.35,0.3l-1.36,0.3l-1.37,0.3l-1.37,0.3l-0.3-1.01l-0.29-1.05l-0.44-1.59l-0.44-1.6l-0.44-1.59l-0.44-1.6l-0.42-1.59l-0.44-1.6
		l-0.88-3.19l-0.44-1.59l-0.42-1.6l-0.44-1.59l-0.44-1.59l-0.44-1.6l-0.44-1.59l-0.44-1.6l-0.42-1.59l-1.99,0.44l-2.01,0.44
		l-1.99,0.44l-1.99,0.44l-1.99,0.44l-2.01,0.42l-1.99,0.44l-2.01,0.42l-1.99,0.42l-1.99,0.44l-2.01,0.4l-1.99,0.42l-2.01,0.42
		l-1.99,0.42l-2.01,0.4l-2.01,0.42l-1.99,0.41l-2.01,0.41l-2.01,0.4l-1.99,0.4l-2.01,0.39l-2.01,0.41l-1.99,0.41l-2.01,0.39
		l-2.01,0.39l-2.01,0.39l-2.01,0.39l-2.01,0.39l-2.01,0.39L7.8,45.22L5.81,45.6L3.8,45.98l1.92,11.36l0.05,0.07l0.08-0.02l0.16-0.12
		l0.19-0.19l1.63-2.09l0.14-0.07l0.69-0.27l0.13-0.08l0.05-0.1l0.12-0.51l0.08-0.22l0.19-0.27L9.66,53l0.73-0.59l0.08-0.07l0.05-0.1
		l0.15-0.32l0.29-0.3l0.05-0.08l0.05-0.08l0.03-0.1l0.03-0.07l0.1-0.61l0.03-0.1l0.05-0.12l0.08-0.08l0.59-0.45l0.13-0.05l0.15-0.02
		l0.32,0.07l0.32,0.1l0.39,0.25l0.2,0.07h0.14l0.15-0.03l0.17-0.12l0.1-0.1l0.05-0.1l0.13-0.3l0.83-1.27l0.17-0.32l0.1-0.34
		l0.05-0.08l0.05-0.08l0.07-0.07l0.07-0.07l0.08-0.05l0.29-0.12l0.1-0.07l0.03-0.07l-0.03-0.05l-0.08-0.12l-0.03-0.08l-0.02-0.12
		l0.02-0.13l0.03-0.1l0.19-0.44l0.05-0.2l0.05-0.18l0.02-0.09l0.05-0.09l0.05-0.03h0.08l0.15,0.08l0.07,0.09l0.19,0.13l0.22,0.1
		l0.05,0.07v0.05l-0.08,0.05l-0.13,0.12l-0.02,0.05l-0.03,0.07v0.08l0.02,0.08l0.02,0.07v0.03l0.03,0.02l0.12,0.12l0.05,0.03
		l0.07,0.03l0.68,0.17l0.34,0.15l0.08,0.05l0.1,0.05l0.45,0.07l1.45-0.05l0.03-0.08l0.56-0.3l1.28-0.08l0.45-0.49l0.05-0.25
		l-0.12-0.08l-0.37-0.05v-0.32l0.27-0.15l0.34-0.07l0.21-0.12l-0.61-0.57l0.15-0.15l0.15-0.05h0.36l0.15-0.05l0.4-0.32l0.34-0.13
		h0.72l0.34-0.07l0.12-0.14l0.24-0.45l0.17-0.2l0.39-0.73l0.12-0.12l0.15-0.12l0.19-0.1l0.91-0.12l0.89,0.35l1.59,1.06l0.39,0.15
		l0.41,0.07l0.39-0.07l0.24-0.2l0.17-0.1l0.52,0.03l0.08-0.08l0.05-0.19l0.2-0.08h0.26l0.19,0.03l0.32,0.29l-0.02,0.35l-0.27,0.34
		l-0.41,0.2l0.15,0.22l0.42,0.77l0.1-0.03V44.8l0.05-0.25l0.1-0.17l0.17,0.03l0.15,0.22l-0.02,0.19l-0.08,0.13l0.02,0.15l0.27,0.22
		l0.25-0.05l0.29-0.15l0.31-0.08l0.03,0.15l-0.22,0.1l-0.08,0.2l0.05,0.24l0.17,0.25l-0.32,0.36l0.27,0.17l0.86,0.19l0.24,0.34
		l-0.02,0.42l-0.05,0.44l0.1,0.41l0.34,0.37h0.03l0.37,0.1l0.88-0.19h0.34l0.81,0.13l0.83,0.03l0.22,0.13l0.45,0.49l0.37,0.15
		l0.42,0.03l0.37,0.08l0.27,0.3l0.02,0.45L41,50.79l-0.47,0.62l-0.05,0.41l0.17,0.32l0.29,0.24l0.32,0.19L42,53.06l0.47,0.14
		l1.57-0.17l0.59,0.05l0.56,0.17l0.48,0.32l0.17,0.29l0.15,0.34l0.17,0.27l0.27,0.07h0.25l0.64,0.08l0.56-0.02l0.22,0.12l0.27,0.24
		l1.03-1.72l2.52,2.31l-1.18,2.13l0.08,0.37l0.4,0.51l-0.05,0.2l-0.05,0.15l-0.07,0.12l-0.1,0.08l0.27,0.41l-0.15,0.3l-0.66,0.35
		l-0.22,0.19l-0.12,0.13l-0.1,0.17l-0.07,0.22l0.02,0.39l-0.08,0.39l-0.03,0.39l-0.07,0.15l-0.17,0.1l-0.39,0.05l-0.1,0.07
		l-0.12,0.14l-0.1,0.07l-0.08,0.08l-0.05,0.19v0.24l0.05,0.15h0.1l0.17-0.13l0.15,0.12l-0.44,0.32l-0.15,0.13l-0.37,0.2l-0.1,0.47
		l-0.02,0.47l-0.12,0.24l-0.07,0.3l0.13,0.61l0.24,0.64l0.17,0.41l0.29,0.35l0.4,0.39l0.44,0.19l0.35-0.22l0.15-0.19l0.35-0.25
		l0.17-0.25l0.2-0.85l-0.24-0.24l-0.1-0.08l-0.12-0.05l0.19-0.22l0.2-0.19l0.05,0.03l0.02,0.03l0.03,0.02l0.07,0.03l0.03,0.17
		l-0.07,0.19l0.08,0.24l0.19,0.2l0.21,0.09l0.22-0.09l0.19-0.22l0.2-0.47l0.05-0.19l0.03-0.2v-0.2l-0.03-0.22l0.37,0.27l0.35,0.51
		l0.85,1.52l0.34,0.37l1.47,1.03l0.54,0.2l0.35-0.1l-0.03-0.56l-0.27-0.61l-0.29-0.49l-0.64-0.88l0.64,0.24l0.47,0.35l0.34,0.54
		l0.24,0.81l0.1,0.2l0.19,0.27l0.4,0.42l0.32,0.19l0.27,0.03l1.64-0.56l0.64-0.07l0.56,0.22l0.29,0.19l0.27,0.12l0.27,0.17
		l0.29,0.32l0.17,0.27l0.24,0.52l0.07,0.19l0.27,0.1l0.08-0.2l-0.02-0.61l0.49,0.36l0.27,0.12l0.07-0.34l0.07-0.13l0.05-0.2
		l-0.02-0.22l-0.05-0.15l-0.17-0.3l-0.05-0.2l0.47,0.29l0.29,0.69l0.22,0.69l0.27,0.29l0.51,0.07l1.54,0.89l-0.08-0.32l-0.15-0.17
		l-0.17-0.13l-0.15-0.19l-0.03-0.35l0.05-0.46V69.6l-0.19-0.37l-0.72-0.71l-0.57-0.32l-0.15-0.14l-0.21-0.4l0.03-0.35l0.08-0.34
		l0.02-0.41l-0.25-0.3l-0.4,0.07l-0.45,0.22l-0.39,0.1l-0.41-0.15l-0.39-0.3l-0.32-0.39l-0.17-0.39l-0.2-0.1l-1.27-0.3l-0.71-0.41
		l-0.57-0.51l-0.46-0.69l-0.27-0.81l-0.07-0.15l-0.13-0.1l0.1-0.2l-0.2-0.3l-0.17-0.47l-0.44-1.59l-0.03-0.25l-0.05-0.17v-0.17
		l0.3,0.51l1.21,3.26l0.14,0.15l0.22,0.1l1.5,1.25l0.34,0.17h0.59l0.2,0.05l0.34,0.1l0.15,0.14l0.05,0.12l0.05,0.13l0.13,0.19
		l0.34,0.29l0.29,0.07l0.61-0.15l0.35-0.27l-0.02-0.44l-0.24-0.47l-0.25-0.39l-0.66-0.64l-1.52-1.15l-0.52-0.77l-0.14-0.49
		l-0.15-1.42l-0.15-0.39l-0.2-0.39l-0.15-0.42l0.02-0.52l-0.61-0.42l-0.29-0.34l-0.12-0.44l0.12-0.36l0.57-0.54l0.17-0.39v-0.49
		l-0.19,0.03l-0.45,0.42l-0.2-0.12l0.08-0.78l-0.22-0.13l-0.12-0.12l-0.03-0.07l-0.03-0.08l0.41-0.1h0.19l0.15,0.08l0.22-0.36
		l-0.24-0.22l-0.66-0.24l-0.24-0.2l-0.2-0.29l-0.03-0.27l0.27-0.13l0.39,0.13l0.76,0.56l0.34,0.08l0.08-0.25l-0.34-0.49l-0.94-0.96
		l-0.49-0.37l-0.2-0.12l-0.4-0.07l-0.2-0.1l-0.17-0.2l-0.05-0.22l0.05-0.2l0.2-0.1l0.19,0.07l0.22,0.19l0.35,0.37l1.22,0.81
		l0.13-0.09l0.07-0.17l0.1-0.1l0.4-0.12l0.29-0.17l0.02-0.24l-0.32-0.34l-0.37-0.19l-1.01-0.24h-0.41l-0.13-0.05l-0.15-0.13
		l-0.08-0.2l0.07-0.17h0.15l0.68,0.31l0.19-0.21h0.24l0.22,0.14l0.13,0.22l0.13-0.03l-0.02-0.51l-0.29-0.44l-0.35-0.4l-0.42-0.76
		l-0.22,0.07l-0.34,0.34l-0.2-0.08l-0.32-0.36l-0.13-0.05l-0.08-0.12l-0.12-0.24l-0.22-0.22l-0.56-0.07l-0.13-0.12l-0.12-0.19
		l-0.2-0.17h-0.13l-0.32-0.05l-0.25-0.05l0.12-0.09l0.44-0.13l0.15-0.12l0.12-0.2l0.24,0.13l0.96,0.22l0.27,0.19l0.27,0.22
		l0.19,0.13l0.12-0.1l0.15,0.15l0.1-0.17l0.15-0.03l0.19,0.07l0.19,0.13l0.62-0.61l-0.03-0.13l-0.62,0.05l-0.54-0.32l-0.47-0.49
		l-0.4-0.56l0.61,0.07l0.17,0.08l0.41,0.44l0.2,0.19l0.3,0.12l0.13-0.24l-0.02-0.15l-0.73-0.62l-0.2-0.24l0.08-0.15l1.01,0.02
		l0.03-0.1l-0.19-0.25l0.15-0.2l0.19-0.05l0.17-0.08l0.1-0.27l-0.1,0.02l-0.05-0.4l-0.4-0.1h-0.51l-0.32-0.17L60,41.81l0.25,0.07
		l0.58,0.93l0.34,1l0.39-0.78l0.12-0.1l-0.02-0.13l-0.17-0.24l-0.34-0.32l-0.12-1.7l0.08-0.12l0.07-0.22l0.1-0.19l0.17-0.05
		l0.15,0.14l0.03,0.19l-0.02,0.44l0.08,0.96l0.15,0.42l0.35,0.22l0.35-0.49l0.95-0.86l0.64-1.01l0.08-0.22l-0.03-0.29l-0.15-0.07
		l-0.67-0.08l-0.24-0.17l0.2-1.33l0.13-0.2l0.17-0.13l0.24-0.08l1.18-0.24L65.23,37l0.17-0.59l0.15-0.27L65.82,36l-0.02,0.91
		l-0.05,0.4l-0.12,0.37l-0.3,0.72l-0.07,0.46l0.15,0.39l0.22-0.44l1.01-1.28l0.25-0.4l0.19-0.46l0.24-0.39l0.37-0.24l-0.02,0.52
		l-0.08,0.56l-0.22,0.49l-0.39,0.34l0.25,0.32l0.32,0.19l0.59,0.19l0.02,0.13l-0.47,0.03l-0.88-0.08l-0.37,0.12l-0.26,0.25
		l-0.3,0.42l-0.52,0.91l0.03,0.42l0.45,0.05l1.97-0.42l0.49,0.03l0.29,0.24l-0.44,0.12h-0.13l-0.76,0.2l-1.97,0.37l-1.47,0.52
		l-0.05,0.1l-0.02,0.51l-0.07,0.2l-0.15,0.12l-0.35,0.15l-0.15,0.2l-0.02,0.19l0.07,0.46l-0.03,0.22l-0.51,1.76l-0.12,0.83
		l-0.05,0.15l-0.05,0.27l0.05,0.25l0.46,0.1l0.17,0.17l0.13,0.2l0.07,0.17L63.38,49l0.1,0.39l0.2,0.19l0.25-0.36l-0.03-0.84
		l0.07-0.9l0.52-0.45l0.03,0.15l-0.2,0.22l0.46,0.05l0.34-0.25l0.3-0.35l0.35-0.25l-0.12,0.44l-0.61,0.94l-0.22,0.57L65,48.68
		l-0.19,0.1l-0.41,0.15l0.1,0.2l0.12,0.15l0.13,0.12l0.15,0.05l0.03,0.47l-0.24,0.34l-0.37,0.24l-0.37,0.12l-0.51,0.03l-0.34-0.12
		l-0.58-0.39l-0.2-0.08l-0.22-0.03l-0.15,0.07v0.54l-0.13,0.52l-0.02,0.17l0.07,0.56l0.03,1.72l0.12,0.37l0.27-0.07l0.32-0.3
		l0.12-0.27l-0.12-0.12l-0.2-0.15l-0.15-0.2v-0.22l0.13-0.19l0.13-0.07l0.53-0.15l0.12-0.07l0.15-0.13v-0.07l0.08-0.22l0.12-0.19
		h0.07l0.05-0.41l0.3,0.07l0.66,0.36l-0.02,0.29l0.03,0.35l0.13,0.3l0.25,0.08l0.08-0.13l0.02-0.56l0.03-0.13l0.24-0.02l0.05,0.19
		l-0.02,0.49l0.13,0.05l0.79,0.15l-0.32,0.34l-0.44,0.29l-0.34,0.37l0.07,0.64l0.35,0.45l0.37-0.02l0.32-0.3l0.15-0.4l0.15,0.34
		l-0.08,0.39l-0.19,0.3l-0.19,0.15l-0.34,0.03l-0.34-0.05l-0.32-0.13l-0.29-0.2l-0.24-0.47l-0.07-0.08l-0.19,0.02l-0.13-0.07
		l-0.24-0.24l-0.3-0.08l-0.24,0.2l-0.39,0.51v0.19l-0.03,0.24l-0.07,1.37l-0.07,0.42v0.32l0.07,0.54l0.13,0.1l0.22-0.08l0.22-0.2
		l0.12-0.19l-0.13-0.3l-0.07-0.51v-0.54l0.07-0.37l0.2-0.32l0.07,0.19l0.03,0.94l0.19,0.19l0.25-0.39l0.41-0.86l0.37,0.08l0.03,0.37
		l-0.2,0.76l0.25,0.1l0.27,0.47l0.17,0.08l0.19-0.15l0.05-0.27l0.02-0.32l0.08-0.29l0.12,0.2l0.05,0.22l-0.03,0.19l-0.08,0.17
		l0.22,0.24l0.31-0.07l0.35-0.17l0.37-0.1l0.03,0.15l-0.22,0.13l-0.4,0.32l-0.13,0.17l0.03,0.15l0.37,0.07l0.25-0.1l0.19-0.19
		l0.25-0.17v0.47l0.4,0.3l0.56,0.17l0.44,0.02l0.37-0.22l0.19-0.35l0.2-0.86l0.1-0.02l0.07,0.05l0.1,0.05l-0.1,0.37l0.05,0.71
		l-0.13,0.4l-0.17,0.19l-0.25,0.15l-0.54,0.19l-1.92-0.29l-0.3,0.14l-0.22-0.08l-0.22-0.14l0.1-0.08l0.21-0.29l-0.24,0.1l-0.4,0.29
		l-0.25,0.12l-0.29,0.07l-0.83,0.02l0.24,0.24l0.1,0.08l0.13,0.05l0.03,0.15l-0.29,0.54l-0.07,0.34l0.25,0.09l0.54-0.12l0.2-0.12
		l0.15-0.19l0.07-0.19l-0.02-0.12l0.03-0.08l0.19-0.07l0.15-0.03h0.12l0.1,0.02l0.08,0.07l0.12,0.22L66.5,60.1l0.15,0.2l-0.31,0.25
		l-0.37,0.2l-0.29,0.25l-0.05,0.39l0.05,0.57l-0.1,0.35l-0.19-0.02l-0.19-0.49l-0.2-0.17l-0.32,0.02l-0.24,0.22l0.12,0.45l0.12,0.1
		l0.2,0.09l0.19,0.13l0.22,0.46l0.17,0.24l0.17,0.2l0.13,0.1l0.69,0.71l0.45,0.47l0.22,0.57l0.1-0.02l-0.05-0.49l-0.45-0.95
		l0.15-0.22l0.34,0.13l1.33,1.08l0.25,0.37l0.15,0.12l0.49,0.03l0.2,0.13l0.8,0.86l0.24,0.12l0.12-0.25l0.07-0.61l-0.07-0.3
		l-0.1-0.29l-0.17-0.19l-0.22-0.07l0.2-0.63l0.37-0.71l0.39-0.35l0.27,0.45l-0.03,0.35l-0.44,0.34l-0.05,0.3l0.12,0.19L71.33,65
		l0.2,0.12l0.13,0.12l0.07,0.2l0.03,0.22l0.03,0.2l0.12,0.1L72,65.72l0.14-1.4l0.08-0.2l0.67-1.23l0.03-0.22l-0.02-0.27l0.02-0.22
		l0.1-0.1l0.24-0.03l0.05,0.08l-0.02,0.12v0.51l-0.08,0.37l-0.35,1.08l-0.1,0.52l0.03,0.51l0.27,0.4l0.35,0.12l0.8-0.12l0.32,0.08
		l-0.59,0.45l-0.67,0.36l-0.47,0.49l-0.05,0.89l0.12,0.44l0.1,0.17l0.12,0.03l0.13-0.1v-0.19l-0.03-0.2l0.07-0.17l0.34-0.19
		l0.83-0.08l0.37-0.25h0.24l0.3-0.1l0.27,0.02l0.1,0.22l-0.1,0.15l-0.51,0.2L74.92,68l0.13,0.12l-0.03,0.22l-0.12,0.2l-0.15,0.19
		l-0.17,0.12l0.05,0.17l0.07,0.02l0.03,0.02v0.03l0.05,0.05l0.19-0.17l0.25-0.1l0.44-0.08l0.24-0.17l0.13-0.27l0.15-0.2h0.27
		l-0.15,0.45l-0.63,0.93l-0.12,0.3l-0.1,0.1l-0.47,0.19l-0.07,0.19l-0.03,0.25l-0.25,0.67l-0.1,0.17l0.05,0.02h0.05l0.03,0.02
		l0.02,0.12l0.12-0.03l0.05-0.15l0.08-0.12l0.13-0.08l0.15-0.05l-0.02,0.3l-0.12,0.2l-0.12,0.17l-0.07,0.19l0.02,0.2l0.07,0.08
		l0.07,0.07l0.07,0.15l0.19,0.07l0.3-0.3l0.42-0.61l0.32-0.35l0.4-0.13l1.62-0.22h0.35l0.22,0.05l0.07-0.35l0.07-0.36l0.08-0.13
		l0.42-0.15l0.74-0.27l0.57-0.22l0.86-0.3l0.76-0.29l0.49-0.17l0.34-0.14v-0.19l0.14-1.2l-0.12-0.15l0.09-0.12l0.19-0.44l0.13-0.15
		l0.17-0.03l0.35,0.05l0.12-0.03l0.08-0.24l0.03-0.74l0.05-0.17l0.13-0.24l-0.05-1.35l0.12-0.3l0.19-0.25l0.49-0.44l-0.12,0.52
		l0.1,0.17l0.57-0.17L86.16,62.94z"/>
</g>
<g id="MASSACHUSETTS">
</g>
<g id="MICHIGAN">
</g>
<g id="MINNESOTA">
</g>
<g id="MISSOURI">
</g>
<g id="MISSISSIPPI">
</g>
<g id="MONTANA">
</g>
<g id="NORTH_CAROLINA">
</g>
<g id="NORTH_DAKOTA">
</g>
<g id="NEBRASKA">
</g>
<g id="NEW_HAMPSHIRE">
</g>
<g id="NEW_JERSEY">
</g>
<g id="NEW_YORK">
</g>
<g id="NEW_MEXICO">
</g>
<g id="NEVADA">
</g>
<g id="OHIO">
</g>
<g id="OKLAHOMA">
</g>
<g id="OREGON">
</g>
<g id="PENNSYLVANIA">
</g>
<g id="RHODE_ISLAND">
</g>
<g id="SOUTH_CAROLINA">
</g>
<g id="SOUTH_DAKOTA">
</g>
<g id="TENNESSEE">
</g>
<g id="TEXAS">
</g>
<g id="UTAH">
</g>
<g id="VIRGINIA">
</g>
<g id="VERMONT">
</g>
<g id="WASHINGTON">
</g>
<g id="WISCONSIN">
</g>
<g id="WEST_VIRGINIA">
</g>
<g id="WYOMING">
</g>
</svg>
