<?xml version="1.0" encoding="UTF-8"?>
<svg id="MASSACHUSETTS" xmlns="http://www.w3.org/2000/svg" viewBox="0 0 90 90">
  <defs>
    <style>
      .cls-1 {
        fill: #e2e2e2;
        stroke: #f9f9f9;
        stroke-linecap: round;
        stroke-linejoin: round;
        stroke-width: .03px;
      }
    </style>
  </defs>
  <path id="MA" class="cls-1" d="M87.22,61.75l-.93-.93-.68-1.08-.15-.19-.15-.08-.17-.02-.21,.08,.44,.68,.02,.62-.36,1.27,.27-.23,.42-.78,.34-.25-.02,.42-.13,.42-.23,.34-.49,.32-.15,.32-.15,.11-.19,.04-.21-.08h-.23l-.63,.15-1.76,.72,.04,.17,2.5,.15,1.23-.13,1.15-.36,.87-.83-.44-.83Zm-10.72-.3l-.34-.38-.23,.34-.21,.57-.23,.34,.21,.28,.38,.25,.41,.17,.27-.04,.06-.25-.06-.41-.25-.87Zm-2.2,.57l-.32-.02-.34-.17,.36-.36,.15-.27-.06-.25-.32-.34-.34-.06-.13,.28-.11,.36-.27,.25,.04-.7h-.27l-1.02,.78-.44,.8-.23,.23-.21,.27-.3,1.1-.17,.4-.36,.28-1.34,.36,.04,.21,.32,.1,.53,.42,.27,.15,.44,.13,.23-.06,.3-.49,.4-.47,.51-.4,.62-.32,2.94-.87,.34-.19-.57-1.32-.7,.15Zm10.46-6.92l.11-1.74,.19-.64-.06-.23-.08-.15-.11-.11-.19-.02,.04,.76-.27,2.31,.38-.19Zm.42-3.62l-.38-1.84-.42-1.4-.25-.32-.32,.04-.41,.42-.02-.38-.13-.78v-.4l.36,.23,.38,.17,.08-.04,.06-.04,.06-.06,.04-.11-.47-.47-1.8-2.92-.72-.61-1.51-.95-.49-.19-1.02-.19-.4-.17-.38-.06-.87,.36-.38-.06-.17,.04-.17,.21-.11,.3v.27l.08,.11,.15,.06,.17,.04,.13,.04,.66,.55,.34,.1,.34-.23-.06-.19-.08,.04-.32,.06,.23-.78,.72-.21,.83,.32,.53,.74,.15,.29,.72,1.17,.15,.4,.32,1.27,.15-.36-.11-.87,.23-.25,.24,.04,.25,.17,.32,.11,.42-.06,.06,.21-.32,.23-.15,.08-.21,.06,.59,.55,.4,.85,.13,.91-.25,.82-.27,.21-.72,.34-.49,.57-1.73,1.04-.93,.93-.59,.42-.85,.21-.44,.02-.13-.15,.22-.23,.78-.21,.27-.21-2.71,.49-.89-.08-1.61-.55-.79-.55-.17-.7-.02-.76-.4-.99-.57-.83-.55-.27-.81,.3-.4,.04-.44-.19-1.55-.89,.17-.17,.15-.08h.17l.23,.06-.15-1.33,.08-.23,.25,.11,.32,.34,.44,.68-.13,.06-.17,.15-.08,.06,.25,.08h.21l.21-.08,.17-.23,.08-.22-.04-.06-.15-.04-.89-.8-.3-.4-.02-.49-.57-.32-.79-.81-.51-.44-.34-.15-.08,.02-.04-.08-.21-.81-.11-.15-.7-.51-.51-.26-.55-.15h-1.06l-.61-.25-1.14-.7,.06,.32,.27,.4,.34,.3,.32,.11,.04,.15-.08,.32-.21,.19-.34-.3-.19,.23-.27,.28-.3,.21-.13,.02-.02,.11-.13,.02-.15-.04-.13-.06-.02-.13,.15-.27,.04-.15-.32-.29-.42,.12-.36-.02-.08-.76-.42,.42-.19,.04-.3-.15-.28-.32,.02-.3,.22-.23,.32-.11-.17-.21-.22-.13-.23-.02-.25-.02,.15-.4,.36,.06,.41,.17,.38-.17-.25-.04-.21-.15-.08-.19,.19-.13,.3,.02,.47,.34,.32-.04-.23-.21-.13-.23-.23-.59-.27-.38-.04-.23,.11-.42,.36-.34,.74,.51,.47-.3-.3-.08-.34-.15-.25-.25-.02-.34,.11-.15,.36-.06,.15-.06,.11-.13,.32-.51,.07-.13,.08-.15,.17-.08,.15-.1-.08-.15-.27-.19-.15-.23-.17,.19-.21,.36-.25,.21-.02-.28,.04-.21,.08-.21,.13-.17-.19-.15,.27-.34,.96-.72,2.25-1.17,.13-.21,.04-.27,.13-.3,.19-.23h.13l.06,.06,.04,.04,.4-.04,.08-.08,.17-.23,.13-.25,.04-.26,.11-.19,.3-.08-.05-.15-.17-.19v-.25l-.04-.21-.21-.02-.3,.04-.19-.04-.15-.19-.06-.4-.49,.44-.21,.25-.08,.3,.23,.7-.04,.28-.42-.12-.13-.34-1.17,.21-.51-.36,.21-.06,.15-.06,.27-.26-1.31-.23-.58-.34-.32-.81,.3,.15,.87,.72,.08-.23-1.06-1.57-.32-.27-.17-.21-.08-.06h-.08l-.15,.06-.06,.02-.49-.08-.23-.08-.28-.19,.96-.19,.17-.11-.02-.25-.42-.91-.02-.19-.7,.38h-.47l-.76-.11-.25,.04-.19,.04-1.78,1.4-.19,.23-.08,.13-.21,.42-.11,.19-.21,.27-.19,.11-.24,.06-.25,.02-.34,.09-.21,.08-.15,.11-.08,.11-.08,.11-.13,.28-.06,.15-.08,.34-.04,.55-.04,.21-.15,.27-.21,.19-.38,.21-.19,.15-.13,.15-.19,.42-.23,.36-.23,.32-.15,.11-.21,.08-.47,.12-1.51,.34-1.48,.34-1.48,.34-1.48,.34-1.48,.34-1.48,.34-1.51,.34-1.48,.34-1.48,.34-2.96,.66-1.48,.34-1.5,.34-1.48,.32-1.48,.34-1.48,.32h-.02v.02h-.02l-1.04,.21-1.04,.23-1.02,.21-1.04,.23-1.04,.21-1.04,.21-1.01,.23-1.04,.21-1.04,.21-1.02,.23-1.04,.21-1.04,.21-1.04,.21-3.09,.66-.23,.53-.02,.68-.06,2.1-.06,2.09-.06,2.08-.06,2.1-.08,2.1-.13,4.19-.06,2.1-.04,1.08v.53l.72,.53,2.58-.55,2.58-.53,2.58-.53,2.56-.55,1.44-.3,1.35-.27,1.17-.19,.19,.7,.89-.32-.04-.64,2.9-.7,.53,.02,.27-.02,.17-.04,.34-.3,1.06-.23,3.12-.74,3.11-.74,3.11-.72,3.12-.74,2.39-.62,.11,.3,1.86-.53,1.91-.55,1.86-.53,1.89-.53,1.1-.27,.11,.36,.28,.85,.53,1.67,.06,.17,.11,.13h.17l.4-.13h.17l.11,.08,.13,.28,.04,.21,.02,.17v.23l.04,.15,.11,.25,.13,.95,.06,.13,.06,.17,.19,.17,.32,.25,.4,.17,.27,.06,.23,.02,.47,.19,.93,.93,.08-.36,.02-.15,.06-.19h.3l.53,.06,.15-.17,.11-.23,.32-1.44,.17-.4,.27-.21-.21,1.27-.66,2.2-.06,1.14,.08,.57,.17,.66,.38,1.16,.51,.96,.04,.21-.04,.32,.15,.27,.44,.55,1.01-1.55,.44-.42-.13-.11-.3-.38,.81-.06,.21-.21-.15-.55,.36,.25,.21,.38-.02,.4-.38,.28,.7,.1,.49-.27,.76-.93-.02,.06v.13l.3-.08,.21-.21,.36-.51-.34-.76,.08-.55,.17-.53-.15-.7,.61,.19,.17,.11,.15,.17,.27,.47,.17,.11,.23-.08-.04-.32-.32-.66,.19-.04,.38-.28,.27-.3-.04-.08-.04-.13,.13-.25,.21-.13,.36,.32,.25-.55,.02-.49,.13-.34,.59-.09-.3-.34-.13-.32-.17-.89,.19-.11,.49,.11,.81,.32,.13-.04v-.36l.11-.23,.21-.02,.23,.26-.08,.06-.17,.21,.21,.25-.11,.3-.19,.3-.06,.29,.13,.36,.23,.4,.53,2.07,.02,.81-.36,.66,.66-.23,1.06-.87,.59-.32,.7-.21,.55-.3,.44-.4,.3-.61,.34-1.25,.17-.29h.27l.42,.42,.21-.17,.24-.34,.27-.15,.7-.13,.34-.15,.49-.42,.3-.13-.02,.74,.04,.3,.15-.21,.17-.61,.13-.25,.19-.15,.25-.13,.57-.51,1.01-.28,3.16-1.5,.89-.02Z"/>
  <g>
    <path d="M38.27,41.23v5.05h-1.23v-3.16l-1.09,3.16h-1.07l-1.1-3.17v3.17h-1.23v-5.05h1.5l1.38,3.52,1.35-3.52h1.5Z"/>
    <path d="M42.27,45.35h-1.91l-.32,.93h-1.3l1.87-5.05h1.42l1.87,5.05h-1.31l-.32-.93Zm-.32-.94l-.63-1.87-.64,1.87h1.27Z"/>
  </g>
</svg>