<?xml version="1.0" encoding="utf-8"?>
<!-- Generator: Adobe Illustrator 26.5.0, SVG Export Plug-In . SVG Version: 6.00 Build 0)  -->
<svg version="1.1" xmlns="http://www.w3.org/2000/svg" xmlns:xlink="http://www.w3.org/1999/xlink" x="0px" y="0px"
	 viewBox="0 0 90 90" style="enable-background:new 0 0 90 90;" xml:space="preserve">
<style type="text/css">
	.st0{fill:#CECECE;stroke:#F9F9F9;stroke-width:0.025;stroke-linecap:round;stroke-linejoin:round;}
	.st1{display:none;fill:none;stroke:#47CCCC;stroke-width:0.5;stroke-linecap:round;stroke-linejoin:round;}
	.st2{fill:#CECECE;}
</style>
<g id="ALABAMA">
</g>
<g id="ALASKA">
</g>
<g id="ARIZONA">
</g>
<g id="ARKANSAS_1_">
</g>
<g id="CALIFORNIA">
</g>
<g id="COLORADO">
</g>
<g id="CONNECTICUT">
</g>
<g id="DELAWARE">
</g>
<g id="DC">
</g>
<g id="FLORIDA">
</g>
<g id="GEORGIA">
</g>
<g id="HAWAII">
</g>
<g id="IDAHO">
</g>
<g id="IOWA">
</g>
<g id="ILLINOIS">
</g>
<g id="INDIANA">
</g>
<g id="KANSAS">
</g>
<g id="KETUCKY">
</g>
<g id="LOUISANA">
</g>
<g id="MAINE">
</g>
<g id="MARYLAND">
</g>
<g id="MASSACHUSETTS">
	<path id="MA_1_" class="st0" d="M87.22,61.75l-0.93-0.93l-0.68-1.08l-0.15-0.19l-0.15-0.08l-0.17-0.02l-0.21,0.08l0.44,0.68
		l0.02,0.62l-0.36,1.27l0.27-0.23l0.42-0.78l0.34-0.25l-0.02,0.42l-0.13,0.42l-0.23,0.34l-0.49,0.32l-0.15,0.32l-0.15,0.11
		l-0.19,0.04l-0.21-0.08h-0.23l-0.63,0.15l-1.76,0.72l0.04,0.17l2.5,0.15l1.23-0.13l1.15-0.36l0.87-0.83L87.22,61.75z M76.5,61.46
		l-0.34-0.38l-0.23,0.34l-0.21,0.57l-0.23,0.34l0.21,0.28l0.38,0.25l0.41,0.17l0.27-0.04l0.06-0.25l-0.06-0.41L76.5,61.46z
		 M74.3,62.03l-0.32-0.02l-0.34-0.17L74,61.48l0.15-0.27l-0.06-0.25l-0.32-0.34l-0.34-0.06l-0.13,0.28l-0.11,0.36l-0.27,0.25
		l0.04-0.7h-0.27l-1.02,0.78l-0.44,0.8l-0.23,0.23l-0.21,0.27l-0.3,1.1l-0.17,0.4l-0.36,0.28l-1.34,0.36l0.04,0.21l0.32,0.1
		l0.53,0.42l0.27,0.15l0.44,0.13l0.23-0.06l0.3-0.49l0.4-0.47l0.51-0.4l0.62-0.32l2.94-0.87l0.34-0.19L75,61.88L74.3,62.03z
		 M84.76,55.1l0.11-1.74l0.19-0.64l-0.06-0.23l-0.08-0.15l-0.11-0.11l-0.19-0.02l0.04,0.76l-0.27,2.31L84.76,55.1z M85.18,51.48
		l-0.38-1.84l-0.42-1.4l-0.25-0.32l-0.32,0.04l-0.41,0.42l-0.02-0.38l-0.13-0.78v-0.4l0.36,0.23L84,47.22l0.08-0.04l0.06-0.04
		l0.06-0.06l0.04-0.11l-0.47-0.47l-1.8-2.92l-0.72-0.61l-1.51-0.95l-0.49-0.19l-1.02-0.19l-0.4-0.17l-0.38-0.06l-0.87,0.36
		l-0.38-0.06l-0.17,0.04l-0.17,0.21l-0.11,0.3v0.27l0.08,0.11l0.15,0.06l0.17,0.04l0.13,0.04l0.66,0.55l0.34,0.1l0.34-0.23
		l-0.06-0.19l-0.08,0.04l-0.32,0.06l0.23-0.78l0.72-0.21l0.83,0.32l0.53,0.74l0.15,0.29l0.72,1.17l0.15,0.4l0.32,1.27l0.15-0.36
		l-0.11-0.87l0.23-0.25l0.24,0.04l0.25,0.17l0.32,0.11l0.42-0.06l0.06,0.21l-0.32,0.23l-0.15,0.08l-0.21,0.06l0.59,0.55l0.4,0.85
		l0.13,0.91l-0.25,0.82l-0.27,0.21l-0.72,0.34l-0.49,0.57l-1.73,1.04l-0.93,0.93l-0.59,0.42l-0.85,0.21l-0.44,0.02l-0.13-0.15
		l0.22-0.23l0.78-0.21l0.27-0.21l-2.71,0.49l-0.89-0.08l-1.61-0.55l-0.79-0.55l-0.17-0.7L71.5,49.6l-0.4-0.99l-0.57-0.83l-0.55-0.27
		l-0.81,0.3l-0.4,0.04l-0.44-0.19l-1.55-0.89l0.17-0.17l0.15-0.08h0.17l0.23,0.06l-0.15-1.33L67.44,45l0.25,0.11l0.32,0.34
		l0.44,0.68l-0.13,0.06l-0.17,0.15l-0.08,0.06l0.25,0.08h0.21l0.21-0.08l0.17-0.23L69,45.95l-0.04-0.06l-0.15-0.04l-0.89-0.8
		l-0.3-0.4l-0.02-0.49l-0.57-0.32l-0.79-0.81l-0.51-0.44l-0.34-0.15l-0.08,0.02l-0.04-0.08l-0.21-0.81l-0.11-0.15l-0.7-0.51
		l-0.51-0.26l-0.55-0.15h-1.06l-0.61-0.25l-1.14-0.7l0.06,0.32l0.27,0.4l0.34,0.3l0.32,0.11l0.04,0.15l-0.08,0.32l-0.21,0.19
		l-0.34-0.3l-0.19,0.23l-0.27,0.28l-0.3,0.21l-0.13,0.02l-0.02,0.11l-0.13,0.02l-0.15-0.04l-0.13-0.06l-0.02-0.13l0.15-0.27
		l0.04-0.15l-0.32-0.29l-0.42,0.12l-0.36-0.02l-0.08-0.76l-0.42,0.42l-0.19,0.04l-0.3-0.15l-0.28-0.32l0.02-0.3l0.22-0.23l0.32-0.11
		l-0.17-0.21l-0.22-0.13L57.2,39.3l-0.25-0.02l0.15-0.4l0.36,0.06l0.41,0.17l0.38-0.17l-0.25-0.04l-0.21-0.15l-0.08-0.19l0.19-0.13
		l0.3,0.02l0.47,0.34l0.32-0.04l-0.23-0.21l-0.13-0.23l-0.23-0.59l-0.27-0.38l-0.04-0.23l0.11-0.42l0.36-0.34l0.74,0.51l0.47-0.3
		l-0.3-0.08l-0.34-0.15l-0.25-0.25l-0.02-0.34l0.11-0.15l0.36-0.06l0.15-0.06l0.11-0.13l0.32-0.51l0.07-0.13L60,34.54l0.17-0.08
		l0.15-0.1l-0.08-0.15l-0.27-0.19l-0.15-0.23l-0.17,0.19l-0.21,0.36l-0.25,0.21l-0.02-0.28l0.04-0.21l0.08-0.21l0.13-0.17
		l-0.19-0.15l0.27-0.34l0.96-0.72l2.25-1.17l0.13-0.21l0.04-0.27l0.13-0.3l0.19-0.23h0.13l0.06,0.06l0.04,0.04l0.4-0.04l0.08-0.08
		l0.17-0.23l0.13-0.25l0.04-0.26l0.11-0.19l0.3-0.08l-0.05-0.15l-0.17-0.19v-0.25l-0.04-0.21l-0.21-0.02l-0.3,0.04l-0.19-0.04
		l-0.15-0.19l-0.06-0.4l-0.49,0.44l-0.21,0.25l-0.08,0.3l0.23,0.7l-0.04,0.28l-0.42-0.12l-0.13-0.34l-1.17,0.21l-0.51-0.36
		l0.21-0.06l0.15-0.06l0.27-0.26l-1.31-0.23l-0.58-0.34l-0.32-0.81l0.3,0.15l0.87,0.72l0.08-0.23l-1.06-1.57l-0.32-0.27L58.79,26
		l-0.08-0.06h-0.08L58.47,26l-0.06,0.02l-0.49-0.08l-0.23-0.08l-0.28-0.19l0.96-0.19l0.17-0.11l-0.02-0.25l-0.42-0.91l-0.02-0.19
		l-0.7,0.38h-0.47l-0.76-0.11l-0.25,0.04l-0.19,0.04l-1.78,1.4L53.73,26l-0.08,0.13l-0.21,0.42l-0.11,0.19l-0.21,0.27l-0.19,0.11
		l-0.24,0.06l-0.25,0.02L52.1,27.3l-0.21,0.08l-0.15,0.11l-0.08,0.11l-0.08,0.11l-0.13,0.28l-0.06,0.15l-0.08,0.34l-0.04,0.55
		l-0.04,0.21l-0.15,0.27l-0.21,0.19l-0.38,0.21l-0.19,0.15l-0.13,0.15l-0.19,0.42l-0.23,0.36l-0.23,0.32l-0.15,0.11l-0.21,0.08
		l-0.47,0.12l-1.51,0.34l-1.48,0.34l-1.48,0.34l-1.48,0.34l-1.48,0.34l-1.48,0.34l-1.51,0.34l-1.48,0.34l-1.48,0.34l-2.96,0.66
		l-1.48,0.34L29.33,36l-1.48,0.32l-1.48,0.34l-1.48,0.32h-0.02l0,0l0,0l0,0l0,0l0,0v0.02l0,0h-0.02l0,0l0,0l0,0l0,0L23.8,37.2
		l-1.04,0.23l-1.02,0.21l-1.04,0.23l-1.04,0.21l-1.04,0.21l-1.01,0.23l-1.04,0.21l-1.04,0.21l-1.02,0.23l-1.04,0.21l-1.04,0.21
		l-1.04,0.21l-3.09,0.66l-0.23,0.53L8.07,41.7L8,43.79l-0.06,2.09l-0.06,2.08l-0.06,2.1l-0.08,2.1L7.6,56.35l-0.06,2.1l-0.04,1.08
		v0.53l0.72,0.53l2.58-0.55l2.58-0.53l2.58-0.53l2.56-0.55l1.44-0.3l1.35-0.27l1.17-0.19l0.19,0.7l0.89-0.32l-0.04-0.64l2.9-0.7
		l0.53,0.02l0.27-0.02l0.17-0.04l0.34-0.3l1.06-0.23l3.12-0.74l3.11-0.74l3.11-0.72l3.12-0.74l2.39-0.62l0.11,0.3l1.86-0.53
		l1.91-0.55l1.86-0.53l1.89-0.53l1.1-0.27l0.11,0.36l0.28,0.85l0.53,1.67l0.06,0.17l0.11,0.13h0.17l0.4-0.13h0.17l0.11,0.08
		l0.13,0.28l0.04,0.21l0.02,0.17v0.23l0.04,0.15l0.11,0.25l0.13,0.95l0.06,0.13l0.06,0.17l0.19,0.17l0.32,0.25l0.4,0.17l0.27,0.06
		l0.23,0.02l0.47,0.19l0.93,0.93l0.08-0.36l0.02-0.15l0.06-0.19h0.3l0.53,0.06l0.15-0.17l0.11-0.23l0.32-1.44l0.17-0.4l0.27-0.21
		l-0.21,1.27l-0.66,2.2l-0.06,1.14l0.08,0.57l0.17,0.66l0.38,1.16l0.51,0.96l0.04,0.21l-0.04,0.32l0.15,0.27l0.44,0.55l1.01-1.55
		l0.44-0.42l-0.13-0.11l-0.3-0.38l0.81-0.06l0.21-0.21l-0.15-0.55l0.36,0.25l0.21,0.38l-0.02,0.4l-0.38,0.28l0.7,0.1l0.49-0.27
		l0.76-0.93l-0.02,0.06v0.13l0.3-0.08l0.21-0.21l0.36-0.51l-0.34-0.76l0.08-0.55l0.17-0.53l-0.15-0.7l0.61,0.19l0.17,0.11l0.15,0.17
		l0.27,0.47l0.17,0.11l0.23-0.08l-0.04-0.32l-0.32-0.66l0.19-0.04l0.38-0.28l0.27-0.3l-0.04-0.08l-0.04-0.13l0.13-0.25l0.21-0.13
		l0.36,0.32l0.25-0.55l0.02-0.49l0.13-0.34l0.59-0.09l-0.3-0.34l-0.13-0.32l-0.17-0.89l0.19-0.11l0.49,0.11l0.81,0.32l0.13-0.04
		v-0.36L70,53.7l0.21-0.02l0.23,0.26L70.36,54l-0.17,0.21l0.21,0.25l-0.11,0.3l-0.19,0.3l-0.06,0.29l0.13,0.36l0.23,0.4l0.53,2.07
		L70.95,59l-0.36,0.66l0.66-0.23l1.06-0.87l0.59-0.32l0.7-0.21l0.55-0.3l0.44-0.4l0.3-0.61l0.34-1.25l0.17-0.29h0.27l0.42,0.42
		l0.21-0.17l0.24-0.34l0.27-0.15l0.7-0.13l0.34-0.15l0.49-0.42l0.3-0.13l-0.02,0.74l0.04,0.3l0.15-0.21l0.17-0.61l0.13-0.25
		l0.19-0.15l0.25-0.13l0.57-0.51L81.14,53l3.16-1.5L85.18,51.48z"/>
</g>
<g id="MICHIGAN">
</g>
<g id="MINNESOTA">
</g>
<g id="MISSOURI">
</g>
<g id="MISSISSIPPI">
</g>
<g id="MONTANA">
</g>
<g id="NORTH_CAROLINA">
</g>
<g id="NORTH_DAKOTA">
</g>
<g id="NEBRASKA">
</g>
<g id="NEW_HAMPSHIRE">
</g>
<g id="NEW_JERSEY">
</g>
<g id="NEW_YORK">
</g>
<g id="NEW_MEXICO">
</g>
<g id="NEVADA">
</g>
<g id="OHIO">
</g>
<g id="OKLAHOMA">
</g>
<g id="OREGON">
</g>
<g id="PENNSYLVANIA">
</g>
<g id="RHODE_ISLAND">
</g>
<g id="SOUTH_CAROLINA">
</g>
<g id="SOUTH_DAKOTA">
</g>
<g id="TENNESSEE">
</g>
<g id="TEXAS">
</g>
<g id="UTAH">
</g>
<g id="VIRGINIA">
</g>
<g id="VERMONT">
</g>
<g id="WASHINGTON">
</g>
<g id="WISCONSIN">
</g>
<g id="WEST_VIRGINIA">
</g>
<g id="WYOMING">
</g>
</svg>
