<?xml version="1.0" encoding="utf-8"?>
<!-- Generator: Adobe Illustrator 26.5.0, SVG Export Plug-In . SVG Version: 6.00 Build 0)  -->
<svg version="1.1" xmlns="http://www.w3.org/2000/svg" xmlns:xlink="http://www.w3.org/1999/xlink" x="0px" y="0px"
	 viewBox="0 0 90 90" style="enable-background:new 0 0 90 90;" xml:space="preserve">
<style type="text/css">
	.st0{fill:#CECECE;stroke:#F9F9F9;stroke-width:0.025;stroke-linecap:round;stroke-linejoin:round;}
	.st1{display:none;fill:none;stroke:#47CCCC;stroke-width:0.5;stroke-linecap:round;stroke-linejoin:round;}
	.st2{fill:#CECECE;}
</style>
<g id="ALABAMA">
</g>
<g id="ALASKA">
</g>
<g id="ARIZONA">
</g>
<g id="ARKANSAS_1_">
</g>
<g id="CALIFORNIA">
</g>
<g id="COLORADO">
</g>
<g id="CONNECTICUT">
</g>
<g id="DELAWARE">
</g>
<g id="DC">
</g>
<g id="FLORIDA">
</g>
<g id="GEORGIA">
</g>
<g id="HAWAII">
</g>
<g id="IDAHO">
</g>
<g id="IOWA">
</g>
<g id="ILLINOIS">
</g>
<g id="INDIANA">
</g>
<g id="KANSAS">
</g>
<g id="KETUCKY">
</g>
<g id="LOUISANA">
</g>
<g id="MAINE">
</g>
<g id="MARYLAND">
</g>
<g id="MASSACHUSETTS">
</g>
<g id="MICHIGAN">
	<path class="st0" d="M66.09,28.64l0.07,0.02h0.04l0.02-0.16l0.1,0.03l0.12,0.1l0.07,0.08l0.08,0.06l0.26,0.12l0.07,0.13l0.01,0.03
		l0.06-0.02l0.09-0.08l0.04-0.02l0.35-0.05l0.1,0.02l0.12,0.07l0.12,0.03l0.07-0.05l0.2-0.22l0.21-0.02l0.42,0.18l0.24,0.04
		l0.28-0.01l0.25-0.08l0.16-0.14l0.13-0.42l0,0l0.11-0.31v-0.15l-0.21-0.12l-0.23-0.01l-0.22-0.08l-0.15-0.32l-0.1-0.24l-0.2-0.16
		l-0.45-0.16l-0.6,0.06l-0.26,0.09l0.03,0.2l0.13,0.06l0.14,0.01l0.12,0.05l0.01,0.11l0,0l0.02,0.11l-0.04,0.13l-0.1,0.08
		l-0.21,0.12l-0.21,0.16l-0.11,0.05l-0.15,0.04l-0.06,0.06l-0.11,0.26l-0.1,0.07l-0.2-0.09l-0.22-0.15l-0.21-0.04l-0.14,0.28v0.19
		L66.09,28.64z M62.84,24.64l-0.24,0.03l-0.06,0.12l0.01,0.18l-0.02,0.23l0.21,0.21l0.2,0.27l0.22,0.14l0.25-0.18l0.01-0.27
		l-0.18-0.32l-0.23-0.27L62.84,24.64z M80.41,75.62l-0.06,0.09l-0.05,0.74l0.03,0.39l0.14,0.11l0.1-0.22l-0.02-0.38L80.41,75.62z
		 M61.73,23.03l0.11,0.12l0.05,0.17l0.18,0.47l0.08,0.15l0.18,0.12l0.2,0.08l0.13,0.13l-0.02,0.18l0,0v0.05h0.22l0.12,0.02
		l0.21,0.11l0.03-0.09l-0.01-0.11l0,0v-0.02l-0.04-0.07l-0.1-0.06l-0.5-0.62l-0.07-0.11l-0.03-0.14l-0.04-0.25l0.03-0.15l0.18-0.5
		l0.11-0.21l0.02-0.05l0.01-0.04l0.05-0.03l-0.19-0.07l-0.38,0.01l-0.18-0.11l-0.06,0.05l-0.36,0.42l-0.12,0.18l-0.09,0.26
		l0.11,0.08L61.73,23.03z M45.7,31.6l0.63,0.12l0.6,0.25l-0.08-0.29l0.05-0.2l0.17-0.13l0.99-0.26l1.22-0.14l0.15-0.1l0.11-0.21
		l0.14-0.43l0.52-0.82l0.18-0.14l0.76-0.03l0.28-0.2L51.48,29l0.11,0.05l0.13,0.1l0.12,0.06l0.1-0.05l0.18-0.17l0.21,0.05l0.39,0.25
		l0.21,0.04l0.64-0.07l0.22,0.03l0.54,0.22l0.95,0.14l0.18,0.11l0.39,0.34l0.13,0.06l0.1,0.07l0.25,0.33l0.11,0.07h0.19l0.24,0.05
		l0.2,0.12l0.11,0.21l0.21,0.21l0.45,0.17l0.44,0.01l0.23-0.26l-0.18-0.07l-0.11-0.22l-0.01-0.27l0.13-0.2l-0.12-0.07l-0.07-0.12
		l-0.01-0.15l0.06-0.18l0.12-0.12l0.1-0.03l0.06-0.06l0.01-0.68l0.18-0.19h0.27l0.32,0.14l0.18-0.14l0.2,0.04l0.18,0.17l0.09,0.23
		l0.03,0.17l0.04,0.06l0.09-0.03l0.04-0.03l0.13-0.14l0.07-0.04l0.3,0.22l0.02-0.27l0.04-0.1l0.54-0.01l0.27,0.13l0.16,0.03v-0.03
		l0.06-0.07l0.07-0.07l0.07-0.04L61.92,29l0.21,0.09l0.11,0.01l0.61-0.11l1.96,0.1l0.08,0.03l0.11,0.01l0.08-0.06l0.08-0.08
		l0.11-0.05l0.5-0.15l0.15,0.05l-0.01-0.15l0.01-0.13l0.06-0.26l-0.18-0.02l-0.14-0.08l-0.13-0.1l-0.14-0.07l-0.2-0.02h-0.16
		L64.87,28l-0.18-0.13l-0.4-0.37l-0.07-0.1l-0.02-0.19l0.05-0.15l0.08-0.14l0.07-0.17l-0.14,0.02l-0.12-0.03l-0.22-0.09h-0.07
		l-0.13,0.04h-0.07l-0.05-0.05l-0.12-0.2l-0.18-0.03h-0.29l-0.25,0.05l-0.1,0.14l-0.1,0.1l-0.24-0.19l-0.22-0.24l-0.01-0.15
		l0.21-0.1l0.26-0.31l0.22-0.05l-0.14-0.21l-0.28-0.3l-0.09-0.24l-0.12-0.48l-0.08-0.22l-0.08-0.1l-0.39-0.59l-0.16-0.32l-0.43-0.4
		l-0.18-0.12l-0.23-0.06l-0.22,0.01l-0.21,0.07l-0.15,0.15l-0.28,0.54l-0.24,0.25l-0.34,0.26l-0.37,0.14l-0.33-0.14l0.05-0.26
		l-0.27-0.3l-0.39-0.17l-0.29,0.12l-0.21,0.25l-0.3,0.19l-0.33,0.14l-0.3,0.08l-0.16-0.01l-0.43-0.19l-0.36-0.03l-0.07-0.03
		l-0.16-0.16l-0.1-0.04l-0.13,0.03l-0.28,0.19l-0.15,0.04l-0.19-0.03l-0.14-0.1l-0.11-0.15l-0.09-0.18L54.28,23l0.07-0.23l-0.19-0.4
		l-0.03-1.5l0.02-0.19l0.12-0.18l0.15-0.13l0.13-0.14l0.05-0.22l-0.21,0.06l-0.37,0.17l-0.2,0.06l-0.8,0.01l-0.71,0.16l-0.83,0.37
		l-1.61,1.05l-0.42,0.13l-3.22,0.1l-0.28,0.1l-0.08-0.08l-0.23,0.19l-1.51,0.49l-0.26-0.01l-0.28-0.12l-1.18,1.03l-1.01,0.59
		l-0.34,0.34l-0.33,0.09l-0.14,0.08l-0.38,0.39l-0.11,0.15l-0.37,0.7l-0.26,0.3l-0.3,0.12l0.01-0.06l0.01-0.14l0.01-0.06l-0.26,0.03
		L38.7,26.2l-0.19-0.09l-0.2-0.21l-0.23-0.14l-0.19,0.1l-0.24,0.34l-0.18,0.13l-0.24,0.09h-0.24l-0.12-0.18l-0.06-0.1l-0.11-0.01
		l-0.12,0.02l-0.1-0.04l-0.33-0.35l-0.06-0.12l-0.02-0.08l-0.04-0.06l-0.12-0.08l-0.13-0.04l-0.14-0.01l-0.12,0.05l-0.1,0.11
		l-0.08,0.07l-0.12,0.02l-0.25,0.01l-0.04,0.06l-0.14,0.24l-0.07,0.09l-0.22,0.04l-0.45-0.03l-0.39,0.23l-1.16-0.05l-0.25-0.09
		l-0.17-0.25L32,25.26l-0.05-0.09l-0.1-0.04l-0.52-0.16l-0.11-0.11l-0.01-0.19l-0.18-0.1l-0.21-0.16l-0.18-0.21l-0.09-0.2
		l-0.11-0.11l-0.48-0.39l-0.15-0.16l-0.21-0.53l-0.17-0.22l-0.19,0.08l-0.1,0.06l-0.08-0.11l-0.12-0.26l-0.07-0.01l-0.22,0.1
		l-0.11-0.01l-0.11-0.07l-0.12-0.22l-0.09-0.1l-0.09-0.02l-0.11,0.02h-0.09l-0.05-0.1l-0.14-0.1l-1.03-0.14l-1.53,0.04l-0.51,0.1
		L24,22.14l-0.14,0.18l-0.06,0.26l-0.18,0.29l-0.23,0.23l-0.21,0.1v-0.08l0.16-0.27l0.13-0.36l0.16-0.32l0.5-0.31l0.24-0.28
		l0.07-0.22l-0.27,0.01l-0.14,0.08l-0.4,0.33l-0.37,0.43l-0.28,0.15l-0.25,0.32l-0.14,0.08l-0.31,0.08l-0.1,0.09l0.15,0.14
		l-0.44,0.72l-0.29,0.37l-0.14-0.07L21.49,24l0.08-0.06l0.09-0.05l0.07-0.06l0.01-0.07l-0.04-0.08l-0.22-0.34l-0.05-0.13l0.03-0.13
		l0.05-0.12l0.01-0.13l-0.02-0.12l-0.07-0.11l0.1-0.24l0.08-0.29l0.04-0.31v-0.27l-0.08-0.25l-0.16-0.22l-0.2-0.18l-0.17-0.12
		l-0.07,0.01l-0.05,0.06l-0.07,0.03l-0.07-0.08l-0.01-0.06l0.04-0.14l0.04-0.34v-0.16l-0.06-0.13l-0.23-0.15l-0.5-0.01l-0.24-0.05
		l-0.22-0.17l-0.04-0.21l0.04-0.25v-0.33l-0.12-0.27l-0.21,0.01l-0.22,0.15l-1.44,1.41l-0.26,0.15l-0.06,0.05l-0.15,0.38l-0.03,0.07
		l-0.05,0.12l-0.27,0.55l-0.15,0.18l-0.09,0.04l-0.29,0.08l-0.36,0.19l-0.1,0.03l-0.47-0.06l-0.2,0.04l-0.2,0.19l-0.62,0.77
		l-0.7,0.62l-0.81,0.45l-3.68,0.77l-0.37,0.22l-1.59,1.64L6.8,26.77l-1.62,0.66l-0.47,0.33L4.59,27.8l-0.31,0.05l-0.25,0.09
		l-0.22,0.13l-0.2,0.15l-0.03,0.07l0.07,0.24l0.05,0.13l0.05,0.05l0.07,0.03l0.11,0.01L4,28.72l0.06-0.03l0.17-0.12l0.06-0.01
		l0.07,0.03l0.12,0.18l0.06,0.05l0.18,0.02l0.1,0.02l0.1,0.08l0.08,0.05l0.12,0.03h0.09l0.1,0.02l0.1,0.05l0.14,0.13l0.13,0.14
		l0.12,0.21l0.19,0.34l0.3,0.52l0.19,0.33l0.1,0.24l0.04,0.07l0.05,0.05l0.27,0.05l0.11,0.02l0.28,0.04l0.45,0.08l0.58,0.09L9,31.5
		l0.76,0.12l0.82,0.14l0.84,0.14l0.85,0.13l0.82,0.13l0.76,0.13l0.69,0.11l0.59,0.09l0.44,0.07l0.28,0.05l0.11,0.01l0.34,0.06
		l0.21,0.08l0.59,0.24l0.59,0.24l0.6,0.25l0.6,0.25l0.23,0.1h0.13l0.07-0.01l0.14-0.04l0.07-0.01l0.07,0.02l0.08,0.06l0.1,0.01
		l0.08-0.01l0.19-0.1l0.07-0.01h0.1l0.1,0.02l0.16,0.06l0.21,0.04l0.34,0.13l0.11,0.01l0.08-0.02l0.2-0.17l0.06-0.03h0.07l0.08,0.01
		h0.07l0.07-0.02l0.11-0.08l0.07-0.02l0.07-0.02h0.08l0.1,0.03l0.11,0.04l0.17,0.1l0.1,0.02l0.08-0.01l0.06-0.03l0.07-0.01
		l0.08,0.02l0.34,0.14h0.09h0.09l0.19-0.08l0.09,0.01l0.09,0.03l0.26,0.17l0.06,0.01l0.16,0.01l0.33-0.03h0.08l0.08,0.02l0.18,0.08
		l0.18,0.04h0.08l0.08-0.01l0.14-0.04l0.08-0.01l0.08,0.02l0.25,0.17l0.07,0.02l0.16,0.04l0.09,0.05l0.09,0.08l0.3,0.48l0.04,0.09
		l0.01,0.12l-0.03,0.08l-0.03,0.06l-0.19,0.28l-0.02,0.07l-0.02,0.07v0.09l0.04,0.09l0.11,0.11l0.08,0.06l0.15,0.06l0.16,0.04
		l0.16,0.02h0.08l0.16-0.03l0.19-0.09h0.05l0.05,0.01l0.03,0.02l0.13,0.13l0.05,0.04l0.06,0.04l0.06,0.02l0.17,0.03l0.42-0.01
		l0.08,0.01l0.06,0.03l0.06,0.03l0.04,0.05l0.14,0.14l0.05,0.05l0.24,0.13l0.11,0.07l0.13,0.13l0.15,0.13l0.07,0.06l0.02,0.04v0.04
		l-0.02,0.08l-0.03,0.04l-0.1,0.1l-0.01,0.07l0.01,0.1l0.09,0.13l0.19,0.23l0.04,0.07l0.03,0.09l0.02,0.18l-0.01,0.1l-0.03,0.08
		l-0.05,0.05l-0.05,0.03l-0.07,0.03l-0.04,0.06l0.01,0.12l0.12,0.25l0.12,0.38l0.01,0.09v0.04l-0.01,0.07l-0.04,0.14l-0.06,0.13
		l-0.04,0.06l-0.04,0.05l-0.29,0.25l-0.04,0.06l-0.02,0.08l0.01,0.1l0.04,0.16v0.11l-0.01,0.09l-0.08,0.27l-0.01,0.08l0.04,0.08
		l0.07,0.08l0.16,0.07l0.09,0.01l0.08-0.02l0.11-0.08l0.06-0.02l0.08-0.01l0.22,0.04h0.08l0.07-0.01l0.07-0.03l0.67-0.43l0.06-0.02
		h0.06l0.07,0.03l0.07,0.07l0.09,0.11l0.08,0.1l0.02,0.07v0.07l-0.04,0.08l-0.13,0.17l-0.06,0.12l-0.19,0.54l-0.13,0.54l-0.02,0.16
		v0.41l0.02,0.09l0.08,0.11l0.17,0.17l0.24,0.19l0.12,0.12l0.06,0.08l0.03,0.06l0.18,0.11l0.54,0.14l0.01-0.04l-0.15-0.55v-0.27
		l0.39-0.26l1.72-3.17l0.04-0.15l0.02-0.31l0.04-0.13l0.17-0.21l0.07-0.12l0.1-0.63l0.08-0.2l0.28-0.52l0.21-0.25l0.28-0.79
		l0.16-0.16l0.4-0.18l0.15-0.15l0.09-0.42l0.03-0.03l-0.01-0.57l0.08-0.52l0.1-0.26l0.15-0.13l0.06-0.16l0.11-0.66l0.09-0.19
		l0.16-0.02l0.08,0.13l0.01,0.18l-0.01,0.13l-0.06,0.19l-0.16,0.31l-0.04,0.15l0.03,0.23l0.09,0.18L37,34.89l0.08,0.14l0.04,0.21
		l-0.01,0.62l0.07,0.2l0.11,0.14l0.1,0.03l0.02-0.13l0.07-0.1l0.35-0.16l0.23-0.07l0.16-0.08l0.13-0.11l0.04-0.14l0.05-0.2l0.21-0.4
		l-0.02-0.19l0.11-0.09l0.08-0.1l0.06-0.13l0.03-0.16l-0.12-0.25l0.11-0.14l0.21-0.07l0.18-0.02l0.37,0.2l0.24,0.07l0.2-0.14
		l0.11-0.19l0.13-0.15l0.15-0.12l0.18-0.11l0.19-0.07l0.13,0.01l0.1,0.09l0.14,0.17l-0.21,0.87L41,34.47l0.04,0.02l0.02,0.06
		l-0.01,0.06l-0.03,0.03h-0.07l-0.14-0.05h-0.07l-0.22,0.03l-0.1,0.02v0.04l0.01,0.06l-0.03,0.12l-0.02,0.16l-0.01,0.06l-0.03,0.03
		l-0.05,0.01l-0.06,0.02l-0.04,0.05l-0.06,0.38l-0.05,0.12l-0.27,0.31l-0.02,0.15l0.15,0.21l0.12,0.13l0.31,0.18l0.18,0.13
		l0.11,0.06l0.11,0.02l0.09-0.07l-0.02-0.14l-0.05-0.13l-0.04-0.06l-0.02-0.06l-0.06-0.11l-0.02-0.08l0.02-0.1l0.06-0.03h0.07
		l0.04-0.03l0.14-0.47l0.12-0.2l0.29-0.14l0.04-0.1l0.01-0.13l-0.02-0.15l0.04-0.09l0.11-0.04l0.22-0.04l0.37-0.22l0.05-0.07
		l0.06-0.15l0.06-0.08l0.14-0.06l0.35-0.08l0.14-0.11l0.06-0.09l-0.08-0.08l0.17-0.74l0.24-0.59l0.39-0.41l1.59-0.44L45.7,31.6z
		 M38.66,25.42l0.05,0.09l0.07,0.08l0.08,0.12l0.06,0.16v0.09L38.93,26l0.1,0.04l0.06-0.01l0.01-0.14l0.04-0.04l0.06,0.02l0.05,0.05
		l0.04,0.06v0.03L39.49,26l0.12-0.06l0.05-0.16l-0.06-0.14l-0.13-0.01l-0.14,0.04l-0.1-0.02l-0.01-0.1l0.04-0.13l0.13-0.22
		l-0.14-0.24l-0.07-0.09l-0.11-0.06l-0.22-0.04l-0.18,0.08l-0.08,0.18l0.01,0.26L38.66,25.42z M19.77,18.45l-0.06,0.22l-0.01,0.3
		l0.05,0.57l0.14,0.15l0.85-0.03l0.1,0.07l0.19,0.2l0.07,0.04l0.41-0.13l0.11-0.14l-0.02-0.23l-0.13-0.13l-0.22,0.19l0.07-0.22
		l0.14-0.24l0.18-0.21l0.13-0.09l-0.03,0.21l0.01,0.45l-0.02,0.22l-0.07,0.24l-0.08,0.12l-0.25,0.2l-0.13,0.16l-0.05,0.14l0.05,0.14
		l0.61,0.73l0.13-0.09l0.11-0.17l0.16-0.35l0.22-0.71l0.07-0.13l0.33-0.2l0.07-0.16l0.02-0.2l0.12-0.1l0.16-0.04l0.19-0.02
		l-0.01-0.09l-0.13-0.15l0.01-0.24l0.1-0.25l0.12-0.16l0.12-0.05l0.13-0.01l0.12-0.03l0.11-0.1l0.33-0.47l0.09-0.08l0.22-0.11
		l0.09-0.07l0.13-0.31l0.06-0.06l0.2-0.06l0.19-0.14l0.53-0.51l-0.17-0.15l-0.34-0.09l-0.29-0.04l0.1-0.16l0.19-0.06l0.41-0.02
		l0.49-0.21l0.2-0.05l0.21,0.01l0.39,0.08h0.21l0.19-0.07l0.31-0.22l0.21-0.04l-0.01-0.09l-0.14-0.1l-0.21-0.25l-0.16-0.12
		l-0.36-0.15l-0.2-0.03l-2.16,0.24l-0.77,0.21l-0.64,0.32l-0.13,0.11l-0.13,0.17l-0.09,0.07l-0.11-0.02l-0.12-0.04l-0.11-0.01
		l-0.06,0.05l-0.22,0.25l-0.72,0.43l-0.28,0.23l-0.77,1.21l-0.15,0.18l-0.38,0.27L19.77,18.45z M13.49,10.64l0.31-0.17l0.01,0.09
		l-0.34,0.21l-0.08,0.09l-0.1,0.31l0.02,0.11l0.03,0.01l0.04-0.02l0.05,0.03l0.2,0.2l0.21,0.04l0.21-0.05l1.52-0.85l0.49-0.13
		l-0.01-0.08l-0.82,0.08l0.1-0.16l0.33-0.23l0.03-0.09L18,8.85l0.45-0.32l0.34-0.35l0.03-0.06l-0.02-0.1l-0.08-0.22l-0.01-0.06
		l0.19-0.28l0.63-0.44l0.23-0.24l0.11-0.15l0.04-0.07l0.02-0.07l-0.09,0.14L19.72,6.7l-0.26,0.1l0.03-0.11l0.06-0.1l0.19-0.17
		l-0.66,0.43L18.9,7.03l-0.17-0.05l-0.29,0.16l-0.12-0.05l-0.64,0.59L17.67,7.5l-0.26,0.3L17,8.13l-0.4,0.24l-0.24,0.03l-0.16,0.18
		l-0.21,0.16l-0.22,0.1l-0.19-0.01l-0.3,0.24l-1.24,0.78l-0.79,0.67l0.11,0.13L13.49,10.64z M46.66,43.3l-0.08-0.04l-0.09-0.06
		l-0.17,0.08l-0.12,0.19l-0.04,0.22l0.07,0.18l0.22,0.09l0.16-0.16l0.11-0.26l0.12-0.21h-0.1L46.66,43.3z M47.5,42.88l0.25-0.2
		l-0.15-0.11l0.01-0.16l0.06-0.17v-0.17l-0.09-0.15l-0.13-0.08l-0.16-0.07l-0.14-0.09l-0.15,0.03l-0.1,0.1l-0.11,0.26l0.41,0.62
		L47.5,42.88z M61.31,29.16l-0.28-0.06l-0.11,0.15l-0.06,0.05l0.01,0.09h0.08L61,29.4l0.04,0.02l0.06,0.02l-0.12,0.11l0.22,0.08
		l0.19,0.03l0.39-0.04l-0.08-0.14l-0.1-0.09l-0.12-0.03l-0.14,0.04l0.04-0.18L61.31,29.16z M48.15,37.83l-0.05-0.02l-0.04,0.01
		l-0.05,0.07l0.5,0.62l0.09,0.07l0.03-0.23l-0.1-0.2l-0.17-0.17L48.15,37.83z M85.89,64.87l0.09-0.43l-0.09-0.43l-0.09-0.07
		l-0.1-0.19l-0.35-0.52l-0.12-0.1l-0.09-0.12l-0.85-2.13l-0.55-2.18l-0.47-0.94l-1.12-3.51l-0.47-0.67L81.6,53.4l-0.07-0.25
		l-0.12-0.2l-0.63-0.68L80.43,52l-0.39-0.2l-1.17-0.39l-0.24,0.01l-0.2,0.06l-0.46,0.23l-0.13,0.1l-0.29,0.43l-0.16,0.14l-0.31,0.09
		l-0.12,0.06l-0.2,0.21l-0.12,0.06l-0.7,0.13l-0.09,0.05l-0.07,0.06l-0.08,0.1l-0.22,0.43l-0.03,0.1l-0.13,0.12l-0.84,0.24l0.2,0.04
		l0.2-0.03l0.18,0.01l0.14,0.15l-0.27,0.4l-0.15,0.26l-0.05,0.24l-0.02,0.29l-0.37,0.7l-0.13,0.59l-0.13,0.25l-0.2-0.01l-0.06-0.1
		l-0.07-0.14l-0.08-0.08l-0.1,0.09l-0.51,1.06l-0.29,0.4l-0.34,0.25l-0.4-0.01l-0.44-0.2l-0.52-0.07L70.87,58l-0.5-0.12l-0.24-0.11
		l-0.24-0.22l-0.22-0.31l-0.12-0.35l0.1-0.34l0.01-0.13L69.57,56v-0.2l0.09-0.16l0.09-0.13v-0.12l-0.2-0.13l0.21-1.04l0.2-0.44
		l0.37-0.23l0.12-0.01l0.22,0.04l0.13-0.01l0.09-0.05l0.16-0.14l0.1-0.05h0.1l0.2,0.04l0.12-0.01l0.04-0.08l0.03-0.33l0.02-0.13
		l0.17-0.14l0.47-0.09l0.17-0.13v-0.13l-0.04-0.16l-0.01-0.14l0.1-0.07l0.06-0.07l0.01-0.16l-0.09-0.9l0.02-0.57l0.14-0.48l0.34-0.3
		l0.09-0.03l0.3-0.03l-0.02,0.08l-0.04,0.21l-0.02,0.08l0.12-0.14l0.35-0.61l0.07-0.18l0.05-0.05l0.27-0.05l0.09-0.05l0.12-0.23
		l0.03-0.12l0.02-0.18l-0.01-0.52l-0.35-2.75v-0.26l0.12-0.49l-0.01-0.28l-0.07-0.26l-0.17-0.5l-0.13-0.6l-0.1-0.25l-0.11-0.21
		l-0.14-0.2l-0.04-0.07l-0.03-0.13l-0.04-0.06l-0.08-0.04l-0.17-0.06l-0.21-0.17l-0.29-0.13l-0.14-0.1l-0.12-0.11L72.25,41
		l-0.04-0.12l-0.04-0.22l-0.05-0.08l-0.08-0.05l-0.08-0.03l-0.04-0.03l-0.01-0.12l0.04-0.06l0.05-0.05l0.01-0.1L72,39.82l0.05-0.24
		l0.17-0.17l0.32-0.09l0.1,0.04l0.24,0.22l0.15,0.09l0.16,0.04h0.17l0.34-0.04l-0.13-0.21l-0.38-0.12l-0.12-0.28h0.03l0.06-0.01
		l0.07-0.04l0.02-0.07l-0.02-0.09l-0.03-0.05l-0.03-0.04l-0.02-0.03l-0.03-0.12l-0.12-0.32l-0.07-0.1l-0.1-0.03l-0.14-0.01
		l-0.12-0.03l-0.07-0.09l-0.32-0.35l-0.23-0.32l-0.04-0.12l-0.01-0.15l0.05-0.1l0.16-0.2l-0.43-0.35l-0.45-0.28l-0.47-0.19
		l-0.44-0.04L70,36.02h-0.14l-0.4-0.11h-0.15l-0.17-0.04l-0.29-0.29l-0.2-0.1h-0.11l-0.35,0.07l-0.13-0.01l-0.28-0.08l-0.35-0.04
		l-0.21-0.14l-0.38-0.32l-0.46-0.16l-1.46,0.17l-0.21-0.06l-0.18-0.17l-0.12-0.23l-0.07-0.22l-0.08-0.19l-0.15-0.19l-0.33-0.3
		l-0.34-0.21l-0.46-0.18l-0.49-0.1l-0.43,0.03l-0.89,0.21l-0.4-0.09l-0.81-0.51l-1.33-0.44l-0.33-0.23l-0.17-0.04l-0.18,0.09
		l-0.09,0.13l-0.05,0.15l-0.09,0.14l-0.18,0.09l-1.27,0.12l-0.37-0.07l0.01,0.09l0.15,0.09l0.37,0.29l0.04,0.06l-0.11,0.1l-0.3,0.59
		l-0.51,0.48l-0.23,0.28L55.2,35.1v0.48l0.12,0.45l0.21,0.39l0.23,0.27l0.34,0.26l0.17,0.08l0.89,0.01l0.19,0.06l-0.19,0.36
		L56.7,37.7l-0.53,0.12l-0.85,0.06l-0.41,0.14l-1.42,0.98l-0.28,0.32l-0.18,0.39l-0.01,0.49l0.41,1.57l0.02,1.17l-0.17,1.05
		l-0.31,0.97l-0.49,1.14l-0.07,0.1l-0.12,0.05l-0.11-0.04l-0.05-0.09l0.01-0.13l0.11-0.24l0.01-0.14l-0.03-0.28l0.03-0.09l0.2-0.25
		l0.09-0.25l0.04-0.27l0.01-0.29l-0.02-0.29v-0.15l0.08-0.17v-0.14l-0.06-0.16l-0.12-0.08l-0.14-0.01l-0.11,0.08l-0.04,0.13
		l-0.02,0.2l0.01,0.34l-0.02,0.16l-0.07,0.13l-0.18,0.25H52l0.2,0.06l-0.07,0.13l-0.19,0.19l-0.03,0.11v0.38l-0.02,0.2l-0.11,0.2
		l-0.01,0.21l-0.04,0.13l-0.19-0.09l-0.1-0.11l-0.22-0.34l-0.09-0.25l0.09-0.4l0.26-0.86l0.02-0.19l-0.03-0.18l-0.09-0.13
		l-0.08-0.02l-0.24,0.12l0.05-0.24l0.1-0.3l0.14-0.28l0.17-0.13l0.06-0.12l-0.1-0.23l-0.23-0.41l-0.05-0.37l0.13-0.16l0.16-0.06
		l0.07-0.12l0.05-0.21l0.09-0.24v-0.18l-0.22-0.01l-0.23,0.28l-0.14,0.04h-0.13l-0.11,0.04l-0.11,0.12l-0.37,0.97l-0.12,0.2
		l-0.37,0.43l-0.08,0.12l-0.02,0.22l-0.37,1.08l-0.1,0.16l-0.15,0.08l-0.17-0.03l-0.32-0.21l-0.15-0.03l-0.07-0.01l-0.13-0.04h-0.08
		l-0.1,0.04l-0.02,0.07l0.01,0.08l-0.02,0.09l-0.28,0.56l-0.11,0.12L47.7,44.9l-0.07-0.03l-0.07-0.03l-0.05-0.01l-0.3,0.04
		l-0.16,0.09l-0.02,0.18l0.1,0.4l0.01,1.14l0.09,0.21l-0.06,0.17l-0.1,0.09l-0.12,0.05l-0.16,0.03h-0.1l-0.17-0.06h-0.07l-0.07,0.05
		l-0.14,0.14l-0.34,0.16l-0.25,0.25l-0.11,0.33l0.16,0.36l0.2,0.28l0.12,0.3l0.04,0.31L46,50.22l-0.05,0.15l-0.03,0.16l0.05,0.41
		l-0.02,0.18l0.19,0.4l-0.06,0.56l-0.18,0.53l-0.34,0.81l-0.3,1.04l-0.24,0.5l-0.66,0.71l-0.24,0.41l0.03,0.49l0.13,0.2l0.33,0.35
		l0.15,0.25l0.12,0.11l0.08,0.12l-0.05,0.3l0.03,0.15l0.09,0.2l0.3,1.08l0.01,0.47l-0.2,0.47l-0.45,0.72l-0.13,0.43l0.03,0.51
		l0.11,0.26l0.28,0.43l0.13,0.38l1.9,3.42l0.2,0.17l0.11-0.16l0.64-0.29l-0.03,0.19l-0.13,0.19l-0.18,0.16l-0.16,0.08l-0.14,0.1
		l0.06,0.2l0.66,1.26l0.15,0.5l0.15,0.29l0.18,0.27l0.14,0.15l0.01,0.06l-0.01,0.03l-0.01,0.01h0.02l-0.03,0.01l-0.03,0.01
		l-0.01,0.02l0.01,0.05l0.17,0.31l0.43,3.26l-0.15,3.11l-0.17,1l-0.54,1.91l-0.92,1.75l-0.8,2.56l-0.43,0.89l-0.56,0.74l-0.56,0.4
		l-0.08,0.16l-0.09,0.15l-0.39,0.27l0.29-0.03l0.77-0.1l0.77-0.09l0.76-0.1l0.78-0.09l0.76-0.1l1.54-0.19l0.77-0.1l0.77-0.1
		l0.77-0.1l0.77-0.1l1.55-0.2l0.76-0.1l0.77-0.11l0.77-0.1l0.77-0.1l0.77-0.1l0.76-0.11l0.77-0.11l0.77-0.1L61.79,84l0.77-0.1
		l0.76-0.11l0.77-0.11l0.77-0.1l0.11,0.74l0.82-0.15l0.82-0.15l0.82-0.15l0.82-0.15l0.82-0.15l0.82-0.15l0.82-0.15l0.82-0.16
		l0.82-0.15l0.82-0.15l0.82-0.16l0.82-0.15l0.82-0.16l0.82-0.15l0.82-0.16l0.81-0.16l-0.03-0.1l0.02-0.18l0.07-0.12l0.12-0.04
		l0.1,0.06l0.08-0.01l-0.04-0.34l-0.01-0.26l0.05-0.23l0.31-0.7l0.14-0.19l0.2,0.01l0.04-0.37l0.12-0.28l0.21-0.14l0.28,0.07
		l0.03-0.17l-0.01-0.17l-0.07-0.16l-0.12-0.12l0.29-0.08l0.14-0.14l0.14-0.6l0.06,0.09l0.06,0.06l0.13,0.1l-0.06-0.09l-0.02-0.07
		l-0.05-0.19l-0.04-0.08l-0.11-0.12l-0.03-0.05v-0.19l0.04-0.12l0.02-0.1l-0.06-0.13l0.03-0.07l0.06-0.21l0.11-1.42l0.14-0.48
		l0.35-0.59l0.16-0.26l0.16-0.2l0.59-0.34l0.31-0.1l0.08-0.05l0.13-0.13l0.15-0.2l0.13-0.23l0.04-0.2l-0.01-0.17l0.06-0.25v-0.16
		l-0.04-0.14l-0.12-0.17l-0.05-0.13l-0.02-0.25l0.03-0.3l0.06-0.25l0.1-0.12l0.41-0.25l0.12-0.05l0.1-0.02l0.06-0.07l0.02-0.18
		l-0.26-0.11l-0.21-0.25l-0.05-0.25l0.21-0.15l0.23-0.1l0.17-0.17l0.16-0.2l0.21-0.2l0.13,0.06l0.44,0.12l0.2-0.03l0.02,0.16
		l-0.05,0.2l-0.02,0.19l0.07,0.08l0.11,0.08l0.06,0.13l-0.08,0.22l0.23,0.19l0.08,0.03l-0.25,0.19l-0.06,0.1l0.01,0.05l0.34-0.1
		l0.29-0.19l0.23-0.29l0.17-0.4l0.09-0.36l0.13-0.97l-0.02-0.55l0.02-0.25l-0.02-0.14l-0.05-0.1l-0.15-0.23l-0.01-0.21l0.08-0.39
		v-0.25l0.04-0.47L85.89,64.87z M51.56,33.06L51.6,33l0.01-0.06l-0.02-0.09h-0.06l-0.07,0.03l-0.07-0.01l-0.16-0.11l-0.2-0.11
		L51,32.65h-0.03l-0.04-0.01l-0.03-0.05l-0.01,0.26l0.15,0.18l0.21,0.1l0.21,0.01l0.05-0.03L51.56,33.06z M60.23,31.56l-0.26,0.02
		l-0.21,0.17l0.15,0.13l0.51,0.31l0.36,0.3l0.15,0.07l0.18,0.02l0.21-0.01l0.2-0.04l0.15-0.07l0.1-0.14l0.13-0.38l0.08-0.15
		l-0.31-0.05l-0.14-0.08l-0.06-0.17l-0.17-0.14l-0.04,0.07l0.01,0.17l-0.04,0.12h-0.1l-0.24-0.1L60.23,31.56z M50.62,33.96
		l-0.05,0.17l-0.07,0.15l-0.07,0.13l-0.05,0.14l-0.04,0.56l-0.11,0.27l-0.02,0.21l0.24,0.2l0.3,0.04l0.34-0.14l0.28-0.24l0.12-0.29
		l-0.02-0.19l-0.15-0.33l-0.05-0.2v-0.15v-0.14l-0.01-0.14l-0.07-0.13l-0.06-0.1V33.7l0.05-0.1l0.09-0.09l-0.16-0.04h-0.34
		l-0.17-0.05l0.03,0.24v0.17L50.62,33.96z"/>
	<path class="st1" d="M66.09,28.64l0.07,0.02h0.04l0.02-0.16l0.1,0.03l0.12,0.1l0.07,0.08l0.08,0.06l0.26,0.12l0.07,0.13l0.01,0.03
		l0.06-0.02l0.09-0.08l0.04-0.02l0.35-0.05l0.1,0.02l0.12,0.07l0.12,0.03l0.07-0.05l0.2-0.22l0.21-0.02l0.42,0.18l0.24,0.04
		l0.28-0.01l0.25-0.08l0.16-0.14l0.13-0.42l0,0l0.11-0.31v-0.15l-0.21-0.12l-0.23-0.01l-0.22-0.08l-0.15-0.32l-0.1-0.24l-0.2-0.16
		l-0.45-0.16l-0.6,0.06l-0.26,0.09l0.03,0.2l0.13,0.06l0.14,0.01l0.12,0.05l0.01,0.11l0,0l0.02,0.11l-0.04,0.13l-0.1,0.08
		l-0.21,0.12l-0.21,0.16l-0.11,0.05l-0.15,0.04l-0.06,0.06l-0.11,0.26l-0.1,0.07l-0.2-0.09l-0.22-0.15l-0.21-0.04l-0.14,0.28v0.19
		L66.09,28.64z M62.84,24.64l-0.24,0.03l-0.06,0.12l0.01,0.18l-0.02,0.23l0.21,0.21l0.2,0.27l0.22,0.14l0.25-0.18l0.01-0.27
		l-0.18-0.32l-0.23-0.27L62.84,24.64z M80.41,75.62l-0.06,0.09l-0.05,0.74l0.03,0.39l0.14,0.11l0.1-0.22l-0.02-0.38L80.41,75.62z
		 M61.73,23.03l0.11,0.12l0.05,0.17l0.18,0.47l0.08,0.15l0.18,0.12l0.2,0.08l0.13,0.13l-0.02,0.18l0,0v0.05h0.22l0.12,0.02
		l0.21,0.11l0.03-0.09l-0.01-0.11l0,0v-0.02l-0.04-0.07l-0.1-0.06l-0.5-0.62l-0.07-0.11l-0.03-0.14l-0.04-0.25l0.03-0.15l0.18-0.5
		l0.11-0.21l0.02-0.05l0.01-0.04l0.05-0.03l-0.19-0.07l-0.38,0.01l-0.18-0.11l-0.06,0.05l-0.36,0.42l-0.12,0.18l-0.09,0.26
		l0.11,0.08L61.73,23.03z M45.7,31.6l0.63,0.12l0.6,0.25l-0.08-0.29l0.05-0.2l0.17-0.13l0.99-0.26l1.22-0.14l0.15-0.1l0.11-0.21
		l0.14-0.43l0.52-0.82l0.18-0.14l0.76-0.03l0.28-0.2L51.48,29l0.11,0.05l0.13,0.1l0.12,0.06l0.1-0.05l0.18-0.17l0.21,0.05l0.39,0.25
		l0.21,0.04l0.64-0.07l0.22,0.03l0.54,0.22l0.95,0.14l0.18,0.11l0.39,0.34l0.13,0.06l0.1,0.07l0.25,0.33l0.11,0.07h0.19l0.24,0.05
		l0.2,0.12l0.11,0.21l0.21,0.21l0.45,0.17l0.44,0.01l0.23-0.26l-0.18-0.07l-0.11-0.22l-0.01-0.27l0.13-0.2l-0.12-0.07l-0.07-0.12
		l-0.01-0.15l0.06-0.18l0.12-0.12l0.1-0.03l0.06-0.06l0.01-0.68l0.18-0.19h0.27l0.32,0.14l0.18-0.14l0.2,0.04l0.18,0.17l0.09,0.23
		l0.03,0.17l0.04,0.06l0.09-0.03l0.04-0.03l0.13-0.14l0.07-0.04l0.3,0.22l0.02-0.27l0.04-0.1l0.54-0.01l0.27,0.13l0.16,0.03v-0.03
		l0.06-0.07l0.07-0.07l0.07-0.04L61.92,29l0.21,0.09l0.11,0.01l0.61-0.11l1.96,0.1l0.08,0.03l0.11,0.01l0.08-0.06l0.08-0.08
		l0.11-0.05l0.5-0.15l0.15,0.05l-0.01-0.15l0.01-0.13l0.06-0.26l-0.18-0.02l-0.14-0.08l-0.13-0.1l-0.14-0.07l-0.2-0.02h-0.16
		L64.87,28l-0.18-0.13l-0.4-0.37l-0.07-0.1l-0.02-0.19l0.05-0.15l0.08-0.14l0.07-0.17l-0.14,0.02l-0.12-0.03l-0.22-0.09h-0.07
		l-0.13,0.04h-0.07l-0.05-0.05l-0.12-0.2l-0.18-0.03h-0.29l-0.25,0.05l-0.1,0.14l-0.1,0.1l-0.24-0.19l-0.22-0.24l-0.01-0.15
		l0.21-0.1l0.26-0.31l0.22-0.05l-0.14-0.21l-0.28-0.3l-0.09-0.24l-0.12-0.48l-0.08-0.22l-0.08-0.1l-0.39-0.59l-0.16-0.32l-0.43-0.4
		l-0.18-0.12l-0.23-0.06l-0.22,0.01l-0.21,0.07l-0.15,0.15l-0.28,0.54l-0.24,0.25l-0.34,0.26l-0.37,0.14l-0.33-0.14l0.05-0.26
		l-0.27-0.3l-0.39-0.17l-0.29,0.12l-0.21,0.25l-0.3,0.19l-0.33,0.14l-0.3,0.08l-0.16-0.01l-0.43-0.19l-0.36-0.03l-0.07-0.03
		l-0.16-0.16l-0.1-0.04l-0.13,0.03l-0.28,0.19l-0.15,0.04l-0.19-0.03l-0.14-0.1l-0.11-0.15l-0.09-0.18L54.28,23l0.07-0.23l-0.19-0.4
		l-0.03-1.5l0.02-0.19l0.12-0.18l0.15-0.13l0.13-0.14l0.05-0.22l-0.21,0.06l-0.37,0.17l-0.2,0.06l-0.8,0.01l-0.71,0.16l-0.83,0.37
		l-1.61,1.05l-0.42,0.13l-3.22,0.1l-0.28,0.1l-0.08-0.08l-0.23,0.19l-1.51,0.49l-0.26-0.01l-0.28-0.12l-1.18,1.03l-1.01,0.59
		l-0.34,0.34l-0.33,0.09l-0.14,0.08l-0.38,0.39l-0.11,0.15l-0.37,0.7l-0.26,0.3l-0.3,0.12l0.01-0.06l0.01-0.14l0.01-0.06l-0.26,0.03
		L38.7,26.2l-0.19-0.09l-0.2-0.21l-0.23-0.14l-0.19,0.1l-0.24,0.34l-0.18,0.13l-0.24,0.09h-0.24l-0.12-0.18l-0.06-0.1l-0.11-0.01
		l-0.12,0.02l-0.1-0.04l-0.33-0.35l-0.06-0.12l-0.02-0.08l-0.04-0.06l-0.12-0.08l-0.13-0.04l-0.14-0.01l-0.12,0.05l-0.1,0.11
		l-0.08,0.07l-0.12,0.02l-0.25,0.01l-0.04,0.06l-0.14,0.24l-0.07,0.09l-0.22,0.04l-0.45-0.03l-0.39,0.23l-1.16-0.05l-0.25-0.09
		l-0.17-0.25L32,25.26l-0.05-0.09l-0.1-0.04l-0.52-0.16l-0.11-0.11l-0.01-0.19l-0.18-0.1l-0.21-0.16l-0.18-0.21l-0.09-0.2
		l-0.11-0.11l-0.48-0.39l-0.15-0.16l-0.21-0.53l-0.17-0.22l-0.19,0.08l-0.1,0.06l-0.08-0.11l-0.12-0.26l-0.07-0.01l-0.22,0.1
		l-0.11-0.01l-0.11-0.07l-0.12-0.22l-0.09-0.1l-0.09-0.02l-0.11,0.02h-0.09l-0.05-0.1l-0.14-0.1l-1.03-0.14l-1.53,0.04l-0.51,0.1
		L24,22.14l-0.14,0.18l-0.06,0.26l-0.18,0.29l-0.23,0.23l-0.21,0.1v-0.08l0.16-0.27l0.13-0.36l0.16-0.32l0.5-0.31l0.24-0.28
		l0.07-0.22l-0.27,0.01l-0.14,0.08l-0.4,0.33l-0.37,0.43l-0.28,0.15l-0.25,0.32l-0.14,0.08l-0.31,0.08l-0.1,0.09l0.15,0.14
		l-0.44,0.72l-0.29,0.37l-0.14-0.07L21.49,24l0.08-0.06l0.09-0.05l0.07-0.06l0.01-0.07l-0.04-0.08l-0.22-0.34l-0.05-0.13l0.03-0.13
		l0.05-0.12l0.01-0.13l-0.02-0.12l-0.07-0.11l0.1-0.24l0.08-0.29l0.04-0.31v-0.27l-0.08-0.25l-0.16-0.22l-0.2-0.18l-0.17-0.12
		l-0.07,0.01l-0.05,0.06l-0.07,0.03l-0.07-0.08l-0.01-0.06l0.04-0.14l0.04-0.34v-0.16l-0.06-0.13l-0.23-0.15l-0.5-0.01l-0.24-0.05
		l-0.22-0.17l-0.04-0.21l0.04-0.25v-0.33l-0.12-0.27l-0.21,0.01l-0.22,0.15l-1.44,1.41l-0.26,0.15l-0.06,0.05l-0.15,0.38l-0.03,0.07
		l-0.05,0.12l-0.27,0.55l-0.15,0.18l-0.09,0.04l-0.29,0.08l-0.36,0.19l-0.1,0.03l-0.47-0.06l-0.2,0.04l-0.2,0.19l-0.62,0.77
		l-0.7,0.62l-0.81,0.45l-3.68,0.77l-0.37,0.22l-1.59,1.64L6.8,26.77l-1.62,0.66l-0.47,0.33L4.59,27.8l-0.31,0.05l-0.25,0.09
		l-0.22,0.13l-0.2,0.15l-0.03,0.07l0.07,0.24l0.05,0.13l0.05,0.05l0.07,0.03l0.11,0.01L4,28.72l0.06-0.03l0.17-0.12l0.06-0.01
		l0.07,0.03l0.12,0.18l0.06,0.05l0.18,0.02l0.1,0.02l0.1,0.08l0.08,0.05l0.12,0.03h0.09l0.1,0.02l0.1,0.05l0.14,0.13l0.13,0.14
		l0.12,0.21l0.19,0.34l0.3,0.52l0.19,0.33l0.1,0.24l0.04,0.07l0.05,0.05l0.27,0.05l0.11,0.02l0.28,0.04l0.45,0.08l0.58,0.09L9,31.5
		l0.76,0.12l0.82,0.14l0.84,0.14l0.85,0.13l0.82,0.13l0.76,0.13l0.69,0.11l0.59,0.09l0.44,0.07l0.28,0.05l0.11,0.01l0.34,0.06
		l0.21,0.08l0.59,0.24l0.59,0.24l0.6,0.25l0.6,0.25l0.23,0.1h0.13l0.07-0.01l0.14-0.04l0.07-0.01l0.07,0.02l0.08,0.06l0.1,0.01
		l0.08-0.01l0.19-0.1l0.07-0.01h0.1l0.1,0.02l0.16,0.06l0.21,0.04l0.34,0.13l0.11,0.01l0.08-0.02l0.2-0.17l0.06-0.03h0.07l0.08,0.01
		h0.07l0.07-0.02l0.11-0.08l0.07-0.02l0.07-0.02h0.08l0.1,0.03l0.11,0.04l0.17,0.1l0.1,0.02l0.08-0.01l0.06-0.03l0.07-0.01
		l0.08,0.02l0.34,0.14h0.09h0.09l0.19-0.08l0.09,0.01l0.09,0.03l0.26,0.17l0.06,0.01l0.16,0.01l0.33-0.03h0.08l0.08,0.02l0.18,0.08
		l0.18,0.04h0.08l0.08-0.01l0.14-0.04l0.08-0.01l0.08,0.02l0.25,0.17l0.07,0.02l0.16,0.04l0.09,0.05l0.09,0.08l0.3,0.48l0.04,0.09
		l0.01,0.12l-0.03,0.08l-0.03,0.06l-0.19,0.28l-0.02,0.07l-0.02,0.07v0.09l0.04,0.09l0.11,0.11l0.08,0.06l0.15,0.06l0.16,0.04
		l0.16,0.02h0.08l0.16-0.03l0.19-0.09h0.05l0.05,0.01l0.03,0.02l0.13,0.13l0.05,0.04l0.06,0.04l0.06,0.02l0.17,0.03l0.42-0.01
		l0.08,0.01l0.06,0.03l0.06,0.03l0.04,0.05l0.14,0.14l0.05,0.05l0.24,0.13l0.11,0.07l0.13,0.13l0.15,0.13l0.07,0.06l0.02,0.04v0.04
		l-0.02,0.08l-0.03,0.04l-0.1,0.1l-0.01,0.07l0.01,0.1l0.09,0.13l0.19,0.23l0.04,0.07l0.03,0.09l0.02,0.18l-0.01,0.1l-0.03,0.08
		l-0.05,0.05l-0.05,0.03l-0.07,0.03l-0.04,0.06l0.01,0.12l0.12,0.25l0.12,0.38l0.01,0.09v0.04l-0.01,0.07l-0.04,0.14l-0.06,0.13
		l-0.04,0.06l-0.04,0.05l-0.29,0.25l-0.04,0.06l-0.02,0.08l0.01,0.1l0.04,0.16v0.11l-0.01,0.09l-0.08,0.27l-0.01,0.08l0.04,0.08
		l0.07,0.08l0.16,0.07l0.09,0.01l0.08-0.02l0.11-0.08l0.06-0.02l0.08-0.01l0.22,0.04h0.08l0.07-0.01l0.07-0.03l0.67-0.43l0.06-0.02
		h0.06l0.07,0.03l0.07,0.07l0.09,0.11l0.08,0.1l0.02,0.07v0.07l-0.04,0.08l-0.13,0.17l-0.06,0.12l-0.19,0.54l-0.13,0.54l-0.02,0.16
		v0.41l0.02,0.09l0.08,0.11l0.17,0.17l0.24,0.19l0.12,0.12l0.06,0.08l0.03,0.06l0.18,0.11l0.54,0.14l0.01-0.04l-0.15-0.55v-0.27
		l0.39-0.26l1.72-3.17l0.04-0.15l0.02-0.31l0.04-0.13l0.17-0.21l0.07-0.12l0.1-0.63l0.08-0.2l0.28-0.52l0.21-0.25l0.28-0.79
		l0.16-0.16l0.4-0.18l0.15-0.15l0.09-0.42l0.03-0.03l-0.01-0.57l0.08-0.52l0.1-0.26l0.15-0.13l0.06-0.16l0.11-0.66l0.09-0.19
		l0.16-0.02l0.08,0.13l0.01,0.18l-0.01,0.13l-0.06,0.19l-0.16,0.31l-0.04,0.15l0.03,0.23l0.09,0.18L37,34.89l0.08,0.14l0.04,0.21
		l-0.01,0.62l0.07,0.2l0.11,0.14l0.1,0.03l0.02-0.13l0.07-0.1l0.35-0.16l0.23-0.07l0.16-0.08l0.13-0.11l0.04-0.14l0.05-0.2l0.21-0.4
		l-0.02-0.19l0.11-0.09l0.08-0.1l0.06-0.13l0.03-0.16l-0.12-0.25l0.11-0.14l0.21-0.07l0.18-0.02l0.37,0.2l0.24,0.07l0.2-0.14
		l0.11-0.19l0.13-0.15l0.15-0.12l0.18-0.11l0.19-0.07l0.13,0.01l0.1,0.09l0.14,0.17l-0.21,0.87L41,34.47l0.04,0.02l0.02,0.06
		l-0.01,0.06l-0.03,0.03h-0.07l-0.14-0.05h-0.07l-0.22,0.03l-0.1,0.02v0.04l0.01,0.06l-0.03,0.12l-0.02,0.16l-0.01,0.06l-0.03,0.03
		l-0.05,0.01l-0.06,0.02l-0.04,0.05l-0.06,0.38l-0.05,0.12l-0.27,0.31l-0.02,0.15l0.15,0.21l0.12,0.13l0.31,0.18l0.18,0.13
		l0.11,0.06l0.11,0.02l0.09-0.07l-0.02-0.14l-0.05-0.13l-0.04-0.06l-0.02-0.06l-0.06-0.11l-0.02-0.08l0.02-0.1l0.06-0.03h0.07
		l0.04-0.03l0.14-0.47l0.12-0.2l0.29-0.14l0.04-0.1l0.01-0.13l-0.02-0.15l0.04-0.09l0.11-0.04l0.22-0.04l0.37-0.22l0.05-0.07
		l0.06-0.15l0.06-0.08l0.14-0.06l0.35-0.08l0.14-0.11l0.06-0.09l-0.08-0.08l0.17-0.74l0.24-0.59l0.39-0.41l1.59-0.44L45.7,31.6z
		 M38.66,25.42l0.05,0.09l0.07,0.08l0.08,0.12l0.06,0.16v0.09L38.93,26l0.1,0.04l0.06-0.01l0.01-0.14l0.04-0.04l0.06,0.02l0.05,0.05
		l0.04,0.06v0.03L39.49,26l0.12-0.06l0.05-0.16l-0.06-0.14l-0.13-0.01l-0.14,0.04l-0.1-0.02l-0.01-0.1l0.04-0.13l0.13-0.22
		l-0.14-0.24l-0.07-0.09l-0.11-0.06l-0.22-0.04l-0.18,0.08l-0.08,0.18l0.01,0.26L38.66,25.42z M19.77,18.45l-0.06,0.22l-0.01,0.3
		l0.05,0.57l0.14,0.15l0.85-0.03l0.1,0.07l0.19,0.2l0.07,0.04l0.41-0.13l0.11-0.14l-0.02-0.23l-0.13-0.13l-0.22,0.19l0.07-0.22
		l0.14-0.24l0.18-0.21l0.13-0.09l-0.03,0.21l0.01,0.45l-0.02,0.22l-0.07,0.24l-0.08,0.12l-0.25,0.2l-0.13,0.16l-0.05,0.14l0.05,0.14
		l0.61,0.73l0.13-0.09l0.11-0.17l0.16-0.35l0.22-0.71l0.07-0.13l0.33-0.2l0.07-0.16l0.02-0.2l0.12-0.1l0.16-0.04l0.19-0.02
		l-0.01-0.09l-0.13-0.15l0.01-0.24l0.1-0.25l0.12-0.16l0.12-0.05l0.13-0.01l0.12-0.03l0.11-0.1l0.33-0.47l0.09-0.08l0.22-0.11
		l0.09-0.07l0.13-0.31l0.06-0.06l0.2-0.06l0.19-0.14l0.53-0.51l-0.17-0.15l-0.34-0.09l-0.29-0.04l0.1-0.16l0.19-0.06l0.41-0.02
		l0.49-0.21l0.2-0.05l0.21,0.01l0.39,0.08h0.21l0.19-0.07l0.31-0.22l0.21-0.04l-0.01-0.09l-0.14-0.1l-0.21-0.25l-0.16-0.12
		l-0.36-0.15l-0.2-0.03l-2.16,0.24l-0.77,0.21l-0.64,0.32l-0.13,0.11l-0.13,0.17l-0.09,0.07l-0.11-0.02l-0.12-0.04l-0.11-0.01
		l-0.06,0.05l-0.22,0.25l-0.72,0.43l-0.28,0.23l-0.77,1.21l-0.15,0.18l-0.38,0.27L19.77,18.45z M13.49,10.64l0.31-0.17l0.01,0.09
		l-0.34,0.21l-0.08,0.09l-0.1,0.31l0.02,0.11l0.03,0.01l0.04-0.02l0.05,0.03l0.2,0.2l0.21,0.04l0.21-0.05l1.52-0.85l0.49-0.13
		l-0.01-0.08l-0.82,0.08l0.1-0.16l0.33-0.23l0.03-0.09L18,8.85l0.45-0.32l0.34-0.35l0.03-0.06l-0.02-0.1l-0.08-0.22l-0.01-0.06
		l0.19-0.28l0.63-0.44l0.23-0.24l0.11-0.15l0.04-0.07l0.02-0.07l-0.09,0.14L19.72,6.7l-0.26,0.1l0.03-0.11l0.06-0.1l0.19-0.17
		l-0.66,0.43L18.9,7.03l-0.17-0.05l-0.29,0.16l-0.12-0.05l-0.64,0.59L17.67,7.5l-0.26,0.3L17,8.13l-0.4,0.24l-0.24,0.03l-0.16,0.18
		l-0.21,0.16l-0.22,0.1l-0.19-0.01l-0.3,0.24l-1.24,0.78l-0.79,0.67l0.11,0.13L13.49,10.64z M46.66,43.3l-0.08-0.04l-0.09-0.06
		l-0.17,0.08l-0.12,0.19l-0.04,0.22l0.07,0.18l0.22,0.09l0.16-0.16l0.11-0.26l0.12-0.21h-0.1L46.66,43.3z M47.5,42.88l0.25-0.2
		l-0.15-0.11l0.01-0.16l0.06-0.17v-0.17l-0.09-0.15l-0.13-0.08l-0.16-0.07l-0.14-0.09l-0.15,0.03l-0.1,0.1l-0.11,0.26l0.41,0.62
		L47.5,42.88z M61.31,29.16l-0.28-0.06l-0.11,0.15l-0.06,0.05l0.01,0.09h0.08L61,29.4l0.04,0.02l0.06,0.02l-0.12,0.11l0.22,0.08
		l0.19,0.03l0.39-0.04l-0.08-0.14l-0.1-0.09l-0.12-0.03l-0.14,0.04l0.04-0.18L61.31,29.16z M48.15,37.83l-0.05-0.02l-0.04,0.01
		l-0.05,0.07l0.5,0.62l0.09,0.07l0.03-0.23l-0.1-0.2l-0.17-0.17L48.15,37.83z M85.89,64.87l0.09-0.43l-0.09-0.43l-0.09-0.07
		l-0.1-0.19l-0.35-0.52l-0.12-0.1l-0.09-0.12l-0.85-2.13l-0.55-2.18l-0.47-0.94l-1.12-3.51l-0.47-0.67L81.6,53.4l-0.07-0.25
		l-0.12-0.2l-0.63-0.68L80.43,52l-0.39-0.2l-1.17-0.39l-0.24,0.01l-0.2,0.06l-0.46,0.23l-0.13,0.1l-0.29,0.43l-0.16,0.14l-0.31,0.09
		l-0.12,0.06l-0.2,0.21l-0.12,0.06l-0.7,0.13l-0.09,0.05l-0.07,0.06l-0.08,0.1l-0.22,0.43l-0.03,0.1l-0.13,0.12l-0.84,0.24l0.2,0.04
		l0.2-0.03l0.18,0.01l0.14,0.15l-0.27,0.4l-0.15,0.26l-0.05,0.24l-0.02,0.29l-0.37,0.7l-0.13,0.59l-0.13,0.25l-0.2-0.01l-0.06-0.1
		l-0.07-0.14l-0.08-0.08l-0.1,0.09l-0.51,1.06l-0.29,0.4l-0.34,0.25l-0.4-0.01l-0.44-0.2l-0.52-0.07L70.87,58l-0.5-0.12l-0.24-0.11
		l-0.24-0.22l-0.22-0.31l-0.12-0.35l0.1-0.34l0.01-0.13L69.57,56v-0.2l0.09-0.16l0.09-0.13v-0.12l-0.2-0.13l0.21-1.04l0.2-0.44
		l0.37-0.23l0.12-0.01l0.22,0.04l0.13-0.01l0.09-0.05l0.16-0.14l0.1-0.05h0.1l0.2,0.04l0.12-0.01l0.04-0.08l0.03-0.33l0.02-0.13
		l0.17-0.14l0.47-0.09l0.17-0.13v-0.13l-0.04-0.16l-0.01-0.14l0.1-0.07l0.06-0.07l0.01-0.16l-0.09-0.9l0.02-0.57l0.14-0.48l0.34-0.3
		l0.09-0.03l0.3-0.03l-0.02,0.08l-0.04,0.21l-0.02,0.08l0.12-0.14l0.35-0.61l0.07-0.18l0.05-0.05l0.27-0.05l0.09-0.05l0.12-0.23
		l0.03-0.12l0.02-0.18l-0.01-0.52l-0.35-2.75v-0.26l0.12-0.49l-0.01-0.28l-0.07-0.26l-0.17-0.5l-0.13-0.6l-0.1-0.25l-0.11-0.21
		l-0.14-0.2l-0.04-0.07l-0.03-0.13l-0.04-0.06l-0.08-0.04l-0.17-0.06l-0.21-0.17l-0.29-0.13l-0.14-0.1l-0.12-0.11L72.25,41
		l-0.04-0.12l-0.04-0.22l-0.05-0.08l-0.08-0.05l-0.08-0.03l-0.04-0.03l-0.01-0.12l0.04-0.06l0.05-0.05l0.01-0.1L72,39.82l0.05-0.24
		l0.17-0.17l0.32-0.09l0.1,0.04l0.24,0.22l0.15,0.09l0.16,0.04h0.17l0.34-0.04l-0.13-0.21l-0.38-0.12l-0.12-0.28h0.03l0.06-0.01
		l0.07-0.04l0.02-0.07l-0.02-0.09l-0.03-0.05l-0.03-0.04l-0.02-0.03l-0.03-0.12l-0.12-0.32l-0.07-0.1l-0.1-0.03l-0.14-0.01
		l-0.12-0.03l-0.07-0.09l-0.32-0.35l-0.23-0.32l-0.04-0.12l-0.01-0.15l0.05-0.1l0.16-0.2l-0.43-0.35l-0.45-0.28l-0.47-0.19
		l-0.44-0.04L70,36.02h-0.14l-0.4-0.11h-0.15l-0.17-0.04l-0.29-0.29l-0.2-0.1h-0.11l-0.35,0.07l-0.13-0.01l-0.28-0.08l-0.35-0.04
		l-0.21-0.14l-0.38-0.32l-0.46-0.16l-1.46,0.17l-0.21-0.06l-0.18-0.17l-0.12-0.23l-0.07-0.22l-0.08-0.19l-0.15-0.19l-0.33-0.3
		l-0.34-0.21l-0.46-0.18l-0.49-0.1l-0.43,0.03l-0.89,0.21l-0.4-0.09l-0.81-0.51l-1.33-0.44l-0.33-0.23l-0.17-0.04l-0.18,0.09
		l-0.09,0.13l-0.05,0.15l-0.09,0.14l-0.18,0.09l-1.27,0.12l-0.37-0.07l0.01,0.09l0.15,0.09l0.37,0.29l0.04,0.06l-0.11,0.1l-0.3,0.59
		l-0.51,0.48l-0.23,0.28L55.2,35.1v0.48l0.12,0.45l0.21,0.39l0.23,0.27l0.34,0.26l0.17,0.08l0.89,0.01l0.19,0.06l-0.19,0.36
		L56.7,37.7l-0.53,0.12l-0.85,0.06l-0.41,0.14l-1.42,0.98l-0.28,0.32l-0.18,0.39l-0.01,0.49l0.41,1.57l0.02,1.17l-0.17,1.05
		l-0.31,0.97l-0.49,1.14l-0.07,0.1l-0.12,0.05l-0.11-0.04l-0.05-0.09l0.01-0.13l0.11-0.24l0.01-0.14l-0.03-0.28l0.03-0.09l0.2-0.25
		l0.09-0.25l0.04-0.27l0.01-0.29l-0.02-0.29v-0.15l0.08-0.17v-0.14l-0.06-0.16l-0.12-0.08l-0.14-0.01l-0.11,0.08l-0.04,0.13
		l-0.02,0.2l0.01,0.34l-0.02,0.16l-0.07,0.13l-0.18,0.25H52l0.2,0.06l-0.07,0.13l-0.19,0.19l-0.03,0.11v0.38l-0.02,0.2l-0.11,0.2
		l-0.01,0.21l-0.04,0.13l-0.19-0.09l-0.1-0.11l-0.22-0.34l-0.09-0.25l0.09-0.4l0.26-0.86l0.02-0.19l-0.03-0.18l-0.09-0.13
		l-0.08-0.02l-0.24,0.12l0.05-0.24l0.1-0.3l0.14-0.28l0.17-0.13l0.06-0.12l-0.1-0.23l-0.23-0.41l-0.05-0.37l0.13-0.16l0.16-0.06
		l0.07-0.12l0.05-0.21l0.09-0.24v-0.18l-0.22-0.01l-0.23,0.28l-0.14,0.04h-0.13l-0.11,0.04l-0.11,0.12l-0.37,0.97l-0.12,0.2
		l-0.37,0.43l-0.08,0.12l-0.02,0.22l-0.37,1.08l-0.1,0.16l-0.15,0.08l-0.17-0.03l-0.32-0.21l-0.15-0.03l-0.07-0.01l-0.13-0.04h-0.08
		l-0.1,0.04l-0.02,0.07l0.01,0.08l-0.02,0.09l-0.28,0.56l-0.11,0.12L47.7,44.9l-0.07-0.03l-0.07-0.03l-0.05-0.01l-0.3,0.04
		l-0.16,0.09l-0.02,0.18l0.1,0.4l0.01,1.14l0.09,0.21l-0.06,0.17l-0.1,0.09l-0.12,0.05l-0.16,0.03h-0.1l-0.17-0.06h-0.07l-0.07,0.05
		l-0.14,0.14l-0.34,0.16l-0.25,0.25l-0.11,0.33l0.16,0.36l0.2,0.28l0.12,0.3l0.04,0.31L46,50.22l-0.05,0.15l-0.03,0.16l0.05,0.41
		l-0.02,0.18l0.19,0.4l-0.06,0.56l-0.18,0.53l-0.34,0.81l-0.3,1.04l-0.24,0.5l-0.66,0.71l-0.24,0.41l0.03,0.49l0.13,0.2l0.33,0.35
		l0.15,0.25l0.12,0.11l0.08,0.12l-0.05,0.3l0.03,0.15l0.09,0.2l0.3,1.08l0.01,0.47l-0.2,0.47l-0.45,0.72l-0.13,0.43l0.03,0.51
		l0.11,0.26l0.28,0.43l0.13,0.38l1.9,3.42l0.2,0.17l0.11-0.16l0.64-0.29l-0.03,0.19l-0.13,0.19l-0.18,0.16l-0.16,0.08l-0.14,0.1
		l0.06,0.2l0.66,1.26l0.15,0.5l0.15,0.29l0.18,0.27l0.14,0.15l0.01,0.06l-0.01,0.03l-0.01,0.01h0.02l-0.03,0.01l-0.03,0.01
		l-0.01,0.02l0.01,0.05l0.17,0.31l0.43,3.26l-0.15,3.11l-0.17,1l-0.54,1.91l-0.92,1.75l-0.8,2.56l-0.43,0.89l-0.56,0.74l-0.56,0.4
		l-0.08,0.16l-0.09,0.15l-0.39,0.27l0.29-0.03l0.77-0.1l0.77-0.09l0.76-0.1l0.78-0.09l0.76-0.1l1.54-0.19l0.77-0.1l0.77-0.1
		l0.77-0.1l0.77-0.1l1.55-0.2l0.76-0.1l0.77-0.11l0.77-0.1l0.77-0.1l0.77-0.1l0.76-0.11l0.77-0.11l0.77-0.1L61.79,84l0.77-0.1
		l0.76-0.11l0.77-0.11l0.77-0.1l0.11,0.74l0.82-0.15l0.82-0.15l0.82-0.15l0.82-0.15l0.82-0.15l0.82-0.15l0.82-0.15l0.82-0.16
		l0.82-0.15l0.82-0.15l0.82-0.16l0.82-0.15l0.82-0.16l0.82-0.15l0.82-0.16l0.81-0.16l-0.03-0.1l0.02-0.18l0.07-0.12l0.12-0.04
		l0.1,0.06l0.08-0.01l-0.04-0.34l-0.01-0.26l0.05-0.23l0.31-0.7l0.14-0.19l0.2,0.01l0.04-0.37l0.12-0.28l0.21-0.14l0.28,0.07
		l0.03-0.17l-0.01-0.17l-0.07-0.16l-0.12-0.12l0.29-0.08l0.14-0.14l0.14-0.6l0.06,0.09l0.06,0.06l0.13,0.1l-0.06-0.09l-0.02-0.07
		l-0.05-0.19l-0.04-0.08l-0.11-0.12l-0.03-0.05v-0.19l0.04-0.12l0.02-0.1l-0.06-0.13l0.03-0.07l0.06-0.21l0.11-1.42l0.14-0.48
		l0.35-0.59l0.16-0.26l0.16-0.2l0.59-0.34l0.31-0.1l0.08-0.05l0.13-0.13l0.15-0.2l0.13-0.23l0.04-0.2l-0.01-0.17l0.06-0.25v-0.16
		l-0.04-0.14l-0.12-0.17l-0.05-0.13l-0.02-0.25l0.03-0.3l0.06-0.25l0.1-0.12l0.41-0.25l0.12-0.05l0.1-0.02l0.06-0.07l0.02-0.18
		l-0.26-0.11l-0.21-0.25l-0.05-0.25l0.21-0.15l0.23-0.1l0.17-0.17l0.16-0.2l0.21-0.2l0.13,0.06l0.44,0.12l0.2-0.03l0.02,0.16
		l-0.05,0.2l-0.02,0.19l0.07,0.08l0.11,0.08l0.06,0.13l-0.08,0.22l0.23,0.19l0.08,0.03l-0.25,0.19l-0.06,0.1l0.01,0.05l0.34-0.1
		l0.29-0.19l0.23-0.29l0.17-0.4l0.09-0.36l0.13-0.97l-0.02-0.55l0.02-0.25l-0.02-0.14l-0.05-0.1l-0.15-0.23l-0.01-0.21l0.08-0.39
		v-0.25l0.04-0.47L85.89,64.87z M51.56,33.06L51.6,33l0.01-0.06l-0.02-0.09h-0.06l-0.07,0.03l-0.07-0.01l-0.16-0.11l-0.2-0.11
		L51,32.65h-0.03l-0.04-0.01l-0.03-0.05l-0.01,0.26l0.15,0.18l0.21,0.1l0.21,0.01l0.05-0.03L51.56,33.06z M60.23,31.56l-0.26,0.02
		l-0.21,0.17l0.15,0.13l0.51,0.31l0.36,0.3l0.15,0.07l0.18,0.02l0.21-0.01l0.2-0.04l0.15-0.07l0.1-0.14l0.13-0.38l0.08-0.15
		l-0.31-0.05l-0.14-0.08l-0.06-0.17l-0.17-0.14l-0.04,0.07l0.01,0.17l-0.04,0.12h-0.1l-0.24-0.1L60.23,31.56z M50.62,33.96
		l-0.05,0.17l-0.07,0.15l-0.07,0.13l-0.05,0.14l-0.04,0.56l-0.11,0.27l-0.02,0.21l0.24,0.2l0.3,0.04l0.34-0.14l0.28-0.24l0.12-0.29
		l-0.02-0.19l-0.15-0.33l-0.05-0.2v-0.15v-0.14l-0.01-0.14l-0.07-0.13l-0.06-0.1V33.7l0.05-0.1l0.09-0.09l-0.16-0.04h-0.34
		l-0.17-0.05l0.03,0.24v0.17L50.62,33.96z"/>
</g>
<g id="MINNESOTA">
</g>
<g id="MISSOURI">
</g>
<g id="MISSISSIPPI">
</g>
<g id="MONTANA">
</g>
<g id="NORTH_CAROLINA">
</g>
<g id="NORTH_DAKOTA">
</g>
<g id="NEBRASKA">
</g>
<g id="NEW_HAMPSHIRE">
</g>
<g id="NEW_JERSEY">
</g>
<g id="NEW_YORK">
</g>
<g id="NEW_MEXICO">
</g>
<g id="NEVADA">
</g>
<g id="OHIO">
</g>
<g id="OKLAHOMA">
</g>
<g id="OREGON">
</g>
<g id="PENNSYLVANIA">
</g>
<g id="RHODE_ISLAND">
</g>
<g id="SOUTH_CAROLINA">
</g>
<g id="SOUTH_DAKOTA">
</g>
<g id="TENNESSEE">
</g>
<g id="TEXAS">
</g>
<g id="UTAH">
</g>
<g id="VIRGINIA">
</g>
<g id="VERMONT">
</g>
<g id="WASHINGTON">
</g>
<g id="WISCONSIN">
</g>
<g id="WEST_VIRGINIA">
</g>
<g id="WYOMING">
</g>
</svg>
