<?xml version="1.0" encoding="UTF-8"?>
<svg id="MICHIGAN" xmlns="http://www.w3.org/2000/svg" viewBox="0 0 90 90">
  <defs>
    <style>
      .cls-1 {
        fill: #e2e2e2;
        stroke: #f9f9f9;
        stroke-linecap: round;
        stroke-linejoin: round;
        stroke-width: .03px;
      }
    </style>
  </defs>
  <path class="cls-1" d="M66.09,28.64l.07,.02h.04l.02-.16,.1,.03,.12,.1,.07,.08,.08,.06,.26,.12,.07,.13v.03s.07-.02,.07-.02l.09-.08,.04-.02,.35-.05,.1,.02,.12,.07,.12,.03,.07-.05,.2-.22,.21-.02,.42,.18,.24,.04h.28s.25-.09,.25-.09l.16-.14,.13-.42h0l.11-.31v-.15l-.21-.12h-.23s-.22-.09-.22-.09l-.15-.32-.1-.24-.2-.16-.45-.16-.6,.06-.26,.09,.03,.2,.13,.06h.14s.12,.06,.12,.06v.11h0l.02,.11-.04,.13-.1,.08-.21,.12-.21,.16-.11,.05-.15,.04-.06,.06-.11,.26-.1,.07-.2-.09-.22-.15-.21-.04-.14,.28v.19l.07,.08Zm-3.25-4l-.24,.03-.06,.12v.18s0,.23,0,.23l.21,.21,.2,.27,.22,.14,.25-.18v-.27s-.17-.32-.17-.32l-.23-.27-.18-.13Zm17.57,50.98l-.06,.09-.05,.74,.03,.39,.14,.11,.1-.22-.02-.38-.14-.73ZM61.73,23.03l.11,.12,.05,.17,.18,.47,.08,.15,.18,.12,.2,.08,.13,.13-.02,.18h0v.05h.22l.12,.02,.21,.11,.03-.09v-.11h0v-.02l-.04-.07-.1-.06-.5-.62-.07-.11-.03-.14-.04-.25,.03-.15,.18-.5,.11-.21,.02-.05v-.04s.06-.03,.06-.03l-.19-.07h-.38s-.18-.1-.18-.1l-.06,.05-.36,.42-.12,.18-.09,.26,.11,.08,.18,.03Zm-16.04,8.57l.63,.12,.6,.25-.08-.29,.05-.2,.17-.13,.99-.26,1.22-.14,.15-.1,.11-.21,.14-.43,.52-.82,.18-.14,.76-.03,.28-.2,.09-.03,.11,.05,.13,.1,.12,.06,.1-.05,.18-.17,.21,.05,.39,.25,.2,.04,.64-.07,.22,.03,.54,.22,.95,.14,.18,.11,.39,.34,.13,.06,.1,.07,.25,.33,.11,.07h.19l.24,.05,.2,.12,.11,.21,.21,.21,.45,.17h.44s.23-.25,.23-.25l-.18-.07-.11-.22v-.27s.12-.2,.12-.2l-.12-.07-.07-.12v-.15s.05-.18,.05-.18l.12-.12,.1-.03,.06-.06v-.68s.19-.19,.19-.19h.27l.32,.14,.18-.14,.2,.04,.18,.17,.09,.23,.03,.17,.04,.06,.09-.03,.04-.03,.13-.14,.07-.04,.3,.22,.02-.27,.04-.1h.54s.27,.12,.27,.12l.16,.03v-.03l.06-.07,.07-.07,.07-.04h.14s.21,.1,.21,.1h.11s.61-.1,.61-.1l1.96,.1,.08,.03h.11s.08-.05,.08-.05l.08-.08,.11-.05,.5-.15,.15,.05v-.15s0-.13,0-.13l.06-.26-.18-.02-.14-.08-.13-.1-.14-.07-.2-.02h-.16l-.15-.02-.18-.13-.4-.37-.07-.1-.02-.19,.05-.15,.08-.14,.07-.17-.14,.02-.12-.03-.22-.09h-.07l-.13,.04h-.07l-.05-.05-.12-.2-.18-.03h-.29l-.25,.05-.1,.14-.1,.1-.24-.19-.22-.24v-.15s.2-.1,.2-.1l.26-.31,.22-.05-.14-.21-.28-.3-.09-.24-.12-.48-.08-.22-.08-.1-.39-.59-.16-.32-.43-.4-.18-.12-.23-.06h-.22s-.21,.08-.21,.08l-.15,.15-.28,.54-.24,.25-.34,.26-.37,.14-.33-.14,.05-.26-.27-.3-.39-.17-.29,.12-.21,.25-.3,.19-.33,.14-.3,.08h-.16s-.43-.2-.43-.2l-.36-.03-.07-.03-.16-.16-.1-.04-.13,.03-.28,.19-.15,.04-.19-.03-.14-.1-.11-.15-.09-.18,.21-.32,.07-.23-.19-.4-.03-1.5,.02-.19,.12-.18,.15-.13,.13-.14,.05-.22-.21,.06-.37,.17-.2,.06h-.8s-.71,.17-.71,.17l-.83,.37-1.61,1.05-.42,.13-3.22,.1-.28,.1-.08-.08-.23,.19-1.51,.49h-.26s-.28-.13-.28-.13l-1.18,1.03-1.01,.59-.34,.34-.33,.09-.14,.08-.38,.39-.11,.15-.37,.7-.26,.3-.3,.12v-.06s.02-.14,.02-.14v-.06s-.25,.03-.25,.03l-.2-.02-.19-.09-.2-.21-.23-.14-.19,.1-.24,.34-.18,.13-.24,.09h-.24l-.12-.18-.06-.1h-.11s-.12,0-.12,0l-.1-.04-.33-.35-.06-.12-.02-.08-.04-.06-.12-.08-.13-.04h-.14s-.12,.04-.12,.04l-.1,.11-.08,.07-.12,.02h-.25s-.04,.07-.04,.07l-.14,.24-.07,.09-.22,.04-.45-.03-.39,.23-1.16-.05-.25-.09-.17-.25-.12-.63-.05-.09-.1-.04-.52-.16-.11-.11v-.19s-.19-.1-.19-.1l-.21-.16-.18-.21-.09-.21-.11-.11-.48-.39-.15-.16-.21-.53-.17-.22-.19,.08-.1,.06-.08-.11-.12-.26h-.07s-.22,.09-.22,.09h-.11s-.11-.08-.11-.08l-.12-.22-.09-.1-.09-.02-.11,.02h-.09l-.05-.1-.14-.1-1.03-.14-1.53,.04-.51,.1-.72,.28-.14,.18-.06,.26-.18,.29-.23,.23-.21,.1v-.08l.16-.27,.13-.36,.16-.32,.5-.31,.24-.28,.07-.22h-.27s-.14,.09-.14,.09l-.4,.33-.37,.43-.28,.15-.25,.32-.14,.08-.31,.08-.1,.09,.15,.14-.44,.72-.29,.37-.14-.07,.03-.08,.08-.06,.09-.05,.07-.06v-.07s-.03-.08-.03-.08l-.22-.34-.05-.13,.03-.13,.05-.12v-.13s0-.12,0-.12l-.07-.11,.1-.24,.08-.29,.04-.31v-.27l-.08-.25-.16-.22-.2-.18-.17-.12h-.07s-.05,.07-.05,.07l-.07,.03-.07-.08v-.06s.03-.14,.03-.14l.04-.34v-.16l-.06-.13-.23-.15h-.5s-.24-.06-.24-.06l-.22-.17-.04-.21,.04-.25v-.33l-.12-.27h-.21s-.22,.16-.22,.16l-1.44,1.41-.26,.15-.06,.05-.15,.38-.03,.07-.05,.12-.27,.55-.15,.18-.09,.04-.29,.08-.36,.19-.1,.03-.47-.06-.2,.04-.2,.19-.62,.77-.7,.62-.81,.45-3.68,.77-.37,.22-1.59,1.64-.37,.24-1.62,.66-.47,.33-.12,.04-.31,.05-.25,.09-.22,.13-.2,.15-.03,.07,.07,.24,.05,.13,.05,.05,.07,.03h.11s.08,0,.08,0l.06-.03,.17-.12h.06s.07,.02,.07,.02l.12,.18,.06,.05,.18,.02,.1,.02,.1,.08,.08,.05,.12,.03h.09l.1,.02,.1,.05,.14,.13,.13,.14,.12,.21,.19,.34,.3,.52,.19,.33,.1,.24,.04,.07,.05,.05,.27,.05,.11,.02,.28,.04,.45,.08,.58,.09,.69,.12,.76,.12,.82,.14,.84,.14,.85,.13,.82,.13,.76,.13,.69,.11,.59,.09,.44,.07,.28,.05h.11s.34,.07,.34,.07l.21,.08,.59,.24,.59,.24,.6,.25,.6,.25,.23,.1h.2s.14-.05,.14-.05h.07s.07,0,.07,0l.08,.06h.1s.08,0,.08,0l.19-.1h.07s.1,0,.1,0l.1,.02,.16,.06,.21,.04,.34,.13h.11s.08,0,.08,0l.2-.17,.06-.03h.15s.07,0,.07,0l.07-.02,.11-.08,.07-.02,.07-.02h.08l.1,.03,.11,.04,.17,.1,.1,.02h.08s.06-.04,.06-.04h.07s.08,0,.08,0l.34,.14h.18l.19-.08h.09s.09,.04,.09,.04l.26,.17h.06s.16,.02,.16,.02l.33-.03h.08l.08,.02,.18,.08,.18,.04h.16s.14-.05,.14-.05h.08s.08,0,.08,0l.25,.17,.07,.02,.16,.04,.09,.05,.09,.08,.3,.48,.04,.09v.12s-.02,.08-.02,.08l-.03,.06-.19,.28-.02,.07-.02,.07v.09l.04,.09,.11,.11,.08,.06,.15,.06,.16,.04,.16,.02h.08l.16-.03,.19-.09h.1s.03,.03,.03,.03l.13,.13,.05,.04,.06,.04,.06,.02,.17,.03h.42s.08,0,.08,0l.06,.03,.06,.03,.04,.05,.14,.14,.05,.05,.24,.13,.11,.07,.13,.13,.15,.13,.07,.06,.02,.04v.04l-.02,.08-.03,.04-.1,.1v.07s0,.1,0,.1l.09,.13,.19,.23,.04,.07,.03,.09,.02,.18v.1s-.04,.08-.04,.08l-.05,.05-.05,.03-.07,.03-.04,.06v.12s.13,.25,.13,.25l.12,.38v.09s0,.04,0,.04v.07s-.05,.14-.05,.14l-.06,.13-.04,.06-.04,.05-.29,.25-.04,.06-.02,.08v.1s.05,.16,.05,.16v.2s-.09,.27-.09,.27v.08s.03,.08,.03,.08l.07,.08,.16,.07h.09s.08,0,.08,0l.11-.08,.06-.02h.08s.22,.03,.22,.03h.15s.07-.04,.07-.04l.67-.43,.06-.02h.06l.07,.03,.07,.07,.09,.11,.08,.1,.02,.07v.07l-.04,.08-.13,.17-.06,.12-.19,.54-.13,.54-.02,.16v.41l.02,.09,.08,.11,.17,.17,.24,.19,.12,.12,.06,.08,.03,.06,.18,.11,.54,.14v-.04s-.14-.55-.14-.55v-.27l.39-.26,1.72-3.17,.04-.15,.02-.31,.04-.13,.17-.21,.07-.12,.1-.63,.08-.2,.28-.52,.21-.25,.28-.79,.16-.16,.4-.18,.15-.15,.09-.42,.03-.03v-.57s.07-.52,.07-.52l.1-.26,.15-.13,.06-.16,.11-.66,.09-.19,.16-.02,.08,.13v.18s0,.13,0,.13l-.06,.19-.16,.31-.04,.15,.03,.23,.09,.18,.09,.14,.08,.14,.04,.21v.62s.06,.2,.06,.2l.11,.14,.1,.03,.02-.13,.07-.1,.35-.16,.23-.07,.16-.08,.13-.11,.04-.14,.05-.2,.21-.4-.02-.19,.11-.09,.08-.1,.06-.13,.03-.16-.12-.25,.11-.14,.21-.07,.18-.02,.37,.2,.24,.07,.2-.14,.11-.19,.13-.15,.15-.12,.18-.11,.19-.07h.13s.1,.1,.1,.1l.14,.17-.21,.87,.04,.13,.04,.02,.02,.06v.06s-.04,.03-.04,.03h-.07l-.14-.05h-.07l-.22,.03-.1,.02v.1s-.02,.12-.02,.12l-.02,.16v.06s-.04,.03-.04,.03h-.05s-.06,.03-.06,.03l-.04,.05-.06,.38-.05,.12-.27,.31-.02,.15,.15,.21,.12,.13,.31,.18,.18,.13,.11,.06,.11,.02,.09-.07-.02-.14-.05-.13-.04-.06-.02-.06-.06-.11-.02-.08,.02-.1,.06-.03h.07l.04-.03,.14-.47,.12-.2,.29-.14,.04-.1v-.13s0-.15,0-.15l.04-.09,.11-.04,.22-.04,.37-.22,.05-.07,.06-.15,.06-.08,.14-.06,.35-.08,.14-.11,.06-.09-.08-.08,.17-.74,.24-.59,.39-.41,1.59-.44h.37Zm-7.04-6.19l.05,.09,.07,.08,.08,.12,.06,.16v.09l.02,.05,.1,.04h.06s0-.15,0-.15l.04-.04,.06,.02,.05,.05,.04,.06v.03h.21s.12-.07,.12-.07l.05-.16-.06-.14h-.13s-.14,.03-.14,.03l-.1-.02v-.1s.03-.13,.03-.13l.13-.22-.14-.24-.07-.09-.11-.06-.22-.04-.18,.08-.08,.18v.26s.06,.13,.06,.13Zm-18.89-6.98l-.06,.22v.3s.04,.57,.04,.57l.14,.15,.85-.03,.1,.07,.19,.2,.07,.04,.41-.13,.11-.14-.02-.23-.13-.13-.22,.19,.07-.22,.14-.24,.18-.21,.13-.09-.03,.21v.45s0,.22,0,.22l-.07,.24-.08,.12-.25,.2-.13,.16-.05,.14,.05,.14,.61,.73,.13-.09,.11-.17,.16-.35,.22-.71,.07-.13,.33-.2,.07-.16,.02-.2,.12-.1,.16-.04,.19-.02v-.09s-.14-.15-.14-.15v-.24s.11-.25,.11-.25l.12-.16,.12-.05h.13s.12-.04,.12-.04l.11-.1,.33-.47,.09-.08,.22-.11,.09-.07,.13-.31,.06-.06,.2-.06,.19-.14,.53-.51-.17-.15-.34-.09-.29-.04,.1-.16,.19-.06,.41-.02,.49-.21,.2-.05h.21s.39,.09,.39,.09h.21l.19-.07,.31-.22,.21-.04v-.09s-.15-.1-.15-.1l-.21-.25-.16-.12-.36-.15-.2-.03-2.16,.24-.77,.21-.64,.32-.13,.11-.13,.17-.09,.07-.11-.02-.12-.04h-.11s-.06,.04-.06,.04l-.22,.25-.72,.43-.28,.23-.77,1.21-.15,.18-.38,.27-.15,.19Zm-6.27-7.81l.31-.17v.09s-.33,.21-.33,.21l-.08,.09-.1,.31,.02,.11h.03s.04,0,.04,0l.05,.03,.2,.2,.21,.04,.21-.05,1.52-.85,.49-.13v-.08s-.83,.08-.83,.08l.1-.16,.33-.23,.03-.09,2.32-1.17,.45-.32,.34-.35,.03-.06-.02-.1-.08-.22v-.06s.18-.28,.18-.28l.63-.44,.23-.24,.11-.15,.04-.07,.02-.07-.09,.14-.13,.08-.26,.1,.03-.11,.06-.1,.19-.17-.66,.43-.18,.18-.17-.05-.29,.16-.12-.05-.64,.59-.02-.18-.26,.3-.41,.33-.4,.24-.24,.03-.16,.18-.21,.16-.22,.1h-.19s-.3,.23-.3,.23l-1.24,.78-.79,.67,.11,.13,.16-.02ZM46.66,43.3l-.08-.04-.09-.06-.17,.08-.12,.19-.04,.22,.07,.18,.22,.09,.16-.16,.11-.26,.12-.21h-.1l-.09-.02Zm.84-.41l.25-.2-.15-.11v-.16s.07-.17,.07-.17v-.17l-.09-.15-.13-.08-.16-.07-.14-.09-.15,.03-.1,.1-.11,.26,.41,.62,.27,.18Zm13.81-13.73l-.28-.06-.11,.15-.06,.05v.09h.09l.04,.02,.04,.02,.06,.02-.12,.11,.22,.08,.19,.03,.39-.04-.08-.14-.1-.09-.12-.03-.14,.04,.04-.18-.08-.07Zm-13.17,8.67l-.05-.02h-.04s-.05,.08-.05,.08l.5,.62,.09,.07,.03-.23-.1-.2-.17-.17-.21-.15Zm37.74,27.04l.09-.43-.09-.43-.09-.07-.1-.19-.35-.52-.12-.1-.09-.12-.85-2.13-.55-2.18-.47-.94-1.12-3.51-.47-.67-.08-.18-.07-.25-.12-.2-.63-.68-.36-.26-.39-.2-1.17-.39h-.24s-.2,.07-.2,.07l-.46,.23-.13,.1-.29,.43-.16,.14-.31,.09-.12,.06-.2,.2-.12,.06-.7,.13-.09,.05-.07,.06-.08,.1-.22,.43-.03,.1-.13,.12-.84,.24,.2,.04,.2-.03h.18s.14,.16,.14,.16l-.27,.4-.15,.26-.05,.24-.02,.29-.37,.7-.13,.59-.13,.25h-.2s-.06-.11-.06-.11l-.07-.14-.08-.08-.1,.09-.51,1.06-.29,.4-.34,.25h-.4s-.44-.21-.44-.21l-.52-.07-.23-.12-.5-.12-.24-.11-.24-.22-.22-.31-.12-.35,.1-.34v-.13s-.08-.42-.08-.42v-.2l.09-.16,.09-.13v-.12l-.2-.13,.2-1.04,.2-.44,.37-.23h.12s.22,.03,.22,.03h.13s.09-.06,.09-.06l.16-.14,.1-.05h.1l.2,.04h.12s.04-.09,.04-.09l.03-.33,.02-.13,.17-.14,.47-.09,.17-.13v-.13l-.04-.16v-.14s.09-.07,.09-.07l.06-.07v-.16s-.08-.9-.08-.9l.02-.57,.14-.48,.34-.3,.09-.03,.3-.03-.02,.08-.04,.21-.02,.08,.12-.14,.35-.61,.07-.18,.05-.05,.27-.05,.09-.05,.12-.23,.03-.12,.02-.18v-.52s-.36-2.75-.36-2.75v-.26l.12-.49v-.28s-.08-.26-.08-.26l-.17-.5-.13-.6-.1-.25-.11-.21-.14-.2-.04-.07-.03-.13-.04-.06-.08-.04-.17-.06-.21-.17-.29-.13-.14-.1-.12-.11-.08-.08-.04-.12-.04-.22-.05-.08-.08-.05-.08-.03-.04-.03v-.12s.03-.06,.03-.06l.05-.05v-.1s0-.32,0-.32l.05-.24,.17-.17,.32-.09,.1,.04,.24,.22,.15,.09,.16,.04h.17l.34-.04-.13-.21-.38-.12-.12-.28h.09s.07-.05,.07-.05l.02-.07-.02-.09-.03-.05-.03-.04-.02-.03-.03-.12-.12-.32-.07-.1-.1-.03h-.14s-.12-.04-.12-.04l-.07-.09-.32-.35-.23-.32-.04-.12v-.15s.04-.1,.04-.1l.16-.2-.43-.35-.45-.28-.47-.19-.44-.04-.32,.07h-.14l-.4-.11h-.15l-.17-.04-.29-.29-.2-.1h-.11l-.35,.07h-.13s-.28-.09-.28-.09l-.35-.04-.21-.14-.38-.32-.46-.16-1.46,.17-.21-.06-.18-.17-.12-.23-.07-.22-.08-.19-.15-.19-.33-.3-.34-.21-.46-.18-.49-.1-.43,.03-.89,.21-.4-.09-.81-.51-1.33-.44-.33-.23-.17-.04-.18,.09-.09,.13-.05,.15-.09,.14-.18,.09-1.27,.12-.37-.07v.09s.16,.09,.16,.09l.37,.29,.04,.06-.11,.1-.3,.59-.51,.48-.23,.28-.15,.41v.48l.12,.45,.21,.39,.23,.27,.34,.26,.17,.08h.89s.19,.07,.19,.07l-.19,.36-.45,.23-.53,.12-.85,.06-.41,.14-1.42,.98-.28,.32-.18,.39v.49s.4,1.57,.4,1.57l.02,1.17-.17,1.05-.31,.97-.49,1.14-.07,.1-.12,.05-.11-.04-.05-.09v-.13s.12-.24,.12-.24v-.14s-.02-.28-.02-.28l.03-.09,.2-.25,.09-.25,.04-.27v-.29s0-.29,0-.29v-.15l.08-.17v-.14l-.06-.16-.12-.08h-.14s-.11,.07-.11,.07l-.04,.13-.02,.2v.34s0,.16,0,.16l-.07,.13-.18,.25h.08l.2,.06-.07,.13-.19,.19-.03,.11v.38l-.02,.2-.11,.2v.21s-.05,.13-.05,.13l-.19-.09-.1-.11-.22-.34-.09-.25,.09-.4,.26-.86,.02-.19-.03-.18-.09-.13-.08-.02-.24,.12,.05-.24,.1-.3,.14-.28,.17-.13,.06-.12-.1-.23-.23-.41-.05-.37,.13-.16,.16-.06,.07-.12,.05-.21,.09-.24v-.18h-.22s-.23,.27-.23,.27l-.14,.04h-.13l-.11,.04-.11,.12-.37,.97-.12,.2-.37,.43-.08,.12-.02,.22-.37,1.08-.1,.16-.15,.08-.17-.03-.32-.21-.15-.03h-.07s-.13-.05-.13-.05h-.08l-.1,.04-.02,.07v.08s0,.09,0,.09l-.28,.56-.11,.12h-.08s-.07-.02-.07-.02l-.07-.03h-.05s-.3,.03-.3,.03l-.16,.09-.02,.18,.1,.4v1.14s.1,.21,.1,.21l-.06,.17-.1,.09-.12,.05-.16,.03h-.1l-.17-.06h-.07l-.07,.05-.14,.14-.34,.16-.25,.25-.11,.33,.16,.36,.2,.28,.12,.3,.04,.31-.07,.87-.05,.15-.03,.16,.05,.41-.02,.18,.19,.4-.06,.56-.18,.53-.34,.81-.3,1.04-.24,.5-.66,.71-.24,.41,.03,.49,.13,.2,.33,.35,.15,.25,.12,.11,.08,.12-.05,.3,.03,.15,.09,.2,.3,1.08v.47s-.19,.47-.19,.47l-.45,.72-.13,.43,.03,.51,.11,.26,.28,.43,.13,.38,1.9,3.42,.2,.17,.11-.16,.64-.29-.03,.19-.13,.19-.18,.16-.16,.08-.14,.1,.06,.2,.66,1.26,.15,.5,.15,.29,.18,.27,.14,.15v.06s0,.03,0,.03h0s.02,0,.02,0h-.03s-.03,.02-.03,.02v.02s0,.05,0,.05l.17,.31,.43,3.26-.15,3.11-.17,1-.54,1.91-.92,1.75-.8,2.56-.43,.89-.56,.74-.56,.4-.08,.16-.09,.15-.39,.27,.29-.03,.77-.1,.77-.09,.76-.1,.78-.09,.76-.1,1.54-.19,.77-.1,.77-.1,.77-.1,.77-.1,1.55-.2,.76-.1,.77-.11,.77-.1,.77-.1,.77-.1,.76-.11,.77-.11,.77-.1,.77-.11,.77-.1,.76-.11,.77-.11,.77-.1,.11,.74,.82-.15,.82-.15,.82-.15,.82-.15,.82-.15,.82-.15,.82-.15,.82-.16,.82-.15,.82-.15,.82-.16,.82-.15,.82-.16,.82-.15,.82-.16,.81-.16-.03-.1,.02-.18,.07-.12,.12-.04,.1,.06h.08s-.04-.35-.04-.35v-.26s.04-.23,.04-.23l.31-.7,.14-.19h.2s.04-.36,.04-.36l.12-.28,.21-.14,.28,.07,.03-.17v-.17s-.08-.16-.08-.16l-.12-.12,.29-.08,.14-.14,.14-.6,.06,.09,.06,.06,.13,.1-.06-.09-.02-.07-.05-.19-.04-.08-.11-.12-.03-.05v-.19l.04-.12,.02-.1-.06-.13,.03-.07,.06-.21,.11-1.42,.14-.48,.35-.59,.16-.26,.16-.2,.59-.34,.31-.1,.08-.05,.13-.13,.15-.2,.13-.23,.04-.2v-.17s.05-.25,.05-.25v-.16l-.04-.14-.12-.17-.05-.13-.02-.25,.03-.3,.06-.25,.1-.12,.41-.25,.12-.05,.1-.02,.06-.07,.02-.18-.26-.11-.21-.25-.05-.25,.21-.15,.23-.1,.17-.17,.16-.2,.21-.2,.13,.06,.44,.12,.2-.03,.02,.16-.05,.2-.02,.19,.07,.08,.11,.08,.06,.13-.08,.22,.23,.19,.08,.03-.25,.19-.06,.1v.05s.35-.1,.35-.1l.29-.19,.23-.29,.17-.4,.09-.36,.13-.97-.02-.55,.02-.25-.02-.14-.05-.1-.15-.23v-.21s.07-.39,.07-.39v-.25l.04-.47,.16-.45Zm-34.33-31.8l.04-.06v-.06s0-.09,0-.09h-.06l-.07,.03h-.07s-.16-.12-.16-.12l-.2-.11h-.04s-.03,0-.03,0h-.04s-.03-.06-.03-.06v.26s.14,.18,.14,.18l.21,.1h.21s.05-.02,.05-.02l.05-.05Zm8.67-1.51l-.26,.02-.21,.17,.15,.13,.51,.31,.36,.3,.15,.07,.18,.02h.21s.2-.05,.2-.05l.15-.07,.1-.14,.13-.38,.08-.15-.31-.05-.14-.08-.06-.17-.17-.14-.04,.07v.17s-.03,.12-.03,.12h-.1l-.24-.1-.64-.06Zm-9.61,2.41l-.05,.17-.07,.15-.07,.13-.05,.14-.04,.56-.11,.27-.02,.21,.24,.2,.3,.04,.34-.14,.28-.24,.12-.29-.02-.19-.15-.33-.05-.2v-.42s-.08-.13-.08-.13l-.06-.1v-.09l.05-.1,.09-.09-.16-.04h-.34l-.17-.05,.03,.24v.17l-.02,.14Z"/>
  <g>
    <path d="M64.34,61.75v5.05h-1.23v-3.16l-1.09,3.16h-1.07l-1.1-3.17v3.17h-1.23v-5.05h1.5l1.38,3.52,1.35-3.52h1.5Z"/>
    <path d="M66.42,61.72v5.09h-1.23v-5.09h1.23Z"/>
  </g>
</svg>