<?xml version="1.0" encoding="utf-8"?>
<!-- Generator: Adobe Illustrator 26.5.0, SVG Export Plug-In . SVG Version: 6.00 Build 0)  -->
<svg version="1.1" xmlns="http://www.w3.org/2000/svg" xmlns:xlink="http://www.w3.org/1999/xlink" x="0px" y="0px"
	 viewBox="0 0 90 90" style="enable-background:new 0 0 90 90;" xml:space="preserve">
<style type="text/css">
	.st0{fill:#CECECE;stroke:#F9F9F9;stroke-width:0.025;stroke-linecap:round;stroke-linejoin:round;}
	.st1{display:none;fill:none;stroke:#47CCCC;stroke-width:0.5;stroke-linecap:round;stroke-linejoin:round;}
	.st2{fill:#CECECE;}
</style>
<g id="ALABAMA">
</g>
<g id="ALASKA">
</g>
<g id="ARIZONA">
</g>
<g id="ARKANSAS_1_">
</g>
<g id="CALIFORNIA">
</g>
<g id="COLORADO">
</g>
<g id="CONNECTICUT">
</g>
<g id="DELAWARE">
</g>
<g id="DC">
</g>
<g id="FLORIDA">
</g>
<g id="GEORGIA">
</g>
<g id="HAWAII">
</g>
<g id="IDAHO">
</g>
<g id="IOWA">
</g>
<g id="ILLINOIS">
</g>
<g id="INDIANA">
</g>
<g id="KANSAS">
</g>
<g id="KETUCKY">
</g>
<g id="LOUISANA">
</g>
<g id="MAINE">
</g>
<g id="MARYLAND">
</g>
<g id="MASSACHUSETTS">
</g>
<g id="MICHIGAN">
</g>
<g id="MINNESOTA">
	<polygon class="st0" points="82.33,22.87 81.74,22.78 81.53,22.79 81.22,22.89 81.11,22.87 80.89,22.79 80.74,22.76 80.57,22.78 
		80.37,22.84 79.48,23.27 79.31,23.27 78.73,23.03 78.59,22.94 78.45,22.81 77.89,22.1 77.76,21.98 77.31,21.84 76.78,21.87 
		74.11,22.44 74.04,22.43 73.98,22.39 73.91,22.38 73.81,22.41 73.55,22.56 73.45,22.57 73.25,22.52 73.14,22.42 73.01,22.35 
		72.78,22.38 71.97,22.69 71.51,22.73 71.17,22.56 71.05,22.36 70.96,21.99 70.86,21.82 70.75,21.74 70.65,21.7 70.56,21.64 
		70.49,21.49 70.49,21.38 70.57,21.22 70.54,21.11 70.22,20.95 69.77,21.08 69.02,21.56 68.84,21.68 68.46,21.89 67.3,22.78 
		67,23.12 66.66,23.37 65.85,23.52 65.28,23.84 65.12,23.8 64.93,23.7 64.72,23.66 63.91,23.79 63.79,23.75 63.8,23.64 63.84,23.51 
		63.82,23.39 63.73,23.3 63.67,23.28 63.47,23.31 62.78,23.25 62.54,23.09 62.71,22.76 62.38,22.4 62.22,22.27 62.01,22.18 
		61.2,22.14 60.2,21.81 60.03,21.71 59.86,21.59 59.7,21.41 59.56,21.11 59.45,20.79 59.31,20.54 59.05,20.4 58.27,20.42 
		57.31,20.62 57.11,20.74 56.93,21 56.96,21.25 57.06,21.51 57.09,21.76 56.98,21.9 56.77,22.04 56.53,22.13 56.37,22.15 
		56.24,22.04 55.89,21.44 55.56,21.08 55.44,20.87 55.38,20.58 55.34,20.07 55.26,19.87 55.09,19.6 54.74,19.46 54.34,19.48 
		53.55,19.64 53.37,19.61 53.11,19.58 52.96,19.41 53.02,19.11 53.19,19.01 53.6,18.9 53.78,18.82 53.73,18.61 53.55,18.41 
		52.83,18.3 51.34,18.02 50.65,17.65 50.43,17.6 49.02,17.6 47.86,17.6 46.68,17.86 46.4,18.02 46.1,18.11 46.09,18.25 46.11,18.43 
		46.05,18.62 45.76,18.83 45.08,18.92 44.78,19.08 44.62,19.03 43.34,19.29 43.13,19.26 42.83,18.97 42.53,18.07 42.16,17.86 
		40.69,17.85 38.86,17.84 38.68,17.78 38.66,17.71 38.62,17.46 38.59,17.37 38.52,17.28 38.44,17.2 38.35,17.16 38.26,17.12 
		38.08,17.11 36.55,17.35 36.18,17.32 35.49,17.08 34.57,16.47 34.45,16.33 34.35,16.12 34.32,15.92 34.32,15.69 34.31,15.43 
		34.31,15.42 34.29,14.79 33.83,13.42 33.42,12.19 33.3,11.95 33.22,11.7 33.24,11.15 33.19,10.91 33.09,10.65 33,10.14 32.88,9.94 
		32.72,9.84 32.07,9.52 31.54,9.42 30.44,9.5 29.91,9.33 29.95,10.03 29.99,11.14 30.06,12.56 30.11,13.77 30.1,13.9 30.04,13.98 
		29.96,14.01 27.94,14.1 25.92,14.18 23.91,14.26 21.88,14.34 19.87,14.41 17.84,14.46 15.83,14.53 13.8,14.59 11.79,14.64 
		11.14,14.66 11.14,14.66 11.12,14.96 11.2,15.17 11.3,15.35 11.34,15.52 11.39,15.77 11.45,15.88 11.5,15.99 11.55,16.1 
		11.63,16.53 11.92,17.19 12,17.67 12.09,17.88 12.31,18.3 12.4,18.9 12.23,19.38 11.99,19.84 11.92,20.36 12.16,21.08 12.22,21.47 
		12.28,21.67 12.28,21.81 12.24,21.95 12.13,22.17 12.09,22.33 12.28,23.14 12.35,23.32 12.39,23.51 12.28,24.38 12.29,24.9 
		12.37,25.37 12.54,25.81 12.97,26.73 13.09,27.19 13.24,27.61 13.58,27.95 13.45,28.26 13.49,28.54 13.74,29.15 13.74,29.23 
		13.7,29.31 13.71,29.37 13.74,29.39 13.78,29.4 13.8,29.42 13.82,29.45 13.85,29.5 14.09,29.75 14.15,29.9 14.28,30.34 14.42,30.6 
		14.55,30.78 14.65,31 14.72,31.45 14.84,31.79 15,31.9 15.03,31.96 15.04,32.04 15.03,32.11 14.99,32.17 14.98,32.22 15,32.52 
		14.99,32.77 15.01,32.99 15.1,33.2 15.11,33.38 14.98,34.03 14.98,34.28 15.03,34.35 15.11,34.43 15.2,34.54 15.24,34.67 
		15.22,36.27 15.26,36.56 15.42,37.16 15.45,37.43 15.45,37.52 15.42,37.63 15.39,37.76 15.4,37.91 15.54,38.42 15.56,38.67 
		15.51,39.5 15.54,39.67 15.59,39.78 15.72,39.97 15.76,40.14 15.76,40.23 15.72,40.23 15.78,40.26 15.89,40.29 15.98,40.35 
		16.09,40.38 16.15,40.43 16.19,40.51 16.18,40.57 16.15,40.62 16.1,40.83 15.97,41.01 15.95,41.13 15.97,41.56 15.96,41.7 
		15.94,41.79 15.86,41.99 15.84,42.12 15.88,42.33 16.02,42.76 16.06,43.04 16.03,43.32 15.94,43.77 15.96,44.04 16.06,44.22 
		16.37,44.6 16.44,44.84 16.51,45.31 16.53,45.58 16.47,45.84 16.53,45.93 16.69,46.08 16.75,46.18 16.77,46.28 16.77,46.39 
		16.79,46.51 16.86,46.65 17.43,47.46 17.76,47.8 17.91,48.01 17.98,48.27 17.98,49.1 18.01,49.35 18.05,49.49 18.09,49.6 
		18.32,49.93 18.32,50.02 18.3,50.11 18.3,50.26 18.34,50.33 18.42,50.8 18.42,50.96 18.37,51.32 18.26,51.6 18.27,51.91 
		18.49,52.84 18.44,52.98 18.4,53.03 18.37,53.1 18.35,53.16 18.29,53.94 18.23,54.15 18.05,54.5 17.78,55.13 17.74,55.19 
		17.68,55.29 17.59,55.39 17.33,55.59 16.65,55.98 16.55,56.07 16.35,56.32 15.98,56.57 15.91,56.64 15.84,56.72 15.72,56.99 
		15.69,57.27 15.95,57.58 16.44,58.08 16.64,58.36 17.01,59.12 17.24,59.5 17.44,59.65 18.2,59.71 18.62,59.82 18.9,60.01 
		19.01,60.11 19.24,60.29 19.34,60.38 19.61,60.85 19.68,60.97 19.73,61.01 19.73,61.02 19.75,61.51 19.84,64.31 19.93,67.12 
		20.03,69.93 20.11,72.73 20.2,75.55 20.29,78.37 20.38,81.19 20.47,84 23.66,83.9 26.85,83.78 30.04,83.65 33.24,83.52 
		36.43,83.38 39.62,83.22 42.81,83.05 46,82.89 49.19,82.7 52.38,82.51 55.57,82.31 58.75,82.1 61.94,81.88 65.12,81.65 68.3,81.41 
		71.49,81.16 71.52,80.85 71.53,80.69 71.5,80.52 71.41,80.2 71.39,80.02 71.4,79.62 71.39,79.48 71.29,79.15 71.28,79.03 
		71.35,78.33 71.33,78.09 71.27,77.84 71.23,77.72 71.16,77.63 71.01,77.49 70.95,77.4 70.91,77.3 70.88,77.19 70.87,77.08 
		70.86,76.71 70.83,76.41 70.76,76.1 70.7,75.96 70.63,75.84 70.53,75.75 70.39,75.68 69.96,75.56 69.87,75.39 69.62,75.14 
		69.55,74.96 69.52,74.87 69.49,74.79 69.44,74.72 69.37,74.66 69.25,74.61 68.89,74.61 68.8,74.59 68.73,74.56 68.15,74.17 
		68.09,74.15 67.15,74.22 67.02,74.2 66.9,74.14 65.7,73.25 65.31,73.11 65.11,72.88 64.27,71.57 63.86,70.99 62.29,69.81 
		61.76,69.66 60.62,69.55 60.48,69.5 60.37,69.41 60.28,69.27 59.99,68.73 59.69,68.42 59.34,68.18 58.99,68.09 57.47,67.95 
		57.03,67.72 56.98,67.66 56.94,67.54 56.87,67.43 56.68,67.33 55.97,66.72 55.34,66.39 55.07,66.19 55.42,65.37 55.46,65.02 
		55.44,64.86 55.36,64.46 55.38,64.32 55.5,64.09 55.53,64.01 55.45,63.47 55.32,62.93 55.06,62.37 54.97,62.1 55.1,61.96 
		55.28,61.88 55.4,61.7 55.44,61.44 55.41,61.16 55.21,60.75 55.17,60.68 55.18,60.53 55.22,60.26 55.2,59.69 55.21,59.46 
		55.28,59.24 55.41,59.08 55.55,58.95 55.66,58.79 55.7,58.56 55.74,58.26 56,57.8 56.02,57.58 55.96,57.34 55.81,57.15 
		55.62,56.98 55.45,56.79 55.36,56.61 55.19,56.13 55.07,55.94 54.7,55.84 54.21,55.88 53.79,55.81 53.58,55.38 53.59,54.41 
		53.61,54.19 53.69,54.04 54.46,53.23 54.7,52.83 54.64,52.47 54.97,51.76 55.22,51.43 55.51,51.27 55.67,51.22 56.17,50.88 
		56.42,50.83 56.49,50.78 56.53,50.72 56.63,50.53 56.64,50.51 56.67,50.48 56.73,50.41 56.8,50.35 56.89,50.31 57.28,50.28 
		57.42,50.2 57.6,49.86 57.74,49.73 57.9,49.73 58.15,49.76 58.37,49.76 58.45,49.64 58.48,49.47 58.57,49.29 58.69,49.15 
		58.8,49.05 58.98,49 58.96,48.59 58.94,48.4 58.89,47.6 58.83,46.8 58.78,46 58.73,45.19 58.67,44.39 58.62,43.6 58.56,42.8 
		58.51,41.99 58.49,41.72 58.51,41.67 58.55,41.68 58.69,41.72 58.86,41.72 59.02,41.7 59.16,41.65 59.2,41.62 59.23,41.57 
		59.25,41.54 59.27,41.49 59.29,41.16 59.3,41.08 59.33,41.02 59.37,40.96 59.41,40.92 59.47,40.89 59.62,40.84 59.67,40.8 
		59.7,40.75 59.76,40.54 59.82,40.41 59.97,40.29 60.1,40.23 60.06,40.17 60.21,39.76 60.62,39.35 61.45,38.78 61.97,38.28 
		62.32,38.14 62.87,37.73 63.32,37.15 63.63,37 64.14,36.57 64.19,36.5 64.26,36.3 64.31,36.23 64.4,36.17 64.53,36.11 64.63,36.04 
		64.67,35.89 64.76,35.73 65.41,35.36 69.7,30.33 70.27,30.04 71.63,28.62 73.94,27.22 75.18,26.73 75.64,26.63 75.8,26.58 
		76.16,26.32 77.99,25.61 81.03,23.83 81.19,23.68 81.45,23.34 81.7,23.19 81.83,22.95 81.94,22.88 82.22,22.95 82.37,22.95 
		82.45,22.87 	"/>
	<polygon class="st1" points="82.33,22.87 81.74,22.78 81.53,22.79 81.22,22.89 81.11,22.87 80.89,22.79 80.74,22.76 80.57,22.78 
		80.37,22.84 79.48,23.27 79.31,23.27 78.73,23.03 78.59,22.94 78.45,22.81 77.89,22.1 77.76,21.98 77.31,21.84 76.78,21.87 
		74.11,22.44 74.04,22.43 73.98,22.39 73.91,22.38 73.81,22.41 73.55,22.56 73.45,22.57 73.25,22.52 73.14,22.42 73.01,22.35 
		72.78,22.38 71.97,22.69 71.51,22.73 71.17,22.56 71.05,22.36 70.96,21.99 70.86,21.82 70.75,21.74 70.65,21.7 70.56,21.64 
		70.49,21.49 70.49,21.38 70.57,21.22 70.54,21.11 70.22,20.95 69.77,21.08 69.02,21.56 68.84,21.68 68.46,21.89 67.3,22.78 
		67,23.12 66.66,23.37 65.85,23.52 65.28,23.84 65.12,23.8 64.93,23.7 64.72,23.66 63.91,23.79 63.79,23.75 63.8,23.64 63.84,23.51 
		63.82,23.39 63.73,23.3 63.67,23.28 63.47,23.31 62.78,23.25 62.54,23.09 62.71,22.76 62.38,22.4 62.22,22.27 62.01,22.18 
		61.2,22.14 60.2,21.81 60.03,21.71 59.86,21.59 59.7,21.41 59.56,21.11 59.45,20.79 59.31,20.54 59.05,20.4 58.27,20.42 
		57.31,20.62 57.11,20.74 56.93,21 56.96,21.25 57.06,21.51 57.09,21.76 56.98,21.9 56.77,22.04 56.53,22.13 56.37,22.15 
		56.24,22.04 55.89,21.44 55.56,21.08 55.44,20.87 55.38,20.58 55.34,20.07 55.26,19.87 55.09,19.6 54.74,19.46 54.34,19.48 
		53.55,19.64 53.37,19.61 53.11,19.58 52.96,19.41 53.02,19.11 53.19,19.01 53.6,18.9 53.78,18.82 53.73,18.61 53.55,18.41 
		52.83,18.3 51.34,18.02 50.65,17.65 50.43,17.6 49.02,17.6 47.86,17.6 46.68,17.86 46.4,18.02 46.1,18.11 46.09,18.25 46.11,18.43 
		46.05,18.62 45.76,18.83 45.08,18.92 44.78,19.08 44.62,19.03 43.34,19.29 43.13,19.26 42.83,18.97 42.53,18.07 42.16,17.86 
		40.69,17.85 38.86,17.84 38.68,17.78 38.66,17.71 38.62,17.46 38.59,17.37 38.52,17.28 38.44,17.2 38.35,17.16 38.26,17.12 
		38.08,17.11 36.55,17.35 36.18,17.32 35.49,17.08 34.57,16.47 34.45,16.33 34.35,16.12 34.32,15.92 34.32,15.69 34.31,15.43 
		34.31,15.42 34.29,14.79 33.83,13.42 33.42,12.19 33.3,11.95 33.22,11.7 33.24,11.15 33.19,10.91 33.09,10.65 33,10.14 32.88,9.94 
		32.72,9.84 32.07,9.52 31.54,9.42 30.44,9.5 29.91,9.33 29.95,10.03 29.99,11.14 30.06,12.56 30.11,13.77 30.1,13.9 30.04,13.98 
		29.96,14.01 27.94,14.1 25.92,14.18 23.91,14.26 21.88,14.34 19.87,14.41 17.84,14.46 15.83,14.53 13.8,14.59 11.79,14.64 
		11.14,14.66 11.14,14.66 11.12,14.96 11.2,15.17 11.3,15.35 11.34,15.52 11.39,15.77 11.45,15.88 11.5,15.99 11.55,16.1 
		11.63,16.53 11.92,17.19 12,17.67 12.09,17.88 12.31,18.3 12.4,18.9 12.23,19.38 11.99,19.84 11.92,20.36 12.16,21.08 12.22,21.47 
		12.28,21.67 12.28,21.81 12.24,21.95 12.13,22.17 12.09,22.33 12.28,23.14 12.35,23.32 12.39,23.51 12.28,24.38 12.29,24.9 
		12.37,25.37 12.54,25.81 12.97,26.73 13.09,27.19 13.24,27.61 13.58,27.95 13.45,28.26 13.49,28.54 13.74,29.15 13.74,29.23 
		13.7,29.31 13.71,29.37 13.74,29.39 13.78,29.4 13.8,29.42 13.82,29.45 13.85,29.5 14.09,29.75 14.15,29.9 14.28,30.34 14.42,30.6 
		14.55,30.78 14.65,31 14.72,31.45 14.84,31.79 15,31.9 15.03,31.96 15.04,32.04 15.03,32.11 14.99,32.17 14.98,32.22 15,32.52 
		14.99,32.77 15.01,32.99 15.1,33.2 15.11,33.38 14.98,34.03 14.98,34.28 15.03,34.35 15.11,34.43 15.2,34.54 15.24,34.67 
		15.22,36.27 15.26,36.56 15.42,37.16 15.45,37.43 15.45,37.52 15.42,37.63 15.39,37.76 15.4,37.91 15.54,38.42 15.56,38.67 
		15.51,39.5 15.54,39.67 15.59,39.78 15.72,39.97 15.76,40.14 15.76,40.23 15.72,40.23 15.78,40.26 15.89,40.29 15.98,40.35 
		16.09,40.38 16.15,40.43 16.19,40.51 16.18,40.57 16.15,40.62 16.1,40.83 15.97,41.01 15.95,41.13 15.97,41.56 15.96,41.7 
		15.94,41.79 15.86,41.99 15.84,42.12 15.88,42.33 16.02,42.76 16.06,43.04 16.03,43.32 15.94,43.77 15.96,44.04 16.06,44.22 
		16.37,44.6 16.44,44.84 16.51,45.31 16.53,45.58 16.47,45.84 16.53,45.93 16.69,46.08 16.75,46.18 16.77,46.28 16.77,46.39 
		16.79,46.51 16.86,46.65 17.43,47.46 17.76,47.8 17.91,48.01 17.98,48.27 17.98,49.1 18.01,49.35 18.05,49.49 18.09,49.6 
		18.32,49.93 18.32,50.02 18.3,50.11 18.3,50.26 18.34,50.33 18.42,50.8 18.42,50.96 18.37,51.32 18.26,51.6 18.27,51.91 
		18.49,52.84 18.44,52.98 18.4,53.03 18.37,53.1 18.35,53.16 18.29,53.94 18.23,54.15 18.05,54.5 17.78,55.13 17.74,55.19 
		17.68,55.29 17.59,55.39 17.33,55.59 16.65,55.98 16.55,56.07 16.35,56.32 15.98,56.57 15.91,56.64 15.84,56.72 15.72,56.99 
		15.69,57.27 15.95,57.58 16.44,58.08 16.64,58.36 17.01,59.12 17.24,59.5 17.44,59.65 18.2,59.71 18.62,59.82 18.9,60.01 
		19.01,60.11 19.24,60.29 19.34,60.38 19.61,60.85 19.68,60.97 19.73,61.01 19.73,61.02 19.75,61.51 19.84,64.31 19.93,67.12 
		20.03,69.93 20.11,72.73 20.2,75.55 20.29,78.37 20.38,81.19 20.47,84 23.66,83.9 26.85,83.78 30.04,83.65 33.24,83.52 
		36.43,83.38 39.62,83.22 42.81,83.05 46,82.89 49.19,82.7 52.38,82.51 55.57,82.31 58.75,82.1 61.94,81.88 65.12,81.65 68.3,81.41 
		71.49,81.16 71.52,80.85 71.53,80.69 71.5,80.52 71.41,80.2 71.39,80.02 71.4,79.62 71.39,79.48 71.29,79.15 71.28,79.03 
		71.35,78.33 71.33,78.09 71.27,77.84 71.23,77.72 71.16,77.63 71.01,77.49 70.95,77.4 70.91,77.3 70.88,77.19 70.87,77.08 
		70.86,76.71 70.83,76.41 70.76,76.1 70.7,75.96 70.63,75.84 70.53,75.75 70.39,75.68 69.96,75.56 69.87,75.39 69.62,75.14 
		69.55,74.96 69.52,74.87 69.49,74.79 69.44,74.72 69.37,74.66 69.25,74.61 68.89,74.61 68.8,74.59 68.73,74.56 68.15,74.17 
		68.09,74.15 67.15,74.22 67.02,74.2 66.9,74.14 65.7,73.25 65.31,73.11 65.11,72.88 64.27,71.57 63.86,70.99 62.29,69.81 
		61.76,69.66 60.62,69.55 60.48,69.5 60.37,69.41 60.28,69.27 59.99,68.73 59.69,68.42 59.34,68.18 58.99,68.09 57.47,67.95 
		57.03,67.72 56.98,67.66 56.94,67.54 56.87,67.43 56.68,67.33 55.97,66.72 55.34,66.39 55.07,66.19 55.42,65.37 55.46,65.02 
		55.44,64.86 55.36,64.46 55.38,64.32 55.5,64.09 55.53,64.01 55.45,63.47 55.32,62.93 55.06,62.37 54.97,62.1 55.1,61.96 
		55.28,61.88 55.4,61.7 55.44,61.44 55.41,61.16 55.21,60.75 55.17,60.68 55.18,60.53 55.22,60.26 55.2,59.69 55.21,59.46 
		55.28,59.24 55.41,59.08 55.55,58.95 55.66,58.79 55.7,58.56 55.74,58.26 56,57.8 56.02,57.58 55.96,57.34 55.81,57.15 
		55.62,56.98 55.45,56.79 55.36,56.61 55.19,56.13 55.07,55.94 54.7,55.84 54.21,55.88 53.79,55.81 53.58,55.38 53.59,54.41 
		53.61,54.19 53.69,54.04 54.46,53.23 54.7,52.83 54.64,52.47 54.97,51.76 55.22,51.43 55.51,51.27 55.67,51.22 56.17,50.88 
		56.42,50.83 56.49,50.78 56.53,50.72 56.63,50.53 56.64,50.51 56.67,50.48 56.73,50.41 56.8,50.35 56.89,50.31 57.28,50.28 
		57.42,50.2 57.6,49.86 57.74,49.73 57.9,49.73 58.15,49.76 58.37,49.76 58.45,49.64 58.48,49.47 58.57,49.29 58.69,49.15 
		58.8,49.05 58.98,49 58.96,48.59 58.94,48.4 58.89,47.6 58.83,46.8 58.78,46 58.73,45.19 58.67,44.39 58.62,43.6 58.56,42.8 
		58.51,41.99 58.49,41.72 58.51,41.67 58.55,41.68 58.69,41.72 58.86,41.72 59.02,41.7 59.16,41.65 59.2,41.62 59.23,41.57 
		59.25,41.54 59.27,41.49 59.29,41.16 59.3,41.08 59.33,41.02 59.37,40.96 59.41,40.92 59.47,40.89 59.62,40.84 59.67,40.8 
		59.7,40.75 59.76,40.54 59.82,40.41 59.97,40.29 60.1,40.23 60.06,40.17 60.21,39.76 60.62,39.35 61.45,38.78 61.97,38.28 
		62.32,38.14 62.87,37.73 63.32,37.15 63.63,37 64.14,36.57 64.19,36.5 64.26,36.3 64.31,36.23 64.4,36.17 64.53,36.11 64.63,36.04 
		64.67,35.89 64.76,35.73 65.41,35.36 69.7,30.33 70.27,30.04 71.63,28.62 73.94,27.22 75.18,26.73 75.64,26.63 75.8,26.58 
		76.16,26.32 77.99,25.61 81.03,23.83 81.19,23.68 81.45,23.34 81.7,23.19 81.83,22.95 81.94,22.88 82.22,22.95 82.37,22.95 
		82.45,22.87 	"/>
</g>
<g id="MISSOURI">
</g>
<g id="MISSISSIPPI">
</g>
<g id="MONTANA">
</g>
<g id="NORTH_CAROLINA">
</g>
<g id="NORTH_DAKOTA">
</g>
<g id="NEBRASKA">
</g>
<g id="NEW_HAMPSHIRE">
</g>
<g id="NEW_JERSEY">
</g>
<g id="NEW_YORK">
</g>
<g id="NEW_MEXICO">
</g>
<g id="NEVADA">
</g>
<g id="OHIO">
</g>
<g id="OKLAHOMA">
</g>
<g id="OREGON">
</g>
<g id="PENNSYLVANIA">
</g>
<g id="RHODE_ISLAND">
</g>
<g id="SOUTH_CAROLINA">
</g>
<g id="SOUTH_DAKOTA">
</g>
<g id="TENNESSEE">
</g>
<g id="TEXAS">
</g>
<g id="UTAH">
</g>
<g id="VIRGINIA">
</g>
<g id="VERMONT">
</g>
<g id="WASHINGTON">
</g>
<g id="WISCONSIN">
</g>
<g id="WEST_VIRGINIA">
</g>
<g id="WYOMING">
</g>
</svg>
