<?xml version="1.0" encoding="UTF-8"?>
<svg id="MISSOURI" xmlns="http://www.w3.org/2000/svg" viewBox="0 0 90 90">
  <defs>
    <style>
      .cls-1 {
        fill: #e2e2e2;
      }
    </style>
  </defs>
  <path id="MO" class="cls-1" d="M52.54,21.89h0l-.29,.29-.2,.61-.1,.68-.03,.54,.04,.6,.43,2.12,.07,.2,.16,.21,.2,.2,.06,.09,.06,.09,.04,.1,.02,.12,.02,.31-.05,.39,.02,.15,.05,.09,.15,.14,.09,.17,.29,.24,.08,.13,.03,.14,.05,.3,.16,.43,.23,.3,2.75,2.1,.18,.19,.14,.24,.08,.27,.07,.18,.17,.14,2.52,1.53,.25,.2,.26,.29,.3,.46,.15,.26,.09,.25,.03,.18v.36s.03,.17,.03,.17l.07,.16,.21,.27,.05,.14-.03,.15-.07,.16-.03,.17,.08,.17,.1,.15,.07,.21,.03,.21-.03,.17,.55,.93,.35,.36,.44,.13,.43-.25,.58-.9,.51-.16,.21,.06,.37,.21,.2,.03h.24l.54,.11,1.07,.48,.45,.3,.2,.33-.06,.23-.15,.34-.17,.31-.14,.14-.13,.16v.32s.11,.52,.11,.52l.04,.54-.15,.42-.44,.88-.4,1.5-.43,.85-.13,.43v.49l.15,.59,.08,.21,.08,.15,.08,.13,.1,.12,.62,.44,.08,.12,.32,.27,.08,.11,.09,.2,.2,.14,.41,.2,.29,.24,.28,.3,.3,.25,.38,.09,.62,.44,.18,.08,.38-.04,.14,.03,.34,.07,.38,.24,.65,.57,.27,.14,.66,.22,.27,.16,.29,.34,.37,.68,.25,.25,1.06,.38,.3,.21-.07,.17,.06,.21,.1,.24,.06,.23v.21l-.03,.23v.25s.05,.26,.05,.26l.26,.43,.33,.39,.28,.43,.16,.53-.14,.49-.33,.39-.27,.4,.05,.51,.06,.04,.21,.07,.1,.04,.18,.12v.18l.06,.22,.1,.2,.28,.41,.48,.55,.19,.35-.04,.39,.2,.18,.57,.38,.45,.14h.12s.04-.15,.04-.15l-.05-.2-.09-.11-.1-.07-.11-.1-.14-.28,.05-.14,.2-.05,.26-.02,.07,.06,.08,.31,.04,.11,.11,.08,.23,.12,.09,.08,.07,.14,.04,.14,.05,.14,.11,.1,.13,.02,.13-.04,.12-.07,.1-.04,.21,.08,.08,.23-.02,.58,.06,.41v.13l-.05,.1-.09,.12-.09,.15-.03,.16,.07,.27,.21,.44,.05,.29-.05,.35-.33,.95-.19,.77-.2,.38-.27,.18-.34-.09-.3-.22-.29-.27-.28-.21-.11,.08-.06,.08-.08,.23-.11,.5v.2s-.12,.63-.12,.63l-.05,.16-.02,.08-.2,.31-.16,.19-.14,.09-.28-.05-.03-.2,.07-.26,.02-.12,.04-.18-.19-.51-.38-.14-.33,.18-.05,.47,.12,.16,.11,.11,.05,.04,.1,.19-.05,.25v.21s.29,.52,.29,.52l.06,.28-.09,.3-.18,.15-.26,.06-.27,.02-.2,.13,.05,.24,.19,.25,.21,.17,.28,.07,.12,.08-.03,.15-.1,.09-.13,.05-.99,.13-.19,.09,.66,.79,.33,.5-.07,.25-.17,.05-.2,.13-.16,.15-.07,.13-.02,.23-.28,.57-.05,.46h-.06s-.02,0-.02,0l-1.52,.18-1.51,.19-1.52,.18-1.52,.18-.77,.09h-.07s-.02-.07-.02-.07v-.05s.02-.14,.02-.14l.31-.76,.09-.14,.15-.31,.12-.16,.06-.11,.04-.05,.05-.04,.05-.04,.21-.07,.06-.03,.05-.04,.05-.04,.03-.06,.03-.06,.02-.08v-.19s.02-.07,.02-.07l.02-.07,.04-.06,.04-.05,.1-.08,.05-.03,.14-.06,.22-.12,.32-.22,.05-.05,.03-.05,.03-.07,.02-.07,.02-.26v-.06s.05-.05,.05-.05l.05-.04,.26-.11,.06-.04,.05-.04,.03-.05,.04-.06,.02-.06,.02-.07v-.07s0-.07,0-.07l-.08-.38v-.08l.04-.32v-.16l-.03-.07-.03-.06-.04-.05-.04-.05-.05-.04-.06-.04-.37-.19-.04-.04-.04-.06-.02-.07-.02-.07-.03-.21-.02-.06-.02-.05-.04-.03-.06-.03-.05-.04-.03-.04-.13-.28-.07-.1-.02-.03-.02-.03-.73,.07-2.91,.25-2.9,.25-2.92,.24-2.91,.23-2.91,.22-2.91,.21-2.91,.22-2.91,.2-2.92,.2-2.92,.2-2.9,.18-2.92,.18-2.92,.17-2.91,.17-2.92,.15-2.92,.15-.08-1.63-.08-1.64-.08-1.63-.08-1.64-.08-1.67-.09-1.67-.08-1.67-.08-1.66-.09-1.67-.08-1.67-.08-1.67-.09-1.67-.08-1.66-.08-1.67-.08-1.66-.09-1.67-.08-1.66-.08-1.67-.08-1.66-.09-1.66-.04-.96v-.09s-.06-.02-.06-.02v-.04s0-.04,0-.04l-.02-.02,.14-.17-.02-.11-.18-.06h-.24s-.04-.03-.04-.03l-.02-.11-.06-.04h-.05s-.11,0-.11,0h-.16s-.31,.02-.31,.02l-.23-.08-.47-.28-.21-.05-.2-.12-.06-.27-.03-.27-.11-.12-.35-.23-.25-.51-.11-.52,.09-.23-.46-.08-.05-.07-.07-.21-.04-.08-.45-.28-.2-.08-.08-.05-.11-.15-.25-.45-.06-.1-.19-.07-.19-.2-.14-.25v-.27l.08-.04,.27-.03,.11-.08,.03-.11v-.15s-.02-.28-.02-.28l.07-.22,.15-.23,.31-.34,.11-.08,.09-.05,.06-.08v-.32s.04-.14,.04-.14l.05-.11,.08-.05,.5,.13h.23l.16-.17v-.15s-.05-.09-.05-.09l-.08-.09-.05-.16v-.15s.04-.26,.04-.26v-.13s-.1-.14-.1-.14l-.46-.24-.16-.18,.08-.14v-.18l-.08-.15-.14-.07-.23,.02-.18,.05-.15,.09-.3,.28-.2,.15-.23,.08-.21-.1-.29-.3-.12-.08-.12-.04-.21-.02-.09-.02-.09-.08-.06-.09-.04-.11-.08-.11-.09-.04-.13-.02-.12-.02-.15-.2-.6-.51-.29-.23-.18-.09-.48-.07-.13-.15-.03-.23,.03-.29,.1-.24,.03-.15-.03-.06-.33-.29-.07-.19-.15-.22-.29-.33,.15-.33v-.17s-.11-.14-.11-.14l-.18-.06h-.37s-.16-.08-.16-.08l-.13-.17-.1-.18-.11-.16-.19-.12h-.19l-.21,.04-.17-.02-.08-.17,.13-.1,.1-.1,.05-.1-.03-.05-.14-.38-.18-.25-.05-.1v-.09s0-.2,0-.2v-.08s-.1-.21-.1-.21l-.19-.21-.1-.19-.02-.19,.03-.15v-.15s-.18-.14-.18-.14l-.24-.08-.2-.03-.14-.12-.06-.33,.04-.34h.06l2.48-.12,2.47-.12,2.46-.13,2.46-.14,2.48-.14,2.46-.14,2.46-.15,2.47-.16,2.47-.16,2.46-.17,2.46-.18,2.46-.18,2.47-.18,2.46-.19,2.46-.2,2.46-.2,.97-.08,.41-.03,.1,.19,.05,.06,.2,.12,.05,.07,.02,.18,.03,.12,.05,.1,.09,.09,.1,.05,.23,.04,.24,.14,.03,.05,.06,.18,.05,.08,.05,.03h.05s.11,0,.11,0l.07,.02,.03,.06,.03,.07,.03,.07,.1,.06,.21,.07,.09,.06,.07,.09,.04,.09v.09s0,.09,0,.09l.1,.12,.4,.33,.13,.09,.3,.09,.12,.1h0Z"/>
  <g>
    <path d="M43.98,45.68v5.05h-1.23v-3.16l-1.09,3.16h-1.07l-1.1-3.17v3.17h-1.23v-5.05h1.5l1.38,3.52,1.35-3.52h1.5Z"/>
    <path d="M48.55,45.9c.39,.22,.7,.53,.93,.93s.34,.84,.34,1.34-.11,.95-.34,1.35c-.23,.4-.54,.71-.93,.93-.39,.22-.82,.33-1.3,.33s-.91-.11-1.3-.33c-.39-.22-.7-.53-.93-.93-.23-.4-.34-.85-.34-1.35s.11-.95,.34-1.34c.23-.4,.54-.71,.93-.93,.39-.22,.83-.33,1.3-.33s.92,.11,1.31,.33Zm-2.27,1.2c-.24,.26-.36,.62-.36,1.07s.12,.8,.36,1.07,.56,.4,.96,.4,.72-.13,.96-.4,.36-.62,.36-1.07-.12-.8-.36-1.07c-.24-.26-.56-.4-.96-.4s-.72,.13-.96,.39Z"/>
  </g>
</svg>