<?xml version="1.0" encoding="utf-8"?>
<!-- Generator: Adobe Illustrator 26.5.0, SVG Export Plug-In . SVG Version: 6.00 Build 0)  -->
<svg version="1.1" xmlns="http://www.w3.org/2000/svg" xmlns:xlink="http://www.w3.org/1999/xlink" x="0px" y="0px"
	 viewBox="0 0 90 90" style="enable-background:new 0 0 90 90;" xml:space="preserve">
<style type="text/css">
	.st0{fill:#CECECE;stroke:#F9F9F9;stroke-width:0.025;stroke-linecap:round;stroke-linejoin:round;}
	.st1{display:none;fill:none;stroke:#47CCCC;stroke-width:0.5;stroke-linecap:round;stroke-linejoin:round;}
	.st2{fill:#CECECE;}
</style>
<g id="ALABAMA">
</g>
<g id="ALASKA">
</g>
<g id="ARIZONA">
</g>
<g id="ARKANSAS_1_">
</g>
<g id="CALIFORNIA">
</g>
<g id="COLORADO">
</g>
<g id="CONNECTICUT">
</g>
<g id="DELAWARE">
</g>
<g id="DC">
</g>
<g id="FLORIDA">
</g>
<g id="GEORGIA">
</g>
<g id="HAWAII">
</g>
<g id="IDAHO">
</g>
<g id="IOWA">
</g>
<g id="ILLINOIS">
</g>
<g id="INDIANA">
</g>
<g id="KANSAS">
</g>
<g id="KETUCKY">
</g>
<g id="LOUISANA">
</g>
<g id="MAINE">
</g>
<g id="MARYLAND">
</g>
<g id="MASSACHUSETTS">
</g>
<g id="MICHIGAN">
</g>
<g id="MINNESOTA">
</g>
<g id="MISSOURI">
	<path id="MO_2_" class="st2" d="M52.54,21.89L52.54,21.89l-0.29,0.29l-0.2,0.61l-0.1,0.68L51.93,24l0.04,0.6l0.43,2.12l0.07,0.2
		l0.16,0.21l0.2,0.2l0.06,0.09l0.06,0.09l0.04,0.1l0.02,0.12l0.02,0.31l-0.05,0.39l0.02,0.15l0.05,0.09l0.15,0.14l0.09,0.17
		l0.29,0.24l0.08,0.13l0.03,0.14l0.05,0.3l0.16,0.43l0.23,0.3l2.75,2.1l0.18,0.19l0.14,0.24l0.08,0.27l0.07,0.18l0.17,0.14
		l2.52,1.53l0.25,0.2l0.26,0.29l0.3,0.46l0.15,0.26l0.09,0.25l0.03,0.18l0.01,0.36l0.02,0.17l0.07,0.16l0.21,0.27l0.05,0.14
		l-0.03,0.15l-0.07,0.16l-0.03,0.17l0.08,0.17l0.1,0.15l0.07,0.21l0.03,0.21l-0.03,0.17l0.55,0.93l0.35,0.36l0.44,0.13l0.43-0.25
		l0.58-0.9l0.51-0.16l0.21,0.06L65,39.65l0.2,0.03h0.24l0.54,0.11l1.07,0.48l0.45,0.3l0.2,0.33l-0.06,0.23l-0.15,0.34l-0.17,0.31
		l-0.14,0.14l-0.13,0.16l0.01,0.32l0.1,0.52l0.04,0.54l-0.15,0.42l-0.44,0.88l-0.4,1.5l-0.43,0.85l-0.13,0.43v0.49l0.15,0.59
		l0.08,0.21l0.08,0.15l0.08,0.13l0.1,0.12l0.62,0.44l0.08,0.12l0.32,0.27l0.08,0.11l0.09,0.2l0.2,0.14l0.41,0.2l0.29,0.24l0.28,0.3
		l0.3,0.25l0.38,0.09L69.8,52l0.18,0.08l0.38-0.04l0.14,0.03l0.34,0.07l0.38,0.24l0.65,0.57l0.27,0.14l0.66,0.22l0.27,0.16
		l0.29,0.34l0.37,0.68l0.25,0.25l1.06,0.38l0.3,0.21l-0.07,0.17l0.06,0.21l0.1,0.24l0.06,0.23v0.21l-0.03,0.23l-0.01,0.25l0.06,0.26
		l0.26,0.43l0.33,0.39l0.28,0.43l0.16,0.53l-0.14,0.49l-0.33,0.39l-0.27,0.4l0.05,0.51l0.06,0.04l0.21,0.07l0.1,0.04l0.18,0.12v0.18
		l0.06,0.22l0.1,0.2l0.28,0.41l0.48,0.55l0.19,0.35l-0.04,0.39l0.2,0.18l0.57,0.38l0.45,0.14l0.12-0.01l0.04-0.14l-0.05-0.2
		l-0.09-0.11l-0.1-0.07l-0.11-0.1l-0.14-0.28l0.05-0.14l0.2-0.05l0.26-0.02l0.07,0.06l0.08,0.31l0.04,0.11l0.11,0.08l0.23,0.12
		l0.09,0.08l0.07,0.14l0.04,0.14l0.05,0.14l0.11,0.1l0.13,0.02l0.13-0.04L80.11,64l0.1-0.04l0.21,0.08l0.08,0.23l-0.02,0.58
		l0.06,0.41v0.13l-0.05,0.1l-0.09,0.12l-0.09,0.15l-0.03,0.16l0.07,0.27l0.21,0.44l0.05,0.29l-0.05,0.35l-0.33,0.95l-0.19,0.77
		l-0.2,0.38l-0.27,0.18l-0.34-0.09l-0.3-0.22l-0.29-0.27l-0.28-0.21l-0.11,0.08L78.2,68.9l-0.08,0.23l-0.11,0.5l-0.01,0.21
		l-0.11,0.63l-0.05,0.16l-0.02,0.08l-0.21,0.31l-0.16,0.19l-0.14,0.09l-0.28-0.05l-0.03-0.2l0.07-0.26l0.02-0.12l0.04-0.18
		l-0.19-0.51l-0.38-0.14l-0.33,0.18l-0.05,0.47l0.12,0.16l0.11,0.11l0.05,0.04l0.1,0.19l-0.05,0.25l0.01,0.21l0.28,0.52l0.06,0.28
		l-0.09,0.3l-0.18,0.15l-0.26,0.06l-0.27,0.02l-0.2,0.13l0.05,0.24l0.19,0.25l0.21,0.17l0.28,0.07l0.12,0.08l-0.03,0.15l-0.1,0.09
		l-0.13,0.05l-0.99,0.13l-0.19,0.09l0.66,0.79l0.33,0.5l-0.07,0.25l-0.17,0.05l-0.2,0.13l-0.16,0.15l-0.07,0.13l-0.02,0.23
		l-0.28,0.57l-0.05,0.46h-0.02h-0.02l-0.02,0.01h-0.02l-1.52,0.18l-1.51,0.19l-1.52,0.18l-1.52,0.18l-0.77,0.09l-0.07-0.01
		l-0.02-0.06l-0.01-0.05L68.31,78l0.31-0.76l0.09-0.14l0.15-0.31l0.12-0.16l0.06-0.11l0.04-0.05l0.05-0.04l0.05-0.04l0.21-0.07
		l0.06-0.03l0.05-0.04l0.05-0.04l0.03-0.06l0.03-0.06l0.02-0.08v-0.07l0.01-0.12l0.01-0.07l0.02-0.07l0.04-0.06l0.04-0.05l0.1-0.08
		l0.05-0.03l0.14-0.06l0.22-0.12l0.32-0.22l0.05-0.05l0.03-0.05l0.03-0.07l0.02-0.07l0.02-0.26l0.01-0.06l0.04-0.05l0.05-0.04
		l0.26-0.11l0.06-0.04l0.05-0.04l0.03-0.05l0.04-0.06l0.02-0.06l0.02-0.07l0.01-0.07l-0.01-0.07l-0.08-0.38v-0.08l0.04-0.32v-0.08
		v-0.08l-0.03-0.07l-0.03-0.06l-0.04-0.05l-0.04-0.05l-0.05-0.04L71,72.65l-0.37-0.19l-0.04-0.04l-0.04-0.06l-0.02-0.07l-0.02-0.07
		l-0.03-0.21l-0.02-0.06l-0.02-0.05l-0.04-0.03l-0.06-0.03l-0.05-0.04l-0.03-0.04l-0.13-0.28l-0.07-0.1l-0.02-0.03l-0.02-0.03
		L69.3,71.4l-2.91,0.25l-2.9,0.25l-2.92,0.24l-2.91,0.23l-2.91,0.22l-2.91,0.21l-2.91,0.22l-2.91,0.2l-2.92,0.2l-2.92,0.2l-2.9,0.18
		l-2.92,0.18l-2.92,0.17l-2.91,0.17l-2.92,0.15l-2.92,0.15l-0.08-1.63l-0.08-1.64l-0.08-1.63l-0.08-1.64l-0.08-1.67l-0.09-1.67
		l-0.08-1.67l-0.08-1.66l-0.09-1.67l-0.08-1.67l-0.08-1.67l-0.09-1.67L21.67,53l-0.08-1.67l-0.08-1.66l-0.09-1.67l-0.08-1.66
		l-0.08-1.67l-0.08-1.66l-0.09-1.66l-0.04-0.96l-0.01-0.09L21,40.26l-0.01-0.04v-0.04l-0.02-0.02L21.11,40l-0.02-0.11l-0.18-0.06
		l-0.24-0.01l-0.04-0.02l-0.02-0.11l-0.06-0.04l-0.05-0.01l-0.11,0.02l-0.16-0.01l-0.31,0.03l-0.23-0.08l-0.47-0.28l-0.21-0.05
		l-0.2-0.12l-0.06-0.27l-0.03-0.27l-0.11-0.12l-0.35-0.23l-0.25-0.51l-0.11-0.52l0.09-0.23l-0.46-0.08l-0.05-0.07l-0.07-0.21
		l-0.04-0.08l-0.45-0.28l-0.2-0.08l-0.08-0.05l-0.11-0.15l-0.25-0.45l-0.06-0.1l-0.19-0.07l-0.19-0.2l-0.14-0.25v-0.27l0.08-0.04
		l0.27-0.03l0.11-0.08l0.03-0.11l0.01-0.15l-0.03-0.28l0.07-0.22l0.15-0.23l0.31-0.34l0.11-0.08l0.09-0.05L16.97,33l0.01-0.32
		l0.03-0.14l0.05-0.11l0.08-0.05l0.5,0.13h0.23l0.16-0.17l0.01-0.15l-0.06-0.09l-0.08-0.09l-0.05-0.16l0.01-0.15l0.03-0.26
		l0.01-0.13l-0.11-0.14l-0.46-0.24l-0.16-0.18l0.08-0.14v-0.18l-0.08-0.15l-0.14-0.07l-0.23,0.02l-0.18,0.05l-0.15,0.09l-0.3,0.28
		l-0.21,0.15l-0.23,0.08l-0.21-0.1l-0.29-0.3l-0.12-0.08l-0.12-0.04l-0.21-0.02l-0.09-0.02l-0.09-0.08l-0.06-0.09l-0.04-0.11
		l-0.08-0.11l-0.09-0.04l-0.13-0.02l-0.12-0.02l-0.15-0.2l-0.6-0.51l-0.29-0.23l-0.18-0.09l-0.48-0.07l-0.13-0.15l-0.03-0.23
		l0.03-0.29l0.1-0.24l0.03-0.15l-0.03-0.06l-0.33-0.29l-0.07-0.19l-0.15-0.22l-0.29-0.33l0.15-0.33l0.01-0.17l-0.12-0.14l-0.18-0.06
		l-0.37-0.01l-0.16-0.07l-0.13-0.17l-0.1-0.18l-0.11-0.16l-0.19-0.12h-0.19L9.96,25.3l-0.17-0.02l-0.08-0.17l0.13-0.1l0.1-0.1
		l0.05-0.1l-0.03-0.05l-0.14-0.38l-0.18-0.25l-0.05-0.1l-0.01-0.09l0.01-0.2l-0.01-0.08L9.5,23.48l-0.19-0.21l-0.1-0.19l-0.02-0.19
		l0.03-0.15L9.21,22.6l-0.17-0.14L8.8,22.38l-0.2-0.03l-0.14-0.12L8.4,21.9l0.04-0.34h0.01l0,0h0.01l0,0l0,0h0.01l0,0l0,0h0.01l0,0
		l0,0h0.01l0,0H8.5l0,0l0,0l2.48-0.12l2.47-0.12l2.46-0.13l2.46-0.14l2.48-0.14l2.46-0.14l2.46-0.15l2.47-0.16l2.47-0.16l2.46-0.17
		l2.46-0.18l2.46-0.18l2.47-0.18l2.46-0.19l2.46-0.2l2.46-0.2l0.97-0.08l0.41-0.03l0.1,0.19l0.05,0.06l0.2,0.12l0.05,0.07l0.02,0.18
		l0.03,0.12l0.05,0.1l0.09,0.09l0.1,0.05l0.23,0.04l0.24,0.14l0.03,0.05l0.06,0.18l0.05,0.08l0.05,0.03l0.05,0.01l0.11-0.01
		l0.07,0.02l0.03,0.06l0.03,0.07l0.03,0.07l0.1,0.06l0.21,0.07l0.09,0.06l0.07,0.09l0.04,0.09l0.01,0.09l-0.02,0.09l0.1,0.12
		l0.4,0.33l0.13,0.09l0.3,0.09L52.54,21.89L52.54,21.89z"/>
	<path id="MO_1_" class="st1" d="M52.54,21.89L52.54,21.89l-0.29,0.29l-0.2,0.61l-0.1,0.68L51.93,24l0.04,0.6l0.43,2.12l0.07,0.2
		l0.16,0.21l0.2,0.2l0.06,0.09l0.06,0.09l0.04,0.1l0.02,0.12l0.02,0.31l-0.05,0.39l0.02,0.15l0.05,0.09l0.15,0.14l0.09,0.17
		l0.29,0.24l0.08,0.13l0.03,0.14l0.05,0.3l0.16,0.43l0.23,0.3l2.75,2.1l0.18,0.19l0.14,0.24l0.08,0.27l0.07,0.18l0.17,0.14
		l2.52,1.53l0.25,0.2l0.26,0.29l0.3,0.46l0.15,0.26l0.09,0.25l0.03,0.18l0.01,0.36l0.02,0.17l0.07,0.16l0.21,0.27l0.05,0.14
		l-0.03,0.15l-0.07,0.16l-0.03,0.17l0.08,0.17l0.1,0.15l0.07,0.21l0.03,0.21l-0.03,0.17l0.55,0.93l0.35,0.36l0.44,0.13l0.43-0.25
		l0.58-0.9l0.51-0.16l0.21,0.06L65,39.65l0.2,0.03h0.24l0.54,0.11l1.07,0.48l0.45,0.3l0.2,0.33l-0.06,0.23l-0.15,0.34l-0.17,0.31
		l-0.14,0.14l-0.13,0.16l0.01,0.32l0.1,0.52l0.04,0.54l-0.15,0.42l-0.44,0.88l-0.4,1.5l-0.43,0.85l-0.13,0.43v0.49l0.15,0.59
		l0.08,0.21l0.08,0.15l0.08,0.13l0.1,0.12l0.62,0.44l0.08,0.12l0.32,0.27l0.08,0.11l0.09,0.2l0.2,0.14l0.41,0.2l0.29,0.24l0.28,0.3
		l0.3,0.25l0.38,0.09L69.8,52l0.18,0.08l0.38-0.04l0.14,0.03l0.34,0.07l0.38,0.24l0.65,0.57l0.27,0.14l0.66,0.22l0.27,0.16
		l0.29,0.34l0.37,0.68l0.25,0.25l1.06,0.38l0.3,0.21l-0.07,0.17l0.06,0.21l0.1,0.24l0.06,0.23v0.21l-0.03,0.23l-0.01,0.25l0.06,0.26
		l0.26,0.43l0.33,0.39l0.28,0.43l0.16,0.53l-0.14,0.49l-0.33,0.39l-0.27,0.4l0.05,0.51l0.06,0.04l0.21,0.07l0.1,0.04l0.18,0.12v0.18
		l0.06,0.22l0.1,0.2l0.28,0.41l0.48,0.55l0.19,0.35l-0.04,0.39l0.2,0.18l0.57,0.38l0.45,0.14l0.12-0.01l0.04-0.14l-0.05-0.2
		l-0.09-0.11l-0.1-0.07l-0.11-0.1l-0.14-0.28l0.05-0.14l0.2-0.05l0.26-0.02l0.07,0.06l0.08,0.31l0.04,0.11l0.11,0.08l0.23,0.12
		l0.09,0.08l0.07,0.14l0.04,0.14l0.05,0.14l0.11,0.1l0.13,0.02l0.13-0.04L80.11,64l0.1-0.04l0.21,0.08l0.08,0.23l-0.02,0.58
		l0.06,0.41v0.13l-0.05,0.1l-0.09,0.12l-0.09,0.15l-0.03,0.16l0.07,0.27l0.21,0.44l0.05,0.29l-0.05,0.35l-0.33,0.95l-0.19,0.77
		l-0.2,0.38l-0.27,0.18l-0.34-0.09l-0.3-0.22l-0.29-0.27l-0.28-0.21l-0.11,0.08L78.2,68.9l-0.08,0.23l-0.11,0.5l-0.01,0.21
		l-0.11,0.63l-0.05,0.16l-0.02,0.08l-0.21,0.31l-0.16,0.19l-0.14,0.09l-0.28-0.05l-0.03-0.2l0.07-0.26l0.02-0.12l0.04-0.18
		l-0.19-0.51l-0.38-0.14l-0.33,0.18l-0.05,0.47l0.12,0.16l0.11,0.11l0.05,0.04l0.1,0.19l-0.05,0.25l0.01,0.21l0.28,0.52l0.06,0.28
		l-0.09,0.3l-0.18,0.15l-0.26,0.06l-0.27,0.02l-0.2,0.13l0.05,0.24l0.19,0.25l0.21,0.17l0.28,0.07l0.12,0.08l-0.03,0.15l-0.1,0.09
		l-0.13,0.05l-0.99,0.13l-0.19,0.09l0.66,0.79l0.33,0.5l-0.07,0.25l-0.17,0.05l-0.2,0.13l-0.16,0.15l-0.07,0.13l-0.02,0.23
		l-0.28,0.57l-0.05,0.46h-0.02h-0.02l-0.02,0.01h-0.02l-1.52,0.18l-1.51,0.19l-1.52,0.18l-1.52,0.18l-0.77,0.09l-0.07-0.01
		l-0.02-0.06l-0.01-0.05L68.31,78l0.31-0.76l0.09-0.14l0.15-0.31l0.12-0.16l0.06-0.11l0.04-0.05l0.05-0.04l0.05-0.04l0.21-0.07
		l0.06-0.03l0.05-0.04l0.05-0.04l0.03-0.06l0.03-0.06l0.02-0.08v-0.07l0.01-0.12l0.01-0.07l0.02-0.07l0.04-0.06l0.04-0.05l0.1-0.08
		l0.05-0.03l0.14-0.06l0.22-0.12l0.32-0.22l0.05-0.05l0.03-0.05l0.03-0.07l0.02-0.07l0.02-0.26l0.01-0.06l0.04-0.05l0.05-0.04
		l0.26-0.11l0.06-0.04l0.05-0.04l0.03-0.05l0.04-0.06l0.02-0.06l0.02-0.07l0.01-0.07l-0.01-0.07l-0.08-0.38v-0.08l0.04-0.32v-0.08
		v-0.08l-0.03-0.07l-0.03-0.06l-0.04-0.05l-0.04-0.05l-0.05-0.04L71,72.65l-0.37-0.19l-0.04-0.04l-0.04-0.06l-0.02-0.07l-0.02-0.07
		l-0.03-0.21l-0.02-0.06l-0.02-0.05l-0.04-0.03l-0.06-0.03l-0.05-0.04l-0.03-0.04l-0.13-0.28l-0.07-0.1l-0.02-0.03l-0.02-0.03
		L69.3,71.4l-2.91,0.25l-2.9,0.25l-2.92,0.24l-2.91,0.23l-2.91,0.22l-2.91,0.21l-2.91,0.22l-2.91,0.2l-2.92,0.2l-2.92,0.2l-2.9,0.18
		l-2.92,0.18l-2.92,0.17l-2.91,0.17l-2.92,0.15l-2.92,0.15l-0.08-1.63l-0.08-1.64l-0.08-1.63l-0.08-1.64l-0.08-1.67l-0.09-1.67
		l-0.08-1.67l-0.08-1.66l-0.09-1.67l-0.08-1.67l-0.08-1.67l-0.09-1.67L21.67,53l-0.08-1.67l-0.08-1.66l-0.09-1.67l-0.08-1.66
		l-0.08-1.67l-0.08-1.66l-0.09-1.66l-0.04-0.96l-0.01-0.09L21,40.26l-0.01-0.04v-0.04l-0.02-0.02L21.11,40l-0.02-0.11l-0.18-0.06
		l-0.24-0.01l-0.04-0.02l-0.02-0.11l-0.06-0.04l-0.05-0.01l-0.11,0.02l-0.16-0.01l-0.31,0.03l-0.23-0.08l-0.47-0.28l-0.21-0.05
		l-0.2-0.12l-0.06-0.27l-0.03-0.27l-0.11-0.12l-0.35-0.23l-0.25-0.51l-0.11-0.52l0.09-0.23l-0.46-0.08l-0.05-0.07l-0.07-0.21
		l-0.04-0.08l-0.45-0.28l-0.2-0.08l-0.08-0.05l-0.11-0.15l-0.25-0.45l-0.06-0.1l-0.19-0.07l-0.19-0.2l-0.14-0.25v-0.27l0.08-0.04
		l0.27-0.03l0.11-0.08l0.03-0.11l0.01-0.15l-0.03-0.28l0.07-0.22l0.15-0.23l0.31-0.34l0.11-0.08l0.09-0.05L16.97,33l0.01-0.32
		l0.03-0.14l0.05-0.11l0.08-0.05l0.5,0.13h0.23l0.16-0.17l0.01-0.15l-0.06-0.09l-0.08-0.09l-0.05-0.16l0.01-0.15l0.03-0.26
		l0.01-0.13l-0.11-0.14l-0.46-0.24l-0.16-0.18l0.08-0.14v-0.18l-0.08-0.15l-0.14-0.07l-0.23,0.02l-0.18,0.05l-0.15,0.09l-0.3,0.28
		l-0.21,0.15l-0.23,0.08l-0.21-0.1l-0.29-0.3l-0.12-0.08l-0.12-0.04l-0.21-0.02l-0.09-0.02l-0.09-0.08l-0.06-0.09l-0.04-0.11
		l-0.08-0.11l-0.09-0.04l-0.13-0.02l-0.12-0.02l-0.15-0.2l-0.6-0.51l-0.29-0.23l-0.18-0.09l-0.48-0.07l-0.13-0.15l-0.03-0.23
		l0.03-0.29l0.1-0.24l0.03-0.15l-0.03-0.06l-0.33-0.29l-0.07-0.19l-0.15-0.22l-0.29-0.33l0.15-0.33l0.01-0.17l-0.12-0.14l-0.18-0.06
		l-0.37-0.01l-0.16-0.07l-0.13-0.17l-0.1-0.18l-0.11-0.16l-0.19-0.12h-0.19L9.96,25.3l-0.17-0.02l-0.08-0.17l0.13-0.1l0.1-0.1
		l0.05-0.1l-0.03-0.05l-0.14-0.38l-0.18-0.25l-0.05-0.1l-0.01-0.09l0.01-0.2l-0.01-0.08L9.5,23.48l-0.19-0.21l-0.1-0.19l-0.02-0.19
		l0.03-0.15L9.21,22.6l-0.17-0.14L8.8,22.38l-0.2-0.03l-0.14-0.12L8.4,21.9l0.04-0.34h0.01l0,0h0.01l0,0l0,0h0.01l0,0l0,0h0.01l0,0
		l0,0h0.01l0,0H8.5l0,0l0,0l2.48-0.12l2.47-0.12l2.46-0.13l2.46-0.14l2.48-0.14l2.46-0.14l2.46-0.15l2.47-0.16l2.47-0.16l2.46-0.17
		l2.46-0.18l2.46-0.18l2.47-0.18l2.46-0.19l2.46-0.2l2.46-0.2l0.97-0.08l0.41-0.03l0.1,0.19l0.05,0.06l0.2,0.12l0.05,0.07l0.02,0.18
		l0.03,0.12l0.05,0.1l0.09,0.09l0.1,0.05l0.23,0.04l0.24,0.14l0.03,0.05l0.06,0.18l0.05,0.08l0.05,0.03l0.05,0.01l0.11-0.01
		l0.07,0.02l0.03,0.06l0.03,0.07l0.03,0.07l0.1,0.06l0.21,0.07l0.09,0.06l0.07,0.09l0.04,0.09l0.01,0.09l-0.02,0.09l0.1,0.12
		l0.4,0.33l0.13,0.09l0.3,0.09L52.54,21.89L52.54,21.89z"/>
</g>
<g id="MISSISSIPPI">
</g>
<g id="MONTANA">
</g>
<g id="NORTH_CAROLINA">
</g>
<g id="NORTH_DAKOTA">
</g>
<g id="NEBRASKA">
</g>
<g id="NEW_HAMPSHIRE">
</g>
<g id="NEW_JERSEY">
</g>
<g id="NEW_YORK">
</g>
<g id="NEW_MEXICO">
</g>
<g id="NEVADA">
</g>
<g id="OHIO">
</g>
<g id="OKLAHOMA">
</g>
<g id="OREGON">
</g>
<g id="PENNSYLVANIA">
</g>
<g id="RHODE_ISLAND">
</g>
<g id="SOUTH_CAROLINA">
</g>
<g id="SOUTH_DAKOTA">
</g>
<g id="TENNESSEE">
</g>
<g id="TEXAS">
</g>
<g id="UTAH">
</g>
<g id="VIRGINIA">
</g>
<g id="VERMONT">
</g>
<g id="WASHINGTON">
</g>
<g id="WISCONSIN">
</g>
<g id="WEST_VIRGINIA">
</g>
<g id="WYOMING">
</g>
</svg>
