<?xml version="1.0" encoding="utf-8"?>
<!-- Generator: Adobe Illustrator 26.5.0, SVG Export Plug-In . SVG Version: 6.00 Build 0)  -->
<svg version="1.1" xmlns="http://www.w3.org/2000/svg" xmlns:xlink="http://www.w3.org/1999/xlink" x="0px" y="0px"
	 viewBox="0 0 90 90" style="enable-background:new 0 0 90 90;" xml:space="preserve">
<style type="text/css">
	.st0{fill:#CECECE;stroke:#F9F9F9;stroke-width:0.025;stroke-linecap:round;stroke-linejoin:round;}
	.st1{display:none;fill:none;stroke:#47CCCC;stroke-width:0.5;stroke-linecap:round;stroke-linejoin:round;}
	.st2{fill:#CECECE;}
</style>
<g id="ALABAMA">
</g>
<g id="ALASKA">
</g>
<g id="ARIZONA">
</g>
<g id="ARKANSAS_1_">
</g>
<g id="CALIFORNIA">
</g>
<g id="COLORADO">
</g>
<g id="CONNECTICUT">
</g>
<g id="DELAWARE">
</g>
<g id="DC">
</g>
<g id="FLORIDA">
</g>
<g id="GEORGIA">
</g>
<g id="HAWAII">
</g>
<g id="IDAHO">
</g>
<g id="IOWA">
</g>
<g id="ILLINOIS">
</g>
<g id="INDIANA">
</g>
<g id="KANSAS">
</g>
<g id="KETUCKY">
</g>
<g id="LOUISANA">
</g>
<g id="MAINE">
</g>
<g id="MARYLAND">
</g>
<g id="MASSACHUSETTS">
</g>
<g id="MICHIGAN">
</g>
<g id="MINNESOTA">
</g>
<g id="MISSOURI">
</g>
<g id="MISSISSIPPI">
	<path id="MS_1_" class="st0" d="M58.21,80.68l-0.12,0.27l-0.32,0.12l-0.69,0.03l0.01,0.1l0.42-0.06l0.19,0.04l0.12,0.14l0.08-0.11
		l0.11,0.1l-0.06,0.07l-0.07,0.09l-0.04,0.06l0.06,0.04l0.03,0.03l0.04,0.01h0.06l0.18-0.47L58.25,81l-0.02-0.16l0.02-0.04
		l0.08-0.04l-0.02-0.08L58.21,80.68z M53.58,82.84l-0.07,0.15l0.11,0.03l0.07-0.15l-0.03-0.09L53.58,82.84z M59.55,81.21l-0.02,0.06
		l0.34-0.08l0.19-0.08l-0.17,0.01L59.55,81.21z M65.6,80.56l0.44,0.04l0.46-0.03l0.08-0.11l-1-0.01L65.6,80.56z M66.64,77.83
		l-0.43-2.81l-0.22-1.41l-0.21-1.41l-0.22-1.41l-0.21-1.41l-0.22-1.4l-0.21-1.41l-0.43-2.81l-0.22-1.4l-0.21-1.41l-0.22-1.41
		l-0.21-1.41l-0.21-1.41l-0.21-1.41V55.2v-0.37l0.01-0.62v-0.82l0.01-1.02l0.01-1.2l0.01-1.37l0.01-1.52l0.01-1.65l0.01-1.78
		l0.01-1.86l0.01-1.96v-2.01l0.02-2.07v-2.1l0.02-4.23l0.01-2.09v-2.07l0.01-2.01v-1.95l0.01-1.87v-1.77l0.01-1.65v-1.52V14.3v-1.2
		v-1.02v-1.43v-0.38V9.59V9.34h-0.22L62.73,9.1L62.39,8.7L62.1,8.11l-0.11,0.01l-0.45,0.04l-1.6,0.17l-1.61,0.17l-1.61,0.17
		L55.1,8.85L53.49,9l-1.61,0.16l-1.61,0.16l-1.61,0.16l-1.61,0.15l-1.61,0.16l-1.61,0.15l-1.62,0.15l-1.61,0.15L39,10.36l-1.61,0.15
		l-1.62,0.13l0.04,0.07l0.43,0.43l0.03,0.63l-0.37,0.55l-0.55,0.43l-1.34,0.66l-0.12,0.21l0.08,0.25l0.17,0.29l0.08,0.27l-0.16,0.21
		l-0.1,0.15l-0.26,0.1l-0.28,0.01l-0.25-0.13l-0.16,0.07l-0.15,0.32l-0.17,0.55l-0.06,0.64l0.32,1.02l-0.02,1.28l0.04,0.53
		l-0.06,0.44l-0.37,0.47l-0.44,0.29l-0.27,0.13l-0.52,0.1h-0.15l-0.1-0.04l-0.17-0.11l-0.04,0.09v0.13l0.07,0.21l0.13,0.27
		l0.03,0.19l-0.03,0.12l-0.15,0.29l-0.03,0.16l-0.04,0.07L30.72,22l-0.21-0.08l-0.17,0.02l-0.08,0.03l-0.04,0.09l-0.39,1.15
		l-0.15,0.14l-0.19,0.09l-0.6,0.44l-0.15,0.17l0.04,0.43l0.95,0.37l0.08,0.57l-0.15,0.28l-0.19,0.14l-0.25,0.06l-0.29,0.02
		l-0.28,0.07l-0.67,0.42l-0.65,0.2l-0.1,0.11l0.07,0.21l0.13,0.09l0.17,0.06l0.18,0.08l0.24,0.4l-0.15,0.37l-0.22,0.36l0.12,0.52
		l0.16,0.23l0.1,0.28l-0.13,0.34l-0.13,0.06l-0.34,0.04l-0.13,0.04l-0.12,0.1l-0.24,0.29l-0.08,0.06l-0.1,0.11l-0.44,0.71
		l-0.22,0.18l-0.18,0.12l-0.02,0.15l0.27,0.24l0.54,0.21l0.21,0.18l0.08,0.38l-0.09,0.32l-0.2,0.17l-0.27,0.08l-0.3,0.02l-0.19,0.12
		l0.08,0.25l0.21,0.24l0.21,0.09l0.24,0.07l0.27,0.19l0.46,0.4l0.03,0.27l0.04,0.43v0.45l-0.04,0.29l-0.43,0.66l-0.11,0.34l0.2,0.28
		l0.15,0.01l0.39,0.11l0.18,0.12l0.09,0.18l0.07,0.75l0.18,0.49l0.06,0.25l-0.06,0.28l-0.16,0.11l-0.26,0.09l-0.24,0.13l-0.09,0.19
		l0.06,1.58l0.01,0.51l0.09,0.13l0.18,0.1l0.22,0.06l0.2,0.01l0.17,0.04l0.17,0.15l0.27,0.28l-0.1,0.27l-0.16,0.28l-0.18,0.22
		l-0.15,0.1l-0.11,0.17l-0.15,0.74l-0.04,0.61l0.04,0.21l0.17,0.11l0.64,0.06l0.24,0.17L29.06,46l-0.18,0.34l-0.22,0.08l-0.35,0.04
		L28,46.55l-0.12,0.22l0.06,0.33l0.09,0.28l0.12,0.24l0.17,0.2l0.13,0.1l0.33,0.17l0.1,0.11l0.04,0.17l-0.02,0.19l-0.04,0.17
		l-0.02,0.15l0.03,0.62l0.06,0.25l0.17,0.2l0.45,0.23l0.4,0.13l0.31,0.26l0.16,0.59l0.1,0.1l0.21,0.07l0.45,0.03l0.3,0.09l0.1,0.22
		l-0.02,0.21l-0.1,0.06l0.01,0.11l-0.53,0.62l-0.33,1l-0.38,0.8l-0.69,0.02l-0.11,0.14l-0.03,0.16l0.01,0.14l0.01,0.1l0.43,0.42
		L29.88,56l-0.24,0.54l-0.44,0.38l-0.38,0.16l-0.12,0.09l-0.09,0.13l-0.1,0.33l-0.07,0.13l-0.54,0.73l-0.23,0.21l-0.25,0.11
		l-0.53,0.16l-0.21,0.17l-0.17,0.27l-0.1,0.28l-0.12,0.57l-0.34,0.75l-0.03,0.26l0.01,0.3l-0.15,1.33l0.02,0.36l-0.06,0.17v0.1
		l-0.86,0.72l-0.27,0.47l0.11,0.65l0.07,0.1l0.13,0.17l0.19,0.31l0.03,0.09v0.29l-0.02,0.14l-0.11,0.15l-0.09,0.99l-0.07,0.25
		l-0.15,0.18l-0.27,0.08l-0.62,0.02l-0.29,0.05l-0.19,0.12v0.24l0.16,0.3l0.22,0.24l0.18,0.1L24,69.27l-0.01,0.17l-0.04,0.17
		l-0.03,0.06l-0.02,0.17l-0.11,0.27v0.15l0.18,0.41l0.43,0.45l0.11,0.38l-0.95,0.92l0.08-0.01l0.6-0.04l0.26-0.02l0.74-0.06
		l1.14-0.08l1.49-0.12l1.75-0.14l1.96-0.16l2.09-0.17l2.16-0.18l2.16-0.18l2.09-0.19l1.96-0.17l1.75-0.16l1.47-0.14l1.15-0.1
		l0.73-0.07l0.26-0.02l0.56-0.04l0.49-0.06l0.06,0.22l-0.03,0.54l-0.12,0.55l-0.25,0.59l-0.13,0.89l-0.28,0.42l-0.09,0.27l0.1,0.28
		l-0.19,0.56l-0.07,0.34l0.01,0.27l0.15,0.21l0.21,0.21l0.13,0.25l-0.13,0.33l0.41,0.7l0.21,0.19l0.44,0.12l0.22,0.13l0.22,0.45
		l0.39,0.22l0.25,0.38l0.04,0.1l0.02,0.12l0.01,0.27l0.02,0.12l0.11,0.24l0.42,0.55l0.09,0.25l0.03,0.62l0.29,0.42l0.47,0.89
		l0.33,0.31l0.09-0.17l0.16-0.07l0.17,0.03l0.1,0.09l0.02-0.04h0.09l0.15,0.08l0.19-0.01l0.18-0.09l0.1-0.16l0.12,0.09l0.03,0.03
		l-0.06,0.09l0.1,0.1l0.15-0.15l0.04-0.11v-0.12l0.02-0.17l0.19-0.29l0.04-0.16l-0.12-0.19l1.13-0.8l0.11-0.15l0.01-0.18l-0.03-0.29
		l-0.07-0.04l-0.3,0.02l-0.12-0.03v-0.12l0.11-0.17l0.16-0.15l0.13-0.07l0.28,0.03l0.45,0.28l0.25,0.11l-0.18,0.12l-0.1,0.15
		l0.04,0.11l0.24,0.03l0.17-0.03l0.79-0.34l0.8-0.3l0.9-0.4l0.21-0.05l0.17-0.06l0.38-0.25l0.17-0.08l0.81-0.04l0.39-0.08l0.2-0.21
		l-1.62-0.06l-0.01-0.1l0.21-0.02l0.18-0.07l0.3-0.18l1.08,0.19l1.46,0.89l0.4,0.02l0.63-0.13l0.56-0.29l0.2-0.41l0.1-0.01
		l0.06,0.17l0.19,0.12l0.12,0.3l0.12,0.07l0.17,0.01L65,78.63l0.36,0.06l0.26,0.13l0.24,0.07l0.28-0.16l0.08-0.11l0.04-0.11
		l0.07-0.09l0.17-0.06l0.12-0.09V78.1l-0.03-0.17l0.04-0.09L66.64,77.83z M64.04,80.49l-0.3-0.1l-0.3-0.16l-0.44-0.03l-0.43,0.06
		l-0.31,0.13v0.09l2.65,0.15l0.12-0.07l0.1-0.07l-0.29-0.08L64.04,80.49z M60.54,80.71l-0.07,0.07l-0.09,0.15l0.11-0.04l0.2-0.18
		l-0.01-0.06L60.54,80.71z"/>
	<path id="MS_2_" class="st1" d="M58.21,80.68l-0.12,0.27l-0.32,0.12l-0.69,0.03l0.01,0.1l0.42-0.06l0.19,0.04l0.12,0.14l0.08-0.11
		l0.11,0.1l-0.06,0.07l-0.07,0.09l-0.04,0.06l0.06,0.04l0.03,0.03l0.04,0.01h0.06l0.18-0.47L58.25,81l-0.02-0.16l0.02-0.04
		l0.08-0.04l-0.02-0.08L58.21,80.68z M53.58,82.84l-0.07,0.15l0.11,0.03l0.07-0.15l-0.03-0.09L53.58,82.84z M59.55,81.21l-0.02,0.06
		l0.34-0.08l0.19-0.08l-0.17,0.01L59.55,81.21z M65.6,80.56l0.44,0.04l0.46-0.03l0.08-0.11l-1-0.01L65.6,80.56z M66.64,77.83
		l-0.43-2.81l-0.22-1.41l-0.21-1.41l-0.22-1.41l-0.21-1.41l-0.22-1.4l-0.21-1.41l-0.43-2.81l-0.22-1.4l-0.21-1.41l-0.22-1.41
		l-0.21-1.41l-0.21-1.41l-0.21-1.41V55.2v-0.37l0.01-0.62v-0.82l0.01-1.02l0.01-1.2l0.01-1.37l0.01-1.52l0.01-1.65l0.01-1.78
		l0.01-1.86l0.01-1.96v-2.01l0.02-2.07v-2.1l0.02-4.23l0.01-2.09v-2.07l0.01-2.01v-1.95l0.01-1.87v-1.77l0.01-1.65v-1.52V14.3v-1.2
		v-1.02v-1.43v-0.38V9.59V9.34h-0.22L62.73,9.1L62.39,8.7L62.1,8.11l-0.11,0.01l-0.45,0.04l-1.6,0.17l-1.61,0.17l-1.61,0.17
		L55.1,8.85L53.49,9l-1.61,0.16l-1.61,0.16l-1.61,0.16l-1.61,0.15l-1.61,0.16l-1.61,0.15l-1.62,0.15l-1.61,0.15L39,10.36l-1.61,0.15
		l-1.62,0.13l0.04,0.07l0.43,0.43l0.03,0.63l-0.37,0.55l-0.55,0.43l-1.34,0.66l-0.12,0.21l0.08,0.25l0.17,0.29l0.08,0.27l-0.16,0.21
		l-0.1,0.15l-0.26,0.1l-0.28,0.01l-0.25-0.13l-0.16,0.07l-0.15,0.32l-0.17,0.55l-0.06,0.64l0.32,1.02l-0.02,1.28l0.04,0.53
		l-0.06,0.44l-0.37,0.47l-0.44,0.29l-0.27,0.13l-0.52,0.1h-0.15l-0.1-0.04l-0.17-0.11l-0.04,0.09v0.13l0.07,0.21l0.13,0.27
		l0.03,0.19l-0.03,0.12l-0.15,0.29l-0.03,0.16l-0.04,0.07L30.72,22l-0.21-0.08l-0.17,0.02l-0.08,0.03l-0.04,0.09l-0.39,1.15
		l-0.15,0.14l-0.19,0.09l-0.6,0.44l-0.15,0.17l0.04,0.43l0.95,0.37l0.08,0.57l-0.15,0.28l-0.19,0.14l-0.25,0.06l-0.29,0.02
		l-0.28,0.07l-0.67,0.42l-0.65,0.2l-0.1,0.11l0.07,0.21l0.13,0.09l0.17,0.06l0.18,0.08l0.24,0.4l-0.15,0.37l-0.22,0.36l0.12,0.52
		l0.16,0.23l0.1,0.28l-0.13,0.34l-0.13,0.06l-0.34,0.04l-0.13,0.04l-0.12,0.1l-0.24,0.29l-0.08,0.06l-0.1,0.11l-0.44,0.71
		l-0.22,0.18l-0.18,0.12l-0.02,0.15l0.27,0.24l0.54,0.21l0.21,0.18l0.08,0.38l-0.09,0.32l-0.2,0.17l-0.27,0.08l-0.3,0.02l-0.19,0.12
		l0.08,0.25l0.21,0.24l0.21,0.09l0.24,0.07l0.27,0.19l0.46,0.4l0.03,0.27l0.04,0.43v0.45l-0.04,0.29l-0.43,0.66l-0.11,0.34l0.2,0.28
		l0.15,0.01l0.39,0.11l0.18,0.12l0.09,0.18l0.07,0.75l0.18,0.49l0.06,0.25l-0.06,0.28l-0.16,0.11l-0.26,0.09l-0.24,0.13l-0.09,0.19
		l0.06,1.58l0.01,0.51l0.09,0.13l0.18,0.1l0.22,0.06l0.2,0.01l0.17,0.04l0.17,0.15l0.27,0.28l-0.1,0.27l-0.16,0.28l-0.18,0.22
		l-0.15,0.1l-0.11,0.17l-0.15,0.74l-0.04,0.61l0.04,0.21l0.17,0.11l0.64,0.06l0.24,0.17L29.06,46l-0.18,0.34l-0.22,0.08l-0.35,0.04
		L28,46.55l-0.12,0.22l0.06,0.33l0.09,0.28l0.12,0.24l0.17,0.2l0.13,0.1l0.33,0.17l0.1,0.11l0.04,0.17l-0.02,0.19l-0.04,0.17
		l-0.02,0.15l0.03,0.62l0.06,0.25l0.17,0.2l0.45,0.23l0.4,0.13l0.31,0.26l0.16,0.59l0.1,0.1l0.21,0.07l0.45,0.03l0.3,0.09l0.1,0.22
		l-0.02,0.21l-0.1,0.06l0.01,0.11l-0.53,0.62l-0.33,1l-0.38,0.8l-0.69,0.02l-0.11,0.14l-0.03,0.16l0.01,0.14l0.01,0.1l0.43,0.42
		L29.88,56l-0.24,0.54l-0.44,0.38l-0.38,0.16l-0.12,0.09l-0.09,0.13l-0.1,0.33l-0.07,0.13l-0.54,0.73l-0.23,0.21l-0.25,0.11
		l-0.53,0.16l-0.21,0.17l-0.17,0.27l-0.1,0.28l-0.12,0.57l-0.34,0.75l-0.03,0.26l0.01,0.3l-0.15,1.33l0.02,0.36l-0.06,0.17v0.1
		l-0.86,0.72l-0.27,0.47l0.11,0.65l0.07,0.1l0.13,0.17l0.19,0.31l0.03,0.09v0.29l-0.02,0.14l-0.11,0.15l-0.09,0.99l-0.07,0.25
		l-0.15,0.18l-0.27,0.08l-0.62,0.02l-0.29,0.05l-0.19,0.12v0.24l0.16,0.3l0.22,0.24l0.18,0.1L24,69.27l-0.01,0.17l-0.04,0.17
		l-0.03,0.06l-0.02,0.17l-0.11,0.27v0.15l0.18,0.41l0.43,0.45l0.11,0.38l-0.95,0.92l0.08-0.01l0.6-0.04l0.26-0.02l0.74-0.06
		l1.14-0.08l1.49-0.12l1.75-0.14l1.96-0.16l2.09-0.17l2.16-0.18l2.16-0.18l2.09-0.19l1.96-0.17l1.75-0.16l1.47-0.14l1.15-0.1
		l0.73-0.07l0.26-0.02l0.56-0.04l0.49-0.06l0.06,0.22l-0.03,0.54l-0.12,0.55l-0.25,0.59l-0.13,0.89l-0.28,0.42l-0.09,0.27l0.1,0.28
		l-0.19,0.56l-0.07,0.34l0.01,0.27l0.15,0.21l0.21,0.21l0.13,0.25l-0.13,0.33l0.41,0.7l0.21,0.19l0.44,0.12l0.22,0.13l0.22,0.45
		l0.39,0.22l0.25,0.38l0.04,0.1l0.02,0.12l0.01,0.27l0.02,0.12l0.11,0.24l0.42,0.55l0.09,0.25l0.03,0.62l0.29,0.42l0.47,0.89
		l0.33,0.31l0.09-0.17l0.16-0.07l0.17,0.03l0.1,0.09l0.02-0.04h0.09l0.15,0.08l0.19-0.01l0.18-0.09l0.1-0.16l0.12,0.09l0.03,0.03
		l-0.06,0.09l0.1,0.1l0.15-0.15l0.04-0.11v-0.12l0.02-0.17l0.19-0.29l0.04-0.16l-0.12-0.19l1.13-0.8l0.11-0.15l0.01-0.18l-0.03-0.29
		l-0.07-0.04l-0.3,0.02l-0.12-0.03v-0.12l0.11-0.17l0.16-0.15l0.13-0.07l0.28,0.03l0.45,0.28l0.25,0.11l-0.18,0.12l-0.1,0.15
		l0.04,0.11l0.24,0.03l0.17-0.03l0.79-0.34l0.8-0.3l0.9-0.4l0.21-0.05l0.17-0.06l0.38-0.25l0.17-0.08l0.81-0.04l0.39-0.08l0.2-0.21
		l-1.62-0.06l-0.01-0.1l0.21-0.02l0.18-0.07l0.3-0.18l1.08,0.19l1.46,0.89l0.4,0.02l0.63-0.13l0.56-0.29l0.2-0.41l0.1-0.01
		l0.06,0.17l0.19,0.12l0.12,0.3l0.12,0.07l0.17,0.01L65,78.63l0.36,0.06l0.26,0.13l0.24,0.07l0.28-0.16l0.08-0.11l0.04-0.11
		l0.07-0.09l0.17-0.06l0.12-0.09V78.1l-0.03-0.17l0.04-0.09L66.64,77.83z M64.04,80.49l-0.3-0.1l-0.3-0.16l-0.44-0.03l-0.43,0.06
		l-0.31,0.13v0.09l2.65,0.15l0.12-0.07l0.1-0.07l-0.29-0.08L64.04,80.49z M60.54,80.71l-0.07,0.07l-0.09,0.15l0.11-0.04l0.2-0.18
		l-0.01-0.06L60.54,80.71z"/>
</g>
<g id="MONTANA">
</g>
<g id="NORTH_CAROLINA">
</g>
<g id="NORTH_DAKOTA">
</g>
<g id="NEBRASKA">
</g>
<g id="NEW_HAMPSHIRE">
</g>
<g id="NEW_JERSEY">
</g>
<g id="NEW_YORK">
</g>
<g id="NEW_MEXICO">
</g>
<g id="NEVADA">
</g>
<g id="OHIO">
</g>
<g id="OKLAHOMA">
</g>
<g id="OREGON">
</g>
<g id="PENNSYLVANIA">
</g>
<g id="RHODE_ISLAND">
</g>
<g id="SOUTH_CAROLINA">
</g>
<g id="SOUTH_DAKOTA">
</g>
<g id="TENNESSEE">
</g>
<g id="TEXAS">
</g>
<g id="UTAH">
</g>
<g id="VIRGINIA">
</g>
<g id="VERMONT">
</g>
<g id="WASHINGTON">
</g>
<g id="WISCONSIN">
</g>
<g id="WEST_VIRGINIA">
</g>
<g id="WYOMING">
</g>
</svg>
