<?xml version="1.0" encoding="UTF-8"?>
<svg id="MISSISSIPPI" xmlns="http://www.w3.org/2000/svg" viewBox="0 0 90 90">
  <defs>
    <style>
      .cls-1 {
        fill: #e2e2e2;
        stroke: #f9f9f9;
        stroke-linecap: round;
        stroke-linejoin: round;
        stroke-width: .03px;
      }
    </style>
  </defs>
  <path id="MS" class="cls-1" d="M58.21,80.68l-.12,.27-.32,.12-.69,.03v.1s.43-.06,.43-.06l.19,.04,.12,.14,.08-.11,.11,.1-.06,.07-.07,.09-.04,.06,.06,.04,.03,.03h.04s.06,.01,.06,.01l.18-.47,.02-.17-.02-.16,.02-.04,.08-.04-.02-.08h-.09Zm-4.64,2.17l-.07,.15,.11,.03,.07-.15-.03-.09-.08,.06Zm5.97-1.63l-.02,.06,.34-.08,.19-.08h-.17s-.34,.1-.34,.1Zm6.05-.65l.44,.04,.46-.03,.08-.11h-1s.02,.1,.02,.1Zm1.04-2.72l-.43-2.81-.22-1.41-.21-1.41-.22-1.41-.21-1.41-.22-1.4-.21-1.41-.43-2.81-.22-1.4-.21-1.41-.22-1.41-.21-1.41-.21-1.41-.21-1.41v-1.13s.01-.82,.01-.82v-1.02s.02-1.2,.02-1.2v-1.37s.02-1.52,.02-1.52v-1.65s.02-1.78,.02-1.78v-1.86s.02-1.96,.02-1.96v-2.01l.02-2.07v-2.1l.02-4.23v-2.09s.01-2.07,.01-2.07v-2.01s.01-1.95,.01-1.95v-1.87s.01-1.77,.01-1.77v-1.65s.01-1.52,.01-1.52v-6.33h-.22l-.43-.24-.34-.41-.29-.59h-.11s-.45,.06-.45,.06l-1.6,.17-1.61,.17-1.61,.17-1.62,.17-1.61,.16-1.61,.16-1.61,.16-1.61,.16-1.61,.15-1.61,.16-1.61,.15-1.62,.15-1.61,.15-1.61,.15-1.61,.15-1.62,.13,.04,.07,.43,.43,.03,.63-.37,.55-.55,.43-1.34,.66-.12,.21,.08,.25,.17,.29,.08,.27-.16,.21-.1,.15-.26,.1h-.28s-.25-.12-.25-.12l-.16,.07-.15,.32-.17,.55-.06,.64,.32,1.02-.02,1.28,.04,.53-.06,.44-.37,.47-.44,.29-.27,.13-.52,.1h-.15l-.1-.04-.17-.11-.04,.09v.13l.07,.21,.13,.27,.03,.19-.03,.12-.15,.29-.03,.16-.04,.07h-.12s-.21-.09-.21-.09l-.17,.02-.08,.03-.04,.09-.39,1.15-.15,.14-.19,.09-.6,.44-.15,.17,.04,.43,.95,.37,.08,.57-.15,.28-.19,.14-.25,.06-.29,.02-.28,.07-.67,.42-.65,.2-.1,.11,.07,.21,.13,.09,.17,.06,.18,.08,.24,.4-.15,.37-.22,.36,.12,.52,.16,.23,.1,.28-.13,.34-.13,.06-.34,.04-.13,.04-.12,.1-.24,.29-.08,.06-.1,.11-.44,.71-.22,.18-.18,.12-.02,.15,.27,.24,.54,.21,.21,.18,.08,.38-.09,.32-.2,.17-.27,.08-.3,.02-.19,.12,.08,.25,.21,.24,.21,.09,.24,.07,.27,.19,.46,.4,.03,.27,.04,.43v.45l-.04,.29-.43,.66-.11,.34,.2,.28h.15s.39,.12,.39,.12l.18,.12,.09,.18,.07,.75,.18,.49,.06,.25-.06,.28-.16,.11-.26,.09-.24,.13-.09,.19,.06,1.58v.51s.1,.13,.1,.13l.18,.1,.22,.06h.2s.17,.06,.17,.06l.17,.15,.27,.28-.1,.27-.16,.28-.18,.22-.15,.1-.11,.17-.15,.74-.04,.61,.04,.21,.17,.11,.64,.06,.24,.17,.08,.26-.18,.34-.22,.08-.35,.04-.31,.09-.12,.22,.06,.33,.09,.28,.12,.24,.17,.2,.13,.1,.33,.17,.1,.11,.04,.17-.02,.19-.04,.17-.02,.15,.03,.62,.06,.25,.17,.2,.45,.23,.4,.13,.31,.26,.16,.59,.1,.1,.21,.07,.45,.03,.3,.09,.1,.22-.02,.21-.1,.06v.11s-.52,.62-.52,.62l-.33,1-.38,.8-.69,.02-.11,.14-.03,.16v.14s.02,.1,.02,.1l.43,.42,.03,.55-.24,.54-.44,.38-.38,.16-.12,.09-.09,.13-.1,.33-.07,.13-.54,.73-.23,.21-.25,.11-.53,.16-.21,.17-.17,.27-.1,.28-.12,.57-.34,.75-.03,.26v.3s-.13,1.33-.13,1.33l.02,.36-.06,.17v.1l-.86,.72-.27,.47,.11,.65,.07,.1,.13,.17,.19,.31,.03,.09v.29l-.02,.14-.11,.15-.09,.99-.07,.25-.15,.18-.27,.08-.62,.02-.29,.05-.19,.12v.24l.16,.3,.22,.24,.18,.1,.08,.08v.17s-.06,.17-.06,.17l-.03,.06-.02,.17-.11,.27v.15l.18,.41,.43,.45,.11,.38-.95,.92h.08s.6-.06,.6-.06l.26-.02,.74-.06,1.14-.08,1.49-.12,1.75-.14,1.96-.16,2.09-.17,2.16-.18,2.16-.18,2.09-.19,1.96-.17,1.75-.16,1.47-.14,1.15-.1,.73-.07,.26-.02,.56-.04,.49-.06,.06,.22-.03,.54-.12,.55-.25,.59-.13,.89-.28,.42-.09,.27,.1,.28-.19,.56-.07,.34v.27s.16,.21,.16,.21l.21,.21,.13,.25-.13,.33,.41,.7,.21,.19,.44,.12,.22,.13,.22,.45,.39,.22,.25,.38,.04,.1,.02,.12v.27s.03,.12,.03,.12l.11,.24,.42,.55,.09,.25,.03,.62,.29,.42,.47,.89,.33,.31,.09-.17,.16-.07,.17,.03,.1,.09,.02-.04h.09l.15,.08h.19s.18-.1,.18-.1l.1-.16,.12,.09,.03,.03-.06,.09,.1,.1,.15-.15,.04-.11v-.12l.02-.17,.19-.29,.04-.16-.12-.19,1.13-.8,.11-.15v-.18s-.02-.29-.02-.29l-.07-.04-.3,.02-.12-.03v-.12l.11-.17,.16-.15,.13-.07,.28,.03,.45,.28,.25,.11-.18,.12-.1,.15,.04,.11,.24,.03,.17-.03,.79-.34,.8-.3,.9-.4,.21-.05,.17-.06,.38-.25,.17-.08,.81-.04,.39-.08,.2-.21-1.62-.06v-.1s.2-.02,.2-.02l.18-.07,.3-.18,1.08,.19,1.46,.89,.4,.02,.63-.13,.56-.29,.2-.41h.1s.06,.16,.06,.16l.19,.12,.12,.3,.12,.07h.17s.16-.01,.16-.01l.36,.06,.26,.13,.24,.07,.28-.16,.08-.11,.04-.11,.07-.09,.17-.06,.12-.09v-.17l-.03-.17,.04-.09h.01Zm-2.6,2.64l-.3-.1-.3-.16-.44-.03-.43,.06-.31,.13v.09l2.65,.15,.12-.07,.1-.07-.29-.08-.8,.08Zm-3.5,.22l-.07,.07-.09,.15,.11-.04,.2-.18v-.06s-.16,.07-.16,.07Z"/>
  <g>
    <path d="M47.84,41.28v5.05h-1.23v-3.16l-1.09,3.16h-1.07l-1.1-3.17v3.17h-1.23v-5.05h1.5l1.38,3.52,1.35-3.52h1.5Z"/>
    <path d="M52.14,45.64c-.14,.23-.34,.41-.6,.54-.27,.13-.59,.2-.97,.2-.57,0-1.04-.14-1.41-.42-.37-.28-.57-.67-.6-1.17h1.31c.02,.19,.09,.34,.21,.45,.12,.11,.27,.17,.45,.17,.16,0,.28-.04,.37-.13s.14-.2,.14-.35c0-.13-.04-.24-.13-.32-.08-.09-.19-.16-.31-.21-.12-.06-.3-.12-.52-.2-.32-.11-.58-.22-.79-.32s-.38-.26-.53-.46-.22-.47-.22-.8c0-.3,.08-.56,.23-.79,.15-.22,.37-.39,.64-.51,.27-.12,.58-.18,.93-.18,.57,0,1.02,.13,1.35,.4,.33,.27,.52,.64,.57,1.11h-1.33c-.02-.17-.09-.3-.18-.4-.1-.1-.23-.15-.4-.15-.14,0-.26,.04-.35,.11-.09,.08-.13,.19-.13,.34,0,.12,.04,.22,.12,.31s.18,.15,.3,.21c.12,.05,.29,.12,.52,.2,.33,.11,.59,.22,.8,.33,.21,.11,.38,.27,.53,.47,.15,.21,.22,.48,.22,.81,0,.27-.07,.52-.21,.74Z"/>
  </g>
</svg>