<?xml version="1.0" encoding="utf-8"?>
<!-- Generator: Adobe Illustrator 26.5.0, SVG Export Plug-In . SVG Version: 6.00 Build 0)  -->
<svg version="1.1" xmlns="http://www.w3.org/2000/svg" xmlns:xlink="http://www.w3.org/1999/xlink" x="0px" y="0px"
	 viewBox="0 0 90 90" style="enable-background:new 0 0 90 90;" xml:space="preserve">
<style type="text/css">
	.st0{fill:#CECECE;stroke:#F9F9F9;stroke-width:0.025;stroke-linecap:round;stroke-linejoin:round;}
	.st1{display:none;fill:none;stroke:#47CCCC;stroke-width:0.5;stroke-linecap:round;stroke-linejoin:round;}
	.st2{fill:#CECECE;}
</style>
<g id="ALABAMA">
</g>
<g id="ALASKA">
</g>
<g id="ARIZONA">
</g>
<g id="ARKANSAS_1_">
</g>
<g id="CALIFORNIA">
</g>
<g id="COLORADO">
</g>
<g id="CONNECTICUT">
</g>
<g id="DELAWARE">
</g>
<g id="DC">
</g>
<g id="FLORIDA">
</g>
<g id="GEORGIA">
</g>
<g id="HAWAII">
</g>
<g id="IDAHO">
</g>
<g id="IOWA">
</g>
<g id="ILLINOIS">
</g>
<g id="INDIANA">
</g>
<g id="KANSAS">
</g>
<g id="KETUCKY">
</g>
<g id="LOUISANA">
</g>
<g id="MAINE">
</g>
<g id="MARYLAND">
</g>
<g id="MASSACHUSETTS">
</g>
<g id="MICHIGAN">
</g>
<g id="MINNESOTA">
</g>
<g id="MISSOURI">
</g>
<g id="MISSISSIPPI">
</g>
<g id="MONTANA">
	<path id="MT_1_" class="st0" d="M83.67,57.61l-0.04,1l-0.03,1l-0.04,1l-0.03,1l-0.03,1l-0.04,1l-0.03,1l-0.04,1l-0.01,0.57
		l-0.01,0.12l-0.23-0.01l-0.76-0.03l-0.76-0.03l-0.76-0.03l-0.76-0.03l-0.76-0.04l-0.76-0.03l-0.76-0.04l-0.76-0.04l-0.76-0.03
		l-0.76-0.04l-0.76-0.04l-0.76-0.04l-0.76-0.04l-0.76-0.04l-0.76-0.04l-0.76-0.04l-0.76-0.04l-0.76-0.04l-0.76-0.04l-0.76-0.04
		l-0.76-0.04l-0.76-0.04l-0.76-0.05L65,65.38l-0.76-0.05l-0.76-0.04l-0.76-0.05l-0.76-0.05l-0.76-0.05l-0.76-0.05l-0.76-0.05
		l-0.76-0.05l-0.76-0.05l-0.76-0.06l-0.76-0.05l-0.76-0.06l-0.76-0.06l-0.76-0.05l-0.76-0.06l-0.76-0.06l-0.76-0.06l-0.76-0.06
		l-0.76-0.06l-0.76-0.06l-0.76-0.06l-0.76-0.06l-0.76-0.06l-0.76-0.06l-0.76-0.06l-0.76-0.06l-0.76-0.06l-0.75-0.07l-0.76-0.06
		l-0.76-0.07l-0.76-0.06l-0.76-0.07l-0.76-0.07l-0.76-0.07l-0.75-0.07l-0.76-0.07l-0.76-0.07l-0.76-0.08l-0.76-0.07l-0.75-0.08
		l-0.35-0.04l-0.01,0.15l-0.03,0.28l-0.03,0.28l-0.03,0.28l-0.03,0.28l-0.03,0.28l-0.03,0.28l-0.03,0.28l-0.03,0.28l-0.03,0.28
		l-0.03,0.28l-0.03,0.28l-0.03,0.28l-0.03,0.28L34,66.99l-0.03,0.28l-0.03,0.28l-0.3-0.11l-0.11-0.09l-0.18-0.25l-0.1-0.21
		l-0.08-0.11L33.1,66.7l-0.1-0.06l-0.05-0.04l-0.04-0.04l-0.01-0.04l-0.01-0.04l-0.01-0.05V66.3l0.01-0.06l0.01-0.06l-0.02-0.07
		l-0.04-0.04l-0.05-0.04l-0.06-0.04l-0.03-0.04l-0.04-0.12l-0.24-0.45l-0.05-0.17l-0.06-0.06l-0.24-0.16l-0.09-0.03l-0.06-0.01
		l-0.04,0.03L31.8,65.1l-0.04,0.04l-0.06,0.01h-0.2l-0.05,0.01l-0.09,0.04l-0.07,0.06l-0.03,0.04l-0.01,0.04l0.01,0.04l0.01,0.04
		l0.03,0.04l0.02,0.04l0.01,0.04l0.01,0.06l-0.01,0.05l-0.02,0.06l-0.03,0.03l-0.04,0.02l-0.19,0.05l-0.04,0.03l-0.02,0.04
		l-0.02,0.1l-0.01,0.04l-0.06,0.1l-0.02,0.05l-0.01,0.06v0.05v0.05l0.01,0.1l0.01,0.04l0.01,0.02l0.01,0.03l0.03,0.03l0.04,0.02
		l0.16,0.07l0.04,0.04l0.01,0.04v0.04l-0.05,0.02l-0.07,0.01h-0.12l-0.06-0.01l-0.04-0.01l-0.08-0.07l-0.2-0.12l-0.08-0.03
		l-0.76-0.09l-0.11,0.01l-0.33,0.16l-0.05,0.02l-0.12,0.01l-0.14-0.01l-0.06,0.01l-0.15,0.05l-0.06-0.01l-0.05-0.02l-0.04-0.03
		l-0.02-0.04l-0.01-0.04l-0.05-0.08l-0.04-0.04l-0.06-0.05l-0.12-0.06L28,66.31l-0.06,0.01l-0.06,0.01l-0.04,0.03l-0.06,0.02
		l-0.07,0.01l-0.13,0.01l-0.11-0.03l-0.68,0.04l-0.06-0.01l-0.16-0.08l-0.19-0.07l-0.13-0.02l-0.16-0.01l-0.08-0.01l-0.05-0.03
		l-0.09-0.08l-0.1-0.06l-0.06-0.01l-0.05,0.01l-0.06,0.06l-0.04,0.02l-0.06,0.01l-0.18,0.02l-0.11,0.04l-0.08,0.04l-0.04,0.02
		l-0.03,0.04l-0.03,0.04l-0.08,0.21l-0.16,0.29l-0.04,0.04l-0.06,0.04l-0.11,0.02h-0.08l-0.06-0.02l-0.04-0.04l-0.03-0.04
		l-0.04-0.04l-0.06-0.05l-0.13-0.05l-0.11-0.01l-0.19,0.01l-0.04-0.01l-0.06-0.06l-0.04-0.03l-0.04-0.03l-0.84-0.2l-0.23-0.09
		l-0.07-0.01l-0.06,0.01l-0.13,0.06l-0.04,0.01l-0.21,0.02l-0.04,0.02l-0.45,0.34l-0.04,0.04l-0.03,0.04l-0.03,0.04l-0.02,0.04
		l-0.01,0.06l0.01,0.04l0.1,0.21l-0.01,0.05l-0.04,0.05l-0.12,0.04l-0.06-0.01l-0.04-0.03l-0.14-0.24L21.15,67l-0.04-0.03l-0.3-0.13
		l-0.04-0.04l-0.04-0.04l-0.09-0.16l-0.04-0.05l-0.06-0.04l-0.11-0.06l-0.06-0.04l-0.02-0.06l0.01-0.11l-0.01-0.04l-0.05-0.13
		l-0.01-0.04l0.01-0.02l0.04-0.08l0.08-0.13l0.01-0.05l-0.01-0.05l-0.04-0.06l-0.11-0.06l-0.05-0.05l-0.04-0.05l0.01-0.11
		l-0.01-0.05l-0.01-0.04l-0.16-0.22L20,65.03v-0.04l0.01-0.05l0.03-0.04l0.04-0.03l0.08-0.05l0.04-0.04l0.03-0.03l0.01-0.05v-0.05
		l-0.01-0.04l-0.04-0.08l-0.06-0.13l-0.01-0.04l-0.04-0.14l-0.01-0.04l-0.02-0.04l-0.05-0.08l-0.02-0.04l-0.01-0.04l-0.01-0.05
		l-0.01-0.05l-0.01-0.04l-0.01-0.04l-0.02-0.04l-0.08-0.11l-0.03-0.04l-0.08-0.16l-0.02-0.04l-0.11-0.14l-0.15-0.15l-0.17-0.11
		l-0.16-0.06l-0.12-0.02l-0.05,0.01l-0.05,0.01l-0.04,0.02l-0.16,0.11l-0.06,0.02l-0.07,0.01l-0.13-0.01l-0.06-0.02l-0.04-0.04
		v-0.16l-0.01-0.05l-0.05-0.06l-0.09-0.07l-0.3-0.18l-0.08-0.07l-0.05-0.08l-0.04-0.09l-0.06-0.28l-0.03-0.09l-0.04-0.08l-0.06-0.08
		L17.5,61.7l-0.01-0.04l0.01-0.04l0.04-0.03l0.04-0.02l0.14-0.04l0.04-0.03l0.04-0.04l0.03-0.04l0.02-0.05l0.07-0.22l0.01-0.05
		v-0.01l-0.01-0.15l-0.01-0.05l-0.08-0.27l-0.03-0.09l-0.18-0.32l-0.01-0.04l-0.02-0.17l-0.04-0.07l-0.05-0.04l-0.23-0.02
		l-0.06-0.03l-0.04-0.04l-0.01-0.05l0.01-0.11l-0.01-0.05l-0.02-0.04l-0.05-0.08l-0.01-0.04l-0.01-0.05v-0.06l-0.01-0.09l-0.01-0.05
		l-0.04-0.08l-0.09-0.12l-0.1-0.1l-0.12-0.17l-0.11-0.11l-0.03-0.05l-0.01-0.05l0.01-0.1l-0.01-0.06l-0.02-0.05l-0.05-0.06
		l-0.14-0.13l-0.04-0.05l-0.02-0.04l-0.01-0.04l0.01-0.11l0.01-0.06l0.03-0.11l0.04-0.23l0.01-0.11l-0.02-0.06l-0.04-0.06
		l-0.18-0.18L16.13,57V56.9l-0.01-0.04l-0.01-0.05l0.01-0.05l0.01-0.06l0.02-0.05l0.06-0.08l0.02-0.05l0.01-0.05v-0.16l0.01-0.06
		l0.01-0.01l-0.01-0.07l-0.06-0.07l-0.2-0.11l-0.05-0.06l-0.02-0.06l0.01-0.06l0.03-0.11l0.05-0.1l0.02-0.04l0.06-0.07l0.03-0.04
		l0.01-0.05l-0.01-0.05l-0.02-0.06l-0.06-0.07l-0.04-0.05l-0.06-0.03l-0.34-0.16l-0.08-0.06l-0.04-0.06l0.01-0.1l-0.01-0.05
		l-0.01-0.04l-0.16-0.17l-0.22-0.2l-0.13-0.08l-0.08-0.04l-0.04,0.01l-0.03,0.02l-0.02,0.02l-0.01,0.04l-0.01,0.06l-0.01,0.05
		l0.01,0.04l0.01,0.06v0.04v0.05l-0.01,0.04l-0.02,0.01l-0.04,0.01l-0.18,0.04l-0.05,0.01l-0.04,0.02l-0.04,0.03l-0.04,0.04
		l-0.06,0.09l-0.02,0.05l-0.03,0.04l-0.04,0.04l-0.04,0.02l-0.13,0.06l-0.04,0.03l-0.03,0.04l-0.03,0.04l-0.02,0.04l-0.03,0.03
		l-0.04,0.02l-0.29,0.08l-0.17,0.08l-0.04,0.01H13.3l-0.11-0.03h-0.06l-0.04,0.01l-0.04,0.02l-0.04,0.03l-0.04,0.04l-0.03,0.04
		l-0.1,0.18l-0.04,0.04l-0.01,0.01l-0.04,0.02l-0.17,0.06l-0.04,0.02l-0.06,0.01l-0.08,0.01l-0.14-0.03l-0.07-0.04l-0.05-0.04
		l-0.02-0.04l-0.03-0.07l-0.22-0.15l-0.06-0.06l-0.04-0.06l-0.01-0.05l-0.01-0.06l-0.03-0.06l-0.21-0.19l-0.06-0.03l-0.31-0.11
		l-0.13-0.01l-0.1-0.03l-0.02-0.04l0.01-0.04L11,54.75l0.03-0.04l0.01-0.05V54.6l-0.02-0.06L11,54.46l-0.01-0.06L11,54.35l0.04-0.03
		l0.16-0.1l0.11-0.08l0.02-0.02l0.01-0.03l0.02-0.04l0.02-0.05l0.01-0.05l-0.01-0.1l0.01-0.04l0.04-0.08v-0.06l-0.04-0.07
		l-0.16-0.19l-0.04-0.06l-0.01-0.05l-0.02-0.13l-0.04-0.09l-0.01-0.07l0.01-0.04l0.04-0.03l0.08-0.06l0.04-0.03l0.03-0.04l0.03-0.04
		l0.06-0.08l0.09-0.11l0.04-0.08l0.02-0.02l0.03-0.03l0.08-0.04l0.04-0.01l0.05-0.01l0.24,0.02h0.05l0.05-0.01l0.04-0.02l0.18-0.13
		l0.04-0.04l0.01-0.06v-0.06l-0.11-0.24l-0.02-0.05l-0.01-0.04v-0.05l0.01-0.06l0.02-0.05l0.02-0.05l0.08-0.12l0.02-0.05v-0.06
		l-0.01-0.06l-0.05-0.04l-0.18-0.07l-0.15-0.09L11.94,51l-0.01-0.06l0.02-0.05l0.01-0.06v-0.06l-0.04-0.1l-0.01-0.07l0.01-0.06
		l0.02-0.05l0.03-0.04l0.16-0.18l0.03-0.04l0.02-0.04l0.01-0.06l0.01-0.05l-0.01-0.05L12.15,50l-0.23-0.31l-0.03-0.06v-0.05
		l0.01-0.05l0.02-0.04l0.01-0.01l0.04-0.02l0.04-0.01l0.23,0.01l0.05-0.01l0.04-0.02l0.04-0.03l0.03-0.04l0.01-0.05l0.01-0.06
		l-0.01-0.1L12.43,49v-0.05l-0.01-0.05l-0.03-0.1l-0.02-0.06l-0.01-0.06v-0.05l0.02-0.04l0.02-0.03l0.07-0.07l0.03-0.04l0.02-0.05
		l0.02-0.11l0.01-0.05l0.03-0.04l0.16-0.18l0.03-0.04l0.02-0.05l0.01-0.06l0.01-0.11l0.01-0.11l0.04-0.11l0.04-0.1l0.2-0.3
		l0.02-0.06l0.02-0.05l0.01-0.06v-0.06l-0.01-0.05l-0.02-0.05l-0.02-0.06l-0.08-0.12L13,46.61v-0.01v-0.01l0.02-0.04l0.03-0.02
		l0.04-0.01l0.2-0.04l0.04-0.02l0.04-0.02l0.04-0.03l0.03-0.03l0.02-0.05l-0.01-0.04l-0.01-0.04l-0.01-0.04l-0.01-0.05l0.01-0.05
		l0.02-0.04l0.06-0.07l0.02-0.05l0.01-0.04v-0.06l-0.01-0.04l0.01-0.05l0.01-0.05l0.02-0.05l0.06-0.08l0.04-0.11l0.02-0.17
		l0.01-0.06l-0.01-0.06l-0.02-0.06l-0.04-0.04l-0.05-0.03l-0.06-0.01l-0.06-0.01l-0.47,0.06l-0.04,0.01l-0.12,0.06l-0.09,0.04
		l-0.05,0.01h-0.06l-0.05-0.01l-0.11-0.06l-0.04-0.01H12.4l-0.16,0.04l-0.09,0.01l-0.11-0.01l-0.09-0.04l-0.09-0.05l-0.15-0.12
		l-0.06-0.07l-0.04-0.06l-0.01-0.04l-0.01-0.05l0.01-0.05l0.03-0.04l0.11-0.1l0.01-0.05V44.4l-0.05-0.09l-0.04-0.06l-0.16-0.14
		l-0.05-0.03l-0.05-0.01h-0.06h-0.04l-0.05,0.02l-0.12,0.07l-0.17,0.16l-0.05,0.02h-0.06l-0.06-0.02l-0.03-0.04l-0.01-0.04
		l0.01-0.05l0.08-0.21l0.01-0.06l0.01-0.06l-0.02-0.07l-0.03-0.04l-0.04-0.04l-0.19-0.08l-0.1-0.06l-0.06-0.07l-0.08-0.12
		l-0.06-0.07l-0.19-0.16l-0.06-0.06l-0.04-0.05L9.95,42.9l-0.01-0.1l-0.01-0.1l0.01-0.16l0.01-0.06l0.01-0.06l0.03-0.05l0.01-0.04
		V42.3l-0.04-0.04l-0.16-0.12l-0.05-0.05l-0.04-0.05l-0.16-0.26l-0.04-0.05l-0.04-0.04l-0.13-0.05l-0.09-0.05l-0.05-0.04L9.19,41.5
		l-0.01-0.02v-0.02L9.17,41.3l-0.01-0.05l-0.52-0.7l-0.07-0.23l-0.15-0.27l-0.06-0.08L8.2,39.84l-0.05-0.07l-0.06-0.09l-0.04-0.05
		l-0.05-0.04l-0.06-0.04L7.91,39.5l-0.02-0.05l-0.01-0.1l-0.01-0.04l-0.02-0.05L7.81,39.2l-0.02-0.05l-0.05-0.14l-0.06-0.12
		l-0.05-0.06l-0.05-0.05l-0.57-0.31l-0.33-0.1l-0.09-0.06l-0.05-0.04l-0.03-0.05L6.46,38.1l-0.04-0.13L6.33,37.8l-0.18-0.27
		l-0.06-0.06l-0.46-0.38l-0.25-0.11l-0.11-0.06l-0.04-0.06l-0.01-0.05l0.01-0.04l0.03-0.03l0.02-0.01l0.04-0.02l0.04-0.01l0.29,0.02
		l0.05-0.01l0.05-0.01l0.04-0.01l0.04-0.04l0.02-0.04l-0.02-0.06l-0.06-0.05l-0.1-0.06l-0.06-0.05l-0.01-0.01l-0.01-0.19l-0.04-0.11
		l-0.05-0.06l-0.16-0.13l-0.03-0.05v-0.05l0.04-0.03l0.04-0.02l0.18-0.06l0.04-0.03l0.04-0.03l0.04-0.04l0.06-0.08l0.02-0.05
		l-0.01-0.08l-0.03-0.1l-0.15-0.29l-0.02-0.08l0.05-0.22l0.01-0.06L5.6,34.55l-0.03-0.09l-0.04-0.05l-0.18-0.15l-0.03-0.05
		l-0.01-0.06l-0.01-0.06L5.28,34l-0.06-0.06l-0.16-0.12l-0.04-0.06l-0.02-0.06l-0.06-0.45L4.92,33.2l-0.04-0.08l-0.05-0.05
		l-0.14-0.11l-0.06-0.06l-0.06-0.1l-0.06-0.08l-0.08-0.08L4.4,32.59l-0.02-0.05l-0.04-0.11l-0.13-0.23l-0.06-0.15l-0.16-0.25
		l-0.13-0.15l-0.04-0.1L3.8,31.5l0.06-0.45L4.02,30l0.15-1.05l0.16-1.05l0.16-1.05l0.16-1.05l0.16-1.05l0.15-1.05l0.16-1.05
		l1.36,0.2l1.45,0.21l1.45,0.21l1.44,0.2l1.45,0.2l1.44,0.2l1.45,0.19l1.45,0.19l1.45,0.18l0.11,0.01l1.34,0.17l1.45,0.18l1.45,0.18
		l1.45,0.18l1.45,0.17l1.45,0.17l1.45,0.16l1.45,0.17l1.46,0.16l1.45,0.16l1.45,0.16l1.46,0.15l1.45,0.15l1.46,0.15l1.45,0.14
		l1.46,0.14l1.46,0.14l1.45,0.13l0.83,0.07l0.62,0.06l1.46,0.13l1.45,0.13l1.46,0.12l1.46,0.12l1.46,0.12l1.46,0.11l1.46,0.11
		l1.46,0.11l1.46,0.11l1.46,0.11l1.46,0.1l1.46,0.09l1.46,0.1l1.46,0.09l1.46,0.08l1.46,0.08l1.46,0.08l1.46,0.08l1.46,0.08
		l1.46,0.08l1.46,0.07l1.46,0.07l1.46,0.06l1.46,0.06l1.46,0.06l1.46,0.06l1.04,0.04l-0.06,1.71l-0.05,1.72l-0.06,1.72l-0.05,1.73
		l-0.06,1.73l-0.05,1.72l-0.06,1.73l-0.06,1.73l-0.05,1.73l-0.06,1.74l-0.05,1.73l-0.06,1.75l-0.06,1.74l-0.05,1.75l-0.06,1.75
		L83.67,57.61L83.67,57.61z"/>
	<path id="MT_3_" class="st1" d="M83.67,57.61l-0.04,1l-0.03,1l-0.04,1l-0.03,1l-0.03,1l-0.04,1l-0.03,1l-0.04,1l-0.01,0.57
		l-0.01,0.12l-0.23-0.01l-0.76-0.03l-0.76-0.03l-0.76-0.03l-0.76-0.03l-0.76-0.04l-0.76-0.03l-0.76-0.04l-0.76-0.04l-0.76-0.03
		l-0.76-0.04l-0.76-0.04l-0.76-0.04l-0.76-0.04l-0.76-0.04l-0.76-0.04l-0.76-0.04l-0.76-0.04l-0.76-0.04l-0.76-0.04l-0.76-0.04
		l-0.76-0.04l-0.76-0.04l-0.76-0.05L65,65.38l-0.76-0.05l-0.76-0.04l-0.76-0.05l-0.76-0.05l-0.76-0.05l-0.76-0.05l-0.76-0.05
		l-0.76-0.05l-0.76-0.05l-0.76-0.06l-0.76-0.05l-0.76-0.06l-0.76-0.06l-0.76-0.05l-0.76-0.06l-0.76-0.06l-0.76-0.06l-0.76-0.06
		l-0.76-0.06l-0.76-0.06l-0.76-0.06l-0.76-0.06l-0.76-0.06l-0.76-0.06l-0.76-0.06l-0.76-0.06l-0.76-0.06l-0.75-0.07l-0.76-0.06
		l-0.76-0.07l-0.76-0.06l-0.76-0.07l-0.76-0.07l-0.76-0.07l-0.75-0.07l-0.76-0.07l-0.76-0.07l-0.76-0.08l-0.76-0.07l-0.75-0.08
		l-0.35-0.04l-0.01,0.15l-0.03,0.28l-0.03,0.28l-0.03,0.28l-0.03,0.28l-0.03,0.28l-0.03,0.28l-0.03,0.28l-0.03,0.28l-0.03,0.28
		l-0.03,0.28l-0.03,0.28l-0.03,0.28l-0.03,0.28L34,66.99l-0.03,0.28l-0.03,0.28l-0.3-0.11l-0.11-0.09l-0.18-0.25l-0.1-0.21
		l-0.08-0.11L33.1,66.7l-0.1-0.06l-0.05-0.04l-0.04-0.04l-0.01-0.04l-0.01-0.04l-0.01-0.05V66.3l0.01-0.06l0.01-0.06l-0.02-0.07
		l-0.04-0.04l-0.05-0.04l-0.06-0.04l-0.03-0.04l-0.04-0.12l-0.24-0.45l-0.05-0.17l-0.06-0.06l-0.24-0.16l-0.09-0.03l-0.06-0.01
		l-0.04,0.03L31.8,65.1l-0.04,0.04l-0.06,0.01h-0.2l-0.05,0.01l-0.09,0.04l-0.07,0.06l-0.03,0.04l-0.01,0.04l0.01,0.04l0.01,0.04
		l0.03,0.04l0.02,0.04l0.01,0.04l0.01,0.06l-0.01,0.05l-0.02,0.06l-0.03,0.03l-0.04,0.02l-0.19,0.05l-0.04,0.03l-0.02,0.04
		l-0.02,0.1l-0.01,0.04l-0.06,0.1l-0.02,0.05l-0.01,0.06v0.05v0.05l0.01,0.1l0.01,0.04l0.01,0.02l0.01,0.03l0.03,0.03l0.04,0.02
		l0.16,0.07l0.04,0.04l0.01,0.04v0.04l-0.05,0.02l-0.07,0.01h-0.12l-0.06-0.01l-0.04-0.01l-0.08-0.07l-0.2-0.12l-0.08-0.03
		l-0.76-0.09l-0.11,0.01l-0.33,0.16l-0.05,0.02l-0.12,0.01l-0.14-0.01l-0.06,0.01l-0.15,0.05l-0.06-0.01l-0.05-0.02l-0.04-0.03
		l-0.02-0.04l-0.01-0.04l-0.05-0.08l-0.04-0.04l-0.06-0.05l-0.12-0.06L28,66.31l-0.06,0.01l-0.06,0.01l-0.04,0.03l-0.06,0.02
		l-0.07,0.01l-0.13,0.01l-0.11-0.03l-0.68,0.04l-0.06-0.01l-0.16-0.08l-0.19-0.07l-0.13-0.02l-0.16-0.01l-0.08-0.01l-0.05-0.03
		l-0.09-0.08l-0.1-0.06l-0.06-0.01l-0.05,0.01l-0.06,0.06l-0.04,0.02l-0.06,0.01l-0.18,0.02l-0.11,0.04l-0.08,0.04l-0.04,0.02
		l-0.03,0.04l-0.03,0.04l-0.08,0.21l-0.16,0.29l-0.04,0.04l-0.06,0.04l-0.11,0.02h-0.08l-0.06-0.02l-0.04-0.04l-0.03-0.04
		l-0.04-0.04l-0.06-0.05l-0.13-0.05l-0.11-0.01l-0.19,0.01l-0.04-0.01l-0.06-0.06l-0.04-0.03l-0.04-0.03l-0.84-0.2l-0.23-0.09
		l-0.07-0.01l-0.06,0.01l-0.13,0.06l-0.04,0.01l-0.21,0.02l-0.04,0.02l-0.45,0.34l-0.04,0.04l-0.03,0.04l-0.03,0.04l-0.02,0.04
		l-0.01,0.06l0.01,0.04l0.1,0.21l-0.01,0.05l-0.04,0.05l-0.12,0.04l-0.06-0.01l-0.04-0.03l-0.14-0.24L21.15,67l-0.04-0.03l-0.3-0.13
		l-0.04-0.04l-0.04-0.04l-0.09-0.16l-0.04-0.05l-0.06-0.04l-0.11-0.06l-0.06-0.04l-0.02-0.06l0.01-0.11l-0.01-0.04l-0.05-0.13
		l-0.01-0.04l0.01-0.02l0.04-0.08l0.08-0.13l0.01-0.05l-0.01-0.05l-0.04-0.06l-0.11-0.06l-0.05-0.05l-0.04-0.05l0.01-0.11
		l-0.01-0.05l-0.01-0.04l-0.16-0.22L20,65.03v-0.04l0.01-0.05l0.03-0.04l0.04-0.03l0.08-0.05l0.04-0.04l0.03-0.03l0.01-0.05v-0.05
		l-0.01-0.04l-0.04-0.08l-0.06-0.13l-0.01-0.04l-0.04-0.14l-0.01-0.04l-0.02-0.04l-0.05-0.08l-0.02-0.04l-0.01-0.04l-0.01-0.05
		l-0.01-0.05l-0.01-0.04l-0.01-0.04l-0.02-0.04l-0.08-0.11l-0.03-0.04l-0.08-0.16l-0.02-0.04l-0.11-0.14l-0.15-0.15l-0.17-0.11
		l-0.16-0.06l-0.12-0.02l-0.05,0.01l-0.05,0.01l-0.04,0.02l-0.16,0.11l-0.06,0.02l-0.07,0.01l-0.13-0.01l-0.06-0.02l-0.04-0.04
		v-0.16l-0.01-0.05l-0.05-0.06l-0.09-0.07l-0.3-0.18l-0.08-0.07l-0.05-0.08l-0.04-0.09l-0.06-0.28l-0.03-0.09l-0.04-0.08l-0.06-0.08
		L17.5,61.7l-0.01-0.04l0.01-0.04l0.04-0.03l0.04-0.02l0.14-0.04l0.04-0.03l0.04-0.04l0.03-0.04l0.02-0.05l0.07-0.22l0.01-0.05
		v-0.01l-0.01-0.15l-0.01-0.05l-0.08-0.27l-0.03-0.09l-0.18-0.32l-0.01-0.04l-0.02-0.17l-0.04-0.07l-0.05-0.04l-0.23-0.02
		l-0.06-0.03l-0.04-0.04l-0.01-0.05l0.01-0.11l-0.01-0.05l-0.02-0.04l-0.05-0.08l-0.01-0.04l-0.01-0.05v-0.06l-0.01-0.09l-0.01-0.05
		l-0.04-0.08l-0.09-0.12l-0.1-0.1l-0.12-0.17l-0.11-0.11l-0.03-0.05l-0.01-0.05l0.01-0.1l-0.01-0.06l-0.02-0.05l-0.05-0.06
		l-0.14-0.13l-0.04-0.05l-0.02-0.04l-0.01-0.04l0.01-0.11l0.01-0.06l0.03-0.11l0.04-0.23l0.01-0.11l-0.02-0.06l-0.04-0.06
		l-0.18-0.18L16.13,57V56.9l-0.01-0.04l-0.01-0.05l0.01-0.05l0.01-0.06l0.02-0.05l0.06-0.08l0.02-0.05l0.01-0.05v-0.16l0.01-0.06
		l0.01-0.01l-0.01-0.07l-0.06-0.07l-0.2-0.11l-0.05-0.06l-0.02-0.06l0.01-0.06l0.03-0.11l0.05-0.1l0.02-0.04l0.06-0.07l0.03-0.04
		l0.01-0.05l-0.01-0.05l-0.02-0.06l-0.06-0.07l-0.04-0.05l-0.06-0.03l-0.34-0.16l-0.08-0.06l-0.04-0.06l0.01-0.1l-0.01-0.05
		l-0.01-0.04l-0.16-0.17l-0.22-0.2l-0.13-0.08l-0.08-0.04l-0.04,0.01l-0.03,0.02l-0.02,0.02l-0.01,0.04l-0.01,0.06l-0.01,0.05
		l0.01,0.04l0.01,0.06v0.04v0.05l-0.01,0.04l-0.02,0.01l-0.04,0.01l-0.18,0.04l-0.05,0.01l-0.04,0.02l-0.04,0.03l-0.04,0.04
		l-0.06,0.09l-0.02,0.05l-0.03,0.04l-0.04,0.04l-0.04,0.02l-0.13,0.06l-0.04,0.03l-0.03,0.04l-0.03,0.04l-0.02,0.04l-0.03,0.03
		l-0.04,0.02l-0.29,0.08l-0.17,0.08l-0.04,0.01H13.3l-0.11-0.03h-0.06l-0.04,0.01l-0.04,0.02l-0.04,0.03l-0.04,0.04l-0.03,0.04
		l-0.1,0.18l-0.04,0.04l-0.01,0.01l-0.04,0.02l-0.17,0.06l-0.04,0.02l-0.06,0.01l-0.08,0.01l-0.14-0.03l-0.07-0.04l-0.05-0.04
		l-0.02-0.04l-0.03-0.07l-0.22-0.15l-0.06-0.06l-0.04-0.06l-0.01-0.05l-0.01-0.06l-0.03-0.06l-0.21-0.19l-0.06-0.03l-0.31-0.11
		l-0.13-0.01l-0.1-0.03l-0.02-0.04l0.01-0.04L11,54.75l0.03-0.04l0.01-0.05V54.6l-0.02-0.06L11,54.46l-0.01-0.06L11,54.35l0.04-0.03
		l0.16-0.1l0.11-0.08l0.02-0.02l0.01-0.03l0.02-0.04l0.02-0.05l0.01-0.05l-0.01-0.1l0.01-0.04l0.04-0.08v-0.06l-0.04-0.07
		l-0.16-0.19l-0.04-0.06l-0.01-0.05l-0.02-0.13l-0.04-0.09l-0.01-0.07l0.01-0.04l0.04-0.03l0.08-0.06l0.04-0.03l0.03-0.04l0.03-0.04
		l0.06-0.08l0.09-0.11l0.04-0.08l0.02-0.02l0.03-0.03l0.08-0.04l0.04-0.01l0.05-0.01l0.24,0.02h0.05l0.05-0.01l0.04-0.02l0.18-0.13
		l0.04-0.04l0.01-0.06v-0.06l-0.11-0.24l-0.02-0.05l-0.01-0.04v-0.05l0.01-0.06l0.02-0.05l0.02-0.05l0.08-0.12l0.02-0.05v-0.06
		l-0.01-0.06l-0.05-0.04l-0.18-0.07l-0.15-0.09L11.94,51l-0.01-0.06l0.02-0.05l0.01-0.06v-0.06l-0.04-0.1l-0.01-0.07l0.01-0.06
		l0.02-0.05l0.03-0.04l0.16-0.18l0.03-0.04l0.02-0.04l0.01-0.06l0.01-0.05l-0.01-0.05L12.15,50l-0.23-0.31l-0.03-0.06v-0.05
		l0.01-0.05l0.02-0.04l0.01-0.01l0.04-0.02l0.04-0.01l0.23,0.01l0.05-0.01l0.04-0.02l0.04-0.03l0.03-0.04l0.01-0.05l0.01-0.06
		l-0.01-0.1L12.43,49v-0.05l-0.01-0.05l-0.03-0.1l-0.02-0.06l-0.01-0.06v-0.05l0.02-0.04l0.02-0.03l0.07-0.07l0.03-0.04l0.02-0.05
		l0.02-0.11l0.01-0.05l0.03-0.04l0.16-0.18l0.03-0.04l0.02-0.05l0.01-0.06l0.01-0.11l0.01-0.11l0.04-0.11l0.04-0.1l0.2-0.3
		l0.02-0.06l0.02-0.05l0.01-0.06v-0.06l-0.01-0.05l-0.02-0.05l-0.02-0.06l-0.08-0.12L13,46.61v-0.01v-0.01l0.02-0.04l0.03-0.02
		l0.04-0.01l0.2-0.04l0.04-0.02l0.04-0.02l0.04-0.03l0.03-0.03l0.02-0.05l-0.01-0.04l-0.01-0.04l-0.01-0.04l-0.01-0.05l0.01-0.05
		l0.02-0.04l0.06-0.07l0.02-0.05l0.01-0.04v-0.06l-0.01-0.04l0.01-0.05l0.01-0.05l0.02-0.05l0.06-0.08l0.04-0.11l0.02-0.17
		l0.01-0.06l-0.01-0.06l-0.02-0.06l-0.04-0.04l-0.05-0.03l-0.06-0.01l-0.06-0.01l-0.47,0.06l-0.04,0.01l-0.12,0.06l-0.09,0.04
		l-0.05,0.01h-0.06l-0.05-0.01l-0.11-0.06l-0.04-0.01H12.4l-0.16,0.04l-0.09,0.01l-0.11-0.01l-0.09-0.04l-0.09-0.05l-0.15-0.12
		l-0.06-0.07l-0.04-0.06l-0.01-0.04l-0.01-0.05l0.01-0.05l0.03-0.04l0.11-0.1l0.01-0.05V44.4l-0.05-0.09l-0.04-0.06l-0.16-0.14
		l-0.05-0.03l-0.05-0.01h-0.06h-0.04l-0.05,0.02l-0.12,0.07l-0.17,0.16l-0.05,0.02h-0.06l-0.06-0.02l-0.03-0.04l-0.01-0.04
		l0.01-0.05l0.08-0.21l0.01-0.06l0.01-0.06l-0.02-0.07l-0.03-0.04l-0.04-0.04l-0.19-0.08l-0.1-0.06l-0.06-0.07l-0.08-0.12
		l-0.06-0.07l-0.19-0.16l-0.06-0.06l-0.04-0.05L9.95,42.9l-0.01-0.1l-0.01-0.1l0.01-0.16l0.01-0.06l0.01-0.06l0.03-0.05l0.01-0.04
		V42.3l-0.04-0.04l-0.16-0.12l-0.05-0.05l-0.04-0.05l-0.16-0.26l-0.04-0.05l-0.04-0.04l-0.13-0.05l-0.09-0.05l-0.05-0.04L9.19,41.5
		l-0.01-0.02v-0.02L9.17,41.3l-0.01-0.05l-0.52-0.7l-0.07-0.23l-0.15-0.27l-0.06-0.08L8.2,39.84l-0.05-0.07l-0.06-0.09l-0.04-0.05
		l-0.05-0.04l-0.06-0.04L7.91,39.5l-0.02-0.05l-0.01-0.1l-0.01-0.04l-0.02-0.05L7.81,39.2l-0.02-0.05l-0.05-0.14l-0.06-0.12
		l-0.05-0.06l-0.05-0.05l-0.57-0.31l-0.33-0.1l-0.09-0.06l-0.05-0.04l-0.03-0.05L6.46,38.1l-0.04-0.13L6.33,37.8l-0.18-0.27
		l-0.06-0.06l-0.46-0.38l-0.25-0.11l-0.11-0.06l-0.04-0.06l-0.01-0.05l0.01-0.04l0.03-0.03l0.02-0.01l0.04-0.02l0.04-0.01l0.29,0.02
		l0.05-0.01l0.05-0.01l0.04-0.01l0.04-0.04l0.02-0.04l-0.02-0.06l-0.06-0.05l-0.1-0.06l-0.06-0.05l-0.01-0.01l-0.01-0.19l-0.04-0.11
		l-0.05-0.06l-0.16-0.13l-0.03-0.05v-0.05l0.04-0.03l0.04-0.02l0.18-0.06l0.04-0.03l0.04-0.03l0.04-0.04l0.06-0.08l0.02-0.05
		l-0.01-0.08l-0.03-0.1l-0.15-0.29l-0.02-0.08l0.05-0.22l0.01-0.06L5.6,34.55l-0.03-0.09l-0.04-0.05l-0.18-0.15l-0.03-0.05
		l-0.01-0.06l-0.01-0.06L5.28,34l-0.06-0.06l-0.16-0.12l-0.04-0.06l-0.02-0.06l-0.06-0.45L4.92,33.2l-0.04-0.08l-0.05-0.05
		l-0.14-0.11l-0.06-0.06l-0.06-0.1l-0.06-0.08l-0.08-0.08L4.4,32.59l-0.02-0.05l-0.04-0.11l-0.13-0.23l-0.06-0.15l-0.16-0.25
		l-0.13-0.15l-0.04-0.1L3.8,31.5l0.06-0.45L4.02,30l0.15-1.05l0.16-1.05l0.16-1.05l0.16-1.05l0.16-1.05l0.15-1.05l0.16-1.05
		l1.36,0.2l1.45,0.21l1.45,0.21l1.44,0.2l1.45,0.2l1.44,0.2l1.45,0.19l1.45,0.19l1.45,0.18l0.11,0.01l1.34,0.17l1.45,0.18l1.45,0.18
		l1.45,0.18l1.45,0.17l1.45,0.17l1.45,0.16l1.45,0.17l1.46,0.16l1.45,0.16l1.45,0.16l1.46,0.15l1.45,0.15l1.46,0.15l1.45,0.14
		l1.46,0.14l1.46,0.14l1.45,0.13l0.83,0.07l0.62,0.06l1.46,0.13l1.45,0.13l1.46,0.12l1.46,0.12l1.46,0.12l1.46,0.11l1.46,0.11
		l1.46,0.11l1.46,0.11l1.46,0.11l1.46,0.1l1.46,0.09l1.46,0.1l1.46,0.09l1.46,0.08l1.46,0.08l1.46,0.08l1.46,0.08l1.46,0.08
		l1.46,0.08l1.46,0.07l1.46,0.07l1.46,0.06l1.46,0.06l1.46,0.06l1.46,0.06l1.04,0.04l-0.06,1.71l-0.05,1.72l-0.06,1.72l-0.05,1.73
		l-0.06,1.73l-0.05,1.72l-0.06,1.73l-0.06,1.73l-0.05,1.73l-0.06,1.74l-0.05,1.73l-0.06,1.75l-0.06,1.74l-0.05,1.75l-0.06,1.75
		L83.67,57.61L83.67,57.61z"/>
</g>
<g id="NORTH_CAROLINA">
</g>
<g id="NORTH_DAKOTA">
</g>
<g id="NEBRASKA">
</g>
<g id="NEW_HAMPSHIRE">
</g>
<g id="NEW_JERSEY">
</g>
<g id="NEW_YORK">
</g>
<g id="NEW_MEXICO">
</g>
<g id="NEVADA">
</g>
<g id="OHIO">
</g>
<g id="OKLAHOMA">
</g>
<g id="OREGON">
</g>
<g id="PENNSYLVANIA">
</g>
<g id="RHODE_ISLAND">
</g>
<g id="SOUTH_CAROLINA">
</g>
<g id="SOUTH_DAKOTA">
</g>
<g id="TENNESSEE">
</g>
<g id="TEXAS">
</g>
<g id="UTAH">
</g>
<g id="VIRGINIA">
</g>
<g id="VERMONT">
</g>
<g id="WASHINGTON">
</g>
<g id="WISCONSIN">
</g>
<g id="WEST_VIRGINIA">
</g>
<g id="WYOMING">
</g>
</svg>
