<?xml version="1.0" encoding="UTF-8"?>
<svg id="MONTANA" xmlns="http://www.w3.org/2000/svg" viewBox="0 0 90 90">
  <defs>
    <style>
      .cls-1 {
        fill: #e2e2e2;
        stroke: #f9f9f9;
        stroke-linecap: round;
        stroke-linejoin: round;
        stroke-width: .03px;
      }
    </style>
  </defs>
  <path id="MT" class="cls-1" d="M83.67,57.61l-.04,1-.03,1-.04,1-.03,1-.03,1-.04,1-.03,1-.04,1v.57s-.02,.12-.02,.12h-.23s-.76-.04-.76-.04l-.76-.03-.76-.03-.76-.03-.76-.04-.76-.03-.76-.04-.76-.04-.76-.03-.76-.04-.76-.04-.76-.04-.76-.04-.76-.04-.76-.04-.76-.04-.76-.04-.76-.04-.76-.04-.76-.04-.76-.04-.76-.04-.76-.05-.75-.04-.76-.05-.76-.04-.76-.05-.76-.05-.76-.05-.76-.05-.76-.05-.76-.05-.76-.05-.76-.06-.76-.05-.76-.06-.76-.06-.76-.05-.76-.06-.76-.06-.76-.06-.76-.06-.76-.06-.76-.06-.76-.06-.76-.06-.76-.06-.76-.06-.76-.06-.76-.06-.76-.06-.75-.07-.76-.06-.76-.07-.76-.06-.76-.07-.76-.07-.76-.07-.75-.07-.76-.07-.76-.07-.76-.08-.76-.07-.75-.08-.35-.04v.15s-.04,.28-.04,.28l-.03,.28-.03,.28-.03,.28-.03,.28-.03,.28-.03,.28-.03,.28-.03,.28-.03,.28-.03,.28-.03,.28-.03,.28-.03,.28-.03,.28-.03,.28-.3-.11-.11-.09-.18-.25-.1-.21-.08-.11-.07-.06-.1-.06-.05-.04-.04-.04v-.04s-.03-.04-.03-.04v-.05s0-.11,0-.11v-.06s.01-.06,.01-.06l-.02-.07-.04-.04-.05-.04-.06-.04-.03-.04-.04-.12-.24-.45-.05-.17-.06-.06-.24-.16-.09-.03h-.06s-.04,.02-.04,.02l-.09,.12-.04,.04h-.06s-.2,.01-.2,.01h-.05s-.09,.06-.09,.06l-.07,.06-.03,.04v.04s0,.04,0,.04v.04s.04,.04,.04,.04l.02,.04v.04s.01,.06,.01,.06v.05s-.03,.06-.03,.06l-.03,.03-.04,.02-.19,.05-.04,.03-.02,.04-.02,.1v.04s-.08,.1-.08,.1l-.02,.05v.06s-.01,.05-.01,.05v.15s.02,.04,.02,.04v.02s.03,.03,.03,.03l.03,.03,.04,.02,.16,.07,.04,.04v.04s.01,.04,.01,.04l-.05,.02h-.07s-.12,.01-.12,.01h-.06s-.04-.03-.04-.03l-.08-.07-.2-.12-.08-.03-.76-.09h-.11s-.33,.17-.33,.17l-.05,.02h-.12s-.14,0-.14,0h-.06s-.15,.06-.15,.06h-.06s-.05-.03-.05-.03l-.04-.03-.02-.04v-.04s-.06-.08-.06-.08l-.04-.04-.06-.05-.12-.06-.29-.04h-.06s-.06,.01-.06,.01l-.04,.03-.06,.02h-.07s-.13,.02-.13,.02l-.11-.03-.68,.04h-.06s-.16-.1-.16-.1l-.19-.07-.13-.02h-.16s-.08-.03-.08-.03l-.05-.03-.09-.08-.1-.06h-.06s-.05,0-.05,0l-.06,.06-.04,.02h-.06s-.18,.04-.18,.04l-.11,.04-.08,.04-.04,.02-.03,.04-.03,.04-.08,.21-.16,.29-.04,.04-.06,.04-.11,.02h-.08l-.06-.02-.04-.04-.03-.04-.04-.04-.06-.05-.13-.05h-.11s-.19,0-.19,0h-.04s-.06-.08-.06-.08l-.04-.03-.04-.03-.84-.2-.23-.09h-.07s-.06,0-.06,0l-.13,.06h-.04s-.21,.03-.21,.03l-.04,.02-.45,.34-.04,.04-.03,.04-.03,.04-.02,.04v.06s0,.04,0,.04l.1,.21v.05s-.05,.05-.05,.05l-.12,.04h-.06s-.04-.04-.04-.04l-.14-.24-.03-.04-.04-.03-.3-.13-.04-.04-.04-.04-.09-.16-.04-.05-.06-.04-.11-.06-.06-.04-.02-.06v-.11s0-.04,0-.04l-.05-.13v-.04s0-.02,0-.02l.04-.08,.08-.13v-.05s0-.05,0-.05l-.04-.06-.11-.06-.05-.05-.04-.05v-.11s0-.05,0-.05v-.04s-.18-.22-.18-.22l-.02-.04v-.09s.04-.04,.04-.04l.04-.03,.08-.05,.04-.04,.03-.03v-.05s0-.05,0-.05v-.04s-.04-.08-.04-.08l-.06-.13v-.04s-.05-.14-.05-.14v-.04s-.04-.04-.04-.04l-.05-.08-.02-.04v-.04s-.02-.05-.02-.05v-.05s-.01-.04-.01-.04v-.04s-.04-.04-.04-.04l-.08-.11-.03-.04-.08-.16-.02-.04-.11-.14-.15-.15-.17-.11-.16-.06-.12-.02h-.05s-.05,.03-.05,.03l-.04,.02-.16,.11-.06,.02h-.07s-.13,0-.13,0l-.06-.02-.04-.04v-.2s-.06-.06-.06-.06l-.09-.07-.3-.18-.08-.07-.05-.08-.04-.09-.06-.28-.03-.09-.04-.08-.06-.08-.02-.04v-.04s0-.04,0-.04l.04-.03,.04-.02,.14-.04,.04-.03,.04-.04,.03-.04,.02-.05,.07-.22v-.05s.01-.01,.01-.01v-.15s-.02-.05-.02-.05l-.08-.27-.03-.09-.18-.32v-.04s-.04-.17-.04-.17l-.04-.07-.05-.04-.23-.02-.06-.03-.04-.04v-.05s0-.11,0-.11v-.05s-.03-.04-.03-.04l-.05-.08v-.04s-.01-.05-.01-.05v-.15s-.03-.05-.03-.05l-.04-.08-.09-.12-.1-.1-.12-.17-.11-.11-.03-.05v-.05s0-.1,0-.1v-.06s-.03-.05-.03-.05l-.05-.06-.14-.13-.04-.05-.02-.04v-.04s0-.11,0-.11v-.06s.04-.11,.04-.11l.04-.23v-.11s0-.06,0-.06l-.04-.06-.18-.18-.02-.07v-.15s-.01-.05-.01-.05v-.05s.02-.06,.02-.06l.02-.05,.06-.08,.02-.05v-.05s0-.16,0-.16v-.06s.01,0,.01,0v-.07s-.08-.07-.08-.07l-.2-.11-.05-.06-.02-.06v-.06s.04-.11,.04-.11l.05-.1,.02-.04,.06-.07,.03-.04v-.05s0-.05,0-.05l-.02-.06-.06-.07-.04-.05-.06-.03-.34-.16-.08-.06-.04-.06v-.1s0-.05,0-.05v-.04s-.18-.17-.18-.17l-.22-.2-.13-.08-.08-.04h-.04s-.03,.03-.03,.03l-.02,.02v.04s-.02,.06-.02,.06v.05s0,.04,0,.04v.06s.01,.04,.01,.04v.08s-.04,.01-.04,.01h-.04s-.18,.05-.18,.05h-.05s-.04,.03-.04,.03l-.04,.03-.04,.04-.06,.09-.02,.05-.03,.04-.04,.04-.04,.02-.13,.06-.04,.03-.03,.04-.03,.04-.02,.04-.03,.03-.04,.02-.29,.08-.17,.08h-.04s-.06,.01-.06,.01l-.11-.03h-.1s-.04,.04-.04,.04l-.04,.03-.04,.04-.03,.04-.1,.18-.04,.04h0s-.04,.03-.04,.03l-.17,.06-.04,.02h-.06s-.08,.02-.08,.02l-.14-.03-.07-.04-.05-.04-.02-.04-.03-.07-.22-.15-.06-.06-.04-.06v-.05s-.01-.06-.01-.06l-.03-.06-.21-.19-.06-.03-.31-.11h-.13s-.1-.04-.1-.04l-.02-.04v-.04s.1-.11,.1-.11l.03-.04v-.05s.01-.06,.01-.06l-.02-.06-.03-.08v-.06s0-.05,0-.05l.04-.03,.16-.1,.11-.08,.02-.02v-.03s.04-.04,.04-.04l.02-.05v-.05s0-.1,0-.1v-.04s.04-.08,.04-.08v-.06l-.04-.07-.16-.19-.04-.06v-.05s-.03-.13-.03-.13l-.04-.09v-.07s0-.04,0-.04l.04-.03,.08-.06,.04-.03,.03-.04,.03-.04,.06-.08,.09-.11,.04-.08,.02-.02,.03-.03,.08-.04h.04s.05-.02,.05-.02l.24,.02h.1s.04-.04,.04-.04l.18-.13,.04-.04v-.06s.01-.06,.01-.06l-.11-.24-.02-.05v-.04s0-.05,0-.05v-.06s.04-.05,.04-.05l.02-.05,.08-.12,.02-.05v-.12s-.06-.04-.06-.04l-.18-.07-.15-.09-.06-.06v-.06s0-.05,0-.05v-.06s.01-.06,.01-.06l-.04-.1v-.07s0-.06,0-.06l.02-.05,.03-.04,.16-.18,.03-.04,.02-.04v-.06s.02-.05,.02-.05v-.05s-.04-.04-.04-.04l-.23-.31-.03-.06v-.1s.04-.04,.04-.04h.01s.04-.04,.04-.04h.04s.23,0,.23,0h.05s.04-.03,.04-.03l.04-.03,.03-.04v-.05s.02-.06,.02-.06v-.1s0-.16,0-.16v-.1s-.04-.1-.04-.1l-.02-.06v-.06s-.01-.05-.01-.05l.02-.04,.02-.03,.07-.07,.03-.04,.02-.05,.02-.11v-.05s.04-.04,.04-.04l.16-.18,.03-.04,.02-.05v-.06s.01-.11,.01-.11v-.11s.05-.11,.05-.11l.04-.1,.2-.3,.02-.06,.02-.05v-.06s.01-.06,.01-.06v-.05s-.03-.05-.03-.05l-.02-.06-.08-.12-.02-.04h0v-.02l.02-.04,.03-.02h.04s.2-.06,.2-.06l.04-.02,.04-.02,.04-.03,.03-.03,.02-.05v-.04s-.01-.04-.01-.04v-.04s-.02-.05-.02-.05v-.05s.03-.04,.03-.04l.06-.07,.02-.05v-.04s.01-.06,.01-.06v-.04s0-.05,0-.05v-.05s.04-.05,.04-.05l.06-.08,.04-.11,.02-.17v-.06s0-.06,0-.06l-.02-.06-.04-.04-.05-.03h-.06s-.06-.02-.06-.02l-.47,.06h-.04s-.12,.07-.12,.07l-.09,.04h-.05s-.06,0-.06,0h-.05s-.11-.07-.11-.07h-.04s-.05-.01-.05-.01l-.16,.04h-.09s-.11,0-.11,0l-.09-.04-.09-.05-.15-.12-.06-.07-.04-.06v-.04s-.01-.05-.01-.05v-.05s.04-.04,.04-.04l.11-.1v-.05s.01-.07,.01-.07l-.05-.09-.04-.06-.16-.14-.05-.03h-.05s-.06-.01-.06-.01h-.04l-.05,.02-.12,.07-.17,.16-.05,.02h-.06l-.06-.02-.03-.04v-.04s0-.05,0-.05l.08-.21v-.06s.01-.06,.01-.06l-.02-.07-.03-.04-.04-.04-.19-.08-.1-.06-.06-.07-.08-.12-.06-.07-.19-.16-.06-.06-.04-.05-.04-.14v-.1s-.02-.1-.02-.1v-.16s.02-.06,.02-.06v-.06s.04-.05,.04-.05v-.04s.01-.05,.01-.05l-.04-.04-.16-.12-.05-.05-.04-.05-.16-.26-.04-.05-.04-.04-.13-.05-.09-.05-.05-.04-.03-.04v-.02s0-.02,0-.02v-.16s-.02-.05-.02-.05l-.52-.7-.07-.23-.15-.27-.06-.08-.17-.14-.05-.07-.06-.09-.04-.05-.05-.04-.06-.04-.04-.04-.02-.05v-.1s-.02-.04-.02-.04l-.02-.05-.04-.06-.02-.05-.05-.14-.06-.12-.05-.06-.05-.05-.57-.31-.33-.1-.09-.06-.05-.04-.03-.05-.05-.13-.04-.13-.08-.16-.18-.27-.06-.06-.46-.38-.25-.11-.11-.06-.04-.06v-.05s0-.04,0-.04l.03-.03h.02s.04-.03,.04-.03h.04s.29,.01,.29,.01h.05s.05-.02,.05-.02h.04s.04-.05,.04-.05l.02-.04-.02-.06-.06-.05-.1-.06-.06-.05h0s0-.2,0-.2l-.04-.11-.05-.06-.16-.13-.03-.05v-.05l.04-.03,.04-.02,.18-.06,.04-.03,.04-.03,.04-.04,.06-.08,.02-.05v-.08s-.04-.1-.04-.1l-.15-.29-.02-.08,.05-.22v-.06s0-.06,0-.06l-.03-.09-.04-.05-.18-.15-.03-.05v-.06s-.02-.06-.02-.06l-.03-.09-.06-.06-.16-.12-.04-.06-.02-.06-.06-.45v-.06s-.05-.08-.05-.08l-.05-.05-.14-.11-.06-.06-.06-.1-.06-.08-.08-.08-.04-.05-.02-.05-.04-.11-.13-.23-.06-.15-.16-.25-.13-.15-.04-.1v-.06s.05-.45,.05-.45l.16-1.05,.15-1.05,.16-1.05,.16-1.05,.16-1.05,.16-1.05,.15-1.05,.16-1.05,1.36,.2,1.45,.21,1.45,.21,1.44,.2,1.45,.2,1.44,.2,1.45,.19,1.45,.19,1.45,.18h.11s1.34,.18,1.34,.18l1.45,.18,1.45,.18,1.45,.18,1.45,.17,1.45,.17,1.45,.16,1.45,.17,1.46,.16,1.45,.16,1.45,.16,1.46,.15,1.45,.15,1.46,.15,1.45,.14,1.46,.14,1.46,.14,1.45,.13,.83,.07,.62,.06,1.46,.13,1.45,.13,1.46,.12,1.46,.12,1.46,.12,1.46,.11,1.46,.11,1.46,.11,1.46,.11,1.46,.11,1.46,.1,1.46,.09,1.46,.1,1.46,.09,1.46,.08,1.46,.08,1.46,.08,1.46,.08,1.46,.08,1.46,.08,1.46,.07,1.46,.07,1.46,.06,1.46,.06,1.46,.06,1.46,.06,1.04,.04-.06,1.71-.05,1.72-.06,1.72-.05,1.73-.06,1.73-.05,1.72-.06,1.73-.06,1.73-.05,1.73-.06,1.74-.05,1.73-.06,1.75-.06,1.74-.05,1.75-.06,1.75-.05,1.75h0Z"/>
  <g>
    <path d="M47.7,42.81v5.05h-1.23v-3.16l-1.09,3.16h-1.07l-1.1-3.17v3.17h-1.23v-5.05h1.5l1.38,3.52,1.35-3.52h1.5Z"/>
    <path d="M52.21,42.78v.98h-1.38v4.11h-1.24v-4.11h-1.37v-.98h3.99Z"/>
  </g>
</svg>