<?xml version="1.0" encoding="utf-8"?>
<!-- Generator: Adobe Illustrator 26.5.0, SVG Export Plug-In . SVG Version: 6.00 Build 0)  -->
<svg version="1.1" xmlns="http://www.w3.org/2000/svg" xmlns:xlink="http://www.w3.org/1999/xlink" x="0px" y="0px"
	 viewBox="0 0 90 90" style="enable-background:new 0 0 90 90;" xml:space="preserve">
<style type="text/css">
	.st0{fill:#CECECE;stroke:#F9F9F9;stroke-width:0.025;stroke-linecap:round;stroke-linejoin:round;}
	.st1{display:none;fill:none;stroke:#47CCCC;stroke-width:0.5;stroke-linecap:round;stroke-linejoin:round;}
	.st2{fill:#CECECE;}
</style>
<g id="ALABAMA">
</g>
<g id="ALASKA">
</g>
<g id="ARIZONA">
</g>
<g id="ARKANSAS_1_">
</g>
<g id="CALIFORNIA">
</g>
<g id="COLORADO">
</g>
<g id="CONNECTICUT">
</g>
<g id="DELAWARE">
</g>
<g id="DC">
</g>
<g id="FLORIDA">
</g>
<g id="GEORGIA">
</g>
<g id="HAWAII">
</g>
<g id="IDAHO">
</g>
<g id="IOWA">
</g>
<g id="ILLINOIS">
</g>
<g id="INDIANA">
</g>
<g id="KANSAS">
</g>
<g id="KETUCKY">
</g>
<g id="LOUISANA">
</g>
<g id="MAINE">
</g>
<g id="MARYLAND">
</g>
<g id="MASSACHUSETTS">
</g>
<g id="MICHIGAN">
</g>
<g id="MINNESOTA">
</g>
<g id="MISSOURI">
</g>
<g id="MISSISSIPPI">
</g>
<g id="MONTANA">
</g>
<g id="NORTH_CAROLINA">
</g>
<g id="NORTH_DAKOTA">
</g>
<g id="NEBRASKA">
	<path id="NE_1_" class="st0" d="M74.9,35.26l0.37,0.05l0.2,0.06l0.15,0.11l0.13,0.45l-0.1,0.48l-0.02,0.47l0.29,0.33l0.02,0.17
		l0.12,0.09l0.1,0.14l0.05,0.18l0.02,0.26l-0.03,0.21l-0.07,0.19l-0.02,0.2l0.09,0.27l0.13,0.17l0.29,0.17l0.16,0.13l0.1,0.18
		l0.02,0.21L76.91,40l0.04,0.25l0.25,0.31l0.36,0.19l0.32,0.23l0.12,0.44l-0.02,0.1l-0.08,0.22v0.12l0.03,0.1l0.15,0.28l0.03,0.07
		l0.52,0.5l0.09,0.25l-0.02,0.22l-0.07,0.2l-0.03,0.21l0.02,0.15l0.02,0.06l-0.02,0.06l-0.08,0.12l-0.05,0.09l-0.02,0.08l0.02,0.47
		l0.03,0.25l0.07,0.19l0.12,0.08v0.09l-0.04,0.22l0.02,0.22l0.19,0.12l0.1-0.01l0.17-0.12l0.07-0.02l0.11,0.02l0.11,0.07l0.07,0.07
		l-0.01,0.03l-0.04,0.05l-0.04,0.13l-0.03,0.14l-0.02,0.11l0.06,0.12l0.12,0.07l0.35,0.07l0.07-0.01l0.06,0.02l0.06,0.11l-0.07,0.46
		v0.13l-0.17,0.71l0.14,0.07l0.39,0.12l0.15,0.02l0.08,0.09l-0.12,0.22l-0.17,0.21l-0.09,0.05l-0.05,0.47l0.01,0.18l0.12,0.13
		l0.39,0.11l0.12,0.08l-0.2,0.1l0.05,0.17l0.03,0.36l0.06,0.15l-0.11,0.32L80.56,51v0.07l0.04,0.02l0.02,0.03l0.02,0.04l0.03,0.06
		l0.05,0.08l-0.02,0.06l-0.05,0.06l-0.02,0.1l0.05,0.12l0.07,0.08l0.16,0.12l0.06,0.12l0.01,0.11l-0.02,0.23l0.02,0.14l0.12,0.27
		l0.04,0.27l-0.04,0.22l-0.06,0.21l-0.02,0.26l0.02,0.13l0.09,0.14l0.02,0.09l-0.17,0.27l-0.12,0.13l-0.03,0.06l-0.02,0.12
		l0.02,0.16l0.04,0.08l0.06,0.07l0.03,0.1l0.1,0.18l0.46,0.17l0.17,0.11l0.09,0.24v0.24l-0.02,0.18l-0.03,0.29l0.05,0.28l0.12,0.1
		l0.17,0.02l0.21,0.07l0.14,0.12l0.01,0.12l-0.02,0.13l0.02,0.16l0.08,0.16l0.16,0.18l0.07,0.17l0.01,0.07l-0.01,0.17l0.01,0.07
		l0.04,0.08l0.15,0.21l0.12,0.32l0.02,0.04l-0.04,0.08l-0.08,0.08l-0.11,0.08l0.07,0.14l0.14,0.02l0.17-0.03h0.16l0.16,0.1
		l0.09,0.13l0.08,0.15l0.11,0.14l0.13,0.06l0.32,0.01l0.15,0.05l0.1,0.12l-0.01,0.14l-0.12,0.28l0.25,0.28l0.13,0.18l0.06,0.16
		l0.28,0.25l0.02,0.05l-0.02,0.12L85,61.73l-0.02,0.25L85,62.17l0.11,0.12l0.41,0.06l0.15,0.07l0.25,0.2l-1.83,0.07l-1.81,0.07
		l-1.82,0.07l-1.82,0.07l-1.83,0.06l-1.82,0.06l-1.82,0.06l-1.82,0.05l-1.82,0.05l-1.82,0.04l-1.82,0.04l-1.83,0.04l-1.82,0.03
		l-1.82,0.02l-1.82,0.03l-1.82,0.02l-1.82,0.02l-1.82,0.02l-1.82,0.02l-1.83,0.01l-1.82,0.01h-1.82H44l-1.83-0.01l-1.82-0.01
		l-1.82-0.01l-1.82-0.02l-1.82-0.02l-1.83-0.02l-1.82-0.02l-1.82-0.03l-1.82-0.02l0.01-0.7l0.02-0.69l0.01-0.69l0.02-0.69l0.01-0.69
		l0.02-0.69l0.01-0.69l0.02-0.69l0.01-0.69l0.02-0.69l0.01-0.69l0.02-0.69l0.01-0.69l0.02-0.69l0.01-0.69l0.02-0.69l-0.79-0.02
		l-1.03-0.02l-1.02-0.02l-1.02-0.02l-1.02-0.02l-1.02-0.02l-1.02-0.02l-1.02-0.03l-1.02-0.02l-1.02-0.03l-1.02-0.02l-1.02-0.03
		l-1.02-0.03l-1.02-0.03l-1.02-0.03l-1.02-0.03l-1.02-0.04l0.05-1.37l0.05-1.38l0.04-1.38l0.05-1.38l0.04-1.37l0.05-1.38l0.04-1.37
		l0.05-1.37l0.04-1.38l0.05-1.37l0.04-1.37l0.05-1.37l0.05-1.37l0.04-1.37l0.05-1.36l0.04-1.37l1.43,0.05l1.43,0.05l1.43,0.05
		l1.43,0.04l1.43,0.04l1.43,0.04l1.43,0.03l1.43,0.04l1.43,0.03l1.43,0.02l1.43,0.03l1.43,0.02l1.43,0.02l1.43,0.02l1.43,0.02
		l1.43,0.02l1.43,0.02l1.43,0.02l1.43,0.01l1.43,0.01l1.43,0.01l1.43,0.01h1.43h1.44h1.42l1.44-0.01H50l1.43-0.01l1.43-0.02
		l1.43-0.01l1.43-0.02l1.43-0.02l0.72-0.01h0.05l0.02,0.02l0.17,0.2l0.06,0.06l0.89,0.55l0.06,0.01l0.1,0.01l0.04,0.01l0.36,0.22
		l0.35,0.29l1.17,0.46l0.08,0.09l0.04,0.12l0.1,0.07l0.61,0.19l0.22,0.02l0.23-0.02l0.1-0.05l0.17-0.15l0.05-0.03l0.03-0.05
		l0.1-0.29l0.02-0.15l0.07-0.09l0.09-0.07l0.1-0.04l0.21-0.06l0.57,0.12l0.34-0.09l0.11,0.02l0.17,0.1l0.1,0.03l0.2-0.02l0.33-0.17
		l0.18-0.05L66,31.75h0.23l1.67-0.34l0.21,0.02l0.17,0.08l0.15,0.13l0.26,0.32L69,32.22l0.18,0.12l0.2,0.09l0.2,0.04h0.44l0.08,0.02
		l0.19,0.09l0.22,0.04l0.08,0.05l0.06,0.07l0.09,0.07l0.16,0.05l0.76,0.03L71.83,33l0.12,0.12l0.09,0.13l0.06,0.1l0.03,0.07
		l0.05,0.06l0.1,0.06l0.11,0.02l0.35-0.03l0.09,0.01l0.12,0.03l0.1,0.06l0.05,0.08l-0.02,0.1l-0.05,0.07l-0.04,0.09l0.01,0.14
		l0.11,0.13l0.35,0.25l0.08,0.17l0.04,0.21l0.09,0.14l0.15,0.09L74.9,35.26L74.9,35.26z"/>
	<path id="NE_2_" class="st1" d="M74.9,35.26l0.37,0.05l0.2,0.06l0.15,0.11l0.13,0.45l-0.1,0.48l-0.02,0.47l0.29,0.33l0.02,0.17
		l0.12,0.09l0.1,0.14l0.05,0.18l0.02,0.26l-0.03,0.21l-0.07,0.19l-0.02,0.2l0.09,0.27l0.13,0.17l0.29,0.17l0.16,0.13l0.1,0.18
		l0.02,0.21L76.91,40l0.04,0.25l0.25,0.31l0.36,0.19l0.32,0.23l0.12,0.44l-0.02,0.1l-0.08,0.22v0.12l0.03,0.1l0.15,0.28l0.03,0.07
		l0.52,0.5l0.09,0.25l-0.02,0.22l-0.07,0.2l-0.03,0.21l0.02,0.15l0.02,0.06l-0.02,0.06l-0.08,0.12l-0.05,0.09l-0.02,0.08l0.02,0.47
		l0.03,0.25l0.07,0.19l0.12,0.08v0.09l-0.04,0.22l0.02,0.22l0.19,0.12l0.1-0.01l0.17-0.12l0.07-0.02l0.11,0.02l0.11,0.07l0.07,0.07
		l-0.01,0.03l-0.04,0.05l-0.04,0.13l-0.03,0.14l-0.02,0.11l0.06,0.12l0.12,0.07l0.35,0.07l0.07-0.01l0.06,0.02l0.06,0.11l-0.07,0.46
		v0.13l-0.17,0.71l0.14,0.07l0.39,0.12l0.15,0.02l0.08,0.09l-0.12,0.22l-0.17,0.21l-0.09,0.05l-0.05,0.47l0.01,0.18l0.12,0.13
		l0.39,0.11l0.12,0.08l-0.2,0.1l0.05,0.17l0.03,0.36l0.06,0.15l-0.11,0.32L80.56,51v0.07l0.04,0.02l0.02,0.03l0.02,0.04l0.03,0.06
		l0.05,0.08l-0.02,0.06l-0.05,0.06l-0.02,0.1l0.05,0.12l0.07,0.08l0.16,0.12l0.06,0.12l0.01,0.11l-0.02,0.23l0.02,0.14l0.12,0.27
		l0.04,0.27l-0.04,0.22l-0.06,0.21l-0.02,0.26l0.02,0.13l0.09,0.14l0.02,0.09l-0.17,0.27l-0.12,0.13l-0.03,0.06l-0.02,0.12
		l0.02,0.16l0.04,0.08l0.06,0.07l0.03,0.1l0.1,0.18l0.46,0.17l0.17,0.11l0.09,0.24v0.24l-0.02,0.18l-0.03,0.29l0.05,0.28l0.12,0.1
		l0.17,0.02l0.21,0.07l0.14,0.12l0.01,0.12l-0.02,0.13l0.02,0.16l0.08,0.16l0.16,0.18l0.07,0.17l0.01,0.07l-0.01,0.17l0.01,0.07
		l0.04,0.08l0.15,0.21l0.12,0.32l0.02,0.04l-0.04,0.08l-0.08,0.08l-0.11,0.08l0.07,0.14l0.14,0.02l0.17-0.03h0.16l0.16,0.1
		l0.09,0.13l0.08,0.15l0.11,0.14l0.13,0.06l0.32,0.01l0.15,0.05l0.1,0.12l-0.01,0.14l-0.12,0.28l0.25,0.28l0.13,0.18l0.06,0.16
		l0.28,0.25l0.02,0.05l-0.02,0.12L85,61.73l-0.02,0.25L85,62.17l0.11,0.12l0.41,0.06l0.15,0.07l0.25,0.2l-1.83,0.07l-1.81,0.07
		l-1.82,0.07l-1.82,0.07l-1.83,0.06l-1.82,0.06l-1.82,0.06l-1.82,0.05l-1.82,0.05l-1.82,0.04l-1.82,0.04l-1.83,0.04l-1.82,0.03
		l-1.82,0.02l-1.82,0.03l-1.82,0.02l-1.82,0.02l-1.82,0.02l-1.82,0.02l-1.83,0.01l-1.82,0.01h-1.82H44l-1.83-0.01l-1.82-0.01
		l-1.82-0.01l-1.82-0.02l-1.82-0.02l-1.83-0.02l-1.82-0.02l-1.82-0.03l-1.82-0.02l0.01-0.7l0.02-0.69l0.01-0.69l0.02-0.69l0.01-0.69
		l0.02-0.69l0.01-0.69l0.02-0.69l0.01-0.69l0.02-0.69l0.01-0.69l0.02-0.69l0.01-0.69l0.02-0.69l0.01-0.69l0.02-0.69l-0.79-0.02
		l-1.03-0.02l-1.02-0.02l-1.02-0.02l-1.02-0.02l-1.02-0.02l-1.02-0.02l-1.02-0.03l-1.02-0.02l-1.02-0.03l-1.02-0.02l-1.02-0.03
		l-1.02-0.03l-1.02-0.03l-1.02-0.03l-1.02-0.03l-1.02-0.04l0.05-1.37l0.05-1.38l0.04-1.38l0.05-1.38l0.04-1.37l0.05-1.38l0.04-1.37
		l0.05-1.37l0.04-1.38l0.05-1.37l0.04-1.37l0.05-1.37l0.05-1.37l0.04-1.37l0.05-1.36l0.04-1.37l1.43,0.05l1.43,0.05l1.43,0.05
		l1.43,0.04l1.43,0.04l1.43,0.04l1.43,0.03l1.43,0.04l1.43,0.03l1.43,0.02l1.43,0.03l1.43,0.02l1.43,0.02l1.43,0.02l1.43,0.02
		l1.43,0.02l1.43,0.02l1.43,0.02l1.43,0.01l1.43,0.01l1.43,0.01l1.43,0.01h1.43h1.44h1.42l1.44-0.01H50l1.43-0.01l1.43-0.02
		l1.43-0.01l1.43-0.02l1.43-0.02l0.72-0.01h0.05l0.02,0.02l0.17,0.2l0.06,0.06l0.89,0.55l0.06,0.01l0.1,0.01l0.04,0.01l0.36,0.22
		l0.35,0.29l1.17,0.46l0.08,0.09l0.04,0.12l0.1,0.07l0.61,0.19l0.22,0.02l0.23-0.02l0.1-0.05l0.17-0.15l0.05-0.03l0.03-0.05
		l0.1-0.29l0.02-0.15l0.07-0.09l0.09-0.07l0.1-0.04l0.21-0.06l0.57,0.12l0.34-0.09l0.11,0.02l0.17,0.1l0.1,0.03l0.2-0.02l0.33-0.17
		l0.18-0.05L66,31.75h0.23l1.67-0.34l0.21,0.02l0.17,0.08l0.15,0.13l0.26,0.32L69,32.22l0.18,0.12l0.2,0.09l0.2,0.04h0.44l0.08,0.02
		l0.19,0.09l0.22,0.04l0.08,0.05l0.06,0.07l0.09,0.07l0.16,0.05l0.76,0.03L71.83,33l0.12,0.12l0.09,0.13l0.06,0.1l0.03,0.07
		l0.05,0.06l0.1,0.06l0.11,0.02l0.35-0.03l0.09,0.01l0.12,0.03l0.1,0.06l0.05,0.08l-0.02,0.1l-0.05,0.07l-0.04,0.09l0.01,0.14
		l0.11,0.13l0.35,0.25l0.08,0.17l0.04,0.21l0.09,0.14l0.15,0.09L74.9,35.26L74.9,35.26z"/>
</g>
<g id="NEW_HAMPSHIRE">
</g>
<g id="NEW_JERSEY">
</g>
<g id="NEW_YORK">
</g>
<g id="NEW_MEXICO">
</g>
<g id="NEVADA">
</g>
<g id="OHIO">
</g>
<g id="OKLAHOMA">
</g>
<g id="OREGON">
</g>
<g id="PENNSYLVANIA">
</g>
<g id="RHODE_ISLAND">
</g>
<g id="SOUTH_CAROLINA">
</g>
<g id="SOUTH_DAKOTA">
</g>
<g id="TENNESSEE">
</g>
<g id="TEXAS">
</g>
<g id="UTAH">
</g>
<g id="VIRGINIA">
</g>
<g id="VERMONT">
</g>
<g id="WASHINGTON">
</g>
<g id="WISCONSIN">
</g>
<g id="WEST_VIRGINIA">
</g>
<g id="WYOMING">
</g>
</svg>
