<?xml version="1.0" encoding="UTF-8"?>
<svg id="NEBRASKA" xmlns="http://www.w3.org/2000/svg" viewBox="0 0 90 90">
  <defs>
    <style>
      .cls-1 {
        fill: #e2e2e2;
        stroke: #f9f9f9;
        stroke-linecap: round;
        stroke-linejoin: round;
        stroke-width: .03px;
      }
    </style>
  </defs>
  <path id="NE" class="cls-1" d="M74.9,35.26l.37,.05,.2,.06,.15,.11,.13,.45-.1,.48-.02,.47,.29,.33,.02,.17,.12,.09,.1,.14,.05,.18,.02,.26-.03,.21-.07,.19-.02,.2,.09,.27,.13,.17,.29,.17,.16,.13,.1,.18,.02,.21v.22s.05,.25,.05,.25l.25,.31,.36,.19,.32,.23,.12,.44-.02,.1-.08,.22v.12l.03,.1,.15,.28,.03,.07,.52,.5,.09,.25-.02,.22-.07,.2-.03,.21,.02,.15,.02,.06-.02,.06-.08,.12-.05,.09-.02,.08,.02,.47,.03,.25,.07,.19,.12,.08v.09l-.04,.22,.02,.22,.19,.12h.1s.17-.12,.17-.12l.07-.02,.11,.02,.11,.07,.07,.07v.03s-.05,.05-.05,.05l-.04,.13-.03,.14-.02,.11,.06,.12,.12,.07,.35,.07h.07s.06,.02,.06,.02l.06,.11-.07,.46v.13l-.17,.71,.14,.07,.39,.12,.15,.02,.08,.09-.12,.22-.17,.21-.09,.05-.05,.47v.18s.13,.13,.13,.13l.39,.11,.12,.08-.2,.1,.05,.17,.03,.36,.06,.15-.11,.32-.05,.07v.07l.04,.02,.02,.03,.02,.04,.03,.06,.05,.08-.02,.06-.05,.06-.02,.1,.05,.12,.07,.08,.16,.12,.06,.12v.11s-.02,.23-.02,.23l.02,.14,.12,.27,.04,.27-.04,.22-.06,.21-.02,.26,.02,.13,.09,.14,.02,.09-.17,.27-.12,.13-.03,.06-.02,.12,.02,.16,.04,.08,.06,.07,.03,.1,.1,.18,.46,.17,.17,.11,.09,.24v.24l-.02,.18-.03,.29,.05,.28,.12,.1,.17,.02,.21,.07,.14,.12v.12s-.02,.13-.02,.13l.02,.16,.08,.16,.16,.18,.07,.17v.07s0,.17,0,.17v.07s.05,.08,.05,.08l.15,.21,.12,.32,.02,.04-.04,.08-.08,.08-.11,.08,.07,.14,.14,.02,.17-.03h.16l.16,.1,.09,.13,.08,.15,.11,.14,.13,.06h.32s.15,.06,.15,.06l.1,.12v.14s-.13,.28-.13,.28l.25,.28,.13,.18,.06,.16,.28,.25,.02,.05-.02,.12-.08,.21-.02,.25,.02,.19,.11,.12,.41,.06,.15,.07,.25,.2-1.83,.07-1.81,.07-1.82,.07-1.82,.07-1.83,.06-1.82,.06-1.82,.06-1.82,.05-1.82,.05-1.82,.04-1.82,.04-1.83,.04-1.82,.03-1.82,.02-1.82,.03-1.82,.02-1.82,.02-1.82,.02-1.82,.02h-1.83s-1.82,.02-1.82,.02h-5.47s-1.82-.02-1.82-.02h-1.82s-1.82-.02-1.82-.02l-1.82-.02-1.83-.02-1.82-.02-1.82-.03-1.82-.02v-.7s.02-.69,.02-.69v-.69s.02-.69,.02-.69v-.69s.02-.69,.02-.69v-.69s.02-.69,.02-.69v-.69s.02-.69,.02-.69v-.69s.02-.69,.02-.69v-.69s.02-.69,.02-.69v-.69s.02-.69,.02-.69l-.79-.02-1.03-.02-1.02-.02-1.02-.02-1.02-.02-1.02-.02-1.02-.02-1.02-.03-1.02-.02-1.02-.03-1.02-.02-1.02-.03-1.02-.03-1.02-.03-1.02-.03-1.02-.03-1.02-.04,.05-1.37,.05-1.38,.04-1.38,.05-1.38,.04-1.37,.05-1.38,.04-1.37,.05-1.37,.04-1.38,.05-1.37,.04-1.37,.05-1.37,.05-1.37,.04-1.37,.05-1.36,.04-1.37,1.43,.05,1.43,.05,1.43,.05,1.43,.04,1.43,.04,1.43,.04,1.43,.03,1.43,.04,1.43,.03,1.43,.02,1.43,.03,1.43,.02,1.43,.02,1.43,.02,1.43,.02,1.43,.02,1.43,.02,1.43,.02h1.43s1.43,.02,1.43,.02h1.43s1.43,.02,1.43,.02h5.73s1.43,0,1.43,0h1.43s1.43-.02,1.43-.02h1.43s1.43-.02,1.43-.02l1.43-.02h.72s.05,0,.05,0l.02,.02,.17,.2,.06,.06,.89,.55h.06s.1,.02,.1,.02h.04s.36,.23,.36,.23l.35,.29,1.17,.46,.08,.09,.04,.12,.1,.07,.61,.19,.22,.02,.23-.02,.1-.05,.17-.15,.05-.03,.03-.05,.1-.29,.02-.15,.07-.09,.09-.07,.1-.04,.21-.06,.57,.12,.34-.09,.11,.02,.17,.1,.1,.03,.2-.02,.33-.17,.18-.05,.61,.13h.23l1.67-.34,.21,.02,.17,.08,.15,.13,.26,.32,.32,.27,.18,.12,.2,.09,.2,.04h.44l.08,.02,.19,.09,.22,.04,.08,.05,.06,.07,.09,.07,.16,.05,.76,.03,.16,.08,.12,.12,.09,.13,.06,.1,.03,.07,.05,.06,.1,.06,.11,.02,.35-.03h.09s.12,.04,.12,.04l.1,.06,.05,.08-.02,.1-.05,.07-.04,.09v.14s.12,.13,.12,.13l.35,.25,.08,.17,.04,.21,.09,.14,.15,.09,1.1,.14h0Z"/>
  <g>
    <path d="M47.98,48.93h-1.23l-2.06-3.12v3.12h-1.23v-5.09h1.23l2.06,3.15v-3.15h1.23v5.09Z"/>
    <path d="M50.06,44.82v1.07h1.72v.93h-1.72v1.13h1.94v.99h-3.17v-5.09h3.17v.98h-1.94Z"/>
  </g>
</svg>