<?xml version="1.0" encoding="utf-8"?>
<!-- Generator: Adobe Illustrator 26.5.0, SVG Export Plug-In . SVG Version: 6.00 Build 0)  -->
<svg version="1.1" xmlns="http://www.w3.org/2000/svg" xmlns:xlink="http://www.w3.org/1999/xlink" x="0px" y="0px"
	 viewBox="0 0 90 90" style="enable-background:new 0 0 90 90;" xml:space="preserve">
<style type="text/css">
	.st0{fill:#CECECE;stroke:#F9F9F9;stroke-width:0.025;stroke-linecap:round;stroke-linejoin:round;}
	.st1{display:none;fill:none;stroke:#47CCCC;stroke-width:0.5;stroke-linecap:round;stroke-linejoin:round;}
	.st2{fill:#CECECE;}
</style>
<g id="ALABAMA">
</g>
<g id="ALASKA">
</g>
<g id="ARIZONA">
</g>
<g id="ARKANSAS_1_">
</g>
<g id="CALIFORNIA">
</g>
<g id="COLORADO">
</g>
<g id="CONNECTICUT">
</g>
<g id="DELAWARE">
</g>
<g id="DC">
</g>
<g id="FLORIDA">
</g>
<g id="GEORGIA">
</g>
<g id="HAWAII">
</g>
<g id="IDAHO">
</g>
<g id="IOWA">
</g>
<g id="ILLINOIS">
</g>
<g id="INDIANA">
</g>
<g id="KANSAS">
</g>
<g id="KETUCKY">
</g>
<g id="LOUISANA">
</g>
<g id="MAINE">
</g>
<g id="MARYLAND">
</g>
<g id="MASSACHUSETTS">
</g>
<g id="MICHIGAN">
</g>
<g id="MINNESOTA">
</g>
<g id="MISSOURI">
</g>
<g id="MISSISSIPPI">
</g>
<g id="MONTANA">
</g>
<g id="NORTH_CAROLINA">
</g>
<g id="NORTH_DAKOTA">
</g>
<g id="NEBRASKA">
</g>
<g id="NEW_HAMPSHIRE">
</g>
<g id="NEW_JERSEY">
</g>
<g id="NEW_YORK">
</g>
<g id="NEW_MEXICO">
</g>
<g id="NEVADA">
	<path id="NV_1_" class="st0" d="M60.99,72.77l-0.18,0.17l-0.13,0.29l-0.16,0.35l-0.18,0.4l-0.3,0.11l-0.41,0.01l-0.2-0.04
		l-0.18-0.1l-0.13-0.14l-0.08-0.14l-0.06-0.12l-0.13-0.42l-0.04-0.1l-0.07-0.1l-0.07-0.1l-0.07-0.05l-0.07-0.04l-0.05-0.02h-0.06
		h-0.05l-0.05,0.01l-0.04,0.02l-0.22,0.09L58,72.88h-0.05l-0.06-0.01l-0.07-0.01l-0.1-0.05l-0.07-0.07l-0.06-0.06l-0.04-0.03
		l-0.03-0.02l-0.42-0.18l-0.07-0.01l-0.07,0.01l-0.13,0.04l-0.48,0.06l-0.28,0.12l-0.29,0.09l-0.04,0.03l-0.04,0.03l-0.07,0.07
		l-0.03,0.04l-0.02,0.08l-0.01,0.11l-0.01,0.22l-0.01,0.11l-0.05,0.1l-0.16,0.12l-0.02,0.27l0.04,0.27l0.09,0.24l0.27,0.44
		l0.04,0.09v0.11l-0.04,0.11l-0.18,0.22l-0.06,0.14l-0.08,0.53l-0.01,0.27l0.01,0.19l0.19,0.73l0.04,0.17l-0.1,0.19l-0.01,0.42
		l-0.23,0.45l0.08,0.4l0.09,0.48l0.19,0.53l0.04,0.24l-0.04,0.26l-0.01,0.24l0.04,0.48l-0.01,0.39l-0.04,0.2l-0.13,0.37l-0.04,0.03
		l-0.1,0.03l-0.12,0.01l-0.11-0.01l-0.09,0.02l-0.04,0.13l0.03,0.09l0.13,0.19l0.01,0.13l-0.04,0.09l-0.22,0.22l0.04,0.32
		l-0.01,0.11l0,0l-1.33-1.56l-1.32-1.57l-1.37-1.63l-1.27-1.56l-1.12-1.38l-1.12-1.39l-1.12-1.39l-1.11-1.38l-1.11-1.39l-1.11-1.4
		l-1.1-1.39l-1.09-1.39l-1.26-1.53l-1.25-1.53l-1.25-1.53l-1.23-1.54l-1.24-1.53l-1.23-1.54l-1.23-1.54l-1.22-1.54l-1.58-1.85
		l-1.57-1.85l-1.56-1.86l-1.55-1.86l-1.55-1.86l-1.54-1.86l-1.53-1.87l-1.52-1.86l0.02-0.13l0.1-0.53l0.33-1.73l0.32-1.73l0.33-1.73
		l0.33-1.73l0.33-1.73l0.33-1.73l0.33-1.73l0.32-1.73l0.33-1.72l0.33-1.72l0.32-1.73l0.33-1.72l0.33-1.72l0.32-1.71l0.33-1.72
		l0.32-1.71l1.4,0.24l1.4,0.25l1.4,0.24l1.39,0.24l1.4,0.24l1.39,0.23l1.4,0.24l1.4,0.23l1.4,0.22l1.4,0.22l1.4,0.22l1.4,0.22
		l1.4,0.22l1.4,0.22l1.4,0.22l1.41,0.21l1.39,0.21l1.4,0.21l1.4,0.2l1.4,0.2l1.4,0.19l1.4,0.2l1.4,0.19l1.4,0.19l1.4,0.19l1.4,0.19
		l1.4,0.19l1.4,0.18l1.41,0.18l1.4,0.18l1.4,0.17l1.41,0.17l-0.19,1.48l-0.19,1.48l-0.19,1.48l-0.19,1.48l-0.2,1.48l-0.19,1.48
		l-0.19,1.48l-0.19,1.48l-0.19,1.48l-0.2,1.48l-0.19,1.48l-0.19,1.48l-0.19,1.48l-0.19,1.49l-0.2,1.48l-0.19,1.49l-0.19,1.48
		L64.98,44l-0.19,1.49l-0.19,1.48l-0.19,1.49l-0.2,1.49l-0.19,1.49l-0.2,1.5l-0.19,1.49l-0.19,1.49l-0.19,1.49l-0.2,1.5l-0.19,1.49
		l-0.2,1.5l-0.19,1.49l-0.19,1.5l-0.01,0.08l-0.03,0.22l-0.04,0.35l-0.06,0.45l-0.07,0.54l-0.08,0.6l-0.08,0.64l-0.09,0.66
		l-0.09,0.66l-0.09,0.64l-0.07,0.6l-0.07,0.54l-0.06,0.45l-0.04,0.35l-0.03,0.22l-0.01,0.08l-0.05,0.4l-0.02,0.09l-0.03,0.09
		L60.99,72.77L60.99,72.77z"/>
	<path id="NV_2_" class="st1" d="M60.99,72.77l-0.18,0.17l-0.13,0.29l-0.16,0.35l-0.18,0.4l-0.3,0.11l-0.41,0.01l-0.2-0.04
		l-0.18-0.1l-0.13-0.14l-0.08-0.14l-0.06-0.12l-0.13-0.42l-0.04-0.1l-0.07-0.1l-0.07-0.1l-0.07-0.05l-0.07-0.04l-0.05-0.02h-0.06
		h-0.05l-0.05,0.01l-0.04,0.02l-0.22,0.09L58,72.88h-0.05l-0.06-0.01l-0.07-0.01l-0.1-0.05l-0.07-0.07l-0.06-0.06l-0.04-0.03
		l-0.03-0.02l-0.42-0.18l-0.07-0.01l-0.07,0.01l-0.13,0.04l-0.48,0.06l-0.28,0.12l-0.29,0.09l-0.04,0.03l-0.04,0.03l-0.07,0.07
		l-0.03,0.04l-0.02,0.08l-0.01,0.11l-0.01,0.22l-0.01,0.11l-0.05,0.1l-0.16,0.12l-0.02,0.27l0.04,0.27l0.09,0.24l0.27,0.44
		l0.04,0.09v0.11l-0.04,0.11l-0.18,0.22l-0.06,0.14l-0.08,0.53l-0.01,0.27l0.01,0.19l0.19,0.73l0.04,0.17l-0.1,0.19l-0.01,0.42
		l-0.23,0.45l0.08,0.4l0.09,0.48l0.19,0.53l0.04,0.24l-0.04,0.26l-0.01,0.24l0.04,0.48l-0.01,0.39l-0.04,0.2l-0.13,0.37l-0.04,0.03
		l-0.1,0.03l-0.12,0.01l-0.11-0.01l-0.09,0.02l-0.04,0.13l0.03,0.09l0.13,0.19l0.01,0.13l-0.04,0.09l-0.22,0.22l0.04,0.32
		l-0.01,0.11l0,0l-1.33-1.56l-1.32-1.57l-1.37-1.63l-1.27-1.56l-1.12-1.38l-1.12-1.39l-1.12-1.39l-1.11-1.38l-1.11-1.39l-1.11-1.4
		l-1.1-1.39l-1.09-1.39l-1.26-1.53l-1.25-1.53l-1.25-1.53l-1.23-1.54l-1.24-1.53l-1.23-1.54l-1.23-1.54l-1.22-1.54l-1.58-1.85
		l-1.57-1.85l-1.56-1.86l-1.55-1.86l-1.55-1.86l-1.54-1.86l-1.53-1.87l-1.52-1.86l0.02-0.13l0.1-0.53l0.33-1.73l0.32-1.73l0.33-1.73
		l0.33-1.73l0.33-1.73l0.33-1.73l0.33-1.73l0.32-1.73l0.33-1.72l0.33-1.72l0.32-1.73l0.33-1.72l0.33-1.72l0.32-1.71l0.33-1.72
		l0.32-1.71l1.4,0.24l1.4,0.25l1.4,0.24l1.39,0.24l1.4,0.24l1.39,0.23l1.4,0.24l1.4,0.23l1.4,0.22l1.4,0.22l1.4,0.22l1.4,0.22
		l1.4,0.22l1.4,0.22l1.4,0.22l1.41,0.21l1.39,0.21l1.4,0.21l1.4,0.2l1.4,0.2l1.4,0.19l1.4,0.2l1.4,0.19l1.4,0.19l1.4,0.19l1.4,0.19
		l1.4,0.19l1.4,0.18l1.41,0.18l1.4,0.18l1.4,0.17l1.41,0.17l-0.19,1.48l-0.19,1.48l-0.19,1.48l-0.19,1.48l-0.2,1.48l-0.19,1.48
		l-0.19,1.48l-0.19,1.48l-0.19,1.48l-0.2,1.48l-0.19,1.48l-0.19,1.48l-0.19,1.48l-0.19,1.49l-0.2,1.48l-0.19,1.49l-0.19,1.48
		L64.98,44l-0.19,1.49l-0.19,1.48l-0.19,1.49l-0.2,1.49l-0.19,1.49l-0.2,1.5l-0.19,1.49l-0.19,1.49l-0.19,1.49l-0.2,1.5l-0.19,1.49
		l-0.2,1.5l-0.19,1.49l-0.19,1.5l-0.01,0.08l-0.03,0.22l-0.04,0.35l-0.06,0.45l-0.07,0.54l-0.08,0.6l-0.08,0.64l-0.09,0.66
		l-0.09,0.66l-0.09,0.64l-0.07,0.6l-0.07,0.54l-0.06,0.45l-0.04,0.35l-0.03,0.22l-0.01,0.08l-0.05,0.4l-0.02,0.09l-0.03,0.09
		L60.99,72.77L60.99,72.77z"/>
</g>
<g id="OHIO">
</g>
<g id="OKLAHOMA">
</g>
<g id="OREGON">
</g>
<g id="PENNSYLVANIA">
</g>
<g id="RHODE_ISLAND">
</g>
<g id="SOUTH_CAROLINA">
</g>
<g id="SOUTH_DAKOTA">
</g>
<g id="TENNESSEE">
</g>
<g id="TEXAS">
</g>
<g id="UTAH">
</g>
<g id="VIRGINIA">
</g>
<g id="VERMONT">
</g>
<g id="WASHINGTON">
</g>
<g id="WISCONSIN">
</g>
<g id="WEST_VIRGINIA">
</g>
<g id="WYOMING">
</g>
</svg>
