<?xml version="1.0" encoding="UTF-8"?>
<svg id="NEVADA" xmlns="http://www.w3.org/2000/svg" viewBox="0 0 90 90">
  <defs>
    <style>
      .cls-1 {
        fill: #e2e2e2;
        stroke: #f9f9f9;
        stroke-linecap: round;
        stroke-linejoin: round;
        stroke-width: .03px;
      }
    </style>
  </defs>
  <path id="NV" class="cls-1" d="M60.99,72.77l-.18,.17-.13,.29-.16,.35-.18,.4-.3,.11h-.41s-.2-.02-.2-.02l-.18-.1-.13-.14-.08-.14-.06-.12-.13-.42-.04-.1-.07-.1-.07-.1-.07-.05-.07-.04-.05-.02h-.16s-.04,.02-.04,.02l-.22,.09h-.05s-.05,.01-.05,.01h-.06s-.07-.02-.07-.02l-.1-.05-.07-.07-.06-.06-.04-.03-.03-.02-.42-.18h-.07s-.07,0-.07,0l-.13,.04-.48,.06-.28,.12-.29,.09-.04,.03-.04,.03-.07,.07-.03,.04-.02,.08v.11s-.02,.22-.02,.22v.11s-.07,.1-.07,.1l-.16,.12-.02,.27,.04,.27,.09,.24,.27,.44,.04,.09v.11l-.04,.11-.18,.22-.06,.14-.08,.53v.27s0,.19,0,.19l.19,.73,.04,.17-.1,.19v.42s-.24,.45-.24,.45l.08,.4,.09,.48,.19,.53,.04,.24-.04,.26v.24s.03,.48,.03,.48v.39s-.04,.2-.04,.2l-.13,.37-.04,.03-.1,.03h-.12s-.11,0-.11,0l-.09,.02-.04,.13,.03,.09,.13,.19v.13s-.03,.09-.03,.09l-.22,.22,.04,.32v.11h0l-1.33-1.56-1.32-1.57-1.37-1.63-1.27-1.56-1.12-1.38-1.12-1.39-1.12-1.39-1.11-1.38-1.11-1.39-1.11-1.4-1.1-1.39-1.09-1.39-1.26-1.53-1.25-1.53-1.25-1.53-1.23-1.54-1.24-1.53-1.23-1.54-1.23-1.54-1.22-1.54-1.58-1.85-1.57-1.85-1.56-1.86-1.55-1.86-1.55-1.86-1.54-1.86-1.53-1.87-1.52-1.86,.02-.13,.1-.53,.33-1.73,.32-1.73,.33-1.73,.33-1.73,.33-1.73,.33-1.73,.33-1.73,.32-1.73,.33-1.72,.33-1.72,.32-1.73,.33-1.72,.33-1.72,.32-1.71,.33-1.72,.32-1.71,1.4,.24,1.4,.25,1.4,.24,1.39,.24,1.4,.24,1.39,.23,1.4,.24,1.4,.23,1.4,.22,1.4,.22,1.4,.22,1.4,.22,1.4,.22,1.4,.22,1.4,.22,1.41,.21,1.39,.21,1.4,.21,1.4,.2,1.4,.2,1.4,.19,1.4,.2,1.4,.19,1.4,.19,1.4,.19,1.4,.19,1.4,.19,1.4,.18,1.41,.18,1.4,.18,1.4,.17,1.41,.17-.19,1.48-.19,1.48-.19,1.48-.19,1.48-.2,1.48-.19,1.48-.19,1.48-.19,1.48-.19,1.48-.2,1.48-.19,1.48-.19,1.48-.19,1.48-.19,1.49-.2,1.48-.19,1.49-.19,1.48-.2,1.49-.19,1.49-.19,1.48-.19,1.49-.2,1.49-.19,1.49-.2,1.5-.19,1.49-.19,1.49-.19,1.49-.2,1.5-.19,1.49-.2,1.5-.19,1.49-.19,1.5v.08s-.04,.22-.04,.22l-.04,.35-.06,.45-.07,.54-.08,.6-.08,.64-.09,.66-.09,.66-.09,.64-.07,.6-.07,.54-.06,.45-.04,.35-.03,.22v.08s-.07,.4-.07,.4l-.02,.09-.03,.09-.19,.19h0Z"/>
  <g>
    <path d="M42.6,37.55h-1.23l-2.06-3.12v3.12h-1.23v-5.09h1.23l2.06,3.15v-3.15h1.23v5.09Z"/>
    <path d="M44.4,32.46l1.25,3.83,1.25-3.83h1.32l-1.77,5.09h-1.59l-1.76-5.09h1.32Z"/>
  </g>
</svg>