<?xml version="1.0" encoding="UTF-8"?>
<svg id="NEW_HAMPSHIRE" data-name="NEW HAMPSHIRE" xmlns="http://www.w3.org/2000/svg" viewBox="0 0 90 90">
  <defs>
    <style>
      .cls-1 {
        fill: #e2e2e2;
        stroke: #f9f9f9;
        stroke-linecap: round;
        stroke-linejoin: round;
        stroke-width: .03px;
      }
    </style>
  </defs>
  <path id="NH" class="cls-1" d="M69.46,63.06l-.04,.67,.39-.21,.43-.18,.14,.14,.02,.35-.06,.37-.04,.14-.06,.45-.59,1.82-.18,.98-.04,.57,.08,.41-.65,.35h-.43l-.7-.1-.23,.04-.18,.04-1.64,1.29-.18,.21-.08,.12-.2,.39-.1,.18-.2,.25-.18,.1-.22,.06-.23,.02-.31,.08-.2,.08-.14,.1-.08,.1-.08,.1-.12,.26-.06,.14-.08,.31-.04,.51-.04,.2-.14,.25-.2,.18-.35,.19-.18,.14-.12,.14-.18,.39-.21,.33-.21,.29-.14,.1-.2,.08-.43,.12-1.39,.32-1.37,.31-1.37,.31-1.37,.31-1.37,.31-1.37,.31-1.39,.31-1.37,.32-1.37,.31-1.37,.31-1.37,.29-1.37,.31-1.39,.31-1.37,.29-1.37,.32-1.37,.29h-.02v.02h-.02v-.02l-.31-.68-.51-.43-1.04-.61-.23-.24-.16-.21-.16-.27-.14-.37-.1-.45,.02-.33,.06-.29,.06-.39-.14-1.12,.02-.47,.29-.27,.41-.28,.08-.47-.21-1.15-.02-1.49-.1-.59-.27-.63-.08-.29-.16-1.06,.1-.18,.06-.14v-.16l-.04-.16-.08-.06-.06-.04-.04-.06-.04-.33,.02-.28,.08-.27,.14-.27,.12-.53-.1-.57-.32-.94-.94-4.28-.06-.69,.1-.41,.51-.77,.16-.51,.04-.53-.1-1.08-.16-.88,.06-.29,.41-.53,.16-.39,.76-1.13,.12-.45,.02-.53-.02-.57-.1-.55-.02-.55,.14-.59,.8-2.02v-.2l-.16-.1-.21-.12-.14-.2,.02-.41,.45-1.61,.06-.86-.14-.98-.57-2.17-.18-1.31,.18-1,.57-.71,.9-.43,.94-.2,.43-.2,.29-.33,.43-.92,.21-.33,1.39-1.43,.45-.31,.1-.27,.2-.61,.51-.69,.23-.53-.1-.45-.16-.43v-.51l.16-.18,.23-.06,.21-.1,.1-.29-.06-.23-.2-.23-.33-.27-.94-1.27-.18-.35-.25-.41-.35-.25-.27-.35-.1-.65,.23-1,.57-1.43,.53-1.35,.02-.64-.28-.35-.35-.29-.27-.55-.12-.67,.12-.29,.29-.18h0l-.2-.57-.06-.41,.04-.37,.47-1.29,.04-.29-.04-.49,.02-.27,.3-1.02v-.49l-.37-.21-.55-.12,.14-.22,.77-.41,.2-.29,.37-.82,.25-.35,.39-.24,.35-.04,1.8,.51,.49,.02,.49-.06,.29-.25,.35-1,.2-.43,.16-.12,.02-.02,.43,1.31,.43,1.29,.41,1.31,.43,1.29,.43,1.29,.43,1.31,.43,1.29,.41,1.31,.43,1.29,.43,1.31,.43,1.29,.43,1.31,.41,1.31,.43,1.29,.43,1.31,.43,1.29,.43,1.31,.43,1.31,.43,1.29,.41,1.31,.45,1.31,.43,1.31,.41,1.29,.43,1.31,.43,1.31,.43,1.31,.43,1.29,.43,1.31,.43,1.31,.43,1.31,.43,1.31,.43,1.31,.25,.72,.12,.8,.1,.37,.04,.37v.12l.02,.18,.06,.21,.16,.33,.14,.41,.02,.29-.02,.66v.16l.06,.18,.06,.17,.16,.26,.16,.2,.2,.16,.74,.51,.86,.7,.8,.69,.86,.27,.16,.1,.14,.16,.18,.33,.06,.21,.04,.21v.8l.04,.28,.08,.14,.51,.53,.86,.55,.69,.45h0Z"/>
  <g>
    <path d="M48.41,55.97h-1.23l-2.06-3.12v3.12h-1.23v-5.09h1.23l2.06,3.15v-3.15h1.23v5.09Z"/>
    <path d="M53.66,50.88v5.09h-1.24v-2.12h-1.93v2.12h-1.23v-5.09h1.23v1.97h1.93v-1.97h1.24Z"/>
  </g>
</svg>