<?xml version="1.0" encoding="utf-8"?>
<!-- Generator: Adobe Illustrator 26.5.0, SVG Export Plug-In . SVG Version: 6.00 Build 0)  -->
<svg version="1.1" xmlns="http://www.w3.org/2000/svg" xmlns:xlink="http://www.w3.org/1999/xlink" x="0px" y="0px"
	 viewBox="0 0 90 90" style="enable-background:new 0 0 90 90;" xml:space="preserve">
<style type="text/css">
	.st0{fill:#CECECE;stroke:#F9F9F9;stroke-width:0.025;stroke-linecap:round;stroke-linejoin:round;}
	.st1{display:none;fill:none;stroke:#47CCCC;stroke-width:0.5;stroke-linecap:round;stroke-linejoin:round;}
	.st2{fill:#CECECE;}
</style>
<g id="ALABAMA">
</g>
<g id="ALASKA">
</g>
<g id="ARIZONA">
</g>
<g id="ARKANSAS_1_">
</g>
<g id="CALIFORNIA">
</g>
<g id="COLORADO">
</g>
<g id="CONNECTICUT">
</g>
<g id="DELAWARE">
</g>
<g id="DC">
</g>
<g id="FLORIDA">
</g>
<g id="GEORGIA">
</g>
<g id="HAWAII">
</g>
<g id="IDAHO">
</g>
<g id="IOWA">
</g>
<g id="ILLINOIS">
</g>
<g id="INDIANA">
</g>
<g id="KANSAS">
</g>
<g id="KETUCKY">
</g>
<g id="LOUISANA">
</g>
<g id="MAINE">
</g>
<g id="MARYLAND">
</g>
<g id="MASSACHUSETTS">
</g>
<g id="MICHIGAN">
</g>
<g id="MINNESOTA">
</g>
<g id="MISSOURI">
</g>
<g id="MISSISSIPPI">
</g>
<g id="MONTANA">
</g>
<g id="NORTH_CAROLINA">
</g>
<g id="NORTH_DAKOTA">
</g>
<g id="NEBRASKA">
</g>
<g id="NEW_HAMPSHIRE">
	<path id="NH_1_" class="st0" d="M69.46,63.06l-0.04,0.67l0.39-0.21l0.43-0.18l0.14,0.14l0.02,0.35l-0.06,0.37l-0.04,0.14
		l-0.06,0.45l-0.59,1.82l-0.18,0.98l-0.04,0.57l0.08,0.41l-0.65,0.35h-0.43l-0.7-0.1l-0.23,0.04l-0.18,0.04l-1.64,1.29l-0.18,0.22
		l-0.08,0.12l-0.2,0.39l-0.1,0.18l-0.2,0.25l-0.18,0.1l-0.22,0.06l-0.23,0.02L64,71.6l-0.2,0.08l-0.14,0.1l-0.08,0.1l-0.08,0.1
		l-0.12,0.26l-0.06,0.14l-0.08,0.31l-0.04,0.51l-0.04,0.2l-0.14,0.25l-0.2,0.18L62.5,74l-0.18,0.14l-0.12,0.14l-0.18,0.39L61.81,75
		l-0.21,0.29l-0.14,0.1l-0.2,0.08l-0.43,0.12l-1.39,0.32l-1.37,0.31l-1.37,0.31l-1.37,0.31l-1.37,0.31l-1.37,0.31l-1.39,0.31
		l-1.37,0.32l-1.37,0.31l-1.37,0.31l-1.37,0.29l-1.37,0.31l-1.39,0.31l-1.37,0.29l-1.37,0.32l-1.37,0.29h-0.02l0,0l0,0l0,0l0,0l0,0
		l0,0l0,0v0.02l0,0h-0.02l0,0l0,0l0,0l0,0l0,0v-0.02l-0.31-0.68L38,79.42l-1.04-0.61l-0.23-0.24l-0.16-0.21l-0.16-0.27l-0.14-0.38
		l-0.1-0.45l0.02-0.33l0.06-0.29l0.06-0.39l-0.14-1.12l0.02-0.47l0.29-0.27l0.41-0.28l0.08-0.47l-0.21-1.15l-0.02-1.49l-0.1-0.59
		l-0.27-0.63L36.3,69.5l-0.16-1.06l0.1-0.18l0.06-0.14v-0.16l-0.04-0.16l-0.08-0.06l-0.06-0.04l-0.04-0.06l-0.04-0.33l0.02-0.28
		l0.08-0.27l0.14-0.27l0.12-0.53l-0.1-0.57l-0.32-0.94l-0.94-4.28l-0.06-0.69l0.1-0.41l0.51-0.77l0.16-0.51l0.04-0.53l-0.1-1.08
		l-0.16-0.88l0.06-0.29L36,54.51l0.16-0.39l0.76-1.13l0.12-0.45l0.02-0.53l-0.02-0.57l-0.1-0.55l-0.02-0.55l0.14-0.59l0.8-2.02v-0.2
		l-0.16-0.1l-0.21-0.12l-0.14-0.2l0.02-0.41l0.45-1.61l0.06-0.86l-0.14-0.98l-0.57-2.17L37,39.8l0.18-1l0.57-0.71l0.9-0.43l0.94-0.2
		l0.43-0.2l0.29-0.33l0.43-0.92l0.21-0.33l1.39-1.43l0.45-0.31l0.1-0.27l0.2-0.61l0.51-0.69l0.23-0.53l-0.1-0.45l-0.16-0.43v-0.51
		l0.16-0.18l0.23-0.06l0.21-0.1l0.1-0.3l-0.06-0.23l-0.2-0.23l-0.33-0.27l-0.94-1.27l-0.18-0.35l-0.25-0.41l-0.35-0.25l-0.27-0.35
		l-0.1-0.65l0.23-1l0.57-1.43l0.53-1.35l0.02-0.64l-0.28-0.35l-0.35-0.29l-0.27-0.55l-0.12-0.67l0.12-0.29l0.29-0.18l0,0l-0.2-0.57
		l-0.06-0.41l0.04-0.37l0.47-1.29l0.04-0.29l-0.04-0.49l0.02-0.27l0.3-1.02v-0.49l-0.38-0.21l-0.55-0.12l0.14-0.22l0.77-0.41
		l0.2-0.29l0.37-0.82l0.25-0.35l0.39-0.24l0.35-0.04l1.8,0.51l0.49,0.02l0.49-0.06l0.29-0.25l0.35-1l0.2-0.43l0.16-0.12l0.02-0.02
		l0.43,1.31l0.43,1.29l0.41,1.31l0.43,1.29l0.43,1.29l0.43,1.31l0.43,1.29l0.41,1.31l0.43,1.29l0.43,1.31l0.43,1.29l0.43,1.31
		l0.41,1.31l0.43,1.29l0.43,1.31l0.43,1.29l0.43,1.31l0.43,1.31l0.43,1.29l0.41,1.31l0.45,1.31l0.43,1.31l0.41,1.29l0.43,1.31
		l0.43,1.31l0.43,1.31l0.43,1.29l0.43,1.31l0.43,1.31l0.43,1.31l0.43,1.31l0.43,1.31l0.25,0.72l0.12,0.8l0.1,0.37l0.04,0.37v0.12
		l0.02,0.18l0.06,0.21l0.16,0.33l0.14,0.41l0.02,0.29l-0.02,0.66v0.16l0.06,0.18l0.06,0.17l0.16,0.26l0.16,0.2l0.2,0.16l0.74,0.51
		l0.86,0.7l0.8,0.69l0.86,0.27l0.16,0.1l0.14,0.16l0.18,0.33l0.06,0.21l0.04,0.21v0.8l0.04,0.28l0.08,0.14l0.51,0.53l0.86,0.55
		L69.46,63.06L69.46,63.06z"/>
	<path id="NH_2_" class="st1" d="M69.46,63.06l-0.04,0.67l0.39-0.21l0.43-0.18l0.14,0.14l0.02,0.35l-0.06,0.37l-0.04,0.14
		l-0.06,0.45l-0.59,1.82l-0.18,0.98l-0.04,0.57l0.08,0.41l-0.65,0.35h-0.43l-0.7-0.1l-0.23,0.04l-0.18,0.04l-1.64,1.29l-0.18,0.22
		l-0.08,0.12l-0.2,0.39l-0.1,0.18l-0.2,0.25l-0.18,0.1l-0.22,0.06l-0.23,0.02L64,71.6l-0.2,0.08l-0.14,0.1l-0.08,0.1l-0.08,0.1
		l-0.12,0.26l-0.06,0.14l-0.08,0.31l-0.04,0.51l-0.04,0.2l-0.14,0.25l-0.2,0.18L62.5,74l-0.18,0.14l-0.12,0.14l-0.18,0.39L61.81,75
		l-0.21,0.29l-0.14,0.1l-0.2,0.08l-0.43,0.12l-1.39,0.32l-1.37,0.31l-1.37,0.31l-1.37,0.31l-1.37,0.31l-1.37,0.31l-1.39,0.31
		l-1.37,0.32l-1.37,0.31l-1.37,0.31l-1.37,0.29l-1.37,0.31l-1.39,0.31l-1.37,0.29l-1.37,0.32l-1.37,0.29h-0.02l0,0l0,0l0,0l0,0l0,0
		l0,0l0,0v0.02l0,0h-0.02l0,0l0,0l0,0l0,0l0,0v-0.02l-0.31-0.68L38,79.42l-1.04-0.61l-0.23-0.24l-0.16-0.21l-0.16-0.27l-0.14-0.38
		l-0.1-0.45l0.02-0.33l0.06-0.29l0.06-0.39l-0.14-1.12l0.02-0.47l0.29-0.27l0.41-0.28l0.08-0.47l-0.21-1.15l-0.02-1.49l-0.1-0.59
		l-0.27-0.63L36.3,69.5l-0.16-1.06l0.1-0.18l0.06-0.14v-0.16l-0.04-0.16l-0.08-0.06l-0.06-0.04l-0.04-0.06l-0.04-0.33l0.02-0.28
		l0.08-0.27l0.14-0.27l0.12-0.53l-0.1-0.57l-0.32-0.94l-0.94-4.28l-0.06-0.69l0.1-0.41l0.51-0.77l0.16-0.51l0.04-0.53l-0.1-1.08
		l-0.16-0.88l0.06-0.29L36,54.51l0.16-0.39l0.76-1.13l0.12-0.45l0.02-0.53l-0.02-0.57l-0.1-0.55l-0.02-0.55l0.14-0.59l0.8-2.02v-0.2
		l-0.16-0.1l-0.21-0.12l-0.14-0.2l0.02-0.41l0.45-1.61l0.06-0.86l-0.14-0.98l-0.57-2.17L37,39.8l0.18-1l0.57-0.71l0.9-0.43l0.94-0.2
		l0.43-0.2l0.29-0.33l0.43-0.92l0.21-0.33l1.39-1.43l0.45-0.31l0.1-0.27l0.2-0.61l0.51-0.69l0.23-0.53l-0.1-0.45l-0.16-0.43v-0.51
		l0.16-0.18l0.23-0.06l0.21-0.1l0.1-0.3l-0.06-0.23l-0.2-0.23l-0.33-0.27l-0.94-1.27l-0.18-0.35l-0.25-0.41l-0.35-0.25l-0.27-0.35
		l-0.1-0.65l0.23-1l0.57-1.43l0.53-1.35l0.02-0.64l-0.28-0.35l-0.35-0.29l-0.27-0.55l-0.12-0.67l0.12-0.29l0.29-0.18l0,0l-0.2-0.57
		l-0.06-0.41l0.04-0.37l0.47-1.29l0.04-0.29l-0.04-0.49l0.02-0.27l0.3-1.02v-0.49l-0.38-0.21l-0.55-0.12l0.14-0.22l0.77-0.41
		l0.2-0.29l0.37-0.82l0.25-0.35l0.39-0.24l0.35-0.04l1.8,0.51l0.49,0.02l0.49-0.06l0.29-0.25l0.35-1l0.2-0.43l0.16-0.12l0.02-0.02
		l0.43,1.31l0.43,1.29l0.41,1.31l0.43,1.29l0.43,1.29l0.43,1.31l0.43,1.29l0.41,1.31l0.43,1.29l0.43,1.31l0.43,1.29l0.43,1.31
		l0.41,1.31l0.43,1.29l0.43,1.31l0.43,1.29l0.43,1.31l0.43,1.31l0.43,1.29l0.41,1.31l0.45,1.31l0.43,1.31l0.41,1.29l0.43,1.31
		l0.43,1.31l0.43,1.31l0.43,1.29l0.43,1.31l0.43,1.31l0.43,1.31l0.43,1.31l0.43,1.31l0.25,0.72l0.12,0.8l0.1,0.37l0.04,0.37v0.12
		l0.02,0.18l0.06,0.21l0.16,0.33l0.14,0.41l0.02,0.29l-0.02,0.66v0.16l0.06,0.18l0.06,0.17l0.16,0.26l0.16,0.2l0.2,0.16l0.74,0.51
		l0.86,0.7l0.8,0.69l0.86,0.27l0.16,0.1l0.14,0.16l0.18,0.33l0.06,0.21l0.04,0.21v0.8l0.04,0.28l0.08,0.14l0.51,0.53l0.86,0.55
		L69.46,63.06L69.46,63.06z"/>
</g>
<g id="NEW_JERSEY">
</g>
<g id="NEW_YORK">
</g>
<g id="NEW_MEXICO">
</g>
<g id="NEVADA">
</g>
<g id="OHIO">
</g>
<g id="OKLAHOMA">
</g>
<g id="OREGON">
</g>
<g id="PENNSYLVANIA">
</g>
<g id="RHODE_ISLAND">
</g>
<g id="SOUTH_CAROLINA">
</g>
<g id="SOUTH_DAKOTA">
</g>
<g id="TENNESSEE">
</g>
<g id="TEXAS">
</g>
<g id="UTAH">
</g>
<g id="VIRGINIA">
</g>
<g id="VERMONT">
</g>
<g id="WASHINGTON">
</g>
<g id="WISCONSIN">
</g>
<g id="WEST_VIRGINIA">
</g>
<g id="WYOMING">
</g>
</svg>
