<?xml version="1.0" encoding="utf-8"?>
<!-- Generator: Adobe Illustrator 26.5.0, SVG Export Plug-In . SVG Version: 6.00 Build 0)  -->
<svg version="1.1" xmlns="http://www.w3.org/2000/svg" xmlns:xlink="http://www.w3.org/1999/xlink" x="0px" y="0px"
	 viewBox="0 0 90 90" style="enable-background:new 0 0 90 90;" xml:space="preserve">
<style type="text/css">
	.st0{fill:#CECECE;stroke:#F9F9F9;stroke-width:0.025;stroke-linecap:round;stroke-linejoin:round;}
	.st1{display:none;fill:none;stroke:#47CCCC;stroke-width:0.5;stroke-linecap:round;stroke-linejoin:round;}
	.st2{fill:#CECECE;}
</style>
<g id="ALABAMA">
</g>
<g id="ALASKA">
</g>
<g id="ARIZONA">
</g>
<g id="ARKANSAS_1_">
</g>
<g id="CALIFORNIA">
</g>
<g id="COLORADO">
</g>
<g id="CONNECTICUT">
</g>
<g id="DELAWARE">
</g>
<g id="DC">
</g>
<g id="FLORIDA">
</g>
<g id="GEORGIA">
</g>
<g id="HAWAII">
</g>
<g id="IDAHO">
</g>
<g id="IOWA">
</g>
<g id="ILLINOIS">
</g>
<g id="INDIANA">
</g>
<g id="KANSAS">
</g>
<g id="KETUCKY">
</g>
<g id="LOUISANA">
</g>
<g id="MAINE">
</g>
<g id="MARYLAND">
</g>
<g id="MASSACHUSETTS">
</g>
<g id="MICHIGAN">
</g>
<g id="MINNESOTA">
</g>
<g id="MISSOURI">
</g>
<g id="MISSISSIPPI">
</g>
<g id="MONTANA">
</g>
<g id="NORTH_CAROLINA">
</g>
<g id="NORTH_DAKOTA">
</g>
<g id="NEBRASKA">
</g>
<g id="NEW_HAMPSHIRE">
</g>
<g id="NEW_JERSEY">
	<path id="NJ_1_" class="st0" d="M60.24,64.08l0.37,0.53l-0.25,0.4l-0.15,1.07l-0.27,0.3l-0.4-0.07l-0.3-0.35l-0.3-0.22l-0.4,0.3
		l0.78,0.7l0.87-0.05l0.75-0.6l0.55-0.97l0.12-0.97l0.1-0.07l0.17-0.2l0.05-0.17l-1.32,0.12L60.24,64.08z M64.65,53.33l-0.12,0.4
		l-0.2,0.85l0.03,0.77l-1.62,4.61l-0.05,0.85l-0.07,0.32v0.15l0.05,0.25l0.4-0.93l0.6-2.74l0.82-1.27l0.28-1.27l0.15-1.4v-0.9
		L64.65,53.33z M64.83,48.09l0.07-1.15l-0.2-0.15l0.08-0.58l-0.23-1.49l0.25-1.35l-0.18-0.77l-0.4-0.58l-0.52-0.15l0.27-1l0.25-2.87
		l-0.27-0.85l0.12-0.82l0.25-0.8l0.05-0.75l-1.34-4.29l-0.4-0.8l-0.47-0.35l-0.28,0.3l0.25,0.65l0.45,0.65l0.4,0.33l-0.42,0.22
		l-1.13-0.37l-2.4-0.23l-0.7,0.07l-1.22,0.53l-0.25-0.02L56.4,31.3l-0.93-0.07l-0.37-0.42l-0.05-0.6l0.22-0.6l-0.22-0.15l-0.22-1.02
		l-0.05-0.12l0.15-0.3l0.35-0.48l0.17-0.33l0.12-0.65v-1.34l0.15-0.63l0.17-0.25l0.4-0.4l0.15-0.22l0.07-0.3l0.05-0.62l0.12-0.3
		l0.42-0.43l0.15,0.27l-0.1,1.45l0.4-0.07l0.27-0.17l0.2-0.25l0.32-0.7l0.47-0.57l0.4-0.65l0.12-0.25v-0.3l-0.07-0.45L59.24,20
		l0.1-0.63l0.02-0.9l0.65-1.89l0.35-2.57l-0.05-1.37l-0.12-0.6l-2.84-0.9l-2.82-0.87L51.68,9.4l-2.82-0.9l-2.84-0.88l-2.82-0.9
		l-2.82-0.87l-2.82-0.9l0.02,0.05l-0.42,0.42l-0.55,0.17l-0.22,0.15l-0.27,0.37l-0.27,0.07l-0.1,0.12l-0.05,0.15l-0.05,0.35
		l-0.02,0.1l-1.07,1.55l-0.1,0.47l0.05,0.22l-0.05,0.97L34.2,11.7l-0.93,2.02L33,14.04l-0.15,0.12l-0.22,0.2l-0.2,0.25l-0.07,0.17
		l0.1,0.4l0.02,0.07l-0.1,0.07l-0.72,1.5l-0.4,0.47l-0.53,0.27l-0.32,0.25l-0.5,0.52l-0.45,0.63l-0.15,0.57l0.1,0.22L29.6,20
		l0.4,0.32l0.05,0.12v0.15l0.02,0.12l0.1,0.02l0.15-0.02h0.17l0.1,0.07l0.1,0.2l0.25,0.22l0.5,0.35l0.5,0.48l0.22,0.6l-0.12,0.6
		l-0.3,0.32l-0.22,0.37l0.02,0.82l-0.02,0.62l-0.35,0.43l-0.47,0.17l-0.52-0.12l-0.1,0.6l-0.12,0.3l-0.15,0.15l-0.1,0.15l0.1,0.28
		l0.15,0.2h0.07l-0.12,1v0.47l0.17,0.37l0.17,0.3l-0.02,0.27l0.05,0.3l0.32,1l-0.05,0.35l0.12,0.35l0.17,0.3l0.4,0.85l0.35,0.07
		l0.72-0.32l1.37,0.12l0.65,0.75l0.75,2.47l0.4,0.55l0.62,0.55l0.65,0.25l0.9-0.6l0.45,0.47l0.65,1.17l1.57,0.85l0.32,0.25
		l0.12,0.17l1.12,1l1.03,0.77l1.59,0.82l0.8,0.55l0.45,0.62l-0.17,0.72l-0.63,0.6l-0.77,0.47l-0.62,0.22l-0.2,0.2l-0.72,0.97
		L42.43,47l-0.9,0.53l-0.32,0.35l-0.75,1.32l-0.27,0.3l-0.8,0.63l-0.3,0.55l-0.65,1.8l-0.2-0.2l-0.25,0.53l-0.47-0.07l-0.02,0.43
		l0.3,0.55l0.5,0.42l-0.35,0.4l-0.27,0.52l-0.3,0.38l-0.45-0.02l-0.1,0.2h-0.02l-0.05,0.02l-0.57,0.33l-0.82,0.62l-0.4,0.17
		l-0.57,0.17l-1.03,0.5l-1.29,0.95l-0.82,0.9l-0.7,1.05l-0.32,1.05l0.15,0.95v0.15l-0.27,0.17l-0.1,0.28l-0.07,0.27l-0.27,0.35
		l-0.02,0.42l0.05,0.45v0.35l-0.12,0.17l-0.42,0.4L28.68,66l0.02,0.25l0.37,0.35l1.07,0.7l0.17,0.42l0.05,1.55l0.07,0.65l-0.22-0.07
		l-0.17-0.13l-0.15-0.15l0.47,0.92l0.75,0.55l0.9,0.35l3.27,2.27l0.12,0.15l0.17,0.12l0.22,0.13l0.12-0.05l0.12-0.15l0.17-0.15
		l0.25-0.02l0.35,0.27l0.3,0.47l0.37,0.43l0.45,0.1l0.97-0.2l0.22,0.07l0.35,0.6l0.25,0.07l0.4,0.07l1.07,0.52l0.3,0.2l0.07,0.17
		v0.42l0.12,0.25l0.25,0.25l0.43,0.15v0.15l0.45-0.12l0.25-0.23l0.22-0.3l0.3-0.32l0.77-0.37l0.52-0.15l0.38,0.02l0.15,0.25
		l0.05,0.25l0.07,0.17l0.25,0.02l0.22-0.1l0.42-0.23l0.17-0.07l1.05-0.22l0.45,0.02l0.47,0.2l0.75,0.95l0.1,1.32l-0.65,2.99
		l-0.02,0.67l0.07,0.67l0.12,0.67l-0.02,0.42l-0.12,0.32l0.02,0.25l0.4,0.22h0.3l0.25-0.12l1.37-0.92l0.85-0.85l0.67-1l0.3-1
		l-0.1-0.22l-0.17-0.25L52.7,80.4l0.57-0.33l0.22-0.2l0.18-0.22l0.1-0.57l0.45-0.82l0.07-0.23l-0.12-0.35l-0.2-0.17l-0.22,0.02
		l-0.25,0.2l-0.05-0.1v-0.05l-0.05-0.05l-0.12,0.02l0.17-0.35l0.23-0.2l0.3-0.05l0.32,0.15l0.62-2.77l0.17-0.47l0.5-0.42l0.75-1.7
		l0.6-0.67l-0.05-0.22l-1.28,0.8l-0.37-0.02l-0.32-0.12l-0.37-0.07l-0.45,0.1l0.32-0.67l0.67-0.35l1.65-0.32L56.7,70l-0.2-0.4
		l0.17-0.67l0.6-1.2L58.09,68l-0.52,0.85l-0.22,0.5l-0.12,0.53l0.05,0.17l0.65-0.4l1.28-1.3l0.7-0.5l-0.35-0.55l-0.45-0.55
		l-0.5-0.27l-0.42,0.32l-0.07-0.42l0.05-0.5l0.07-0.45l0.1-0.3l0.32-0.37l0.3-0.02l0.3,0.07l0.4,0.02l0.15-0.85l-0.02-0.58
		l-0.3-0.17l-0.35-0.17l-0.27-0.55l-0.3-1.17l0.3,0.15l0.33,0.12l0.32-0.05l0.35-0.3l1.1,0.43l0.12,0.15l0.12,0.32l0.2,0.22
		l0.32-0.15l0.07-0.52l-0.47-0.5l-0.47-0.63l0.2-0.52l0.12-0.55l0.22-0.3l0.3-0.22l0.28-0.35l0.17-0.35l0.1-0.43l0.17-0.35l0.6-0.47
		l0.2-0.52l0.22-1.02l0.12-0.22l0.2-0.55l0.05-0.5l-0.42-0.12l-0.5-0.32l-0.1-1l0.15-1.15l0.17-0.75l0.32-0.67v-0.25l-0.17-0.63
		l-0.02-0.52l0.12-0.42l0.47-0.7l-0.3-0.12l-0.9-0.07l0.4-0.65l0.1-0.75l-0.2-0.45l-0.5,0.25v-0.52l0.27-0.25l0.4-0.15l0.35-0.25
		l0.22-0.4l0.1-0.5l-0.15-0.3l-0.45,0.07l-0.05-0.2l0.35-0.5l0.32,0.17l0.27,0.57l0.22,0.75l0.1,0.72l-0.02,0.55l-0.22,1.25
		l0.85,5.39l0.2-0.8L64.83,48.09z"/>
	<path id="NJ_2_" class="st1" d="M60.24,64.08l0.37,0.53l-0.25,0.4l-0.15,1.07l-0.27,0.3l-0.4-0.07l-0.3-0.35l-0.3-0.22l-0.4,0.3
		l0.78,0.7l0.87-0.05l0.75-0.6l0.55-0.97l0.12-0.97l0.1-0.07l0.17-0.2l0.05-0.17l-1.32,0.12L60.24,64.08z M64.65,53.33l-0.12,0.4
		l-0.2,0.85l0.03,0.77l-1.62,4.61l-0.05,0.85l-0.07,0.32v0.15l0.05,0.25l0.4-0.93l0.6-2.74l0.82-1.27l0.28-1.27l0.15-1.4v-0.9
		L64.65,53.33z M64.83,48.09l0.07-1.15l-0.2-0.15l0.08-0.58l-0.23-1.49l0.25-1.35l-0.18-0.77l-0.4-0.58l-0.52-0.15l0.27-1l0.25-2.87
		l-0.27-0.85l0.12-0.82l0.25-0.8l0.05-0.75l-1.34-4.29l-0.4-0.8l-0.47-0.35l-0.28,0.3l0.25,0.65l0.45,0.65l0.4,0.33l-0.42,0.22
		l-1.13-0.37l-2.4-0.23l-0.7,0.07l-1.22,0.53l-0.25-0.02L56.4,31.3l-0.93-0.07l-0.37-0.42l-0.05-0.6l0.22-0.6l-0.22-0.15l-0.22-1.02
		l-0.05-0.12l0.15-0.3l0.35-0.48l0.17-0.33l0.12-0.65v-1.34l0.15-0.63l0.17-0.25l0.4-0.4l0.15-0.22l0.07-0.3l0.05-0.62l0.12-0.3
		l0.42-0.43l0.15,0.27l-0.1,1.45l0.4-0.07l0.27-0.17l0.2-0.25l0.32-0.7l0.47-0.57l0.4-0.65l0.12-0.25v-0.3l-0.07-0.45L59.24,20
		l0.1-0.63l0.02-0.9l0.65-1.89l0.35-2.57l-0.05-1.37l-0.12-0.6l-2.84-0.9l-2.82-0.87L51.68,9.4l-2.82-0.9l-2.84-0.88l-2.82-0.9
		l-2.82-0.87l-2.82-0.9l0.02,0.05l-0.42,0.42l-0.55,0.17l-0.22,0.15l-0.27,0.37l-0.27,0.07l-0.1,0.12l-0.05,0.15l-0.05,0.35
		l-0.02,0.1l-1.07,1.55l-0.1,0.47l0.05,0.22l-0.05,0.97L34.2,11.7l-0.93,2.02L33,14.04l-0.15,0.12l-0.22,0.2l-0.2,0.25l-0.07,0.17
		l0.1,0.4l0.02,0.07l-0.1,0.07l-0.72,1.5l-0.4,0.47l-0.53,0.27l-0.32,0.25l-0.5,0.52l-0.45,0.63l-0.15,0.57l0.1,0.22L29.6,20
		l0.4,0.32l0.05,0.12v0.15l0.02,0.12l0.1,0.02l0.15-0.02h0.17l0.1,0.07l0.1,0.2l0.25,0.22l0.5,0.35l0.5,0.48l0.22,0.6l-0.12,0.6
		l-0.3,0.32l-0.22,0.37l0.02,0.82l-0.02,0.62l-0.35,0.43l-0.47,0.17l-0.52-0.12l-0.1,0.6l-0.12,0.3l-0.15,0.15l-0.1,0.15l0.1,0.28
		l0.15,0.2h0.07l-0.12,1v0.47l0.17,0.37l0.17,0.3l-0.02,0.27l0.05,0.3l0.32,1l-0.05,0.35l0.12,0.35l0.17,0.3l0.4,0.85l0.35,0.07
		l0.72-0.32l1.37,0.12l0.65,0.75l0.75,2.47l0.4,0.55l0.62,0.55l0.65,0.25l0.9-0.6l0.45,0.47l0.65,1.17l1.57,0.85l0.32,0.25
		l0.12,0.17l1.12,1l1.03,0.77l1.59,0.82l0.8,0.55l0.45,0.62l-0.17,0.72l-0.63,0.6l-0.77,0.47l-0.62,0.22l-0.2,0.2l-0.72,0.97
		L42.43,47l-0.9,0.53l-0.32,0.35l-0.75,1.32l-0.27,0.3l-0.8,0.63l-0.3,0.55l-0.65,1.8l-0.2-0.2l-0.25,0.53l-0.47-0.07l-0.02,0.43
		l0.3,0.55l0.5,0.42l-0.35,0.4l-0.27,0.52l-0.3,0.38l-0.45-0.02l-0.1,0.2h-0.02l-0.05,0.02l-0.57,0.33l-0.82,0.62l-0.4,0.17
		l-0.57,0.17l-1.03,0.5l-1.29,0.95l-0.82,0.9l-0.7,1.05l-0.32,1.05l0.15,0.95v0.15l-0.27,0.17l-0.1,0.28l-0.07,0.27l-0.27,0.35
		l-0.02,0.42l0.05,0.45v0.35l-0.12,0.17l-0.42,0.4L28.68,66l0.02,0.25l0.37,0.35l1.07,0.7l0.17,0.42l0.05,1.55l0.07,0.65l-0.22-0.07
		l-0.17-0.13l-0.15-0.15l0.47,0.92l0.75,0.55l0.9,0.35l3.27,2.27l0.12,0.15l0.17,0.12l0.22,0.13l0.12-0.05l0.12-0.15l0.17-0.15
		l0.25-0.02l0.35,0.27l0.3,0.47l0.37,0.43l0.45,0.1l0.97-0.2l0.22,0.07l0.35,0.6l0.25,0.07l0.4,0.07l1.07,0.52l0.3,0.2l0.07,0.17
		v0.42l0.12,0.25l0.25,0.25l0.43,0.15v0.15l0.45-0.12l0.25-0.23l0.22-0.3l0.3-0.32l0.77-0.37l0.52-0.15l0.38,0.02l0.15,0.25
		l0.05,0.25l0.07,0.17l0.25,0.02l0.22-0.1l0.42-0.23l0.17-0.07l1.05-0.22l0.45,0.02l0.47,0.2l0.75,0.95l0.1,1.32l-0.65,2.99
		l-0.02,0.67l0.07,0.67l0.12,0.67l-0.02,0.42l-0.12,0.32l0.02,0.25l0.4,0.22h0.3l0.25-0.12l1.37-0.92l0.85-0.85l0.67-1l0.3-1
		l-0.1-0.22l-0.17-0.25L52.7,80.4l0.57-0.33l0.22-0.2l0.18-0.22l0.1-0.57l0.45-0.82l0.07-0.23l-0.12-0.35l-0.2-0.17l-0.22,0.02
		l-0.25,0.2l-0.05-0.1v-0.05l-0.05-0.05l-0.12,0.02l0.17-0.35l0.23-0.2l0.3-0.05l0.32,0.15l0.62-2.77l0.17-0.47l0.5-0.42l0.75-1.7
		l0.6-0.67l-0.05-0.22l-1.28,0.8l-0.37-0.02l-0.32-0.12l-0.37-0.07l-0.45,0.1l0.32-0.67l0.67-0.35l1.65-0.32L56.7,70l-0.2-0.4
		l0.17-0.67l0.6-1.2L58.09,68l-0.52,0.85l-0.22,0.5l-0.12,0.53l0.05,0.17l0.65-0.4l1.28-1.3l0.7-0.5l-0.35-0.55l-0.45-0.55
		l-0.5-0.27l-0.42,0.32l-0.07-0.42l0.05-0.5l0.07-0.45l0.1-0.3l0.32-0.37l0.3-0.02l0.3,0.07l0.4,0.02l0.15-0.85l-0.02-0.58
		l-0.3-0.17l-0.35-0.17l-0.27-0.55l-0.3-1.17l0.3,0.15l0.33,0.12l0.32-0.05l0.35-0.3l1.1,0.43l0.12,0.15l0.12,0.32l0.2,0.22
		l0.32-0.15l0.07-0.52l-0.47-0.5l-0.47-0.63l0.2-0.52l0.12-0.55l0.22-0.3l0.3-0.22l0.28-0.35l0.17-0.35l0.1-0.43l0.17-0.35l0.6-0.47
		l0.2-0.52l0.22-1.02l0.12-0.22l0.2-0.55l0.05-0.5l-0.42-0.12l-0.5-0.32l-0.1-1l0.15-1.15l0.17-0.75l0.32-0.67v-0.25l-0.17-0.63
		l-0.02-0.52l0.12-0.42l0.47-0.7l-0.3-0.12l-0.9-0.07l0.4-0.65l0.1-0.75l-0.2-0.45l-0.5,0.25v-0.52l0.27-0.25l0.4-0.15l0.35-0.25
		l0.22-0.4l0.1-0.5l-0.15-0.3l-0.45,0.07l-0.05-0.2l0.35-0.5l0.32,0.17l0.27,0.57l0.22,0.75l0.1,0.72l-0.02,0.55l-0.22,1.25
		l0.85,5.39l0.2-0.8L64.83,48.09z"/>
</g>
<g id="NEW_YORK">
</g>
<g id="NEW_MEXICO">
</g>
<g id="NEVADA">
</g>
<g id="OHIO">
</g>
<g id="OKLAHOMA">
</g>
<g id="OREGON">
</g>
<g id="PENNSYLVANIA">
</g>
<g id="RHODE_ISLAND">
</g>
<g id="SOUTH_CAROLINA">
</g>
<g id="SOUTH_DAKOTA">
</g>
<g id="TENNESSEE">
</g>
<g id="TEXAS">
</g>
<g id="UTAH">
</g>
<g id="VIRGINIA">
</g>
<g id="VERMONT">
</g>
<g id="WASHINGTON">
</g>
<g id="WISCONSIN">
</g>
<g id="WEST_VIRGINIA">
</g>
<g id="WYOMING">
</g>
</svg>
