<?xml version="1.0" encoding="utf-8"?>
<!-- Generator: Adobe Illustrator 26.5.0, SVG Export Plug-In . SVG Version: 6.00 Build 0)  -->
<svg version="1.1" xmlns="http://www.w3.org/2000/svg" xmlns:xlink="http://www.w3.org/1999/xlink" x="0px" y="0px"
	 viewBox="0 0 90 90" style="enable-background:new 0 0 90 90;" xml:space="preserve">
<style type="text/css">
	.st0{fill:#CECECE;stroke:#F9F9F9;stroke-width:0.025;stroke-linecap:round;stroke-linejoin:round;}
	.st1{display:none;fill:none;stroke:#47CCCC;stroke-width:0.5;stroke-linecap:round;stroke-linejoin:round;}
	.st2{fill:#CECECE;}
</style>
<g id="ALABAMA">
</g>
<g id="ALASKA">
</g>
<g id="ARIZONA">
</g>
<g id="ARKANSAS_1_">
</g>
<g id="CALIFORNIA">
</g>
<g id="COLORADO">
</g>
<g id="CONNECTICUT">
</g>
<g id="DELAWARE">
</g>
<g id="DC">
</g>
<g id="FLORIDA">
</g>
<g id="GEORGIA">
</g>
<g id="HAWAII">
</g>
<g id="IDAHO">
</g>
<g id="IOWA">
</g>
<g id="ILLINOIS">
</g>
<g id="INDIANA">
</g>
<g id="KANSAS">
</g>
<g id="KETUCKY">
</g>
<g id="LOUISANA">
</g>
<g id="MAINE">
</g>
<g id="MARYLAND">
</g>
<g id="MASSACHUSETTS">
</g>
<g id="MICHIGAN">
</g>
<g id="MINNESOTA">
</g>
<g id="MISSOURI">
</g>
<g id="MISSISSIPPI">
</g>
<g id="MONTANA">
</g>
<g id="NORTH_CAROLINA">
</g>
<g id="NORTH_DAKOTA">
</g>
<g id="NEBRASKA">
</g>
<g id="NEW_HAMPSHIRE">
</g>
<g id="NEW_JERSEY">
</g>
<g id="NEW_YORK">
</g>
<g id="NEW_MEXICO">
	<path id="NM_1_" class="st0" d="M38.4,78.32l0.63,0.73l-0.15-0.16l-0.12-0.05l-0.47-0.03L38,78.79l-0.29-0.02l-0.29-0.02
		l-0.28-0.01l-0.29-0.02l-0.28-0.02l-0.29-0.02l-0.28-0.02l-0.29-0.02l-0.29-0.02l-0.28-0.02l-0.29-0.02l-0.28-0.01l-0.29-0.02
		l-0.29-0.02l-0.28-0.02l-0.29-0.02l-0.28-0.02l-0.29-0.02l-0.28-0.02l-0.29-0.02l-0.28-0.02l-0.29-0.02l-0.29-0.02l-0.28-0.02
		l-0.29-0.02l-0.28-0.02l-0.29-0.02l-0.29-0.02l-0.28-0.02l-0.29-0.02l-0.28-0.02l-0.29-0.02l-0.28-0.02l-0.29-0.03l-0.28-0.02
		l-0.29-0.02l-0.29-0.02l-0.28-0.02l-0.29-0.02l-0.28-0.02L26.14,78l-0.29-0.03l-0.28-0.02l-0.29-0.02l-0.28-0.02l-0.29-0.02
		l-0.29-0.02l-0.28-0.02l-0.28-0.03l-0.29-0.02l-0.29-0.02l-0.28-0.02l-0.29-0.02l-0.28-0.02l-0.29-0.03l-0.29-0.02l-0.28-0.02
		l-0.28-0.02l-0.29-0.03l-0.29-0.02l-0.28-0.02l-0.29-0.03l-0.28-0.02l0,0l-0.01,0.1l-0.01,0.09v0.09l-0.01,0.1l-0.01,0.09v0.1
		l-0.01,0.09l-0.01,0.1l-0.01,0.09v0.1l-0.01,0.09l-0.01,0.1v0.09l-0.01,0.09l-0.01,0.1L19.66,79v0.1l-0.01,0.09l-0.01,0.1v0.09
		l-0.01,0.1l-0.01,0.09v0.09l-0.01,0.1l-0.01,0.09v0.1l-0.01,0.09l-0.01,0.1l-0.01,0.09v0.1l-0.01,0.09l-0.01,0.09v0.1l-0.01,0.1
		l-0.01,0.09v0.09l-0.01,0.1l-0.01,0.09l-0.01,0.1v0.09l-0.01,0.1l-0.01,0.09v0.09l-0.01,0.1l-0.01,0.09v0.1l-0.01,0.09l-0.01,0.1
		v0.09l-0.01,0.1l-0.01,0.09l-0.01,0.1v0.09l-0.01,0.09l-0.01,0.1v0.09l-0.01,0.1l-0.01,0.09l-0.01,0.1v0.09l-0.01,0.09l-0.01,0.1
		v0.09l-0.01,0.1l0,0l-0.48-0.04l-0.48-0.03l-0.48-0.04l-0.48-0.04l-0.48-0.03l-0.48-0.04l-0.48-0.04l-0.48-0.04l-0.48-0.04
		l-0.48-0.03l-0.48-0.04L13.59,83l-0.48-0.04l-0.48-0.04l-0.48-0.04l-0.48-0.04l-0.48-0.04l-0.48-0.04l-0.48-0.04l-0.22-0.02l0,0
		l0,0l0,0l0,0l0,0V82.7l0,0l0,0l0,0v-0.01l0,0l0,0l0,0l0,0v-0.01l0,0l0,0l0,0v-0.01l0,0l0,0l0,0l0,0v-0.01l0,0l0,0l0,0l0,0l0,0
		v-0.01l0,0l0,0l0.2-2.33l0.19-2.33l0.2-2.32l0.19-2.33l0.2-2.33l0.19-2.32l0.2-2.33l0.19-2.33l0.2-2.32l0.19-2.33l0.2-2.32
		l0.19-2.33l0.19-2.33l0.2-2.32l0.2-2.33l0.19-2.32l0.19-2.32l0.2-2.33l0.2-2.32l0.19-2.33l0.19-2.32l0.2-2.32l0.19-2.33l0.2-2.32
		l0.19-2.32l0.2-2.32l0.19-2.32l0.19-2.32l0.2-2.32l0.2-2.32l0.19-2.32l0.19-2.31l2,0.17l2,0.16l2,0.15l2,0.16l1.99,0.15l2,0.15
		l2,0.14l2,0.14l2,0.14l2,0.14l2,0.13l2,0.12l2,0.12l2,0.12l2,0.12l2.01,0.11l2,0.11l2,0.11l2,0.1l2,0.1l2,0.1l2,0.09l2.01,0.09
		l2,0.08l2,0.08l2.01,0.08l2,0.08l2,0.07l2,0.07l2,0.06l2,0.06l2,0.06l-0.04,1.63l-0.04,1.64l-0.05,1.63l-0.04,1.64l-0.45-0.01v0.23
		l-0.01,0.41l-0.06,1.83l-0.06,1.82l-0.06,1.83l-0.06,1.83l-0.06,1.82l-0.06,1.83l-0.06,1.83l-0.06,1.82l-0.06,1.83l-0.06,1.83
		l-0.06,1.83l-0.05,1.83l-0.06,1.82l-0.06,1.83l-0.07,1.83l-0.06,1.83l-0.06,1.83l-0.06,1.83l-0.06,1.83l-0.06,1.83l-0.06,1.83
		l-0.06,1.83l-0.06,1.83l-0.06,1.83l-0.06,1.83l-0.06,1.83l-0.06,1.83l-0.06,1.83l-0.06,1.84l-0.06,1.82l-0.06,1.83l-0.06,1.84
		l-2.48-0.07l-2.48-0.08l-2.48-0.08l-2.49-0.09l-2.48-0.09l-2.48-0.1l-2.48-0.1l-2.48-0.11l-2.49-0.11l-2.47-0.12l-2.48-0.12
		l-2.48-0.13l-2.49-0.13l-2.47-0.14l-2.49-0.14L37.8,75.8l-0.29-0.02l-0.19-0.01V76l0.2,0.49l0.04,0.28l0.02,0.3l0.06,0.23
		l0.25,0.42l-0.09,0.09l0.07,0.16l0.1,0.12l0.13,0.09l0.15,0.03l0,0L38.4,78.32L38.4,78.32z"/>
	<path id="NM_2_" class="st1" d="M38.4,78.32l0.63,0.73l-0.15-0.16l-0.12-0.05l-0.47-0.03L38,78.79l-0.29-0.02l-0.29-0.02
		l-0.28-0.01l-0.29-0.02l-0.28-0.02l-0.29-0.02l-0.28-0.02l-0.29-0.02l-0.29-0.02l-0.28-0.02l-0.29-0.02l-0.28-0.01l-0.29-0.02
		l-0.29-0.02l-0.28-0.02l-0.29-0.02l-0.28-0.02l-0.29-0.02l-0.28-0.02l-0.29-0.02l-0.28-0.02l-0.29-0.02l-0.29-0.02l-0.28-0.02
		l-0.29-0.02l-0.28-0.02l-0.29-0.02l-0.29-0.02l-0.28-0.02l-0.29-0.02l-0.28-0.02l-0.29-0.02l-0.28-0.02l-0.29-0.03l-0.28-0.02
		l-0.29-0.02l-0.29-0.02l-0.28-0.02l-0.29-0.02l-0.28-0.02L26.14,78l-0.29-0.03l-0.28-0.02l-0.29-0.02l-0.28-0.02l-0.29-0.02
		l-0.29-0.02l-0.28-0.02l-0.28-0.03l-0.29-0.02l-0.29-0.02l-0.28-0.02l-0.29-0.02l-0.28-0.02l-0.29-0.03l-0.29-0.02l-0.28-0.02
		l-0.28-0.02l-0.29-0.03l-0.29-0.02l-0.28-0.02l-0.29-0.03l-0.28-0.02l0,0l-0.01,0.1l-0.01,0.09v0.09l-0.01,0.1l-0.01,0.09v0.1
		l-0.01,0.09l-0.01,0.1l-0.01,0.09v0.1l-0.01,0.09l-0.01,0.1v0.09l-0.01,0.09l-0.01,0.1L19.66,79v0.1l-0.01,0.09l-0.01,0.1v0.09
		l-0.01,0.1l-0.01,0.09v0.09l-0.01,0.1l-0.01,0.09v0.1l-0.01,0.09l-0.01,0.1l-0.01,0.09v0.1l-0.01,0.09l-0.01,0.09v0.1l-0.01,0.1
		l-0.01,0.09v0.09l-0.01,0.1l-0.01,0.09l-0.01,0.1v0.09l-0.01,0.1l-0.01,0.09v0.09l-0.01,0.1l-0.01,0.09v0.1l-0.01,0.09l-0.01,0.1
		v0.09l-0.01,0.1l-0.01,0.09l-0.01,0.1v0.09l-0.01,0.09l-0.01,0.1v0.09l-0.01,0.1l-0.01,0.09l-0.01,0.1v0.09l-0.01,0.09l-0.01,0.1
		v0.09l-0.01,0.1l0,0l-0.48-0.04l-0.48-0.03l-0.48-0.04l-0.48-0.04l-0.48-0.03l-0.48-0.04l-0.48-0.04l-0.48-0.04l-0.48-0.04
		l-0.48-0.03l-0.48-0.04L13.59,83l-0.48-0.04l-0.48-0.04l-0.48-0.04l-0.48-0.04l-0.48-0.04l-0.48-0.04l-0.48-0.04l-0.22-0.02l0,0
		l0,0l0,0l0,0l0,0V82.7l0,0l0,0l0,0v-0.01l0,0l0,0l0,0l0,0v-0.01l0,0l0,0l0,0v-0.01l0,0l0,0l0,0l0,0v-0.01l0,0l0,0l0,0l0,0l0,0
		v-0.01l0,0l0,0l0.2-2.33l0.19-2.33l0.2-2.32l0.19-2.33l0.2-2.33l0.19-2.32l0.2-2.33l0.19-2.33l0.2-2.32l0.19-2.33l0.2-2.32
		l0.19-2.33l0.19-2.33l0.2-2.32l0.2-2.33l0.19-2.32l0.19-2.32l0.2-2.33l0.2-2.32l0.19-2.33l0.19-2.32l0.2-2.32l0.19-2.33l0.2-2.32
		l0.19-2.32l0.2-2.32l0.19-2.32l0.19-2.32l0.2-2.32l0.2-2.32l0.19-2.32l0.19-2.31l2,0.17l2,0.16l2,0.15l2,0.16l1.99,0.15l2,0.15
		l2,0.14l2,0.14l2,0.14l2,0.14l2,0.13l2,0.12l2,0.12l2,0.12l2,0.12l2.01,0.11l2,0.11l2,0.11l2,0.1l2,0.1l2,0.1l2,0.09l2.01,0.09
		l2,0.08l2,0.08l2.01,0.08l2,0.08l2,0.07l2,0.07l2,0.06l2,0.06l2,0.06l-0.04,1.63l-0.04,1.64l-0.05,1.63l-0.04,1.64l-0.45-0.01v0.23
		l-0.01,0.41l-0.06,1.83l-0.06,1.82l-0.06,1.83l-0.06,1.83l-0.06,1.82l-0.06,1.83l-0.06,1.83l-0.06,1.82l-0.06,1.83l-0.06,1.83
		l-0.06,1.83l-0.05,1.83l-0.06,1.82l-0.06,1.83l-0.07,1.83l-0.06,1.83l-0.06,1.83l-0.06,1.83l-0.06,1.83l-0.06,1.83l-0.06,1.83
		l-0.06,1.83l-0.06,1.83l-0.06,1.83l-0.06,1.83l-0.06,1.83l-0.06,1.83l-0.06,1.83l-0.06,1.84l-0.06,1.82l-0.06,1.83l-0.06,1.84
		l-2.48-0.07l-2.48-0.08l-2.48-0.08l-2.49-0.09l-2.48-0.09l-2.48-0.1l-2.48-0.1l-2.48-0.11l-2.49-0.11l-2.47-0.12l-2.48-0.12
		l-2.48-0.13l-2.49-0.13l-2.47-0.14l-2.49-0.14L37.8,75.8l-0.29-0.02l-0.19-0.01V76l0.2,0.49l0.04,0.28l0.02,0.3l0.06,0.23
		l0.25,0.42l-0.09,0.09l0.07,0.16l0.1,0.12l0.13,0.09l0.15,0.03l0,0L38.4,78.32L38.4,78.32z"/>
</g>
<g id="NEVADA">
</g>
<g id="OHIO">
</g>
<g id="OKLAHOMA">
</g>
<g id="OREGON">
</g>
<g id="PENNSYLVANIA">
</g>
<g id="RHODE_ISLAND">
</g>
<g id="SOUTH_CAROLINA">
</g>
<g id="SOUTH_DAKOTA">
</g>
<g id="TENNESSEE">
</g>
<g id="TEXAS">
</g>
<g id="UTAH">
</g>
<g id="VIRGINIA">
</g>
<g id="VERMONT">
</g>
<g id="WASHINGTON">
</g>
<g id="WISCONSIN">
</g>
<g id="WEST_VIRGINIA">
</g>
<g id="WYOMING">
</g>
</svg>
