<?xml version="1.0" encoding="UTF-8"?>
<svg id="NEW_JERSEY" data-name="NEW JERSEY" xmlns="http://www.w3.org/2000/svg" viewBox="0 0 90 90">
  <defs>
    <style>
      .cls-1 {
        fill: #e2e2e2;
        stroke: #f9f9f9;
        stroke-linecap: round;
        stroke-linejoin: round;
        stroke-width: .03px;
      }
    </style>
  </defs>
  <path id="NJ" class="cls-1" d="M60.24,64.08l.37,.53-.25,.4-.15,1.07-.27,.3-.4-.07-.3-.35-.3-.22-.4,.3,.78,.7,.87-.05,.75-.6,.55-.97,.12-.97,.1-.07,.17-.2,.05-.17-1.32,.12-.37,.27Zm4.41-10.75l-.12,.4-.2,.85,.03,.77-1.62,4.61-.05,.85-.07,.32v.15l.05,.25,.4-.93,.6-2.74,.82-1.27,.28-1.27,.15-1.4v-.9l-.25,.3Zm.18-5.24l.07-1.15-.2-.15,.08-.58-.23-1.49,.25-1.35-.18-.77-.4-.58-.52-.15,.27-1,.25-2.87-.27-.85,.12-.82,.25-.8,.05-.75-1.34-4.29-.4-.8-.47-.35-.28,.3,.25,.65,.45,.65,.4,.33-.42,.22-1.13-.37-2.4-.23-.7,.07-1.22,.53-.25-.02-.47-.17-.93-.07-.37-.42-.05-.6,.22-.6-.22-.15-.22-1.02-.05-.12,.15-.3,.35-.48,.17-.33,.12-.65v-1.34l.15-.63,.17-.25,.4-.4,.15-.22,.07-.3,.05-.62,.12-.3,.42-.43,.15,.27-.1,1.45,.4-.07,.27-.17,.2-.25,.32-.7,.47-.57,.4-.65,.12-.25v-.3l-.07-.45-.05-.37,.1-.63,.02-.9,.65-1.89,.35-2.57-.05-1.37-.12-.6-2.84-.9-2.82-.87-2.84-.87-2.82-.9-2.84-.88-2.82-.9-2.82-.87-2.82-.9,.02,.05-.42,.42-.55,.17-.22,.15-.27,.37-.27,.07-.1,.12-.05,.15-.05,.35-.02,.1-1.07,1.55-.1,.47,.05,.22-.05,.97-.25,1.55-.93,2.02-.27,.33-.15,.12-.22,.2-.2,.25-.07,.17,.1,.4,.02,.07-.1,.07-.72,1.5-.4,.47-.53,.27-.32,.25-.5,.52-.45,.63-.15,.57,.1,.22,.2,.23,.4,.32,.05,.12v.15l.02,.12,.1,.02,.15-.02h.17l.1,.07,.1,.2,.25,.22,.5,.35,.5,.48,.22,.6-.12,.6-.3,.32-.22,.37,.02,.82-.02,.62-.35,.43-.47,.17-.52-.12-.1,.6-.12,.3-.15,.15-.1,.15,.1,.28,.15,.2h.07l-.12,1v.47l.17,.37,.17,.3-.02,.27,.05,.3,.32,1-.05,.35,.12,.35,.17,.3,.4,.85,.35,.07,.72-.32,1.37,.12,.65,.75,.75,2.47,.4,.55,.62,.55,.65,.25,.9-.6,.45,.47,.65,1.17,1.57,.85,.32,.25,.12,.17,1.12,1,1.03,.77,1.59,.82,.8,.55,.45,.62-.17,.72-.63,.6-.77,.47-.62,.22-.2,.2-.72,.97-.22,.17-.9,.53-.32,.35-.75,1.32-.27,.3-.8,.63-.3,.55-.65,1.8-.2-.2-.25,.53-.47-.07-.02,.43,.3,.55,.5,.42-.35,.4-.27,.52-.3,.38-.45-.02-.1,.2h-.02l-.05,.02-.57,.33-.82,.62-.4,.17-.57,.17-1.03,.5-1.29,.95-.82,.9-.7,1.05-.32,1.05,.15,.95v.15l-.27,.17-.1,.28-.07,.27-.27,.35-.02,.42,.05,.45v.35l-.12,.17-.42,.4-.42,.7,.02,.25,.37,.35,1.07,.7,.17,.42,.05,1.55,.07,.65-.22-.07-.17-.13-.15-.15,.47,.92,.75,.55,.9,.35,3.27,2.27,.12,.15,.17,.12,.22,.13,.12-.05,.12-.15,.17-.15,.25-.02,.35,.27,.3,.47,.37,.43,.45,.1,.97-.2,.22,.07,.35,.6,.25,.07,.4,.07,1.07,.52,.3,.2,.07,.17v.42l.12,.25,.25,.25,.43,.15v.15l.45-.12,.25-.23,.22-.3,.3-.32,.77-.37,.52-.15,.38,.02,.15,.25,.05,.25,.07,.17,.25,.02,.22-.1,.42-.23,.17-.07,1.05-.22,.45,.02,.47,.2,.75,.95,.1,1.32-.65,2.99-.02,.67,.07,.67,.12,.67-.02,.42-.12,.32,.02,.25,.4,.22h.3l.25-.12,1.37-.92,.85-.85,.67-1,.3-1-.1-.22-.17-.25-.02-.27,.57-.33,.22-.2,.18-.22,.1-.57,.45-.82,.07-.23-.12-.35-.2-.17-.22,.02-.25,.2-.05-.1v-.05l-.05-.05-.12,.02,.17-.35,.23-.2,.3-.05,.32,.15,.62-2.77,.17-.47,.5-.42,.75-1.7,.6-.67-.05-.22-1.27,.8-.37-.02-.32-.12-.37-.07-.45,.1,.32-.67,.67-.35,1.65-.32-.05-.17-.2-.4,.17-.67,.6-1.2,.82,.27-.52,.85-.22,.5-.12,.53,.05,.17,.65-.4,1.27-1.3,.7-.5-.35-.55-.45-.55-.5-.27-.42,.32-.07-.42,.05-.5,.07-.45,.1-.3,.32-.37,.3-.02,.3,.07,.4,.02,.15-.85-.02-.58-.3-.17-.35-.17-.27-.55-.3-1.17,.3,.15,.33,.12,.32-.05,.35-.3,1.1,.43,.12,.15,.12,.32,.2,.22,.32-.15,.07-.52-.47-.5-.47-.63,.2-.52,.12-.55,.22-.3,.3-.22,.28-.35,.17-.35,.1-.43,.17-.35,.6-.47,.2-.52,.22-1.02,.12-.22,.2-.55,.05-.5-.42-.12-.5-.32-.1-1,.15-1.15,.17-.75,.32-.67v-.25l-.17-.63-.02-.52,.12-.42,.47-.7-.3-.12-.9-.07,.4-.65,.1-.75-.2-.45-.5,.25v-.52l.27-.25,.4-.15,.35-.25,.22-.4,.1-.5-.15-.3-.45,.07-.05-.2,.35-.5,.32,.17,.27,.57,.22,.75,.1,.72-.02,.55-.22,1.25,.85,5.39,.2-.8-.37-3.42Z"/>
  <g>
    <path d="M53.38,45.41h-1.23l-2.06-3.12v3.12h-1.23v-5.09h1.23l2.06,3.15v-3.15h1.23v5.09Z"/>
    <path d="M57.37,40.32v3.48c0,.53-.15,.94-.44,1.23s-.69,.43-1.21,.43c-.56,0-1-.16-1.32-.47-.33-.31-.49-.77-.49-1.36h1.22c0,.48,.18,.71,.54,.71,.31,0,.47-.18,.47-.55v-3.48h1.23Z"/>
  </g>
</svg>