<?xml version="1.0" encoding="UTF-8"?>
<svg id="NEW_YORK" data-name="NEW YORK" xmlns="http://www.w3.org/2000/svg" viewBox="0 0 90 90">
  <defs>
    <style>
      .cls-1 {
        fill: #e2e2e2;
        stroke: #f9f9f9;
        stroke-linecap: round;
        stroke-linejoin: round;
        stroke-width: .03px;
      }
    </style>
  </defs>
  <path id="NY" class="cls-1" d="M65.09,73.55l-.13,.07-.12,.11-.14,.09-.23,.04h-.16s-.11,.05-.11,.05l-.07,.24v.21s.08,.4,.08,.4l-.02,.21-.06,.07-.09,.06-.09,.09-.06,.13v.09s.11,.34,.11,.34l1.03-.89,.38-.6-.13-.67-.21-.02Zm8.17-2.04l-.02-.04v-.02s.06,0,.06,0l-.02-.08-.18,.12-.62,.17-.11,.05-.06,.04-.13,.17-.21,.14-.06,.07-.13,.1-1.38,.6,.26,.09,1.35-.63,.5-.45,.73-.26v-.04Zm4.25-2.63l-.45,.36-.49,.26-.1,.11-.11,.11-.38,.23-.14,.05-.12,.09-.22,.33-.13,.15-.59,.4-.91,.42-.29,.23-.32,.11h-.29l.1,.14,.34-.11,.91-.42,.97-.62,.28-.24,.15-.07,.56-.55,.85-.52,.14-.06,.1-.13,.31-.25-.02-.08-.16,.07Zm7.94-6.15l-.27,.04-.2,.09,.07,.12,.02,.08-.2,.02-.17-.03-.11,.05v.28s-.21-.02-.21-.02l-.17,.15-.29,.4-.33,.25-.2,.1-.11-.05-.08-.12-.44-.39h-.15s-.07,.17-.07,.17v.25l.05,.23-.46-.29-.16-.04-.07,.1v.15s0,.07,0,.07l-.11,.07-.23,.21-.13,.04-.08-.08-.08-.14-.11-.07-.14,.11,.17,.21-.12,.19-.22,.18-.43,.57-.13,.21v.15s.07,.16,.07,.16l-.13,.16-.21,.14-.2,.1-.22,.02-.23-.04-.2,.02-.17,.21-.1-.05h-.11s-.11,0-.11,0l-.11,.04,.06-.19,.14-.21,.17-.19,.22-.15,.06-.09,.09-.2,.02-.06,.02-.17,.04-.07,.04-.02h.12s.05-.03,.05-.03l.21-.3,.09-.05,.04,.08,.12,.13,.12,.08v-.13s-.05-.16-.05-.16l-.07-.12v-.13s.06-.17,.06-.17l.08-.07,.21-.05,.09-.08-.09-.02-.09-.03-.08-.06-.08-.09,.51-.79,.33-.32,.21,.2,.12-.09,.13-.14,.1-.17,.02-.16-.09-.1-.15-.03-.16,.02-.13,.05-.46,.39-.12,.16-.17,.34-.12,.16-.42,.23-.19,.15-.1,.37-.52,.39-.47,.75-.2,.14-1.19,.57-1.56,.31-1.67,.42,.09,.12v.1s-.09,.06-.09,.06l-.13,.03v-.27s-.17-.02-.17-.02l-.21,.12-.16,.12,.1,.2-.06,.23-.16,.19-.41,.24-.11,.03h-.09s-.22-.07-.22-.07h-.1l-.21,.02-.93-.11-.21,.06-.07,.12,.24,.2,.09-.21,.17,.04,.14,.17v.18s-.12,.04-.12,.04l-.19-.03h-.2l-.1,.15-.15-.07-.11-.07,.04-.25-.21-.12-.25,.06-.09,.25,.06,.13,.21,.17,.04,.1-.07,.07-.28-.06-.14,.02v-.07s.04-.04,.04-.04h-.56s-.51,.27-.51,.27l-.25,.48,.29,.6-.14,.05-.21-.14-.24-.21-.23-.15-.11,.13-.07,.18,.02,.14,.34,.05,.08,.15-.03,.16-.09,.1-.1-.06-.12-.15-.13-.11-.15,.06-.04,.14,.11,.33v.16s-.27-.11-.27-.11h-.34s-.26,.12-.26,.12l-.04,.3h-.5l-.22,.24-.23,.91-.03,.07-.09,.09-.04,.06v.04s-.02,.11-.02,.11v.05l-.21,.4-.03,.12,.11,.28,.36,.25v.26s.18-.03,.18-.03l.49-.23,.05-.05,.1-.13,.08-.06,.13-.03,.1,.02,.09-.02,.07-.16-.16-.14-.08-.04-.1-.02-.02-.09,.23-.25,.14-.1,.21-.07,.21-.02,.28,.02,.21,.07,.02,.13,.07,.07,.02,.04,.02,.05-.19,.06-1.21,.81-.16,.16,.35-.02,1.3-.75,1.79-.43-.02-.09h-.28s-.72,.27-.72,.27l-.23-.07v-.2s.26-.13,.26-.13l.56-.14,.99-.62,1-.32,.2-.13,.31-.31,.6-.3,.1-.08,.11-.18,.08-.08,.18-.05,.47,.03,.23-.02,.13-.09-.03-.13-.07-.14,.03-.13,.12-.06h.13s.14,.04,.14,.04h.12l.12-.04,.4-.21,.1-.15,.1-.05,.62-.19,.2-.12,.21-.21,.12-.05,.26,.08h.13l.2-.09,.12-.15v-.18l-.15-.19,.35-.07,1.06-.43,.24-.05-.06,.13-.17,.13-.46,.25-.06,.03-.02,.05,.04,.07,.07,.03,.04-.03,.03-.06,.05-.04,.1-.04,.91-.67,.59-.27,.32-.33,.09-.13-.03-.12-.1-.11-.06-.12v-.12s.12-.07,.12-.07l.26-.04,.13,.05,.03,.14-.07,.23,.19-.08,.29-.28,.31-.16,.49-.36,.76-.84,.57-.32,.62-.54,.63-.33,1.02-1,.16-.11,.12-.12,.04-.14h-.18Zm-2.03-1.91l.13-.04,.13-.1,.21-.26,.15-.15h.03s.03-.04,.03-.04l.02-.06-.75,.29-.14,.12-.02,.17,.09,.07h.14ZM61.48,26.83h0Zm-26.9,5.81l.08,.03,.22-.1,.3-.35,.2-.17v-.05s-.04-.04-.04-.04l-.07-.06h-.06l-.06,.06-.09,.05-.12-.04-.09,.12-.23,.13-.09,.11-.02,.1v.12s.06,.1,.06,.1Zm.96-1.02l.04,.12,.02,.15,.1,.1,.08-.04,.23-.29,.16-.11,.18-.2,.15-.24,.09-.25,.02-.03v-.11s-.14,.04-.14,.04l-.08,.08-.13,.22-.09-.18-.1,.11-.15,.41-.08-.06,.02-.03h0s0-.02,0-.02v-.06s-.11,.03-.11,.03l-.09,.04-.06,.08-.03,.1h-.03s-.04,0-.04,0h-.06s-.07,.04-.07,.04l.02,.1h.13Zm-.93,4.41l.06-.3v-.15h-.11s-.16,.12-.16,.12l-.12,.12-.14,.18-.03,.15,.12,.4,.28-.33,.09-.19Zm31.2,32.84l-.07-.33-.4-1.05-.1-.56-.07-.22-.14-.2-.19-.14-.2-.11-.16-.14-.18-.41-.07-.09-.06-.11v-.19s.02-.12,.02-.12l.08-.12,.15-.19,.08,.25-.03,.22,.02,.23,.22,.23,.39,.21,.15,.11,.15,.17,.21,.41,.16,.47,.24,1.04,.03,.26-.02,.55,.05,.55-.12,.57,.02,.28-.02,.2-.33,1.12-.02,.25,.03,.27,.06,.27,.2-.22,.14-.82,.13-.34,.23-.21,.34-.16,.36-.1,.3-.02-.07-.11-.2-.22-.06-.1,.03-.13,.11-.05,.12-.02,.04-.07v-.23l.08-.24,.32-.57,.08-.1,.11-.06,.21-.05,.02-.06,.14-.34,.02-.14-.04-.05-.12-.06,.08-.11,.03-.03-.06-.09-.08-.1-.04-.04h-.03s-.06-.03-.06-.03l-.04-.03-.33-.31-.31-.31-.08-.07,.12-.13,.36-.36,.47-.47,.5-.5,.41-.41,.13-.15-.2-.18-.19-.19-.2-.2-.26-.27-.04-.23-.11-.6-.1-.6-.11-.59-.11-.6-.1-.59-.11-.6-.1-.59-.11-.6-.11-.59-.1-.6-.11-.59-.11-.6-.1-.59-.11-.6-.11-.59-.1-.59-.33-.25v-.24l.02-.5,.03-.97,.06-1.94,.04-.97,.03-.97,.03-.96,.03-.97,.03-.97v-.31s.12-.24,.12-.24l-.21-.31-.25-.38v-.47l-.03-.21-.02-.14-.03-.09-.06-.26-.09-.41-.12-.53-.14-.62-.16-.7-.17-.74-.34-1.54-.17-.74-.16-.69-.15-.62-.12-.53-.09-.41-.06-.25-.02-.1-.06-.27-.1-.08-.11-.07-.06-.02-.11-.09-.24-.41-.06-.06-.07-.05h-.08s-.16,0-.16,0l-.07,.02-.07,.02-.06,.04-.05,.04-.04,.05-.03,.07v.07s0,.23,0,.23v.08s-.04,.06-.04,.06l-.03,.06-.09,.11-.1,.07-.03,.02h-.03l-.03-.03-.1-.11-.08-.13-.06-.15-.07-.27-.02-.15v-.12l.2-1.36v-.1l-.04,.07-.09-.39-.04-.11-.1-.1-.27-.17-.08-.13v-.15s.02-.25,.02-.25v-.16s-.07-.14-.07-.14l-.09-.12-.17-.17-.14-.21-.1-.21-.17-.66v-.25s-.04-.15-.04-.15v-.02s-.1-.07-.1-.07l-.07,.03-.09,.13-.03,.14-.18-.51,.02-1.34-.2-.41,.21-.2,.49-.87-.14-.15-.1-.13-.07-.17-.12-.35-.18-.41-.07-.09-.06-.06-.04-.04-.15-.68-.05-.14-.11,.03-.04,.22v.28s.06,.22,.06,.22l-.1-.15-.05-.17v-.18s.02-.17,.02-.17v-.18l-.09-.16-.24-.25,.13-.19,.02-.21-.1-.17-.22-.03-.1-.09-.13-.22-.1-.25-.03-.17h-.06s0-.09,0-.09l-.03-.12-.06-.1-.09-.1,.12-.16v-.19s-.14-.32-.14-.32v-.26s.07-.13,.07-.13h.12l.14,.19,.06,.05h.07l.03-.1-.03-.13-.06-.08-.07-.05-.16-.14-.07-.03-.03-.04v-.16s.03-.13,.03-.13l.06-.03h.06s.06-.08,.06-.08l.06-.25-.03-.16-.12-.11-.17-.1-.08-.14-.05-.23-.02-.23,.03-.36-.09-.45-.02-.2,.03-.03h.05s.05-.06,.05-.06l.03-.14-.02-.12-.05-.12-.11-.18,.02-.1-.36,.1-.93,.24-.94,.23-.93,.22-.94,.24-.93,.24-.94,.22-.93,.23-.94,.22-.93,.24-.94,.22-.93,.23-.94,.22-.94,.22-.16,.02-.27,.07-1.22,.14-.17,.05-.15,.09-.29,.29-.51,.32-.14,.12-.34,.4-.15,.11-.47,.24-1.15,1.07-.54,.73-.87,1.18-.93,1.26-.93,1.25-.36,.79-.26,.46h0l.17,.16,.11,.22,.07,.22-.06,.2-.53,.52v.13s0,.08,0,.08l-.02,.07-.03,.03-.46,.3-.03,.1-.07,.14-1.01,1.3-1.12,.8-1.4,1.51-.05,.2,.11,.26,.15,.06h.19s.2,.13,.2,.13l.08,.13v.11l-.02,.09,.04,.1,.09,.05h.09l.06-.08v-.15l.05-.19,.56-.43,.12,.15,.37-.15,.17,.11-.06,.08-.02,.05v.17l.05-.09,.07-.08,.08-.05,.09-.03-.02,.18-.07,.19-.11,.16-.22,.18-.13,.18-.07,.18,.07,.05,.6-.13,.17-.1,.21-.28,.15-.09h.17l.09,.09v.15s-.07,.18-.07,.18l-.13,.11-.3,.12-.1,.16-.03,.2,.02,.16v.17l-.11,.23-.34,.43-.07,.2-.3-.12,.04-.09,.03-.27-.42,.32-.11,.14-.07,.23,.08,.08,.16,.03,.18,.11,.07,.05,.15,.06,.06,.05,.05,.09,.02,.1,.04,.09,.18,.21,.17,.32,.1,.15-.04,.26,.05,.28,.11,.29,.13,.28,.04-.2,.07-.14,.1-.06,.14,.04-.28,.65v.29s.31,.13,.31,.13l-.15,.2-.29,.52-.18,.14-.62,.26h-.26s-.43-.05-.43-.05l-.17,.06-.39,.6-.16,.18-.9,.68-.31,.33-.26,.39-.26,.88-.26-.1h-.15s-.03,.15-.03,.15l-.04,.06-.57,.41-.95,.41-.04,.05-.03,.12v.1s.04,.07,.04,.07v.07l-.02,.09v.04s0,.03,0,.03l-.09,.05-.09,.03h-.1s-.09-.06-.09-.06l-.09-.08v-.05s.04-.14,.04-.14l-3.74,.61-.42,.18-1.12,.68-.44,.09-.43-.1-.81-.46h-.06s-.22-.02-.22-.02l-.03-.14-.26-.06-3.57,.07-1.12,.41-1.52,.09-2.91,1.03-.57,.42-1.01,.37-1.15,.71-.64,.24,.09,.21,.27,1.12,.02,.14v.17s0,.12,0,.12l-.04,.11-.02,.14,.04,.19h0l.43,.17,1.11-.09,.31,.27v.28s-.26,.41-.26,.41l-.03,.3,.07,.11,.21,.12,.06,.07,.18,.55,.09,.13,.27,.34,.09,.15,.04,.11,.06,.29,.03,.31-.05,.24-.13,.19-.17,.18-.7,.47-.32,.29-.21,.37-.12,.51-.12,.25-.19,.14-.04,.06-.1,.37-.08,.22-.04,.06-.12,.09-.61,.31-.15,.31-.46,.42-.44,.28-.1,.08-.05,.1-.06,.14-.08,.13-.26,.2-.35,.68-.49,.39-.13,.21-.14,.18-.63,.37-.62,.71-.26,.18-.17,.2-.11,.06v.03s.08,.36,.08,.36l.07,.37,.07,.37,.07,.37,.07,.37,.07,.37,.07,.37,.07,.36,.08,.44,.36-.07,1.33-.25,1.34-.24,1.34-.25,1.33-.25,1.34-.25,1.33-.26,1.34-.25,1.33-.26,1.34-.25,1.33-.26,1.33-.26,1.34-.26,1.33-.26,1.33-.27,1.33-.26,1.34-.27,1.33-.27,1.33-.27,1.33-.28,1.33-.27,1.33-.28,1.33-.28,1.33-.28,1.33-.28,1.33-.28,1.33-.29,1.32-.28,1.33-.29,1.33-.29,1.33-.29,1.32-.3,1.33-.29,.21-.05,.12-.03,.04,.18,.28,.12,.33,.07,.23,.1,.12,.22,.09,.31,.12,.26,.2,.09,.52-.21,.13,.02,.26,.13,.29,.03,.2,.21,.1,.03,.14,.02v.13s-.18,.32-.18,.32l.23,.07,.18,.02,.15,.09,.11,.26v.13l-.11,.14v.13s.24,.44,.24,.44l.06,.26,.09,.67,.06,.13,.16,.09,.73,.92,.17,.17,.2,.11h.46s.16,.1,.16,.1l.13,.12,.17,.09h.24l.47-.15,.22,.07,.15,.09,.11-.02,.09-.07,.1-.06,.09,.03,.07,.09,.13,.19,.12,.1,.22,.23,.11,.25,1.11,.35,1.11,.34,1.11,.35,1.12,.34,1.11,.35,1.12,.34,1.11,.34,1.12,.35ZM10.32,54.12l.11,.06,.17,.15,.2,.12h.17l.36-.86v-.17l-.11-.1-.26-.04-.17-.04-.16,.05-.16,.08-.18,.05,.05,.18-.05,.45,.03,.08Z"/>
  <g>
    <path d="M49.02,50.98h-1.23l-2.06-3.12v3.12h-1.23v-5.09h1.23l2.06,3.15v-3.15h1.23v5.09Z"/>
    <path d="M54.27,45.89l-1.76,3.4v1.69h-1.24v-1.69l-1.76-3.4h1.41l.98,2.07,.98-2.07h1.4Z"/>
  </g>
</svg>