<?xml version="1.0" encoding="utf-8"?>
<!-- Generator: Adobe Illustrator 26.5.0, SVG Export Plug-In . SVG Version: 6.00 Build 0)  -->
<svg version="1.1" xmlns="http://www.w3.org/2000/svg" xmlns:xlink="http://www.w3.org/1999/xlink" x="0px" y="0px"
	 viewBox="0 0 90 90" style="enable-background:new 0 0 90 90;" xml:space="preserve">
<style type="text/css">
	.st0{fill:#CECECE;stroke:#F9F9F9;stroke-width:0.025;stroke-linecap:round;stroke-linejoin:round;}
	.st1{display:none;fill:none;stroke:#47CCCC;stroke-width:0.5;stroke-linecap:round;stroke-linejoin:round;}
	.st2{fill:#CECECE;}
</style>
<g id="ALABAMA">
</g>
<g id="ALASKA">
</g>
<g id="ARIZONA">
</g>
<g id="ARKANSAS_1_">
</g>
<g id="CALIFORNIA">
</g>
<g id="COLORADO">
</g>
<g id="CONNECTICUT">
</g>
<g id="DELAWARE">
</g>
<g id="DC">
</g>
<g id="FLORIDA">
</g>
<g id="GEORGIA">
</g>
<g id="HAWAII">
</g>
<g id="IDAHO">
</g>
<g id="IOWA">
</g>
<g id="ILLINOIS">
</g>
<g id="INDIANA">
</g>
<g id="KANSAS">
</g>
<g id="KETUCKY">
</g>
<g id="LOUISANA">
</g>
<g id="MAINE">
</g>
<g id="MARYLAND">
</g>
<g id="MASSACHUSETTS">
</g>
<g id="MICHIGAN">
</g>
<g id="MINNESOTA">
</g>
<g id="MISSOURI">
</g>
<g id="MISSISSIPPI">
</g>
<g id="MONTANA">
</g>
<g id="NORTH_CAROLINA">
</g>
<g id="NORTH_DAKOTA">
</g>
<g id="NEBRASKA">
</g>
<g id="NEW_HAMPSHIRE">
</g>
<g id="NEW_JERSEY">
</g>
<g id="NEW_YORK">
	<path id="NY_1_" class="st0" d="M65.09,73.55l-0.13,0.07l-0.12,0.11l-0.14,0.09l-0.23,0.04l-0.16-0.01l-0.11,0.06l-0.07,0.24
		l0.01,0.21l0.07,0.4l-0.02,0.21l-0.06,0.07l-0.09,0.06l-0.09,0.09l-0.06,0.13l0.01,0.09l0.1,0.34l1.03-0.89l0.38-0.6l-0.13-0.67
		L65.09,73.55z M73.26,71.52l-0.02-0.04l0.01-0.02l0.05-0.01l-0.02-0.08l-0.18,0.12l-0.62,0.17l-0.11,0.05l-0.06,0.04l-0.13,0.17
		l-0.21,0.14l-0.06,0.07l-0.13,0.1l-1.38,0.6l0.26,0.09l1.35-0.63l0.5-0.45l0.73-0.26V71.52z M77.51,68.89l-0.45,0.36l-0.49,0.26
		l-0.1,0.11l-0.11,0.11l-0.38,0.23L75.84,70l-0.12,0.09l-0.22,0.33l-0.13,0.15l-0.59,0.4l-0.91,0.42l-0.29,0.23l-0.32,0.11h-0.29
		l0.1,0.14l0.34-0.11l0.91-0.42l0.97-0.62l0.28-0.24l0.15-0.07l0.56-0.55l0.85-0.52l0.14-0.06l0.1-0.13l0.31-0.25l-0.02-0.08
		L77.51,68.89z M85.45,62.73l-0.27,0.04l-0.2,0.09l0.07,0.12l0.02,0.08l-0.2,0.02l-0.17-0.03L84.6,63.1l-0.01,0.28l-0.21-0.02
		l-0.17,0.15l-0.29,0.4l-0.33,0.25l-0.2,0.1l-0.11-0.05l-0.08-0.12l-0.44-0.39l-0.15-0.01l-0.07,0.18v0.25l0.05,0.23l-0.46-0.29
		l-0.16-0.04l-0.07,0.1l-0.01,0.15l0.02,0.07l-0.11,0.07L81.6,64.6l-0.13,0.04l-0.08-0.08l-0.08-0.14l-0.11-0.07l-0.14,0.11
		l0.17,0.21l-0.12,0.19l-0.22,0.18l-0.43,0.57l-0.13,0.21l0.01,0.15l0.06,0.16l-0.13,0.16l-0.21,0.14l-0.2,0.1l-0.22,0.02
		l-0.23-0.04l-0.2,0.02l-0.17,0.21l-0.1-0.05l-0.11-0.01l-0.11,0.02l-0.11,0.04l0.06-0.19l0.14-0.21l0.17-0.19L79.23,66l0.06-0.09
		l0.09-0.2l0.02-0.06l0.02-0.17l0.04-0.07l0.04-0.02l0.12-0.01l0.05-0.02l0.21-0.3l0.09-0.05L80,65.1l0.12,0.13l0.12,0.08l0.01-0.13
		l-0.06-0.16l-0.07-0.12l-0.01-0.13l0.07-0.17l0.08-0.07l0.21-0.05l0.09-0.08l-0.09-0.02l-0.09-0.03l-0.08-0.06l-0.08-0.09
		l0.51-0.79l0.33-0.32l0.21,0.2l0.12-0.09l0.13-0.14l0.1-0.17l0.02-0.16l-0.09-0.1l-0.15-0.03l-0.16,0.02l-0.13,0.05l-0.46,0.39
		l-0.12,0.16l-0.17,0.34l-0.12,0.16l-0.42,0.23l-0.19,0.15l-0.1,0.37l-0.52,0.39l-0.47,0.75l-0.2,0.14l-1.19,0.57l-1.56,0.31
		l-1.67,0.42l0.09,0.12l-0.01,0.1l-0.08,0.06l-0.13,0.03l-0.01-0.27l-0.16-0.02l-0.21,0.12l-0.16,0.12l0.1,0.2l-0.06,0.23
		l-0.16,0.19l-0.41,0.24l-0.11,0.03l-0.09-0.01l-0.22-0.06h-0.1l-0.21,0.02l-0.93-0.11l-0.21,0.06l-0.07,0.12l0.24,0.2l0.09-0.21
		l0.17,0.04l0.14,0.17l0.01,0.18l-0.13,0.04l-0.19-0.03h-0.2l-0.1,0.15l-0.15-0.07l-0.11-0.07l0.04-0.25l-0.21-0.12l-0.25,0.06
		l-0.09,0.25l0.06,0.13l0.21,0.17l0.04,0.1l-0.07,0.07l-0.28-0.06L69.92,69l0.01-0.07l0.03-0.04l-0.56-0.01l-0.51,0.28l-0.25,0.48
		l0.29,0.6l-0.14,0.05l-0.21-0.14l-0.24-0.21l-0.23-0.15L68,69.92l-0.07,0.18l0.02,0.14l0.34,0.05l0.08,0.15l-0.03,0.16l-0.09,0.1
		l-0.1-0.06l-0.12-0.15l-0.13-0.11l-0.15,0.06l-0.04,0.14l0.11,0.33l0.01,0.16l-0.28-0.11l-0.34-0.01l-0.26,0.13l-0.04,0.3h-0.5
		L66.2,71.6l-0.23,0.91l-0.03,0.07l-0.09,0.09l-0.04,0.06l-0.01,0.04l-0.01,0.11v0.05l-0.21,0.4l-0.03,0.12l0.11,0.28l0.36,0.25
		l0.01,0.26l0.17-0.03l0.49-0.23l0.05-0.05l0.1-0.13l0.08-0.06l0.13-0.03l0.1,0.02l0.09-0.02l0.07-0.16l-0.16-0.14l-0.08-0.04
		l-0.1-0.02l-0.02-0.09l0.23-0.25l0.14-0.1l0.21-0.07l0.21-0.02l0.28,0.02l0.21,0.07l0.02,0.13l0.07,0.07l0.02,0.04l0.02,0.05
		l-0.19,0.06l-1.21,0.81l-0.16,0.16l0.35-0.02l1.3-0.75l1.79-0.43l-0.02-0.09l-0.28,0.01l-0.72,0.26l-0.23-0.07L69,72.95l0.25-0.13
		l0.56-0.14l0.99-0.62l1-0.32l0.2-0.13l0.31-0.31l0.6-0.3l0.1-0.08l0.11-0.18l0.08-0.08l0.18-0.05l0.47,0.03l0.23-0.02l0.13-0.09
		l-0.03-0.13l-0.07-0.14l0.03-0.13l0.12-0.06l0.13,0.01l0.14,0.03h0.12l0.12-0.04l0.4-0.21l0.1-0.15l0.1-0.05l0.62-0.19l0.2-0.12
		l0.21-0.21l0.12-0.05l0.26,0.08h0.13l0.2-0.09l0.12-0.15v-0.18l-0.15-0.19l0.35-0.07l1.06-0.43l0.24-0.05l-0.06,0.13l-0.17,0.13
		L78,68.56l-0.06,0.03l-0.02,0.05l0.04,0.07l0.07,0.03l0.04-0.03l0.03-0.06l0.05-0.04l0.1-0.04l0.91-0.67l0.59-0.27l0.32-0.33
		l0.09-0.13l-0.03-0.12l-0.1-0.11l-0.06-0.12l0.01-0.12l0.11-0.07l0.26-0.04l0.13,0.05l0.03,0.14l-0.07,0.23l0.19-0.08l0.29-0.28
		l0.31-0.16l0.49-0.36l0.76-0.84l0.57-0.32l0.62-0.54l0.63-0.33l1.02-1L85.47,63l0.12-0.12l0.04-0.14L85.45,62.73z M83.43,60.84
		l0.13-0.04l0.13-0.1l0.21-0.26l0.15-0.15l0.03-0.01l0.03-0.03l0.02-0.06l-0.75,0.29l-0.14,0.12l-0.02,0.17l0.09,0.07H83.43z
		 M61.48,26.83L61.48,26.83L61.48,26.83L61.48,26.83z M34.58,32.64l0.08,0.03l0.22-0.1l0.3-0.35l0.2-0.17l-0.01-0.05l-0.03-0.04
		l-0.07-0.06h-0.06l-0.06,0.06l-0.09,0.05l-0.12-0.04l-0.09,0.12l-0.23,0.13l-0.09,0.11l-0.02,0.1l0.01,0.12L34.58,32.64z
		 M35.54,31.62l0.04,0.12l0.02,0.15l0.1,0.1l0.08-0.04L36,31.65l0.16-0.11l0.18-0.2l0.15-0.24l0.09-0.25l0.02-0.03v-0.04l-0.01-0.07
		l-0.13,0.04l-0.08,0.08l-0.13,0.22l-0.09-0.18l-0.1,0.11l-0.15,0.41l-0.08-0.06l0.02-0.03l0.01-0.01l0.01-0.01l0.01-0.06
		l-0.12,0.03l-0.09,0.04l-0.06,0.08l-0.03,0.1l-0.03-0.01l-0.04,0.01l-0.06,0.01l-0.07,0.03l0.02,0.1L35.54,31.62z M34.61,36.03
		l0.06-0.3v-0.15l-0.11,0.01l-0.16,0.11l-0.12,0.12L34.15,36l-0.03,0.15l0.12,0.4l0.28-0.33L34.61,36.03z M65.81,68.87l-0.07-0.33
		l-0.4-1.05l-0.1-0.56l-0.07-0.22l-0.14-0.2l-0.19-0.14l-0.2-0.11l-0.16-0.14l-0.18-0.41l-0.07-0.09l-0.06-0.11l-0.01-0.19
		l0.03-0.12l0.08-0.12l0.15-0.19l0.08,0.25l-0.03,0.22l0.02,0.23l0.22,0.23l0.39,0.21l0.15,0.11l0.15,0.17l0.21,0.41l0.16,0.47
		l0.24,1.04l0.03,0.26l-0.02,0.55l0.05,0.55l-0.12,0.57l0.02,0.28l-0.02,0.2l-0.33,1.12l-0.02,0.25l0.03,0.27l0.06,0.27l0.2-0.22
		l0.14-0.82l0.13-0.34l0.23-0.21l0.34-0.16l0.36-0.1l0.3-0.02l-0.07-0.11l-0.2-0.22l-0.06-0.1l0.03-0.13l0.11-0.05l0.12-0.02
		l0.04-0.07v-0.23l0.08-0.24l0.32-0.57l0.08-0.1l0.11-0.06l0.21-0.05l0.02-0.06l0.14-0.34l0.02-0.14l-0.04-0.05l-0.12-0.06
		l0.08-0.11l0.03-0.03l-0.06-0.09l-0.08-0.1l-0.04-0.04l-0.03-0.01l-0.06-0.02L68,67.7l-0.33-0.31l-0.31-0.31l-0.08-0.07l0.12-0.13
		l0.36-0.36l0.47-0.47l0.5-0.5l0.41-0.41l0.13-0.15l-0.2-0.18l-0.19-0.19l-0.2-0.2l-0.26-0.27l-0.04-0.23l-0.11-0.6l-0.1-0.6
		l-0.11-0.59l-0.11-0.6l-0.1-0.59l-0.11-0.6l-0.1-0.59l-0.11-0.6l-0.11-0.59l-0.1-0.6l-0.11-0.59l-0.11-0.6l-0.1-0.59l-0.11-0.6
		l-0.11-0.59l-0.1-0.59l-0.33-0.25v-0.24l0.02-0.5l0.03-0.97l0.06-1.94l0.04-0.97l0.03-0.97l0.03-0.96l0.03-0.97l0.03-0.97
		l0.01-0.31l0.11-0.24l-0.21-0.31l-0.25-0.38v-0.47l-0.03-0.21l-0.02-0.14l-0.03-0.09l-0.06-0.26l-0.09-0.41l-0.12-0.53l-0.14-0.62
		l-0.16-0.7l-0.17-0.74l-0.34-1.54l-0.17-0.74l-0.16-0.69l-0.15-0.62l-0.12-0.53l-0.09-0.41l-0.06-0.25l-0.02-0.1l-0.06-0.27
		l-0.1-0.08L64.16,35l-0.06-0.02L64,34.89l-0.24-0.41l-0.06-0.06l-0.07-0.05l-0.08-0.01h-0.16l-0.07,0.02l-0.07,0.02l-0.06,0.04
		l-0.05,0.04l-0.04,0.05l-0.03,0.07l-0.01,0.07l0.01,0.23l-0.01,0.08l-0.03,0.06l-0.03,0.06l-0.09,0.11l-0.1,0.07l-0.03,0.02h-0.03
		l-0.03-0.03l-0.1-0.11l-0.08-0.13l-0.06-0.15l-0.07-0.27l-0.02-0.15v-0.12l0.2-1.36v-0.1l-0.04,0.07l-0.09-0.39l-0.04-0.11
		l-0.1-0.1l-0.27-0.17L62,32.06l-0.01-0.15l0.03-0.25l-0.01-0.16l-0.06-0.14l-0.09-0.12l-0.17-0.17l-0.14-0.21l-0.1-0.21l-0.17-0.66
		l-0.01-0.25l-0.03-0.15l-0.01-0.02l-0.09-0.07l-0.07,0.03L61,29.68l-0.03,0.14l-0.18-0.51l0.02-1.34l-0.2-0.41l0.21-0.2l0.49-0.87
		l-0.14-0.15l-0.1-0.13l-0.07-0.17l-0.12-0.35l-0.18-0.41l-0.07-0.09l-0.06-0.06l-0.04-0.04l-0.15-0.68l-0.05-0.14l-0.11,0.03
		l-0.04,0.22l0.01,0.28l0.05,0.22l-0.1-0.15l-0.05-0.17l-0.01-0.18l0.03-0.17v-0.18l-0.09-0.16l-0.24-0.25l0.13-0.19l0.02-0.21
		l-0.1-0.17l-0.22-0.03l-0.1-0.09l-0.13-0.22l-0.1-0.25l-0.03-0.17l-0.06,0.01v-0.1l-0.03-0.12l-0.06-0.1l-0.09-0.1l0.12-0.16
		l-0.01-0.19l-0.13-0.32l-0.01-0.26L59.12,21h0.12l0.14,0.19l0.06,0.05h0.07l0.03-0.1l-0.03-0.13l-0.06-0.08l-0.07-0.05l-0.16-0.14
		l-0.07-0.03l-0.03-0.04l-0.01-0.16l0.04-0.13l0.06-0.03l0.06-0.01l0.06-0.07l0.06-0.25l-0.03-0.16l-0.12-0.11l-0.17-0.1l-0.08-0.14
		l-0.05-0.23l-0.02-0.23l0.03-0.36l-0.09-0.45l-0.02-0.2l0.03-0.03l0.05-0.01l0.05-0.05L59,17.84l-0.02-0.12l-0.05-0.12l-0.11-0.18
		l0.02-0.1l-0.36,0.1l-0.93,0.24l-0.94,0.23l-0.93,0.22l-0.94,0.24l-0.93,0.24l-0.94,0.22l-0.93,0.23l-0.94,0.22l-0.93,0.24
		l-0.94,0.22l-0.93,0.23l-0.94,0.22l-0.94,0.22l-0.16,0.02L45.9,20.5l-1.22,0.14l-0.17,0.05l-0.15,0.09l-0.29,0.29l-0.51,0.32
		l-0.14,0.12l-0.34,0.4l-0.15,0.11l-0.47,0.24l-1.15,1.07l-0.54,0.73l-0.87,1.18l-0.93,1.26l-0.93,1.25l-0.36,0.79l-0.26,0.46l0,0
		l0,0l0.17,0.16l0.11,0.22l0.07,0.22l-0.06,0.2l-0.53,0.52v0.05l0.01,0.08v0.08l-0.02,0.07l-0.03,0.03l-0.46,0.3l-0.03,0.1
		l-0.07,0.14l-1.01,1.3l-1.12,0.8l-1.4,1.51l-0.05,0.2l0.11,0.26l0.15,0.06l0.19,0.01l0.2,0.12l0.08,0.13v0.11l-0.02,0.09l0.04,0.1
		l0.09,0.05h0.09l0.06-0.08v-0.15l0.05-0.19l0.56-0.43l0.12,0.15l0.37-0.15l0.17,0.11l-0.06,0.08l-0.02,0.05v0.17l0.05-0.09
		l0.07-0.08l0.08-0.05l0.09-0.03l-0.02,0.18l-0.07,0.19l-0.11,0.17l-0.22,0.18l-0.13,0.18l-0.07,0.18l0.07,0.05l0.6-0.13l0.17-0.1
		l0.21-0.28l0.15-0.09h0.17l0.09,0.09l0.01,0.15l-0.08,0.18l-0.13,0.11l-0.3,0.12l-0.1,0.16l-0.03,0.2l0.02,0.16v0.17l-0.11,0.23
		l-0.34,0.43l-0.07,0.2l-0.3-0.12l0.04-0.09l0.03-0.27l-0.42,0.32l-0.11,0.14l-0.07,0.23l0.08,0.08l0.16,0.03l0.18,0.11l0.07,0.05
		l0.15,0.06l0.06,0.05l0.05,0.09l0.02,0.1l0.04,0.09l0.18,0.21l0.17,0.32l0.1,0.15l-0.04,0.26l0.05,0.28l0.11,0.29l0.13,0.28
		l0.04-0.2l0.07-0.14l0.1-0.06l0.14,0.04l-0.28,0.65l0.01,0.29l0.3,0.13l-0.15,0.2l-0.29,0.52l-0.18,0.14l-0.62,0.26l-0.26,0.01
		l-0.43-0.06l-0.17,0.06l-0.39,0.6l-0.16,0.18l-0.9,0.68l-0.31,0.33l-0.26,0.39l-0.26,0.88l-0.26-0.1l-0.15-0.01l-0.03,0.16
		l-0.04,0.06l-0.57,0.41l-0.95,0.41l-0.04,0.05l-0.03,0.12l0.01,0.1l0.03,0.07v0.07l-0.02,0.09l0.01,0.04l-0.01,0.03l-0.09,0.05
		l-0.09,0.03L29.47,47l-0.09-0.05l-0.09-0.08l0.01-0.05l0.03-0.14L25.6,47.3l-0.42,0.18l-1.12,0.68l-0.44,0.09l-0.43-0.1l-0.81-0.46
		l-0.06-0.01l-0.22-0.01l-0.03-0.14l-0.26-0.06l-3.57,0.07l-1.12,0.41l-1.52,0.09l-2.91,1.03l-0.57,0.42l-1.01,0.37l-1.15,0.71
		L9.31,50.8l0.09,0.21l0.27,1.12l0.02,0.14l0.01,0.17l-0.02,0.12l-0.04,0.11L9.61,52.8l0.04,0.19h0.01l0.43,0.17l1.11-0.09
		l0.31,0.27l0.01,0.28l-0.27,0.41l-0.03,0.3l0.07,0.11l0.21,0.12l0.06,0.07l0.18,0.55l0.09,0.13l0.27,0.34l0.09,0.15l0.04,0.11
		l0.06,0.29l0.03,0.31l-0.05,0.24l-0.13,0.19l-0.17,0.18l-0.7,0.47l-0.32,0.29l-0.21,0.37l-0.12,0.51l-0.12,0.25l-0.19,0.14
		l-0.04,0.06l-0.1,0.37L10.1,59.8l-0.04,0.06l-0.12,0.09l-0.61,0.31l-0.15,0.31l-0.46,0.42l-0.44,0.28l-0.1,0.08l-0.05,0.1
		l-0.06,0.14l-0.08,0.13l-0.26,0.2L7.39,62.6L6.9,62.99L6.78,63.2l-0.14,0.18l-0.63,0.37l-0.62,0.71l-0.26,0.18l-0.17,0.2
		l-0.11,0.06l0.01,0.03l0.07,0.36l0.07,0.37l0.07,0.37l0.07,0.37l0.07,0.37l0.07,0.37l0.07,0.37l0.07,0.36l0.08,0.44l0.36-0.07
		l1.33-0.25l1.34-0.24l1.34-0.25l1.33-0.25l1.34-0.25l1.33-0.26l1.34-0.25l1.33-0.26l1.34-0.25l1.33-0.26l1.33-0.26l1.34-0.26
		l1.33-0.26l1.33-0.27l1.33-0.26l1.34-0.27l1.33-0.27l1.33-0.27l1.33-0.28l1.33-0.27l1.33-0.28l1.33-0.28l1.33-0.28l1.33-0.28
		l1.33-0.28l1.33-0.29l1.32-0.28l1.33-0.29l1.33-0.29l1.33-0.29l1.32-0.3l1.33-0.29l0.21-0.05l0.12-0.03l0.04,0.18l0.28,0.12
		l0.33,0.07l0.23,0.1l0.12,0.22l0.09,0.31l0.12,0.26l0.2,0.09l0.52-0.21l0.13,0.02l0.26,0.13l0.29,0.03l0.2,0.21l0.1,0.03l0.14,0.02
		l-0.01,0.13l-0.17,0.32l0.23,0.07l0.18,0.02l0.15,0.09l0.11,0.26V62l-0.11,0.14l-0.01,0.13l0.25,0.44l0.06,0.26l0.09,0.67
		l0.06,0.13l0.16,0.09l0.73,0.92l0.17,0.17l0.2,0.11l0.46,0.01l0.16,0.09l0.13,0.12l0.17,0.09h0.24l0.47-0.15l0.22,0.07l0.15,0.09
		l0.11-0.02l0.09-0.07l0.1-0.06l0.09,0.03l0.07,0.09l0.13,0.19l0.12,0.1l0.22,0.23l0.11,0.25l1.11,0.35l1.11,0.34l1.11,0.35
		l1.12,0.34l1.11,0.35l1.12,0.34l1.11,0.34L65.81,68.87z M10.32,54.12l0.11,0.06l0.17,0.15l0.2,0.12h0.17l0.36-0.86v-0.17l-0.11-0.1
		l-0.26-0.04l-0.17-0.04l-0.16,0.05l-0.16,0.08l-0.18,0.05l0.05,0.18l-0.05,0.45L10.32,54.12z"/>
	<path id="NY_2_" class="st1" d="M65.09,73.55l-0.13,0.07l-0.12,0.11l-0.14,0.09l-0.23,0.04l-0.16-0.01l-0.11,0.06l-0.07,0.24
		l0.01,0.21l0.07,0.4l-0.02,0.21l-0.06,0.07l-0.09,0.06l-0.09,0.09l-0.06,0.13l0.01,0.09l0.1,0.34l1.03-0.89l0.38-0.6l-0.13-0.67
		L65.09,73.55z M73.26,71.52l-0.02-0.04l0.01-0.02l0.05-0.01l-0.02-0.08l-0.18,0.12l-0.62,0.17l-0.11,0.05l-0.06,0.04l-0.13,0.17
		l-0.21,0.14l-0.06,0.07l-0.13,0.1l-1.38,0.6l0.26,0.09l1.35-0.63l0.5-0.45l0.73-0.26V71.52z M77.51,68.89l-0.45,0.36l-0.49,0.26
		l-0.1,0.11l-0.11,0.11l-0.38,0.23L75.84,70l-0.12,0.09l-0.22,0.33l-0.13,0.15l-0.59,0.4l-0.91,0.42l-0.29,0.23l-0.32,0.11h-0.29
		l0.1,0.14l0.34-0.11l0.91-0.42l0.97-0.62l0.28-0.24l0.15-0.07l0.56-0.55l0.85-0.52l0.14-0.06l0.1-0.13l0.31-0.25l-0.02-0.08
		L77.51,68.89z M85.45,62.73l-0.27,0.04l-0.2,0.09l0.07,0.12l0.02,0.08l-0.2,0.02l-0.17-0.03L84.6,63.1l-0.01,0.28l-0.21-0.02
		l-0.17,0.15l-0.29,0.4l-0.33,0.25l-0.2,0.1l-0.11-0.05l-0.08-0.12l-0.44-0.39l-0.15-0.01l-0.07,0.18v0.25l0.05,0.23l-0.46-0.29
		l-0.16-0.04l-0.07,0.1l-0.01,0.15l0.02,0.07l-0.11,0.07L81.6,64.6l-0.13,0.04l-0.08-0.08l-0.08-0.14l-0.11-0.07l-0.14,0.11
		l0.17,0.21l-0.12,0.19l-0.22,0.18l-0.43,0.57l-0.13,0.21l0.01,0.15l0.06,0.16l-0.13,0.16l-0.21,0.14l-0.2,0.1l-0.22,0.02
		l-0.23-0.04l-0.2,0.02l-0.17,0.21l-0.1-0.05l-0.11-0.01l-0.11,0.02l-0.11,0.04l0.06-0.19l0.14-0.21l0.17-0.19L79.23,66l0.06-0.09
		l0.09-0.2l0.02-0.06l0.02-0.17l0.04-0.07l0.04-0.02l0.12-0.01l0.05-0.02l0.21-0.3l0.09-0.05L80,65.1l0.12,0.13l0.12,0.08l0.01-0.13
		l-0.06-0.16l-0.07-0.12l-0.01-0.13l0.07-0.17l0.08-0.07l0.21-0.05l0.09-0.08l-0.09-0.02l-0.09-0.03l-0.08-0.06l-0.08-0.09
		l0.51-0.79l0.33-0.32l0.21,0.2l0.12-0.09l0.13-0.14l0.1-0.17l0.02-0.16l-0.09-0.1l-0.15-0.03l-0.16,0.02l-0.13,0.05l-0.46,0.39
		l-0.12,0.16l-0.17,0.34l-0.12,0.16l-0.42,0.23l-0.19,0.15l-0.1,0.37l-0.52,0.39l-0.47,0.75l-0.2,0.14l-1.19,0.57l-1.56,0.31
		l-1.67,0.42l0.09,0.12l-0.01,0.1l-0.08,0.06l-0.13,0.03l-0.01-0.27l-0.16-0.02l-0.21,0.12l-0.16,0.12l0.1,0.2l-0.06,0.23
		l-0.16,0.19l-0.41,0.24l-0.11,0.03l-0.09-0.01l-0.22-0.06h-0.1l-0.21,0.02l-0.93-0.11l-0.21,0.06l-0.07,0.12l0.24,0.2l0.09-0.21
		l0.17,0.04l0.14,0.17l0.01,0.18l-0.13,0.04l-0.19-0.03h-0.2l-0.1,0.15l-0.15-0.07l-0.11-0.07l0.04-0.25l-0.21-0.12l-0.25,0.06
		l-0.09,0.25l0.06,0.13l0.21,0.17l0.04,0.1l-0.07,0.07l-0.28-0.06L69.92,69l0.01-0.07l0.03-0.04l-0.56-0.01l-0.51,0.28l-0.25,0.48
		l0.29,0.6l-0.14,0.05l-0.21-0.14l-0.24-0.21l-0.23-0.15L68,69.92l-0.07,0.18l0.02,0.14l0.34,0.05l0.08,0.15l-0.03,0.16l-0.09,0.1
		l-0.1-0.06l-0.12-0.15l-0.13-0.11l-0.15,0.06l-0.04,0.14l0.11,0.33l0.01,0.16l-0.28-0.11l-0.34-0.01l-0.26,0.13l-0.04,0.3h-0.5
		L66.2,71.6l-0.23,0.91l-0.03,0.07l-0.09,0.09l-0.04,0.06l-0.01,0.04l-0.01,0.11v0.05l-0.21,0.4l-0.03,0.12l0.11,0.28l0.36,0.25
		l0.01,0.26l0.17-0.03l0.49-0.23l0.05-0.05l0.1-0.13l0.08-0.06l0.13-0.03l0.1,0.02l0.09-0.02l0.07-0.16l-0.16-0.14l-0.08-0.04
		l-0.1-0.02l-0.02-0.09l0.23-0.25l0.14-0.1l0.21-0.07l0.21-0.02l0.28,0.02l0.21,0.07l0.02,0.13l0.07,0.07l0.02,0.04l0.02,0.05
		l-0.19,0.06l-1.21,0.81l-0.16,0.16l0.35-0.02l1.3-0.75l1.79-0.43l-0.02-0.09l-0.28,0.01l-0.72,0.26l-0.23-0.07L69,72.95l0.25-0.13
		l0.56-0.14l0.99-0.62l1-0.32l0.2-0.13l0.31-0.31l0.6-0.3l0.1-0.08l0.11-0.18l0.08-0.08l0.18-0.05l0.47,0.03l0.23-0.02l0.13-0.09
		l-0.03-0.13l-0.07-0.14l0.03-0.13l0.12-0.06l0.13,0.01l0.14,0.03h0.12l0.12-0.04l0.4-0.21l0.1-0.15l0.1-0.05l0.62-0.19l0.2-0.12
		l0.21-0.21l0.12-0.05l0.26,0.08h0.13l0.2-0.09l0.12-0.15v-0.18l-0.15-0.19l0.35-0.07l1.06-0.43l0.24-0.05l-0.06,0.13l-0.17,0.13
		L78,68.56l-0.06,0.03l-0.02,0.05l0.04,0.07l0.07,0.03l0.04-0.03l0.03-0.06l0.05-0.04l0.1-0.04l0.91-0.67l0.59-0.27l0.32-0.33
		l0.09-0.13l-0.03-0.12l-0.1-0.11l-0.06-0.12l0.01-0.12l0.11-0.07l0.26-0.04l0.13,0.05l0.03,0.14l-0.07,0.23l0.19-0.08l0.29-0.28
		l0.31-0.16l0.49-0.36l0.76-0.84l0.57-0.32l0.62-0.54l0.63-0.33l1.02-1L85.47,63l0.12-0.12l0.04-0.14L85.45,62.73z M83.43,60.84
		l0.13-0.04l0.13-0.1l0.21-0.26l0.15-0.15l0.03-0.01l0.03-0.03l0.02-0.06l-0.75,0.29l-0.14,0.12l-0.02,0.17l0.09,0.07H83.43z
		 M61.48,26.83L61.48,26.83L61.48,26.83L61.48,26.83z M34.58,32.64l0.08,0.03l0.22-0.1l0.3-0.35l0.2-0.17l-0.01-0.05l-0.03-0.04
		l-0.07-0.06h-0.06l-0.06,0.06l-0.09,0.05l-0.12-0.04l-0.09,0.12l-0.23,0.13l-0.09,0.11l-0.02,0.1l0.01,0.12L34.58,32.64z
		 M35.54,31.62l0.04,0.12l0.02,0.15l0.1,0.1l0.08-0.04L36,31.65l0.16-0.11l0.18-0.2l0.15-0.24l0.09-0.25l0.02-0.03v-0.04l-0.01-0.07
		l-0.13,0.04l-0.08,0.08l-0.13,0.22l-0.09-0.18l-0.1,0.11l-0.15,0.41l-0.08-0.06l0.02-0.03l0.01-0.01l0.01-0.01l0.01-0.06
		l-0.12,0.03l-0.09,0.04l-0.06,0.08l-0.03,0.1l-0.03-0.01l-0.04,0.01l-0.06,0.01l-0.07,0.03l0.02,0.1L35.54,31.62z M34.61,36.03
		l0.06-0.3v-0.15l-0.11,0.01l-0.16,0.11l-0.12,0.12L34.15,36l-0.03,0.15l0.12,0.4l0.28-0.33L34.61,36.03z M65.81,68.87l-0.07-0.33
		l-0.4-1.05l-0.1-0.56l-0.07-0.22l-0.14-0.2l-0.19-0.14l-0.2-0.11l-0.16-0.14l-0.18-0.41l-0.07-0.09l-0.06-0.11l-0.01-0.19
		l0.03-0.12l0.08-0.12l0.15-0.19l0.08,0.25l-0.03,0.22l0.02,0.23l0.22,0.23l0.39,0.21l0.15,0.11l0.15,0.17l0.21,0.41l0.16,0.47
		l0.24,1.04l0.03,0.26l-0.02,0.55l0.05,0.55l-0.12,0.57l0.02,0.28l-0.02,0.2l-0.33,1.12l-0.02,0.25l0.03,0.27l0.06,0.27l0.2-0.22
		l0.14-0.82l0.13-0.34l0.23-0.21l0.34-0.16l0.36-0.1l0.3-0.02l-0.07-0.11l-0.2-0.22l-0.06-0.1l0.03-0.13l0.11-0.05l0.12-0.02
		l0.04-0.07v-0.23l0.08-0.24l0.32-0.57l0.08-0.1l0.11-0.06l0.21-0.05l0.02-0.06l0.14-0.34l0.02-0.14l-0.04-0.05l-0.12-0.06
		l0.08-0.11l0.03-0.03l-0.06-0.09l-0.08-0.1l-0.04-0.04l-0.03-0.01l-0.06-0.02L68,67.7l-0.33-0.31l-0.31-0.31l-0.08-0.07l0.12-0.13
		l0.36-0.36l0.47-0.47l0.5-0.5l0.41-0.41l0.13-0.15l-0.2-0.18l-0.19-0.19l-0.2-0.2l-0.26-0.27l-0.04-0.23l-0.11-0.6l-0.1-0.6
		l-0.11-0.59l-0.11-0.6l-0.1-0.59l-0.11-0.6l-0.1-0.59l-0.11-0.6l-0.11-0.59l-0.1-0.6l-0.11-0.59l-0.11-0.6l-0.1-0.59l-0.11-0.6
		l-0.11-0.59l-0.1-0.59l-0.33-0.25v-0.24l0.02-0.5l0.03-0.97l0.06-1.94l0.04-0.97l0.03-0.97l0.03-0.96l0.03-0.97l0.03-0.97
		l0.01-0.31l0.11-0.24l-0.21-0.31l-0.25-0.38v-0.47l-0.03-0.21l-0.02-0.14l-0.03-0.09l-0.06-0.26l-0.09-0.41l-0.12-0.53l-0.14-0.62
		l-0.16-0.7l-0.17-0.74l-0.34-1.54l-0.17-0.74l-0.16-0.69l-0.15-0.62l-0.12-0.53l-0.09-0.41l-0.06-0.25l-0.02-0.1l-0.06-0.27
		l-0.1-0.08L64.16,35l-0.06-0.02L64,34.89l-0.24-0.41l-0.06-0.06l-0.07-0.05l-0.08-0.01h-0.16l-0.07,0.02l-0.07,0.02l-0.06,0.04
		l-0.05,0.04l-0.04,0.05l-0.03,0.07l-0.01,0.07l0.01,0.23l-0.01,0.08l-0.03,0.06l-0.03,0.06l-0.09,0.11l-0.1,0.07l-0.03,0.02h-0.03
		l-0.03-0.03l-0.1-0.11l-0.08-0.13l-0.06-0.15l-0.07-0.27l-0.02-0.15v-0.12l0.2-1.36v-0.1l-0.04,0.07l-0.09-0.39l-0.04-0.11
		l-0.1-0.1l-0.27-0.17L62,32.06l-0.01-0.15l0.03-0.25l-0.01-0.16l-0.06-0.14l-0.09-0.12l-0.17-0.17l-0.14-0.21l-0.1-0.21l-0.17-0.66
		l-0.01-0.25l-0.03-0.15l-0.01-0.02l-0.09-0.07l-0.07,0.03L61,29.68l-0.03,0.14l-0.18-0.51l0.02-1.34l-0.2-0.41l0.21-0.2l0.49-0.87
		l-0.14-0.15l-0.1-0.13l-0.07-0.17l-0.12-0.35l-0.18-0.41l-0.07-0.09l-0.06-0.06l-0.04-0.04l-0.15-0.68l-0.05-0.14l-0.11,0.03
		l-0.04,0.22l0.01,0.28l0.05,0.22l-0.1-0.15l-0.05-0.17l-0.01-0.18l0.03-0.17v-0.18l-0.09-0.16l-0.24-0.25l0.13-0.19l0.02-0.21
		l-0.1-0.17l-0.22-0.03l-0.1-0.09l-0.13-0.22l-0.1-0.25l-0.03-0.17l-0.06,0.01v-0.1l-0.03-0.12l-0.06-0.1l-0.09-0.1l0.12-0.16
		l-0.01-0.19l-0.13-0.32l-0.01-0.26L59.12,21h0.12l0.14,0.19l0.06,0.05h0.07l0.03-0.1l-0.03-0.13l-0.06-0.08l-0.07-0.05l-0.16-0.14
		l-0.07-0.03l-0.03-0.04l-0.01-0.16l0.04-0.13l0.06-0.03l0.06-0.01l0.06-0.07l0.06-0.25l-0.03-0.16l-0.12-0.11l-0.17-0.1l-0.08-0.14
		l-0.05-0.23l-0.02-0.23l0.03-0.36l-0.09-0.45l-0.02-0.2l0.03-0.03l0.05-0.01l0.05-0.05L59,17.84l-0.02-0.12l-0.05-0.12l-0.11-0.18
		l0.02-0.1l-0.36,0.1l-0.93,0.24l-0.94,0.23l-0.93,0.22l-0.94,0.24l-0.93,0.24l-0.94,0.22l-0.93,0.23l-0.94,0.22l-0.93,0.24
		l-0.94,0.22l-0.93,0.23l-0.94,0.22l-0.94,0.22l-0.16,0.02L45.9,20.5l-1.22,0.14l-0.17,0.05l-0.15,0.09l-0.29,0.29l-0.51,0.32
		l-0.14,0.12l-0.34,0.4l-0.15,0.11l-0.47,0.24l-1.15,1.07l-0.54,0.73l-0.87,1.18l-0.93,1.26l-0.93,1.25l-0.36,0.79l-0.26,0.46l0,0
		l0,0l0.17,0.16l0.11,0.22l0.07,0.22l-0.06,0.2l-0.53,0.52v0.05l0.01,0.08v0.08l-0.02,0.07l-0.03,0.03l-0.46,0.3l-0.03,0.1
		l-0.07,0.14l-1.01,1.3l-1.12,0.8l-1.4,1.51l-0.05,0.2l0.11,0.26l0.15,0.06l0.19,0.01l0.2,0.12l0.08,0.13v0.11l-0.02,0.09l0.04,0.1
		l0.09,0.05h0.09l0.06-0.08v-0.15l0.05-0.19l0.56-0.43l0.12,0.15l0.37-0.15l0.17,0.11l-0.06,0.08l-0.02,0.05v0.17l0.05-0.09
		l0.07-0.08l0.08-0.05l0.09-0.03l-0.02,0.18l-0.07,0.19l-0.11,0.17l-0.22,0.18l-0.13,0.18l-0.07,0.18l0.07,0.05l0.6-0.13l0.17-0.1
		l0.21-0.28l0.15-0.09h0.17l0.09,0.09l0.01,0.15l-0.08,0.18l-0.13,0.11l-0.3,0.12l-0.1,0.16l-0.03,0.2l0.02,0.16v0.17l-0.11,0.23
		l-0.34,0.43l-0.07,0.2l-0.3-0.12l0.04-0.09l0.03-0.27l-0.42,0.32l-0.11,0.14l-0.07,0.23l0.08,0.08l0.16,0.03l0.18,0.11l0.07,0.05
		l0.15,0.06l0.06,0.05l0.05,0.09l0.02,0.1l0.04,0.09l0.18,0.21l0.17,0.32l0.1,0.15l-0.04,0.26l0.05,0.28l0.11,0.29l0.13,0.28
		l0.04-0.2l0.07-0.14l0.1-0.06l0.14,0.04l-0.28,0.65l0.01,0.29l0.3,0.13l-0.15,0.2l-0.29,0.52l-0.18,0.14l-0.62,0.26l-0.26,0.01
		l-0.43-0.06l-0.17,0.06l-0.39,0.6l-0.16,0.18l-0.9,0.68l-0.31,0.33l-0.26,0.39l-0.26,0.88l-0.26-0.1l-0.15-0.01l-0.03,0.16
		l-0.04,0.06l-0.57,0.41l-0.95,0.41l-0.04,0.05l-0.03,0.12l0.01,0.1l0.03,0.07v0.07l-0.02,0.09l0.01,0.04l-0.01,0.03l-0.09,0.05
		l-0.09,0.03L29.47,47l-0.09-0.05l-0.09-0.08l0.01-0.05l0.03-0.14L25.6,47.3l-0.42,0.18l-1.12,0.68l-0.44,0.09l-0.43-0.1l-0.81-0.46
		l-0.06-0.01l-0.22-0.01l-0.03-0.14l-0.26-0.06l-3.57,0.07l-1.12,0.41l-1.52,0.09l-2.91,1.03l-0.57,0.42l-1.01,0.37l-1.15,0.71
		L9.31,50.8l0.09,0.21l0.27,1.12l0.02,0.14l0.01,0.17l-0.02,0.12l-0.04,0.11L9.61,52.8l0.04,0.19h0.01l0.43,0.17l1.11-0.09
		l0.31,0.27l0.01,0.28l-0.27,0.41l-0.03,0.3l0.07,0.11l0.21,0.12l0.06,0.07l0.18,0.55l0.09,0.13l0.27,0.34l0.09,0.15l0.04,0.11
		l0.06,0.29l0.03,0.31l-0.05,0.24l-0.13,0.19l-0.17,0.18l-0.7,0.47l-0.32,0.29l-0.21,0.37l-0.12,0.51l-0.12,0.25l-0.19,0.14
		l-0.04,0.06l-0.1,0.37L10.1,59.8l-0.04,0.06l-0.12,0.09l-0.61,0.31l-0.15,0.31l-0.46,0.42l-0.44,0.28l-0.1,0.08l-0.05,0.1
		l-0.06,0.14l-0.08,0.13l-0.26,0.2L7.39,62.6L6.9,62.99L6.78,63.2l-0.14,0.18l-0.63,0.37l-0.62,0.71l-0.26,0.18l-0.17,0.2
		l-0.11,0.06l0.01,0.03l0.07,0.36l0.07,0.37l0.07,0.37l0.07,0.37l0.07,0.37l0.07,0.37l0.07,0.37l0.07,0.36l0.08,0.44l0.36-0.07
		l1.33-0.25l1.34-0.24l1.34-0.25l1.33-0.25l1.34-0.25l1.33-0.26l1.34-0.25l1.33-0.26l1.34-0.25l1.33-0.26l1.33-0.26l1.34-0.26
		l1.33-0.26l1.33-0.27l1.33-0.26l1.34-0.27l1.33-0.27l1.33-0.27l1.33-0.28l1.33-0.27l1.33-0.28l1.33-0.28l1.33-0.28l1.33-0.28
		l1.33-0.28l1.33-0.29l1.32-0.28l1.33-0.29l1.33-0.29l1.33-0.29l1.32-0.3l1.33-0.29l0.21-0.05l0.12-0.03l0.04,0.18l0.28,0.12
		l0.33,0.07l0.23,0.1l0.12,0.22l0.09,0.31l0.12,0.26l0.2,0.09l0.52-0.21l0.13,0.02l0.26,0.13l0.29,0.03l0.2,0.21l0.1,0.03l0.14,0.02
		l-0.01,0.13l-0.17,0.32l0.23,0.07l0.18,0.02l0.15,0.09l0.11,0.26V62l-0.11,0.14l-0.01,0.13l0.25,0.44l0.06,0.26l0.09,0.67
		l0.06,0.13l0.16,0.09l0.73,0.92l0.17,0.17l0.2,0.11l0.46,0.01l0.16,0.09l0.13,0.12l0.17,0.09h0.24l0.47-0.15l0.22,0.07l0.15,0.09
		l0.11-0.02l0.09-0.07l0.1-0.06l0.09,0.03l0.07,0.09l0.13,0.19l0.12,0.1l0.22,0.23l0.11,0.25l1.11,0.35l1.11,0.34l1.11,0.35
		l1.12,0.34l1.11,0.35l1.12,0.34l1.11,0.34L65.81,68.87z M10.32,54.12l0.11,0.06l0.17,0.15l0.2,0.12h0.17l0.36-0.86v-0.17l-0.11-0.1
		l-0.26-0.04l-0.17-0.04l-0.16,0.05l-0.16,0.08l-0.18,0.05l0.05,0.18l-0.05,0.45L10.32,54.12z"/>
</g>
<g id="NEW_MEXICO">
</g>
<g id="NEVADA">
</g>
<g id="OHIO">
</g>
<g id="OKLAHOMA">
</g>
<g id="OREGON">
</g>
<g id="PENNSYLVANIA">
</g>
<g id="RHODE_ISLAND">
</g>
<g id="SOUTH_CAROLINA">
</g>
<g id="SOUTH_DAKOTA">
</g>
<g id="TENNESSEE">
</g>
<g id="TEXAS">
</g>
<g id="UTAH">
</g>
<g id="VIRGINIA">
</g>
<g id="VERMONT">
</g>
<g id="WASHINGTON">
</g>
<g id="WISCONSIN">
</g>
<g id="WEST_VIRGINIA">
</g>
<g id="WYOMING">
</g>
</svg>
