<?xml version="1.0" encoding="UTF-8"?>
<svg id="NEW_MEXICO" data-name="NEW MEXICO" xmlns="http://www.w3.org/2000/svg" viewBox="0 0 90 90">
  <defs>
    <style>
      .cls-1 {
        fill: #e2e2e2;
        stroke: #f9f9f9;
        stroke-linecap: round;
        stroke-linejoin: round;
        stroke-width: .03px;
      }
    </style>
  </defs>
  <path id="NM" class="cls-1" d="M38.4,78.32l.63,.73-.15-.16-.12-.05-.47-.03-.28-.02-.29-.02-.29-.02h-.28s-.29-.03-.29-.03l-.28-.02-.29-.02-.28-.02-.29-.02-.29-.02-.28-.02-.29-.02h-.28s-.29-.03-.29-.03l-.29-.02-.28-.02-.29-.02-.28-.02-.29-.02-.28-.02-.29-.02-.28-.02-.29-.02-.29-.02-.28-.02-.29-.02-.28-.02-.29-.02-.29-.02-.28-.02-.29-.02-.28-.02-.29-.02-.28-.02-.29-.03-.28-.02-.29-.02-.29-.02-.28-.02-.29-.02-.28-.02-.29-.02-.29-.03-.28-.02-.29-.02-.28-.02-.29-.02-.29-.02-.28-.02-.28-.03-.29-.02-.29-.02-.28-.02-.29-.02-.28-.02-.29-.03-.29-.02-.28-.02-.28-.02-.29-.03-.29-.02-.28-.02-.29-.03-.28-.02h0v.1s-.02,.09-.02,.09v.18s-.02,.09-.02,.09v.19s-.02,.1-.02,.1v.09s0,.1,0,.1v.09s-.02,.1-.02,.1v.18s-.02,.1-.02,.1v.09s0,.1,0,.1v.09s-.02,.1-.02,.1v.19s-.02,.09-.02,.09v.19s-.02,.09-.02,.09v.19s-.02,.1-.02,.1v.09s0,.1,0,.1v.09s-.02,.09-.02,.09v.19s-.02,.09-.02,.09v.19s-.02,.09-.02,.09v.1s0,.09,0,.09v.1s-.02,.09-.02,.09v.19s-.02,.09-.02,.09v.19s-.02,.1-.02,.1v.19s-.02,.09-.02,.09v.1s0,.09,0,.09v.09s-.02,.1-.02,.1v.19s-.02,.09-.02,.09v.1s0,.09,0,.09v.09s-.02,.1-.02,.1v.19h0l-.48-.04-.48-.03-.48-.04-.48-.04-.48-.03-.48-.04-.48-.04-.48-.04-.48-.04-.48-.03-.48-.04-.48-.04-.48-.04-.48-.04-.48-.04-.48-.04-.48-.04-.48-.04-.48-.04-.22-.02h0v-.02h0v-.02h0v-.02h0l.2-2.33,.19-2.33,.2-2.32,.19-2.33,.2-2.33,.19-2.32,.2-2.33,.19-2.33,.2-2.32,.19-2.33,.2-2.32,.19-2.33,.19-2.33,.2-2.32,.2-2.33,.19-2.32,.19-2.32,.2-2.33,.2-2.32,.19-2.33,.19-2.32,.2-2.32,.19-2.33,.2-2.32,.19-2.32,.2-2.32,.19-2.32,.19-2.32,.2-2.32,.2-2.32,.19-2.32,.19-2.31,2,.17,2,.16,2,.15,2,.16,1.99,.15,2,.15,2,.14,2,.14,2,.14,2,.14,2,.13,2,.12,2,.12,2,.12,2,.12,2.01,.11,2,.11,2,.11,2,.1,2,.1,2,.1,2,.09,2.01,.09,2,.08,2,.08,2.01,.08,2,.08,2,.07,2,.07,2,.06,2,.06,2,.06-.04,1.63-.04,1.64-.05,1.63-.04,1.64h-.45s0,.22,0,.22v.41s-.07,1.83-.07,1.83l-.06,1.82-.06,1.83-.06,1.83-.06,1.82-.06,1.83-.06,1.83-.06,1.82-.06,1.83-.06,1.83-.06,1.83-.05,1.83-.06,1.82-.06,1.83-.07,1.83-.06,1.83-.06,1.83-.06,1.83-.06,1.83-.06,1.83-.06,1.83-.06,1.83-.06,1.83-.06,1.83-.06,1.83-.06,1.83-.06,1.83-.06,1.83-.06,1.84-.06,1.82-.06,1.83-.06,1.84-2.48-.07-2.48-.08-2.48-.08-2.49-.09-2.48-.09-2.48-.1-2.48-.1-2.48-.11-2.49-.11-2.47-.12-2.48-.12-2.48-.13-2.49-.13-2.47-.14-2.49-.14-2.48-.15-.29-.02h-.19s0,.22,0,.22l.2,.49,.04,.28,.02,.3,.06,.23,.25,.42-.09,.09,.07,.16,.1,.12,.13,.09,.15,.03h0l.15,.11h0Z"/>
  <g>
    <path d="M46.45,48.01h-1.23l-2.06-3.12v3.12h-1.23v-5.09h1.23l2.06,3.15v-3.15h1.23v5.09Z"/>
    <path d="M53.03,42.96v5.05h-1.23v-3.16l-1.09,3.16h-1.07l-1.1-3.17v3.17h-1.23v-5.05h1.5l1.38,3.52,1.35-3.52h1.5Z"/>
  </g>
</svg>