<?xml version="1.0" encoding="UTF-8"?>
<svg id="NORTH_DAKOTA" data-name="NORTH DAKOTA" xmlns="http://www.w3.org/2000/svg" viewBox="0 0 90 90">
  <defs>
    <style>
      .cls-1 {
        fill: #e2e2e2;
        stroke: #f9f9f9;
        stroke-linecap: round;
        stroke-linejoin: round;
        stroke-width: .03px;
      }
    </style>
  </defs>
  <path id="ND" class="cls-1" d="M80.55,67.22l-2.22,.07-2.22,.06-2.22,.06-2.22,.05-2.22,.05-2.22,.05-2.22,.04-2.23,.03-2.21,.03-2.23,.03-2.22,.02h-2.22s-2.22,.02-2.22,.02h-2.22s-2.23,0-2.23,0h-4.44s-2.22-.02-2.22-.02l-2.22-.02-2.22-.03-2.23-.02-2.22-.04-2.22-.03-2.22-.04-2.22-.05-2.22-.05-2.22-.06-2.22-.06-2.22-.06-2.22-.07-2.22-.08-2.22-.08,.07-2.42,.08-2.42,.07-2.42,.08-2.41,.08-2.42,.07-2.4,.08-2.41,.07-2.4,.08-2.4,.08-2.4,.07-2.39,.08-2.39,.07-2.39,.08-2.38,.07-2.38,.08-2.37,.58,.02,2.02,.07,2.02,.07,2.02,.06,2.03,.06,2.02,.06,2.03,.05,2.01,.04,2.02,.05,2.02,.04,2.03,.03,2.02,.03,1.73,.03h.29l2.01,.02,2.03,.02,2.02,.02h2.02s2.03,0,2.03,0h2.02s2.03,0,2.03,0h4.04s2.02-.03,2.02-.03h2.02s2.02-.04,2.02-.04l2.03-.02,2.03-.03,2.01-.04,2.01-.04,2.03-.04,2.02-.05,1.38-.03h0l-.02,.3,.08,.2,.1,.19,.04,.17,.05,.25,.06,.12,.06,.11,.05,.11,.08,.43,.29,.67,.08,.48,.09,.2,.22,.42,.09,.6-.18,.48-.23,.46-.07,.53,.23,.71,.06,.39,.06,.2v.14l-.04,.14-.11,.22-.04,.16,.19,.81,.07,.18,.05,.2-.12,.87,.02,.52,.08,.47,.17,.44,.43,.92,.12,.46,.16,.42,.33,.34-.13,.3,.04,.28,.25,.61v.08l-.05,.09,.02,.06,.03,.02h.04s.02,.03,.02,.03l.02,.03,.03,.05,.23,.24,.07,.16,.13,.44,.14,.25,.13,.19,.11,.21,.07,.45,.12,.34,.16,.11,.04,.06v.09s0,.07,0,.07l-.04,.06v.05s0,.3,0,.3v.25s0,.22,0,.22l.1,.2v.19s-.13,.65-.13,.65v.25l.06,.07,.08,.08,.09,.11,.04,.13-.02,1.6,.04,.28,.16,.61,.04,.26v.1s-.04,.11-.04,.11l-.03,.13v.15s.16,.52,.16,.52l.02,.24-.05,.83,.03,.17,.05,.12,.13,.19,.04,.17v.1h-.04l.06,.03,.11,.03,.1,.06,.11,.03,.06,.05,.04,.08v.06s-.04,.06-.04,.06l-.05,.21-.13,.18-.03,.13,.03,.43v.14s-.04,.09-.04,.09l-.08,.21-.02,.13,.04,.21,.15,.43,.04,.28-.03,.28-.1,.44,.03,.27,.1,.18,.31,.38,.07,.24,.07,.47,.02,.26-.06,.26,.06,.09,.16,.16,.06,.1,.02,.1v.11l.02,.13,.07,.14,.58,.81,.33,.33,.15,.21,.07,.26v.82l.03,.25,.04,.14,.04,.11,.23,.33v.09l-.02,.1v.15l.04,.07,.08,.47v.16l-.05,.36-.11,.28v.3s.22,.94,.22,.94h0Z"/>
  <g>
    <path d="M42.6,50.98h-1.23l-2.06-3.12v3.12h-1.23v-5.09h1.23l2.06,3.15v-3.15h1.23v5.09Z"/>
    <path d="M47.71,49.76c-.21,.39-.52,.69-.92,.9-.4,.22-.87,.32-1.42,.32h-1.92v-5.09h1.92c.55,0,1.02,.11,1.42,.32s.7,.51,.92,.89,.32,.83,.32,1.33-.11,.94-.32,1.33Zm-1.32-.26c.27-.25,.4-.61,.4-1.07s-.13-.82-.4-1.07c-.27-.25-.64-.38-1.12-.38h-.58v2.91h.58c.48,0,.85-.13,1.12-.38Z"/>
  </g>
</svg>