<?xml version="1.0" encoding="UTF-8"?>
<svg id="NORTH_CAROLINA" data-name="NORTH CAROLINA" xmlns="http://www.w3.org/2000/svg" viewBox="0 0 90 90">
  <defs>
    <style>
      .cls-1 {
        fill: #e2e2e2;
        stroke: #f9f9f9;
        stroke-linecap: round;
        stroke-linejoin: round;
        stroke-width: .03px;
      }
    </style>
  </defs>
  <path id="NC" class="cls-1" d="M66.69,64.28l-.11-.08-.14,.02-.12,.11-.03,.19,.07,.11,.15,.04,.16,.02,.12,.05,.05-.12,.05-.7-.14,.29-.05,.07Zm.53-3.28l-.06,.29v.33s-.04,.29-.04,.29l.1-.16,.08-.28,.07-.55,.02-.02h.02l.02-.02-.02-.06-.2,.17Zm3.47-4.78l-.32,.28-.16,.08-.15,.08-1.01,1.01-.26,.4-.1,.39,.12-.19,.76-1.03,.12-.07,.28-.14,.66-.55,.19-.25,.02-.02h.03s0-.02,0-.02l-.02-.05-.18,.08Zm7.08-3.1l-.11-.06-.67-.09-.18,.04,.02,.08,.12,.04,.49,.07,.39,.18,.04,.03,.12-.09-.07-.11-.14-.09Zm-1.74-.24l-1.44,.52-1.36,.56-.22,.16-.12,.2,2.34-1.1,.22-.07,1.11-.16-.02-.07-.5-.03Zm4-3.31l-.12,.13-.04,.11-.04,.08-.32,.34-.72,1.17-.69,1.94-.06,.35,.12,.2,.03-.32,.72-2.12,.38-.67,.14-.15,.17-.15,.35-.58,.21-.21,.12-.34-.11,.07-.14,.13Zm1.11-1.88l-.04,.04v.11s-.06,.09-.06,.09l-.06,.07-.02,.07-.02,.17-.21,.35-.07,.14h.06s.09-.25,.09-.25l.57-.62,.03-.02,.02-.02,.02-.02,.02-.04-.22-.07h-.12Zm1.47-1.28l-.41,.43-.23,.16-.22-.02-.02,.31-.03,.14-.08,.13,.84-.88,.75-.47,.13-.21,.12-.11,.04-.07,.03-.09-.22,.21-.72,.47Zm2.87-4.62l-.02-.88-.13-.44-.29-.52-.07-.22-.07-.23-.13-.27-.17-.23-.19-.11-.07,.08,.1,.19,.23,.33,.07,.21,.41,.75,.16,.44,.07,.26v.12l-.07,.27v.13s.02,.13,.02,.13l.09,.2,.03,.12,.04,.25v.41l.05,.42,.02,.56-.02,.15,.07,.33-.19,.25-.57,.36-.5,.42-.03,.02-.02-.02-.02-.03-.03-.02-.04,.03v.05s0,.06,0,.06v.03s-.04,.06-.04,.06v.06s-.04,.04-.04,.04l-.08,.03-.07,.07-.07,.09v.07h.09s.07-.02,.07-.02l.09-.12,.05-.04,.13-.07,.31-.23,.18-.07,.3-.23,.28-.05,.09-.03,.13-.15,.05-.2,.03-.88-.23-1.88Zm-2.54-3.94l-.15-.16-.03-.09-.07-.04-.07-.03-.14-.02-.07-.02-.08-.02h-.08s-.07,.04-.07,.04l-.06,.08,.03,.05,.07,.03,.07,.05,.1,.11,.32,.22,.11,.16,.09,.2,.1,.16,.15,.05,.17-.05,.02-.06-.02-.11,.04-.22-.4-.32Zm.97,.74l.04,.07,.07,.02,.18,.03,.08,.03-.42-.59-.19-.43-1.9-2.25-.63-1.04-.38-.48-.07-.17-.07-.26-.09-.22-.23-.41-.76-1.71h0s-.12,.02-.12,.02l-.12,.02v.02s.02,.06,.02,.06l.2,.36,.15,.36,.18,.23,.07,.18,.18,.24,.06,.13,.22,.7,.12,.29h-.02l-.02,.02v.04s.03,.05,.03,.05l.15,.11,.37,.43,.17,.34,.2,.29,.17,.31,.02,.28,.02,.07,.11,.17,.09,.18,.1,.17,.16,.08,.08-.1,.1,.04,.1,.13,.08,.17-.2,.11h-.07l-.1-.1v.2l.12,.11,.15,.02,.1-.1h.06s.79,.68,.79,.68l.2,.26,.11,.38,.09,.18,.22,.08,.03,.08,.02,.1Zm-5.43-6.94l.05,.15,.07,.15,.2,.02,.37-.07,.08-.05-.02-.07-.06-.09-.05-.1-.07-.29h0s-.16,.02-.16,.02l-.14,.03-.05,.07-.11,.03-.06-.07-.41,.08,.07,.08,.28,.09Zm3.09,9.76l.15,.18,.17,.06,.2-.14,.02,.03,.02,.02,.02,.03,.02,.04-.06,.03-.11,.08,.02,.07,.27-.07,.12-.05,.08-.08v-.07s-.03-.1-.03-.1v-.09s.07-.05,.07-.05l.07-.03,.04-.05,.03-.06,.07-.26-.03-.11-.27-.27-.13-.17-.02-.08,.21-.07,.22-.04,.02-.08-.06-.23-.07-.14-.17-.17-.05-.1v-.17s.05-.17,.05-.17l.03-.17-.04-.2-.06-.07-.2-.19-.03-.14-.57-.59-.32-.25-.35-.14,.02,.11v.1s-.02,.1-.02,.1l-.03,.1,.11-.02h.1l.1,.03,.1,.06-.16,.12h-.2s-.21-.03-.21-.03h-.19s.07,.13,.07,.13l.12,.12,.12,.09,.2,.04,.04,.07v.07l-.07,.05h-.06l-.24-.07-.23-.21-.16-.11-.05,.05-.05,.1-.25,.27-.05,.11,.3,1.35,.03,.37-.13,.93-.06,.02-.06-.07-.04-.06-.02-.04v-.03l-.24,.11-.23,.07-.23-.04-.22-.24,.21-.05,.32,.04h.28l.12-.2-.06-.02-.12-.11-.07-.12,.08-.08,.03-.07-.07-.12-.12-.12-.09-.05h.07s-.13,0-.13,0h-.16l-.15-.03-.12-.05-.09-.1,.11-.02,.26,.03,.24-.13-.02-.29-.17-.28-.23-.13-.02-.07,.18-.08,.12-.2,.07-.26,.02-.25-.12,.05-.28,.18v-.39s.07-.13,.07-.13l.22,.07-.02-.18-.21-.12-.27-.07h-.22s-.83,.24-.83,.24l-.74,.4-.17,.21,.11,.1,.21,.07,.14,.12-.23,.03-.41-.09h-.2s-.09,.07-.09,.07l-.06,.09-.06,.04-.07-.06-.02-.06v-.22s-.07-.1-.07-.1l-.32-.02-.45,.2-.43,.29-.24,.24-.07,.02-.25-.02-1.23,.26-.02-.07,.22-.51,.02-.17h-.13s-.05-.07-.05-.07l-.02-.13-.05-.12-.09-.07-.09-.06-.09-.08-.12-.3-.18-.22-.05-.12-.15-.72v-.23s.03-.22,.03-.22l.1-.23,.12-.17,.03-.1v-.15s-.07-.09-.07-.09l-.2-.15-.08-.12,.22,.03,.19,.07,.12,.18-.02,.32-.04,.12-.1,.18-.02,.12-.02,.52,.12,.27,.31,.45,.26,.57,.22,.16,.21-.05,.09-.28,.11,.07,.33,.35,.12,.02,.17-.02,.3-.08,.21-.11,.26-.19,.24-.25,.14-.26-.09,.02h-.02s-.02-.07-.02-.07l.13-.11,.86-.34-.02-.08h-.18l-.27-.06-.26-.09-.12-.09-.07-.08-.36-.11-.08-.07-.09-.09-.17-.23,.18,.08,.19,.11,.17,.06,.13-.07,.2,.2,.28,.11,1.02,.21h.23l.21-.09v-.07s-.21-.11-.21-.11l-.41-.37-.12-.07-.09-.02-.1-.05-.09-.08-.06-.09-.04-.15h.06l.17,.11,.3,.14,.08,.02,.07,.05,.2,.22,.32,.11,.1,.02h.09s.27-.08,.27-.08l-.02-.07-.06,.02-.02-.08,.32-.1,.09-.06,.17-.17,.04-.09h-.11s-.12-.04-.12-.04l-.14-.24-.24-.07-.12-.11-.19-.23-.16-.1-.21-.11-.22-.07h-.21s-.04-.06-.04-.06l.02-.14,.05-.15,.07-.07h.12s.02,.08,.02,.08l-.04,.09-.07,.06,.5,.03,.16,.05,.22,.12,.19,.15,.08,.04h.18s.08,.05,.08,.05l.28,.28,.19,.12,.2,.02,.19-.02,.66,.06-.02-.08-.14-.02-.15-.06-.27-.18,.1-.1-.05-.17-.11-.19-.17-.39-.1-.08-.12-.05-.12-.15,.17-.02,.15,.05,.28,.16-.07,.22,.07,.08,.14,.03,.15,.06,.04,.07,.04,.16,.03,.07,.07,.04,.23,.12,.15,.15,.07,.12,.05,.1v.09s-.02,.1-.02,.1v.1s.07,.09,.07,.09l.3,.27,.18,.13,.17,.04,.15-.1-.08-.18-.18-.22-.12-.2-.07-.16-.76-1.16-.07-.13-.1-.16-.38-.38-.12-.15-.07-.51-.08-.29-.11,.03-.02,.23-.03,.14h-.03l.04,.11,.06,.07,.08,.07,.1,.07-.22-.09-.28-.23-.17-.24,.14-.11-.22-.08-.23-.14-.2-.18-.12-.2-.03-.18v-.22l-.02-.13-.02-.03-.23,.05-1.31,.28-1.55,.32-1.55,.32-1.55,.32-1.55,.32-1.55,.31-1.55,.31-1.55,.31-1.56,.31-1.55,.3-1.55,.3-1.56,.3-1.55,.29-1.55,.29-1.56,.29-1.55,.28-1.56,.28-1.56,.28-1.55,.28-1.56,.27-1.56,.27-1.56,.27-1.55,.27-1.56,.27-1.56,.27-1.55,.27-1.56,.26-1.56,.25-1.55,.26-1.56,.26-1.56,.24-1.55,.25-.2,.03h-.07s-.04-.03-.04-.03l-.07-.12-.31,.77-.04,.24,.02,.05,.17,.24,.02,.1-.07,.43-.15,.5-.02,.11v.07l.02,.04,.12,.17,.15,.15,.03,.05,.03,.05-.02,.04-.04,.02h-.28s-.5-.08-.5-.08h-.04s-.04,.03-.04,.03l-.62,.58-.21,.24-.03,.05-.61,1.85-.06,.11-.07,.09-.08,.06-.13,.15-.07,.07-.07,.04-.06,.02h-.07l-.14-.02-.07-.02-.05-.02-.05-.02-.04-.04-.02-.04-.02-.05-.02-.06-.02-.05-.02-.04-.03-.03-.04-.02-.05-.02h-.06l-.12,.02h-.07l-.05-.02-.09-.05h-.05s-.03,0-.03,0l-.05,.02-.09,.06-.25,.25-.04,.03-.19,.02-.07,.02-.21,.15-.3,.13-.08,.05-.13,.1-.14,.15-.26,.37-.07,.14-.07,.28-.02,.07-.13,.24-.06,.08-.05,.06-.03,.03-.03,.02-.37,.32-.07,.05-.06,.02h-.06s-.06,0-.06,0l-.06-.02-.05-.02-.05-.04-.03-.03-.03-.04-.08-.14-.02-.06v-.07s0-.08,0-.08l.03-.15v-.05s0-.03,0-.03l-.02-.02-.18-.19-.04-.02h-.07s-.08,.02-.08,.02l-.39,.28-.21,.12-.56,.43v.02s-.02,.03-.02,.03v.04l.02,.16v.06s-.02,.05-.02,.05l-.09,.13-.02,.1v.07s-.05,.09-.05,.09l-.05,.04-.06,.02h-.05s-.11-.07-.11-.07l-.13-.07-.12-.03h-.08s-.09,0-.09,0l-.13,.05-.07,.05-.05,.05-.02,.05-.02,.05-.02,.07v.12s.02,.06,.02,.06l.02,.05,.11,.17v.06s0,.07,0,.07l-.08,.15-.02,.05v.17s-.04,.11-.04,.11l-.18,.37-.18,.31-.07,.06-.05,.02-.14-.02-.38,.02-.11-.02-.05,.02-.04,.02-.44,.32-.3,.14-.07,.04-.05,.04-.18,.26-.08,.07-.22,.12-.07,.04-.04,.05-.02,.05-.17,.22-.14,.28-.06,.03-.07,.02h-.07s-.08,0-.08,0l-.09,.03-.07,.05-.12,.15-.08,.12-.1,.11-.46,.28-.07,.07-.05,.06-.07,.13-.17,.22-.06,.06-.05,.03-.57,.21h-.07s-.07,0-.07,0l-.05-.02-.05-.03-.05-.03h-.07s-.08,0-.08,0l-.17,.08-.1,.02-.08,.02h-.05s-.06,0-.06,0l-.06,.02-.06,.02-.08,.05h-.03s-.03,.02-.03,.02l-.33,.02h-.06s-.17,.08-.17,.08l-.17,.09-.2,.17-.12,.13-.08,.06-.07,.04-.28,.11-.14,.07-.07,.06-.04,.05-.11,.32-.03,.06-.06,.09-.06,.05-.36,.18-.07,.06-.06,.07-.17,.25-.02,.06-.02,.04v.08l.07,.14v.05s0,.07,0,.07v.06s-.02,.06-.02,.06l-.12,.25-.02,.07-.02,.11v.07l.03,.36-.02,.1-.07,.11-.15,.2-.07,.09-.06,.05h-.03s-.23,.04-.23,.04l-.48,.12-.13,.02h-.06l-.05-.02-.05-.02-.08-.07h-.06s-.07,0-.07,0l-.13,.07-.07,.05-.05,.05-.14,.18-.08,.15-.04,.11-.02,.05v.09l.02,.38,.02,.42,.03,.62,.02,.53,.03,.52,.68-.11,.69-.11,.69-.11,.68-.11,.69-.11,1.37-.22,.69-.11,.68-.11,.69-.12,.68-.11,.69-.12,.69-.12,.68-.11,.68-.12,.69-.12,.17-.02,2.52-1.3,.28-.11,.05,.08,.04,.03,.07,.02,.04-.02,.07-.06,.09-.08,.2-.15,.08-.08,.06-.08,.02-.13,.02-.07,.05-.06,.08-.02h.1s.07-.03,.07-.03l.07-.05,.28-.2,.44-.22,.06-.02,.33-.06,.07-.02,.04-.03,.03-.05,.06-.07,.06-.03,.33-.05,.07-.04,.04-.05,.02-.17,.03-.07,.05-.07,.12-.11,.07-.03h.06s.04,.02,.04,.02l.02,.03,.06,.06,.02,.02,.03,.02h.04s.67-.17,.67-.17l.66-.07,.08-.02,.25-.02,.39-.04,.51-.06,.62-.07,.7-.07,.76-.09,.82-.08,.83-.1,.83-.1,.83-.09,.79-.09,.74-.09,.67-.07,.57-.07,.47-.06,.57-.07h.12l.07,.02,.05,.03,.04,.03,.03,.03,.02,.04,.02,.05v.06s.02,.07,.02,.07l-.02,.06-.06,.22v.05s0,.04,0,.04v.05l.02,.04,.02,.05,.04,.05,.04,.04,.07,.04h.05s.05-.03,.05-.03l.66-.66,.05-.04h.07s.03,.03,.03,.03l.42,.38,.6,.57,.48,.46,.05,.06,.02,.07,.17,1.15,.02,.07,.03,.07,.06,.05h.07s.37-.05,.37-.05l.1-.02,.28-.04,.45-.07,.58-.09,.68-.11,.77-.12,.82-.13,.85-.13,.85-.13,.82-.12,.76-.12,.69-.11,.57-.09,.45-.08,.29-.05,.1-.02,.34-.05h.28l.19,.02,.35,.24,.71,.5,.71,.5,.71,.49,1.42,1,1.42,.99,.72,.49,.72,.5,.72,.5,.71,.49,.72,.49,.72,.49,.72,.49,.71,.49,.72,.5,.24-.13,.02,.07-.03,.05-.07,.13,.75-.46,.54-.27,.19-.18,.03-.33h.07s.09,.18,.09,.18v.09s-.02,.09-.02,.09h.32s.71-.3,.71-.3h.25l.13,.03,.51-.12,.17-.02,.87,.07,.16-.02,.13-.07,.06-.11,.23-.59,.09-.44v-.15l-.08-.37-.02-.19,.02-.16-.14-.25-.26-.77-.06-.31h.06s.23,.44,.23,.44l.27,.39v.33s.24,.85,.24,.85l-.07,.35v.07s.06,.07,.06,.07v.1s-.02,.22-.02,.22l.22-.36,.05-.62-.07-1.24,.02-.2,.13-.44,.04-.37,.11-.2,.23-.32,.34-.86,.43-.77,.99-1.26,.65-.56,.44-.23,.13-.08,.07-.07-.03-.03-.05-.02-.02-.07,.08-.13-.1-.11-.18-.07h-.17s-.08-.04-.08-.04l-.12-.09-.11-.11-.05-.08,.02-.1,.07-.07,.08-.02,.04,.04h.08s.14-.06,.14-.06l.11-.16-.04-.27-.08-.13-.12-.13-.12-.06-.1,.09-.1-.17-.18-.56,.12,.13h.11l.09-.04,.07-.02,.13,.06,.08,.08-.02,.07-.15,.03,.02,.07,.17,.09,.43,.37,.08,.11-.04,.22-.33,.38-.1,.19h.34s.05,.04,.05,.04h.04l.22,.14,.16-.07,.19-.2,.11-.06,.22-.19,.34-.72,.25-.19,.02-.05-.12-.18v-.07s.07-.02,.07-.02l.07,.05,.07,.07,.07,.02,.09-.07,.06-.14,.02-.17-.02-.19-.05-.04-.11-.17-.02-.17h.17v.04s.12,.24,.12,.24l.26,.26-.12,.15,.02,.13,.1,.05,.08-.07,.07-.08,1.22-.66,.26-.25,1.78-.22-.08-.12-.27-.27-.05,.07-.07,.06-.07,.05-.14,.03,.09-.22,.16-.21,.2-.17,.21-.09,.15,.08,.09,.24,.08,.28,.11,.21,.26,.08,.04-.26-.14-.94h.07s.17,.17,.17,.17l.23,.13-.12,.19,.07,.16,.19,.1,.21,.03,.2-.04,.08-.05,.07-.07,.02-.1-.03-.07-.04-.06-.02-.06,.04-.1,.06-.07,.05-.05,.06-.06,.22-.45,.12-.16,.04-.07,.03-.12v-.12l-.03-.18,.02-.09h.05s.02,.05,.02,.05l.07,.09,.02,.06,.32-.24,.07-.07,.06-.2-.04-.09-.07-.05-.05-.11,.02-.18,.07-.03,.11,.02,.15-.03,.08-.08,.09-.2,.07-.08-.02-.08-.24-.08-.16-.18-.18-.15-.29-.02,.1,.15,.21,.2,.06,.16-.07,.05-.19,.05-.17,.12-.05,.21h-.08l-.37,.21-.14,.04-.06-.02-.06-.03-.03-.06-.02-.09,.02-.12,.06-.02h.07s.21-.18,.21-.18l.03-.07-.07-.09-.21-.19v-.1s0-.18,0-.18l-.02-.11-.02-.03-.12-.12-.02-.05h-.05s-.07,.17-.07,.17l-.06,.22-.02,.17,.02,.13,.03,.15,.03,.16-.02,.17-.17-.16-.15-.06h-.15s-.13,.03-.13,.03l-.17,.11,.05,.15,.27,.26,.09,.21-.16-.02-.23-.1-.18-.06-.02-.03-.07-.09-.1-.08-.1-.05-.1,.02-.09,.06-.15,.16-.12,.18-.11,.21-.13,.18-.22,.14-.07,.12-.06,.03-.05-.02-.05-.04-.06-.07-.36-.16-.47-.05-.42,.02-.41-.09-.42-.37-.31-.42-.19-.17-.19-.05-.04-.12-.51-.55,.36,.07,.55,.52,.36,.07,.14,.04,.5,.37,.29,.15,.35,.12h.29s.39-.11,.39-.11l.32-.2,.1-.28,.16-.19,.35-.32,.27-.3-.08-.17,.26-.16,.15-.25v-.29s-.23-.27-.23-.27l-.12,.11,.02,.07,.05,.02,.05,.02,.05,.02-.13,.11h-.11s-.1-.07-.1-.07l-.12-.03-.38,.06-.13-.02,.08-.13,.12-.1,.14-.07,.13-.04,.06-.05,.07-.1,.09-.1,.14-.06,.28,.05h.12s.03-.11,.03-.11l-.07-.09-.12-.05-.23-.05-.02-.07h.47l.2-.04,.06-.16v-.12l.05-.21-.03-.08-.17-.12-.08-.09-.05-.11-.22,.03-.87-.1-.77-.02-.63-.21-.56-.02-.16-.06-.32-.16-.42-.14-.39-.02-.24,.22-.15-.32-.12-.12-.19-.02-.11-.03-.12-.12-.22-.3,.4,.22,.21,.07,.42,.02,.48,.16,.27,.02,.47-.04,.19,.06,.23,.14,.22,.06,.46-.23h.27s.02-.07,.02-.07l.05-.05,.06-.04,.08-.03,.02,.25,.22,.12h.28l.17-.13-.05-.07-.07-.05-.07-.03-.1-.02,.02-.05v-.04s.02-.04,.02-.04l.05-.04-.02-.07-.07-.02-.07-.04-.17-.12,.02-.07,.04-.25-.08-.09-.09-.08-.12-.05h-.14s.32-.32,.32-.32l.17-.12,.24-.03,.44,.02,.2-.03,.23-.09-.07,.32-.13,.11-.46,.02-.22,.1v.13s.12,.12,.12,.12l.2,.09,.02,.07-.11,.14,.15,.09,.41,.07-.02,.07-.02,.05-.04,.03-.07,.03,.15,.16,.14,.08,.36,.09-.05-.07-.05-.06-.07-.03-.07-.02,.04-.12,.08-.07h.11s.12,.03,.12,.03l.12-.42-.12-.19,.07-.1,.16,.02,.12,.18,.08,.35,.07,.18,.1,.07,.02,.08-.37,.08,.07,.11h.06s.07-.02,.07-.02h.08s.15,.08,.15,.08l.08,.1,.12-.1v-.17s-.05-.15-.05-.15l-.08-.05-.02-.08-.02-.15,.05-.11,.22,.06,.1,.1,.18,.26,.32,.12h.11l.02-.12v-.12s.06-.05,.06-.05h.07l.14,.18,.17,.02,.62-.12,.06-.07,.07-.18,.09-.1,.32-.18,.13-.04-.02-.07-.13-.14v-.26s.09-.18,.09-.18l.19,.07-.05,.09,.11,.05,.05-.02,.02-.09-.02-.16,.02-.1,.07-.09,.02-.11-.1-.14,.21-.12,.05-.05,.03-.09v-.06s-.05-.05-.05-.05l-.02-.06-.04-.07v-.07l.16-.07,.04-.03,.39-.64v-.11l-.05-.18-.03-.19,.04-.18,.12,.23Z"/>
  <g>
    <path d="M51.12,50.22h-1.23l-2.06-3.12v3.12h-1.23v-5.09h1.23l2.06,3.15v-3.15h1.23v5.09Z"/>
    <path d="M55.9,45.59c.42,.34,.7,.8,.82,1.38h-1.3c-.1-.24-.24-.42-.44-.55-.2-.13-.44-.2-.71-.2-.36,0-.65,.13-.87,.4-.22,.26-.33,.62-.33,1.06s.11,.79,.33,1.05,.51,.39,.87,.39c.27,0,.51-.07,.71-.2,.2-.13,.35-.32,.44-.55h1.3c-.12,.58-.4,1.04-.82,1.38-.42,.34-.96,.51-1.61,.51-.49,0-.93-.11-1.3-.33-.37-.22-.66-.52-.87-.92s-.31-.84-.31-1.35,.1-.95,.31-1.35c.2-.39,.49-.7,.87-.92,.37-.22,.81-.33,1.3-.33,.65,0,1.18,.17,1.61,.51Z"/>
  </g>
</svg>