<?xml version="1.0" encoding="utf-8"?>
<!-- Generator: Adobe Illustrator 26.5.0, SVG Export Plug-In . SVG Version: 6.00 Build 0)  -->
<svg version="1.1" xmlns="http://www.w3.org/2000/svg" xmlns:xlink="http://www.w3.org/1999/xlink" x="0px" y="0px"
	 viewBox="0 0 90 90" style="enable-background:new 0 0 90 90;" xml:space="preserve">
<style type="text/css">
	.st0{fill:#CECECE;stroke:#F9F9F9;stroke-width:0.025;stroke-linecap:round;stroke-linejoin:round;}
	.st1{display:none;fill:none;stroke:#47CCCC;stroke-width:0.5;stroke-linecap:round;stroke-linejoin:round;}
	.st2{fill:#CECECE;}
</style>
<g id="ALABAMA">
</g>
<g id="ALASKA">
</g>
<g id="ARIZONA">
</g>
<g id="ARKANSAS_1_">
</g>
<g id="CALIFORNIA">
</g>
<g id="COLORADO">
</g>
<g id="CONNECTICUT">
</g>
<g id="DELAWARE">
</g>
<g id="DC">
</g>
<g id="FLORIDA">
</g>
<g id="GEORGIA">
</g>
<g id="HAWAII">
</g>
<g id="IDAHO">
</g>
<g id="IOWA">
</g>
<g id="ILLINOIS">
</g>
<g id="INDIANA">
</g>
<g id="KANSAS">
</g>
<g id="KETUCKY">
</g>
<g id="LOUISANA">
</g>
<g id="MAINE">
</g>
<g id="MARYLAND">
</g>
<g id="MASSACHUSETTS">
</g>
<g id="MICHIGAN">
</g>
<g id="MINNESOTA">
</g>
<g id="MISSOURI">
</g>
<g id="MISSISSIPPI">
</g>
<g id="MONTANA">
</g>
<g id="NORTH_CAROLINA">
	<path id="NC_1_" class="st0" d="M66.69,64.28l-0.11-0.08l-0.14,0.02l-0.12,0.11l-0.03,0.19l0.07,0.11l0.15,0.04l0.16,0.02
		l0.12,0.05l0.05-0.12l0.05-0.7l-0.14,0.29L66.69,64.28z M67.23,61l-0.06,0.29l-0.01,0.33l-0.03,0.29l0.1-0.16l0.08-0.28l0.07-0.55
		l0.02-0.02h0.02l0.02-0.02l-0.02-0.06L67.23,61z M70.69,56.22l-0.32,0.28l-0.16,0.08l-0.15,0.08l-1.01,1.01l-0.26,0.4l-0.1,0.39
		l0.12-0.19l0.76-1.03l0.12-0.07l0.28-0.14l0.66-0.55l0.19-0.25l0.02-0.02l0.03-0.01l0.01-0.02l-0.02-0.05L70.69,56.22z
		 M77.77,53.12l-0.11-0.06l-0.67-0.09l-0.18,0.04l0.02,0.08l0.12,0.04l0.49,0.07l0.39,0.18l0.04,0.03l0.12-0.09l-0.07-0.11
		L77.77,53.12z M76.03,52.88l-1.44,0.52l-1.36,0.56L73,54.12l-0.12,0.2l2.34-1.1l0.22-0.07l1.11-0.16l-0.02-0.07L76.03,52.88z
		 M80.03,49.57l-0.12,0.13l-0.04,0.11l-0.04,0.08l-0.32,0.34l-0.72,1.17l-0.69,1.94l-0.06,0.35l0.12,0.2l0.03-0.32l0.72-2.12
		l0.38-0.67l0.14-0.15l0.17-0.15l0.35-0.58l0.21-0.21l0.12-0.34l-0.11,0.07L80.03,49.57z M81.14,47.69l-0.04,0.04l-0.01,0.11
		l-0.05,0.09l-0.06,0.07l-0.02,0.07l-0.02,0.17l-0.21,0.35l-0.07,0.14l0.06-0.01l0.09-0.24l0.57-0.62l0.03-0.02l0.02-0.02l0.02-0.02
		l0.02-0.04l-0.22-0.07L81.14,47.69z M82.61,46.42l-0.41,0.43l-0.23,0.16l-0.22-0.02l-0.02,0.31l-0.03,0.14l-0.08,0.13l0.84-0.88
		l0.75-0.47l0.13-0.21l0.12-0.11l0.04-0.07l0.03-0.09l-0.22,0.21L82.61,46.42z M85.48,41.8l-0.02-0.88l-0.13-0.44l-0.29-0.52
		l-0.07-0.22l-0.07-0.23l-0.13-0.27l-0.17-0.23l-0.19-0.11l-0.07,0.08l0.1,0.19l0.23,0.33l0.07,0.21l0.41,0.75l0.16,0.44l0.07,0.26
		v0.12l-0.07,0.27l-0.01,0.13l0.03,0.13l0.09,0.2l0.03,0.12l0.04,0.25v0.41l0.05,0.42l0.02,0.56l-0.02,0.15l0.07,0.33l-0.19,0.25
		l-0.57,0.36l-0.5,0.42l-0.03,0.02l-0.02-0.02l-0.02-0.03l-0.03-0.02l-0.04,0.03l-0.01,0.05l0.01,0.06l-0.01,0.03l-0.03,0.06
		l-0.01,0.06l-0.03,0.04l-0.08,0.03l-0.07,0.07l-0.07,0.09v0.07l0.09,0.01l0.07-0.03l0.09-0.12l0.05-0.04l0.13-0.07l0.31-0.23
		l0.18-0.07l0.3-0.23l0.28-0.05l0.09-0.03l0.13-0.15l0.05-0.2l0.03-0.88L85.48,41.8z M82.94,37.85l-0.15-0.16l-0.03-0.09l-0.07-0.04
		l-0.07-0.03l-0.14-0.02l-0.07-0.02l-0.08-0.02l-0.08,0.01l-0.07,0.03l-0.06,0.08l0.03,0.05l0.07,0.03l0.07,0.05l0.1,0.11l0.32,0.22
		l0.11,0.16l0.09,0.2l0.1,0.16l0.15,0.05l0.17-0.05l0.02-0.06L83.3,38.4l0.04-0.22L82.94,37.85z M83.92,38.59l0.04,0.07l0.07,0.02
		l0.18,0.03l0.08,0.03l-0.42-0.59l-0.19-0.43l-1.9-2.25l-0.63-1.04l-0.38-0.48l-0.07-0.17l-0.07-0.26l-0.09-0.22l-0.23-0.41
		l-0.76-1.71l-0.01-0.01l-0.12,0.02l-0.12,0.02l0.01,0.02l0.01,0.06l0.2,0.36l0.15,0.36l0.18,0.23l0.07,0.18l0.18,0.24l0.06,0.13
		l0.22,0.7l0.12,0.29h-0.02l-0.02,0.02l-0.01,0.04l0.04,0.05l0.15,0.11l0.37,0.43l0.17,0.34l0.2,0.29l0.17,0.31l0.02,0.28l0.02,0.07
		l0.11,0.17l0.09,0.18l0.1,0.17l0.16,0.08l0.08-0.1l0.1,0.04l0.1,0.13l0.08,0.17l-0.2,0.11h-0.07l-0.1-0.1v0.2l0.12,0.11l0.15,0.02
		l0.1-0.1l0.06-0.01l0.79,0.69l0.2,0.26l0.11,0.38l0.09,0.18l0.22,0.08l0.03,0.08L83.92,38.59z M78.48,31.65l0.05,0.15l0.07,0.15
		l0.2,0.02l0.37-0.07l0.08-0.05l-0.02-0.07l-0.06-0.09l-0.05-0.1l-0.07-0.29v-0.01l-0.16,0.03l-0.14,0.03l-0.05,0.07l-0.11,0.03
		l-0.06-0.07l-0.41,0.08l0.07,0.08L78.48,31.65z M81.58,41.41l0.15,0.18l0.17,0.06l0.2-0.14l0.02,0.03l0.02,0.02l0.02,0.03
		l0.02,0.04l-0.06,0.03l-0.11,0.08l0.02,0.07l0.27-0.07l0.12-0.05l0.08-0.08l0.01-0.07l-0.04-0.1l-0.01-0.09l0.07-0.05l0.07-0.03
		l0.04-0.05l0.03-0.06l0.07-0.26l-0.03-0.11l-0.27-0.27l-0.13-0.17l-0.02-0.08l0.21-0.07l0.22-0.04l0.02-0.08l-0.06-0.23l-0.07-0.14
		l-0.17-0.17l-0.05-0.1l0.01-0.17l0.04-0.17l0.03-0.17l-0.04-0.2l-0.06-0.07l-0.2-0.19l-0.03-0.14l-0.57-0.59l-0.32-0.25l-0.35-0.14
		l0.02,0.11l-0.01,0.1l-0.02,0.1l-0.03,0.1l0.11-0.02h0.1l0.1,0.03l0.1,0.06l-0.16,0.12l-0.2,0.01l-0.21-0.04l-0.19-0.01l0.07,0.13
		l0.12,0.12l0.12,0.09l0.2,0.04l0.04,0.07v0.07l-0.07,0.05h-0.06l-0.24-0.07l-0.23-0.21l-0.16-0.11l-0.05,0.05l-0.05,0.1l-0.25,0.27
		l-0.05,0.11l0.3,1.35l0.03,0.37l-0.13,0.93l-0.06,0.02l-0.06-0.07l-0.04-0.06l-0.02-0.04v-0.03l-0.24,0.11l-0.23,0.07l-0.23-0.04
		l-0.22-0.24l0.21-0.05l0.32,0.04h0.28l0.12-0.2l-0.06-0.02l-0.12-0.11l-0.07-0.12l0.08-0.08l0.03-0.07l-0.07-0.12l-0.12-0.12
		l-0.09-0.05l0.07-0.01l-0.13,0.02h-0.16l-0.15-0.03l-0.12-0.05l-0.09-0.1l0.11-0.02l0.26,0.03l0.24-0.13l-0.02-0.29l-0.17-0.28
		l-0.23-0.13l-0.02-0.07l0.18-0.08l0.12-0.2l0.07-0.26l0.02-0.25L79.4,38.3l-0.28,0.18l-0.01-0.39l0.07-0.13l0.22,0.07l-0.02-0.18
		l-0.21-0.12l-0.27-0.07l-0.22-0.01l-0.83,0.25l-0.74,0.4l-0.17,0.21l0.11,0.1l0.21,0.07l0.14,0.12l-0.23,0.03l-0.41-0.09l-0.2,0.01
		l-0.09,0.06l-0.06,0.09l-0.06,0.04l-0.07-0.06l-0.02-0.06v-0.1l-0.01-0.12l-0.06-0.1l-0.32-0.02l-0.45,0.2l-0.43,0.29l-0.24,0.24
		l-0.07,0.02l-0.25-0.02l-1.23,0.26l-0.02-0.07l0.22-0.51l0.02-0.17l-0.13,0.01l-0.05-0.08l-0.02-0.13l-0.05-0.12l-0.09-0.07
		l-0.09-0.06l-0.09-0.08l-0.12-0.3l-0.18-0.22l-0.05-0.12l-0.15-0.72l-0.01-0.23l0.04-0.22l0.1-0.23l0.12-0.17l0.03-0.1l-0.01-0.15
		L72.6,35.6l-0.2-0.15l-0.08-0.12l0.22,0.03l0.19,0.07l0.12,0.18l-0.02,0.32l-0.04,0.12l-0.1,0.18l-0.02,0.12l-0.02,0.52l0.12,0.27
		l0.31,0.45l0.26,0.57l0.22,0.16l0.21-0.05l0.09-0.28l0.11,0.07l0.33,0.35l0.12,0.02l0.17-0.02l0.3-0.08l0.21-0.11l0.26-0.19
		l0.24-0.25l0.14-0.26l-0.09,0.02l-0.02,0.01l-0.02-0.08l0.13-0.11l0.86-0.34l-0.02-0.08h-0.18l-0.27-0.06l-0.26-0.09l-0.12-0.09
		l-0.07-0.08l-0.36-0.11l-0.08-0.07l-0.09-0.09l-0.17-0.23l0.18,0.08l0.19,0.11l0.17,0.06l0.13-0.07l0.2,0.2l0.28,0.11l1.02,0.21
		h0.23l0.21-0.09l-0.01-0.07l-0.2-0.11l-0.41-0.37l-0.12-0.07l-0.09-0.02l-0.1-0.05l-0.09-0.08l-0.06-0.09l-0.04-0.15h0.06
		l0.17,0.11l0.3,0.14l0.08,0.02l0.07,0.05l0.2,0.22l0.32,0.11l0.1,0.02l0.09-0.01l0.27-0.07l-0.02-0.07l-0.06,0.02l-0.02-0.08
		l0.32-0.1l0.09-0.06l0.17-0.17l0.04-0.09l-0.11-0.01l-0.12-0.03l-0.14-0.24l-0.24-0.07l-0.12-0.11l-0.19-0.23l-0.16-0.1l-0.21-0.11
		l-0.22-0.07l-0.21-0.01l-0.04-0.05l0.02-0.14l0.05-0.15l0.07-0.07l0.12,0.01l0.02,0.07l-0.04,0.09l-0.07,0.06l0.5,0.03l0.16,0.05
		l0.22,0.12l0.19,0.15l0.08,0.04l0.18,0.01l0.08,0.04l0.28,0.28l0.19,0.12l0.2,0.02l0.19-0.02l0.66,0.06l-0.02-0.08l-0.14-0.02
		l-0.15-0.06l-0.27-0.18l0.1-0.1l-0.05-0.17l-0.11-0.19l-0.17-0.39l-0.1-0.08l-0.12-0.05L78.84,34l0.17-0.02l0.15,0.05l0.28,0.16
		l-0.07,0.22l0.07,0.08l0.14,0.03l0.15,0.06l0.04,0.07l0.04,0.16l0.03,0.07l0.07,0.04l0.23,0.12l0.15,0.15l0.07,0.12l0.05,0.1
		l-0.01,0.09l-0.02,0.1l0.01,0.1l0.07,0.09l0.3,0.27l0.18,0.13l0.17,0.04l0.15-0.1l-0.08-0.18l-0.18-0.22l-0.12-0.2l-0.07-0.16
		l-0.76-1.16L80,34.1l-0.1-0.16l-0.38-0.38l-0.12-0.15l-0.07-0.51l-0.08-0.29l-0.11,0.03l-0.02,0.23l-0.03,0.14h-0.03l0.04,0.11
		l0.06,0.07l0.08,0.07l0.1,0.07l-0.22-0.09l-0.28-0.23l-0.17-0.24l0.14-0.11l-0.22-0.08l-0.23-0.14l-0.2-0.18l-0.12-0.2L78,31.88
		v-0.22l-0.02-0.13l-0.02-0.03l-0.23,0.05l-1.31,0.28l-1.55,0.32l-1.55,0.32l-1.55,0.32l-1.55,0.32l-1.55,0.31l-1.55,0.31
		l-1.55,0.31l-1.56,0.31l-1.55,0.3l-1.55,0.3l-1.56,0.3l-1.55,0.29l-1.55,0.29l-1.56,0.29l-1.55,0.28l-1.56,0.28l-1.56,0.28
		l-1.55,0.28l-1.56,0.27l-1.56,0.27l-1.56,0.27l-1.55,0.27l-1.56,0.27l-1.56,0.27l-1.55,0.27l-1.56,0.26l-1.56,0.25l-1.55,0.26
		l-1.56,0.26l-1.56,0.24l-1.55,0.25l-0.2,0.03l-0.07-0.01l-0.04-0.02l-0.07-0.12l-0.31,0.77l-0.04,0.24l0.02,0.05l0.17,0.24
		l0.02,0.1l-0.07,0.43l-0.15,0.5l-0.02,0.11v0.07l0.02,0.04l0.12,0.17l0.15,0.15l0.03,0.05l0.03,0.05l-0.02,0.04l-0.04,0.02
		l-0.28,0.01l-0.5-0.08l-0.04,0.01l-0.04,0.02l-0.62,0.58l-0.21,0.24l-0.03,0.05l-0.61,1.85l-0.06,0.11l-0.07,0.09l-0.08,0.06
		l-0.13,0.15l-0.07,0.07L25,46.76l-0.06,0.02h-0.07l-0.14-0.02l-0.07-0.02l-0.05-0.02l-0.05-0.02l-0.04-0.04l-0.02-0.04l-0.02-0.05
		l-0.02-0.06l-0.02-0.05l-0.02-0.04l-0.03-0.03l-0.04-0.02l-0.05-0.02h-0.06l-0.12,0.02h-0.07l-0.05-0.02l-0.09-0.05l-0.05-0.01
		l-0.03,0.01l-0.05,0.02l-0.09,0.06l-0.25,0.25l-0.04,0.03l-0.19,0.02l-0.07,0.02l-0.21,0.15l-0.3,0.13l-0.08,0.05l-0.13,0.1
		l-0.14,0.15l-0.26,0.37l-0.07,0.14l-0.07,0.28l-0.02,0.07l-0.13,0.24l-0.06,0.08l-0.05,0.06l-0.03,0.03l-0.03,0.02l-0.37,0.32
		l-0.07,0.05L21,48.98l-0.06,0.01l-0.06-0.01l-0.06-0.02l-0.05-0.02l-0.05-0.04l-0.03-0.03l-0.03-0.04l-0.08-0.14l-0.02-0.06
		l-0.01-0.07l0.01-0.08l0.03-0.15l0.01-0.05l-0.01-0.03l-0.02-0.02l-0.18-0.19L20.35,48l-0.07-0.01l-0.08,0.03l-0.39,0.28
		l-0.21,0.12l-0.56,0.43l-0.01,0.02l-0.02,0.03v0.04l0.02,0.16l-0.01,0.06l-0.02,0.05l-0.09,0.13l-0.02,0.1l-0.01,0.07l-0.04,0.09
		l-0.05,0.04l-0.06,0.02l-0.05-0.01l-0.11-0.07l-0.13-0.07l-0.12-0.03l-0.08-0.01l-0.09,0.02l-0.13,0.05l-0.07,0.05l-0.05,0.05
		l-0.02,0.05l-0.02,0.05l-0.02,0.07v0.07l0.01,0.06l0.02,0.06l0.02,0.05l0.11,0.17l0.01,0.06L18,50.34l-0.08,0.15l-0.02,0.05v0.12
		l-0.01,0.06l-0.03,0.11l-0.18,0.37l-0.18,0.31l-0.07,0.06l-0.05,0.02l-0.14-0.02l-0.38,0.02l-0.11-0.02l-0.05,0.02l-0.04,0.02
		l-0.44,0.32l-0.3,0.14l-0.07,0.04l-0.05,0.04l-0.18,0.26l-0.08,0.07l-0.22,0.12l-0.07,0.04l-0.04,0.05l-0.02,0.05l-0.17,0.22
		l-0.14,0.28l-0.06,0.03l-0.07,0.02l-0.07-0.01l-0.08,0.01l-0.09,0.03l-0.07,0.05l-0.12,0.15l-0.08,0.12l-0.1,0.11l-0.46,0.28
		l-0.07,0.07l-0.05,0.06l-0.07,0.13l-0.17,0.22l-0.06,0.06l-0.05,0.03l-0.57,0.21l-0.07,0.01l-0.07-0.01l-0.05-0.02l-0.05-0.03
		l-0.05-0.03l-0.07-0.01l-0.08,0.01l-0.17,0.08l-0.1,0.02l-0.08,0.02l-0.05-0.01h-0.06l-0.06,0.02l-0.06,0.02l-0.08,0.05l-0.03,0.01
		l-0.03,0.01l-0.33,0.02l-0.06,0.01l-0.17,0.07l-0.17,0.09l-0.2,0.17l-0.12,0.13l-0.08,0.06l-0.07,0.04l-0.28,0.11l-0.14,0.07
		l-0.07,0.06l-0.04,0.05l-0.11,0.32l-0.03,0.06L9.52,56.3l-0.06,0.05l-0.36,0.18l-0.07,0.06l-0.06,0.07L8.8,56.91l-0.02,0.06
		l-0.02,0.04v0.04v0.04l0.07,0.14l0.01,0.05v0.07L8.83,57.4l-0.02,0.06l-0.12,0.25l-0.02,0.07l-0.02,0.11v0.07l0.03,0.36l-0.02,0.1
		l-0.07,0.11l-0.15,0.2l-0.07,0.09l-0.06,0.05l-0.03,0.01L8.04,58.9l-0.48,0.12l-0.13,0.02H7.37l-0.05-0.02L7.27,59l-0.08-0.07
		l-0.06-0.01l-0.07,0.01L6.92,59l-0.07,0.05L6.8,59.1l-0.14,0.18l-0.08,0.15l-0.04,0.11l-0.02,0.05v0.09l0.02,0.38l0.02,0.42
		L6.6,61.1l0.02,0.53l0.03,0.52l0.68-0.11l0.69-0.11l0.69-0.11l0.68-0.11l0.69-0.11l1.37-0.22l0.69-0.11l0.68-0.11l0.69-0.12
		l0.68-0.11l0.69-0.12l0.69-0.12l0.68-0.11l0.68-0.12l0.69-0.12l0.17-0.02l2.52-1.3l0.28-0.11l0.05,0.08l0.04,0.03l0.07,0.02
		l0.04-0.02L20.89,59l0.09-0.08l0.2-0.15l0.08-0.08l0.06-0.08l0.02-0.13l0.02-0.07l0.05-0.06l0.08-0.02l0.1-0.01l0.07-0.03
		l0.07-0.05l0.28-0.2l0.44-0.22l0.06-0.02l0.33-0.06l0.07-0.02l0.04-0.03l0.03-0.05l0.06-0.07l0.06-0.03l0.33-0.05l0.07-0.04
		l0.04-0.05l0.02-0.17l0.03-0.07l0.05-0.07l0.12-0.11l0.07-0.03l0.06-0.01l0.04,0.02l0.02,0.03l0.06,0.06l0.02,0.02l0.03,0.02
		l0.04,0.01l0.67-0.17l0.66-0.07l0.08-0.02l0.25-0.02l0.39-0.04l0.51-0.06l0.62-0.07l0.7-0.07l0.76-0.09l0.82-0.08l0.83-0.1
		l0.83-0.1l0.83-0.09l0.79-0.09l0.74-0.09l0.67-0.07l0.57-0.07l0.47-0.06l0.57-0.07H36l0.07,0.02l0.05,0.03l0.04,0.03l0.03,0.03
		l0.02,0.04l0.02,0.05l0.01,0.06l0.01,0.07l-0.02,0.06l-0.06,0.22l-0.01,0.05v0.04v0.05l0.02,0.04l0.02,0.05l0.04,0.05l0.04,0.04
		l0.07,0.04l0.05-0.01l0.05-0.02l0.66-0.66l0.05-0.04h0.04l0.03,0.01l0.03,0.02l0.42,0.38l0.6,0.57l0.48,0.46l0.05,0.06l0.02,0.07
		l0.17,1.15l0.02,0.07l0.03,0.07l0.06,0.05l0.07,0.01l0.37-0.06l0.1-0.02l0.28-0.04l0.45-0.07l0.58-0.09l0.68-0.11l0.77-0.12
		l0.82-0.13l0.85-0.13l0.85-0.13l0.82-0.12l0.76-0.12l0.69-0.11l0.57-0.09l0.45-0.08l0.29-0.05l0.1-0.02l0.34-0.05h0.28l0.19,0.02
		l0.35,0.24l0.71,0.5l0.71,0.5l0.71,0.49l1.42,1l1.42,0.99l0.72,0.49l0.72,0.5l0.72,0.5l0.71,0.49l0.72,0.49l0.72,0.49l0.72,0.49
		l0.71,0.49l0.72,0.5l0.24-0.13l0.02,0.07l-0.03,0.05l-0.07,0.13l0.75-0.46l0.54-0.27l0.19-0.18l0.03-0.33l0.07-0.01l0.09,0.19
		l0.01,0.09l-0.02,0.09l0.32,0.01l0.71-0.31h0.25l0.13,0.03l0.51-0.12l0.17-0.02l0.87,0.07l0.16-0.02l0.13-0.07l0.06-0.11l0.23-0.59
		l0.09-0.44V63l-0.08-0.37l-0.02-0.19l0.02-0.16l-0.14-0.25l-0.26-0.77l-0.06-0.31l0.06-0.01l0.23,0.45l0.27,0.39l-0.01,0.33
		l0.25,0.85l-0.07,0.35l0.01,0.07l0.05,0.07l0.01,0.1l-0.03,0.22l0.22-0.36l0.05-0.62l-0.07-1.24l0.02-0.2l0.13-0.44l0.04-0.37
		l0.11-0.2l0.23-0.32l0.34-0.86l0.43-0.77l0.99-1.26l0.65-0.56l0.44-0.23l0.13-0.08l0.07-0.07l-0.03-0.03l-0.05-0.02l-0.02-0.07
		l0.08-0.13l-0.1-0.11l-0.18-0.07l-0.17-0.01l-0.08-0.03l-0.12-0.09l-0.11-0.11l-0.05-0.08l0.02-0.1l0.07-0.07l0.08-0.02l0.04,0.04
		l0.08,0.01l0.14-0.07l0.11-0.16l-0.04-0.27l-0.08-0.13l-0.12-0.13l-0.12-0.06l-0.1,0.09l-0.1-0.17l-0.18-0.56l0.12,0.13h0.11
		l0.09-0.04l0.07-0.02l0.13,0.06l0.08,0.08l-0.02,0.07l-0.15,0.03l0.02,0.07l0.17,0.09l0.43,0.37l0.08,0.11l-0.04,0.22l-0.33,0.38
		l-0.1,0.19l0.34,0.01l0.05,0.03h0.04l0.22,0.14l0.16-0.07l0.19-0.2l0.11-0.06l0.22-0.19l0.34-0.72l0.25-0.19l0.02-0.05l-0.12-0.18
		L72.11,54l0.07-0.02l0.07,0.05l0.07,0.07l0.07,0.02l0.09-0.07l0.06-0.14l0.02-0.17l-0.02-0.19l-0.05-0.04l-0.11-0.17l-0.02-0.17
		h0.17l0.01,0.04l0.11,0.24l0.26,0.26l-0.12,0.15l0.02,0.13l0.1,0.05l0.08-0.07l0.07-0.08l1.22-0.66l0.26-0.25l1.78-0.22l-0.08-0.12
		l-0.27-0.27l-0.05,0.07l-0.07,0.06l-0.07,0.05l-0.14,0.03l0.09-0.22l0.16-0.21l0.2-0.17l0.21-0.09l0.15,0.08l0.09,0.24l0.08,0.28
		l0.11,0.21l0.26,0.08L77,52.51l-0.14-0.94l0.07,0.01l0.17,0.16l0.23,0.13l-0.12,0.19l0.07,0.16l0.19,0.1l0.21,0.03l0.2-0.04
		l0.08-0.05l0.07-0.07l0.02-0.1l-0.03-0.07L78,51.96l-0.02-0.06l0.04-0.1l0.06-0.07l0.05-0.05l0.06-0.06l0.22-0.45l0.12-0.16
		l0.04-0.07l0.03-0.12v-0.12l-0.03-0.18l0.02-0.09l0.05-0.01l0.02,0.06l0.07,0.09l0.02,0.06l0.32-0.24l0.07-0.07l0.06-0.2
		l-0.04-0.09l-0.07-0.05l-0.05-0.11l0.02-0.18l0.07-0.03l0.11,0.02l0.15-0.03l0.08-0.08l0.09-0.2l0.07-0.08l-0.02-0.08l-0.24-0.08
		l-0.16-0.18l-0.18-0.15l-0.29-0.02l0.1,0.15l0.21,0.2l0.06,0.16l-0.07,0.05l-0.19,0.05l-0.17,0.12l-0.05,0.21h-0.08l-0.37,0.21
		l-0.14,0.04l-0.06-0.02l-0.06-0.03l-0.03-0.06l-0.02-0.09l0.02-0.12l0.06-0.02l0.07-0.01l0.21-0.17l0.03-0.07l-0.07-0.09
		l-0.21-0.19l-0.01-0.1l0.01-0.18l-0.02-0.11l-0.02-0.03l-0.12-0.12l-0.02-0.05l-0.05-0.01l-0.07,0.17l-0.06,0.22l-0.02,0.17
		l0.02,0.13l0.03,0.15l0.03,0.16l-0.02,0.17l-0.17-0.16l-0.15-0.06l-0.15,0.01l-0.13,0.02l-0.17,0.11l0.05,0.15l0.27,0.26l0.09,0.21
		l-0.16-0.02l-0.23-0.1l-0.18-0.06l-0.02-0.03l-0.07-0.09l-0.1-0.08l-0.1-0.05l-0.1,0.02l-0.09,0.06l-0.15,0.16l-0.12,0.18
		l-0.11,0.21l-0.13,0.18l-0.22,0.14l-0.07,0.12l-0.06,0.03l-0.05-0.02l-0.05-0.04l-0.06-0.07l-0.36-0.16l-0.47-0.05l-0.42,0.02
		l-0.41-0.09l-0.42-0.37l-0.31-0.42l-0.19-0.17l-0.19-0.05l-0.04-0.12l-0.51-0.55l0.36,0.07l0.55,0.52l0.36,0.07l0.14,0.04l0.5,0.37
		l0.29,0.15l0.35,0.12l0.29-0.01l0.39-0.1l0.32-0.2l0.1-0.28l0.16-0.19l0.35-0.32l0.27-0.3l-0.08-0.17l0.26-0.16l0.15-0.25
		l-0.01-0.29l-0.22-0.27l-0.12,0.11l0.02,0.07l0.05,0.02l0.05,0.02l0.05,0.02l-0.13,0.11l-0.11-0.01l-0.1-0.06l-0.12-0.03
		l-0.38,0.06l-0.13-0.02l0.08-0.13l0.12-0.1l0.14-0.07l0.13-0.04l0.06-0.05l0.07-0.1l0.09-0.1l0.14-0.06l0.28,0.05l0.12-0.01
		l0.03-0.1l-0.07-0.09l-0.12-0.05l-0.23-0.05l-0.02-0.07h0.47l0.2-0.04l0.06-0.16v-0.12l0.05-0.21l-0.03-0.08l-0.17-0.12l-0.08-0.09
		l-0.05-0.11l-0.22,0.03l-0.87-0.1l-0.77-0.02l-0.63-0.21l-0.56-0.02l-0.16-0.06l-0.32-0.16l-0.42-0.14l-0.39-0.02l-0.24,0.22
		l-0.15-0.32l-0.12-0.12l-0.19-0.02l-0.11-0.03l-0.12-0.12l-0.22-0.3l0.4,0.22l0.21,0.07l0.42,0.02l0.48,0.16l0.27,0.02l0.47-0.04
		l0.19,0.06l0.23,0.14l0.22,0.06l0.46-0.23l0.27,0.01l0.02-0.07l0.05-0.05l0.06-0.04l0.08-0.03l0.02,0.25l0.22,0.12h0.28l0.17-0.13
		l-0.05-0.07l-0.07-0.05l-0.07-0.03l-0.1-0.02l0.02-0.05l0.01-0.04l0.02-0.04l0.05-0.04l-0.02-0.07l-0.07-0.02l-0.07-0.04
		l-0.17-0.12l0.02-0.07l0.04-0.25l-0.08-0.09l-0.09-0.08l-0.12-0.05l-0.14-0.01l0.32-0.32l0.17-0.12l0.24-0.03l0.44,0.02l0.2-0.03
		l0.23-0.09l-0.07,0.32l-0.13,0.11l-0.46,0.02l-0.22,0.1l-0.01,0.13l0.12,0.12l0.2,0.09l0.02,0.07l-0.11,0.14l0.15,0.09l0.41,0.07
		l-0.02,0.07l-0.02,0.05l-0.04,0.03l-0.07,0.03l0.15,0.16l0.14,0.08l0.36,0.09l-0.05-0.07l-0.05-0.06l-0.07-0.03l-0.07-0.02
		l0.04-0.12l0.08-0.07l0.11-0.01l0.12,0.04l0.12-0.42l-0.12-0.19l0.07-0.1l0.16,0.02l0.12,0.18l0.08,0.35l0.07,0.18l0.1,0.07
		l0.02,0.08l-0.37,0.08l0.07,0.11l0.06,0.01l0.07-0.02l0.08,0.01l0.15,0.07l0.08,0.1l0.12-0.1l0.01-0.17l-0.06-0.15l-0.08-0.05
		l-0.02-0.08l-0.02-0.15l0.05-0.11l0.22,0.06l0.1,0.1l0.18,0.26l0.32,0.12h0.11l0.02-0.12l0.01-0.12l0.05-0.05h0.07l0.14,0.18
		l0.17,0.02l0.62-0.12l0.06-0.07l0.07-0.18l0.09-0.1l0.32-0.18l0.13-0.04l-0.02-0.07l-0.13-0.14l-0.01-0.26l0.1-0.18l0.19,0.07
		l-0.05,0.09l0.11,0.05l0.05-0.02l0.02-0.09l-0.02-0.16l0.02-0.1l0.07-0.09l0.02-0.11l-0.1-0.14l0.21-0.12l0.05-0.05l0.03-0.09
		L81,42.83l-0.04-0.05l-0.02-0.06l-0.04-0.07v-0.07l0.16-0.07l0.04-0.03l0.39-0.64v-0.11l-0.05-0.18l-0.03-0.19l0.04-0.18
		L81.58,41.41z"/>
	<path id="NC_2_" class="st1" d="M66.69,64.28l-0.11-0.08l-0.14,0.02l-0.12,0.11l-0.03,0.19l0.07,0.11l0.15,0.04l0.16,0.02
		l0.12,0.05l0.05-0.12l0.05-0.7l-0.14,0.29L66.69,64.28z M67.23,61l-0.06,0.29l-0.01,0.33l-0.03,0.29l0.1-0.16l0.08-0.28l0.07-0.55
		l0.02-0.02h0.02l0.02-0.02l-0.02-0.06L67.23,61z M70.69,56.22l-0.32,0.28l-0.16,0.08l-0.15,0.08l-1.01,1.01l-0.26,0.4l-0.1,0.39
		l0.12-0.19l0.76-1.03l0.12-0.07l0.28-0.14l0.66-0.55l0.19-0.25l0.02-0.02l0.03-0.01l0.01-0.02l-0.02-0.05L70.69,56.22z
		 M77.77,53.12l-0.11-0.06l-0.67-0.09l-0.18,0.04l0.02,0.08l0.12,0.04l0.49,0.07l0.39,0.18l0.04,0.03l0.12-0.09l-0.07-0.11
		L77.77,53.12z M76.03,52.88l-1.44,0.52l-1.36,0.56L73,54.12l-0.12,0.2l2.34-1.1l0.22-0.07l1.11-0.16l-0.02-0.07L76.03,52.88z
		 M80.03,49.57l-0.12,0.13l-0.04,0.11l-0.04,0.08l-0.32,0.34l-0.72,1.17l-0.69,1.94l-0.06,0.35l0.12,0.2l0.03-0.32l0.72-2.12
		l0.38-0.67l0.14-0.15l0.17-0.15l0.35-0.58l0.21-0.21l0.12-0.34l-0.11,0.07L80.03,49.57z M81.14,47.69l-0.04,0.04l-0.01,0.11
		l-0.05,0.09l-0.06,0.07l-0.02,0.07l-0.02,0.17l-0.21,0.35l-0.07,0.14l0.06-0.01l0.09-0.24l0.57-0.62l0.03-0.02l0.02-0.02l0.02-0.02
		l0.02-0.04l-0.22-0.07L81.14,47.69z M82.61,46.42l-0.41,0.43l-0.23,0.16l-0.22-0.02l-0.02,0.31l-0.03,0.14l-0.08,0.13l0.84-0.88
		l0.75-0.47l0.13-0.21l0.12-0.11l0.04-0.07l0.03-0.09l-0.22,0.21L82.61,46.42z M85.48,41.8l-0.02-0.88l-0.13-0.44l-0.29-0.52
		l-0.07-0.22l-0.07-0.23l-0.13-0.27l-0.17-0.23l-0.19-0.11l-0.07,0.08l0.1,0.19l0.23,0.33l0.07,0.21l0.41,0.75l0.16,0.44l0.07,0.26
		v0.12l-0.07,0.27l-0.01,0.13l0.03,0.13l0.09,0.2l0.03,0.12l0.04,0.25v0.41l0.05,0.42l0.02,0.56l-0.02,0.15l0.07,0.33l-0.19,0.25
		l-0.57,0.36l-0.5,0.42l-0.03,0.02l-0.02-0.02l-0.02-0.03l-0.03-0.02l-0.04,0.03l-0.01,0.05l0.01,0.06l-0.01,0.03l-0.03,0.06
		l-0.01,0.06l-0.03,0.04l-0.08,0.03l-0.07,0.07l-0.07,0.09v0.07l0.09,0.01l0.07-0.03l0.09-0.12l0.05-0.04l0.13-0.07l0.31-0.23
		l0.18-0.07l0.3-0.23l0.28-0.05l0.09-0.03l0.13-0.15l0.05-0.2l0.03-0.88L85.48,41.8z M82.94,37.85l-0.15-0.16l-0.03-0.09l-0.07-0.04
		l-0.07-0.03l-0.14-0.02l-0.07-0.02l-0.08-0.02l-0.08,0.01l-0.07,0.03l-0.06,0.08l0.03,0.05l0.07,0.03l0.07,0.05l0.1,0.11l0.32,0.22
		l0.11,0.16l0.09,0.2l0.1,0.16l0.15,0.05l0.17-0.05l0.02-0.06L83.3,38.4l0.04-0.22L82.94,37.85z M83.92,38.59l0.04,0.07l0.07,0.02
		l0.18,0.03l0.08,0.03l-0.42-0.59l-0.19-0.43l-1.9-2.25l-0.63-1.04l-0.38-0.48l-0.07-0.17l-0.07-0.26l-0.09-0.22l-0.23-0.41
		l-0.76-1.71l-0.01-0.01l-0.12,0.02l-0.12,0.02l0.01,0.02l0.01,0.06l0.2,0.36l0.15,0.36l0.18,0.23l0.07,0.18l0.18,0.24l0.06,0.13
		l0.22,0.7l0.12,0.29h-0.02l-0.02,0.02l-0.01,0.04l0.04,0.05l0.15,0.11l0.37,0.43l0.17,0.34l0.2,0.29l0.17,0.31l0.02,0.28l0.02,0.07
		l0.11,0.17l0.09,0.18l0.1,0.17l0.16,0.08l0.08-0.1l0.1,0.04l0.1,0.13l0.08,0.17l-0.2,0.11h-0.07l-0.1-0.1v0.2l0.12,0.11l0.15,0.02
		l0.1-0.1l0.06-0.01l0.79,0.69l0.2,0.26l0.11,0.38l0.09,0.18l0.22,0.08l0.03,0.08L83.92,38.59z M78.48,31.65l0.05,0.15l0.07,0.15
		l0.2,0.02l0.37-0.07l0.08-0.05l-0.02-0.07l-0.06-0.09l-0.05-0.1l-0.07-0.29v-0.01l-0.16,0.03l-0.14,0.03l-0.05,0.07l-0.11,0.03
		l-0.06-0.07l-0.41,0.08l0.07,0.08L78.48,31.65z M81.58,41.41l0.15,0.18l0.17,0.06l0.2-0.14l0.02,0.03l0.02,0.02l0.02,0.03
		l0.02,0.04l-0.06,0.03l-0.11,0.08l0.02,0.07l0.27-0.07l0.12-0.05l0.08-0.08l0.01-0.07l-0.04-0.1l-0.01-0.09l0.07-0.05l0.07-0.03
		l0.04-0.05l0.03-0.06l0.07-0.26l-0.03-0.11l-0.27-0.27l-0.13-0.17l-0.02-0.08l0.21-0.07l0.22-0.04l0.02-0.08l-0.06-0.23l-0.07-0.14
		l-0.17-0.17l-0.05-0.1l0.01-0.17l0.04-0.17l0.03-0.17l-0.04-0.2l-0.06-0.07l-0.2-0.19l-0.03-0.14l-0.57-0.59l-0.32-0.25l-0.35-0.14
		l0.02,0.11l-0.01,0.1l-0.02,0.1l-0.03,0.1l0.11-0.02h0.1l0.1,0.03l0.1,0.06l-0.16,0.12l-0.2,0.01l-0.21-0.04l-0.19-0.01l0.07,0.13
		l0.12,0.12l0.12,0.09l0.2,0.04l0.04,0.07v0.07l-0.07,0.05h-0.06l-0.24-0.07l-0.23-0.21l-0.16-0.11l-0.05,0.05l-0.05,0.1l-0.25,0.27
		l-0.05,0.11l0.3,1.35l0.03,0.37l-0.13,0.93l-0.06,0.02l-0.06-0.07l-0.04-0.06l-0.02-0.04v-0.03l-0.24,0.11l-0.23,0.07l-0.23-0.04
		l-0.22-0.24l0.21-0.05l0.32,0.04h0.28l0.12-0.2l-0.06-0.02l-0.12-0.11l-0.07-0.12l0.08-0.08l0.03-0.07l-0.07-0.12l-0.12-0.12
		l-0.09-0.05l0.07-0.01l-0.13,0.02h-0.16l-0.15-0.03l-0.12-0.05l-0.09-0.1l0.11-0.02l0.26,0.03l0.24-0.13l-0.02-0.29l-0.17-0.28
		l-0.23-0.13l-0.02-0.07l0.18-0.08l0.12-0.2l0.07-0.26l0.02-0.25L79.4,38.3l-0.28,0.18l-0.01-0.39l0.07-0.13l0.22,0.07l-0.02-0.18
		l-0.21-0.12l-0.27-0.07l-0.22-0.01l-0.83,0.25l-0.74,0.4l-0.17,0.21l0.11,0.1l0.21,0.07l0.14,0.12l-0.23,0.03l-0.41-0.09l-0.2,0.01
		l-0.09,0.06l-0.06,0.09l-0.06,0.04l-0.07-0.06l-0.02-0.06v-0.1l-0.01-0.12l-0.06-0.1l-0.32-0.02l-0.45,0.2l-0.43,0.29l-0.24,0.24
		l-0.07,0.02l-0.25-0.02l-1.23,0.26l-0.02-0.07l0.22-0.51l0.02-0.17l-0.13,0.01l-0.05-0.08l-0.02-0.13l-0.05-0.12l-0.09-0.07
		l-0.09-0.06l-0.09-0.08l-0.12-0.3l-0.18-0.22l-0.05-0.12l-0.15-0.72l-0.01-0.23l0.04-0.22l0.1-0.23l0.12-0.17l0.03-0.1l-0.01-0.15
		L72.6,35.6l-0.2-0.15l-0.08-0.12l0.22,0.03l0.19,0.07l0.12,0.18l-0.02,0.32l-0.04,0.12l-0.1,0.18l-0.02,0.12l-0.02,0.52l0.12,0.27
		l0.31,0.45l0.26,0.57l0.22,0.16l0.21-0.05l0.09-0.28l0.11,0.07l0.33,0.35l0.12,0.02l0.17-0.02l0.3-0.08l0.21-0.11l0.26-0.19
		l0.24-0.25l0.14-0.26l-0.09,0.02l-0.02,0.01l-0.02-0.08l0.13-0.11l0.86-0.34l-0.02-0.08h-0.18l-0.27-0.06l-0.26-0.09l-0.12-0.09
		l-0.07-0.08l-0.36-0.11l-0.08-0.07l-0.09-0.09l-0.17-0.23l0.18,0.08l0.19,0.11l0.17,0.06l0.13-0.07l0.2,0.2l0.28,0.11l1.02,0.21
		h0.23l0.21-0.09l-0.01-0.07l-0.2-0.11l-0.41-0.37l-0.12-0.07l-0.09-0.02l-0.1-0.05l-0.09-0.08l-0.06-0.09l-0.04-0.15h0.06
		l0.17,0.11l0.3,0.14l0.08,0.02l0.07,0.05l0.2,0.22l0.32,0.11l0.1,0.02l0.09-0.01l0.27-0.07l-0.02-0.07l-0.06,0.02l-0.02-0.08
		l0.32-0.1l0.09-0.06l0.17-0.17l0.04-0.09l-0.11-0.01l-0.12-0.03l-0.14-0.24l-0.24-0.07l-0.12-0.11l-0.19-0.23l-0.16-0.1l-0.21-0.11
		l-0.22-0.07l-0.21-0.01l-0.04-0.05l0.02-0.14l0.05-0.15l0.07-0.07l0.12,0.01l0.02,0.07l-0.04,0.09l-0.07,0.06l0.5,0.03l0.16,0.05
		l0.22,0.12l0.19,0.15l0.08,0.04l0.18,0.01l0.08,0.04l0.28,0.28l0.19,0.12l0.2,0.02l0.19-0.02l0.66,0.06l-0.02-0.08l-0.14-0.02
		l-0.15-0.06l-0.27-0.18l0.1-0.1l-0.05-0.17l-0.11-0.19l-0.17-0.39l-0.1-0.08l-0.12-0.05L78.84,34l0.17-0.02l0.15,0.05l0.28,0.16
		l-0.07,0.22l0.07,0.08l0.14,0.03l0.15,0.06l0.04,0.07l0.04,0.16l0.03,0.07l0.07,0.04l0.23,0.12l0.15,0.15l0.07,0.12l0.05,0.1
		l-0.01,0.09l-0.02,0.1l0.01,0.1l0.07,0.09l0.3,0.27l0.18,0.13l0.17,0.04l0.15-0.1l-0.08-0.18l-0.18-0.22l-0.12-0.2l-0.07-0.16
		l-0.76-1.16L80,34.1l-0.1-0.16l-0.38-0.38l-0.12-0.15l-0.07-0.51l-0.08-0.29l-0.11,0.03l-0.02,0.23l-0.03,0.14h-0.03l0.04,0.11
		l0.06,0.07l0.08,0.07l0.1,0.07l-0.22-0.09l-0.28-0.23l-0.17-0.24l0.14-0.11l-0.22-0.08l-0.23-0.14l-0.2-0.18l-0.12-0.2L78,31.88
		v-0.22l-0.02-0.13l-0.02-0.03l-0.23,0.05l-1.31,0.28l-1.55,0.32l-1.55,0.32l-1.55,0.32l-1.55,0.32l-1.55,0.31l-1.55,0.31
		l-1.55,0.31l-1.56,0.31l-1.55,0.3l-1.55,0.3l-1.56,0.3l-1.55,0.29l-1.55,0.29l-1.56,0.29l-1.55,0.28l-1.56,0.28l-1.56,0.28
		l-1.55,0.28l-1.56,0.27l-1.56,0.27l-1.56,0.27l-1.55,0.27l-1.56,0.27l-1.56,0.27l-1.55,0.27l-1.56,0.26l-1.56,0.25l-1.55,0.26
		l-1.56,0.26l-1.56,0.24l-1.55,0.25l-0.2,0.03l-0.07-0.01l-0.04-0.02l-0.07-0.12l-0.31,0.77l-0.04,0.24l0.02,0.05l0.17,0.24
		l0.02,0.1l-0.07,0.43l-0.15,0.5l-0.02,0.11v0.07l0.02,0.04l0.12,0.17l0.15,0.15l0.03,0.05l0.03,0.05l-0.02,0.04l-0.04,0.02
		l-0.28,0.01l-0.5-0.08l-0.04,0.01l-0.04,0.02l-0.62,0.58l-0.21,0.24l-0.03,0.05l-0.61,1.85l-0.06,0.11l-0.07,0.09l-0.08,0.06
		l-0.13,0.15l-0.07,0.07L25,46.76l-0.06,0.02h-0.07l-0.14-0.02l-0.07-0.02l-0.05-0.02l-0.05-0.02l-0.04-0.04l-0.02-0.04l-0.02-0.05
		l-0.02-0.06l-0.02-0.05l-0.02-0.04l-0.03-0.03l-0.04-0.02l-0.05-0.02h-0.06l-0.12,0.02h-0.07l-0.05-0.02l-0.09-0.05l-0.05-0.01
		l-0.03,0.01l-0.05,0.02l-0.09,0.06l-0.25,0.25l-0.04,0.03l-0.19,0.02l-0.07,0.02l-0.21,0.15l-0.3,0.13l-0.08,0.05l-0.13,0.1
		l-0.14,0.15l-0.26,0.37l-0.07,0.14l-0.07,0.28l-0.02,0.07l-0.13,0.24l-0.06,0.08l-0.05,0.06l-0.03,0.03l-0.03,0.02l-0.37,0.32
		l-0.07,0.05L21,48.98l-0.06,0.01l-0.06-0.01l-0.06-0.02l-0.05-0.02l-0.05-0.04l-0.03-0.03l-0.03-0.04l-0.08-0.14l-0.02-0.06
		l-0.01-0.07l0.01-0.08l0.03-0.15l0.01-0.05l-0.01-0.03l-0.02-0.02l-0.18-0.19L20.35,48l-0.07-0.01l-0.08,0.03l-0.39,0.28
		l-0.21,0.12l-0.56,0.43l-0.01,0.02l-0.02,0.03v0.04l0.02,0.16l-0.01,0.06l-0.02,0.05l-0.09,0.13l-0.02,0.1l-0.01,0.07l-0.04,0.09
		l-0.05,0.04l-0.06,0.02l-0.05-0.01l-0.11-0.07l-0.13-0.07l-0.12-0.03l-0.08-0.01l-0.09,0.02l-0.13,0.05l-0.07,0.05l-0.05,0.05
		l-0.02,0.05l-0.02,0.05l-0.02,0.07v0.07l0.01,0.06l0.02,0.06l0.02,0.05l0.11,0.17l0.01,0.06L18,50.34l-0.08,0.15l-0.02,0.05v0.12
		l-0.01,0.06l-0.03,0.11l-0.18,0.37l-0.18,0.31l-0.07,0.06l-0.05,0.02l-0.14-0.02l-0.38,0.02l-0.11-0.02l-0.05,0.02l-0.04,0.02
		l-0.44,0.32l-0.3,0.14l-0.07,0.04l-0.05,0.04l-0.18,0.26l-0.08,0.07l-0.22,0.12l-0.07,0.04l-0.04,0.05l-0.02,0.05l-0.17,0.22
		l-0.14,0.28l-0.06,0.03l-0.07,0.02l-0.07-0.01l-0.08,0.01l-0.09,0.03l-0.07,0.05l-0.12,0.15l-0.08,0.12l-0.1,0.11l-0.46,0.28
		l-0.07,0.07l-0.05,0.06l-0.07,0.13l-0.17,0.22l-0.06,0.06l-0.05,0.03l-0.57,0.21l-0.07,0.01l-0.07-0.01l-0.05-0.02l-0.05-0.03
		l-0.05-0.03l-0.07-0.01l-0.08,0.01l-0.17,0.08l-0.1,0.02l-0.08,0.02l-0.05-0.01h-0.06l-0.06,0.02l-0.06,0.02l-0.08,0.05l-0.03,0.01
		l-0.03,0.01l-0.33,0.02l-0.06,0.01l-0.17,0.07l-0.17,0.09l-0.2,0.17l-0.12,0.13l-0.08,0.06l-0.07,0.04l-0.28,0.11l-0.14,0.07
		l-0.07,0.06l-0.04,0.05l-0.11,0.32l-0.03,0.06L9.52,56.3l-0.06,0.05l-0.36,0.18l-0.07,0.06l-0.06,0.07L8.8,56.91l-0.02,0.06
		l-0.02,0.04v0.04v0.04l0.07,0.14l0.01,0.05v0.07L8.83,57.4l-0.02,0.06l-0.12,0.25l-0.02,0.07l-0.02,0.11v0.07l0.03,0.36l-0.02,0.1
		l-0.07,0.11l-0.15,0.2l-0.07,0.09l-0.06,0.05l-0.03,0.01L8.04,58.9l-0.48,0.12l-0.13,0.02H7.37l-0.05-0.02L7.27,59l-0.08-0.07
		l-0.06-0.01l-0.07,0.01L6.92,59l-0.07,0.05L6.8,59.1l-0.14,0.18l-0.08,0.15l-0.04,0.11l-0.02,0.05v0.09l0.02,0.38l0.02,0.42
		L6.6,61.1l0.02,0.53l0.03,0.52l0.68-0.11l0.69-0.11l0.69-0.11l0.68-0.11l0.69-0.11l1.37-0.22l0.69-0.11l0.68-0.11l0.69-0.12
		l0.68-0.11l0.69-0.12l0.69-0.12l0.68-0.11l0.68-0.12l0.69-0.12l0.17-0.02l2.52-1.3l0.28-0.11l0.05,0.08l0.04,0.03l0.07,0.02
		l0.04-0.02L20.89,59l0.09-0.08l0.2-0.15l0.08-0.08l0.06-0.08l0.02-0.13l0.02-0.07l0.05-0.06l0.08-0.02l0.1-0.01l0.07-0.03
		l0.07-0.05l0.28-0.2l0.44-0.22l0.06-0.02l0.33-0.06l0.07-0.02l0.04-0.03l0.03-0.05l0.06-0.07l0.06-0.03l0.33-0.05l0.07-0.04
		l0.04-0.05l0.02-0.17l0.03-0.07l0.05-0.07l0.12-0.11l0.07-0.03l0.06-0.01l0.04,0.02l0.02,0.03l0.06,0.06l0.02,0.02l0.03,0.02
		l0.04,0.01l0.67-0.17l0.66-0.07l0.08-0.02l0.25-0.02l0.39-0.04l0.51-0.06l0.62-0.07l0.7-0.07l0.76-0.09l0.82-0.08l0.83-0.1
		l0.83-0.1l0.83-0.09l0.79-0.09l0.74-0.09l0.67-0.07l0.57-0.07l0.47-0.06l0.57-0.07H36l0.07,0.02l0.05,0.03l0.04,0.03l0.03,0.03
		l0.02,0.04l0.02,0.05l0.01,0.06l0.01,0.07l-0.02,0.06l-0.06,0.22l-0.01,0.05v0.04v0.05l0.02,0.04l0.02,0.05l0.04,0.05l0.04,0.04
		l0.07,0.04l0.05-0.01l0.05-0.02l0.66-0.66l0.05-0.04h0.04l0.03,0.01l0.03,0.02l0.42,0.38l0.6,0.57l0.48,0.46l0.05,0.06l0.02,0.07
		l0.17,1.15l0.02,0.07l0.03,0.07l0.06,0.05l0.07,0.01l0.37-0.06l0.1-0.02l0.28-0.04l0.45-0.07l0.58-0.09l0.68-0.11l0.77-0.12
		l0.82-0.13l0.85-0.13l0.85-0.13l0.82-0.12l0.76-0.12l0.69-0.11l0.57-0.09l0.45-0.08l0.29-0.05l0.1-0.02l0.34-0.05h0.28l0.19,0.02
		l0.35,0.24l0.71,0.5l0.71,0.5l0.71,0.49l1.42,1l1.42,0.99l0.72,0.49l0.72,0.5l0.72,0.5l0.71,0.49l0.72,0.49l0.72,0.49l0.72,0.49
		l0.71,0.49l0.72,0.5l0.24-0.13l0.02,0.07l-0.03,0.05l-0.07,0.13l0.75-0.46l0.54-0.27l0.19-0.18l0.03-0.33l0.07-0.01l0.09,0.19
		l0.01,0.09l-0.02,0.09l0.32,0.01l0.71-0.31h0.25l0.13,0.03l0.51-0.12l0.17-0.02l0.87,0.07l0.16-0.02l0.13-0.07l0.06-0.11l0.23-0.59
		l0.09-0.44V63l-0.08-0.37l-0.02-0.19l0.02-0.16l-0.14-0.25l-0.26-0.77l-0.06-0.31l0.06-0.01l0.23,0.45l0.27,0.39l-0.01,0.33
		l0.25,0.85l-0.07,0.35l0.01,0.07l0.05,0.07l0.01,0.1l-0.03,0.22l0.22-0.36l0.05-0.62l-0.07-1.24l0.02-0.2l0.13-0.44l0.04-0.37
		l0.11-0.2l0.23-0.32l0.34-0.86l0.43-0.77l0.99-1.26l0.65-0.56l0.44-0.23l0.13-0.08l0.07-0.07l-0.03-0.03l-0.05-0.02l-0.02-0.07
		l0.08-0.13l-0.1-0.11l-0.18-0.07l-0.17-0.01l-0.08-0.03l-0.12-0.09l-0.11-0.11l-0.05-0.08l0.02-0.1l0.07-0.07l0.08-0.02l0.04,0.04
		l0.08,0.01l0.14-0.07l0.11-0.16l-0.04-0.27l-0.08-0.13l-0.12-0.13l-0.12-0.06l-0.1,0.09l-0.1-0.17l-0.18-0.56l0.12,0.13h0.11
		l0.09-0.04l0.07-0.02l0.13,0.06l0.08,0.08l-0.02,0.07l-0.15,0.03l0.02,0.07l0.17,0.09l0.43,0.37l0.08,0.11l-0.04,0.22l-0.33,0.38
		l-0.1,0.19l0.34,0.01l0.05,0.03h0.04l0.22,0.14l0.16-0.07l0.19-0.2l0.11-0.06l0.22-0.19l0.34-0.72l0.25-0.19l0.02-0.05l-0.12-0.18
		L72.11,54l0.07-0.02l0.07,0.05l0.07,0.07l0.07,0.02l0.09-0.07l0.06-0.14l0.02-0.17l-0.02-0.19l-0.05-0.04l-0.11-0.17l-0.02-0.17
		h0.17l0.01,0.04l0.11,0.24l0.26,0.26l-0.12,0.15l0.02,0.13l0.1,0.05l0.08-0.07l0.07-0.08l1.22-0.66l0.26-0.25l1.78-0.22l-0.08-0.12
		l-0.27-0.27l-0.05,0.07l-0.07,0.06l-0.07,0.05l-0.14,0.03l0.09-0.22l0.16-0.21l0.2-0.17l0.21-0.09l0.15,0.08l0.09,0.24l0.08,0.28
		l0.11,0.21l0.26,0.08L77,52.51l-0.14-0.94l0.07,0.01l0.17,0.16l0.23,0.13l-0.12,0.19l0.07,0.16l0.19,0.1l0.21,0.03l0.2-0.04
		l0.08-0.05l0.07-0.07l0.02-0.1l-0.03-0.07L78,51.96l-0.02-0.06l0.04-0.1l0.06-0.07l0.05-0.05l0.06-0.06l0.22-0.45l0.12-0.16
		l0.04-0.07l0.03-0.12v-0.12l-0.03-0.18l0.02-0.09l0.05-0.01l0.02,0.06l0.07,0.09l0.02,0.06l0.32-0.24l0.07-0.07l0.06-0.2
		l-0.04-0.09l-0.07-0.05l-0.05-0.11l0.02-0.18l0.07-0.03l0.11,0.02l0.15-0.03l0.08-0.08l0.09-0.2l0.07-0.08l-0.02-0.08l-0.24-0.08
		l-0.16-0.18l-0.18-0.15l-0.29-0.02l0.1,0.15l0.21,0.2l0.06,0.16l-0.07,0.05l-0.19,0.05l-0.17,0.12l-0.05,0.21h-0.08l-0.37,0.21
		l-0.14,0.04l-0.06-0.02l-0.06-0.03l-0.03-0.06l-0.02-0.09l0.02-0.12l0.06-0.02l0.07-0.01l0.21-0.17l0.03-0.07l-0.07-0.09
		l-0.21-0.19l-0.01-0.1l0.01-0.18l-0.02-0.11l-0.02-0.03l-0.12-0.12l-0.02-0.05l-0.05-0.01l-0.07,0.17l-0.06,0.22l-0.02,0.17
		l0.02,0.13l0.03,0.15l0.03,0.16l-0.02,0.17l-0.17-0.16l-0.15-0.06l-0.15,0.01l-0.13,0.02l-0.17,0.11l0.05,0.15l0.27,0.26l0.09,0.21
		l-0.16-0.02l-0.23-0.1l-0.18-0.06l-0.02-0.03l-0.07-0.09l-0.1-0.08l-0.1-0.05l-0.1,0.02l-0.09,0.06l-0.15,0.16l-0.12,0.18
		l-0.11,0.21l-0.13,0.18l-0.22,0.14l-0.07,0.12l-0.06,0.03l-0.05-0.02l-0.05-0.04l-0.06-0.07l-0.36-0.16l-0.47-0.05l-0.42,0.02
		l-0.41-0.09l-0.42-0.37l-0.31-0.42l-0.19-0.17l-0.19-0.05l-0.04-0.12l-0.51-0.55l0.36,0.07l0.55,0.52l0.36,0.07l0.14,0.04l0.5,0.37
		l0.29,0.15l0.35,0.12l0.29-0.01l0.39-0.1l0.32-0.2l0.1-0.28l0.16-0.19l0.35-0.32l0.27-0.3l-0.08-0.17l0.26-0.16l0.15-0.25
		l-0.01-0.29l-0.22-0.27l-0.12,0.11l0.02,0.07l0.05,0.02l0.05,0.02l0.05,0.02l-0.13,0.11l-0.11-0.01l-0.1-0.06l-0.12-0.03
		l-0.38,0.06l-0.13-0.02l0.08-0.13l0.12-0.1l0.14-0.07l0.13-0.04l0.06-0.05l0.07-0.1l0.09-0.1l0.14-0.06l0.28,0.05l0.12-0.01
		l0.03-0.1l-0.07-0.09l-0.12-0.05l-0.23-0.05l-0.02-0.07h0.47l0.2-0.04l0.06-0.16v-0.12l0.05-0.21l-0.03-0.08l-0.17-0.12l-0.08-0.09
		l-0.05-0.11l-0.22,0.03l-0.87-0.1l-0.77-0.02l-0.63-0.21l-0.56-0.02l-0.16-0.06l-0.32-0.16l-0.42-0.14l-0.39-0.02l-0.24,0.22
		l-0.15-0.32l-0.12-0.12l-0.19-0.02l-0.11-0.03l-0.12-0.12l-0.22-0.3l0.4,0.22l0.21,0.07l0.42,0.02l0.48,0.16l0.27,0.02l0.47-0.04
		l0.19,0.06l0.23,0.14l0.22,0.06l0.46-0.23l0.27,0.01l0.02-0.07l0.05-0.05l0.06-0.04l0.08-0.03l0.02,0.25l0.22,0.12h0.28l0.17-0.13
		l-0.05-0.07l-0.07-0.05l-0.07-0.03l-0.1-0.02l0.02-0.05l0.01-0.04l0.02-0.04l0.05-0.04l-0.02-0.07l-0.07-0.02l-0.07-0.04
		l-0.17-0.12l0.02-0.07l0.04-0.25l-0.08-0.09l-0.09-0.08l-0.12-0.05l-0.14-0.01l0.32-0.32l0.17-0.12l0.24-0.03l0.44,0.02l0.2-0.03
		l0.23-0.09l-0.07,0.32l-0.13,0.11l-0.46,0.02l-0.22,0.1l-0.01,0.13l0.12,0.12l0.2,0.09l0.02,0.07l-0.11,0.14l0.15,0.09l0.41,0.07
		l-0.02,0.07l-0.02,0.05l-0.04,0.03l-0.07,0.03l0.15,0.16l0.14,0.08l0.36,0.09l-0.05-0.07l-0.05-0.06l-0.07-0.03l-0.07-0.02
		l0.04-0.12l0.08-0.07l0.11-0.01l0.12,0.04l0.12-0.42l-0.12-0.19l0.07-0.1l0.16,0.02l0.12,0.18l0.08,0.35l0.07,0.18l0.1,0.07
		l0.02,0.08l-0.37,0.08l0.07,0.11l0.06,0.01l0.07-0.02l0.08,0.01l0.15,0.07l0.08,0.1l0.12-0.1l0.01-0.17l-0.06-0.15l-0.08-0.05
		l-0.02-0.08l-0.02-0.15l0.05-0.11l0.22,0.06l0.1,0.1l0.18,0.26l0.32,0.12h0.11l0.02-0.12l0.01-0.12l0.05-0.05h0.07l0.14,0.18
		l0.17,0.02l0.62-0.12l0.06-0.07l0.07-0.18l0.09-0.1l0.32-0.18l0.13-0.04l-0.02-0.07l-0.13-0.14l-0.01-0.26l0.1-0.18l0.19,0.07
		l-0.05,0.09l0.11,0.05l0.05-0.02l0.02-0.09l-0.02-0.16l0.02-0.1l0.07-0.09l0.02-0.11l-0.1-0.14l0.21-0.12l0.05-0.05l0.03-0.09
		L81,42.83l-0.04-0.05l-0.02-0.06l-0.04-0.07v-0.07l0.16-0.07l0.04-0.03l0.39-0.64v-0.11l-0.05-0.18l-0.03-0.19l0.04-0.18
		L81.58,41.41z"/>
</g>
<g id="NORTH_DAKOTA">
</g>
<g id="NEBRASKA">
</g>
<g id="NEW_HAMPSHIRE">
</g>
<g id="NEW_JERSEY">
</g>
<g id="NEW_YORK">
</g>
<g id="NEW_MEXICO">
</g>
<g id="NEVADA">
</g>
<g id="OHIO">
</g>
<g id="OKLAHOMA">
</g>
<g id="OREGON">
</g>
<g id="PENNSYLVANIA">
</g>
<g id="RHODE_ISLAND">
</g>
<g id="SOUTH_CAROLINA">
</g>
<g id="SOUTH_DAKOTA">
</g>
<g id="TENNESSEE">
</g>
<g id="TEXAS">
</g>
<g id="UTAH">
</g>
<g id="VIRGINIA">
</g>
<g id="VERMONT">
</g>
<g id="WASHINGTON">
</g>
<g id="WISCONSIN">
</g>
<g id="WEST_VIRGINIA">
</g>
<g id="WYOMING">
</g>
</svg>
