<?xml version="1.0" encoding="utf-8"?>
<!-- Generator: Adobe Illustrator 26.5.0, SVG Export Plug-In . SVG Version: 6.00 Build 0)  -->
<svg version="1.1" xmlns="http://www.w3.org/2000/svg" xmlns:xlink="http://www.w3.org/1999/xlink" x="0px" y="0px"
	 viewBox="0 0 90 90" style="enable-background:new 0 0 90 90;" xml:space="preserve">
<style type="text/css">
	.st0{fill:#CECECE;stroke:#F9F9F9;stroke-width:0.025;stroke-linecap:round;stroke-linejoin:round;}
	.st1{display:none;fill:none;stroke:#47CCCC;stroke-width:0.5;stroke-linecap:round;stroke-linejoin:round;}
	.st2{fill:#CECECE;}
</style>
<g id="ALABAMA">
</g>
<g id="ALASKA">
</g>
<g id="ARIZONA">
</g>
<g id="ARKANSAS_1_">
</g>
<g id="CALIFORNIA">
</g>
<g id="COLORADO">
</g>
<g id="CONNECTICUT">
</g>
<g id="DELAWARE">
</g>
<g id="DC">
</g>
<g id="FLORIDA">
</g>
<g id="GEORGIA">
</g>
<g id="HAWAII">
</g>
<g id="IDAHO">
</g>
<g id="IOWA">
</g>
<g id="ILLINOIS">
</g>
<g id="INDIANA">
</g>
<g id="KANSAS">
</g>
<g id="KETUCKY">
</g>
<g id="LOUISANA">
</g>
<g id="MAINE">
</g>
<g id="MARYLAND">
</g>
<g id="MASSACHUSETTS">
</g>
<g id="MICHIGAN">
</g>
<g id="MINNESOTA">
</g>
<g id="MISSOURI">
</g>
<g id="MISSISSIPPI">
</g>
<g id="MONTANA">
</g>
<g id="NORTH_CAROLINA">
</g>
<g id="NORTH_DAKOTA">
	<path id="ND_1_" class="st0" d="M80.55,67.22l-2.22,0.07l-2.22,0.06l-2.22,0.06l-2.22,0.05l-2.22,0.05l-2.22,0.05L65,67.6
		l-2.23,0.03l-2.21,0.03l-2.23,0.03l-2.22,0.02l-2.22,0.01l-2.22,0.01l-2.22,0.01h-2.23H45l-2.22-0.01l-2.22-0.01l-2.22-0.02
		l-2.22-0.03l-2.23-0.02l-2.22-0.04l-2.22-0.03l-2.22-0.04L25,67.49l-2.22-0.05l-2.22-0.06l-2.22-0.06l-2.22-0.06l-2.22-0.07
		l-2.22-0.08l-2.22-0.08l0.07-2.42l0.08-2.42l0.07-2.42l0.08-2.41l0.08-2.42l0.07-2.4l0.08-2.41l0.07-2.4l0.08-2.4l0.08-2.4
		l0.07-2.39l0.08-2.39l0.07-2.39l0.08-2.38l0.07-2.38l0.08-2.37l0.58,0.02l2.02,0.07l2.02,0.07l2.02,0.06l2.03,0.06l2.02,0.06
		l2.03,0.05l2.01,0.04l2.02,0.05l2.02,0.04l2.03,0.03l2.02,0.03l1.73,0.03h0.29l2.01,0.02l2.03,0.02l2.02,0.02l2.02,0.01h2.03
		l2.02,0.01l2.03-0.01h2.02l2.02-0.01l2.02-0.02l2.02-0.01l2.02-0.03l2.03-0.02l2.03-0.03l2.01-0.04l2.01-0.04l2.03-0.04l2.02-0.05
		l1.38-0.03l0,0l-0.02,0.3l0.08,0.2l0.1,0.19l0.04,0.17l0.05,0.25l0.06,0.12l0.06,0.11l0.05,0.11l0.08,0.43l0.29,0.67l0.08,0.48
		l0.09,0.2l0.22,0.42l0.09,0.6l-0.18,0.48l-0.23,0.46l-0.07,0.53l0.23,0.71l0.06,0.39l0.06,0.21v0.14l-0.04,0.14l-0.11,0.22
		l-0.04,0.16l0.19,0.81l0.07,0.18l0.05,0.2l-0.12,0.87l0.02,0.52l0.08,0.47l0.17,0.44l0.43,0.92l0.12,0.46l0.16,0.42l0.33,0.34
		l-0.13,0.3l0.04,0.28l0.25,0.61v0.08l-0.05,0.09l0.02,0.06l0.03,0.02l0.04,0.01l0.02,0.02l0.02,0.03l0.03,0.05l0.23,0.24l0.07,0.16
		l0.13,0.44l0.14,0.25l0.13,0.19l0.11,0.21l0.07,0.45l0.12,0.34l0.16,0.11l0.04,0.06l0.01,0.09l-0.02,0.07l-0.04,0.06l-0.01,0.05
		l0.02,0.3l-0.01,0.25l0.02,0.22l0.1,0.21l0.01,0.19l-0.14,0.65v0.25l0.06,0.07l0.08,0.08l0.09,0.11l0.04,0.13l-0.02,1.6l0.04,0.28
		l0.16,0.61l0.04,0.26l-0.01,0.1l-0.03,0.11l-0.03,0.13l0.01,0.15l0.15,0.52l0.02,0.24l-0.05,0.83l0.03,0.17l0.05,0.12l0.13,0.19
		l0.04,0.17v0.1h-0.04l0.06,0.03l0.11,0.03l0.1,0.06l0.11,0.03l0.06,0.05l0.04,0.08l-0.01,0.06l-0.03,0.06l-0.05,0.21l-0.13,0.18
		L78,55.51l0.03,0.43l-0.01,0.14l-0.03,0.09l-0.08,0.21L77.9,56.5l0.04,0.21l0.15,0.43l0.04,0.28l-0.03,0.28l-0.1,0.44l0.03,0.27
		l0.1,0.18l0.31,0.38l0.07,0.24l0.07,0.47l0.02,0.26l-0.06,0.26l0.06,0.09l0.16,0.16l0.06,0.1l0.02,0.1v0.11l0.02,0.13l0.07,0.14
		l0.58,0.81l0.33,0.33l0.15,0.21l0.07,0.26v0.82l0.03,0.25l0.04,0.14l0.04,0.11l0.23,0.33v0.09l-0.02,0.1v0.15l0.04,0.07l0.08,0.47
		v0.16l-0.05,0.36l-0.11,0.28l0.01,0.3L80.55,67.22L80.55,67.22z"/>
	<path id="ND_2_" class="st1" d="M80.55,67.22l-2.22,0.07l-2.22,0.06l-2.22,0.06l-2.22,0.05l-2.22,0.05l-2.22,0.05L65,67.6
		l-2.23,0.03l-2.21,0.03l-2.23,0.03l-2.22,0.02l-2.22,0.01l-2.22,0.01l-2.22,0.01h-2.23H45l-2.22-0.01l-2.22-0.01l-2.22-0.02
		l-2.22-0.03l-2.23-0.02l-2.22-0.04l-2.22-0.03l-2.22-0.04L25,67.49l-2.22-0.05l-2.22-0.06l-2.22-0.06l-2.22-0.06l-2.22-0.07
		l-2.22-0.08l-2.22-0.08l0.07-2.42l0.08-2.42l0.07-2.42l0.08-2.41l0.08-2.42l0.07-2.4l0.08-2.41l0.07-2.4l0.08-2.4l0.08-2.4
		l0.07-2.39l0.08-2.39l0.07-2.39l0.08-2.38l0.07-2.38l0.08-2.37l0.58,0.02l2.02,0.07l2.02,0.07l2.02,0.06l2.03,0.06l2.02,0.06
		l2.03,0.05l2.01,0.04l2.02,0.05l2.02,0.04l2.03,0.03l2.02,0.03l1.73,0.03h0.29l2.01,0.02l2.03,0.02l2.02,0.02l2.02,0.01h2.03
		l2.02,0.01l2.03-0.01h2.02l2.02-0.01l2.02-0.02l2.02-0.01l2.02-0.03l2.03-0.02l2.03-0.03l2.01-0.04l2.01-0.04l2.03-0.04l2.02-0.05
		l1.38-0.03l0,0l-0.02,0.3l0.08,0.2l0.1,0.19l0.04,0.17l0.05,0.25l0.06,0.12l0.06,0.11l0.05,0.11l0.08,0.43l0.29,0.67l0.08,0.48
		l0.09,0.2l0.22,0.42l0.09,0.6l-0.18,0.48l-0.23,0.46l-0.07,0.53l0.23,0.71l0.06,0.39l0.06,0.21v0.14l-0.04,0.14l-0.11,0.22
		l-0.04,0.16l0.19,0.81l0.07,0.18l0.05,0.2l-0.12,0.87l0.02,0.52l0.08,0.47l0.17,0.44l0.43,0.92l0.12,0.46l0.16,0.42l0.33,0.34
		l-0.13,0.3l0.04,0.28l0.25,0.61v0.08l-0.05,0.09l0.02,0.06l0.03,0.02l0.04,0.01l0.02,0.02l0.02,0.03l0.03,0.05l0.23,0.24l0.07,0.16
		l0.13,0.44l0.14,0.25l0.13,0.19l0.11,0.21l0.07,0.45l0.12,0.34l0.16,0.11l0.04,0.06l0.01,0.09l-0.02,0.07l-0.04,0.06l-0.01,0.05
		l0.02,0.3l-0.01,0.25l0.02,0.22l0.1,0.21l0.01,0.19l-0.14,0.65v0.25l0.06,0.07l0.08,0.08l0.09,0.11l0.04,0.13l-0.02,1.6l0.04,0.28
		l0.16,0.61l0.04,0.26l-0.01,0.1l-0.03,0.11l-0.03,0.13l0.01,0.15l0.15,0.52l0.02,0.24l-0.05,0.83l0.03,0.17l0.05,0.12l0.13,0.19
		l0.04,0.17v0.1h-0.04l0.06,0.03l0.11,0.03l0.1,0.06l0.11,0.03l0.06,0.05l0.04,0.08l-0.01,0.06l-0.03,0.06l-0.05,0.21l-0.13,0.18
		L78,55.51l0.03,0.43l-0.01,0.14l-0.03,0.09l-0.08,0.21L77.9,56.5l0.04,0.21l0.15,0.43l0.04,0.28l-0.03,0.28l-0.1,0.44l0.03,0.27
		l0.1,0.18l0.31,0.38l0.07,0.24l0.07,0.47l0.02,0.26l-0.06,0.26l0.06,0.09l0.16,0.16l0.06,0.1l0.02,0.1v0.11l0.02,0.13l0.07,0.14
		l0.58,0.81l0.33,0.33l0.15,0.21l0.07,0.26v0.82l0.03,0.25l0.04,0.14l0.04,0.11l0.23,0.33v0.09l-0.02,0.1v0.15l0.04,0.07l0.08,0.47
		v0.16l-0.05,0.36l-0.11,0.28l0.01,0.3L80.55,67.22L80.55,67.22z"/>
</g>
<g id="NEBRASKA">
</g>
<g id="NEW_HAMPSHIRE">
</g>
<g id="NEW_JERSEY">
</g>
<g id="NEW_YORK">
</g>
<g id="NEW_MEXICO">
</g>
<g id="NEVADA">
</g>
<g id="OHIO">
</g>
<g id="OKLAHOMA">
</g>
<g id="OREGON">
</g>
<g id="PENNSYLVANIA">
</g>
<g id="RHODE_ISLAND">
</g>
<g id="SOUTH_CAROLINA">
</g>
<g id="SOUTH_DAKOTA">
</g>
<g id="TENNESSEE">
</g>
<g id="TEXAS">
</g>
<g id="UTAH">
</g>
<g id="VIRGINIA">
</g>
<g id="VERMONT">
</g>
<g id="WASHINGTON">
</g>
<g id="WISCONSIN">
</g>
<g id="WEST_VIRGINIA">
</g>
<g id="WYOMING">
</g>
</svg>
