<?xml version="1.0" encoding="utf-8"?>
<!-- Generator: Adobe Illustrator 26.5.0, SVG Export Plug-In . SVG Version: 6.00 Build 0)  -->
<svg version="1.1" xmlns="http://www.w3.org/2000/svg" xmlns:xlink="http://www.w3.org/1999/xlink" x="0px" y="0px"
	 viewBox="0 0 90 90" style="enable-background:new 0 0 90 90;" xml:space="preserve">
<style type="text/css">
	.st0{fill:#CECECE;stroke:#F9F9F9;stroke-width:0.025;stroke-linecap:round;stroke-linejoin:round;}
	.st1{display:none;fill:none;stroke:#47CCCC;stroke-width:0.5;stroke-linecap:round;stroke-linejoin:round;}
	.st2{fill:#CECECE;}
</style>
<g id="ALABAMA">
</g>
<g id="ALASKA">
</g>
<g id="ARIZONA">
</g>
<g id="ARKANSAS_1_">
</g>
<g id="CALIFORNIA">
</g>
<g id="COLORADO">
</g>
<g id="CONNECTICUT">
</g>
<g id="DELAWARE">
</g>
<g id="DC">
</g>
<g id="FLORIDA">
</g>
<g id="GEORGIA">
</g>
<g id="HAWAII">
</g>
<g id="IDAHO">
</g>
<g id="IOWA">
</g>
<g id="ILLINOIS">
</g>
<g id="INDIANA">
</g>
<g id="KANSAS">
</g>
<g id="KETUCKY">
</g>
<g id="LOUISANA">
</g>
<g id="MAINE">
</g>
<g id="MARYLAND">
</g>
<g id="MASSACHUSETTS">
</g>
<g id="MICHIGAN">
</g>
<g id="MINNESOTA">
</g>
<g id="MISSOURI">
</g>
<g id="MISSISSIPPI">
</g>
<g id="MONTANA">
</g>
<g id="NORTH_CAROLINA">
</g>
<g id="NORTH_DAKOTA">
</g>
<g id="NEBRASKA">
</g>
<g id="NEW_HAMPSHIRE">
</g>
<g id="NEW_JERSEY">
</g>
<g id="NEW_YORK">
</g>
<g id="NEW_MEXICO">
</g>
<g id="NEVADA">
</g>
<g id="OHIO">
	<polygon id="OH_1_" class="st0" points="78.81,35.53 79.19,35.33 79.6,35.24 79.89,35.34 80.52,34.72 80.75,34.61 80.38,32.47 
		79.99,30.34 79.61,28.19 79.23,26.07 78.85,23.93 78.48,21.79 78.09,19.66 77.71,17.52 76.95,13.27 76.2,8.99 75.9,7.39 
		72.05,9.43 71.62,9.87 71.02,10.07 70.76,10.2 70.63,10.32 70.49,10.6 70.42,10.69 69.87,10.9 69.51,11.22 68.45,11.6 63.79,14.83 
		59.39,19.91 58.85,20.19 58.36,20.61 57.99,20.7 57.43,20.53 57.29,20.53 57.13,20.64 56.87,20.97 56.66,21.06 56.26,21.11 
		54.28,20.99 53.61,21.11 51.6,22.03 50.47,22.89 49.82,23.18 48.74,23.4 48.51,23.6 48.31,23.85 47.68,24.4 47.39,24.57 
		46.64,24.65 45.92,24.43 44.67,23.73 44.52,23.67 44.21,23.57 44.1,23.53 43.91,23.35 43.79,23.2 43.65,23.09 43.47,23.06 
		43.74,23.46 44.5,23.93 44.89,24.24 44.04,23.84 43.58,23.7 43.18,23.67 42.99,23.71 42.76,23.85 42.6,23.9 42.38,23.91 
		42.26,23.87 41.9,23.71 41.26,23.93 40.56,24.54 39.86,24.95 39.25,24.57 39.12,24.74 38.97,24.85 38.81,24.82 38.72,24.59 
		38.56,24.57 37.61,24.68 37.84,24.51 38.41,24.38 38.66,24.21 38.89,24.34 38.98,24.24 39.05,24.04 39.14,23.87 39.28,23.77 
		39.43,23.71 39.84,23.63 40.54,23.35 40.9,23.28 41.29,23.4 41.6,23.07 42.12,22.87 43.18,22.65 43.02,22.33 42.9,22.15 
		42.73,22.08 42.12,22.09 41.95,22.14 41.71,22.33 41.57,22.26 41.46,22.14 41.37,22.08 41.13,21.76 40.9,21.56 40.62,21.5 
		40.65,21.61 40.65,21.87 40.64,22.17 40.57,22.36 40.4,22.57 40.17,22.72 39.65,22.92 39.34,22.95 38.77,22.84 38.49,22.82 
		38,22.7 37.04,21.84 36.56,21.55 36.14,21.59 35.6,21.55 34.54,21.3 34.09,21.08 33.23,20.42 32.82,20.25 32.65,20.27 32.29,20.44 
		32.05,20.52 31.78,20.53 30.5,20.33 30.39,20.19 30.36,20 29.07,20.25 27.76,20.5 26.45,20.74 25.14,20.99 23.83,21.22 
		22.52,21.47 21.21,21.7 19.9,21.93 18.59,22.18 17.28,22.42 15.97,22.65 14.66,22.89 13.35,23.12 12.04,23.35 10.73,23.59 
		9.42,23.82 9.64,25.49 9.84,27.16 10.28,30.48 10.5,32.15 10.72,33.82 10.93,35.49 11.15,37.15 11.37,38.82 11.59,40.51 
		11.81,42.17 12.01,43.84 12.23,45.51 12.45,47.18 12.67,48.85 12.88,50.53 13.1,52.2 13.32,53.87 13.54,55.55 13.75,57.22 
		13.98,58.91 14.19,60.57 14.4,62.24 14.61,63.92 14.83,65.59 15.05,67.28 15.27,68.94 15.49,70.63 15.71,72.31 15.92,73.98 
		16.14,75.66 16.36,77.35 17.2,76.66 17.42,76.34 17.55,76.2 17.75,76.13 17.9,76.18 18.15,76.46 18.25,76.51 18.51,76.62 
		19.46,77.33 20.16,77.3 21.47,76.48 22.16,76.24 22.53,76.38 22.82,76.74 23.05,77.08 23.25,77.22 23.58,77.24 24,77.33 
		24.75,77.6 25.03,77.82 25.25,78.14 25.4,78.5 25.48,78.86 25.6,79.14 25.84,79.34 26.09,79.52 26.28,79.69 26.5,80 26.65,80.36 
		26.76,80.76 26.85,81.26 27.06,81.59 27.44,81.81 29.38,82.23 29.75,82.21 31.17,81.71 31.56,81.71 32.26,81.93 32.99,82.03 
		33.29,82.29 33.56,82.62 33.87,82.91 35.13,83.87 35.85,84.21 36.58,84.26 36.89,84.1 37.16,83.82 37.3,83.45 37.32,83.06 
		37.49,82.9 38.59,82.35 38.95,82.32 39.31,82.42 39.65,82.57 39.96,82.81 40.12,82.85 40.71,82.76 40.95,82.77 41.45,82.91 
		41.68,83.04 41.81,83.17 42.3,83.74 42.54,83.93 42.68,83.96 43.24,83.74 43.41,83.54 43.65,83.35 44.02,83.26 44.78,83.29 
		45.13,83.21 45.39,82.99 45.49,82.76 45.6,82.31 45.66,82.14 45.78,82.01 46.19,81.78 46.39,81.53 46.58,81.2 46.79,80.92 
		47.11,80.76 47.51,80.64 48.43,79.98 48.85,79.84 49.07,79.95 49.17,80.25 49.23,80.65 49.34,81.04 49.94,82.35 50.55,83.07 
		51.33,83.35 52.13,83.49 52.81,83.79 54.19,84.79 54.4,85.05 54.78,85.68 54.98,85.89 55,85.91 55.62,86.08 56.34,85.89 
		57.65,85.18 58.85,84.88 59.13,84.72 59.3,84.32 59.36,83.94 59.43,82.07 59.55,81.59 59.74,81.37 60.55,81.36 60.89,81.23 
		61.09,80.86 61.08,80.64 60.98,80.37 60.87,80.13 60.67,79.78 60.65,79.56 60.72,79.25 60.58,78.75 60.39,78.43 60.2,78.18 
		60.03,77.83 60,77.35 60.23,77.05 60.51,76.8 60.62,76.29 60.78,75.9 60.83,75.7 60.79,74.84 60.95,74.15 61.3,73.3 61.72,72.48 
		62.17,72.02 62.56,71.95 62.9,72.11 63.18,72.3 63.73,72.42 63.99,72.64 64.19,72.94 64.32,73.25 64.4,73.34 64.46,73.45 
		64.51,73.59 64.47,73.7 64.41,73.78 64.33,73.83 64.3,73.89 64.3,74.17 64.24,74.31 64.23,74.4 64.38,74.62 64.71,74.71 
		65.04,74.48 65.3,74.09 65.44,73.76 65.49,73.25 65.54,73 65.69,72.86 65.91,72.91 66.24,73.16 66.44,73.2 66.74,73.05 
		66.69,72.81 66.49,72.51 66.32,72.19 66.29,71.44 66.19,71.08 65.96,70.96 65.85,70.93 65.71,70.85 65.57,70.72 65.49,70.6 
		65.36,70.35 65.36,70.27 65.46,70.25 66.22,69.79 66.32,69.57 66.29,69.1 66.1,68.35 66.08,68.09 66.16,67.74 66.78,66.72 
		66.92,65.98 67.24,65.83 67.62,65.75 67.97,65.56 68.09,65.69 68.22,65.56 68.3,65.51 68.41,65.53 68.56,65.61 68.7,65.33 
		68.67,64.52 68.75,64.13 69.78,62.77 70.01,62.6 70.7,62.49 70.88,62.63 71.09,62.96 71.37,63.3 71.73,63.49 72.1,63.36 
		72.58,62.76 72.89,62.57 73.22,62.47 73.55,62.32 73.86,62.11 74.08,61.91 74.45,61.34 74.7,61.06 75.3,60.71 75.48,60.35 
		75.75,59.61 76.17,58.95 77.73,57.24 78.73,56.41 78.71,56.21 78.81,55.61 78.81,55.5 78.74,55.29 78.74,55.19 78.79,55.1 
		79.02,54.83 79.04,54.43 78.93,54.16 78.73,53.96 78.41,53.73 78.29,53.49 78.38,53.29 78.7,53.01 78.74,52.79 78.74,52.37 
		78.76,52.15 78.82,51.9 78.9,51.7 79.13,51.28 79.15,51.11 79.04,50.91 78.91,50.67 78.84,50.47 78.85,50.14 79.02,50.14 
		79.26,50.22 79.46,50.16 79.52,49.94 79.47,49.75 79.38,49.6 79.33,49.46 79.38,49.08 79.49,48.82 79.57,48.5 79.54,48.04 
		79.37,47.2 79.35,46.79 79.44,46.26 79.66,45.48 79.74,45.09 79.72,44.34 79.79,43.84 79.99,42.98 80.11,42.8 80.47,42.38 
		80.55,42.24 80.6,41.57 80.65,41.44 80.57,41.18 80.38,40.72 80.37,40.63 80.35,40.41 80.32,40.32 80.23,40.26 80.11,40.23 
		80,40.23 79.96,40.23 79.89,39.76 80.08,38.9 80.08,38.42 79.97,38.14 79.77,37.79 79.29,37.17 78.65,36.56 78.46,36.23 
		78.56,35.8 	"/>
	<polygon id="OH_2_" class="st1" points="78.81,35.53 79.19,35.33 79.6,35.24 79.89,35.34 80.52,34.72 80.75,34.61 80.38,32.47 
		79.99,30.34 79.61,28.19 79.23,26.07 78.85,23.93 78.48,21.79 78.09,19.66 77.71,17.52 76.95,13.27 76.2,8.99 75.9,7.39 
		72.05,9.43 71.62,9.87 71.02,10.07 70.76,10.2 70.63,10.32 70.49,10.6 70.42,10.69 69.87,10.9 69.51,11.22 68.45,11.6 63.79,14.83 
		59.39,19.91 58.85,20.19 58.36,20.61 57.99,20.7 57.43,20.53 57.29,20.53 57.13,20.64 56.87,20.97 56.66,21.06 56.26,21.11 
		54.28,20.99 53.61,21.11 51.6,22.03 50.47,22.89 49.82,23.18 48.74,23.4 48.51,23.6 48.31,23.85 47.68,24.4 47.39,24.57 
		46.64,24.65 45.92,24.43 44.67,23.73 44.52,23.67 44.21,23.57 44.1,23.53 43.91,23.35 43.79,23.2 43.65,23.09 43.47,23.06 
		43.74,23.46 44.5,23.93 44.89,24.24 44.04,23.84 43.58,23.7 43.18,23.67 42.99,23.71 42.76,23.85 42.6,23.9 42.38,23.91 
		42.26,23.87 41.9,23.71 41.26,23.93 40.56,24.54 39.86,24.95 39.25,24.57 39.12,24.74 38.97,24.85 38.81,24.82 38.72,24.59 
		38.56,24.57 37.61,24.68 37.84,24.51 38.41,24.38 38.66,24.21 38.89,24.34 38.98,24.24 39.05,24.04 39.14,23.87 39.28,23.77 
		39.43,23.71 39.84,23.63 40.54,23.35 40.9,23.28 41.29,23.4 41.6,23.07 42.12,22.87 43.18,22.65 43.02,22.33 42.9,22.15 
		42.73,22.08 42.12,22.09 41.95,22.14 41.71,22.33 41.57,22.26 41.46,22.14 41.37,22.08 41.13,21.76 40.9,21.56 40.62,21.5 
		40.65,21.61 40.65,21.87 40.64,22.17 40.57,22.36 40.4,22.57 40.17,22.72 39.65,22.92 39.34,22.95 38.77,22.84 38.49,22.82 
		38,22.7 37.04,21.84 36.56,21.55 36.14,21.59 35.6,21.55 34.54,21.3 34.09,21.08 33.23,20.42 32.82,20.25 32.65,20.27 32.29,20.44 
		32.05,20.52 31.78,20.53 30.5,20.33 30.39,20.19 30.36,20 29.07,20.25 27.76,20.5 26.45,20.74 25.14,20.99 23.83,21.22 
		22.52,21.47 21.21,21.7 19.9,21.93 18.59,22.18 17.28,22.42 15.97,22.65 14.66,22.89 13.35,23.12 12.04,23.35 10.73,23.59 
		9.42,23.82 9.64,25.49 9.84,27.16 10.28,30.48 10.5,32.15 10.72,33.82 10.93,35.49 11.15,37.15 11.37,38.82 11.59,40.51 
		11.81,42.17 12.01,43.84 12.23,45.51 12.45,47.18 12.67,48.85 12.88,50.53 13.1,52.2 13.32,53.87 13.54,55.55 13.75,57.22 
		13.98,58.91 14.19,60.57 14.4,62.24 14.61,63.92 14.83,65.59 15.05,67.28 15.27,68.94 15.49,70.63 15.71,72.31 15.92,73.98 
		16.14,75.66 16.36,77.35 17.2,76.66 17.42,76.34 17.55,76.2 17.75,76.13 17.9,76.18 18.15,76.46 18.25,76.51 18.51,76.62 
		19.46,77.33 20.16,77.3 21.47,76.48 22.16,76.24 22.53,76.38 22.82,76.74 23.05,77.08 23.25,77.22 23.58,77.24 24,77.33 
		24.75,77.6 25.03,77.82 25.25,78.14 25.4,78.5 25.48,78.86 25.6,79.14 25.84,79.34 26.09,79.52 26.28,79.69 26.5,80 26.65,80.36 
		26.76,80.76 26.85,81.26 27.06,81.59 27.44,81.81 29.38,82.23 29.75,82.21 31.17,81.71 31.56,81.71 32.26,81.93 32.99,82.03 
		33.29,82.29 33.56,82.62 33.87,82.91 35.13,83.87 35.85,84.21 36.58,84.26 36.89,84.1 37.16,83.82 37.3,83.45 37.32,83.06 
		37.49,82.9 38.59,82.35 38.95,82.32 39.31,82.42 39.65,82.57 39.96,82.81 40.12,82.85 40.71,82.76 40.95,82.77 41.45,82.91 
		41.68,83.04 41.81,83.17 42.3,83.74 42.54,83.93 42.68,83.96 43.24,83.74 43.41,83.54 43.65,83.35 44.02,83.26 44.78,83.29 
		45.13,83.21 45.39,82.99 45.49,82.76 45.6,82.31 45.66,82.14 45.78,82.01 46.19,81.78 46.39,81.53 46.58,81.2 46.79,80.92 
		47.11,80.76 47.51,80.64 48.43,79.98 48.85,79.84 49.07,79.95 49.17,80.25 49.23,80.65 49.34,81.04 49.94,82.35 50.55,83.07 
		51.33,83.35 52.13,83.49 52.81,83.79 54.19,84.79 54.4,85.05 54.78,85.68 54.98,85.89 55,85.91 55.62,86.08 56.34,85.89 
		57.65,85.18 58.85,84.88 59.13,84.72 59.3,84.32 59.36,83.94 59.43,82.07 59.55,81.59 59.74,81.37 60.55,81.36 60.89,81.23 
		61.09,80.86 61.08,80.64 60.98,80.37 60.87,80.13 60.67,79.78 60.65,79.56 60.72,79.25 60.58,78.75 60.39,78.43 60.2,78.18 
		60.03,77.83 60,77.35 60.23,77.05 60.51,76.8 60.62,76.29 60.78,75.9 60.83,75.7 60.79,74.84 60.95,74.15 61.3,73.3 61.72,72.48 
		62.17,72.02 62.56,71.95 62.9,72.11 63.18,72.3 63.73,72.42 63.99,72.64 64.19,72.94 64.32,73.25 64.4,73.34 64.46,73.45 
		64.51,73.59 64.47,73.7 64.41,73.78 64.33,73.83 64.3,73.89 64.3,74.17 64.24,74.31 64.23,74.4 64.38,74.62 64.71,74.71 
		65.04,74.48 65.3,74.09 65.44,73.76 65.49,73.25 65.54,73 65.69,72.86 65.91,72.91 66.24,73.16 66.44,73.2 66.74,73.05 
		66.69,72.81 66.49,72.51 66.32,72.19 66.29,71.44 66.19,71.08 65.96,70.96 65.85,70.93 65.71,70.85 65.57,70.72 65.49,70.6 
		65.36,70.35 65.36,70.27 65.46,70.25 66.22,69.79 66.32,69.57 66.29,69.1 66.1,68.35 66.08,68.09 66.16,67.74 66.78,66.72 
		66.92,65.98 67.24,65.83 67.62,65.75 67.97,65.56 68.09,65.69 68.22,65.56 68.3,65.51 68.41,65.53 68.56,65.61 68.7,65.33 
		68.67,64.52 68.75,64.13 69.78,62.77 70.01,62.6 70.7,62.49 70.88,62.63 71.09,62.96 71.37,63.3 71.73,63.49 72.1,63.36 
		72.58,62.76 72.89,62.57 73.22,62.47 73.55,62.32 73.86,62.11 74.08,61.91 74.45,61.34 74.7,61.06 75.3,60.71 75.48,60.35 
		75.75,59.61 76.17,58.95 77.73,57.24 78.73,56.41 78.71,56.21 78.81,55.61 78.81,55.5 78.74,55.29 78.74,55.19 78.79,55.1 
		79.02,54.83 79.04,54.43 78.93,54.16 78.73,53.96 78.41,53.73 78.29,53.49 78.38,53.29 78.7,53.01 78.74,52.79 78.74,52.37 
		78.76,52.15 78.82,51.9 78.9,51.7 79.13,51.28 79.15,51.11 79.04,50.91 78.91,50.67 78.84,50.47 78.85,50.14 79.02,50.14 
		79.26,50.22 79.46,50.16 79.52,49.94 79.47,49.75 79.38,49.6 79.33,49.46 79.38,49.08 79.49,48.82 79.57,48.5 79.54,48.04 
		79.37,47.2 79.35,46.79 79.44,46.26 79.66,45.48 79.74,45.09 79.72,44.34 79.79,43.84 79.99,42.98 80.11,42.8 80.47,42.38 
		80.55,42.24 80.6,41.57 80.65,41.44 80.57,41.18 80.38,40.72 80.37,40.63 80.35,40.41 80.32,40.32 80.23,40.26 80.11,40.23 
		80,40.23 79.96,40.23 79.89,39.76 80.08,38.9 80.08,38.42 79.97,38.14 79.77,37.79 79.29,37.17 78.65,36.56 78.46,36.23 
		78.56,35.8 	"/>
</g>
<g id="OKLAHOMA">
</g>
<g id="OREGON">
</g>
<g id="PENNSYLVANIA">
</g>
<g id="RHODE_ISLAND">
</g>
<g id="SOUTH_CAROLINA">
</g>
<g id="SOUTH_DAKOTA">
</g>
<g id="TENNESSEE">
</g>
<g id="TEXAS">
</g>
<g id="UTAH">
</g>
<g id="VIRGINIA">
</g>
<g id="VERMONT">
</g>
<g id="WASHINGTON">
</g>
<g id="WISCONSIN">
</g>
<g id="WEST_VIRGINIA">
</g>
<g id="WYOMING">
</g>
</svg>
