<?xml version="1.0" encoding="utf-8"?>
<!-- Generator: Adobe Illustrator 26.5.0, SVG Export Plug-In . SVG Version: 6.00 Build 0)  -->
<svg version="1.1" xmlns="http://www.w3.org/2000/svg" xmlns:xlink="http://www.w3.org/1999/xlink" x="0px" y="0px"
	 viewBox="0 0 90 90" style="enable-background:new 0 0 90 90;" xml:space="preserve">
<style type="text/css">
	.st0{fill:#CECECE;stroke:#F9F9F9;stroke-width:0.025;stroke-linecap:round;stroke-linejoin:round;}
	.st1{display:none;fill:none;stroke:#47CCCC;stroke-width:0.5;stroke-linecap:round;stroke-linejoin:round;}
	.st2{fill:#CECECE;}
</style>
<g id="ALABAMA">
</g>
<g id="ALASKA">
</g>
<g id="ARIZONA">
</g>
<g id="ARKANSAS_1_">
</g>
<g id="CALIFORNIA">
</g>
<g id="COLORADO">
</g>
<g id="CONNECTICUT">
</g>
<g id="DELAWARE">
</g>
<g id="DC">
</g>
<g id="FLORIDA">
</g>
<g id="GEORGIA">
</g>
<g id="HAWAII">
</g>
<g id="IDAHO">
</g>
<g id="IOWA">
</g>
<g id="ILLINOIS">
</g>
<g id="INDIANA">
</g>
<g id="KANSAS">
</g>
<g id="KETUCKY">
</g>
<g id="LOUISANA">
</g>
<g id="MAINE">
</g>
<g id="MARYLAND">
</g>
<g id="MASSACHUSETTS">
</g>
<g id="MICHIGAN">
</g>
<g id="MINNESOTA">
</g>
<g id="MISSOURI">
</g>
<g id="MISSISSIPPI">
</g>
<g id="MONTANA">
</g>
<g id="NORTH_CAROLINA">
</g>
<g id="NORTH_DAKOTA">
</g>
<g id="NEBRASKA">
</g>
<g id="NEW_HAMPSHIRE">
</g>
<g id="NEW_JERSEY">
</g>
<g id="NEW_YORK">
</g>
<g id="NEW_MEXICO">
</g>
<g id="NEVADA">
</g>
<g id="OHIO">
</g>
<g id="OKLAHOMA">
	<path id="OK_1_" class="st0" d="M81.26,33.46l0.28,1.55l0.27,1.54l0.28,1.54l0.28,1.55l0.27,1.54l0.28,1.55l0.28,1.54l0.28,1.55
		l0.07,2.43l0.07,2.43l0.07,2.43l0.07,2.44l0.07,2.43l0.07,2.43L84,62.82l0.07,2.43l-0.05-0.01l-0.23,0.01l-0.17-0.08v0.08
		l-0.45-0.13l-0.14-0.07l0.03-0.06l0.02-0.05l-0.2-0.01l-0.24,0.06l-0.07-0.1l-0.11-0.06l-0.13-0.03l-0.13-0.02h-0.07l-0.1,0.06
		l-0.07,0.02l-0.05-0.02l-0.08-0.1l-0.17-0.07l-0.17-0.26l-0.13-0.05h-0.12L81,64.29l-0.61-0.08l-0.37-0.32l-0.15-0.24l-0.05-0.07
		l-0.1-0.06l-0.08-0.03l-0.06-0.07l-0.03-0.17l-0.02-0.05l-0.07-0.06l-0.07-0.05l-0.07-0.02h-0.32l-0.14-0.03l-0.15-0.1l-0.32-0.29
		l-0.17-0.1l-0.29-0.06l-0.06-0.07l-0.04-0.07l-0.05-0.07l-0.11-0.07l-0.62-0.17l-0.15,0.02l-0.17,0.15l-0.05,0.18l-0.01,0.19
		l-0.04,0.13l-0.12-0.06l-0.05,0.09l-0.07,0.05l-0.08,0.04l-0.1,0.06l-0.11-0.06h-0.07l-0.02,0.11v0.08L76,63.08l-0.04,0.03
		l-0.06,0.03l-0.07,0.01l-0.78,0.01l-0.1,0.02l-0.07-0.08l-0.06-0.04l-0.07-0.02h-0.09l-0.03,0.02l-0.06,0.04l-0.04,0.02l-0.02-0.04
		l-0.04-0.06l-0.02-0.04v-0.02l-0.29,0.01l-0.12-0.06l0.08-0.17l-0.07-0.17l-0.11-0.08l-0.13-0.06l-0.12-0.09l-0.12-0.04l-0.1,0.1
		l-0.12,0.22h-0.07l-0.16-0.05l-0.02,0.02l-0.22,0.13l-0.1,0.02l-0.1,0.07l-0.09,0.07l-0.06,0.07h-0.09l-0.14,0.02l-0.3,0.01
		l-0.07,0.07l0.05,0.31l-0.1,0.08l-0.07-0.02l-0.05-0.05l-0.05-0.07l-0.07,0.02l-0.05,0.06l-0.06,0.07l-0.26,0.06l-0.11-0.02
		l-0.54-0.32l-0.1-0.1l-0.1-0.03l-0.12,0.08l-0.09,0.11l-0.03,0.08h-0.07l-0.14,0.08l-0.17,0.12l-0.32,0.15l-0.12,0.02l-0.48,0.02
		l-0.09,0.03l-0.18,0.12l-0.1,0.02l-0.09,0.08l-0.15,0.39l-0.08,0.15l-0.17,0.12l-0.17,0.02l-0.4-0.03l-0.24,0.04l-0.06,0.11
		l0.01,0.17l-0.04,0.23l-0.26,0.19l-0.28-0.26l-0.28-0.41l-0.22-0.26l-0.17-0.03l-0.62,0.06l-0.07-0.03l-0.03-0.09l-0.02-0.1
		l-0.03-0.08l-0.06-0.04l-0.21-0.1l0,0l-0.38-0.11l-0.12-0.12l-0.04-0.04l-0.02-0.05l-0.02-0.06v-0.06l0.01-0.06l0.1-0.21
		l-0.02-0.07l-0.08-0.07L64,63.08l-0.12-0.03h-0.1l-0.05,0.03l-0.03,0.03l-0.06,0.1l-0.11,0.35l-0.02,0.06l-0.02,0.05l-0.03,0.04
		l-0.04,0.03l-0.07,0.03l-0.09,0.03l-0.17,0.02h-0.1l-0.08-0.01l-0.05-0.02l-0.25-0.18l-0.1-0.04l-0.07-0.01l-0.32,0.05h-0.09
		l-0.07-0.02l-0.04-0.02l-0.12-0.12l-0.06-0.09l-0.05-0.11l-0.07-0.32l-0.04-0.11l-0.04-0.06l-0.07-0.04l-0.12-0.06l-0.09-0.01
		h-0.07l-0.32,0.07l-0.06,0.02l-0.04,0.02l-0.07,0.09l0.01,0.15l-0.02,0.27l-0.13,0.31l-0.14,0.19l-0.2,0.07l-0.33-0.08l0.02,0.17
		l0.07,0.07l0.08,0.05l0.04,0.11l-0.04,0.08l-0.18,0.11l-0.03,0.12l-0.02,0.32l-0.07,0.29l-0.17,0.18l-0.3,0.02L59,65.19l-0.18-0.25
		l-0.13-0.29l-0.05-0.27l0.03-0.19l0.17-0.28l0.03-0.18l-0.02-0.14l-0.07-0.12l-0.11-0.1l-0.12-0.08l-0.06,0.03l-0.12,0.05
		l-0.05,0.04l-0.03,0.05l-0.03,0.08l-0.16,0.29l-0.05,0.07l-0.26-0.22l-0.11-0.03l-0.15,0.11l-0.02,0.03l-0.05,0.12l-0.02,0.04
		L57.39,64l-0.1,0.06l-0.03,0.04l-0.07,0.06l-0.1,0.03l-0.61,0.06l-0.15-0.09l-0.07-0.26l-0.02-0.23l-0.08-0.14l-0.14-0.07
		l-0.22-0.03l-0.59,0.05l-0.14-0.07l-0.09-0.21v-0.42l-0.09-0.19l-0.35-0.17l-0.37,0.13l-0.32,0.27l-0.78,0.82l-0.36,0.23
		l-0.41,0.07l-0.4-0.12l-0.22-0.11l-0.09-0.11l0.02-0.17l0.01-0.07l0.02-0.11l0.06-0.23v-0.11l-0.07-0.13l0.06-0.12l-0.02-0.12
		l-0.07-0.09l-0.09,0.02l-0.33-0.11l-0.46-0.08l-0.36-0.18l-0.02-0.37l-0.05-0.24l0.03-0.33v-0.29l-0.15-0.12l-0.23,0.03l-0.43,0.17
		L49.22,61l-1.25-0.14l-0.23,0.07l-0.15,0.17l-0.11,0.2l-0.12,0.19l-0.06,0.1l-0.22,0.04l-0.47,0.01l-0.13-0.07l-0.32-0.36
		l-0.13-0.08l-0.06-0.06l-0.16-0.27l-0.1-0.07l-0.31-0.06h-0.11l-0.21,0.04l-0.62,0.27l-0.11-0.06l-1.16-0.24l-0.19-0.07l-0.71-0.45
		l-0.21-0.05l-0.15,0.04l-0.14,0.06l-0.2,0.04l-0.18-0.02l-0.36-0.11l-0.19-0.02l-0.43,0.02l-0.21-0.04l-0.16-0.13l-0.03-0.17
		l-0.03-0.61l0.03-0.13l0.03-0.09l-0.16-0.19l-0.29-0.26l-0.08-0.17l-0.06-0.2l-0.09-0.17l-0.18-0.07l-0.18-0.01l-0.09-0.02
		l-0.08-0.03l-0.07-0.07l-0.04-0.08l-0.02-0.07l-0.05-0.07l-0.18-0.12h-0.13l-0.09,0.12l-0.05,0.56l-0.07,0.17L38,58.32l-0.22-0.02
		l-0.2-0.07l-0.35-0.2l-0.45-0.06l-0.08,0.03l-0.08,0.05l-0.1,0.12l-0.07,0.06l-0.17,0.05l-0.57-0.05l-0.18-0.06l-0.12-0.12
		l-0.18-0.27l-1.56-1.5l-0.09-0.06l-0.2-0.04l-0.08-0.05l-0.15-0.04l-0.42,0.06l-0.14,0.02v-0.12v-0.52l-0.01-1.27v-1.27V51.7v-1.26
		v-1.27l-0.01-1.27v-1.27v-1.27v-1.26v-1.27l-0.01-1.26v-1.27V39v-1.26v-1.27l-0.01-1.26v-0.56h-0.1h-0.49h-0.3h-0.84h-1.3
		l-1.7-0.01l-2.01-0.02l-2.24-0.02l-2.4-0.02l-2.47-0.02l-2.48-0.04l-2.39-0.04l-2.24-0.04l-2.01-0.05l-1.7-0.04l-1.3-0.03
		l-0.84-0.02l-0.3-0.01l0.03-1.4l0.04-1.39l0.03-1.4l0.03-1.39l1.11,0.02l1.11,0.03l1.11,0.02l1.11,0.02l1.11,0.02l1.11,0.02
		l1.11,0.02l1.11,0.02l2.08,0.03l2.08,0.03L20.72,29l2.08,0.02l2.08,0.02l2.08,0.02l2.08,0.01l2.08,0.01h2.08l2.08-0.01l2.08-0.01
		l2.09-0.01l2.07-0.02l2.09-0.02l2.08-0.02l2.08-0.03l2.08-0.03l2.07-0.04l2.09-0.04l2.07-0.05l2.08-0.05l2.08-0.05l2.08-0.07
		l2.08-0.06l2.08-0.07l2.08-0.07l2.08-0.07l2.08-0.08l2.08-0.09l2.08-0.09l2.07-0.09l2.08-0.1l0.07,1.4l0.07,1.39l0.07,1.4
		L81.26,33.46L81.26,33.46z"/>
	<path id="OK_3_" class="st1" d="M81.26,33.46l0.28,1.55l0.27,1.54l0.28,1.54l0.28,1.55l0.27,1.54l0.28,1.55l0.28,1.54l0.28,1.55
		l0.07,2.43l0.07,2.43l0.07,2.43l0.07,2.44l0.07,2.43l0.07,2.43L84,62.82l0.07,2.43l-0.05-0.01l-0.23,0.01l-0.17-0.08v0.08
		l-0.45-0.13l-0.14-0.07l0.03-0.06l0.02-0.05l-0.2-0.01l-0.24,0.06l-0.07-0.1l-0.11-0.06l-0.13-0.03l-0.13-0.02h-0.07l-0.1,0.06
		l-0.07,0.02l-0.05-0.02l-0.08-0.1l-0.17-0.07l-0.17-0.26l-0.13-0.05h-0.12L81,64.29l-0.61-0.08l-0.37-0.32l-0.15-0.24l-0.05-0.07
		l-0.1-0.06l-0.08-0.03l-0.06-0.07l-0.03-0.17l-0.02-0.05l-0.07-0.06l-0.07-0.05l-0.07-0.02h-0.32l-0.14-0.03l-0.15-0.1l-0.32-0.29
		l-0.17-0.1l-0.29-0.06l-0.06-0.07l-0.04-0.07l-0.05-0.07l-0.11-0.07l-0.62-0.17l-0.15,0.02l-0.17,0.15l-0.05,0.18l-0.01,0.19
		l-0.04,0.13l-0.12-0.06l-0.05,0.09l-0.07,0.05l-0.08,0.04l-0.1,0.06l-0.11-0.06h-0.07l-0.02,0.11v0.08L76,63.08l-0.04,0.03
		l-0.06,0.03l-0.07,0.01l-0.78,0.01l-0.1,0.02l-0.07-0.08l-0.06-0.04l-0.07-0.02h-0.09l-0.03,0.02l-0.06,0.04l-0.04,0.02l-0.02-0.04
		l-0.04-0.06l-0.02-0.04v-0.02l-0.29,0.01l-0.12-0.06l0.08-0.17l-0.07-0.17l-0.11-0.08l-0.13-0.06l-0.12-0.09l-0.12-0.04l-0.1,0.1
		l-0.12,0.22h-0.07l-0.16-0.05l-0.02,0.02l-0.22,0.13l-0.1,0.02l-0.1,0.07l-0.09,0.07l-0.06,0.07h-0.09l-0.14,0.02l-0.3,0.01
		l-0.07,0.07l0.05,0.31l-0.1,0.08l-0.07-0.02l-0.05-0.05l-0.05-0.07l-0.07,0.02l-0.05,0.06l-0.06,0.07l-0.26,0.06l-0.11-0.02
		l-0.54-0.32l-0.1-0.1l-0.1-0.03l-0.12,0.08l-0.09,0.11l-0.03,0.08h-0.07l-0.14,0.08l-0.17,0.12l-0.32,0.15l-0.12,0.02l-0.48,0.02
		l-0.09,0.03l-0.18,0.12l-0.1,0.02l-0.09,0.08l-0.15,0.39l-0.08,0.15l-0.17,0.12l-0.17,0.02l-0.4-0.03l-0.24,0.04l-0.06,0.11
		l0.01,0.17l-0.04,0.23l-0.26,0.19l-0.28-0.26l-0.28-0.41l-0.22-0.26l-0.17-0.03l-0.62,0.06l-0.07-0.03l-0.03-0.09l-0.02-0.1
		l-0.03-0.08l-0.06-0.04l-0.21-0.1l0,0l-0.38-0.11l-0.12-0.12l-0.04-0.04l-0.02-0.05l-0.02-0.06v-0.06l0.01-0.06l0.1-0.21
		l-0.02-0.07l-0.08-0.07L64,63.08l-0.12-0.03h-0.1l-0.05,0.03l-0.03,0.03l-0.06,0.1l-0.11,0.35l-0.02,0.06l-0.02,0.05l-0.03,0.04
		l-0.04,0.03l-0.07,0.03l-0.09,0.03l-0.17,0.02h-0.1l-0.08-0.01l-0.05-0.02l-0.25-0.18l-0.1-0.04l-0.07-0.01l-0.32,0.05h-0.09
		l-0.07-0.02l-0.04-0.02l-0.12-0.12l-0.06-0.09l-0.05-0.11l-0.07-0.32l-0.04-0.11l-0.04-0.06l-0.07-0.04l-0.12-0.06l-0.09-0.01
		h-0.07l-0.32,0.07l-0.06,0.02l-0.04,0.02l-0.07,0.09l0.01,0.15l-0.02,0.27l-0.13,0.31l-0.14,0.19l-0.2,0.07l-0.33-0.08l0.02,0.17
		l0.07,0.07l0.08,0.05l0.04,0.11l-0.04,0.08l-0.18,0.11l-0.03,0.12l-0.02,0.32l-0.07,0.29l-0.17,0.18l-0.3,0.02L59,65.19l-0.18-0.25
		l-0.13-0.29l-0.05-0.27l0.03-0.19l0.17-0.28l0.03-0.18l-0.02-0.14l-0.07-0.12l-0.11-0.1l-0.12-0.08l-0.06,0.03l-0.12,0.05
		l-0.05,0.04l-0.03,0.05l-0.03,0.08l-0.16,0.29l-0.05,0.07l-0.26-0.22l-0.11-0.03l-0.15,0.11l-0.02,0.03l-0.05,0.12l-0.02,0.04
		L57.39,64l-0.1,0.06l-0.03,0.04l-0.07,0.06l-0.1,0.03l-0.61,0.06l-0.15-0.09l-0.07-0.26l-0.02-0.23l-0.08-0.14l-0.14-0.07
		l-0.22-0.03l-0.59,0.05l-0.14-0.07l-0.09-0.21v-0.42l-0.09-0.19l-0.35-0.17l-0.37,0.13l-0.32,0.27l-0.78,0.82l-0.36,0.23
		l-0.41,0.07l-0.4-0.12l-0.22-0.11l-0.09-0.11l0.02-0.17l0.01-0.07l0.02-0.11l0.06-0.23v-0.11l-0.07-0.13l0.06-0.12l-0.02-0.12
		l-0.07-0.09l-0.09,0.02l-0.33-0.11l-0.46-0.08l-0.36-0.18l-0.02-0.37l-0.05-0.24l0.03-0.33v-0.29l-0.15-0.12l-0.23,0.03l-0.43,0.17
		L49.22,61l-1.25-0.14l-0.23,0.07l-0.15,0.17l-0.11,0.2l-0.12,0.19l-0.06,0.1l-0.22,0.04l-0.47,0.01l-0.13-0.07l-0.32-0.36
		l-0.13-0.08l-0.06-0.06l-0.16-0.27l-0.1-0.07l-0.31-0.06h-0.11l-0.21,0.04l-0.62,0.27l-0.11-0.06l-1.16-0.24l-0.19-0.07l-0.71-0.45
		l-0.21-0.05l-0.15,0.04l-0.14,0.06l-0.2,0.04l-0.18-0.02l-0.36-0.11l-0.19-0.02l-0.43,0.02l-0.21-0.04l-0.16-0.13l-0.03-0.17
		l-0.03-0.61l0.03-0.13l0.03-0.09l-0.16-0.19l-0.29-0.26l-0.08-0.17l-0.06-0.2l-0.09-0.17l-0.18-0.07l-0.18-0.01l-0.09-0.02
		l-0.08-0.03l-0.07-0.07l-0.04-0.08l-0.02-0.07l-0.05-0.07l-0.18-0.12h-0.13l-0.09,0.12l-0.05,0.56l-0.07,0.17L38,58.32l-0.22-0.02
		l-0.2-0.07l-0.35-0.2l-0.45-0.06l-0.08,0.03l-0.08,0.05l-0.1,0.12l-0.07,0.06l-0.17,0.05l-0.57-0.05l-0.18-0.06l-0.12-0.12
		l-0.18-0.27l-1.56-1.5l-0.09-0.06l-0.2-0.04l-0.08-0.05l-0.15-0.04l-0.42,0.06l-0.14,0.02v-0.12v-0.52l-0.01-1.27v-1.27V51.7v-1.26
		v-1.27l-0.01-1.27v-1.27v-1.27v-1.26v-1.27l-0.01-1.26v-1.27V39v-1.26v-1.27l-0.01-1.26v-0.56h-0.1h-0.49h-0.3h-0.84h-1.3
		l-1.7-0.01l-2.01-0.02l-2.24-0.02l-2.4-0.02l-2.47-0.02l-2.48-0.04l-2.39-0.04l-2.24-0.04l-2.01-0.05l-1.7-0.04l-1.3-0.03
		l-0.84-0.02l-0.3-0.01l0.03-1.4l0.04-1.39l0.03-1.4l0.03-1.39l1.11,0.02l1.11,0.03l1.11,0.02l1.11,0.02l1.11,0.02l1.11,0.02
		l1.11,0.02l1.11,0.02l2.08,0.03l2.08,0.03L20.72,29l2.08,0.02l2.08,0.02l2.08,0.02l2.08,0.01l2.08,0.01h2.08l2.08-0.01l2.08-0.01
		l2.09-0.01l2.07-0.02l2.09-0.02l2.08-0.02l2.08-0.03l2.08-0.03l2.07-0.04l2.09-0.04l2.07-0.05l2.08-0.05l2.08-0.05l2.08-0.07
		l2.08-0.06l2.08-0.07l2.08-0.07l2.08-0.07l2.08-0.08l2.08-0.09l2.08-0.09l2.07-0.09l2.08-0.1l0.07,1.4l0.07,1.39l0.07,1.4
		L81.26,33.46L81.26,33.46z"/>
</g>
<g id="OREGON">
</g>
<g id="PENNSYLVANIA">
</g>
<g id="RHODE_ISLAND">
</g>
<g id="SOUTH_CAROLINA">
</g>
<g id="SOUTH_DAKOTA">
</g>
<g id="TENNESSEE">
</g>
<g id="TEXAS">
</g>
<g id="UTAH">
</g>
<g id="VIRGINIA">
</g>
<g id="VERMONT">
</g>
<g id="WASHINGTON">
</g>
<g id="WISCONSIN">
</g>
<g id="WEST_VIRGINIA">
</g>
<g id="WYOMING">
</g>
</svg>
