<?xml version="1.0" encoding="UTF-8"?>
<svg id="OKLAHOMA" xmlns="http://www.w3.org/2000/svg" viewBox="0 0 90 90">
  <defs>
    <style>
      .cls-1 {
        fill: #e2e2e2;
        stroke: #f9f9f9;
        stroke-linecap: round;
        stroke-linejoin: round;
        stroke-width: .03px;
      }
    </style>
  </defs>
  <path id="OK" class="cls-1" d="M81.26,33.46l.28,1.55,.27,1.54,.28,1.54,.28,1.55,.27,1.54,.28,1.55,.28,1.54,.28,1.55,.07,2.43,.07,2.43,.07,2.43,.07,2.44,.07,2.43,.07,2.43,.07,2.44,.07,2.43h-.05s-.23,0-.23,0l-.17-.08v.08l-.45-.13-.14-.07,.03-.06,.02-.05h-.2s-.24,.05-.24,.05l-.07-.1-.11-.06-.13-.03-.13-.02h-.07l-.1,.06-.07,.02-.05-.02-.08-.1-.17-.07-.17-.26-.13-.05h-.12l-.24-.07-.61-.08-.37-.32-.15-.24-.05-.07-.1-.06-.08-.03-.06-.07-.03-.17-.02-.05-.07-.06-.07-.05-.07-.02h-.32l-.14-.03-.15-.1-.32-.29-.17-.1-.29-.06-.06-.07-.04-.07-.05-.07-.11-.07-.62-.17-.15,.02-.17,.15-.05,.18v.19s-.05,.13-.05,.13l-.12-.06-.05,.09-.07,.05-.08,.04-.1,.06-.11-.06h-.07l-.02,.11v.08l-.02,.05-.04,.03-.06,.03h-.07s-.78,.02-.78,.02l-.1,.02-.07-.08-.06-.04-.07-.02h-.09l-.03,.02-.06,.04-.04,.02-.02-.04-.04-.06-.02-.04v-.02h-.29s-.12-.05-.12-.05l.08-.17-.07-.17-.11-.08-.13-.06-.12-.09-.12-.04-.1,.1-.12,.22h-.07l-.16-.05-.02,.02-.22,.13-.1,.02-.1,.07-.09,.07-.06,.07h-.09l-.14,.02h-.3s-.07,.08-.07,.08l.05,.31-.1,.08-.07-.02-.05-.05-.05-.07-.07,.02-.05,.06-.06,.07-.26,.06-.11-.02-.54-.32-.1-.1-.1-.03-.12,.08-.09,.11-.03,.08h-.07l-.14,.08-.17,.12-.32,.15-.12,.02-.48,.02-.09,.03-.18,.12-.1,.02-.09,.08-.15,.39-.08,.15-.17,.12-.17,.02-.4-.03-.24,.04-.06,.11v.17s-.03,.23-.03,.23l-.26,.19-.28-.26-.28-.41-.22-.26-.17-.03-.62,.06-.07-.03-.03-.09-.02-.1-.03-.08-.06-.04-.21-.1h0l-.38-.11-.12-.12-.04-.04-.02-.05-.02-.06v-.12s.11-.21,.11-.21l-.02-.07-.08-.07-.23-.09-.12-.03h-.1l-.05,.03-.03,.03-.06,.1-.11,.35-.02,.06-.02,.05-.03,.04-.04,.03-.07,.03-.09,.03-.17,.02h-.18s-.05-.03-.05-.03l-.25-.18-.1-.04h-.07s-.32,.04-.32,.04h-.09l-.07-.02-.04-.02-.12-.12-.06-.09-.05-.11-.07-.32-.04-.11-.04-.06-.07-.04-.12-.06h-.09s-.07,0-.07,0l-.32,.07-.06,.02-.04,.02-.07,.09v.15s0,.27,0,.27l-.13,.31-.14,.19-.2,.07-.33-.08,.02,.17,.07,.07,.08,.05,.04,.11-.04,.08-.18,.11-.03,.12-.02,.32-.07,.29-.17,.18-.3,.02-.23-.13-.18-.25-.13-.29-.05-.27,.03-.19,.17-.28,.03-.18-.02-.14-.07-.12-.11-.1-.12-.08-.06,.03-.12,.05-.05,.04-.03,.05-.03,.08-.16,.29-.05,.07-.26-.22-.11-.03-.15,.11-.02,.03-.05,.12-.02,.04-.05,.06-.1,.06-.03,.04-.07,.06-.1,.03-.61,.06-.15-.09-.07-.26-.02-.23-.08-.14-.14-.07-.22-.03-.59,.05-.14-.07-.09-.21v-.42l-.09-.19-.35-.17-.37,.13-.32,.27-.78,.82-.36,.23-.41,.07-.4-.12-.22-.11-.09-.11,.02-.17v-.07s.02-.11,.02-.11l.06-.23v-.11l-.07-.13,.06-.12-.02-.12-.07-.09-.09,.02-.33-.11-.46-.08-.36-.18-.02-.37-.05-.24,.03-.33v-.29l-.15-.12-.23,.03-.43,.17-.28,.04-1.25-.14-.23,.07-.15,.17-.11,.2-.12,.19-.06,.1-.22,.04h-.47s-.13-.07-.13-.07l-.32-.36-.13-.08-.06-.06-.16-.27-.1-.07-.31-.06h-.11l-.21,.04-.62,.27-.11-.06-1.16-.24-.19-.07-.71-.45-.21-.05-.15,.04-.14,.06-.2,.04-.18-.02-.36-.11-.19-.02-.43,.02-.21-.04-.16-.13-.03-.17-.03-.61,.03-.13,.03-.09-.16-.19-.29-.26-.08-.17-.06-.2-.09-.17-.18-.07h-.18s-.09-.03-.09-.03l-.08-.03-.07-.07-.04-.08-.02-.07-.05-.07-.18-.12h-.13l-.09,.12-.05,.56-.07,.17-.14,.07-.22-.02-.2-.07-.35-.2-.45-.06-.08,.03-.08,.05-.1,.12-.07,.06-.17,.05-.57-.05-.18-.06-.12-.12-.18-.27-1.56-1.5-.09-.06-.2-.04-.08-.05-.15-.04-.42,.06-.14,.02v-1.91s0-1.27,0-1.27v-5.08s0-1.27,0-1.27v-5.07s0-1.27,0-1.27v-5.07s0-.56,0-.56h-4.73s-2.01-.02-2.01-.02l-2.24-.02-2.4-.02-2.47-.02-2.48-.04-2.39-.04-2.24-.04-2.01-.05-1.7-.04-1.3-.03-.84-.02h-.3s.03-1.41,.03-1.41l.04-1.39,.03-1.4,.03-1.39,1.11,.02,1.11,.03,1.11,.02,1.11,.02,1.11,.02,1.11,.02,1.11,.02,1.11,.02,2.08,.03,2.08,.03,2.08,.02,2.08,.02,2.08,.02,2.08,.02h2.08s2.08,.02,2.08,.02h4.16s2.08-.02,2.08-.02h2.09s2.07-.02,2.07-.02l2.09-.02,2.08-.02,2.08-.03,2.08-.03,2.07-.04,2.09-.04,2.07-.05,2.08-.05,2.08-.05,2.08-.07,2.08-.06,2.08-.07,2.08-.07,2.08-.07,2.08-.08,2.08-.09,2.08-.09,2.07-.09,2.08-.1,.07,1.4,.07,1.39,.07,1.4,.07,1.39h0Z"/>
  <g>
    <path d="M58.07,41.52c.39,.22,.7,.53,.93,.93,.23,.4,.34,.84,.34,1.34s-.11,.95-.34,1.35-.54,.71-.93,.93c-.39,.22-.82,.33-1.3,.33s-.91-.11-1.3-.33c-.39-.22-.7-.53-.93-.93s-.34-.85-.34-1.35,.11-.95,.34-1.34c.23-.4,.54-.71,.93-.93,.39-.22,.82-.33,1.3-.33s.92,.11,1.31,.33Zm-2.27,1.2c-.24,.26-.36,.62-.36,1.07s.12,.8,.36,1.07c.24,.26,.56,.4,.96,.4s.72-.13,.96-.4c.24-.26,.36-.62,.36-1.07s-.12-.8-.36-1.07-.56-.4-.96-.4-.72,.13-.96,.39Z"/>
    <path d="M62.42,43.76l2.05,2.6h-1.49l-1.73-2.28v2.28h-1.23v-5.09h1.23v2.24l1.74-2.24h1.48l-2.05,2.49Z"/>
  </g>
</svg>