<?xml version="1.0" encoding="UTF-8"?>
<svg id="OREGON" xmlns="http://www.w3.org/2000/svg" viewBox="0 0 90 90">
  <defs>
    <style>
      .cls-1 {
        fill: #e2e2e2;
        stroke: #f9f9f9;
        stroke-linecap: round;
        stroke-linejoin: round;
        stroke-width: .03px;
      }
    </style>
  </defs>
  <path id="OR" class="cls-1" d="M29.59,18.95l.52,.02,.14,.07,.09,.12,.23,.26,.1,.08,.23,.09,.23,.16,.22,.19,.17,.19,.11,.2,.09,.24,.06,.26v.42l.08,.14,.11,.12,.08,.16v.18s-.02,.49-.02,.49l.07,.4-.05,.19-.08,.21-.05,.24,.12,.33v.11s-.02,.12-.02,.12l-.08,.2-.03,.12-.05,.42v.25l.04,.19,.11,.17,.16,.18,.17,.15,.6,.24h.34s.12,.02,.12,.02l.23,.18,.39,.18,.21,.17,.67,.15,.6,.36h.16s.16-.07,.16-.07l.63-.05,1.53-.22,.36-.12,.63-.32,.37-.11h.23s.57,.24,.57,.24l1.21,.03,2.34,.68,.36,.2,.13,.16,.05,.17,.03,.2,.06,.24,.12,.12,.18,.02,.76-.17h.04l.17,.04,.08,.04h.04s.27,.05,.27,.05l.08,.02,.11,.07,.33,.1,.36-.02,.11,.02h.05s.4-.21,.4-.21h.07s.59,0,.59,0l.4-.07,.05-.08,.07-.05,.23-.09h.09l1.16,.44h.09s.21-.04,.21-.04h.07l.4,.14h.09s.2-.02,.2-.02l.35-.12h.08s.12,.02,.12,.02l.22,.09h.12s.24-.04,.24-.04l.23-.11,.28-.18,.17-.06h.38s1.26-.24,1.26-.24l2.24,.03,.38-.19,.27-.23,.14-.04h.22s.55,.13,.55,.13h1.14l1.99,.32,.42-.1,.4-.31h.08s.37,.07,.37,.07l1.03,.17,1.03,.17,1.03,.18,1.02,.17,1.03,.18,1.03,.17,1.03,.17,1.03,.17,1.03,.17,1.03,.17,1.03,.17,1.03,.16,1.03,.17,1.03,.16,1.03,.16,1.09,.17v.05s.02,.34,.02,.34l.15,.63,.41,.54,.04,.18,.07,.15,.56,.21,.07,.08,.14,.21,.42,.34,.32,.12,.1,.12,.08,.13,.08,.22,.08,.46,.21,.57,.02,.22-.02,.23-.09,.19-.14,.15-.27,.22-.06,.07-.2,.34-.08,.22-.04,.1-.46,.41-.17,.34-.32,.27-.13,.18-.07,.22-.09,.44-.11,.17-.13,.17-.24,.63-.23,.39-1.05,1.11-.08,.11-.04,.11v.13l.02,.09,.03,.06v.03s-.03,.22-.03,.22l-.17,.48-.1,.19-.24,.35-.54,.62-.13,.12-.17,.1-.54,.23-.17,.15-.11,.14-.31,.51-.27,.34-.12,.22-.13,.41-.12,.19-.14,.17-.12,.11-.1,.03h-.09s-.08,.05-.08,.05l-.05,.13-.04,.06-.09,.05-.06,.07,.03,.3-.09,.18-.12,.2-.07,.25,.02,.12,.07,.24v.14s-.02,.11-.02,.11l-.06,.13-.02,.11,.02,.21,.11,.17,.28,.27,.09-.07,.08-.08,.09-.07,.12-.02,.1,.04,.05,.1,.03,.11,.05,.09,.17,.08,.14-.02,.16-.04h.19l.09,.05,.02,.1-.03,.12v.12l.04,.16,.03,.06,.17,.13,.12,.12,.13,.18,.02,.11-.04,.07-.07,.05-.04,.06-.02,.12-.03,.13-.05,.12-.08,.1-.1,.03-.11-.03h-.12l-.1,.08-.03,.17,.17,.4,.02,.24-.02,.12-.04,.08-.05,.07-.06,.12-.12,.43-.16,.33-.07,.25-.13,.23-.12,.13-.2,.11-.16,.16,.02,.26v.08h0v.14s-.14,.97-.14,.97l-.08,.48-.17,1.11-.17,1.11-.17,1.12-.17,1.11-.17,1.11-.17,1.11-.17,1.12-.17,1.11-.17,1.11-.17,1.12-.17,1.12-.17,1.11-.17,1.12-.17,1.12-.17,1.11-.17,1.12-1.57-.24-1.56-.25-1.56-.25-1.56-.25-1.56-.26-1.56-.26-1.56-.26-1.56-.26-1.56-.27-1.56-.27-1.56-.27-1.56-.27-1.56-.27-1.56-.27-1.56-.28-1.56-.28-2.19-.41-2.19-.41-2.18-.41-2.18-.42-2.19-.42-2.18-.43-2.18-.43-2.18-.44-2.18-.44-2.18-.45-2.18-.45-2.17-.46-2.18-.47-2.17-.47-2.17-.47-2.17-.47-.04-.02-.23-.05-.07-.26-.42-.46-.27-.53-.1-.09-.03-.12,.06-1.18-.05-.26-.12-.13,.04-.11,.02-.24v-.42s-.02-.03-.02-.03l-.07-.09-.04-.09,.1-.06,.06-.07,.1-.16,.05-.12,.04-.17,.06-.37v-.32l.02-.12,.07-.15,.27-.37,.07-.13,.15-.35v-.53s.06-.34,.06-.34v-.19l-.07-.12-.11-.1-.09-.12-.07-.19-.05-.35-.05-.16-.13,.07-.05-.15v-.62s-.03-.14-.03-.14l-.07-.12-.12-.12,.18-.09,.62-.87,.42-.58,.13-.14,.14-.12,.13-.15,.09-.22,.06-.22,.16-.46,.64-1.38,.12-.46,.02-.16,.03-.07,.08-.11,.1-.09,.17-.06,.09-.05,.09,.02-.09,.59,.1,.15,.06,.02,.06-.27,.02-.13-.02-.13,.09,.02h.06s.04-.05,.04-.05l.07-.08-.08-.13,.14-.22,.25-.22,.22-.07,.11,.06v.1l-.03,.13,.02,.19,.08,.12,.15,.11,.16,.06,.13-.02-.21-.46v-.27s-.05-.09-.05-.09l-.04-.07v-.06s.02-.09,.02-.09l.14-.21-.3,.11-.37,.23-.33,.27-.25,.27-.04-.09,.2-.24,.83-1.33,.04-.12,.13-.21,.17-.49,.09-.14,.12-.12,.24-.14,.12-.1,.09-.14,.07-.13,.08-.08h.12s0,.02,0,.02l-.02,.07v.08l.06,.04,.37,.08,.02-.07-.08-.13-.16-.17-.18-.12-.17,.02-.12,.17-.13,.24-.11,.12-.04-.19,.05-.23,.24-.42,.46-1.25,.17-.43,.06-.17,.1-.44,.04-.08,.12-.04,.07-.1v-.06l-.02-.32v-.14s.03-.08,.03-.08l.02-.07,.13-.32,.32-.89,.12-.68,.14-.38v-.07s-.02-.11-.02-.11v-.07s.04-.06,.04-.06l.09-.07,.03-.05,.29-.6,.07-.21,.09-.15,.15,.03,.27,.19-.04-.3-.12-.04-.16,.02-.12-.12v-.2s.05-.26,.05-.26l.53-1.32h.09s.15,.15,.15,.15l.15,.08,.06-.17-.03-.15h-.08l-.1,.03-.1-.04-.05-.13,.02-.11,.03-.11-.02-.15v-.14s.17-.47,.17-.47l.04-.22v-.19s.13-.66,.13-.66l.09-.16,.14-.17,.14-.19,.06-.19,.02-.08,.08-.03,.07-.07,.05-.18v-.07s-.03-.06-.03-.06l.12-.23,.1-.32,.16-.47-.06-.13,.03-.1,.12-.17,.21-.21,.12-.24,.11-.25,.02-.16,.03-.25v-.12s.05-.15,.05-.15l.12-.39,.03-.02h.03s.05-.03,.05-.03l.03-.05v-.06l.06-.3,.04-.26-.06-.09-.12-.08-.11-.03,.02-.07,.17-.02,.09-.12,.07-.18,.05-.13,.05-.11,.04-.07,.04-.06,.02,.02-.02,.04-.12,.32,.16-.08,.14-.15,.13-.11-.25-.22-.09-.22,.11-.45,.14-.21,.11-.33,.07-.08-.05,.33v.29s.07,.16,.07,.16l.12,.06,.12,.13,.06-.02,.07-.09,.16-.07v-.08s-.17-.07-.17-.07l-.07-.15,.02-.2,.08-.22h-.24s-.15-.18-.15-.18l-.07-.09,.04-.13,.15-.32,.11-.24,.21-.13,.08-.09,.09-.05,.1-.02,.1-.04,.1-.11h-.06s-.03,0-.03,0h-.04s-.05,.03-.05,.03l-.1-.1h-.1s-.09,.1-.09,.1l-.07,.06-.08,.1,.08-.32v-.32s-.11-.27-.11-.27l-.17-.15,.27-.34,.1-.2,.16-.6,.02-.26-.02-.25-.12-.23,.09-.1,.08-.02,.09-.02,.23-.14,.05-.06,.08-.12,.09-.22,.06-.24,.04-.25,.02-.24-.02-.42-.2-.92v-.24s.17,0,.17,0l-.03,.03-.02,.03-.03,.07,.2,.07,.2,.17,.17,.21,.11,.18,.12,.12,.27,.03,.09,.07,.02,.17-.04,.15-.02,.14,.08,.15,.02-.14,.04-.12,.07-.07h.11s.02-.07,.02-.07l-.06-.08-.12-.22-.07-.06-.08-.02-.07-.04-.06-.07-.05-.08,.16-.02,.3,.04,.15-.06,.12-.02,.08,.1,.11,.25,.12,.09,.12,.02,.74,.02,.13-.03-.09-.13-.05-.04,.12-.02,.25,.06h.14s.24-.11,.24-.11l.12-.02h.17s.09,.06,.09,.06l.08,.09,.29,.66,.03,.1,.11,.13,.81,.32,.47,.1,.12-.03,.28-.23,.15-.07h0Z"/>
  <g>
    <path d="M44.13,44.49c.39,.22,.7,.53,.93,.93,.23,.4,.34,.84,.34,1.34s-.11,.95-.34,1.35-.54,.71-.93,.93c-.39,.22-.82,.33-1.3,.33s-.91-.11-1.3-.33c-.39-.22-.7-.53-.93-.93s-.34-.85-.34-1.35,.11-.95,.34-1.34c.23-.4,.54-.71,.93-.93,.39-.22,.82-.33,1.3-.33s.92,.11,1.31,.33Zm-2.27,1.2c-.24,.26-.36,.62-.36,1.07s.12,.8,.36,1.07c.24,.26,.56,.4,.96,.4s.72-.13,.96-.4c.24-.26,.36-.62,.36-1.07s-.12-.8-.36-1.07-.56-.4-.96-.4-.72,.13-.96,.39Z"/>
    <path d="M48.7,49.33l-1.1-1.92h-.28v1.92h-1.23v-5.09h2.1c.4,0,.74,.07,1.02,.21,.28,.14,.49,.33,.63,.57,.14,.24,.21,.52,.21,.83,0,.37-.1,.68-.31,.94-.2,.26-.5,.44-.89,.53l1.21,2h-1.36Zm-1.38-2.76h.76c.24,0,.42-.05,.54-.16,.12-.11,.17-.27,.17-.48s-.06-.36-.18-.48-.3-.17-.54-.17h-.76v1.29Z"/>
  </g>
</svg>