<?xml version="1.0" encoding="utf-8"?>
<!-- Generator: Adobe Illustrator 26.5.0, SVG Export Plug-In . SVG Version: 6.00 Build 0)  -->
<svg version="1.1" xmlns="http://www.w3.org/2000/svg" xmlns:xlink="http://www.w3.org/1999/xlink" x="0px" y="0px"
	 viewBox="0 0 90 90" style="enable-background:new 0 0 90 90;" xml:space="preserve">
<style type="text/css">
	.st0{fill:#CECECE;stroke:#F9F9F9;stroke-width:0.025;stroke-linecap:round;stroke-linejoin:round;}
	.st1{display:none;fill:none;stroke:#47CCCC;stroke-width:0.5;stroke-linecap:round;stroke-linejoin:round;}
	.st2{fill:#CECECE;}
</style>
<g id="ALABAMA">
</g>
<g id="ALASKA">
</g>
<g id="ARIZONA">
</g>
<g id="ARKANSAS_1_">
</g>
<g id="CALIFORNIA">
</g>
<g id="COLORADO">
</g>
<g id="CONNECTICUT">
</g>
<g id="DELAWARE">
</g>
<g id="DC">
</g>
<g id="FLORIDA">
</g>
<g id="GEORGIA">
</g>
<g id="HAWAII">
</g>
<g id="IDAHO">
</g>
<g id="IOWA">
</g>
<g id="ILLINOIS">
</g>
<g id="INDIANA">
</g>
<g id="KANSAS">
</g>
<g id="KETUCKY">
</g>
<g id="LOUISANA">
</g>
<g id="MAINE">
</g>
<g id="MARYLAND">
</g>
<g id="MASSACHUSETTS">
</g>
<g id="MICHIGAN">
</g>
<g id="MINNESOTA">
</g>
<g id="MISSOURI">
</g>
<g id="MISSISSIPPI">
</g>
<g id="MONTANA">
</g>
<g id="NORTH_CAROLINA">
</g>
<g id="NORTH_DAKOTA">
</g>
<g id="NEBRASKA">
</g>
<g id="NEW_HAMPSHIRE">
</g>
<g id="NEW_JERSEY">
</g>
<g id="NEW_YORK">
</g>
<g id="NEW_MEXICO">
</g>
<g id="NEVADA">
</g>
<g id="OHIO">
</g>
<g id="OKLAHOMA">
</g>
<g id="OREGON">
	<path id="OR_1_" class="st0" d="M29.59,18.95l0.52,0.02l0.14,0.07l0.09,0.12l0.23,0.26l0.1,0.08l0.23,0.09l0.23,0.16l0.22,0.19
		l0.17,0.19l0.11,0.2l0.09,0.24l0.06,0.26v0.42l0.08,0.14l0.11,0.12l0.08,0.16l0.01,0.18l-0.03,0.49l0.07,0.4l-0.05,0.19l-0.08,0.21
		l-0.05,0.24l0.12,0.33l0.01,0.11l-0.03,0.12l-0.08,0.2l-0.03,0.12l-0.05,0.42v0.25l0.04,0.19l0.11,0.17l0.16,0.18l0.17,0.15
		l0.6,0.24l0.34-0.01l0.12,0.02l0.23,0.18l0.39,0.18l0.21,0.17l0.67,0.15l0.6,0.36l0.16-0.01l0.16-0.06l0.63-0.05l1.53-0.22
		l0.36-0.12l0.63-0.32l0.37-0.11l0.23,0.01l0.57,0.23l1.21,0.03l2.34,0.68l0.36,0.2l0.13,0.16l0.05,0.17l0.03,0.2l0.06,0.24
		l0.12,0.12l0.18,0.02l0.76-0.17h0.04l0.17,0.04l0.08,0.04l0.04,0.01l0.27,0.04l0.08,0.02l0.11,0.07l0.33,0.1l0.36-0.02L47,28.26
		l0.05-0.01l0.4-0.2l0.07-0.01h0.59l0.4-0.07l0.05-0.08l0.07-0.05l0.23-0.09h0.09l1.16,0.44l0.09,0.01l0.21-0.05h0.07l0.4,0.14
		l0.09,0.01l0.2-0.03l0.35-0.12l0.08-0.01l0.12,0.02l0.22,0.09l0.12,0.01l0.24-0.05l0.23-0.11l0.28-0.18l0.17-0.06l0.38,0.01
		l1.26-0.25l2.24,0.03l0.38-0.19l0.27-0.23l0.14-0.04l0.22,0.01l0.55,0.12h0.42h0.72l1.99,0.32l0.42-0.1l0.4-0.31l0.08,0.01
		l0.37,0.07l1.03,0.17l1.03,0.17l1.03,0.18L66.94,28l1.03,0.18L69,28.34l1.03,0.17l1.03,0.17l1.03,0.17l1.03,0.17l1.03,0.17
		l1.03,0.16l1.03,0.17l1.03,0.16l1.03,0.16l1.09,0.17l0.01,0.05l0.02,0.34l0.15,0.63l0.41,0.54L80,31.73l0.07,0.15l0.56,0.21
		l0.07,0.08l0.14,0.21l0.42,0.34l0.32,0.12l0.1,0.12l0.08,0.13l0.08,0.22l0.08,0.46l0.21,0.57l0.02,0.22l-0.02,0.23l-0.09,0.19
		l-0.14,0.15l-0.27,0.22l-0.06,0.07l-0.2,0.34l-0.08,0.22l-0.04,0.1l-0.46,0.41l-0.17,0.34l-0.32,0.27l-0.13,0.18l-0.07,0.22
		L80,37.92l-0.11,0.17l-0.13,0.17l-0.24,0.63l-0.23,0.39l-1.05,1.11l-0.08,0.11l-0.04,0.11v0.13l0.02,0.09l0.03,0.06l0.01,0.03
		l-0.04,0.22l-0.17,0.48l-0.1,0.19l-0.24,0.35l-0.54,0.62l-0.13,0.12l-0.17,0.1l-0.54,0.23l-0.17,0.15l-0.11,0.14l-0.31,0.51
		l-0.27,0.34l-0.12,0.22l-0.13,0.41l-0.12,0.19l-0.14,0.17l-0.12,0.11l-0.1,0.03l-0.09,0.01l-0.08,0.04l-0.05,0.13l-0.04,0.06
		l-0.09,0.05l-0.06,0.07l0.03,0.3l-0.09,0.18l-0.12,0.2l-0.07,0.25l0.02,0.12l0.07,0.24l0.01,0.14l-0.03,0.11l-0.06,0.13l-0.02,0.11
		l0.02,0.21l0.11,0.17l0.28,0.27l0.09-0.07l0.08-0.08l0.09-0.07l0.12-0.02l0.1,0.04l0.05,0.1l0.03,0.11l0.05,0.09l0.17,0.08
		l0.14-0.02l0.16-0.04h0.19l0.09,0.05l0.02,0.1l-0.03,0.12v0.12l0.04,0.16L75.81,49l0.17,0.13l0.12,0.12l0.13,0.18l0.02,0.11
		l-0.04,0.07l-0.07,0.05l-0.04,0.06l-0.02,0.12l-0.03,0.13l-0.05,0.12l-0.08,0.1l-0.1,0.03l-0.11-0.03H75.6l-0.1,0.08l-0.03,0.17
		l0.17,0.4l0.02,0.24l-0.02,0.12l-0.04,0.08l-0.05,0.07l-0.06,0.12l-0.12,0.43l-0.16,0.33l-0.07,0.25l-0.13,0.23l-0.12,0.13
		l-0.2,0.11l-0.16,0.16l0.02,0.26l-0.01,0.08l0,0l0.01,0.14l-0.15,0.97l-0.08,0.48l-0.17,1.11l-0.17,1.11l-0.17,1.12l-0.17,1.11
		l-0.17,1.11l-0.17,1.11l-0.17,1.12l-0.17,1.11l-0.17,1.11l-0.17,1.12l-0.17,1.12l-0.17,1.11l-0.17,1.12l-0.17,1.12l-0.17,1.11
		l-0.17,1.12l-1.57-0.24l-1.56-0.25l-1.56-0.25l-1.56-0.25l-1.56-0.26l-1.56-0.26l-1.56-0.26l-1.56-0.26l-1.56-0.27l-1.56-0.27
		l-1.56-0.27l-1.56-0.27l-1.56-0.27l-1.56-0.27L48.15,69l-1.56-0.28l-2.19-0.41l-2.19-0.41l-2.18-0.41l-2.18-0.42l-2.19-0.42
		l-2.18-0.43l-2.18-0.43l-2.18-0.44l-2.18-0.44l-2.18-0.45l-2.18-0.45l-2.17-0.46l-2.18-0.47l-2.17-0.47l-2.17-0.47l-2.17-0.47
		l-0.04-0.02l-0.23-0.05l-0.07-0.26l-0.42-0.46l-0.27-0.53l-0.1-0.09l-0.03-0.12l0.06-1.18l-0.05-0.26l-0.12-0.13l0.04-0.11
		l0.02-0.24l0.01-0.42l-0.03-0.03l-0.07-0.09l-0.04-0.09l0.1-0.06l0.06-0.07l0.1-0.16l0.05-0.12l0.04-0.17l0.06-0.37v-0.32
		l0.02-0.12l0.07-0.15l0.27-0.37l0.07-0.13l0.15-0.35l0.01-0.53l0.05-0.34v-0.19l-0.07-0.12l-0.11-0.1l-0.09-0.12l-0.07-0.19
		l-0.05-0.35l-0.05-0.16l-0.13,0.07l-0.05-0.15L10.8,52.4l-0.02-0.14l-0.07-0.12l-0.12-0.12l0.18-0.09l0.62-0.87l0.42-0.58
		l0.13-0.14l0.14-0.12l0.13-0.15l0.09-0.22l0.06-0.22l0.16-0.46l0.64-1.38l0.12-0.46l0.02-0.16l0.03-0.07l0.08-0.11l0.1-0.09
		l0.17-0.06l0.09-0.05l0.09,0.02l-0.09,0.59l0.1,0.15l0.06,0.02L14,47.29l0.02-0.13L14,47.03l0.09,0.02l0.06-0.01L14.19,47
		l0.07-0.08l-0.08-0.13l0.14-0.22l0.25-0.22l0.22-0.07l0.11,0.06v0.1l-0.03,0.13l0.02,0.19l0.08,0.12L15.11,47l0.16,0.06l0.13-0.02
		l-0.21-0.46l-0.01-0.27l-0.04-0.09l-0.04-0.07l-0.01-0.06l0.03-0.09l0.14-0.21l-0.3,0.11l-0.37,0.23l-0.33,0.27l-0.25,0.27
		l-0.04-0.09l0.2-0.24L15.01,45l0.04-0.12l0.13-0.21l0.17-0.49l0.09-0.14l0.12-0.12l0.24-0.14l0.12-0.1l0.09-0.14l0.07-0.13
		l0.08-0.08l0.12-0.01v0.03l-0.02,0.07v0.08l0.06,0.04l0.37,0.08l0.02-0.07l-0.08-0.13l-0.16-0.17l-0.18-0.12l-0.17,0.02l-0.12,0.17
		l-0.13,0.24l-0.11,0.12l-0.04-0.19l0.05-0.23l0.24-0.42l0.46-1.25l0.17-0.43l0.06-0.17l0.1-0.44l0.04-0.08l0.12-0.04l0.07-0.1
		v-0.06l-0.02-0.32l0.01-0.14l0.02-0.08l0.02-0.07l0.13-0.32l0.32-0.89l0.12-0.68l0.14-0.38l0.01-0.07l-0.03-0.11l0.01-0.07
		l0.03-0.06l0.09-0.07l0.03-0.05l0.29-0.6l0.07-0.21l0.09-0.15l0.15,0.03l0.27,0.19l-0.04-0.3l-0.12-0.04l-0.16,0.02l-0.12-0.12
		l-0.01-0.2l0.06-0.26l0.53-1.32L19.04,34l0.15,0.14l0.15,0.08l0.06-0.17l-0.03-0.15h-0.08l-0.1,0.03l-0.1-0.04l-0.05-0.13
		l0.02-0.11l0.03-0.11l-0.02-0.15l0.01-0.14l0.16-0.47l0.04-0.22l0.01-0.19l0.12-0.66l0.09-0.16l0.14-0.17l0.14-0.19l0.06-0.19
		l0.02-0.08l0.08-0.03l0.07-0.07l0.05-0.18l-0.01-0.07l-0.02-0.06l0.12-0.23l0.1-0.32l0.16-0.47l-0.06-0.13l0.03-0.1l0.12-0.17
		l0.21-0.21l0.12-0.24l0.11-0.25l0.02-0.16l0.03-0.25l0.01-0.12l0.04-0.15l0.12-0.39l0.03-0.02l0.03-0.01l0.05-0.02l0.03-0.05v-0.06
		l0.06-0.3l0.04-0.26l-0.06-0.09l-0.12-0.08l-0.11-0.03l0.02-0.07l0.17-0.02l0.09-0.12l0.07-0.18l0.05-0.13l0.05-0.11l0.04-0.07
		l0.04-0.06l0.02,0.02l-0.02,0.04l-0.12,0.32l0.16-0.08l0.14-0.15l0.13-0.11l-0.25-0.22l-0.09-0.22l0.11-0.45l0.14-0.21l0.11-0.33
		l0.07-0.08l-0.05,0.33l-0.01,0.29l0.08,0.16l0.12,0.06l0.12,0.13l0.06-0.02l0.07-0.09l0.16-0.07l0.01-0.08l-0.17-0.07l-0.07-0.15
		l0.02-0.2l0.08-0.22l-0.24,0.01l-0.15-0.19l-0.07-0.09l0.04-0.13l0.15-0.32l0.11-0.24l0.21-0.13l0.08-0.09l0.09-0.05l0.1-0.02
		l0.1-0.04l0.1-0.11l-0.06,0.01h-0.03l-0.04,0.01l-0.05,0.02l-0.1-0.1l-0.1,0.01l-0.09,0.09l-0.07,0.06l-0.08,0.1l0.08-0.32
		l-0.01-0.32l-0.1-0.27l-0.17-0.15l0.27-0.34l0.1-0.2l0.16-0.6l0.02-0.26l-0.02-0.25l-0.12-0.23l0.09-0.1l0.08-0.02l0.09-0.02
		l0.23-0.14l0.05-0.06l0.08-0.12l0.09-0.22l0.06-0.24l0.04-0.25l0.02-0.24l-0.02-0.42l-0.2-0.92l0.01-0.24l0.16-0.01l-0.03,0.03
		l-0.02,0.03l-0.03,0.07l0.2,0.07l0.2,0.17l0.17,0.21l0.11,0.18l0.12,0.12l0.27,0.03l0.09,0.07l0.02,0.17l-0.04,0.15l-0.02,0.14
		l0.08,0.15l0.02-0.14l0.04-0.12l0.07-0.07l0.11-0.01l0.02-0.06l-0.06-0.08l-0.12-0.22l-0.07-0.06l-0.08-0.02l-0.07-0.04l-0.06-0.07
		l-0.05-0.08l0.16-0.02l0.3,0.04l0.15-0.06l0.12-0.02l0.08,0.1l0.11,0.25l0.12,0.09l0.12,0.02l0.74,0.02l0.13-0.03l-0.09-0.13
		l-0.05-0.04l0.12-0.02l0.25,0.06l0.14-0.01l0.24-0.1L27,17.82l0.17,0.01l0.09,0.05l0.08,0.09l0.29,0.66l0.03,0.1l0.11,0.13
		l0.81,0.32l0.47,0.1l0.12-0.03l0.28-0.23L29.59,18.95L29.59,18.95z"/>
	<path id="OR_2_" class="st1" d="M29.59,18.95l0.52,0.02l0.14,0.07l0.09,0.12l0.23,0.26l0.1,0.08l0.23,0.09l0.23,0.16l0.22,0.19
		l0.17,0.19l0.11,0.2l0.09,0.24l0.06,0.26v0.42l0.08,0.14l0.11,0.12l0.08,0.16l0.01,0.18l-0.03,0.49l0.07,0.4l-0.05,0.19l-0.08,0.21
		l-0.05,0.24l0.12,0.33l0.01,0.11l-0.03,0.12l-0.08,0.2l-0.03,0.12l-0.05,0.42v0.25l0.04,0.19l0.11,0.17l0.16,0.18l0.17,0.15
		l0.6,0.24l0.34-0.01l0.12,0.02l0.23,0.18l0.39,0.18l0.21,0.17l0.67,0.15l0.6,0.36l0.16-0.01l0.16-0.06l0.63-0.05l1.53-0.22
		l0.36-0.12l0.63-0.32l0.37-0.11l0.23,0.01l0.57,0.23l1.21,0.03l2.34,0.68l0.36,0.2l0.13,0.16l0.05,0.17l0.03,0.2l0.06,0.24
		l0.12,0.12l0.18,0.02l0.76-0.17h0.04l0.17,0.04l0.08,0.04l0.04,0.01l0.27,0.04l0.08,0.02l0.11,0.07l0.33,0.1l0.36-0.02L47,28.26
		l0.05-0.01l0.4-0.2l0.07-0.01h0.59l0.4-0.07l0.05-0.08l0.07-0.05l0.23-0.09h0.09l1.16,0.44l0.09,0.01l0.21-0.05h0.07l0.4,0.14
		l0.09,0.01l0.2-0.03l0.35-0.12l0.08-0.01l0.12,0.02l0.22,0.09l0.12,0.01l0.24-0.05l0.23-0.11l0.28-0.18l0.17-0.06l0.38,0.01
		l1.26-0.25l2.24,0.03l0.38-0.19l0.27-0.23l0.14-0.04l0.22,0.01l0.55,0.12h0.42h0.72l1.99,0.32l0.42-0.1l0.4-0.31l0.08,0.01
		l0.37,0.07l1.03,0.17l1.03,0.17l1.03,0.18L66.94,28l1.03,0.18L69,28.34l1.03,0.17l1.03,0.17l1.03,0.17l1.03,0.17l1.03,0.17
		l1.03,0.16l1.03,0.17l1.03,0.16l1.03,0.16l1.09,0.17l0.01,0.05l0.02,0.34l0.15,0.63l0.41,0.54L80,31.73l0.07,0.15l0.56,0.21
		l0.07,0.08l0.14,0.21l0.42,0.34l0.32,0.12l0.1,0.12l0.08,0.13l0.08,0.22l0.08,0.46l0.21,0.57l0.02,0.22l-0.02,0.23l-0.09,0.19
		l-0.14,0.15l-0.27,0.22l-0.06,0.07l-0.2,0.34l-0.08,0.22l-0.04,0.1l-0.46,0.41l-0.17,0.34l-0.32,0.27l-0.13,0.18l-0.07,0.22
		L80,37.92l-0.11,0.17l-0.13,0.17l-0.24,0.63l-0.23,0.39l-1.05,1.11l-0.08,0.11l-0.04,0.11v0.13l0.02,0.09l0.03,0.06l0.01,0.03
		l-0.04,0.22l-0.17,0.48l-0.1,0.19l-0.24,0.35l-0.54,0.62l-0.13,0.12l-0.17,0.1l-0.54,0.23l-0.17,0.15l-0.11,0.14l-0.31,0.51
		l-0.27,0.34l-0.12,0.22l-0.13,0.41l-0.12,0.19l-0.14,0.17l-0.12,0.11l-0.1,0.03l-0.09,0.01l-0.08,0.04l-0.05,0.13l-0.04,0.06
		l-0.09,0.05l-0.06,0.07l0.03,0.3l-0.09,0.18l-0.12,0.2l-0.07,0.25l0.02,0.12l0.07,0.24l0.01,0.14l-0.03,0.11l-0.06,0.13l-0.02,0.11
		l0.02,0.21l0.11,0.17l0.28,0.27l0.09-0.07l0.08-0.08l0.09-0.07l0.12-0.02l0.1,0.04l0.05,0.1l0.03,0.11l0.05,0.09l0.17,0.08
		l0.14-0.02l0.16-0.04h0.19l0.09,0.05l0.02,0.1l-0.03,0.12v0.12l0.04,0.16L75.81,49l0.17,0.13l0.12,0.12l0.13,0.18l0.02,0.11
		l-0.04,0.07l-0.07,0.05l-0.04,0.06l-0.02,0.12l-0.03,0.13l-0.05,0.12l-0.08,0.1l-0.1,0.03l-0.11-0.03H75.6l-0.1,0.08l-0.03,0.17
		l0.17,0.4l0.02,0.24l-0.02,0.12l-0.04,0.08l-0.05,0.07l-0.06,0.12l-0.12,0.43l-0.16,0.33l-0.07,0.25l-0.13,0.23l-0.12,0.13
		l-0.2,0.11l-0.16,0.16l0.02,0.26l-0.01,0.08l0,0l0.01,0.14l-0.15,0.97l-0.08,0.48l-0.17,1.11l-0.17,1.11l-0.17,1.12l-0.17,1.11
		l-0.17,1.11l-0.17,1.11l-0.17,1.12l-0.17,1.11l-0.17,1.11l-0.17,1.12l-0.17,1.12l-0.17,1.11l-0.17,1.12l-0.17,1.12l-0.17,1.11
		l-0.17,1.12l-1.57-0.24l-1.56-0.25l-1.56-0.25l-1.56-0.25l-1.56-0.26l-1.56-0.26l-1.56-0.26l-1.56-0.26l-1.56-0.27l-1.56-0.27
		l-1.56-0.27l-1.56-0.27l-1.56-0.27l-1.56-0.27L48.15,69l-1.56-0.28l-2.19-0.41l-2.19-0.41l-2.18-0.41l-2.18-0.42l-2.19-0.42
		l-2.18-0.43l-2.18-0.43l-2.18-0.44l-2.18-0.44l-2.18-0.45l-2.18-0.45l-2.17-0.46l-2.18-0.47l-2.17-0.47l-2.17-0.47l-2.17-0.47
		l-0.04-0.02l-0.23-0.05l-0.07-0.26l-0.42-0.46l-0.27-0.53l-0.1-0.09l-0.03-0.12l0.06-1.18l-0.05-0.26l-0.12-0.13l0.04-0.11
		l0.02-0.24l0.01-0.42l-0.03-0.03l-0.07-0.09l-0.04-0.09l0.1-0.06l0.06-0.07l0.1-0.16l0.05-0.12l0.04-0.17l0.06-0.37v-0.32
		l0.02-0.12l0.07-0.15l0.27-0.37l0.07-0.13l0.15-0.35l0.01-0.53l0.05-0.34v-0.19l-0.07-0.12l-0.11-0.1l-0.09-0.12l-0.07-0.19
		l-0.05-0.35l-0.05-0.16l-0.13,0.07l-0.05-0.15L10.8,52.4l-0.02-0.14l-0.07-0.12l-0.12-0.12l0.18-0.09l0.62-0.87l0.42-0.58
		l0.13-0.14l0.14-0.12l0.13-0.15l0.09-0.22l0.06-0.22l0.16-0.46l0.64-1.38l0.12-0.46l0.02-0.16l0.03-0.07l0.08-0.11l0.1-0.09
		l0.17-0.06l0.09-0.05l0.09,0.02l-0.09,0.59l0.1,0.15l0.06,0.02L14,47.29l0.02-0.13L14,47.03l0.09,0.02l0.06-0.01L14.19,47
		l0.07-0.08l-0.08-0.13l0.14-0.22l0.25-0.22l0.22-0.07l0.11,0.06v0.1l-0.03,0.13l0.02,0.19l0.08,0.12L15.11,47l0.16,0.06l0.13-0.02
		l-0.21-0.46l-0.01-0.27l-0.04-0.09l-0.04-0.07l-0.01-0.06l0.03-0.09l0.14-0.21l-0.3,0.11l-0.37,0.23l-0.33,0.27l-0.25,0.27
		l-0.04-0.09l0.2-0.24L15.01,45l0.04-0.12l0.13-0.21l0.17-0.49l0.09-0.14l0.12-0.12l0.24-0.14l0.12-0.1l0.09-0.14l0.07-0.13
		l0.08-0.08l0.12-0.01v0.03l-0.02,0.07v0.08l0.06,0.04l0.37,0.08l0.02-0.07l-0.08-0.13l-0.16-0.17l-0.18-0.12l-0.17,0.02l-0.12,0.17
		l-0.13,0.24l-0.11,0.12l-0.04-0.19l0.05-0.23l0.24-0.42l0.46-1.25l0.17-0.43l0.06-0.17l0.1-0.44l0.04-0.08l0.12-0.04l0.07-0.1
		v-0.06l-0.02-0.32l0.01-0.14l0.02-0.08l0.02-0.07l0.13-0.32l0.32-0.89l0.12-0.68l0.14-0.38l0.01-0.07l-0.03-0.11l0.01-0.07
		l0.03-0.06l0.09-0.07l0.03-0.05l0.29-0.6l0.07-0.21l0.09-0.15l0.15,0.03l0.27,0.19l-0.04-0.3l-0.12-0.04l-0.16,0.02l-0.12-0.12
		l-0.01-0.2l0.06-0.26l0.53-1.32L19.04,34l0.15,0.14l0.15,0.08l0.06-0.17l-0.03-0.15h-0.08l-0.1,0.03l-0.1-0.04l-0.05-0.13
		l0.02-0.11l0.03-0.11l-0.02-0.15l0.01-0.14l0.16-0.47l0.04-0.22l0.01-0.19l0.12-0.66l0.09-0.16l0.14-0.17l0.14-0.19l0.06-0.19
		l0.02-0.08l0.08-0.03l0.07-0.07l0.05-0.18l-0.01-0.07l-0.02-0.06l0.12-0.23l0.1-0.32l0.16-0.47l-0.06-0.13l0.03-0.1l0.12-0.17
		l0.21-0.21l0.12-0.24l0.11-0.25l0.02-0.16l0.03-0.25l0.01-0.12l0.04-0.15l0.12-0.39l0.03-0.02l0.03-0.01l0.05-0.02l0.03-0.05v-0.06
		l0.06-0.3l0.04-0.26l-0.06-0.09l-0.12-0.08l-0.11-0.03l0.02-0.07l0.17-0.02l0.09-0.12l0.07-0.18l0.05-0.13l0.05-0.11l0.04-0.07
		l0.04-0.06l0.02,0.02l-0.02,0.04l-0.12,0.32l0.16-0.08l0.14-0.15l0.13-0.11l-0.25-0.22l-0.09-0.22l0.11-0.45l0.14-0.21l0.11-0.33
		l0.07-0.08l-0.05,0.33l-0.01,0.29l0.08,0.16l0.12,0.06l0.12,0.13l0.06-0.02l0.07-0.09l0.16-0.07l0.01-0.08l-0.17-0.07l-0.07-0.15
		l0.02-0.2l0.08-0.22l-0.24,0.01l-0.15-0.19l-0.07-0.09l0.04-0.13l0.15-0.32l0.11-0.24l0.21-0.13l0.08-0.09l0.09-0.05l0.1-0.02
		l0.1-0.04l0.1-0.11l-0.06,0.01h-0.03l-0.04,0.01l-0.05,0.02l-0.1-0.1l-0.1,0.01l-0.09,0.09l-0.07,0.06l-0.08,0.1l0.08-0.32
		l-0.01-0.32l-0.1-0.27l-0.17-0.15l0.27-0.34l0.1-0.2l0.16-0.6l0.02-0.26l-0.02-0.25l-0.12-0.23l0.09-0.1l0.08-0.02l0.09-0.02
		l0.23-0.14l0.05-0.06l0.08-0.12l0.09-0.22l0.06-0.24l0.04-0.25l0.02-0.24l-0.02-0.42l-0.2-0.92l0.01-0.24l0.16-0.01l-0.03,0.03
		l-0.02,0.03l-0.03,0.07l0.2,0.07l0.2,0.17l0.17,0.21l0.11,0.18l0.12,0.12l0.27,0.03l0.09,0.07l0.02,0.17l-0.04,0.15l-0.02,0.14
		l0.08,0.15l0.02-0.14l0.04-0.12l0.07-0.07l0.11-0.01l0.02-0.06l-0.06-0.08l-0.12-0.22l-0.07-0.06l-0.08-0.02l-0.07-0.04l-0.06-0.07
		l-0.05-0.08l0.16-0.02l0.3,0.04l0.15-0.06l0.12-0.02l0.08,0.1l0.11,0.25l0.12,0.09l0.12,0.02l0.74,0.02l0.13-0.03l-0.09-0.13
		l-0.05-0.04l0.12-0.02l0.25,0.06l0.14-0.01l0.24-0.1L27,17.82l0.17,0.01l0.09,0.05l0.08,0.09l0.29,0.66l0.03,0.1l0.11,0.13
		l0.81,0.32l0.47,0.1l0.12-0.03l0.28-0.23L29.59,18.95L29.59,18.95z"/>
</g>
<g id="PENNSYLVANIA">
</g>
<g id="RHODE_ISLAND">
</g>
<g id="SOUTH_CAROLINA">
</g>
<g id="SOUTH_DAKOTA">
</g>
<g id="TENNESSEE">
</g>
<g id="TEXAS">
</g>
<g id="UTAH">
</g>
<g id="VIRGINIA">
</g>
<g id="VERMONT">
</g>
<g id="WASHINGTON">
</g>
<g id="WISCONSIN">
</g>
<g id="WEST_VIRGINIA">
</g>
<g id="WYOMING">
</g>
</svg>
