<?xml version="1.0" encoding="utf-8"?>
<!-- Generator: Adobe Illustrator 26.5.0, SVG Export Plug-In . SVG Version: 6.00 Build 0)  -->
<svg version="1.1" xmlns="http://www.w3.org/2000/svg" xmlns:xlink="http://www.w3.org/1999/xlink" x="0px" y="0px"
	 viewBox="0 0 90 90" style="enable-background:new 0 0 90 90;" xml:space="preserve">
<style type="text/css">
	.st0{fill:#CECECE;stroke:#F9F9F9;stroke-width:0.025;stroke-linecap:round;stroke-linejoin:round;}
	.st1{display:none;fill:none;stroke:#47CCCC;stroke-width:0.5;stroke-linecap:round;stroke-linejoin:round;}
	.st2{fill:#CECECE;}
</style>
<g id="ALABAMA">
</g>
<g id="ALASKA">
</g>
<g id="ARIZONA">
</g>
<g id="ARKANSAS_1_">
</g>
<g id="CALIFORNIA">
</g>
<g id="COLORADO">
</g>
<g id="CONNECTICUT">
</g>
<g id="DELAWARE">
</g>
<g id="DC">
</g>
<g id="FLORIDA">
</g>
<g id="GEORGIA">
</g>
<g id="HAWAII">
</g>
<g id="IDAHO">
</g>
<g id="IOWA">
</g>
<g id="ILLINOIS">
</g>
<g id="INDIANA">
</g>
<g id="KANSAS">
</g>
<g id="KETUCKY">
</g>
<g id="LOUISANA">
</g>
<g id="MAINE">
</g>
<g id="MARYLAND">
</g>
<g id="MASSACHUSETTS">
</g>
<g id="MICHIGAN">
</g>
<g id="MINNESOTA">
</g>
<g id="MISSOURI">
</g>
<g id="MISSISSIPPI">
</g>
<g id="MONTANA">
</g>
<g id="NORTH_CAROLINA">
</g>
<g id="NORTH_DAKOTA">
</g>
<g id="NEBRASKA">
</g>
<g id="NEW_HAMPSHIRE">
</g>
<g id="NEW_JERSEY">
</g>
<g id="NEW_YORK">
</g>
<g id="NEW_MEXICO">
</g>
<g id="NEVADA">
</g>
<g id="OHIO">
</g>
<g id="OKLAHOMA">
</g>
<g id="OREGON">
</g>
<g id="PENNSYLVANIA">
	<polygon id="PA_1_" class="st0" points="84.8,52.18 83.99,51.76 83.47,51.37 82.9,50.86 82.84,50.77 82.68,50.65 81.88,50.22 
		81.55,49.62 81.32,49.38 80.87,49.68 80.54,49.56 80.22,49.28 80.02,49 79.64,47.75 79.31,47.37 78.62,47.31 78.25,47.47 
		78.07,47.43 77.87,47 77.78,46.85 77.72,46.67 77.74,46.5 77.58,45.99 77.55,45.84 77.57,45.7 77.48,45.55 77.39,45.36 
		77.39,45.12 77.45,44.61 77.41,44.61 77.34,44.51 77.29,44.37 77.34,44.3 77.41,44.22 77.48,44.07 77.53,43.77 77.79,43.83 
		78.03,43.74 78.21,43.52 78.22,43.21 78.21,42.79 78.33,42.6 78.48,42.44 78.54,42.13 78.43,41.83 78.17,41.59 77.92,41.41 
		77.79,41.3 77.74,41.2 77.69,41.16 77.6,41.16 77.53,41.17 77.48,41.16 77.46,41.1 77.46,41.02 77.44,40.96 77.24,40.79 
		77.14,40.68 77.09,40.57 77.16,40.28 77.39,39.96 77.64,39.69 77.81,39.57 78.07,39.43 78.28,39.19 78.64,38.43 78.69,38.39 
		78.68,38.35 78.63,38.15 78.67,38.06 78.77,37.94 78.88,37.83 78.96,37.77 79.1,37.61 79.57,36.58 79.69,35.8 79.72,35.31 
		79.69,35.19 79.74,34.95 80.28,34.17 80.3,34.12 80.32,33.94 80.35,33.86 80.4,33.8 80.54,33.76 80.68,33.57 80.79,33.5 
		81.07,33.41 81.28,33.19 81.27,33.17 81.13,32.85 80.85,32.55 80.7,32.42 80.54,32.18 80.45,32.07 80.34,32.03 80.21,32.11 
		80.1,32.19 79.96,32.22 79.77,32.11 79.48,32.02 78.87,32.21 78.55,32.21 78.34,32.09 78.17,31.94 77.97,31.83 77.38,31.81 
		77.11,31.67 76.9,31.46 75.95,30.27 75.75,30.16 75.67,29.99 75.56,29.13 75.48,28.79 75.16,28.22 75.17,28.06 75.32,27.88 
		75.32,27.72 75.17,27.37 74.99,27.26 74.76,27.24 74.45,27.15 74.67,26.73 74.68,26.57 74.51,26.54 74.38,26.5 74.13,26.24 
		73.76,26.2 73.42,26.03 73.25,26.01 72.58,26.29 72.33,26.17 72.18,25.83 72.06,25.43 71.91,25.15 71.61,25.02 71.18,24.93 
		70.82,24.78 70.77,24.55 70.62,24.59 70.34,24.66 68.62,25.04 66.92,25.43 65.2,25.81 63.48,26.19 61.76,26.57 60.05,26.93 
		58.33,27.31 56.61,27.68 54.89,28.04 53.17,28.41 51.45,28.78 49.73,29.15 48.01,29.5 46.29,29.87 44.57,30.22 42.85,30.57 
		41.12,30.93 39.4,31.27 37.68,31.62 35.96,31.97 34.23,32.31 32.5,32.65 30.78,32.99 29.05,33.32 27.33,33.66 25.6,33.99 
		23.88,34.33 22.15,34.66 20.43,34.98 18.7,35.31 16.96,35.62 15.24,35.95 14.77,36.04 14.67,35.47 14.58,35 14.5,34.52 
		14.41,34.04 14.32,33.56 14.23,33.08 14.14,32.6 14.05,32.12 13.96,31.65 13.95,31.61 12.47,32.55 11.99,33.04 11.5,33.31 
		11.02,33.88 10.51,34.17 9.95,34.67 9.66,34.82 9.64,34.7 9.7,34.61 9.83,34.37 9.88,34.31 10.2,34.24 10.31,34.15 10.41,33.99 
		10.11,33.93 9.89,34.1 9.73,34.36 9.44,34.61 9.35,35.01 9.22,35.13 9.12,35.18 8.81,35.54 6.91,37.06 6.14,37.37 5.96,37.52 
		5.79,37.72 5.19,38.04 5.43,39.34 6.04,42.8 6.65,46.26 6.96,47.99 7.28,49.72 7.58,51.45 7.88,53.19 8.2,54.91 8.5,56.65 
		8.82,58.39 9.12,60.12 9.12,60.13 9.12,60.13 9.12,60.14 9.12,60.16 9.12,60.17 9.13,60.17 9.13,60.18 9.13,60.19 9.6,62.85 
		9.84,64.18 10.08,65.51 10.32,66.83 10.56,68.16 10.79,69.49 11.03,70.83 11.23,71.98 11.45,73.13 11.65,74.3 11.85,75.45 
		13.56,75.14 15.25,74.84 16.96,74.52 18.66,74.22 20.36,73.9 22.06,73.59 23.75,73.27 25.46,72.95 26.96,72.68 28.46,72.39 
		29.96,72.11 31.47,71.82 32.97,71.53 34.48,71.23 35.98,70.94 37.49,70.65 38.99,70.36 40.48,70.06 41.99,69.75 43.49,69.46 
		44.99,69.16 46.49,68.86 48,68.55 49.49,68.25 50.99,67.93 52.5,67.63 53.99,67.31 55.5,67 56.99,66.68 58.5,66.38 59.99,66.05 
		61.48,65.73 62.98,65.42 64.48,65.09 65.98,64.77 67.47,64.44 68.97,64.11 70.46,63.79 71.96,63.46 73.45,63.13 73.56,63.12 
		73.57,63.08 73.76,62.55 73.94,62.03 74.14,61.45 74.33,61.17 74.57,60.92 74.78,60.75 75.17,60.54 75.45,60.42 76.02,60.27 
		76.66,60.22 77.16,60.27 77.59,60.41 77.84,60.55 77.86,60.56 78.1,60.04 78.28,59.9 78.5,59.8 79.21,59.23 79.54,59.3 
		79.84,59.17 80.31,58.75 81.02,58.3 81.17,58.08 81.02,57.75 81.01,57.37 81.11,57.03 81.31,56.87 81.58,56.72 81.92,56.25 
		82.19,56.06 82.6,55.74 82.74,55.59 83.12,54.92 83.28,54.74 83.74,54.48 83.85,54.39 84.22,53.9 84.32,53.79 84.64,53.68 
		85.03,53.44 85.34,53.14 85.43,52.77 85.21,52.45 	"/>
	<polygon id="PA_2_" class="st1" points="84.8,52.18 83.99,51.76 83.47,51.37 82.9,50.86 82.84,50.77 82.68,50.65 81.88,50.22 
		81.55,49.62 81.32,49.38 80.87,49.68 80.54,49.56 80.22,49.28 80.02,49 79.64,47.75 79.31,47.37 78.62,47.31 78.25,47.47 
		78.07,47.43 77.87,47 77.78,46.85 77.72,46.67 77.74,46.5 77.58,45.99 77.55,45.84 77.57,45.7 77.48,45.55 77.39,45.36 
		77.39,45.12 77.45,44.61 77.41,44.61 77.34,44.51 77.29,44.37 77.34,44.3 77.41,44.22 77.48,44.07 77.53,43.77 77.79,43.83 
		78.03,43.74 78.21,43.52 78.22,43.21 78.21,42.79 78.33,42.6 78.48,42.44 78.54,42.13 78.43,41.83 78.17,41.59 77.92,41.41 
		77.79,41.3 77.74,41.2 77.69,41.16 77.6,41.16 77.53,41.17 77.48,41.16 77.46,41.1 77.46,41.02 77.44,40.96 77.24,40.79 
		77.14,40.68 77.09,40.57 77.16,40.28 77.39,39.96 77.64,39.69 77.81,39.57 78.07,39.43 78.28,39.19 78.64,38.43 78.69,38.39 
		78.68,38.35 78.63,38.15 78.67,38.06 78.77,37.94 78.88,37.83 78.96,37.77 79.1,37.61 79.57,36.58 79.69,35.8 79.72,35.31 
		79.69,35.19 79.74,34.95 80.28,34.17 80.3,34.12 80.32,33.94 80.35,33.86 80.4,33.8 80.54,33.76 80.68,33.57 80.79,33.5 
		81.07,33.41 81.28,33.19 81.27,33.17 81.13,32.85 80.85,32.55 80.7,32.42 80.54,32.18 80.45,32.07 80.34,32.03 80.21,32.11 
		80.1,32.19 79.96,32.22 79.77,32.11 79.48,32.02 78.87,32.21 78.55,32.21 78.34,32.09 78.17,31.94 77.97,31.83 77.38,31.81 
		77.11,31.67 76.9,31.46 75.95,30.27 75.75,30.16 75.67,29.99 75.56,29.13 75.48,28.79 75.16,28.22 75.17,28.06 75.32,27.88 
		75.32,27.72 75.17,27.37 74.99,27.26 74.76,27.24 74.45,27.15 74.67,26.73 74.68,26.57 74.51,26.54 74.38,26.5 74.13,26.24 
		73.76,26.2 73.42,26.03 73.25,26.01 72.58,26.29 72.33,26.17 72.18,25.83 72.06,25.43 71.91,25.15 71.61,25.02 71.18,24.93 
		70.82,24.78 70.77,24.55 70.62,24.59 70.34,24.66 68.62,25.04 66.92,25.43 65.2,25.81 63.48,26.19 61.76,26.57 60.05,26.93 
		58.33,27.31 56.61,27.68 54.89,28.04 53.17,28.41 51.45,28.78 49.73,29.15 48.01,29.5 46.29,29.87 44.57,30.22 42.85,30.57 
		41.12,30.93 39.4,31.27 37.68,31.62 35.96,31.97 34.23,32.31 32.5,32.65 30.78,32.99 29.05,33.32 27.33,33.66 25.6,33.99 
		23.88,34.33 22.15,34.66 20.43,34.98 18.7,35.31 16.96,35.62 15.24,35.95 14.77,36.04 14.67,35.47 14.58,35 14.5,34.52 
		14.41,34.04 14.32,33.56 14.23,33.08 14.14,32.6 14.05,32.12 13.96,31.65 13.95,31.61 12.47,32.55 11.99,33.04 11.5,33.31 
		11.02,33.88 10.51,34.17 9.95,34.67 9.66,34.82 9.64,34.7 9.7,34.61 9.83,34.37 9.88,34.31 10.2,34.24 10.31,34.15 10.41,33.99 
		10.11,33.93 9.89,34.1 9.73,34.36 9.44,34.61 9.35,35.01 9.22,35.13 9.12,35.18 8.81,35.54 6.91,37.06 6.14,37.37 5.96,37.52 
		5.79,37.72 5.19,38.04 5.43,39.34 6.04,42.8 6.65,46.26 6.96,47.99 7.28,49.72 7.58,51.45 7.88,53.19 8.2,54.91 8.5,56.65 
		8.82,58.39 9.12,60.12 9.12,60.13 9.12,60.13 9.12,60.14 9.12,60.16 9.12,60.17 9.13,60.17 9.13,60.18 9.13,60.19 9.6,62.85 
		9.84,64.18 10.08,65.51 10.32,66.83 10.56,68.16 10.79,69.49 11.03,70.83 11.23,71.98 11.45,73.13 11.65,74.3 11.85,75.45 
		13.56,75.14 15.25,74.84 16.96,74.52 18.66,74.22 20.36,73.9 22.06,73.59 23.75,73.27 25.46,72.95 26.96,72.68 28.46,72.39 
		29.96,72.11 31.47,71.82 32.97,71.53 34.48,71.23 35.98,70.94 37.49,70.65 38.99,70.36 40.48,70.06 41.99,69.75 43.49,69.46 
		44.99,69.16 46.49,68.86 48,68.55 49.49,68.25 50.99,67.93 52.5,67.63 53.99,67.31 55.5,67 56.99,66.68 58.5,66.38 59.99,66.05 
		61.48,65.73 62.98,65.42 64.48,65.09 65.98,64.77 67.47,64.44 68.97,64.11 70.46,63.79 71.96,63.46 73.45,63.13 73.56,63.12 
		73.57,63.08 73.76,62.55 73.94,62.03 74.14,61.45 74.33,61.17 74.57,60.92 74.78,60.75 75.17,60.54 75.45,60.42 76.02,60.27 
		76.66,60.22 77.16,60.27 77.59,60.41 77.84,60.55 77.86,60.56 78.1,60.04 78.28,59.9 78.5,59.8 79.21,59.23 79.54,59.3 
		79.84,59.17 80.31,58.75 81.02,58.3 81.17,58.08 81.02,57.75 81.01,57.37 81.11,57.03 81.31,56.87 81.58,56.72 81.92,56.25 
		82.19,56.06 82.6,55.74 82.74,55.59 83.12,54.92 83.28,54.74 83.74,54.48 83.85,54.39 84.22,53.9 84.32,53.79 84.64,53.68 
		85.03,53.44 85.34,53.14 85.43,52.77 85.21,52.45 	"/>
</g>
<g id="RHODE_ISLAND">
</g>
<g id="SOUTH_CAROLINA">
</g>
<g id="SOUTH_DAKOTA">
</g>
<g id="TENNESSEE">
</g>
<g id="TEXAS">
</g>
<g id="UTAH">
</g>
<g id="VIRGINIA">
</g>
<g id="VERMONT">
</g>
<g id="WASHINGTON">
</g>
<g id="WISCONSIN">
</g>
<g id="WEST_VIRGINIA">
</g>
<g id="WYOMING">
</g>
</svg>
