<?xml version="1.0" encoding="utf-8"?>
<!-- Generator: Adobe Illustrator 26.5.0, SVG Export Plug-In . SVG Version: 6.00 Build 0)  -->
<svg version="1.1" xmlns="http://www.w3.org/2000/svg" xmlns:xlink="http://www.w3.org/1999/xlink" x="0px" y="0px"
	 viewBox="0 0 90 90" style="enable-background:new 0 0 90 90;" xml:space="preserve">
<style type="text/css">
	.st0{fill:#CECECE;stroke:#F9F9F9;stroke-width:0.025;stroke-linecap:round;stroke-linejoin:round;}
	.st1{display:none;fill:none;stroke:#47CCCC;stroke-width:0.5;stroke-linecap:round;stroke-linejoin:round;}
	.st2{fill:#CECECE;}
</style>
<g id="ALABAMA">
</g>
<g id="ALASKA">
</g>
<g id="ARIZONA">
</g>
<g id="ARKANSAS_1_">
</g>
<g id="CALIFORNIA">
</g>
<g id="COLORADO">
</g>
<g id="CONNECTICUT">
</g>
<g id="DELAWARE">
</g>
<g id="DC">
</g>
<g id="FLORIDA">
</g>
<g id="GEORGIA">
</g>
<g id="HAWAII">
</g>
<g id="IDAHO">
</g>
<g id="IOWA">
</g>
<g id="ILLINOIS">
</g>
<g id="INDIANA">
</g>
<g id="KANSAS">
</g>
<g id="KETUCKY">
</g>
<g id="LOUISANA">
</g>
<g id="MAINE">
</g>
<g id="MARYLAND">
</g>
<g id="MASSACHUSETTS">
</g>
<g id="MICHIGAN">
</g>
<g id="MINNESOTA">
</g>
<g id="MISSOURI">
</g>
<g id="MISSISSIPPI">
</g>
<g id="MONTANA">
</g>
<g id="NORTH_CAROLINA">
</g>
<g id="NORTH_DAKOTA">
</g>
<g id="NEBRASKA">
</g>
<g id="NEW_HAMPSHIRE">
</g>
<g id="NEW_JERSEY">
</g>
<g id="NEW_YORK">
</g>
<g id="NEW_MEXICO">
</g>
<g id="NEVADA">
</g>
<g id="OHIO">
</g>
<g id="OKLAHOMA">
</g>
<g id="OREGON">
</g>
<g id="PENNSYLVANIA">
</g>
<g id="RHODE_ISLAND">
	<path id="RI_1_" class="st0" d="M55.5,83.52l-0.71-0.78l-0.14-1.34l-0.28-0.92l-0.35-0.56l-0.49-0.28l-0.71,0.21l0.49,1.2
		l0.07,1.06l-0.42,0.78l-1.06,0.5l-0.35,0.7l0.07,1.42l0.64,1.2l1.13,0.35l1.98-0.92l0.85-0.63l0.42-0.64l-0.35-0.78L55.5,83.52z
		 M61.3,47.83l-0.56-1.98l-0.28-0.72l-0.35-0.49l-0.49-0.21H58.9l-0.21,3.47l0.21,1.48l0.99,0.64l-0.14,0.49v0.35l-0.14,0.35
		l-0.35,0.35l0.49,1.06l0.14,2.12l0.35,0.57l0.35-0.22l0.42-0.78l0.42-0.78l0.21-0.57l0.07-1.34l-0.07-1.76L61.3,47.83z
		 M70.56,48.89l-0.14-0.85l-0.07-0.92l-0.21-1.12l-1.69-6.79v-3.32l-0.49-1.84l-0.64,0.92l-1.48,1.55l-0.49,0.92l-0.14,1.13
		l0.21,2.69l-0.14,1.13l-0.28,0.42l-0.86,0.85l-0.14,0.43l0.42,1.27l0.07,0.71l-0.07,0.49l-0.49,1.14l0.07,0.99l0.56,0.99l1.14,0.92
		l-0.56,0.85l-1.99,1.55l-0.28,0.64l0.56,1.2l0.64,0.14l0.71-0.56l0.65-1.13l1.41-0.15l0.85-1.69l1.13-1.69h2.33L70.56,48.89z
		 M64.54,34.39l1.21-1.69l0.28-0.14l-0.07-0.35L65.69,31l-0.14-0.84l0.07-0.21l-3.12-3.12l-1.55-0.64l-0.78-0.07l-0.92-0.21
		l-1.34-0.56l-1.07-0.85l-0.64-0.56l-0.21-0.57l-0.21-0.42l-0.42-3.18L55,18.91l-0.14-0.49v-0.78l-0.07-0.56l-0.14-0.71l-0.42-0.92
		l-0.35-0.28h-0.56l-1.34,0.42h-0.56l-0.35-0.42l-0.21-0.56l-1.76-5.59l-0.93-2.83l-0.35-1.21L44.12,5.9l-6.29,1.77l-6.22,1.77
		l-6.36,1.83l-6.21,1.76l1.34,5.17l1.41,5.23l1.41,5.23l1.41,5.24l1.35,5.23l1.41,5.16l1.41,5.23l1.41,5.23l0.71,2.76l0.78,3.82
		l1.06,5.65l-0.85,0.5l-0.21,0.84l-0.14,1.35l0.56,4.73l0.07,1.91l6.15-2.54l10.53-7.35l3.26-0.99l0.85,0.07l1.83,0.35h0.71
		l0.56-0.64l0.14-0.92l-0.07-0.85l0.14-0.5l1.85-7.78l-0.21-1.62l-1.35-4.73l-0.71-1.27l-1.41-1.62l0.07-1l0.78-1.12l0.35-1.91
		l-0.35-1.83l-0.71-1.76l-1.06-1.21l-1.83-0.35l0.21-0.7l0.64-0.85l0.71-0.56l0.85-0.14l0.71,0.21l0.64,0.49l0.71,0.64l0.07-0.92
		l0.42-2.05v-0.78L56.13,31l-0.78-0.42l-0.71-0.28l-0.64-0.5l-0.63-1.48l-0.71-2.12l-0.42-2.05l-0.07-1.28l1.2,1.06l0.92,0.99
		l0.63,1.2l0.57,1.55l0.92,1.13l1.64,0.78l1.55,0.43l0.71,0.07l0.07-0.79l-0.35-1.98l0.14-0.49h0.71l0.56,0.35l0.35,0.64l-0.42,2.2
		l-0.07,1.69v1.76l0.21,1.27l0.78,0.85l1.13-0.28L64.54,34.39z"/>
	<path id="RI_2_" class="st1" d="M55.5,83.52l-0.71-0.78l-0.14-1.34l-0.28-0.92l-0.35-0.56l-0.49-0.28l-0.71,0.21l0.49,1.2
		l0.07,1.06l-0.42,0.78l-1.06,0.5l-0.35,0.7l0.07,1.42l0.64,1.2l1.13,0.35l1.98-0.92l0.85-0.63l0.42-0.64l-0.35-0.78L55.5,83.52z
		 M61.3,47.83l-0.56-1.98l-0.28-0.72l-0.35-0.49l-0.49-0.21H58.9l-0.21,3.47l0.21,1.48l0.99,0.64l-0.14,0.49v0.35l-0.14,0.35
		l-0.35,0.35l0.49,1.06l0.14,2.12l0.35,0.57l0.35-0.22l0.42-0.78l0.42-0.78l0.21-0.57l0.07-1.34l-0.07-1.76L61.3,47.83z
		 M70.56,48.89l-0.14-0.85l-0.07-0.92l-0.21-1.12l-1.69-6.79v-3.32l-0.49-1.84l-0.64,0.92l-1.48,1.55l-0.49,0.92l-0.14,1.13
		l0.21,2.69l-0.14,1.13l-0.28,0.42l-0.86,0.85l-0.14,0.43l0.42,1.27l0.07,0.71l-0.07,0.49l-0.49,1.14l0.07,0.99l0.56,0.99l1.14,0.92
		l-0.56,0.85l-1.99,1.55l-0.28,0.64l0.56,1.2l0.64,0.14l0.71-0.56l0.65-1.13l1.41-0.15l0.85-1.69l1.13-1.69h2.33L70.56,48.89z
		 M64.54,34.39l1.21-1.69l0.28-0.14l-0.07-0.35L65.69,31l-0.14-0.84l0.07-0.21l-3.12-3.12l-1.55-0.64l-0.78-0.07l-0.92-0.21
		l-1.34-0.56l-1.07-0.85l-0.64-0.56l-0.21-0.57l-0.21-0.42l-0.42-3.18L55,18.91l-0.14-0.49v-0.78l-0.07-0.56l-0.14-0.71l-0.42-0.92
		l-0.35-0.28h-0.56l-1.34,0.42h-0.56l-0.35-0.42l-0.21-0.56l-1.76-5.59l-0.93-2.83l-0.35-1.21L44.12,5.9l-6.29,1.77l-6.22,1.77
		l-6.36,1.83l-6.21,1.76l1.34,5.17l1.41,5.23l1.41,5.23l1.41,5.24l1.35,5.23l1.41,5.16l1.41,5.23l1.41,5.23l0.71,2.76l0.78,3.82
		l1.06,5.65l-0.85,0.5l-0.21,0.84l-0.14,1.35l0.56,4.73l0.07,1.91l6.15-2.54l10.53-7.35l3.26-0.99l0.85,0.07l1.83,0.35h0.71
		l0.56-0.64l0.14-0.92l-0.07-0.85l0.14-0.5l1.85-7.78l-0.21-1.62l-1.35-4.73l-0.71-1.27l-1.41-1.62l0.07-1l0.78-1.12l0.35-1.91
		l-0.35-1.83l-0.71-1.76l-1.06-1.21l-1.83-0.35l0.21-0.7l0.64-0.85l0.71-0.56l0.85-0.14l0.71,0.21l0.64,0.49l0.71,0.64l0.07-0.92
		l0.42-2.05v-0.78L56.13,31l-0.78-0.42l-0.71-0.28l-0.64-0.5l-0.63-1.48l-0.71-2.12l-0.42-2.05l-0.07-1.28l1.2,1.06l0.92,0.99
		l0.63,1.2l0.57,1.55l0.92,1.13l1.64,0.78l1.55,0.43l0.71,0.07l0.07-0.79l-0.35-1.98l0.14-0.49h0.71l0.56,0.35l0.35,0.64l-0.42,2.2
		l-0.07,1.69v1.76l0.21,1.27l0.78,0.85l1.13-0.28L64.54,34.39z"/>
</g>
<g id="SOUTH_CAROLINA">
</g>
<g id="SOUTH_DAKOTA">
</g>
<g id="TENNESSEE">
</g>
<g id="TEXAS">
</g>
<g id="UTAH">
</g>
<g id="VIRGINIA">
</g>
<g id="VERMONT">
</g>
<g id="WASHINGTON">
</g>
<g id="WISCONSIN">
</g>
<g id="WEST_VIRGINIA">
</g>
<g id="WYOMING">
</g>
</svg>
