<?xml version="1.0" encoding="UTF-8"?>
<svg id="RHODE_ISLAND" data-name="RHODE ISLAND" xmlns="http://www.w3.org/2000/svg" viewBox="0 0 90 90">
  <defs>
    <style>
      .cls-1 {
        fill: #e2e2e2;
        stroke: #f9f9f9;
        stroke-linecap: round;
        stroke-linejoin: round;
        stroke-width: .03px;
      }
    </style>
  </defs>
  <path id="RI" class="cls-1" d="M55.5,83.52l-.71-.78-.14-1.34-.28-.92-.35-.56-.49-.28-.71,.21,.49,1.2,.07,1.06-.42,.78-1.06,.5-.35,.7,.07,1.42,.64,1.2,1.13,.35,1.98-.92,.85-.63,.42-.64-.35-.78-.78-.56Zm5.8-35.69l-.56-1.98-.28-.72-.35-.49-.49-.21h-.71l-.21,3.47,.21,1.48,.99,.64-.14,.49v.35l-.14,.35-.35,.35,.49,1.06,.14,2.12,.35,.57,.35-.22,.42-.78,.42-.78,.21-.57,.07-1.34-.07-1.76-.35-2.05Zm9.26,1.06l-.14-.85-.07-.92-.21-1.12-1.69-6.79v-3.32l-.49-1.84-.64,.92-1.48,1.55-.49,.92-.14,1.13,.21,2.69-.14,1.13-.28,.42-.86,.85-.14,.43,.42,1.27,.07,.71-.07,.49-.49,1.14,.07,.99,.56,.99,1.14,.92-.56,.85-1.99,1.55-.28,.64,.56,1.2,.64,.14,.71-.56,.65-1.13,1.41-.15,.85-1.69,1.13-1.69h2.33l-.56-.85Zm-6.01-14.49l1.21-1.69,.28-.14-.07-.35-.28-1.21-.14-.84,.07-.21-3.12-3.12-1.55-.64-.78-.07-.92-.21-1.34-.56-1.07-.85-.64-.56-.21-.57-.21-.42-.42-3.18-.35-.85-.14-.49v-.78l-.07-.56-.14-.71-.42-.92-.35-.28h-.56l-1.34,.42h-.56l-.35-.42-.21-.56-1.76-5.59-.93-2.83-.35-1.21-3.67,.92-6.29,1.77-6.22,1.77-6.36,1.83-6.21,1.76,1.34,5.17,1.41,5.23,1.41,5.23,1.41,5.24,1.35,5.23,1.41,5.16,1.41,5.23,1.41,5.23,.71,2.76,.78,3.82,1.06,5.65-.85,.5-.21,.84-.14,1.35,.56,4.73,.07,1.91,6.15-2.54,10.53-7.35,3.26-.99,.85,.07,1.83,.35h.71l.56-.64,.14-.92-.07-.85,.14-.5,1.85-7.78-.21-1.62-1.35-4.73-.71-1.27-1.41-1.62,.07-1,.78-1.12,.35-1.91-.35-1.83-.71-1.76-1.06-1.21-1.83-.35,.21-.7,.64-.85,.71-.56,.85-.14,.71,.21,.64,.49,.71,.64,.07-.92,.42-2.05v-.78l-.49-1.06-.78-.42-.71-.28-.64-.5-.63-1.48-.71-2.12-.42-2.05-.07-1.28,1.2,1.06,.92,.99,.63,1.2,.57,1.55,.92,1.13,1.64,.78,1.55,.43,.71,.07,.07-.79-.35-1.98,.14-.49h.71l.56,.35,.35,.64-.42,2.2-.07,1.69v1.76l.21,1.27,.78,.85,1.13-.28,1.13-.92Z"/>
  <g>
    <path d="M40.91,39.07l-1.1-1.92h-.28v1.92h-1.23v-5.09h2.1c.4,0,.74,.07,1.02,.21,.28,.14,.49,.33,.63,.57,.14,.24,.21,.52,.21,.83,0,.37-.1,.68-.31,.94-.2,.26-.5,.44-.89,.53l1.21,2h-1.36Zm-1.38-2.76h.76c.25,0,.42-.05,.54-.16s.17-.27,.17-.48-.06-.36-.18-.48c-.12-.12-.3-.17-.54-.17h-.76v1.29Z"/>
    <path d="M44.1,33.98v5.09h-1.23v-5.09h1.23Z"/>
  </g>
</svg>