<?xml version="1.0" encoding="utf-8"?>
<!-- Generator: Adobe Illustrator 26.5.0, SVG Export Plug-In . SVG Version: 6.00 Build 0)  -->
<svg version="1.1" xmlns="http://www.w3.org/2000/svg" xmlns:xlink="http://www.w3.org/1999/xlink" x="0px" y="0px"
	 viewBox="0 0 90 90" style="enable-background:new 0 0 90 90;" xml:space="preserve">
<style type="text/css">
	.st0{fill:#CECECE;stroke:#F9F9F9;stroke-width:0.025;stroke-linecap:round;stroke-linejoin:round;}
	.st1{display:none;fill:none;stroke:#47CCCC;stroke-width:0.5;stroke-linecap:round;stroke-linejoin:round;}
	.st2{fill:#CECECE;}
</style>
<g id="ALABAMA">
</g>
<g id="ALASKA">
</g>
<g id="ARIZONA">
</g>
<g id="ARKANSAS_1_">
</g>
<g id="CALIFORNIA">
</g>
<g id="COLORADO">
</g>
<g id="CONNECTICUT">
</g>
<g id="DELAWARE">
</g>
<g id="DC">
</g>
<g id="FLORIDA">
</g>
<g id="GEORGIA">
</g>
<g id="HAWAII">
</g>
<g id="IDAHO">
</g>
<g id="IOWA">
</g>
<g id="ILLINOIS">
</g>
<g id="INDIANA">
</g>
<g id="KANSAS">
</g>
<g id="KETUCKY">
</g>
<g id="LOUISANA">
</g>
<g id="MAINE">
</g>
<g id="MARYLAND">
</g>
<g id="MASSACHUSETTS">
</g>
<g id="MICHIGAN">
</g>
<g id="MINNESOTA">
</g>
<g id="MISSOURI">
</g>
<g id="MISSISSIPPI">
</g>
<g id="MONTANA">
</g>
<g id="NORTH_CAROLINA">
</g>
<g id="NORTH_DAKOTA">
</g>
<g id="NEBRASKA">
</g>
<g id="NEW_HAMPSHIRE">
</g>
<g id="NEW_JERSEY">
</g>
<g id="NEW_YORK">
</g>
<g id="NEW_MEXICO">
</g>
<g id="NEVADA">
</g>
<g id="OHIO">
</g>
<g id="OKLAHOMA">
</g>
<g id="OREGON">
</g>
<g id="PENNSYLVANIA">
</g>
<g id="RHODE_ISLAND">
</g>
<g id="SOUTH_CAROLINA">
	<path id="SC_1_" class="st0" d="M75.53,57.39l-0.22,0.22l-0.12,0.31l-0.01,0.37l0.07,0.38l0.12-0.03l0.18-0.82l-0.04-0.31
		l0.06-0.03l0.01-0.03l-0.01-0.03L75.53,57.39z M84.91,39.68l-0.12-0.1l-0.15-0.06h-0.16l-0.01-0.13l0.4-0.21L83.6,38.3l-1.26-0.87
		l-1.28-0.87L79.8,35.7l-1.26-0.87l-1.25-0.87l-1.26-0.88l-1.26-0.88l-1.26-0.87L71,29.6l-2.51-1.76l-1.25-0.87l-1.25-0.88
		l-1.25-0.88l-0.62-0.43l-0.34-0.04h-0.5l-0.6,0.09l-0.18,0.03L62,24.94l-0.79,0.13l-1.01,0.16l-1.22,0.19l-1.35,0.22l-1.44,0.22
		l-1.5,0.23l-1.5,0.23l-1.44,0.23l-1.37,0.21l-1.2,0.19l-1.03,0.16l-0.79,0.12l-0.5,0.07l-0.18,0.03l-0.65,0.1l-0.13-0.01l-0.1-0.09
		l-0.06-0.12l-0.03-0.13l-0.29-2.03l-0.03-0.12l-0.09-0.1l-0.85-0.81l-1.06-1l-0.74-0.67l-0.06-0.04l-0.06-0.01h-0.07l-0.09,0.07
		l-1.16,1.17l-0.09,0.04l-0.09,0.01l-0.12-0.07l-0.07-0.07l-0.07-0.09l-0.04-0.09l-0.03-0.07v-0.09v-0.07l0.01-0.09l0.1-0.4
		l0.03-0.1l-0.01-0.12l-0.01-0.1l-0.04-0.09l-0.04-0.07l-0.06-0.06l-0.07-0.06l-0.09-0.06l-0.13-0.03h-0.21l-1,0.12l-0.84,0.1
		l-1.01,0.12l-1.19,0.13l-1.3,0.16l-1.39,0.16l-1.47,0.16l-1.47,0.18l-1.47,0.18l-1.44,0.15l-1.34,0.16l-1.23,0.13l-1.09,0.12
		l-0.91,0.1l-0.69,0.07l-0.44,0.04l-0.15,0.03l-1.16,0.12l-1.19,0.31l-0.07-0.01l-0.06-0.03l-0.04-0.04l-0.1-0.1l-0.04-0.06
		l-0.07-0.04l-0.1,0.01l-0.12,0.06l-0.21,0.19l-0.09,0.12l-0.06,0.12l-0.04,0.31l-0.07,0.09l-0.12,0.07l-0.57,0.09l-0.1,0.06
		l-0.1,0.13l-0.06,0.09l-0.07,0.06l-0.12,0.04l-0.59,0.1l-0.1,0.04l-0.78,0.4l-0.5,0.35l-0.13,0.09l-0.13,0.05l-0.18,0.01
		l-0.15,0.03l-0.09,0.1l-0.03,0.12l-0.03,0.22l-0.1,0.15l-0.15,0.15l-0.35,0.26l-0.16,0.15l-0.13,0.1l-0.07,0.03l-0.13-0.03
		l-0.07-0.06l-0.09-0.15l-0.5,0.19l-4.44,2.29L8,30.21l0.01,0.03l0.01,0.24l-0.06,0.25l-0.1,0.23L7.7,31.17l-0.41,0.19L7.1,31.51
		l-0.57,0.57l-0.15,0.23l-0.1,0.31l-0.15,0.65l-0.12,0.31l-0.18,0.22l-0.22,0.19l-0.19,0.23l-0.09,0.29L5.3,34.63l-0.01,0.15
		l0.01,0.16v0.16l-0.04,0.18l-0.22,0.38l-0.03,0.85l0.62,0.63l1.61,0.73l0.57,0.19l0.38-0.18l0.12,0.01l0.06,0.27l0.16,0.22
		l0.64,0.25l0.42,0.4l0.37,0.18l0.34,0.41l0.29,0.27l0.57,0.21l0.75-0.15l1.11-0.16l0.75,0.32l0.25,0.48l0.16,0.51l0.32,0.6
		l0.18,0.15l1.15,1.28l0.21,0.43l0.56,1.63l0.13,0.25l0.13,0.07l0.32,0.32l0.4,0.09l0.23,0.16l0.22,0.19l0.16,0.18l0.26,0.51
		l0.18,0.25l0.41,0.15l0.18,0.19l0.25,0.51l0.25,0.44l0.21,0.48l0.23,0.19l0.28,0.05l0.32-0.05l0.31,0.22l0.34,0.37l0.46,0.38
		l0.56,0.25l0.56,0.16l0.69,0.31l0.78,0.45l0.91,0.6l0.53,0.45l0.34,0.84l0.33,0.35l0.21,0.41l0.34,0.53l0.38,0.31L27.9,55l0.37,0.1
		l0.81,0.1l0.35,0.12l0.38,0.22l0.83,0.76l0.38,0.26l0.74,0.34l0.29,0.31l-0.06,0.44l0.1,0.09l0.19,0.27l-0.25,0.09l-0.01,0.15
		l0.26,0.45l-0.21,0.16l0.16,0.27l0.82,0.72l0.16,0.1l0.04-0.1l0.07-0.1l0.18-0.01l0.21,0.04l0.12,0.04l0.03,0.13l-0.21,0.16
		l0.32,0.18l0.15,0.21l-0.01,0.21l-0.21,0.19l0.32,0.4l0.29,0.21l0.31,0.06l0.37-0.04l0.13,0.15l0.23,0.76l0.13,0.25l0.66,0.4
		l1.53,0.35l0.73,0.28l0.54,0.37l0.26,0.12h0.37l0.23,0.1l0.26,0.29l0.22,0.37l0.1,0.32l-0.01,0.69l0.06,0.38l0.22,0.13l1.09,1.32
		l0.25,0.51l0.1,0.29l0.06,0.28l0.15,0.29l0.21,0.23l0.16,0.29l0.01,0.26l-0.07,0.16v0.23l-0.03,0.22l0.06,0.09l0.09,0.03l0.12,0.12
		l0.1,0.13l0.06,0.13l0.01,0.38l-0.04,0.31l0.03,0.29l0.22,0.29l0.23,0.18l0.34,0.16l0.37,0.1l0.5,0.01l0.16,0.04l0.16,0.09
		l0.15,0.1l0.29,0.25l0.09,0.04l0.07-0.01l0.38,0.13l0.1,0.06l0.09,0.16l0.07,0.21l0.12,0.18l0.23,0.04l0.25,0.1l0.13,0.32l0.09,0.6
		l0.78,1.51l0.26,0.04l0.23,0.19l0.19,0.32l0.1,0.4l0.01,0.25l-0.09,0.28l-0.03,0.19l0.01,0.22l0.12,0.5l-0.01,0.13l-0.1,0.37v0.21
		l0.07,0.13l0.4,0.57l0.01,0.06l-0.03,0.09l0.01,0.1l0.07,0.13l0.09,0.07l0.19,0.07l0.1,0.06l0.57,0.51l0.16,0.06l0.94-0.25
		l0.38,0.03l0.72,0.19l0.13,0.13l0.16,0.24l0.28,0.16l0.32,0.06l0.34-0.03h0.01l-0.15-0.26l-0.01-0.24l0.07-0.23l0.6-1.03l0.11-0.4
		l-0.03-0.48l0.06-0.15l0.31-0.47l0.09-0.22l-0.01-0.29l-0.03-0.25v-0.23l0.1-0.21l0.16,0.73l-0.35,1.31l-0.03,0.75l1.23-1.1
		l0.41-0.85l0.35-0.54l-0.03-0.21l-0.29-0.34l-0.18-0.16l-0.22-0.13L55.6,77.1l-0.28,0.19l-0.66-0.82l-0.16-0.13l-0.27-0.07
		l-0.04-0.28l0.11-0.5l-0.24-0.46l-0.44-0.66l-0.34-0.66l0.04-0.47l-0.01-0.13l-0.16-0.19l-0.34-0.51l-0.24-0.15l-0.01-0.12
		l0.31-0.06l0.18,0.15l0.12,0.23l0.19,0.22l0.28,0.1l0.22-0.01l0.06,0.09l-0.18,0.38l0.09,0.41l0.32,0.69l0.6,1.01l1.28,0.79
		l0.25,0.09l0.16-0.07l0.01-0.37l-0.07-0.19l-0.21-0.29l-0.07-0.15l-0.22-1.32l0.03-0.27l0.1-0.27l-0.1-0.04l-0.03-0.06l-0.1,0.04
		l-0.04,0.03l-0.03-0.03l-0.07-0.15l0.44-0.04l0.16,0.32l-0.06,1.45l0.1,0.09l0.54-0.36v1.25l0.07,0.51l0.19,0.5l0.19,0.04
		l0.59-0.42l0.12-0.03h0.26l0.18-0.07l1.2-1.09l0.13-0.32l-0.34-0.13l0.04-0.03l0.06-0.01l0.01-0.03l-0.01-0.1l0.1-0.01l0.22,0.06
		l0.12-0.35L60,73.83l-0.01-0.4l-0.12,0.03l-0.04,0.18l-0.1,0.16l-0.21,0.28l-0.16,0.23l-0.37,0.32l-0.41,0.26L58.29,75l-0.04-0.21
		l0.22-0.37l0.34-0.37l0.66-0.43l0.01-0.38l-0.25-0.34l-0.44-0.09l-1.54,0.15l0.37-0.24l0.44-0.19l0.48-0.12l0.45-0.04l-0.03-0.15
		l-0.23-0.04l-0.44-0.18l-0.23-0.01l-0.18,0.06l-0.29,0.13l-0.19,0.06l-1.5-0.03l-0.28,0.21L55.6,72.3l-0.03-0.12l0.1-0.22
		l0.13-0.12l0.52-0.09l1.2-0.03l0.4-0.12l-0.13-0.16l-0.12-0.18l-0.09-0.21l-0.03-0.22l0.12-0.03l0.16,0.24l0.15,0.12l0.7,0.44
		l0.22,0.01l0.21-0.03l0.34,0.01l0.28,0.12l0.18,0.15l0.18,0.12h0.29l0.22-0.16l0.09-0.31l-0.01-0.37l-0.1-0.31l0.25,0.09l0.11,0.19
		l0.06,0.22l0.13,0.18l0.25,0.13l0.12-0.07l0.1-0.13l0.19-0.1l1.03-1.07l0.16-0.12l0.13-0.13l0.09-0.19l0.03-0.18l-0.03-0.04
		l-0.1-0.02l-0.88-0.56l-0.25-0.21l0.23-0.09l0.35,0.15l0.62,0.47l0.45,0.27l0.22-0.1l0.19-0.26l0.35-0.19l0.35-0.12l0.7-0.4
		l0.84-0.31l0.13-0.18l-0.16-0.18l-0.41-0.19l-0.03-0.12l0.13-0.13l0.18-0.01l0.42,0.01l0.41-0.09l0.15-0.1l0.84-0.87l0.19-0.43
		l-0.06-0.6l-0.1,0.03v0.12l-0.04,0.01l-0.26-0.1l-0.13-0.16l-0.16-0.12l-0.6-0.02l-0.26-0.15l-0.22-0.23l-0.12-0.27l0.26,0.16
		l0.25,0.09l0.16-0.05l0.01-0.26l-0.09-0.31l-0.25-0.46l-0.09-0.26l0.09-0.07l0.64,0.28l-0.04-0.06v-0.15l0.04-0.15l0.1-0.07
		l0.34,0.21l-0.28,0.56l-0.09,0.34l0.13,0.12l0.31,0.04l0.22,0.21l0.19,0.21l0.19,0.07l0.35-0.15l0.46-0.29l0.79-0.69l0.21-0.4
		l0.18-0.48l0.23-0.44l0.41-0.25l0.07-0.07l0.03-0.15l0.04-0.15l0.12-0.09l0.13-0.06l0.7-0.6l0.1-0.18l0.06-0.31l-0.16,0.07
		l-0.15,0.12l-0.1,0.13l-0.06,0.18l-0.25-0.28l-0.13-0.21l-0.01-0.24l0.25-0.95l0.16-0.29l0.22-0.15l0.46-0.44l0.28-0.15l0.18,0.21
		l0.07,0.15l0.29,0.34l0.1,0.19l0.21-0.21l0.29-0.19l0.35-0.16l0.37-0.09l0.4-0.18l0.07-0.26l-0.04-0.32l0.06-0.37l0.26-0.35
		l0.65-0.45l0.21-0.31l-0.03-0.41l-0.32-0.1l-0.38-0.01l-0.22-0.24l0.34-0.03l0.4,0.03l0.32,0.13l0.18,0.31l0.1-0.06l0.06-0.06
		l0.07-0.09l0.04-0.12l-0.21-0.15l-0.16-0.21l-0.01-0.19l0.21-0.12l0.15,0.04l0.19,0.31l0.16,0.12l0.07-0.34l0.16-0.22l0.21-0.19
		l0.18-0.21l-0.23-0.03l-0.12-0.09l-0.18-0.32l-0.09-0.22l-0.01-0.22l-0.07-0.16l-0.59-0.04l-0.42-0.15l-0.38-0.25l-0.21-0.35
		l-0.03-0.41l0.06-0.44l0.1-0.43l0.54-1.17l0.26-0.37l0.34-0.23l0.01,0.12l-0.15,0.21l-0.45,0.79l-0.26,0.98l-0.04,0.47l0.09,0.19
		l0.67-0.12l0.23,0.07l0.22,0.24l0.15,0.34l0.15,0.7l0.19,0.25l0.1-0.01l-0.09-0.45v-2.35l0.09-0.23l-0.15-0.1l0.22-0.88l1.22-2.58
		l1.12-2.39l0.9-1.42l1.41-1.76l1.51-1.38l0.63-0.4l0.66-0.18L84.91,39.68z"/>
	<path id="SC_2_" class="st1" d="M75.53,57.39l-0.22,0.22l-0.12,0.31l-0.01,0.37l0.07,0.38l0.12-0.03l0.18-0.82l-0.04-0.31
		l0.06-0.03l0.01-0.03l-0.01-0.03L75.53,57.39z M84.91,39.68l-0.12-0.1l-0.15-0.06h-0.16l-0.01-0.13l0.4-0.21L83.6,38.3l-1.26-0.87
		l-1.28-0.87L79.8,35.7l-1.26-0.87l-1.25-0.87l-1.26-0.88l-1.26-0.88l-1.26-0.87L71,29.6l-2.51-1.76l-1.25-0.87l-1.25-0.88
		l-1.25-0.88l-0.62-0.43l-0.34-0.04h-0.5l-0.6,0.09l-0.18,0.03L62,24.94l-0.79,0.13l-1.01,0.16l-1.22,0.19l-1.35,0.22l-1.44,0.22
		l-1.5,0.23l-1.5,0.23l-1.44,0.23l-1.37,0.21l-1.2,0.19l-1.03,0.16l-0.79,0.12l-0.5,0.07l-0.18,0.03l-0.65,0.1l-0.13-0.01l-0.1-0.09
		l-0.06-0.12l-0.03-0.13l-0.29-2.03l-0.03-0.12l-0.09-0.1l-0.85-0.81l-1.06-1l-0.74-0.67l-0.06-0.04l-0.06-0.01h-0.07l-0.09,0.07
		l-1.16,1.17l-0.09,0.04l-0.09,0.01l-0.12-0.07l-0.07-0.07l-0.07-0.09l-0.04-0.09l-0.03-0.07v-0.09v-0.07l0.01-0.09l0.1-0.4
		l0.03-0.1l-0.01-0.12l-0.01-0.1l-0.04-0.09l-0.04-0.07l-0.06-0.06l-0.07-0.06l-0.09-0.06l-0.13-0.03h-0.21l-1,0.12l-0.84,0.1
		l-1.01,0.12l-1.19,0.13l-1.3,0.16l-1.39,0.16l-1.47,0.16l-1.47,0.18l-1.47,0.18l-1.44,0.15l-1.34,0.16l-1.23,0.13l-1.09,0.12
		l-0.91,0.1l-0.69,0.07l-0.44,0.04l-0.15,0.03l-1.16,0.12l-1.19,0.31l-0.07-0.01l-0.06-0.03l-0.04-0.04l-0.1-0.1l-0.04-0.06
		l-0.07-0.04l-0.1,0.01l-0.12,0.06l-0.21,0.19l-0.09,0.12l-0.06,0.12l-0.04,0.31l-0.07,0.09l-0.12,0.07l-0.57,0.09l-0.1,0.06
		l-0.1,0.13l-0.06,0.09l-0.07,0.06l-0.12,0.04l-0.59,0.1l-0.1,0.04l-0.78,0.4l-0.5,0.35l-0.13,0.09l-0.13,0.05l-0.18,0.01
		l-0.15,0.03l-0.09,0.1l-0.03,0.12l-0.03,0.22l-0.1,0.15l-0.15,0.15l-0.35,0.26l-0.16,0.15l-0.13,0.1l-0.07,0.03l-0.13-0.03
		l-0.07-0.06l-0.09-0.15l-0.5,0.19l-4.44,2.29L8,30.21l0.01,0.03l0.01,0.24l-0.06,0.25l-0.1,0.23L7.7,31.17l-0.41,0.19L7.1,31.51
		l-0.57,0.57l-0.15,0.23l-0.1,0.31l-0.15,0.65l-0.12,0.31l-0.18,0.22l-0.22,0.19l-0.19,0.23l-0.09,0.29L5.3,34.63l-0.01,0.15
		l0.01,0.16v0.16l-0.04,0.18l-0.22,0.38l-0.03,0.85l0.62,0.63l1.61,0.73l0.57,0.19l0.38-0.18l0.12,0.01l0.06,0.27l0.16,0.22
		l0.64,0.25l0.42,0.4l0.37,0.18l0.34,0.41l0.29,0.27l0.57,0.21l0.75-0.15l1.11-0.16l0.75,0.32l0.25,0.48l0.16,0.51l0.32,0.6
		l0.18,0.15l1.15,1.28l0.21,0.43l0.56,1.63l0.13,0.25l0.13,0.07l0.32,0.32l0.4,0.09l0.23,0.16l0.22,0.19l0.16,0.18l0.26,0.51
		l0.18,0.25l0.41,0.15l0.18,0.19l0.25,0.51l0.25,0.44l0.21,0.48l0.23,0.19l0.28,0.05l0.32-0.05l0.31,0.22l0.34,0.37l0.46,0.38
		l0.56,0.25l0.56,0.16l0.69,0.31l0.78,0.45l0.91,0.6l0.53,0.45l0.34,0.84l0.33,0.35l0.21,0.41l0.34,0.53l0.38,0.31L27.9,55l0.37,0.1
		l0.81,0.1l0.35,0.12l0.38,0.22l0.83,0.76l0.38,0.26l0.74,0.34l0.29,0.31l-0.06,0.44l0.1,0.09l0.19,0.27l-0.25,0.09l-0.01,0.15
		l0.26,0.45l-0.21,0.16l0.16,0.27l0.82,0.72l0.16,0.1l0.04-0.1l0.07-0.1l0.18-0.01l0.21,0.04l0.12,0.04l0.03,0.13l-0.21,0.16
		l0.32,0.18l0.15,0.21l-0.01,0.21l-0.21,0.19l0.32,0.4l0.29,0.21l0.31,0.06l0.37-0.04l0.13,0.15l0.23,0.76l0.13,0.25l0.66,0.4
		l1.53,0.35l0.73,0.28l0.54,0.37l0.26,0.12h0.37l0.23,0.1l0.26,0.29l0.22,0.37l0.1,0.32l-0.01,0.69l0.06,0.38l0.22,0.13l1.09,1.32
		l0.25,0.51l0.1,0.29l0.06,0.28l0.15,0.29l0.21,0.23l0.16,0.29l0.01,0.26l-0.07,0.16v0.23l-0.03,0.22l0.06,0.09l0.09,0.03l0.12,0.12
		l0.1,0.13l0.06,0.13l0.01,0.38l-0.04,0.31l0.03,0.29l0.22,0.29l0.23,0.18l0.34,0.16l0.37,0.1l0.5,0.01l0.16,0.04l0.16,0.09
		l0.15,0.1l0.29,0.25l0.09,0.04l0.07-0.01l0.38,0.13l0.1,0.06l0.09,0.16l0.07,0.21l0.12,0.18l0.23,0.04l0.25,0.1l0.13,0.32l0.09,0.6
		l0.78,1.51l0.26,0.04l0.23,0.19l0.19,0.32l0.1,0.4l0.01,0.25l-0.09,0.28l-0.03,0.19l0.01,0.22l0.12,0.5l-0.01,0.13l-0.1,0.37v0.21
		l0.07,0.13l0.4,0.57l0.01,0.06l-0.03,0.09l0.01,0.1l0.07,0.13l0.09,0.07l0.19,0.07l0.1,0.06l0.57,0.51l0.16,0.06l0.94-0.25
		l0.38,0.03l0.72,0.19l0.13,0.13l0.16,0.24l0.28,0.16l0.32,0.06l0.34-0.03h0.01l-0.15-0.26l-0.01-0.24l0.07-0.23l0.6-1.03l0.11-0.4
		l-0.03-0.48l0.06-0.15l0.31-0.47l0.09-0.22l-0.01-0.29l-0.03-0.25v-0.23l0.1-0.21l0.16,0.73l-0.35,1.31l-0.03,0.75l1.23-1.1
		l0.41-0.85l0.35-0.54l-0.03-0.21l-0.29-0.34l-0.18-0.16l-0.22-0.13L55.6,77.1l-0.28,0.19l-0.66-0.82l-0.16-0.13l-0.27-0.07
		l-0.04-0.28l0.11-0.5l-0.24-0.46l-0.44-0.66l-0.34-0.66l0.04-0.47l-0.01-0.13l-0.16-0.19l-0.34-0.51l-0.24-0.15l-0.01-0.12
		l0.31-0.06l0.18,0.15l0.12,0.23l0.19,0.22l0.28,0.1l0.22-0.01l0.06,0.09l-0.18,0.38l0.09,0.41l0.32,0.69l0.6,1.01l1.28,0.79
		l0.25,0.09l0.16-0.07l0.01-0.37l-0.07-0.19l-0.21-0.29l-0.07-0.15l-0.22-1.32l0.03-0.27l0.1-0.27l-0.1-0.04l-0.03-0.06l-0.1,0.04
		l-0.04,0.03l-0.03-0.03l-0.07-0.15l0.44-0.04l0.16,0.32l-0.06,1.45l0.1,0.09l0.54-0.36v1.25l0.07,0.51l0.19,0.5l0.19,0.04
		l0.59-0.42l0.12-0.03h0.26l0.18-0.07l1.2-1.09l0.13-0.32l-0.34-0.13l0.04-0.03l0.06-0.01l0.01-0.03l-0.01-0.1l0.1-0.01l0.22,0.06
		l0.12-0.35L60,73.83l-0.01-0.4l-0.12,0.03l-0.04,0.18l-0.1,0.16l-0.21,0.28l-0.16,0.23l-0.37,0.32l-0.41,0.26L58.29,75l-0.04-0.21
		l0.22-0.37l0.34-0.37l0.66-0.43l0.01-0.38l-0.25-0.34l-0.44-0.09l-1.54,0.15l0.37-0.24l0.44-0.19l0.48-0.12l0.45-0.04l-0.03-0.15
		l-0.23-0.04l-0.44-0.18l-0.23-0.01l-0.18,0.06l-0.29,0.13l-0.19,0.06l-1.5-0.03l-0.28,0.21L55.6,72.3l-0.03-0.12l0.1-0.22
		l0.13-0.12l0.52-0.09l1.2-0.03l0.4-0.12l-0.13-0.16l-0.12-0.18l-0.09-0.21l-0.03-0.22l0.12-0.03l0.16,0.24l0.15,0.12l0.7,0.44
		l0.22,0.01l0.21-0.03l0.34,0.01l0.28,0.12l0.18,0.15l0.18,0.12h0.29l0.22-0.16l0.09-0.31l-0.01-0.37l-0.1-0.31l0.25,0.09l0.11,0.19
		l0.06,0.22l0.13,0.18l0.25,0.13l0.12-0.07l0.1-0.13l0.19-0.1l1.03-1.07l0.16-0.12l0.13-0.13l0.09-0.19l0.03-0.18l-0.03-0.04
		l-0.1-0.02l-0.88-0.56l-0.25-0.21l0.23-0.09l0.35,0.15l0.62,0.47l0.45,0.27l0.22-0.1l0.19-0.26l0.35-0.19l0.35-0.12l0.7-0.4
		l0.84-0.31l0.13-0.18l-0.16-0.18l-0.41-0.19l-0.03-0.12l0.13-0.13l0.18-0.01l0.42,0.01l0.41-0.09l0.15-0.1l0.84-0.87l0.19-0.43
		l-0.06-0.6l-0.1,0.03v0.12l-0.04,0.01l-0.26-0.1l-0.13-0.16l-0.16-0.12l-0.6-0.02l-0.26-0.15l-0.22-0.23l-0.12-0.27l0.26,0.16
		l0.25,0.09l0.16-0.05l0.01-0.26l-0.09-0.31l-0.25-0.46l-0.09-0.26l0.09-0.07l0.64,0.28l-0.04-0.06v-0.15l0.04-0.15l0.1-0.07
		l0.34,0.21l-0.28,0.56l-0.09,0.34l0.13,0.12l0.31,0.04l0.22,0.21l0.19,0.21l0.19,0.07l0.35-0.15l0.46-0.29l0.79-0.69l0.21-0.4
		l0.18-0.48l0.23-0.44l0.41-0.25l0.07-0.07l0.03-0.15l0.04-0.15l0.12-0.09l0.13-0.06l0.7-0.6l0.1-0.18l0.06-0.31l-0.16,0.07
		l-0.15,0.12l-0.1,0.13l-0.06,0.18l-0.25-0.28l-0.13-0.21l-0.01-0.24l0.25-0.95l0.16-0.29l0.22-0.15l0.46-0.44l0.28-0.15l0.18,0.21
		l0.07,0.15l0.29,0.34l0.1,0.19l0.21-0.21l0.29-0.19l0.35-0.16l0.37-0.09l0.4-0.18l0.07-0.26l-0.04-0.32l0.06-0.37l0.26-0.35
		l0.65-0.45l0.21-0.31l-0.03-0.41l-0.32-0.1l-0.38-0.01l-0.22-0.24l0.34-0.03l0.4,0.03l0.32,0.13l0.18,0.31l0.1-0.06l0.06-0.06
		l0.07-0.09l0.04-0.12l-0.21-0.15l-0.16-0.21l-0.01-0.19l0.21-0.12l0.15,0.04l0.19,0.31l0.16,0.12l0.07-0.34l0.16-0.22l0.21-0.19
		l0.18-0.21l-0.23-0.03l-0.12-0.09l-0.18-0.32l-0.09-0.22l-0.01-0.22l-0.07-0.16l-0.59-0.04l-0.42-0.15l-0.38-0.25l-0.21-0.35
		l-0.03-0.41l0.06-0.44l0.1-0.43l0.54-1.17l0.26-0.37l0.34-0.23l0.01,0.12l-0.15,0.21l-0.45,0.79l-0.26,0.98l-0.04,0.47l0.09,0.19
		l0.67-0.12l0.23,0.07l0.22,0.24l0.15,0.34l0.15,0.7l0.19,0.25l0.1-0.01l-0.09-0.45v-2.35l0.09-0.23l-0.15-0.1l0.22-0.88l1.22-2.58
		l1.12-2.39l0.9-1.42l1.41-1.76l1.51-1.38l0.63-0.4l0.66-0.18L84.91,39.68z"/>
</g>
<g id="SOUTH_DAKOTA">
</g>
<g id="TENNESSEE">
</g>
<g id="TEXAS">
</g>
<g id="UTAH">
</g>
<g id="VIRGINIA">
</g>
<g id="VERMONT">
</g>
<g id="WASHINGTON">
</g>
<g id="WISCONSIN">
</g>
<g id="WEST_VIRGINIA">
</g>
<g id="WYOMING">
</g>
</svg>
