<?xml version="1.0" encoding="utf-8"?>
<!-- Generator: Adobe Illustrator 26.5.0, SVG Export Plug-In . SVG Version: 6.00 Build 0)  -->
<svg version="1.1" xmlns="http://www.w3.org/2000/svg" xmlns:xlink="http://www.w3.org/1999/xlink" x="0px" y="0px"
	 viewBox="0 0 90 90" style="enable-background:new 0 0 90 90;" xml:space="preserve">
<style type="text/css">
	.st0{fill:#CECECE;stroke:#F9F9F9;stroke-width:0.025;stroke-linecap:round;stroke-linejoin:round;}
	.st1{display:none;fill:none;stroke:#47CCCC;stroke-width:0.5;stroke-linecap:round;stroke-linejoin:round;}
	.st2{fill:#CECECE;}
</style>
<g id="ALABAMA">
</g>
<g id="ALASKA">
</g>
<g id="ARIZONA">
</g>
<g id="ARKANSAS_1_">
</g>
<g id="CALIFORNIA">
</g>
<g id="COLORADO">
</g>
<g id="CONNECTICUT">
</g>
<g id="DELAWARE">
</g>
<g id="DC">
</g>
<g id="FLORIDA">
</g>
<g id="GEORGIA">
</g>
<g id="HAWAII">
</g>
<g id="IDAHO">
</g>
<g id="IOWA">
</g>
<g id="ILLINOIS">
</g>
<g id="INDIANA">
</g>
<g id="KANSAS">
</g>
<g id="KETUCKY">
</g>
<g id="LOUISANA">
</g>
<g id="MAINE">
</g>
<g id="MARYLAND">
</g>
<g id="MASSACHUSETTS">
</g>
<g id="MICHIGAN">
</g>
<g id="MINNESOTA">
</g>
<g id="MISSOURI">
</g>
<g id="MISSISSIPPI">
</g>
<g id="MONTANA">
</g>
<g id="NORTH_CAROLINA">
</g>
<g id="NORTH_DAKOTA">
</g>
<g id="NEBRASKA">
</g>
<g id="NEW_HAMPSHIRE">
</g>
<g id="NEW_JERSEY">
</g>
<g id="NEW_YORK">
</g>
<g id="NEW_MEXICO">
</g>
<g id="NEVADA">
</g>
<g id="OHIO">
</g>
<g id="OKLAHOMA">
</g>
<g id="OREGON">
</g>
<g id="PENNSYLVANIA">
</g>
<g id="RHODE_ISLAND">
</g>
<g id="SOUTH_CAROLINA">
</g>
<g id="SOUTH_DAKOTA">
	<path id="SD_1_" class="st0" d="M80.01,24.98l-0.05,0.14l-0.04,0.05l-0.03,0.07l-0.02,0.06l-0.06,0.78l-0.06,0.22l-0.19,0.34
		l-0.27,0.64l-0.04,0.06l-0.07,0.1l-0.09,0.1l-0.25,0.21l-0.69,0.39l-0.1,0.09l-0.21,0.25l-0.36,0.25l-0.08,0.07l-0.07,0.08
		l-0.12,0.27l-0.03,0.27l0.26,0.31l0.49,0.5l0.2,0.28l0.37,0.76l0.22,0.37l0.21,0.16l0.76,0.06l0.41,0.11l0.28,0.19l0.11,0.11
		l0.23,0.18l0.1,0.09l0.27,0.47l0.07,0.13l0.05,0.04v0.01l0.02,0.49l0.09,2.8l0.09,2.81l0.1,2.81l0.09,2.81l0.09,2.82l0.09,2.82
		l0.09,2.82l0.1,2.82l-1.39,0.06l-0.04,0.04l0.03,0.08l0.03,0.07l0.03,0.09l0.01,0.09l-0.02,0.15v0.12l0.01,0.1l0.05,0.13l0.05,0.07
		l0.19,0.19l0.08,0.11l0.18,0.18l0.04,0.05l0.03,0.14l0.02,0.67l-0.03,0.31l-0.02,0.05l-0.04,0.05l-0.05,0.03l-0.07,0.02l-0.15-0.02
		l-0.06,0.02l-0.03,0.06l0.01,0.09l0.09,0.14l0.08,0.05l0.05,0.05l0.02,0.05l-0.03,0.05l-0.09,0.1l-0.03,0.06l-0.01,0.07l0.02,0.07
		l0.07,0.07l0.07,0.02l0.09,0.01l0.16-0.02l0.22,0.03h0.08l0.1-0.01h0.06l0.06,0.03l0.04,0.05l0.03,0.06l0.04,0.14l0.1,0.56
		l0.04,0.13l0.03,0.1l0.02,0.08v0.11l-0.09,0.52l-0.04,0.1l-0.04,0.07l-0.31,0.31l-0.02,0.07v0.07l0.05,0.07l0.03,0.05l0.02,0.04
		l0.01,0.06l-0.02,0.09l-0.06,0.18l-0.04,0.07v0.02l-0.01,0.03l0.01,0.05l0.02,0.24l-0.04,0.16l-0.03,0.08l-0.18,0.21l-0.01,0.03
		l-0.01,0.09l-0.01,0.35l-0.02,0.1l-0.02,0.07l-0.04,0.03l-0.04,0.05l-0.02,0.06l-0.02,0.08v0.17l-0.01,0.07l-0.03,0.05l-0.04,0.03
		l-0.15,0.07l-0.04,0.02l-0.03,0.04l-0.04,0.05l-0.03,0.06l-0.03,0.07l-0.01,0.07l-0.03,0.07l-0.02,0.06l-0.15,0.22l-0.08,0.19
		l-0.04,0.13l-0.02,0.18l0.02,0.11l0.06,0.13l0.17,0.23l0.09,0.1l0.09,0.08l0.54,0.36l0.09,0.08l0.08,0.09l0.04,0.05l0.01,0.06
		l-0.03,0.06l-0.11,0.09l-0.01,0.02l-0.03,0.05v0.03l0.02,0.04l0.17,0.1l0.06,0.03l0.04,0.04l0.04,0.06l0.07,0.12l0.03,0.07
		l0.01,0.08v0.11l0.01,0.08l0.05,0.07l0.06,0.03l0.07,0.16l0.02,0.46l-1.29-0.17l-0.18-0.11l-0.11-0.17l-0.05-0.24l-0.1-0.21
		l-0.41-0.29l-0.13-0.16l-0.01-0.17l0.05-0.11l0.06-0.09l0.03-0.12l-0.06-0.1l-0.12-0.07l-0.14-0.04l-0.11-0.01l-0.41,0.04
		l-0.13-0.02l-0.12-0.07l-0.06-0.07l-0.04-0.09l-0.07-0.12l-0.11-0.16l-0.14-0.14l-0.19-0.1l-0.89-0.04l-0.19-0.06l-0.11-0.09
		l-0.07-0.09l-0.1-0.06l-0.26-0.05l-0.22-0.11l-0.1-0.03h-0.52l-0.23-0.05l-0.23-0.11l-0.21-0.15l-0.37-0.31l-0.3-0.37l-0.18-0.15
		l-0.21-0.1l-0.24-0.03l-1.97,0.4h-0.27l-0.72-0.16l-0.21,0.06l-0.38,0.21l-0.23,0.02l-0.12-0.04l-0.21-0.12l-0.13-0.02l-0.4,0.11
		l-0.67-0.15l-0.25,0.07L68.2,64.7l-0.11,0.08L68,64.89l-0.03,0.18l-0.12,0.34l-0.04,0.06l-0.06,0.04l-0.2,0.18l-0.12,0.06
		l-0.27,0.03l-0.26-0.02l-0.71-0.22l-0.12-0.08l-0.05-0.15l-0.1-0.11l-1.38-0.55l-0.41-0.34l-0.42-0.26l-0.05-0.01l-0.12-0.01
		l-0.07-0.01l-1.05-0.64l-0.07-0.07l-0.2-0.23l-0.03-0.02h-0.06l-0.85,0.01l-1.68,0.02l-1.68,0.02l-1.68,0.01l-1.68,0.02l-1.68,0.01
		h-1.68l-1.69,0.01h-1.67h-1.69h-1.68l-1.68-0.01l-1.68-0.01l-1.68-0.01l-1.68-0.01l-1.68-0.02l-1.68-0.02l-1.68-0.02l-1.68-0.02
		l-1.68-0.03l-1.68-0.03l-1.68-0.03l-1.68-0.04l-1.68-0.03l-1.68-0.04l-1.68-0.05l-1.68-0.04l-1.68-0.05l-1.68-0.05l-1.68-0.05
		l-1.68-0.06l-1.68-0.06l-1.68-0.06l0.06-1.62l0.05-1.6l0.06-1.6l0.05-1.61l0.06-1.6l0.05-1.6l0.06-1.61l0.05-1.6l0.05-1.59
		l0.06-1.6l0.05-1.6l0.06-1.6l0.05-1.59l0.05-1.6l0.06-1.59l0.05-1.59l0.31,0.02l0.01-0.17l0.02-0.78l0.05-1.38l0.04-1.39l0.05-1.38
		l0.04-1.38l0.04-1.38l0.05-1.38l0.04-1.38l0.05-1.38l2.22,0.08l2.22,0.08l2.22,0.07l2.22,0.06l2.22,0.06l2.22,0.06l2.22,0.05
		l2.22,0.05l2.22,0.04l2.22,0.03l2.22,0.04l2.23,0.02l2.22,0.03l2.22,0.02l2.22,0.01l2.22,0.01h2.22h2.23l2.22-0.01l2.22-0.01
		l2.22-0.01l2.22-0.02l2.23-0.03l2.21-0.03l2.23-0.03l2.22-0.04l2.22-0.05l2.22-0.05l2.22-0.05l2.22-0.06l2.22-0.06L80.01,24.98
		L80.01,24.98z"/>
	<path id="SD_2_" class="st1" d="M80.01,24.98l-0.05,0.14l-0.04,0.05l-0.03,0.07l-0.02,0.06l-0.06,0.78l-0.06,0.22l-0.19,0.34
		l-0.27,0.64l-0.04,0.06l-0.07,0.1l-0.09,0.1l-0.25,0.21l-0.69,0.39l-0.1,0.09l-0.21,0.25l-0.36,0.25l-0.08,0.07l-0.07,0.08
		l-0.12,0.27l-0.03,0.27l0.26,0.31l0.49,0.5l0.2,0.28l0.37,0.76l0.22,0.37l0.21,0.16l0.76,0.06l0.41,0.11l0.28,0.19l0.11,0.11
		l0.23,0.18l0.1,0.09l0.27,0.47l0.07,0.13l0.05,0.04v0.01l0.02,0.49l0.09,2.8l0.09,2.81l0.1,2.81l0.09,2.81l0.09,2.82l0.09,2.82
		l0.09,2.82l0.1,2.82l-1.39,0.06l-0.04,0.04l0.03,0.08l0.03,0.07l0.03,0.09l0.01,0.09l-0.02,0.15v0.12l0.01,0.1l0.05,0.13l0.05,0.07
		l0.19,0.19l0.08,0.11l0.18,0.18l0.04,0.05l0.03,0.14l0.02,0.67l-0.03,0.31l-0.02,0.05l-0.04,0.05l-0.05,0.03l-0.07,0.02l-0.15-0.02
		l-0.06,0.02l-0.03,0.06l0.01,0.09l0.09,0.14l0.08,0.05l0.05,0.05l0.02,0.05l-0.03,0.05l-0.09,0.1l-0.03,0.06l-0.01,0.07l0.02,0.07
		l0.07,0.07l0.07,0.02l0.09,0.01l0.16-0.02l0.22,0.03h0.08l0.1-0.01h0.06l0.06,0.03l0.04,0.05l0.03,0.06l0.04,0.14l0.1,0.56
		l0.04,0.13l0.03,0.1l0.02,0.08v0.11l-0.09,0.52l-0.04,0.1l-0.04,0.07l-0.31,0.31l-0.02,0.07v0.07l0.05,0.07l0.03,0.05l0.02,0.04
		l0.01,0.06l-0.02,0.09l-0.06,0.18l-0.04,0.07v0.02l-0.01,0.03l0.01,0.05l0.02,0.24l-0.04,0.16l-0.03,0.08l-0.18,0.21l-0.01,0.03
		l-0.01,0.09l-0.01,0.35l-0.02,0.1l-0.02,0.07l-0.04,0.03l-0.04,0.05l-0.02,0.06l-0.02,0.08v0.17l-0.01,0.07l-0.03,0.05l-0.04,0.03
		l-0.15,0.07l-0.04,0.02l-0.03,0.04l-0.04,0.05l-0.03,0.06l-0.03,0.07l-0.01,0.07l-0.03,0.07l-0.02,0.06l-0.15,0.22l-0.08,0.19
		l-0.04,0.13l-0.02,0.18l0.02,0.11l0.06,0.13l0.17,0.23l0.09,0.1l0.09,0.08l0.54,0.36l0.09,0.08l0.08,0.09l0.04,0.05l0.01,0.06
		l-0.03,0.06l-0.11,0.09l-0.01,0.02l-0.03,0.05v0.03l0.02,0.04l0.17,0.1l0.06,0.03l0.04,0.04l0.04,0.06l0.07,0.12l0.03,0.07
		l0.01,0.08v0.11l0.01,0.08l0.05,0.07l0.06,0.03l0.07,0.16l0.02,0.46l-1.29-0.17l-0.18-0.11l-0.11-0.17l-0.05-0.24l-0.1-0.21
		l-0.41-0.29l-0.13-0.16l-0.01-0.17l0.05-0.11l0.06-0.09l0.03-0.12l-0.06-0.1l-0.12-0.07l-0.14-0.04l-0.11-0.01l-0.41,0.04
		l-0.13-0.02l-0.12-0.07l-0.06-0.07l-0.04-0.09l-0.07-0.12l-0.11-0.16l-0.14-0.14l-0.19-0.1l-0.89-0.04l-0.19-0.06l-0.11-0.09
		l-0.07-0.09l-0.1-0.06l-0.26-0.05l-0.22-0.11l-0.1-0.03h-0.52l-0.23-0.05l-0.23-0.11l-0.21-0.15l-0.37-0.31l-0.3-0.37l-0.18-0.15
		l-0.21-0.1l-0.24-0.03l-1.97,0.4h-0.27l-0.72-0.16l-0.21,0.06l-0.38,0.21l-0.23,0.02l-0.12-0.04l-0.21-0.12l-0.13-0.02l-0.4,0.11
		l-0.67-0.15l-0.25,0.07L68.2,64.7l-0.11,0.08L68,64.89l-0.03,0.18l-0.12,0.34l-0.04,0.06l-0.06,0.04l-0.2,0.18l-0.12,0.06
		l-0.27,0.03l-0.26-0.02l-0.71-0.22l-0.12-0.08l-0.05-0.15l-0.1-0.11l-1.38-0.55l-0.41-0.34l-0.42-0.26l-0.05-0.01l-0.12-0.01
		l-0.07-0.01l-1.05-0.64l-0.07-0.07l-0.2-0.23l-0.03-0.02h-0.06l-0.85,0.01l-1.68,0.02l-1.68,0.02l-1.68,0.01l-1.68,0.02l-1.68,0.01
		h-1.68l-1.69,0.01h-1.67h-1.69h-1.68l-1.68-0.01l-1.68-0.01l-1.68-0.01l-1.68-0.01l-1.68-0.02l-1.68-0.02l-1.68-0.02l-1.68-0.02
		l-1.68-0.03l-1.68-0.03l-1.68-0.03l-1.68-0.04l-1.68-0.03l-1.68-0.04l-1.68-0.05l-1.68-0.04l-1.68-0.05l-1.68-0.05l-1.68-0.05
		l-1.68-0.06l-1.68-0.06l-1.68-0.06l0.06-1.62l0.05-1.6l0.06-1.6l0.05-1.61l0.06-1.6l0.05-1.6l0.06-1.61l0.05-1.6l0.05-1.59
		l0.06-1.6l0.05-1.6l0.06-1.6l0.05-1.59l0.05-1.6l0.06-1.59l0.05-1.59l0.31,0.02l0.01-0.17l0.02-0.78l0.05-1.38l0.04-1.39l0.05-1.38
		l0.04-1.38l0.04-1.38l0.05-1.38l0.04-1.38l0.05-1.38l2.22,0.08l2.22,0.08l2.22,0.07l2.22,0.06l2.22,0.06l2.22,0.06l2.22,0.05
		l2.22,0.05l2.22,0.04l2.22,0.03l2.22,0.04l2.23,0.02l2.22,0.03l2.22,0.02l2.22,0.01l2.22,0.01h2.22h2.23l2.22-0.01l2.22-0.01
		l2.22-0.01l2.22-0.02l2.23-0.03l2.21-0.03l2.23-0.03l2.22-0.04l2.22-0.05l2.22-0.05l2.22-0.05l2.22-0.06l2.22-0.06L80.01,24.98
		L80.01,24.98z"/>
</g>
<g id="TENNESSEE">
</g>
<g id="TEXAS">
</g>
<g id="UTAH">
</g>
<g id="VIRGINIA">
</g>
<g id="VERMONT">
</g>
<g id="WASHINGTON">
</g>
<g id="WISCONSIN">
</g>
<g id="WEST_VIRGINIA">
</g>
<g id="WYOMING">
</g>
</svg>
