<?xml version="1.0" encoding="UTF-8"?>
<svg id="SOUTH_CAROLINA" data-name="SOUTH CAROLINA" xmlns="http://www.w3.org/2000/svg" viewBox="0 0 90 90">
  <defs>
    <style>
      .cls-1 {
        fill: #e2e2e2;
        stroke: #f9f9f9;
        stroke-linecap: round;
        stroke-linejoin: round;
        stroke-width: .03px;
      }
    </style>
  </defs>
  <path id="SC" class="cls-1" d="M75.53,57.39l-.22,.22-.12,.31v.37s.06,.38,.06,.38l.12-.03,.18-.82-.04-.31,.06-.03v-.03s0-.03,0-.03l-.03-.03Zm9.38-17.71l-.12-.1-.15-.06h-.16v-.13s.38-.21,.38-.21l-1.26-.88-1.26-.87-1.28-.87-1.26-.87-1.26-.87-1.25-.87-1.26-.88-1.26-.88-1.26-.87-2.51-1.75-2.51-1.76-1.25-.87-1.25-.88-1.25-.88-.62-.43-.34-.04h-.5l-.6,.09-.18,.03-.52,.09-.79,.13-1.01,.16-1.22,.19-1.35,.22-1.44,.22-1.5,.23-1.5,.23-1.44,.23-1.37,.21-1.2,.19-1.03,.16-.79,.12-.5,.07-.18,.03-.65,.1h-.13s-.1-.1-.1-.1l-.06-.12-.03-.13-.29-2.03-.03-.12-.09-.1-.85-.81-1.06-1-.74-.67-.06-.04h-.06s-.07-.01-.07-.01l-.09,.07-1.16,1.17-.09,.04h-.09s-.12-.06-.12-.06l-.07-.07-.07-.09-.04-.09-.03-.07v-.25s.12-.4,.12-.4l.03-.1v-.12s-.03-.1-.03-.1l-.04-.09-.04-.07-.06-.06-.07-.06-.09-.06-.13-.03h-.21l-1,.12-.84,.1-1.01,.12-1.19,.13-1.3,.16-1.39,.16-1.47,.16-1.47,.18-1.47,.18-1.44,.15-1.34,.16-1.23,.13-1.09,.12-.91,.1-.69,.07-.44,.04-.15,.03-1.16,.12-1.19,.31h-.07s-.06-.04-.06-.04l-.04-.04-.1-.1-.04-.06-.07-.04h-.1s-.12,.07-.12,.07l-.21,.19-.09,.12-.06,.12-.04,.31-.07,.09-.12,.07-.57,.09-.1,.06-.1,.13-.06,.09-.07,.06-.12,.04-.59,.1-.1,.04-.78,.4-.5,.35-.13,.09-.13,.05h-.18s-.15,.04-.15,.04l-.09,.1-.03,.12-.03,.22-.1,.15-.15,.15-.35,.26-.16,.15-.13,.1-.07,.03-.13-.03-.07-.06-.09-.15-.5,.19-4.44,2.29-.3,.04v.03s.03,.24,.03,.24l-.06,.25-.1,.23-.16,.21-.41,.19-.19,.15-.57,.57-.15,.23-.1,.31-.15,.65-.12,.31-.18,.22-.22,.19-.19,.23-.09,.29-.04,.12v.15s0,.16,0,.16v.16l-.04,.18-.22,.38-.03,.85,.62,.63,1.61,.73,.57,.19,.38-.18h.12s.06,.28,.06,.28l.16,.22,.64,.25,.42,.4,.37,.18,.34,.41,.29,.27,.57,.21,.75-.15,1.11-.16,.75,.32,.25,.48,.16,.51,.32,.6,.18,.15,1.15,1.28,.21,.43,.56,1.63,.13,.25,.13,.07,.32,.32,.4,.09,.23,.16,.22,.19,.16,.18,.26,.51,.18,.25,.41,.15,.18,.19,.25,.51,.25,.44,.21,.48,.23,.19,.28,.05,.32-.05,.31,.22,.34,.37,.46,.38,.56,.25,.56,.16,.69,.31,.78,.45,.91,.6,.53,.45,.34,.84,.33,.35,.21,.41,.34,.53,.38,.31,.42,.19,.37,.1,.81,.1,.35,.12,.38,.22,.83,.76,.38,.26,.74,.34,.29,.31-.06,.44,.1,.09,.19,.27-.25,.09v.15s.25,.45,.25,.45l-.21,.16,.16,.27,.82,.72,.16,.1,.04-.1,.07-.1h.18s.21,.03,.21,.03l.12,.04,.03,.13-.21,.16,.32,.18,.15,.21v.21s-.22,.19-.22,.19l.32,.4,.29,.21,.31,.06,.37-.04,.13,.15,.23,.76,.13,.25,.66,.4,1.53,.35,.73,.28,.54,.37,.26,.12h.37l.23,.1,.26,.29,.22,.37,.1,.32v.69s.04,.38,.04,.38l.22,.13,1.09,1.32,.25,.51,.1,.29,.06,.28,.15,.29,.21,.23,.16,.29v.26s-.06,.16-.06,.16v.23l-.03,.22,.06,.09,.09,.03,.12,.12,.1,.13,.06,.13v.38s-.03,.31-.03,.31l.03,.29,.22,.29,.23,.18,.34,.16,.37,.1h.5s.16,.06,.16,.06l.16,.09,.15,.1,.29,.25,.09,.04h.07s.38,.12,.38,.12l.1,.06,.09,.16,.07,.21,.12,.18,.23,.04,.25,.1,.13,.32,.09,.6,.78,1.51,.26,.04,.23,.19,.19,.32,.1,.4v.25s-.07,.28-.07,.28l-.03,.19v.22s.13,.5,.13,.5v.13s-.12,.37-.12,.37v.21l.07,.13,.4,.57v.06s-.01,.09-.01,.09v.1s.09,.13,.09,.13l.09,.07,.19,.07,.1,.06,.57,.51,.16,.06,.94-.25,.38,.03,.72,.19,.13,.13,.16,.24,.28,.16,.32,.06,.34-.03h.01l-.15-.26v-.24s.06-.23,.06-.23l.6-1.03,.11-.4-.03-.48,.06-.15,.31-.47,.09-.22v-.29s-.04-.25-.04-.25v-.23l.1-.21,.16,.73-.35,1.31-.03,.75,1.23-1.1,.41-.85,.35-.54-.03-.21-.29-.34-.18-.16-.22-.13h-.26s-.28,.18-.28,.18l-.66-.82-.16-.13-.27-.07-.04-.28,.11-.5-.24-.46-.44-.66-.34-.66,.04-.47v-.13s-.18-.19-.18-.19l-.34-.51-.24-.15v-.12s.3-.06,.3-.06l.18,.15,.12,.23,.19,.22,.28,.1h.22s.06,.07,.06,.07l-.18,.38,.09,.41,.32,.69,.6,1.01,1.28,.79,.25,.09,.16-.07v-.37s-.06-.19-.06-.19l-.21-.29-.07-.15-.22-1.32,.03-.27,.1-.27-.1-.04-.03-.06-.1,.04-.04,.03-.03-.03-.07-.15,.44-.04,.16,.32-.06,1.45,.1,.09,.54-.36v1.25l.07,.51,.19,.5,.19,.04,.59-.42,.12-.03h.26l.18-.07,1.2-1.09,.13-.32-.34-.13,.04-.03h.06s.01-.04,.01-.04v-.1s.09-.01,.09-.01l.22,.06,.12-.35,.04-.48v-.4s-.13,.03-.13,.03l-.04,.18-.1,.16-.21,.28-.16,.23-.37,.32-.41,.26-.29,.1-.04-.21,.22-.37,.34-.37,.66-.43v-.38s-.23-.34-.23-.34l-.44-.09-1.54,.15,.37-.24,.44-.19,.48-.12,.45-.04-.03-.15-.23-.04-.44-.18h-.23s-.18,.05-.18,.05l-.29,.13-.19,.06-1.5-.03-.28,.21v-.13s-.04-.12-.04-.12l.1-.22,.13-.12,.52-.09,1.2-.03,.4-.12-.13-.16-.12-.18-.09-.21-.03-.22,.12-.03,.16,.24,.15,.12,.7,.44h.22s.21-.01,.21-.01h.34s.28,.13,.28,.13l.18,.15,.18,.12h.29l.22-.16,.09-.31v-.37s-.12-.31-.12-.31l.25,.09,.11,.19,.06,.22,.13,.18,.25,.13,.12-.07,.1-.13,.19-.1,1.03-1.07,.16-.12,.13-.13,.09-.19,.03-.18-.03-.04-.1-.02-.88-.56-.25-.21,.23-.09,.35,.15,.62,.47,.45,.27,.22-.1,.19-.26,.35-.19,.35-.12,.7-.4,.84-.31,.13-.18-.16-.18-.41-.19-.03-.12,.13-.13h.18s.42,0,.42,0l.41-.09,.15-.1,.84-.87,.19-.43-.06-.6-.1,.03v.12h-.04s-.26-.09-.26-.09l-.13-.16-.16-.12-.6-.02-.26-.15-.22-.23-.12-.27,.26,.16,.25,.09,.16-.05v-.26s-.07-.31-.07-.31l-.25-.46-.09-.26,.09-.07,.64,.28-.04-.06v-.15l.04-.15,.1-.07,.34,.21-.28,.56-.09,.34,.13,.12,.31,.04,.22,.21,.19,.21,.19,.07,.35-.15,.46-.29,.79-.69,.21-.4,.18-.48,.23-.44,.41-.25,.07-.07,.03-.15,.04-.15,.12-.09,.13-.06,.7-.6,.1-.18,.06-.31-.16,.07-.15,.12-.1,.13-.06,.18-.25-.28-.13-.21v-.24s.23-.95,.23-.95l.16-.29,.22-.15,.46-.44,.28-.15,.18,.21,.07,.15,.29,.34,.1,.19,.21-.21,.29-.19,.35-.16,.37-.09,.4-.18,.07-.26-.04-.32,.06-.37,.26-.35,.65-.45,.21-.31-.03-.41-.32-.1h-.38s-.22-.25-.22-.25l.34-.03,.4,.03,.32,.13,.18,.31,.1-.06,.06-.06,.07-.09,.04-.12-.21-.15-.16-.21v-.19s.19-.12,.19-.12l.15,.04,.19,.31,.16,.12,.07-.34,.16-.22,.21-.19,.18-.21-.23-.03-.12-.09-.18-.32-.09-.22v-.22s-.09-.16-.09-.16l-.59-.04-.42-.15-.38-.25-.21-.35-.03-.41,.06-.44,.1-.43,.54-1.17,.26-.37,.34-.23v.12s-.13,.21-.13,.21l-.45,.79-.26,.98-.04,.47,.09,.19,.67-.12,.23,.07,.22,.24,.15,.34,.15,.7,.19,.25h.1s-.09-.47-.09-.47v-2.35l.09-.23-.15-.1,.22-.88,1.22-2.58,1.12-2.39,.9-1.42,1.41-1.76,1.51-1.38,.63-.4,.66-.18-.09-.16Z"/>
  <g>
    <path d="M48.46,47.74c-.14,.23-.34,.41-.6,.54-.27,.13-.59,.2-.97,.2-.57,0-1.04-.14-1.41-.42-.37-.28-.57-.67-.6-1.17h1.31c.02,.19,.09,.34,.21,.45,.12,.11,.27,.17,.45,.17,.16,0,.28-.04,.37-.13,.09-.09,.14-.2,.14-.35,0-.13-.04-.24-.13-.32-.08-.09-.19-.16-.31-.21-.12-.06-.3-.12-.52-.2-.32-.11-.58-.22-.79-.32s-.38-.26-.53-.46-.22-.47-.22-.8c0-.3,.08-.56,.23-.78s.37-.39,.64-.51c.27-.12,.58-.18,.93-.18,.57,0,1.02,.13,1.35,.4,.33,.27,.52,.64,.57,1.11h-1.33c-.02-.17-.09-.3-.18-.4-.1-.1-.23-.15-.4-.15-.14,0-.26,.04-.35,.12-.09,.08-.13,.19-.13,.34,0,.12,.04,.22,.12,.31s.18,.15,.3,.21,.29,.12,.52,.2c.33,.11,.59,.22,.8,.33,.21,.11,.38,.27,.53,.47,.15,.21,.22,.48,.22,.81,0,.27-.07,.52-.21,.74Z"/>
    <path d="M53.29,43.8c.42,.34,.7,.8,.82,1.38h-1.3c-.1-.24-.24-.42-.44-.55-.2-.13-.44-.2-.71-.2-.36,0-.65,.13-.87,.4-.22,.26-.33,.62-.33,1.06s.11,.79,.33,1.05,.51,.39,.87,.39c.27,0,.51-.07,.71-.2,.2-.13,.35-.32,.44-.55h1.3c-.12,.58-.4,1.04-.82,1.38-.42,.34-.96,.51-1.61,.51-.49,0-.93-.11-1.3-.33-.37-.22-.66-.52-.87-.92-.2-.39-.31-.84-.31-1.35s.1-.95,.31-1.35c.2-.39,.49-.7,.87-.92,.37-.22,.81-.33,1.3-.33,.65,0,1.18,.17,1.61,.51Z"/>
  </g>
</svg>