<?xml version="1.0" encoding="UTF-8"?>
<svg id="SOUTH_DAKOTA" data-name="SOUTH DAKOTA" xmlns="http://www.w3.org/2000/svg" viewBox="0 0 90 90">
  <defs>
    <style>
      .cls-1 {
        fill: #e2e2e2;
        stroke: #f9f9f9;
        stroke-linecap: round;
        stroke-linejoin: round;
        stroke-width: .03px;
      }
    </style>
  </defs>
  <path id="SD" class="cls-1" d="M80.01,24.98l-.05,.14-.04,.05-.03,.07-.02,.06-.06,.78-.06,.22-.19,.34-.27,.64-.04,.06-.07,.1-.09,.1-.25,.21-.69,.39-.1,.09-.2,.25-.36,.25-.08,.07-.07,.08-.12,.27-.03,.27,.26,.31,.49,.5,.2,.28,.37,.76,.22,.37,.21,.16,.76,.06,.41,.11,.28,.19,.11,.11,.23,.18,.1,.09,.27,.47,.07,.13,.05,.04h0s.02,.5,.02,.5l.09,2.8,.09,2.81,.1,2.81,.09,2.81,.09,2.82,.09,2.82,.09,2.82,.1,2.82-1.39,.06-.04,.04,.03,.08,.03,.07,.03,.09v.09s0,.15,0,.15v.22s.06,.13,.06,.13l.05,.07,.19,.19,.08,.11,.18,.18,.04,.05,.03,.14,.02,.67-.03,.31-.02,.05-.04,.05-.05,.03-.07,.02-.15-.02-.06,.02-.03,.06v.09s.1,.14,.1,.14l.08,.05,.05,.05,.02,.05-.03,.05-.09,.1-.03,.06v.07s0,.07,0,.07l.07,.07,.07,.02h.09s.16-.01,.16-.01l.22,.03h.18s.06,0,.06,0l.06,.03,.04,.05,.03,.06,.04,.14,.1,.56,.04,.13,.03,.1,.02,.08v.11l-.09,.52-.04,.1-.04,.07-.31,.31-.02,.07v.07l.05,.07,.03,.05,.02,.04v.06s0,.09,0,.09l-.06,.18-.04,.07v.05s0,.05,0,.05l.02,.24-.04,.16-.03,.08-.18,.21v.03s-.02,.09-.02,.09v.35s-.03,.1-.03,.1l-.02,.07-.04,.03-.04,.05-.02,.06-.02,.08v.24s-.04,.05-.04,.05l-.04,.03-.15,.07-.04,.02-.03,.04-.04,.05-.03,.06-.03,.07v.07s-.04,.07-.04,.07l-.02,.06-.15,.22-.08,.19-.04,.13-.02,.18,.02,.11,.06,.13,.17,.23,.09,.1,.09,.08,.54,.36,.09,.08,.08,.09,.04,.05v.06s-.02,.06-.02,.06l-.11,.09v.02s-.04,.05-.04,.05v.03l.02,.04,.17,.1,.06,.03,.04,.04,.04,.06,.07,.12,.03,.07v.08s0,.11,0,.11v.08s.06,.07,.06,.07l.06,.03,.07,.16,.02,.46-1.29-.17-.18-.11-.11-.17-.05-.24-.1-.2-.41-.29-.13-.16v-.17s.04-.11,.04-.11l.06-.09,.03-.12-.06-.1-.12-.07-.14-.04h-.11s-.41,.03-.41,.03l-.13-.02-.12-.07-.06-.07-.04-.09-.07-.12-.11-.16-.14-.14-.19-.1-.89-.04-.19-.06-.11-.09-.07-.09-.1-.06-.26-.05-.22-.11-.1-.03h-.52l-.23-.05-.23-.11-.21-.15-.37-.31-.3-.37-.18-.15-.21-.1-.24-.03-1.97,.4h-.27l-.72-.16-.21,.06-.38,.21-.23,.02-.12-.04-.21-.12-.13-.02-.4,.11-.67-.15-.25,.07-.12,.05-.11,.08-.09,.11-.03,.18-.12,.34-.04,.06-.06,.04-.2,.18-.12,.06-.27,.03-.26-.02-.71-.22-.12-.08-.05-.15-.1-.11-1.38-.55-.41-.34-.42-.26h-.05s-.12-.02-.12-.02h-.07s-1.05-.65-1.05-.65l-.07-.07-.2-.23-.03-.02h-.91s-1.68,.03-1.68,.03l-1.68,.02h-1.68s-1.68,.03-1.68,.03h-1.68s-1.68,0-1.68,0h-1.69s-1.67,0-1.67,0h-5.06s-1.68-.02-1.68-.02h-1.68s-1.68-.02-1.68-.02l-1.68-.02-1.68-.02-1.68-.02-1.68-.02-1.68-.03-1.68-.03-1.68-.03-1.68-.04-1.68-.03-1.68-.04-1.68-.05-1.68-.04-1.68-.05-1.68-.05-1.68-.05-1.68-.06-1.68-.06-1.68-.06,.06-1.62,.05-1.6,.06-1.6,.05-1.61,.06-1.6,.05-1.6,.06-1.61,.05-1.6,.05-1.59,.06-1.6,.05-1.6,.06-1.6,.05-1.59,.05-1.6,.06-1.59,.05-1.59,.31,.02v-.17s.03-.78,.03-.78l.05-1.38,.04-1.39,.05-1.38,.04-1.38,.04-1.38,.05-1.38,.04-1.38,.05-1.38,2.22,.08,2.22,.08,2.22,.07,2.22,.06,2.22,.06,2.22,.06,2.22,.05,2.22,.05,2.22,.04,2.22,.03,2.22,.04,2.23,.02,2.22,.03,2.22,.02h2.22s2.22,.02,2.22,.02h6.67s2.22-.02,2.22-.02h2.22s2.22-.03,2.22-.03l2.23-.03,2.21-.03,2.23-.03,2.22-.04,2.22-.05,2.22-.05,2.22-.05,2.22-.06,2.22-.06,2.22-.07h0Z"/>
  <g>
    <path d="M40.83,46.27c-.14,.23-.34,.41-.6,.54-.27,.13-.59,.2-.97,.2-.57,0-1.04-.14-1.41-.42s-.57-.67-.6-1.17h1.31c.02,.19,.09,.34,.21,.45s.27,.17,.45,.17c.16,0,.28-.04,.37-.13,.09-.09,.14-.2,.14-.35,0-.13-.04-.24-.13-.32-.08-.09-.19-.16-.31-.21-.12-.06-.3-.12-.52-.2-.32-.11-.58-.22-.79-.32-.2-.1-.38-.26-.53-.46s-.22-.47-.22-.8c0-.3,.08-.56,.23-.78s.37-.39,.64-.51,.58-.18,.93-.18c.57,0,1.02,.13,1.35,.4,.33,.27,.52,.64,.56,1.11h-1.33c-.02-.17-.09-.3-.18-.4-.1-.1-.23-.15-.4-.15-.14,0-.26,.04-.35,.12-.09,.08-.13,.19-.13,.34,0,.12,.04,.22,.12,.31s.18,.15,.3,.21,.29,.12,.52,.2c.33,.11,.59,.22,.8,.33,.21,.11,.38,.27,.53,.47,.15,.21,.22,.48,.22,.81,0,.27-.07,.52-.21,.74Z"/>
    <path d="M45.98,45.74c-.21,.39-.52,.69-.92,.9-.4,.22-.87,.32-1.42,.32h-1.92v-5.09h1.92c.55,0,1.02,.11,1.42,.32s.7,.51,.92,.89c.21,.38,.32,.83,.32,1.33s-.11,.94-.32,1.33Zm-1.32-.26c.27-.25,.4-.61,.4-1.07s-.13-.82-.4-1.07c-.27-.25-.64-.38-1.12-.38h-.58v2.91h.58c.48,0,.85-.13,1.12-.38Z"/>
  </g>
</svg>