<?xml version="1.0" encoding="utf-8"?>
<!-- Generator: Adobe Illustrator 26.5.0, SVG Export Plug-In . SVG Version: 6.00 Build 0)  -->
<svg version="1.1" xmlns="http://www.w3.org/2000/svg" xmlns:xlink="http://www.w3.org/1999/xlink" x="0px" y="0px"
	 viewBox="0 0 90 90" style="enable-background:new 0 0 90 90;" xml:space="preserve">
<style type="text/css">
	.st0{fill:#CECECE;stroke:#F9F9F9;stroke-width:0.025;stroke-linecap:round;stroke-linejoin:round;}
	.st1{display:none;fill:none;stroke:#47CCCC;stroke-width:0.5;stroke-linecap:round;stroke-linejoin:round;}
	.st2{fill:#CECECE;}
</style>
<g id="ALABAMA">
</g>
<g id="ALASKA">
</g>
<g id="ARIZONA">
</g>
<g id="ARKANSAS_1_">
</g>
<g id="CALIFORNIA">
</g>
<g id="COLORADO">
</g>
<g id="CONNECTICUT">
</g>
<g id="DELAWARE">
</g>
<g id="DC">
</g>
<g id="FLORIDA">
</g>
<g id="GEORGIA">
</g>
<g id="HAWAII">
</g>
<g id="IDAHO">
</g>
<g id="IOWA">
</g>
<g id="ILLINOIS">
</g>
<g id="INDIANA">
</g>
<g id="KANSAS">
</g>
<g id="KETUCKY">
</g>
<g id="LOUISANA">
</g>
<g id="MAINE">
</g>
<g id="MARYLAND">
</g>
<g id="MASSACHUSETTS">
</g>
<g id="MICHIGAN">
</g>
<g id="MINNESOTA">
</g>
<g id="MISSOURI">
</g>
<g id="MISSISSIPPI">
</g>
<g id="MONTANA">
</g>
<g id="NORTH_CAROLINA">
</g>
<g id="NORTH_DAKOTA">
</g>
<g id="NEBRASKA">
</g>
<g id="NEW_HAMPSHIRE">
</g>
<g id="NEW_JERSEY">
</g>
<g id="NEW_YORK">
</g>
<g id="NEW_MEXICO">
</g>
<g id="NEVADA">
</g>
<g id="OHIO">
</g>
<g id="OKLAHOMA">
</g>
<g id="OREGON">
</g>
<g id="PENNSYLVANIA">
</g>
<g id="RHODE_ISLAND">
</g>
<g id="SOUTH_CAROLINA">
</g>
<g id="SOUTH_DAKOTA">
</g>
<g id="TENNESSEE">
	<path id="TN_1_" class="st0" d="M66.02,36.33l0.93-0.13l0.93-0.13l0.93-0.13l0.93-0.14l0.93-0.13l0.93-0.14l0.93-0.14l0.93-0.14
		l0.93-0.14l0.93-0.14l0.93-0.14l0.93-0.14l0.92-0.15l0.93-0.14l0.93-0.15l0.93-0.14l0.43-0.07l0.07-0.04l0.17-0.2l0.07-0.03
		l0.07-0.02l0.62-0.08l0.76-0.1l0.84-0.11l-0.31,0.77l-0.04,0.24l0.02,0.05l0.17,0.24l0.02,0.1l-0.07,0.43l-0.15,0.5l-0.02,0.11
		v0.07l0.02,0.04l0.12,0.17l0.15,0.15l0.03,0.05l0.03,0.05l-0.02,0.04l-0.04,0.02l-0.28,0.01l-0.5-0.08l-0.04,0.01L83,36.43
		l-0.62,0.58l-0.21,0.24l-0.03,0.05l-0.61,1.85l-0.06,0.11l-0.07,0.09l-0.08,0.06l-0.13,0.15l-0.07,0.07l-0.07,0.04l-0.06,0.02H80.9
		l-0.14-0.02l-0.07-0.02l-0.05-0.02l-0.05-0.02l-0.04-0.04l-0.02-0.04l-0.02-0.05l-0.02-0.06l-0.02-0.05l-0.02-0.04l-0.03-0.03
		l-0.04-0.02l-0.05-0.02h-0.06l-0.12,0.02h-0.07l-0.05-0.02l-0.09-0.05l-0.05-0.01l-0.03,0.01l-0.05,0.02l-0.09,0.06l-0.25,0.25
		l-0.04,0.03l-0.19,0.02l-0.07,0.02l-0.21,0.15l-0.3,0.13l-0.08,0.05l-0.13,0.1l-0.14,0.15l-0.26,0.37l-0.07,0.14l-0.07,0.28
		l-0.02,0.07l-0.13,0.24l-0.06,0.08l-0.05,0.06l-0.03,0.03l-0.03,0.02l-0.37,0.32l-0.07,0.05l-0.06,0.02l-0.06,0.01l-0.06-0.01
		l-0.06-0.02l-0.05-0.02l-0.05-0.04l-0.03-0.03l-0.03-0.04l-0.08-0.14l-0.02-0.06l-0.01-0.07l0.01-0.08l0.03-0.15l0.01-0.05
		l-0.01-0.03l-0.02-0.02l-0.18-0.19l-0.04-0.02l-0.07-0.01l-0.08,0.03l-0.39,0.28l-0.21,0.12l-0.56,0.43l-0.01,0.02l-0.02,0.03v0.04
		l0.02,0.16l-0.01,0.06l-0.02,0.05l-0.09,0.13l-0.02,0.1l-0.01,0.07l-0.04,0.09l-0.05,0.04l-0.06,0.02l-0.05-0.01l-0.11-0.07
		l-0.13-0.07l-0.12-0.03l-0.08-0.01l-0.09,0.02l-0.13,0.05l-0.07,0.05l-0.05,0.05l-0.02,0.05l-0.02,0.05l-0.02,0.07v0.07l0.01,0.06
		l0.02,0.06l0.02,0.05l0.11,0.17l0.01,0.06l-0.02,0.07l-0.08,0.15l-0.02,0.05v0.12l-0.01,0.06l-0.03,0.11l-0.18,0.37l-0.18,0.31
		l-0.07,0.06l-0.05,0.02l-0.14-0.02l-0.38,0.02l-0.11-0.02l-0.05,0.02l-0.04,0.02l-0.44,0.32l-0.3,0.14l-0.07,0.04l-0.05,0.04
		l-0.18,0.26l-0.08,0.07l-0.22,0.12l-0.07,0.04l-0.04,0.05l-0.02,0.05l-0.17,0.22l-0.14,0.28l-0.06,0.03l-0.07,0.02l-0.07-0.01
		l-0.08,0.01l-0.09,0.03l-0.07,0.05l-0.12,0.15l-0.08,0.12l-0.1,0.11l-0.46,0.28l-0.07,0.07l-0.05,0.06l-0.07,0.13l-0.17,0.22
		l-0.06,0.06l-0.05,0.03l-0.57,0.21l-0.07,0.01l-0.07-0.01l-0.05-0.02l-0.05-0.03l-0.05-0.03l-0.07-0.01l-0.08,0.01l-0.17,0.08
		l-0.1,0.02l-0.08,0.02l-0.05-0.01h-0.06l-0.06,0.02l-0.06,0.02l-0.08,0.05l-0.03,0.01l-0.03,0.01l-0.33,0.02l-0.06,0.01l-0.17,0.07
		l-0.17,0.09l-0.2,0.17l-0.12,0.13l-0.08,0.06l-0.07,0.04l-0.28,0.11l-0.14,0.07l-0.07,0.06l-0.04,0.05l-0.11,0.32l-0.03,0.06
		l-0.06,0.09l-0.06,0.05l-0.36,0.18l-0.07,0.06l-0.06,0.07l-0.17,0.25l-0.02,0.06l-0.02,0.04v0.04V50l0.07,0.14l0.01,0.05v0.07
		l-0.01,0.06l-0.02,0.06l-0.12,0.25l-0.02,0.07l-0.02,0.11v0.07l0.03,0.36l-0.02,0.1l-0.07,0.11l-0.15,0.2l-0.07,0.09l-0.06,0.05
		l-0.03,0.01l-0.23,0.03l-0.48,0.12l-0.13,0.02h-0.06l-0.05-0.02l-0.05-0.02l-0.08-0.07l-0.06-0.01l-0.07,0.01l-0.13,0.07
		l-0.07,0.05l-0.05,0.05l-0.14,0.18l-0.08,0.15l-0.04,0.11l-0.02,0.05v0.09l0.02,0.38l0.02,0.42l0.03,0.62l0.02,0.53l0.03,0.52
		l-0.81,0.07l-0.86,0.08l-0.65,0.06l-0.07-0.02l-0.32,0.04l-1.15,0.17l-1.14,0.16l-1.15,0.16l-1.15,0.16l-1.14,0.15l-1.15,0.15
		l-1.15,0.16l-1.14,0.15l-1.45,0.17l-1.44,0.17l-1.44,0.17l-1.44,0.17l-1.44,0.17l-1.45,0.16l-1.44,0.16l-1.44,0.16L37.87,58
		l-1.45,0.15l-1.44,0.15l-1.44,0.15L32.1,58.6l-1.44,0.14l-1.45,0.14l-1.44,0.14l-0.32,0.02l-0.11,0.01l0.13,0.28l-0.08,0.01
		l-0.33,0.03l-1.18,0.12l-1.19,0.13l-1.19,0.12l-1.2,0.13l-1.19,0.12l-1.19,0.12l-1.19,0.12l-1.19,0.12l-1.19,0.11l-1.19,0.12
		l-1.19,0.11l-1.2,0.11l-1.19,0.11L10.41,61l-1.19,0.11l-1.2,0.1l-0.08-0.12l0.09-0.09l0.17-0.05l0.21-0.11l0.32-0.22l0.12-0.15
		l0.08-0.18l0.04-0.19v-0.22l0.07-0.2l0.22-0.02l0.25,0.04h0.19l0.17-0.3l-0.03-0.45l-0.13-0.46l-0.23-0.54l-0.06-0.22l-0.06-0.51
		l0.02-0.27l0.1-0.18l0.45-0.45l0.12-0.17l0.09-0.19l0.03-0.19l-0.02-0.28l0.02-0.19l0.1-0.13l0.22-0.08l0.23-0.05l0.2-0.07
		l0.08-0.15l-0.15-0.26l-0.16-0.2l-0.05-0.13l0.05-0.11l0.14-0.14l0.14-0.19l-0.01-0.14l-0.28-0.31l-0.16-0.25l-0.02-0.2l0.12-0.16
		l1.33-0.73l0.53-0.53l-0.1-0.19l-0.26-0.16l-0.25-0.09l0.07-0.21l0.12-0.16l0.16-0.1l0.2-0.04l0.28,0.18l0.14,0.02l0.05-0.22
		l-0.16-0.32l-0.26-0.22l-0.2-0.27l0.01-0.08l0.04-0.39l0.23-0.48l0.02-0.19l0.06-0.11l0.13-0.12l0.17-0.11l0.14-0.04l0.06-0.22
		l-0.28-0.43l-0.56-0.67l0.16-0.07l0.84-0.11l0.11-0.04l0.08-0.08l0.02-0.12l-0.1-0.07l-0.23-0.06l-0.18-0.14l-0.16-0.22l-0.04-0.2
		l0.17-0.11l0.23-0.02l0.22-0.05l0.15-0.12l0.07-0.26l-0.05-0.24l-0.24-0.44l-0.01-0.17l0.04-0.22l-0.08-0.16l-0.04-0.03l0.58-0.08
		l-0.02,0.1l-0.06,0.22l0.02,0.17l0.24,0.04l0.12-0.07l0.13-0.16l0.17-0.27l0.02-0.07l1.55-0.15l1.56-0.15l1.55-0.16l1.56-0.16
		l1.55-0.16l1.56-0.16l1.55-0.17l1.56-0.17v-0.27l-0.03-0.4l-0.03-0.17l-0.18-0.56l-0.22-0.51l-0.03-0.11l-0.01-0.06l0.02-0.02
		l0.04-0.01l0.49-0.01l0.82-0.01l0.5-0.01l0.07,0.02l0.05,0.06l0.07,0.15l0.05,0.06l0.05,0.03l0.05-0.02L29,40.68l0.12-0.02
		l0.34-0.04l0.52-0.07l0.69-0.08l0.82-0.11l0.9-0.11l0.97-0.13l1-0.13l1.01-0.12l0.96-0.12l0.91-0.12l0.82-0.11l0.68-0.08l0.53-0.07
		l0.34-0.04l0.12-0.02l0.39-0.06l0.31-0.11l0.08-0.02l0.39-0.03l0.27-0.02l0.77-0.07l1.19-0.11l1.55-0.14l1.83-0.17l2.04-0.19
		l2.19-0.21l2.25-0.22l2.25-0.23l2.18-0.22l2.04-0.22l1.83-0.19l1.55-0.17l1.19-0.13l0.77-0.08l0.27-0.03l0.43-0.06l0.31-0.13
		L66.02,36.33L66.02,36.33z"/>
	<path id="TN_2_" class="st1" d="M66.02,36.33l0.93-0.13l0.93-0.13l0.93-0.13l0.93-0.14l0.93-0.13l0.93-0.14l0.93-0.14l0.93-0.14
		l0.93-0.14l0.93-0.14l0.93-0.14l0.93-0.14l0.92-0.15l0.93-0.14l0.93-0.15l0.93-0.14l0.43-0.07l0.07-0.04l0.17-0.2l0.07-0.03
		l0.07-0.02l0.62-0.08l0.76-0.1l0.84-0.11l-0.31,0.77l-0.04,0.24l0.02,0.05l0.17,0.24l0.02,0.1l-0.07,0.43l-0.15,0.5l-0.02,0.11
		v0.07l0.02,0.04l0.12,0.17l0.15,0.15l0.03,0.05l0.03,0.05l-0.02,0.04l-0.04,0.02l-0.28,0.01l-0.5-0.08l-0.04,0.01L83,36.43
		l-0.62,0.58l-0.21,0.24l-0.03,0.05l-0.61,1.85l-0.06,0.11l-0.07,0.09l-0.08,0.06l-0.13,0.15l-0.07,0.07l-0.07,0.04l-0.06,0.02H80.9
		l-0.14-0.02l-0.07-0.02l-0.05-0.02l-0.05-0.02l-0.04-0.04l-0.02-0.04l-0.02-0.05l-0.02-0.06l-0.02-0.05l-0.02-0.04l-0.03-0.03
		l-0.04-0.02l-0.05-0.02h-0.06l-0.12,0.02h-0.07l-0.05-0.02l-0.09-0.05l-0.05-0.01l-0.03,0.01l-0.05,0.02l-0.09,0.06l-0.25,0.25
		l-0.04,0.03l-0.19,0.02l-0.07,0.02l-0.21,0.15l-0.3,0.13l-0.08,0.05l-0.13,0.1l-0.14,0.15l-0.26,0.37l-0.07,0.14l-0.07,0.28
		l-0.02,0.07l-0.13,0.24l-0.06,0.08l-0.05,0.06l-0.03,0.03l-0.03,0.02l-0.37,0.32l-0.07,0.05l-0.06,0.02l-0.06,0.01l-0.06-0.01
		l-0.06-0.02l-0.05-0.02l-0.05-0.04l-0.03-0.03l-0.03-0.04l-0.08-0.14l-0.02-0.06l-0.01-0.07l0.01-0.08l0.03-0.15l0.01-0.05
		l-0.01-0.03l-0.02-0.02l-0.18-0.19l-0.04-0.02l-0.07-0.01l-0.08,0.03l-0.39,0.28l-0.21,0.12l-0.56,0.43l-0.01,0.02l-0.02,0.03v0.04
		l0.02,0.16l-0.01,0.06l-0.02,0.05l-0.09,0.13l-0.02,0.1l-0.01,0.07l-0.04,0.09l-0.05,0.04l-0.06,0.02l-0.05-0.01l-0.11-0.07
		l-0.13-0.07l-0.12-0.03l-0.08-0.01l-0.09,0.02l-0.13,0.05l-0.07,0.05l-0.05,0.05l-0.02,0.05l-0.02,0.05l-0.02,0.07v0.07l0.01,0.06
		l0.02,0.06l0.02,0.05l0.11,0.17l0.01,0.06l-0.02,0.07l-0.08,0.15l-0.02,0.05v0.12l-0.01,0.06l-0.03,0.11l-0.18,0.37l-0.18,0.31
		l-0.07,0.06l-0.05,0.02l-0.14-0.02l-0.38,0.02l-0.11-0.02l-0.05,0.02l-0.04,0.02l-0.44,0.32l-0.3,0.14l-0.07,0.04l-0.05,0.04
		l-0.18,0.26l-0.08,0.07l-0.22,0.12l-0.07,0.04l-0.04,0.05l-0.02,0.05l-0.17,0.22l-0.14,0.28l-0.06,0.03l-0.07,0.02l-0.07-0.01
		l-0.08,0.01l-0.09,0.03l-0.07,0.05l-0.12,0.15l-0.08,0.12l-0.1,0.11l-0.46,0.28l-0.07,0.07l-0.05,0.06l-0.07,0.13l-0.17,0.22
		l-0.06,0.06l-0.05,0.03l-0.57,0.21l-0.07,0.01l-0.07-0.01l-0.05-0.02l-0.05-0.03l-0.05-0.03l-0.07-0.01l-0.08,0.01l-0.17,0.08
		l-0.1,0.02l-0.08,0.02l-0.05-0.01h-0.06l-0.06,0.02l-0.06,0.02l-0.08,0.05l-0.03,0.01l-0.03,0.01l-0.33,0.02l-0.06,0.01l-0.17,0.07
		l-0.17,0.09l-0.2,0.17l-0.12,0.13l-0.08,0.06l-0.07,0.04l-0.28,0.11l-0.14,0.07l-0.07,0.06l-0.04,0.05l-0.11,0.32l-0.03,0.06
		l-0.06,0.09l-0.06,0.05l-0.36,0.18l-0.07,0.06l-0.06,0.07l-0.17,0.25l-0.02,0.06l-0.02,0.04v0.04V50l0.07,0.14l0.01,0.05v0.07
		l-0.01,0.06l-0.02,0.06l-0.12,0.25l-0.02,0.07l-0.02,0.11v0.07l0.03,0.36l-0.02,0.1l-0.07,0.11l-0.15,0.2l-0.07,0.09l-0.06,0.05
		l-0.03,0.01l-0.23,0.03l-0.48,0.12l-0.13,0.02h-0.06l-0.05-0.02l-0.05-0.02l-0.08-0.07l-0.06-0.01l-0.07,0.01l-0.13,0.07
		l-0.07,0.05l-0.05,0.05l-0.14,0.18l-0.08,0.15l-0.04,0.11l-0.02,0.05v0.09l0.02,0.38l0.02,0.42l0.03,0.62l0.02,0.53l0.03,0.52
		l-0.81,0.07l-0.86,0.08l-0.65,0.06l-0.07-0.02l-0.32,0.04l-1.15,0.17l-1.14,0.16l-1.15,0.16l-1.15,0.16l-1.14,0.15l-1.15,0.15
		l-1.15,0.16l-1.14,0.15l-1.45,0.17l-1.44,0.17l-1.44,0.17l-1.44,0.17l-1.44,0.17l-1.45,0.16l-1.44,0.16l-1.44,0.16L37.87,58
		l-1.45,0.15l-1.44,0.15l-1.44,0.15L32.1,58.6l-1.44,0.14l-1.45,0.14l-1.44,0.14l-0.32,0.02l-0.11,0.01l0.13,0.28l-0.08,0.01
		l-0.33,0.03l-1.18,0.12l-1.19,0.13l-1.19,0.12l-1.2,0.13l-1.19,0.12l-1.19,0.12l-1.19,0.12l-1.19,0.12l-1.19,0.11l-1.19,0.12
		l-1.19,0.11l-1.2,0.11l-1.19,0.11L10.41,61l-1.19,0.11l-1.2,0.1l-0.08-0.12l0.09-0.09l0.17-0.05l0.21-0.11l0.32-0.22l0.12-0.15
		l0.08-0.18l0.04-0.19v-0.22l0.07-0.2l0.22-0.02l0.25,0.04h0.19l0.17-0.3l-0.03-0.45l-0.13-0.46l-0.23-0.54l-0.06-0.22l-0.06-0.51
		l0.02-0.27l0.1-0.18l0.45-0.45l0.12-0.17l0.09-0.19l0.03-0.19l-0.02-0.28l0.02-0.19l0.1-0.13l0.22-0.08l0.23-0.05l0.2-0.07
		l0.08-0.15l-0.15-0.26l-0.16-0.2l-0.05-0.13l0.05-0.11l0.14-0.14l0.14-0.19l-0.01-0.14l-0.28-0.31l-0.16-0.25l-0.02-0.2l0.12-0.16
		l1.33-0.73l0.53-0.53l-0.1-0.19l-0.26-0.16l-0.25-0.09l0.07-0.21l0.12-0.16l0.16-0.1l0.2-0.04l0.28,0.18l0.14,0.02l0.05-0.22
		l-0.16-0.32l-0.26-0.22l-0.2-0.27l0.01-0.08l0.04-0.39l0.23-0.48l0.02-0.19l0.06-0.11l0.13-0.12l0.17-0.11l0.14-0.04l0.06-0.22
		l-0.28-0.43l-0.56-0.67l0.16-0.07l0.84-0.11l0.11-0.04l0.08-0.08l0.02-0.12l-0.1-0.07l-0.23-0.06l-0.18-0.14l-0.16-0.22l-0.04-0.2
		l0.17-0.11l0.23-0.02l0.22-0.05l0.15-0.12l0.07-0.26l-0.05-0.24l-0.24-0.44l-0.01-0.17l0.04-0.22l-0.08-0.16l-0.04-0.03l0.58-0.08
		l-0.02,0.1l-0.06,0.22l0.02,0.17l0.24,0.04l0.12-0.07l0.13-0.16l0.17-0.27l0.02-0.07l1.55-0.15l1.56-0.15l1.55-0.16l1.56-0.16
		l1.55-0.16l1.56-0.16l1.55-0.17l1.56-0.17v-0.27l-0.03-0.4l-0.03-0.17l-0.18-0.56l-0.22-0.51l-0.03-0.11l-0.01-0.06l0.02-0.02
		l0.04-0.01l0.49-0.01l0.82-0.01l0.5-0.01l0.07,0.02l0.05,0.06l0.07,0.15l0.05,0.06l0.05,0.03l0.05-0.02L29,40.68l0.12-0.02
		l0.34-0.04l0.52-0.07l0.69-0.08l0.82-0.11l0.9-0.11l0.97-0.13l1-0.13l1.01-0.12l0.96-0.12l0.91-0.12l0.82-0.11l0.68-0.08l0.53-0.07
		l0.34-0.04l0.12-0.02l0.39-0.06l0.31-0.11l0.08-0.02l0.39-0.03l0.27-0.02l0.77-0.07l1.19-0.11l1.55-0.14l1.83-0.17l2.04-0.19
		l2.19-0.21l2.25-0.22l2.25-0.23l2.18-0.22l2.04-0.22l1.83-0.19l1.55-0.17l1.19-0.13l0.77-0.08l0.27-0.03l0.43-0.06l0.31-0.13
		L66.02,36.33L66.02,36.33z"/>
</g>
<g id="TEXAS">
</g>
<g id="UTAH">
</g>
<g id="VIRGINIA">
</g>
<g id="VERMONT">
</g>
<g id="WASHINGTON">
</g>
<g id="WISCONSIN">
</g>
<g id="WEST_VIRGINIA">
</g>
<g id="WYOMING">
</g>
</svg>
