<?xml version="1.0" encoding="UTF-8"?>
<svg id="TENNESSEE" xmlns="http://www.w3.org/2000/svg" viewBox="0 0 90 90">
  <defs>
    <style>
      .cls-1 {
        fill: #e2e2e2;
        stroke: #f9f9f9;
        stroke-linecap: round;
        stroke-linejoin: round;
        stroke-width: .03px;
      }
    </style>
  </defs>
  <path id="TN" class="cls-1" d="M66.02,36.33l.93-.13,.93-.13,.93-.13,.93-.14,.93-.13,.93-.14,.93-.14,.93-.14,.93-.14,.93-.14,.93-.14,.93-.14,.92-.15,.93-.14,.93-.15,.93-.14,.43-.07,.07-.04,.17-.2,.07-.03,.07-.02,.62-.08,.76-.1,.84-.11-.31,.77-.04,.24,.02,.05,.17,.24,.02,.1-.07,.43-.15,.5-.02,.11v.07l.02,.04,.12,.17,.15,.15,.03,.05,.03,.05-.02,.04-.04,.02h-.28s-.5-.08-.5-.08h-.04s-.04,.03-.04,.03l-.62,.58-.21,.24-.03,.05-.61,1.85-.06,.11-.07,.09-.08,.06-.13,.15-.07,.07-.07,.04-.06,.02h-.07l-.14-.02-.07-.02-.05-.02-.05-.02-.04-.04-.02-.04-.02-.05-.02-.06-.02-.05-.02-.04-.03-.03-.04-.02-.05-.02h-.06l-.12,.02h-.07l-.05-.02-.09-.05h-.05s-.03,0-.03,0l-.05,.02-.09,.06-.25,.25-.04,.03-.19,.02-.07,.02-.21,.15-.3,.13-.08,.05-.13,.1-.14,.15-.26,.37-.07,.14-.07,.28-.02,.07-.13,.24-.06,.08-.05,.06-.03,.03-.03,.02-.37,.32-.07,.05-.06,.02h-.06s-.06,0-.06,0l-.06-.02-.05-.02-.05-.04-.03-.03-.03-.04-.08-.14-.02-.06v-.07s0-.08,0-.08l.03-.15v-.05s0-.03,0-.03l-.02-.02-.18-.19-.04-.02h-.07s-.08,.02-.08,.02l-.39,.28-.21,.12-.56,.43v.02s-.02,.03-.02,.03v.04l.02,.16v.06s-.02,.05-.02,.05l-.09,.13-.02,.1v.07s-.05,.09-.05,.09l-.05,.04-.06,.02h-.05s-.11-.07-.11-.07l-.13-.07-.12-.03h-.08s-.09,0-.09,0l-.13,.05-.07,.05-.05,.05-.02,.05-.02,.05-.02,.07v.12s.02,.06,.02,.06l.02,.05,.11,.17v.06s0,.07,0,.07l-.08,.15-.02,.05v.17s-.04,.11-.04,.11l-.18,.37-.18,.31-.07,.06-.05,.02-.14-.02-.38,.02-.11-.02-.05,.02-.04,.02-.44,.32-.3,.14-.07,.04-.05,.04-.18,.26-.08,.07-.22,.12-.07,.04-.04,.05-.02,.05-.17,.22-.14,.28-.06,.03-.07,.02h-.07s-.08,0-.08,0l-.09,.03-.07,.05-.12,.15-.08,.12-.1,.11-.46,.28-.07,.07-.05,.06-.07,.13-.17,.22-.06,.06-.05,.03-.57,.21h-.07s-.07,0-.07,0l-.05-.02-.05-.03-.05-.03h-.07s-.08,0-.08,0l-.17,.08-.1,.02-.08,.02h-.05s-.06,0-.06,0l-.06,.02-.06,.02-.08,.05h-.03s-.03,.02-.03,.02l-.33,.02h-.06s-.17,.08-.17,.08l-.17,.09-.2,.17-.12,.13-.08,.06-.07,.04-.28,.11-.14,.07-.07,.06-.04,.05-.11,.32-.03,.06-.06,.09-.06,.05-.36,.18-.07,.06-.06,.07-.17,.25-.02,.06-.02,.04v.08l.07,.14v.05s0,.07,0,.07v.06s-.02,.06-.02,.06l-.12,.25-.02,.07-.02,.11v.07l.03,.36-.02,.1-.07,.11-.15,.2-.07,.09-.06,.05h-.03s-.23,.04-.23,.04l-.48,.12-.13,.02h-.06l-.05-.02-.05-.02-.08-.07h-.06s-.07,0-.07,0l-.13,.07-.07,.05-.05,.05-.14,.18-.08,.15-.04,.11-.02,.05v.09l.02,.38,.02,.42,.03,.62,.02,.53,.03,.52-.81,.07-.86,.08-.65,.06-.07-.02-.32,.04-1.15,.17-1.14,.16-1.15,.16-1.15,.16-1.14,.15-1.15,.15-1.15,.16-1.14,.15-1.45,.17-1.44,.17-1.44,.17-1.44,.17-1.44,.17-1.45,.16-1.44,.16-1.44,.16-1.44,.15-1.45,.15-1.44,.15-1.44,.15-1.45,.15-1.44,.14-1.45,.14-1.44,.14-.32,.02h-.11s.13,.29,.13,.29h-.08s-.33,.04-.33,.04l-1.18,.12-1.19,.13-1.19,.12-1.2,.13-1.19,.12-1.19,.12-1.19,.12-1.19,.12-1.19,.11-1.19,.12-1.19,.11-1.2,.11-1.19,.11-1.19,.11-1.19,.11-1.2,.1-.08-.12,.09-.09,.17-.05,.21-.11,.32-.22,.12-.15,.08-.18,.04-.19v-.22l.07-.2,.22-.02,.25,.04h.19l.17-.3-.03-.45-.13-.46-.23-.54-.06-.22-.06-.51,.02-.27,.1-.18,.45-.45,.12-.17,.09-.19,.03-.19-.02-.28,.02-.19,.1-.13,.22-.08,.23-.05,.2-.07,.08-.15-.15-.26-.16-.2-.05-.13,.05-.11,.14-.14,.14-.19v-.14s-.29-.31-.29-.31l-.16-.25-.02-.2,.12-.16,1.33-.73,.53-.53-.1-.19-.26-.16-.25-.09,.07-.21,.12-.16,.16-.1,.2-.04,.28,.18,.14,.02,.05-.22-.16-.32-.26-.22-.2-.27v-.08s.05-.39,.05-.39l.23-.48,.02-.19,.06-.11,.13-.12,.17-.11,.14-.04,.06-.22-.28-.42-.56-.67,.16-.07,.84-.11,.11-.04,.08-.08,.02-.12-.1-.07-.23-.06-.18-.14-.16-.22-.04-.2,.17-.11,.23-.02,.22-.05,.15-.12,.07-.26-.05-.24-.24-.44v-.17s.03-.22,.03-.22l-.08-.16-.04-.03,.58-.08-.02,.1-.06,.22,.02,.17,.24,.04,.12-.07,.13-.16,.17-.27,.02-.07,1.55-.15,1.56-.15,1.55-.16,1.56-.16,1.55-.16,1.56-.16,1.55-.17,1.56-.17v-.27l-.03-.4-.03-.17-.18-.56-.22-.51-.03-.11v-.06s0-.02,0-.02h.04s.49-.02,.49-.02h.82s.5-.02,.5-.02l.07,.02,.05,.06,.07,.15,.05,.06,.05,.03,.05-.02,.37-.04,.12-.02,.34-.04,.52-.07,.69-.08,.82-.11,.9-.11,.97-.13,1-.13,1.01-.12,.96-.12,.91-.12,.82-.11,.68-.08,.53-.07,.34-.04,.12-.02,.39-.06,.31-.11,.08-.02,.39-.03,.27-.02,.77-.07,1.19-.11,1.55-.14,1.83-.17,2.04-.19,2.19-.21,2.25-.22,2.25-.23,2.18-.22,2.04-.22,1.83-.19,1.55-.17,1.19-.13,.77-.08,.27-.03,.43-.06,.31-.13,.22-.15h0Z"/>
  <g>
    <path d="M42.75,45.46v.98h-1.38v4.11h-1.24v-4.11h-1.37v-.98h3.99Z"/>
    <path d="M47.79,50.55h-1.23l-2.06-3.12v3.12h-1.23v-5.09h1.23l2.06,3.15v-3.15h1.23v5.09Z"/>
  </g>
</svg>