<?xml version="1.0" encoding="utf-8"?>
<!-- Generator: Adobe Illustrator 26.5.0, SVG Export Plug-In . SVG Version: 6.00 Build 0)  -->
<svg version="1.1" xmlns="http://www.w3.org/2000/svg" xmlns:xlink="http://www.w3.org/1999/xlink" x="0px" y="0px"
	 viewBox="0 0 90 90" style="enable-background:new 0 0 90 90;" xml:space="preserve">
<style type="text/css">
	.st0{fill:#CECECE;stroke:#F9F9F9;stroke-width:0.025;stroke-linecap:round;stroke-linejoin:round;}
	.st1{display:none;fill:none;stroke:#47CCCC;stroke-width:0.5;stroke-linecap:round;stroke-linejoin:round;}
	.st2{fill:#CECECE;}
</style>
<g id="ALABAMA">
</g>
<g id="ALASKA">
</g>
<g id="ARIZONA">
</g>
<g id="ARKANSAS_1_">
</g>
<g id="CALIFORNIA">
</g>
<g id="COLORADO">
</g>
<g id="CONNECTICUT">
</g>
<g id="DELAWARE">
</g>
<g id="DC">
</g>
<g id="FLORIDA">
</g>
<g id="GEORGIA">
</g>
<g id="HAWAII">
</g>
<g id="IDAHO">
</g>
<g id="IOWA">
</g>
<g id="ILLINOIS">
</g>
<g id="INDIANA">
</g>
<g id="KANSAS">
</g>
<g id="KETUCKY">
</g>
<g id="LOUISANA">
</g>
<g id="MAINE">
</g>
<g id="MARYLAND">
</g>
<g id="MASSACHUSETTS">
</g>
<g id="MICHIGAN">
</g>
<g id="MINNESOTA">
</g>
<g id="MISSOURI">
</g>
<g id="MISSISSIPPI">
</g>
<g id="MONTANA">
</g>
<g id="NORTH_CAROLINA">
</g>
<g id="NORTH_DAKOTA">
</g>
<g id="NEBRASKA">
</g>
<g id="NEW_HAMPSHIRE">
</g>
<g id="NEW_JERSEY">
</g>
<g id="NEW_YORK">
</g>
<g id="NEW_MEXICO">
</g>
<g id="NEVADA">
</g>
<g id="OHIO">
</g>
<g id="OKLAHOMA">
</g>
<g id="OREGON">
</g>
<g id="PENNSYLVANIA">
</g>
<g id="RHODE_ISLAND">
</g>
<g id="SOUTH_CAROLINA">
</g>
<g id="SOUTH_DAKOTA">
</g>
<g id="TENNESSEE">
</g>
<g id="TEXAS">
	<path id="TX_1_" class="st0" d="M63.64,77.73l0.09,0.32l0.06,0.15l0.08,0.12l0.03,0.07l0.09,0.41l0.07,0.15l0.17,0.28l0.05,0.17
		l0.09,0.57l0.07,0.19l0.12,0.19l0.05,0.12l0.17,1.51l0.05,0.13l0.07,0.04l0.05-0.13l-0.01-0.13l-0.08-0.39l-0.11-0.23l-0.02-0.15
		l-0.01-0.31l-0.03-0.17l-0.1-0.29l-0.07-0.44l-0.05-0.16l-0.06-0.09l0.01-0.09l-0.75-2.27l-0.25-1.29l-0.1-1.89l0.04-0.14
		l-0.09,0.11l-0.03,0.35l-0.05,0.15l0.05,0.13v0.14l-0.04,0.28l0.02,0.15l0.07,0.26l0.08,0.69l-0.01,0.26l-0.06,0.25l0.21,0.29
		l0.03,0.06l0.01,0.03l0.03,0.05l0.01,0.04l-0.01,0.02l-0.07,0.02L63.5,77.3l0.01,0.06l0.02,0.06l0.03,0.04l0.05,0.04l-0.05,0.06
		L63.64,77.73z M65.29,69.24l-0.05,0.2l-0.04,0.08l-0.27,0.26l-0.17,0.23l-0.34,0.8h-0.04l-0.05-0.08l-0.08-0.05l-0.16-0.06
		l0.03,0.12l0.04,0.08l-0.01,0.07l-0.09,0.08l0.02,0.14l-0.12,0.2l-0.14,0.2l-0.07,0.14l-0.01,0.09l-0.12,0.25l-0.03,0.1l-0.05,0.31
		l-0.19,0.48l-0.09,0.81l-0.04,0.13l0.06,0.03l0.04-0.02l0.07-0.12l0.1-0.25l0.12-0.62L64,71.79l0.58-1.2l0.8-1.24l0.07-0.08
		l-0.05-0.07L65.29,69.24z M66.63,67.06l-0.09-0.03l-0.08,0.04l-0.05,0.08l-0.03,0.08l-0.04,0.06l-0.09,0.02l-0.36,0.67v0.04
		l0.13,0.03l0.01,0.04l-0.04,0.09l-0.03,0.05l-0.19,0.21l-0.23,0.36l-0.08,0.23l0.06,0.13l0.03-0.14l0.09-0.15l0.23-0.28l0.26-0.42
		l0.56-0.67l0.02-0.07l0.01-0.16l0.02-0.07l-0.02-0.06L66.63,67.06z M69.49,65.01L69.46,65l-0.04,0.02l-0.06,0.02l-0.02,0.03
		l0.01,0.15v0.06l-0.08,0.14l-0.08,0.04l-0.25-0.02l-0.14,0.02l-0.08,0.05l-0.13,0.14l-0.3,0.15l-0.05,0.04l-0.06,0.07l-0.27,0.16
		l-0.06,0.13l-0.05,0.04l-0.25,0.16l-0.08,0.03l-0.1,0.02l-0.21,0.07l-0.13,0.02l-0.11,0.06l-0.02,0.13l0.02,0.14l0.05,0.08v0.05
		l-0.08,0.08l-0.07,0.12l-0.05,0.14l-0.02,0.13h0.05l0.05-0.13l0.08-0.12l0.17-0.18l0.35-0.27l0.15-0.18l0.61-0.34l0.35-0.32
		l0.2-0.14l0.21-0.07l0.47-0.25l0.01-0.03l0.05-0.08l0.02-0.06l0.01-0.06l-0.01-0.2L69.49,65.01z M70.34,64.37l-0.24,0.16
		l-0.36,0.34v0.05l0.13-0.02l0.1-0.08l0.16-0.18l0.15-0.05l0.05-0.07l0.14-0.1l0.05-0.03l-0.01-0.02l0.02-0.02l0.03-0.02l0.05-0.01
		l-0.01-0.05L70.34,64.37z M79.48,57.52l-0.01-0.04l-0.02-0.01l-0.01,0.01l-0.01,0.04v-0.05l-0.01,0.02v0.02l-0.01,0.01h-0.03v0.05
		l0.12,0.02l0.02,0.09l-0.04,0.1l-0.06,0.05l-0.02,0.01l-0.14,0.05l-0.03,0.04l-0.04,0.12l-0.26,0.23l-0.02,0.03l-0.1,0.01
		l-0.07,0.02l-0.05,0.06l-0.01,0.1l-0.07,0.11l-0.47,0.32l-0.25,0.25l-0.12,0.14l-0.07,0.17l0.04-0.01l0.1-0.15l0.9-0.72l0.29-0.12
		l0.93-0.85l-0.41-0.13L79.48,57.52z M87.19,44.54l-0.09-0.08L86.9,44.2l0.01-0.08l0.06-0.1l0.01-0.07v-0.33l-0.04-0.12l-0.12-0.02
		l-0.12,0.04h-0.02h-0.02l-0.02-0.01l-0.02-0.01l-0.02-0.02l-0.02-0.02l-0.02-0.04l-0.04-0.2l-0.01-0.04l-0.03-0.05l-0.02-0.04
		l-0.02-0.05l-0.01-0.06l-0.02-0.04l-0.02-0.04l-0.02-0.03L86.3,42.8l-0.17-0.13l-0.03-0.03l-0.02-0.04l-0.02-0.08l0.01-0.05
		l0.01-0.04l0.02-0.07l0.02-0.03l0.07-0.11l0.01-0.02l-0.02-0.02l-0.09-0.05l-0.1-0.1l-0.07-0.08l-0.03-0.05l-0.02-0.06l-0.03-0.12
		l-0.02-0.06L85.8,41.6l-0.03-0.02l-0.03-0.01l-0.08-0.02l-0.03-0.02l-0.02-0.02l-0.02-0.03l-0.02-0.03l-0.02-0.06l0.01-0.03
		l0.02-0.03l0.07-0.04v-0.01l0.01-0.01l0.02-0.02l0.02-0.04l-0.01-0.04l-0.02-0.03l-0.03-0.02l-0.04-0.02l-0.15-0.04l-0.04-0.02
		l-0.03-0.02l-0.05-0.04l-0.18-0.18l-0.07-0.08l-0.04-0.07l-0.02-0.04l-0.02-0.07l-0.01-0.06v-0.05l0.02-0.08L85,40.32l0.01-0.04
		l0.01-0.06L85.01,40l0.01-0.07l0.02-0.12v-0.04l-0.01-0.03l-0.02-0.03L85,39.68l-0.02-0.02l-0.03-0.06l-0.03-0.09l-0.06-0.29
		l-0.02-0.07l-0.17-0.23l-0.05-0.09l-0.03-0.07l-0.03-0.07l-0.06-0.1l-0.09-0.1l-0.13-0.12l-0.06-0.04l-0.21-0.09l-0.03-0.02
		l-0.03-0.02l-0.02-0.03l-0.14-0.23l-0.03-0.03l-0.08-0.06l-0.04-0.02l-0.09-0.06l-0.03-0.04l-0.02-0.02l-0.01-0.02l-0.03-0.55
		l-0.04-0.87l-0.05-0.86l-0.04-0.87l-0.04-0.87l-0.05-0.87l-0.09-1.73l-0.04-0.87l-0.06-0.89l-0.05-0.88l-0.05-0.88l-0.05-0.88
		l-0.03-0.48V26.2l-0.06-0.02l-0.1-0.04l-0.18-0.13l-0.11,0.07l-0.13,0.01l-0.12-0.02l-0.22-0.11l-0.09,0.04l-0.08,0.08l-0.09,0.04
		l-0.3-0.14l-0.1,0.01l-0.06,0.09l-0.04,0.12l-0.05,0.07l-0.13-0.07l-0.13,0.07l-0.12-0.02l-0.04-0.07l0.07-0.08v-0.05l-0.15,0.03
		l-0.15-0.04l-0.12-0.1l-0.05-0.15l-0.07-0.13l-0.11-0.02l-0.03-0.01l-0.15,0.01l-0.12-0.05v0.05l-0.3-0.09l-0.09-0.04l0.02-0.04
		l0.02-0.03l-0.13-0.01l-0.16,0.04l-0.05-0.07l-0.07-0.04l-0.09-0.02l-0.09-0.01h-0.04l-0.07,0.04l-0.04,0.01l-0.03-0.01l-0.05-0.07
		l-0.11-0.05l-0.11-0.17l-0.09-0.03h-0.08l-0.16-0.04l-0.4-0.05l-0.24-0.21l-0.1-0.16l-0.03-0.04l-0.07-0.04l-0.05-0.02l-0.04-0.04
		l-0.02-0.11l-0.02-0.03l-0.04-0.04L77,24.22l-0.04-0.01h-0.21l-0.09-0.02l-0.1-0.07l-0.21-0.19l-0.11-0.07l-0.19-0.04L76,23.78
		l-0.03-0.05l-0.03-0.04l-0.07-0.04l-0.41-0.12l-0.1,0.02l-0.11,0.1l-0.03,0.12l-0.01,0.13l-0.03,0.08l-0.08-0.04l-0.03,0.06
		l-0.04,0.03l-0.05,0.03l-0.07,0.04l-0.07-0.04h-0.04l-0.02,0.07v0.05l-0.01,0.03l-0.03,0.02l-0.04,0.02l-0.05,0.01l-0.52,0.01
		l-0.07,0.02l-0.04-0.05l-0.04-0.03l-0.05-0.02h-0.06l-0.02,0.02l-0.04,0.03l-0.03,0.02l-0.02-0.03l-0.03-0.04l-0.02-0.03v-0.01
		l-0.19,0.01l-0.08-0.04l0.05-0.11l-0.05-0.11l-0.07-0.05l-0.08-0.04l-0.08-0.06l-0.08-0.03l-0.07,0.07l-0.08,0.14h-0.04l-0.1-0.03
		l-0.02,0.02l-0.14,0.08l-0.07,0.02l-0.07,0.04l-0.06,0.05l-0.04,0.05h-0.06l-0.09,0.01l-0.2,0.01l-0.04,0.05l0.03,0.2l-0.07,0.05
		l-0.04-0.02l-0.03-0.03l-0.03-0.05l-0.05,0.02l-0.03,0.04l-0.04,0.05l-0.17,0.04l-0.07-0.02l-0.36-0.21l-0.07-0.07l-0.07-0.02
		l-0.08,0.05l-0.06,0.07l-0.02,0.06h-0.04l-0.09,0.05l-0.11,0.08l-0.21,0.1l-0.08,0.01l-0.32,0.01l-0.06,0.02l-0.12,0.08l-0.07,0.02
		l-0.06,0.05l-0.1,0.26l-0.05,0.1l-0.12,0.08l-0.11,0.02l-0.26-0.02l-0.16,0.03l-0.04,0.07l0.01,0.11l-0.03,0.15l-0.17,0.13
		l-0.19-0.17l-0.19-0.27l-0.15-0.17l-0.12-0.02l-0.41,0.04L67.6,25.1l-0.02-0.06l-0.02-0.07l-0.02-0.06l-0.04-0.03l-0.14-0.07
		l-0.25-0.07l-0.08-0.08l-0.03-0.03l-0.02-0.03l-0.01-0.04v-0.04l0.01-0.04l0.07-0.14l-0.02-0.04l-0.05-0.05l-0.15-0.06l-0.08-0.02
		h-0.07l-0.03,0.02l-0.02,0.02l-0.04,0.07l-0.07,0.23l-0.02,0.04l-0.02,0.03l-0.02,0.03l-0.03,0.02l-0.05,0.02l-0.06,0.02
		l-0.12,0.02h-0.07l-0.05-0.01l-0.03-0.02l-0.17-0.12l-0.07-0.03l-0.05-0.01l-0.21,0.03h-0.06l-0.05-0.02l-0.03-0.02l-0.08-0.08
		L65.3,24.4l-0.03-0.07l-0.04-0.21l-0.03-0.07l-0.03-0.04l-0.05-0.03l-0.08-0.04l-0.06-0.01h-0.05l-0.21,0.04L64.68,24l-0.03,0.02
		l-0.04,0.06l0.01,0.1l-0.01,0.18l-0.09,0.2l-0.09,0.13l-0.13,0.04l-0.22-0.05l0.01,0.12l0.04,0.05l0.05,0.03l0.03,0.07L64.17,25
		l-0.12,0.07l-0.02,0.08l-0.01,0.21l-0.05,0.19l-0.11,0.12l-0.2,0.02l-0.15-0.09l-0.12-0.17l-0.09-0.19l-0.03-0.18l0.02-0.13
		l0.11-0.19l0.02-0.12l-0.02-0.09l-0.05-0.08l-0.07-0.07l-0.08-0.06l-0.04,0.02l-0.08,0.03l-0.03,0.03l-0.02,0.03l-0.02,0.05
		l-0.1,0.19l-0.03,0.05l-0.17-0.14l-0.07-0.02l-0.1,0.07l-0.01,0.02l-0.03,0.08l-0.02,0.03l-0.03,0.04l-0.07,0.04l-0.02,0.03
		l-0.05,0.04l-0.07,0.02l-0.4,0.04l-0.1-0.06l-0.04-0.17l-0.02-0.15l-0.05-0.09l-0.09-0.05l-0.14-0.02l-0.39,0.03l-0.09-0.05
		l-0.06-0.14v-0.28l-0.06-0.13l-0.23-0.11l-0.24,0.09l-0.21,0.18l-0.52,0.54l-0.24,0.15l-0.27,0.05l-0.26-0.08l-0.14-0.07
		l-0.06-0.07l0.02-0.11l0.01-0.05l0.01-0.07l0.04-0.15V24.1l-0.04-0.08l0.04-0.08l-0.02-0.08l-0.04-0.06l-0.06,0.02l-0.22-0.07
		l-0.3-0.06l-0.24-0.12l-0.02-0.24l-0.03-0.16l0.02-0.22v-0.19l-0.1-0.08l-0.15,0.02l-0.29,0.11l-0.19,0.03l-0.82-0.09l-0.15,0.05
		l-0.1,0.11l-0.07,0.13l-0.08,0.13l-0.04,0.07l-0.15,0.03l-0.31,0.01l-0.09-0.05l-0.21-0.24l-0.08-0.05l-0.04-0.04l-0.1-0.18
		l-0.07-0.04l-0.2-0.04h-0.07l-0.14,0.03l-0.41,0.18l-0.07-0.04l-0.77-0.16l-0.13-0.04l-0.47-0.3l-0.14-0.03l-0.1,0.03l-0.09,0.04
		l-0.13,0.03l-0.12-0.02l-0.24-0.07l-0.13-0.02l-0.29,0.02l-0.14-0.03l-0.1-0.09l-0.02-0.12l-0.02-0.4l0.02-0.09l0.02-0.06
		l-0.1-0.13l-0.19-0.17l-0.06-0.12l-0.04-0.13l-0.06-0.11l-0.12-0.05l-0.12-0.01l-0.06-0.02l-0.05-0.02l-0.05-0.05l-0.03-0.06
		l-0.02-0.05l-0.03-0.04l-0.12-0.08h-0.09l-0.06,0.08l-0.03,0.37l-0.05,0.11l-0.09,0.05l-0.14-0.02L49.34,21l-0.23-0.13l-0.3-0.04
		l-0.06,0.02l-0.05,0.03l-0.07,0.08L48.59,21l-0.11,0.03L48.11,21l-0.12-0.04l-0.08-0.08l-0.12-0.18l-1.03-0.99l-0.06-0.04
		l-0.13-0.03l-0.05-0.03l-0.1-0.03l-0.28,0.04l-0.09,0.01v-0.42l-0.01-0.84v-0.84v-0.84v-0.84V15l-0.01-0.84v-0.84v-0.84v-0.84V10.8
		l-0.01-0.84V9.12V8.28V7.44V6.6l-0.01-0.84V5.39h-0.07h-1.08h-0.86l-1.12-0.01l-1.33-0.01l-1.48-0.01l-1.59-0.02l-1.63-0.02
		l-1.64-0.03l-1.58-0.03l-1.48-0.03l-1.33-0.03L29.7,5.19l-0.86-0.02l-0.56-0.01l-0.2-0.01l-0.25-0.01v0.13l-0.01,0.23l-0.03,1.03
		l-0.03,1.02l-0.03,1.03l-0.03,1.03l-0.03,1.02l-0.03,1.03l-0.03,1.03l-0.03,1.02l-0.03,1.03l-0.03,1.03l-0.03,1.03l-0.03,1.03
		l-0.03,1.02l-0.03,1.03l-0.04,1.03l-0.03,1.03l-0.03,1.03l-0.03,1.03l-0.03,1.03l-0.03,1.03l-0.03,1.03l-0.03,1.03l-0.03,1.03
		l-0.03,1.03l-0.03,1.03l-0.03,1.03l-0.03,1.03L26.9,34.3l-0.03,1.03l-0.03,1.02l-0.03,1.03l-0.03,1.03l-1.39-0.04l-1.4-0.04
		l-1.4-0.04l-1.4-0.05l-1.39-0.05l-1.4-0.05l-1.4-0.06l-1.39-0.06l-1.4-0.06l-1.39-0.07l-1.4-0.07l-1.39-0.07l-1.4-0.07l-1.39-0.08
		l-1.4-0.08l-1.39-0.08l-0.16-0.01l-0.1-0.01v0.13l0.12,0.28L4.31,38l0.01,0.17l0.03,0.13l0.14,0.24l-0.05,0.05l0.04,0.09l0.05,0.07
		l0.07,0.05l0.08,0.02l0.08,0.06l0.35,0.41l0.12,0.04l0.28-0.01l0.23,0.11l0.2,0.22l0.15,0.27l0.11,0.26l0.13,0.51l0.07,0.14
		l0.25,0.33l0.05,0.12l0.02,0.08l0.01,0.04l0.01,0.03l0.04,0.06L7,41.61l0.06,0.09l0.14,0.07l0.26,0.09l0.21,0.14l0.12,0.06
		l0.16,0.03l0.1,0.04l0.27,0.2l0.07,0.08l0.04,0.07l0.04,0.13l0.03,0.07l0.12,0.08l0.07,0.06v0.03l0.1,0.04l0.11,0.1l0.46,0.59
		l0.04,0.14l0.05,0.1l0.47,0.34l0.1,0.05l0.04,0.03l0.15,0.19l0.13,0.1l0.1,0.07l0.09,0.08l0.07,0.15l0.07,0.26l0.05,0.11l0.16,0.09
		l0.2,0.27l0.5,0.43l0.23,0.33l0.08,0.07l0.19,0.05l0.35,0.2l0.04,0.04l0.03,0.05l0.03,0.04l0.07,0.03h0.03l0.03-0.02l0.05-0.05
		l0.02-0.01l0.07,0.03l0.04,0.01l0.05,0.03l0.05,0.11l0.06,0.03l0.07,0.01l0.05,0.02l0.03,0.04l0.01,0.08l0.02-0.01l0.03,0.02
		l0.08,0.09l0.04-0.05l0,0l0.28,0.37l0.12,0.05l0.12,0.03l0.13,0.07l0.12,0.1l0.08,0.12l0.02,0.08v0.09l0.01,0.08l0.04,0.07
		l0.07,0.02l0.2,0.04l0.04,0.03l0.03,0.08l0.18,0.24l0.07,0.13l0.01,0.07l0.01,0.16l0.01,0.07l0.1,0.07L15,49.15l-0.01,0.04
		l-0.04,0.08l-0.01,0.05l0.01,0.08l0.06,0.1l0.01,0.08l-0.02,0.1L15,49.74l0.01,0.04l0.05,0.09l0.04,0.05l0.08,0.05l0.04,0.05
		l0.01,0.07v0.09l0.01,0.07l0.03,0.03l0.12,0.08l0.08,0.18l0.07,0.21l0.07,0.15l0.04,0.04L15.78,51l0.06,0.06l0.11,0.27l0.09,0.12
		l0.01,0.17l-0.02,0.27l-0.03,0.17l-0.1,0.26l-0.03,0.15l0.01,0.18l0.1,0.41v0.07l-0.02,0.11l0.01,0.08l0.02,0.04l0.08,0.1
		l0.02,0.04l0.02,0.08l0.12,0.15l0.08,0.35l0.02,0.07l0.11,0.14l0.11,0.1l0.08,0.11l0.04,0.32l0.1,0.21l0.04,0.11l0.01,0.1v0.08
		l0.02,0.07l0.09,0.1l0.3,0.23l0.09,0.09l0.02,0.05l0.02,0.07l0.03,0.07l0.04,0.03l0.04,0.02l0.51,0.36l0.07,0.1l0.12-0.06
		l0.18,0.01l0.16,0.05l0.1,0.14l0.15,0.12l0.05,0.03l0.04,0.04l0.1,0.27l0.2,0.25l0.13,0.12l0.22,0.12l0.3,0.36l0.24,0.15l0.58,0.22
		l0.41,0.1l0.45,0.04l0.07,0.03l0.06,0.05l0.03,0.07l-0.06,0.17l0.04,0.04l0.07,0.03l0.06,0.03l0.3,0.28l0.19,0.11l0.57,0.16
		l0.18-0.01l0.05,0.01l0.06,0.04l0.02,0.05l0.01,0.05l0.04,0.06l0.32,0.34l0.28,0.17l0.08,0.03l0.05,0.04l0.18,0.18l0.09,0.04
		l0.08-0.04l0.06-0.07l0.06-0.01l0.07,0.13l0.04-0.02l0.1-0.03l-0.05,0.15l0.09,0.06L25,60.59l0.35,0.1l0.25,0.04l0.16-0.08
		l0.09-0.2l0.04-0.25l0,0l0.06-0.02l0.02,0.02l0.04-0.13l0.03-0.07l0.05-0.04l0.26-0.13l0.05-0.04l0,0l0.06-0.08l0.19-0.36
		l0.08-0.08l0.04-0.04l0,0l0.14,0.08l0.04-0.06l0.3-0.21l0.18-0.03l0.07-0.03l0,0l-0.05-0.08l-0.15-0.11l-0.05-0.07l0.01-0.09
		l0.1-0.29l0.01-0.13l0.02-0.08l0.04-0.05l0.08-0.06l0.03-0.01h0.03h0.05l0.06-0.03l0,0v-0.03l-0.05-0.1l0.01-0.04l0.06-0.1
		l0.01-0.08l-0.02-0.09l-0.02-0.08l0.02-0.1l0.04-0.07l0.04-0.07L28,56.67l0,0l0.06-0.04v-0.01l0.04-0.05l-0.03-0.1l0.06-0.03
		l0.02-0.03l-0.03-0.1l0.08-0.03l0.04-0.04l0,0l0.07-0.12l0.01-0.02l0.1-0.2l0.03-0.01l0.03-0.1l0.19-0.33l0.02-0.08l0.01-0.06
		l0.02-0.05l0.05-0.06h0.05l0.24,0.01l0.11-0.03l0.24-0.12l0.12-0.04l0.02,0.01l0.03,0.08l0.03,0.02l0.04-0.01l0.02-0.01l0.01-0.02
		v-0.01l0.07-0.05v-0.01l0.05-0.09l0.05-0.02l0.7,0.07h0.01l0.01-0.03l0.16-0.23l0.02-0.07l0.02-0.2l0.02-0.07l0.05-0.05l0.08-0.02
		l0.07-0.03l0.07-0.13l0.06-0.04l0.12,0.04l0.08,0.08l0.08,0.07l0.12-0.03l0.03,0.14l0.09,0.04l0.23,0.03l0.3,0.17l0.07,0.07
		l0.23,0.11l0.61-0.05l0.17,0.04l0.1-0.09l0.1,0.03l0.09,0.08l0.08,0.04h0.07l0.05-0.01l0.05-0.03l0.04-0.04l0.05-0.02l0.07,0.01
		l0.13,0.04h0.21l0.08-0.05l0.04,0.01l0.02,0.08l0.05,0.04l1.05,0.17l0.34-0.04l0.1-0.04l0.07-0.07v-0.01l0.03-0.14l0.02-0.03l0,0
		l0.04,0.02l0.05,0.05l0.02,0.07l-0.01,0.03l-0.06,0.13l-0.02,0.06l0.14,0.04l0.1-0.05l0.1-0.08L36.57,55l0.05,0.02l0.04,0.09
		l0.06,0.04l0.07,0.01l0.07-0.01l0.07-0.02l0.05-0.03l-0.03,0.09l0.02,0.1l0.04,0.09l0.1,0.17l0.04,0.13l0.07,0.18l0.04,0.07
		l0.05,0.05l0.08,0.04l0.17,0.01l0.05,0.03l-0.01,0.12l-0.05,0.16l-0.01,0.11l0.07,0.03l0.12-0.1l0.16-0.09l0.16-0.02l0.1,0.09
		l0.01,0.19l-0.06,0.22l0.02,0.1l0.07,0.07l0.07,0.01l0.07,0.02l0.05,0.04l0.12,0.16l0.19,0.1l0.43,0.14l0.19,0.07l0.05,0.13
		l0.02,0.21l0.02,0.1L39.47,58l0.05,0.07l0.06,0.06l0.07,0.04l0.47,0.22l0.15,0.14l0.12,0.16l0.05,0.04l0.3,0.15l0.13,0.1l0.08,0.11
		l0.13,0.25l-0.05,0.16l0.05,0.1l0.34,0.29l0.02,0.04l0.03,0.04l0.08,0.02l0.08,0.01l0.06,0.02l0.05,0.1l0.05,0.43l0.13,0.29
		l0.02,0.15l-0.05,0.16l0.04,0.04l0.03,0.06l0.01,0.08v0.09l0.04,0.05l0.08,0.05l0.08,0.08l0.03,0.12l0.02,0.03l0.1,0.05l0.03,0.02
		l0.02,0.06l-0.04,0.09l0.02,0.05l0.04,0.02l0.09,0.01l0.04,0.03l0.03,0.04l0.03,0.08l0.03,0.04l0.04,0.07l0.16,0.72l0.08,0.16
		l0.24,0.31l-0.01,0.13l0.07,0.05l0.15,0.08l0.07,0.05l0.03,0.07l-0.01,0.18l0.01,0.08l0.09,0.15l0.13,0.09l0.27,0.11h-0.01
		l-0.19,0.1l-0.03,0.06l0.01,0.08l0.04,0.06l0.05,0.04l0.02,0.04l0.03,0.27l0.06,0.26l0.19,0.25l0.1,0.17l0.01,0.12l-0.04,0.14
		l0.06,0.14l0.12,0.12l0.11,0.08l0.18,0.03l0.04,0.02l0.02,0.06l0.01,0.1l0.02,0.1l0.05,0.04l0.1,0.02l0.64,0.33l0.12,0.12
		l0.05,0.17l0.01,0.1l0.02,0.05l0.09,0.1l0.09,0.08l0.05,0.02l-0.01,0.04l-0.02,0.05l-0.01,0.05l0.04,0.12l0.04,0.1l0.07,0.09
		l0.09,0.12l0.09,0.03l0.14,0.03l0.08,0.06l-0.08,0.11l0.06,0.1l0.1,0.14l0.12,0.12l0.1,0.04l0.02,0.03l-0.03,0.08l-0.06,0.12
		l0.02,0.08l0.05,0.04l0.06,0.03l0.05,0.07l0.01,0.07l-0.02,0.16l0.01,0.07l0.03,0.01l0.09,0.08l0.08,0.08l0.01,0.04L47.29,70
		l0.08,0.08l0.06,0.1l0.08,0.09l0.07,0.03l0.12,0.04l0.04,0.03l0.03,0.07l0.02,0.09l0.02,0.07l0.05,0.03l0.12,0.18L48,70.84h0.24
		l0.04,0.04L48.35,71l0.03,0.03h0.07l0.14-0.08l0.08-0.02l0.07,0.03l0.08,0.14l0.04,0.03l0.11,0.04l0.13,0.06l0.13,0.12l0.06,0.11
		v0.3l-0.02,0.17v0.08l0.04,0.03l0.1,0.01l0.05,0.03l0.03,0.06l0.02,0.1v0.03l0.01,0.28l-0.02,0.09l-0.05,0.17l-0.02,0.15
		l-0.03,0.09l-0.01,0.08l-0.02,0.07l-0.11,0.12l-0.01,0.01l-0.04,0.08l0.19,0.07l0.04,0.03l0.01,0.02l0.01,0.06l0.02,0.03l0.07,0.03
		l0.02,0.02l0.09,0.11l0.07,0.12l0.05,0.13l0.01,0.14l-0.02,0.14l-0.09,0.32l-0.02,0.15l0.02,0.03l0.03,0.04l0.03,0.05l0.01,0.07
		l-0.02,0.06l-0.13,0.24l0.12,0.17l0.03,0.04l0.1,0.08l0.06,0.03h0.05l0.05,0.01l0.04,0.06l0.02,0.08v0.15l0.03,0.08l0.06,0.06
		l0.27,0.21l0.07,0.1l0.21,0.26l0.09,0.12l0.12,0.12l0.09,0.12l0.1,0.32l0.09,0.35l0.27,0.78l0.02,0.12l0.05,0.37l0.04,0.17
		l0.16,0.07l0.17,0.04l0.08,0.1l0.08,0.2l0.02,0.09l-0.03,0.09l-0.06,0.09l-0.04,0.09l0.02,0.08l0.14,0.11l0.13,0.02l0.12-0.02
		l0.13,0.01l0.03,0.02l0.04,0.06l0.04,0.02l0.04-0.01l0.12-0.05l0.16,0.01L53,80.15l0.06,0.12l0.1-0.1l0.25,0.18l0.15-0.03
		l0.06,0.04l0.07,0.02l0.06-0.01l0.04-0.05h0.01l0.07,0.04l0.05-0.02l0.04-0.03l0.06,0.01l0.04,0.03l0.1,0.12l0.23,0.14l0.07,0.09
		l-0.03,0.12l0.09-0.01l0.08,0.01l0.08,0.03l0.07,0.07L54.68,81l0.01,0.04l0.06,0.01l0.05,0.02l0.14,0.13l0.08,0.04l0.09,0.02
		l0.39-0.15l0.19,0.1l0.21,0.06l0.19,0.07l0.14,0.16l0.09-0.11l0.02-0.02l0.19,0.06l0.21,0.12l0.18,0.05l-0.05,0.15v0.08l0.08,0.02
		h0.18l0.04,0.05l0.16,0.23l0.07,0.07l0.52,0.26l0.25,0.07l0.23,0.01l0.31-0.09l0.13,0.03l0.06,0.18l0.07,0.03l0.14-0.05l0.21-0.11
		l0.09-0.01l0.38,0.05l0.42-0.06l0.51-0.01l0.13,0.03l0.02,0.11l0.09,0.03l0.59,0.02l0.13,0.03l0.12,0.06l0.13,0.09l0.07,0.1
		l0.05,0.12l0.07,0.1l0.2,0.08l0.31,0.3l0.12,0.08l0.11,0.04l0.11,0.02h0.14l0.05,0.05l0.04,0.11l0.07,0.1l0.14,0.02l0.03-0.03l0,0
		v-0.04l0.01-0.03l0,0h0.05l0.05,0.04l0.02,0.05l0.03,0.05l0.07,0.02l0.13-0.06v-0.14l-0.05-0.17l-0.02-0.13l0.02-0.04l0,0
		l0.15-0.11l0.12,0.08l0.15-0.05l0.04-0.04l0.08-0.08l0,0l0.02-0.12l0,0l0.09-0.02l0.32,0.01l0.44-0.04l0.01-0.07l-0.03-0.33
		l-0.02-0.21l-0.06-0.2l-0.09-0.02l-0.07,0.05l-0.03,0.11l-0.01,0.13l-0.03,0.12l-0.04,0.08l-0.06,0.05l-0.16,0.08l-0.04,0.04
		l-0.01,0.03l-0.02,0.01l-0.07-0.03l-0.04-0.03l-0.02-0.04l-0.03-0.12v-0.1l0.07-0.18l0.01-0.13l0.1,0.04l0.07-0.02l0.04-0.07
		l0.02-0.11l-0.08-0.03l-0.08-0.02h-0.18l-0.08-0.01l-0.07-0.03l-0.05-0.03l-0.04-0.01l-0.08-0.08l-0.04-0.2l0.01-0.22l0.03-0.15
		l-0.1-0.15l-0.03-0.07l-0.02-0.09l0.03-0.06l0.04-0.05l0.02-0.06l-0.04-0.08l-0.05-0.04L63.8,80.8l-0.04,0.02l-0.06,0.02
		l-0.05-0.07l-0.01-0.16l0.03-0.15l0.06-0.07l0.04-0.03l-0.03-0.05l-0.05-0.03l-0.03,0.04l-0.02,0.03l-0.03,0.04l-0.04,0.02h-0.04
		l-0.02-0.05l0.06-0.15l-0.01-0.06l-0.04-0.02l-0.14-0.01l-0.05-0.02L63.29,80l-0.01-0.1l-0.03-0.08l-0.12-0.03h-0.09l-0.02-0.03
		l0.02-0.07l0.02-0.21l0.03-0.11l0.01-0.07l-0.23-0.07l0.18-0.05l0.06-0.05l0.03-0.1l0.02,0.04l0.05,0.06l0.02,0.05l-0.05-0.24
		l-0.16-0.48l-0.08-0.49l-0.17-0.47l-0.05-0.32l-0.04-0.12l-0.05-0.11l-0.08-0.08l-0.11-0.03h-0.09l-0.07-0.02l-0.05-0.09l-0.01-0.1
		l0.01-0.15l0.03-0.14l0.05-0.07l0.07,0.03l0.3,0.27l0.08-0.15l-0.09-0.09l-0.26-0.11l-0.08-0.09l-0.06-0.1l-0.04-0.13l-0.03-0.31
		l0.01-0.08l0.07-0.03l0.37-0.04l0.09-0.07l-0.01-0.13l-0.08-0.18l0.07-0.08l-0.04-0.1l-0.07-0.09l0.01-0.04l0.1-0.01l0.1-0.04
		l0.08-0.07l0.05-0.09l-0.02-0.09l-0.05-0.12l-0.02-0.1l0.06-0.04l0.03-0.06l0.01-0.13l-0.01-0.14l-0.02-0.08l0.08-0.03l0.04-0.08
		l0.01-0.1L63,73.47l-0.44,0.15l-0.13,0.09l-0.12,0.06h-0.17l-0.33-0.07l-0.14-0.05l-0.11-0.07l-0.1-0.05l-0.16-0.02l-0.33,0.03
		l-0.14-0.04l-0.09-0.14h0.16l0.15,0.03l0.16,0.02l0.15-0.06l0.07-0.1l-0.03-0.08l-0.1-0.03l-0.13,0.06l-0.02-0.03l-0.01-0.02
		l-0.01-0.05l0.13-0.07l-0.08-0.15l-0.24-0.23h0.09l-0.07-0.15l-0.23-0.22l-0.03-0.18l0.21,0.13l0.17,0.17l0.54,0.75l0.02,0.07
		l0.01,0.07l0.02,0.04l0.09,0.02l0.07-0.02l0.04-0.03l0.01-0.05l-0.03-0.05l0.12-0.18l0.06-0.03l0.04,0.1l0.1-0.09l0.05-0.03
		l0.07-0.03l-0.05-0.1l0.08-0.05l0.15-0.15l0.13-0.06l-0.02,0.14l-0.01,0.14l0.03,0.08l0.05,0.03l0.05-0.01l0.01-0.03l0.05,0.04
		h0.03v0.02l-0.05,0.07l-0.04,0.03l-0.07,0.01l-0.13-0.01l0.03,0.03l0.01,0.03l0.02,0.02l0.04,0.02l-0.08,0.08l-0.24,0.13l0.13,0.09
		l0.09-0.03l0.14-0.16l0.42-0.19l0.07-0.05l0.02-0.17l0.25-0.77l0.09-0.12l0.02-0.08l0.02-0.14l0.1-0.33l0.19-0.38L63.84,71
		l0.01-0.16l0.02-0.08l0.03-0.06l0.07-0.1l0.06-0.12l0.02-0.12l-0.05-0.09l-0.59-0.24l-0.1-0.1l-0.18-0.2l0.04-0.06l-0.02-0.07
		l0.05-0.22l-0.04-0.12l-0.05,0.07l-0.07,0.04h-0.08l-0.06-0.04l-0.22,0.05l-0.15-0.02l-0.12-0.1l-0.11-0.18l0.1-0.04l0.03-0.01
		l0.05,0.02l0.02,0.03l0.01,0.03l0.01,0.02l0.04,0.02l0.05,0.02l0.05,0.01l0.04-0.01l0.02-0.07l0.03-0.03l0.18-0.02l0.37,0.01
		L63.48,69l-0.02,0.05l-0.01,0.03l-0.02,0.03l-0.04,0.04l0.17-0.02l0.26-0.12l0.15-0.02l0.12,0.03l0.09,0.08l0.09,0.11l0.08,0.12
		l-0.14,0.01l0.01,0.05l0.17,0.02l0.14-0.11l0.5-0.76l0.23-0.44l0.01,0.02v0.02l0.01,0.01l0.03-0.01l0.11-0.23l0.04-0.06l0.07-0.07
		l0.01-0.04l-0.01-0.04l-0.01-0.1l0.03-0.29l-0.02-0.08l-0.07-0.05l-0.04,0.02l-0.02,0.02l-0.01,0.01l0.01,0.03l0.03,0.03
		l-0.11,0.13L65,67.55l-0.07,0.12l-0.01,0.09l-0.03,0.1l-0.04,0.09l-0.05,0.05l-0.08,0.03V68l0.03-0.07v-0.08l-0.07-0.1l-0.09-0.08
		l-0.12-0.05l-0.14-0.02l-0.06-0.07l0.12-0.16l0.26-0.28l-0.1-0.03l-0.03-0.07l0.02-0.08l0.05-0.06l0.08-0.02l0.09,0.02l0.05,0.06
		l-0.04,0.07l0.18-0.04l0.25-0.12l0.23-0.15l0.1-0.16h0.04l0.04,0.1l-0.03,0.23l0.04,0.08l-0.02,0.04l-0.02,0.03l-0.02,0.02
		l-0.02,0.02l0.24,0.07l0.07-0.03l0.09-0.15l0.06-0.15l0.03-0.13l-0.02-0.1l-0.09-0.08l0.15-0.24l0.09-0.12l0.08-0.01l0.01,0.11
		l-0.06,0.13l-0.03,0.13l0.09,0.14l-0.09,0.12l-0.05,0.12l-0.07,0.27l0.11-0.05L66.36,67l0.1-0.08l0.22-0.32l0.1-0.12l0.23-0.15
		l0.07-0.09l-0.13-0.28l0.02-0.13l0.06-0.13l0.03-0.13l-0.1-0.18l-0.2-0.23l-0.13-0.2l0.1-0.1l0.09,0.05L66.97,65l0.13,0.05
		l0.05-0.08l-0.02-0.12l-0.05-0.08l-0.16-0.13l-0.05,0.03l-0.02-0.04l0.02-0.08l0.05-0.05l0.05-0.03l0.06,0.05l0.12,0.18l0.03,0.02
		l0.08,0.04l0.03,0.03l0.02,0.04l0.01,0.07l0.02,0.06L67.34,65L67.46,65l0.06,0.04l0.02,0.08l0.02,0.27l0.04,0.12l0.07,0.06
		l0.11-0.04l0.12,0.09l0.7-0.42l0.1-0.03l0.22-0.15l0.13-0.03l0.46-0.27l-0.03-0.18l-0.19-0.16l-0.25-0.08l-0.2,0.06l-0.07,0.06
		l-0.11,0.07l-0.1,0.01l-0.05-0.12l0.05-0.02l0.34-0.18l-0.06-0.14l-0.03-0.05l-0.05-0.05l-0.04-0.04l-0.14-0.06l-0.19-0.12
		l-0.08-0.03l-0.06,0.07l-0.05,0.01l-0.06-0.08v-0.05l0.03-0.18l0.01-0.08l-0.02-0.07l-0.03-0.05l-0.19-0.25l-0.05-0.11l-0.03-0.13
		l-0.01-0.18l0.08,0.04l0.03,0.02l0.03,0.04l0.08-0.05l0.09-0.01l0.09,0.02l0.08,0.06l0.05,0.07l0.02,0.05l0.01,0.06l0.03,0.1
		l0.01,0.06v0.05l0.01,0.04l0.03,0.05l0.03,0.01l0.09-0.01l0.04,0.02l0.07,0.02l0.08-0.02l0.07-0.01l0.03,0.05l0.06,0.18l0.24-0.18
		l0.06,0.14l-0.04,0.14l-0.09,0.03l-0.12,0.02l-0.1,0.1l0.2-0.04l0.23-0.1l0.37-0.24l-0.23-0.06l-0.09-0.05l0.02-0.1l0.02-0.07
		l-0.02-0.05l-0.03-0.05l-0.01-0.06l0.02-0.03l0.04-0.03l0.04-0.04l0.02-0.07l-0.02-0.06l-0.05,0.02l-0.05,0.05l-0.05,0.02
		l-0.04-0.05l-0.05-0.11l-0.04-0.13l-0.01-0.11h0.04l0.03,0.06l0.12,0.19l0.03-0.03l0.06-0.04l0.04-0.04l0.09,0.1l0.04,0.11
		l-0.02,0.1l-0.06,0.09l0.03,0.07l0.2,0.18l0.04,0.07l0.01,0.05l0.03,0.02l0.11-0.04l0.13-0.09l0.17-0.22l0.13-0.07l-0.04,0.1
		l0.14-0.1l0.09-0.04l0.1-0.02h0.13l0.05,0.02l-0.03,0.08l-0.14,0.25l-0.03,0.09l0.03,0.05l0.13,0.02l0.09-0.02L71,63.21l0.09-0.02
		l0.11,0.01v0.05h-0.04l-0.1,0.09l-0.3,0.04l-0.11,0.07l-0.02,0.11h0.14l0.3-0.1l0.38-0.19l0.13-0.03l0.08-0.04l0.25-0.15l0.13-0.02
		l0.13,0.06l0.04,0.12l-0.02,0.12l-0.07,0.05l-0.14,0.04l-0.92,0.51l-0.22,0.17l-0.15,0.2l0.19-0.09l0.41-0.28l0.37-0.14l0.38-0.33
		l0.67-0.18l0.42-0.23l0.75-0.54l-0.23,0.03l-0.25,0.1l-0.88,0.55l-0.02,0.02l-0.04,0.02l-0.05,0.01L72.4,63.2l-0.03-0.04l0.01-0.03
		l0.02-0.03l0.01-0.12l0.02-0.07l0.01-0.08l-0.04-0.09l0.86-0.36l0.24-0.04l0.3,0.01l0.29-0.03l0.29-0.08l0.28-0.14l0.73-0.52
		l0.42-0.34l0.12-0.05l0.14-0.02l0.07-0.05l0.34-0.32l0.34-0.41l0.18-0.11l0.45-0.39l0.04-0.09l0.01-0.1l-0.01-0.12l-0.07-0.31
		l-0.01-0.16l0.05-0.17l-0.09-0.19l-0.05-0.06l0.12,0.05l0.1,0.01l0.08,0.04l0.06,0.14l0.18-0.12l0.14-0.12l0.41-0.51v-0.02
		l-0.01-0.07l0.01-0.02l0.02-0.01l0.05,0.01l0.02-0.01l0.13-0.1l0.05-0.07l0.02-0.09h0.05l0.1,0.08l0.09-0.06L79,57.68l0.02-0.16
		l0.04-0.15l0.12-0.04l0.14,0.03l0.1,0.07l0.02-0.03l0.02-0.01l0.02-0.01l0.02-0.01l-0.29-0.12l-0.09-0.01l-0.07-0.05l-0.19-0.3
		v0.02v0.02l-0.01,0.01h-0.01v0.02v0.02L78.86,57l0.01,0.06h-0.16l-0.03-0.1l-0.01-0.12l-0.12-0.07V56.7l0.09-0.03l0.09-0.05
		l0.07-0.08l0.04-0.1l-0.48-0.13l-0.22-0.13l0.04-0.2l0.07-0.08l0.09-0.13l0.03-0.13l-0.22-0.1l-0.04-0.12l0.03-0.14l0.12-0.09
		l-0.03-0.07l-0.04-0.03h-0.06h-0.07l-0.07-0.01l-0.05-0.04l-0.1-0.11l0.03-0.04l0.38-0.01l0.21,0.12l0.2,0.16l0.2,0.08l0.2-0.15
		l0.09-0.25l0.05-0.24l0.04-0.07l0.11-0.07l0.23-0.11l0.14-0.09l0.05-0.02l0.05,0.03l0.03,0.14l0.05,0.03l0.13,0.02l0.03,0.08
		l0.01,0.12l0.05,0.13l-0.04,0.17l-0.07,0.36l-0.08,0.27l-0.1,0.25l-0.08,0.12l-0.07,0.03l-0.09,0.02l-0.07,0.03l-0.01,0.06
		l0.05,0.06l0.07,0.03h0.08l0.34-0.06L81,55.81h0.12l0.1,0.04l0.1,0.09l0.13,0.04l0.09-0.08l0.05-0.06l0.01,0.1l-0.04,0.13
		l-0.08,0.07l-0.12,0.02l-0.32-0.01L81,56.19l-0.07,0.05l-0.18,0.21l-0.05,0.03l-0.06,0.04l-0.07,0.03l-0.15,0.03l-0.16,0.09
		l-0.5,0.54l-0.05,0.1l0.03,0.07l0.15,0.02l0.13-0.07l0.31-0.42l0.23-0.18l2.01-1.03l0.75-0.33l0.53-0.34l0.19-0.1l0.26-0.09
		l0.14-0.03l0.78-0.02l0.19,0.04l0.07-0.01l0.09-0.14l-0.12-0.22l-0.37-0.39l-0.17-0.26l0.04-0.27l0.46-0.75l0.05-0.14l0.02-0.14
		l0.08-0.04l0.17-0.02l0.13,0.01l0,0l0.12-0.24l0.35-0.45l-0.05-0.09l0.01-0.07l0.07-0.15l0.03-0.17l-0.01-0.12l-0.03-0.1
		l-0.02-0.14l-0.02-0.05l-0.07-0.1l-0.02-0.07l0.01-0.09l0.05-0.15l0.01-0.07l-0.04-0.17l-0.1-0.1l-0.1-0.08l-0.05-0.11l-0.04-0.32
		l0.02-0.14l0.08-0.17l0.15-0.2l0.04-0.1l0.01-0.14l-0.01-0.05l-0.09-0.22v-0.01l-0.01-0.14l-0.02-0.04l-0.05-0.03l-0.02-0.03
		l-0.01-0.15l0.05-0.13l0.09-0.1l0.13-0.04l0.01-0.08l0.07-0.37l0.05-0.12l0.2-0.18l0.05-0.11l0.03-0.36l0.2-0.44l0.03-0.13
		l0.01-0.07l-0.01-0.09l-0.01-0.08l-0.04-0.14l-0.01-0.08l0.02-0.08l0.06-0.07l0.09-0.09l0.04-0.08l0.01-0.03l-0.05-0.09L87,45.18
		l-0.11-0.15l-0.07-0.16l0.09-0.08l0.06-0.02l0.17-0.06l0.04-0.04l0.02-0.08L87.19,44.54z"/>
	<path id="TX_2_" class="st1" d="M63.64,77.73l0.09,0.32l0.06,0.15l0.08,0.12l0.03,0.07l0.09,0.41l0.07,0.15l0.17,0.28l0.05,0.17
		l0.09,0.57l0.07,0.19l0.12,0.19l0.05,0.12l0.17,1.51l0.05,0.13l0.07,0.04l0.05-0.13l-0.01-0.13l-0.08-0.39l-0.11-0.23l-0.02-0.15
		l-0.01-0.31l-0.03-0.17l-0.1-0.29l-0.07-0.44l-0.05-0.16l-0.06-0.09l0.01-0.09l-0.75-2.27l-0.25-1.29l-0.1-1.89l0.04-0.14
		l-0.09,0.11l-0.03,0.35l-0.05,0.15l0.05,0.13v0.14l-0.04,0.28l0.02,0.15l0.07,0.26l0.08,0.69l-0.01,0.26l-0.06,0.25l0.21,0.29
		l0.03,0.06l0.01,0.03l0.03,0.05l0.01,0.04l-0.01,0.02l-0.07,0.02L63.5,77.3l0.01,0.06l0.02,0.06l0.03,0.04l0.05,0.04l-0.05,0.06
		L63.64,77.73z M65.29,69.24l-0.05,0.2l-0.04,0.08l-0.27,0.26l-0.17,0.23l-0.34,0.8h-0.04l-0.05-0.08l-0.08-0.05l-0.16-0.06
		l0.03,0.12l0.04,0.08l-0.01,0.07l-0.09,0.08l0.02,0.14l-0.12,0.2l-0.14,0.2l-0.07,0.14l-0.01,0.09l-0.12,0.25l-0.03,0.1l-0.05,0.31
		l-0.19,0.48l-0.09,0.81l-0.04,0.13l0.06,0.03l0.04-0.02l0.07-0.12l0.1-0.25l0.12-0.62L64,71.79l0.58-1.2l0.8-1.24l0.07-0.08
		l-0.05-0.07L65.29,69.24z M66.63,67.06l-0.09-0.03l-0.08,0.04l-0.05,0.08l-0.03,0.08l-0.04,0.06l-0.09,0.02l-0.36,0.67v0.04
		l0.13,0.03l0.01,0.04l-0.04,0.09l-0.03,0.05l-0.19,0.21l-0.23,0.36l-0.08,0.23l0.06,0.13l0.03-0.14l0.09-0.15l0.23-0.28l0.26-0.42
		l0.56-0.67l0.02-0.07l0.01-0.16l0.02-0.07l-0.02-0.06L66.63,67.06z M69.49,65.01L69.46,65l-0.04,0.02l-0.06,0.02l-0.02,0.03
		l0.01,0.15v0.06l-0.08,0.14l-0.08,0.04l-0.25-0.02l-0.14,0.02l-0.08,0.05l-0.13,0.14l-0.3,0.15l-0.05,0.04l-0.06,0.07l-0.27,0.16
		l-0.06,0.13l-0.05,0.04l-0.25,0.16l-0.08,0.03l-0.1,0.02l-0.21,0.07l-0.13,0.02l-0.11,0.06l-0.02,0.13l0.02,0.14l0.05,0.08v0.05
		l-0.08,0.08l-0.07,0.12l-0.05,0.14l-0.02,0.13h0.05l0.05-0.13l0.08-0.12l0.17-0.18l0.35-0.27l0.15-0.18l0.61-0.34l0.35-0.32
		l0.2-0.14l0.21-0.07l0.47-0.25l0.01-0.03l0.05-0.08l0.02-0.06l0.01-0.06l-0.01-0.2L69.49,65.01z M70.34,64.37l-0.24,0.16
		l-0.36,0.34v0.05l0.13-0.02l0.1-0.08l0.16-0.18l0.15-0.05l0.05-0.07l0.14-0.1l0.05-0.03l-0.01-0.02l0.02-0.02l0.03-0.02l0.05-0.01
		l-0.01-0.05L70.34,64.37z M79.48,57.52l-0.01-0.04l-0.02-0.01l-0.01,0.01l-0.01,0.04v-0.05l-0.01,0.02v0.02l-0.01,0.01h-0.03v0.05
		l0.12,0.02l0.02,0.09l-0.04,0.1l-0.06,0.05l-0.02,0.01l-0.14,0.05l-0.03,0.04l-0.04,0.12l-0.26,0.23l-0.02,0.03l-0.1,0.01
		l-0.07,0.02l-0.05,0.06l-0.01,0.1l-0.07,0.11l-0.47,0.32l-0.25,0.25l-0.12,0.14l-0.07,0.17l0.04-0.01l0.1-0.15l0.9-0.72l0.29-0.12
		l0.93-0.85l-0.41-0.13L79.48,57.52z M87.19,44.54l-0.09-0.08L86.9,44.2l0.01-0.08l0.06-0.1l0.01-0.07v-0.33l-0.04-0.12l-0.12-0.02
		l-0.12,0.04h-0.02h-0.02l-0.02-0.01l-0.02-0.01l-0.02-0.02l-0.02-0.02l-0.02-0.04l-0.04-0.2l-0.01-0.04l-0.03-0.05l-0.02-0.04
		l-0.02-0.05l-0.01-0.06l-0.02-0.04l-0.02-0.04l-0.02-0.03L86.3,42.8l-0.17-0.13l-0.03-0.03l-0.02-0.04l-0.02-0.08l0.01-0.05
		l0.01-0.04l0.02-0.07l0.02-0.03l0.07-0.11l0.01-0.02l-0.02-0.02l-0.09-0.05l-0.1-0.1l-0.07-0.08l-0.03-0.05l-0.02-0.06l-0.03-0.12
		l-0.02-0.06L85.8,41.6l-0.03-0.02l-0.03-0.01l-0.08-0.02l-0.03-0.02l-0.02-0.02l-0.02-0.03l-0.02-0.03l-0.02-0.06l0.01-0.03
		l0.02-0.03l0.07-0.04v-0.01l0.01-0.01l0.02-0.02l0.02-0.04l-0.01-0.04l-0.02-0.03l-0.03-0.02l-0.04-0.02l-0.15-0.04l-0.04-0.02
		l-0.03-0.02l-0.05-0.04l-0.18-0.18l-0.07-0.08l-0.04-0.07l-0.02-0.04l-0.02-0.07l-0.01-0.06v-0.05l0.02-0.08L85,40.32l0.01-0.04
		l0.01-0.06L85.01,40l0.01-0.07l0.02-0.12v-0.04l-0.01-0.03l-0.02-0.03L85,39.68l-0.02-0.02l-0.03-0.06l-0.03-0.09l-0.06-0.29
		l-0.02-0.07l-0.17-0.23l-0.05-0.09l-0.03-0.07l-0.03-0.07l-0.06-0.1l-0.09-0.1l-0.13-0.12l-0.06-0.04l-0.21-0.09l-0.03-0.02
		l-0.03-0.02l-0.02-0.03l-0.14-0.23l-0.03-0.03l-0.08-0.06l-0.04-0.02l-0.09-0.06l-0.03-0.04l-0.02-0.02l-0.01-0.02l-0.03-0.55
		l-0.04-0.87l-0.05-0.86l-0.04-0.87l-0.04-0.87l-0.05-0.87l-0.09-1.73l-0.04-0.87l-0.06-0.89l-0.05-0.88l-0.05-0.88l-0.05-0.88
		l-0.03-0.48V26.2l-0.06-0.02l-0.1-0.04l-0.18-0.13l-0.11,0.07l-0.13,0.01l-0.12-0.02l-0.22-0.11l-0.09,0.04l-0.08,0.08l-0.09,0.04
		l-0.3-0.14l-0.1,0.01l-0.06,0.09l-0.04,0.12l-0.05,0.07l-0.13-0.07l-0.13,0.07l-0.12-0.02l-0.04-0.07l0.07-0.08v-0.05l-0.15,0.03
		l-0.15-0.04l-0.12-0.1l-0.05-0.15l-0.07-0.13l-0.11-0.02l-0.03-0.01l-0.15,0.01l-0.12-0.05v0.05l-0.3-0.09l-0.09-0.04l0.02-0.04
		l0.02-0.03l-0.13-0.01l-0.16,0.04l-0.05-0.07l-0.07-0.04l-0.09-0.02l-0.09-0.01h-0.04l-0.07,0.04l-0.04,0.01l-0.03-0.01l-0.05-0.07
		l-0.11-0.05l-0.11-0.17l-0.09-0.03h-0.08l-0.16-0.04l-0.4-0.05l-0.24-0.21l-0.1-0.16l-0.03-0.04l-0.07-0.04l-0.05-0.02l-0.04-0.04
		l-0.02-0.11l-0.02-0.03l-0.04-0.04L77,24.22l-0.04-0.01h-0.21l-0.09-0.02l-0.1-0.07l-0.21-0.19l-0.11-0.07l-0.19-0.04L76,23.78
		l-0.03-0.05l-0.03-0.04l-0.07-0.04l-0.41-0.12l-0.1,0.02l-0.11,0.1l-0.03,0.12l-0.01,0.13l-0.03,0.08l-0.08-0.04l-0.03,0.06
		l-0.04,0.03l-0.05,0.03l-0.07,0.04l-0.07-0.04h-0.04l-0.02,0.07v0.05l-0.01,0.03l-0.03,0.02l-0.04,0.02l-0.05,0.01l-0.52,0.01
		l-0.07,0.02l-0.04-0.05l-0.04-0.03l-0.05-0.02h-0.06l-0.02,0.02l-0.04,0.03l-0.03,0.02l-0.02-0.03l-0.03-0.04l-0.02-0.03v-0.01
		l-0.19,0.01l-0.08-0.04l0.05-0.11l-0.05-0.11l-0.07-0.05l-0.08-0.04l-0.08-0.06l-0.08-0.03l-0.07,0.07l-0.08,0.14h-0.04l-0.1-0.03
		l-0.02,0.02l-0.14,0.08l-0.07,0.02l-0.07,0.04l-0.06,0.05l-0.04,0.05h-0.06l-0.09,0.01l-0.2,0.01l-0.04,0.05l0.03,0.2l-0.07,0.05
		l-0.04-0.02l-0.03-0.03l-0.03-0.05l-0.05,0.02l-0.03,0.04l-0.04,0.05l-0.17,0.04l-0.07-0.02l-0.36-0.21l-0.07-0.07l-0.07-0.02
		l-0.08,0.05l-0.06,0.07l-0.02,0.06h-0.04l-0.09,0.05l-0.11,0.08l-0.21,0.1l-0.08,0.01l-0.32,0.01l-0.06,0.02l-0.12,0.08l-0.07,0.02
		l-0.06,0.05l-0.1,0.26l-0.05,0.1l-0.12,0.08l-0.11,0.02l-0.26-0.02l-0.16,0.03l-0.04,0.07l0.01,0.11l-0.03,0.15l-0.17,0.13
		l-0.19-0.17l-0.19-0.27l-0.15-0.17l-0.12-0.02l-0.41,0.04L67.6,25.1l-0.02-0.06l-0.02-0.07l-0.02-0.06l-0.04-0.03l-0.14-0.07
		l-0.25-0.07l-0.08-0.08l-0.03-0.03l-0.02-0.03l-0.01-0.04v-0.04l0.01-0.04l0.07-0.14l-0.02-0.04l-0.05-0.05l-0.15-0.06l-0.08-0.02
		h-0.07l-0.03,0.02l-0.02,0.02l-0.04,0.07l-0.07,0.23l-0.02,0.04l-0.02,0.03l-0.02,0.03l-0.03,0.02l-0.05,0.02l-0.06,0.02
		l-0.12,0.02h-0.07l-0.05-0.01l-0.03-0.02l-0.17-0.12l-0.07-0.03l-0.05-0.01l-0.21,0.03h-0.06l-0.05-0.02l-0.03-0.02l-0.08-0.08
		L65.3,24.4l-0.03-0.07l-0.04-0.21l-0.03-0.07l-0.03-0.04l-0.05-0.03l-0.08-0.04l-0.06-0.01h-0.05l-0.21,0.04L64.68,24l-0.03,0.02
		l-0.04,0.06l0.01,0.1l-0.01,0.18l-0.09,0.2l-0.09,0.13l-0.13,0.04l-0.22-0.05l0.01,0.12l0.04,0.05l0.05,0.03l0.03,0.07L64.17,25
		l-0.12,0.07l-0.02,0.08l-0.01,0.21l-0.05,0.19l-0.11,0.12l-0.2,0.02l-0.15-0.09l-0.12-0.17l-0.09-0.19l-0.03-0.18l0.02-0.13
		l0.11-0.19l0.02-0.12l-0.02-0.09l-0.05-0.08l-0.07-0.07l-0.08-0.06l-0.04,0.02l-0.08,0.03l-0.03,0.03l-0.02,0.03l-0.02,0.05
		l-0.1,0.19l-0.03,0.05l-0.17-0.14l-0.07-0.02l-0.1,0.07l-0.01,0.02l-0.03,0.08l-0.02,0.03l-0.03,0.04l-0.07,0.04l-0.02,0.03
		l-0.05,0.04l-0.07,0.02l-0.4,0.04l-0.1-0.06l-0.04-0.17l-0.02-0.15l-0.05-0.09l-0.09-0.05l-0.14-0.02l-0.39,0.03l-0.09-0.05
		l-0.06-0.14v-0.28l-0.06-0.13l-0.23-0.11l-0.24,0.09l-0.21,0.18l-0.52,0.54l-0.24,0.15l-0.27,0.05l-0.26-0.08l-0.14-0.07
		l-0.06-0.07l0.02-0.11l0.01-0.05l0.01-0.07l0.04-0.15V24.1l-0.04-0.08l0.04-0.08l-0.02-0.08l-0.04-0.06l-0.06,0.02l-0.22-0.07
		l-0.3-0.06l-0.24-0.12l-0.02-0.24l-0.03-0.16l0.02-0.22v-0.19l-0.1-0.08l-0.15,0.02l-0.29,0.11l-0.19,0.03l-0.82-0.09l-0.15,0.05
		l-0.1,0.11l-0.07,0.13l-0.08,0.13l-0.04,0.07l-0.15,0.03l-0.31,0.01l-0.09-0.05l-0.21-0.24l-0.08-0.05l-0.04-0.04l-0.1-0.18
		l-0.07-0.04l-0.2-0.04h-0.07l-0.14,0.03l-0.41,0.18l-0.07-0.04l-0.77-0.16l-0.13-0.04l-0.47-0.3l-0.14-0.03l-0.1,0.03l-0.09,0.04
		l-0.13,0.03l-0.12-0.02l-0.24-0.07l-0.13-0.02l-0.29,0.02l-0.14-0.03l-0.1-0.09l-0.02-0.12l-0.02-0.4l0.02-0.09l0.02-0.06
		l-0.1-0.13l-0.19-0.17l-0.06-0.12l-0.04-0.13l-0.06-0.11l-0.12-0.05l-0.12-0.01l-0.06-0.02l-0.05-0.02l-0.05-0.05l-0.03-0.06
		l-0.02-0.05l-0.03-0.04l-0.12-0.08h-0.09l-0.06,0.08l-0.03,0.37l-0.05,0.11l-0.09,0.05l-0.14-0.02L49.34,21l-0.23-0.13l-0.3-0.04
		l-0.06,0.02l-0.05,0.03l-0.07,0.08L48.59,21l-0.11,0.03L48.11,21l-0.12-0.04l-0.08-0.08l-0.12-0.18l-1.03-0.99l-0.06-0.04
		l-0.13-0.03l-0.05-0.03l-0.1-0.03l-0.28,0.04l-0.09,0.01v-0.42l-0.01-0.84v-0.84v-0.84v-0.84V15l-0.01-0.84v-0.84v-0.84v-0.84V10.8
		l-0.01-0.84V9.12V8.28V7.44V6.6l-0.01-0.84V5.39h-0.07h-1.08h-0.86l-1.12-0.01l-1.33-0.01l-1.48-0.01l-1.59-0.02l-1.63-0.02
		l-1.64-0.03l-1.58-0.03l-1.48-0.03l-1.33-0.03L29.7,5.19l-0.86-0.02l-0.56-0.01l-0.2-0.01l-0.25-0.01v0.13l-0.01,0.23l-0.03,1.03
		l-0.03,1.02l-0.03,1.03l-0.03,1.03l-0.03,1.02l-0.03,1.03l-0.03,1.03l-0.03,1.02l-0.03,1.03l-0.03,1.03l-0.03,1.03l-0.03,1.03
		l-0.03,1.02l-0.03,1.03l-0.04,1.03l-0.03,1.03l-0.03,1.03l-0.03,1.03l-0.03,1.03l-0.03,1.03l-0.03,1.03l-0.03,1.03l-0.03,1.03
		l-0.03,1.03l-0.03,1.03l-0.03,1.03l-0.03,1.03L26.9,34.3l-0.03,1.03l-0.03,1.02l-0.03,1.03l-0.03,1.03l-1.39-0.04l-1.4-0.04
		l-1.4-0.04l-1.4-0.05l-1.39-0.05l-1.4-0.05l-1.4-0.06l-1.39-0.06l-1.4-0.06l-1.39-0.07l-1.4-0.07l-1.39-0.07l-1.4-0.07l-1.39-0.08
		l-1.4-0.08l-1.39-0.08l-0.16-0.01l-0.1-0.01v0.13l0.12,0.28L4.31,38l0.01,0.17l0.03,0.13l0.14,0.24l-0.05,0.05l0.04,0.09l0.05,0.07
		l0.07,0.05l0.08,0.02l0.08,0.06l0.35,0.41l0.12,0.04l0.28-0.01l0.23,0.11l0.2,0.22l0.15,0.27l0.11,0.26l0.13,0.51l0.07,0.14
		l0.25,0.33l0.05,0.12l0.02,0.08l0.01,0.04l0.01,0.03l0.04,0.06L7,41.61l0.06,0.09l0.14,0.07l0.26,0.09l0.21,0.14l0.12,0.06
		l0.16,0.03l0.1,0.04l0.27,0.2l0.07,0.08l0.04,0.07l0.04,0.13l0.03,0.07l0.12,0.08l0.07,0.06v0.03l0.1,0.04l0.11,0.1l0.46,0.59
		l0.04,0.14l0.05,0.1l0.47,0.34l0.1,0.05l0.04,0.03l0.15,0.19l0.13,0.1l0.1,0.07l0.09,0.08l0.07,0.15l0.07,0.26l0.05,0.11l0.16,0.09
		l0.2,0.27l0.5,0.43l0.23,0.33l0.08,0.07l0.19,0.05l0.35,0.2l0.04,0.04l0.03,0.05l0.03,0.04l0.07,0.03h0.03l0.03-0.02l0.05-0.05
		l0.02-0.01l0.07,0.03l0.04,0.01l0.05,0.03l0.05,0.11l0.06,0.03l0.07,0.01l0.05,0.02l0.03,0.04l0.01,0.08l0.02-0.01l0.03,0.02
		l0.08,0.09l0.04-0.05l0,0l0.28,0.37l0.12,0.05l0.12,0.03l0.13,0.07l0.12,0.1l0.08,0.12l0.02,0.08v0.09l0.01,0.08l0.04,0.07
		l0.07,0.02l0.2,0.04l0.04,0.03l0.03,0.08l0.18,0.24l0.07,0.13l0.01,0.07l0.01,0.16l0.01,0.07l0.1,0.07L15,49.15l-0.01,0.04
		l-0.04,0.08l-0.01,0.05l0.01,0.08l0.06,0.1l0.01,0.08l-0.02,0.1L15,49.74l0.01,0.04l0.05,0.09l0.04,0.05l0.08,0.05l0.04,0.05
		l0.01,0.07v0.09l0.01,0.07l0.03,0.03l0.12,0.08l0.08,0.18l0.07,0.21l0.07,0.15l0.04,0.04L15.78,51l0.06,0.06l0.11,0.27l0.09,0.12
		l0.01,0.17l-0.02,0.27l-0.03,0.17l-0.1,0.26l-0.03,0.15l0.01,0.18l0.1,0.41v0.07l-0.02,0.11l0.01,0.08l0.02,0.04l0.08,0.1
		l0.02,0.04l0.02,0.08l0.12,0.15l0.08,0.35l0.02,0.07l0.11,0.14l0.11,0.1l0.08,0.11l0.04,0.32l0.1,0.21l0.04,0.11l0.01,0.1v0.08
		l0.02,0.07l0.09,0.1l0.3,0.23l0.09,0.09l0.02,0.05l0.02,0.07l0.03,0.07l0.04,0.03l0.04,0.02l0.51,0.36l0.07,0.1l0.12-0.06
		l0.18,0.01l0.16,0.05l0.1,0.14l0.15,0.12l0.05,0.03l0.04,0.04l0.1,0.27l0.2,0.25l0.13,0.12l0.22,0.12l0.3,0.36l0.24,0.15l0.58,0.22
		l0.41,0.1l0.45,0.04l0.07,0.03l0.06,0.05l0.03,0.07l-0.06,0.17l0.04,0.04l0.07,0.03l0.06,0.03l0.3,0.28l0.19,0.11l0.57,0.16
		l0.18-0.01l0.05,0.01l0.06,0.04l0.02,0.05l0.01,0.05l0.04,0.06l0.32,0.34l0.28,0.17l0.08,0.03l0.05,0.04l0.18,0.18l0.09,0.04
		l0.08-0.04l0.06-0.07l0.06-0.01l0.07,0.13l0.04-0.02l0.1-0.03l-0.05,0.15l0.09,0.06L25,60.59l0.35,0.1l0.25,0.04l0.16-0.08
		l0.09-0.2l0.04-0.25l0,0l0.06-0.02l0.02,0.02l0.04-0.13l0.03-0.07l0.05-0.04l0.26-0.13l0.05-0.04l0,0l0.06-0.08l0.19-0.36
		l0.08-0.08l0.04-0.04l0,0l0.14,0.08l0.04-0.06l0.3-0.21l0.18-0.03l0.07-0.03l0,0l-0.05-0.08l-0.15-0.11l-0.05-0.07l0.01-0.09
		l0.1-0.29l0.01-0.13l0.02-0.08l0.04-0.05l0.08-0.06l0.03-0.01h0.03h0.05l0.06-0.03l0,0v-0.03l-0.05-0.1l0.01-0.04l0.06-0.1
		l0.01-0.08l-0.02-0.09l-0.02-0.08l0.02-0.1l0.04-0.07l0.04-0.07L28,56.67l0,0l0.06-0.04v-0.01l0.04-0.05l-0.03-0.1l0.06-0.03
		l0.02-0.03l-0.03-0.1l0.08-0.03l0.04-0.04l0,0l0.07-0.12l0.01-0.02l0.1-0.2l0.03-0.01l0.03-0.1l0.19-0.33l0.02-0.08l0.01-0.06
		l0.02-0.05l0.05-0.06h0.05l0.24,0.01l0.11-0.03l0.24-0.12l0.12-0.04l0.02,0.01l0.03,0.08l0.03,0.02l0.04-0.01l0.02-0.01l0.01-0.02
		v-0.01l0.07-0.05v-0.01l0.05-0.09l0.05-0.02l0.7,0.07h0.01l0.01-0.03l0.16-0.23l0.02-0.07l0.02-0.2l0.02-0.07l0.05-0.05l0.08-0.02
		l0.07-0.03l0.07-0.13l0.06-0.04l0.12,0.04l0.08,0.08l0.08,0.07l0.12-0.03l0.03,0.14l0.09,0.04l0.23,0.03l0.3,0.17l0.07,0.07
		l0.23,0.11l0.61-0.05l0.17,0.04l0.1-0.09l0.1,0.03l0.09,0.08l0.08,0.04h0.07l0.05-0.01l0.05-0.03l0.04-0.04l0.05-0.02l0.07,0.01
		l0.13,0.04h0.21l0.08-0.05l0.04,0.01l0.02,0.08l0.05,0.04l1.05,0.17l0.34-0.04l0.1-0.04l0.07-0.07v-0.01l0.03-0.14l0.02-0.03l0,0
		l0.04,0.02l0.05,0.05l0.02,0.07l-0.01,0.03l-0.06,0.13l-0.02,0.06l0.14,0.04l0.1-0.05l0.1-0.08L36.57,55l0.05,0.02l0.04,0.09
		l0.06,0.04l0.07,0.01l0.07-0.01l0.07-0.02l0.05-0.03l-0.03,0.09l0.02,0.1l0.04,0.09l0.1,0.17l0.04,0.13l0.07,0.18l0.04,0.07
		l0.05,0.05l0.08,0.04l0.17,0.01l0.05,0.03l-0.01,0.12l-0.05,0.16l-0.01,0.11l0.07,0.03l0.12-0.1l0.16-0.09l0.16-0.02l0.1,0.09
		l0.01,0.19l-0.06,0.22l0.02,0.1l0.07,0.07l0.07,0.01l0.07,0.02l0.05,0.04l0.12,0.16l0.19,0.1l0.43,0.14l0.19,0.07l0.05,0.13
		l0.02,0.21l0.02,0.1L39.47,58l0.05,0.07l0.06,0.06l0.07,0.04l0.47,0.22l0.15,0.14l0.12,0.16l0.05,0.04l0.3,0.15l0.13,0.1l0.08,0.11
		l0.13,0.25l-0.05,0.16l0.05,0.1l0.34,0.29l0.02,0.04l0.03,0.04l0.08,0.02l0.08,0.01l0.06,0.02l0.05,0.1l0.05,0.43l0.13,0.29
		l0.02,0.15l-0.05,0.16l0.04,0.04l0.03,0.06l0.01,0.08v0.09l0.04,0.05l0.08,0.05l0.08,0.08l0.03,0.12l0.02,0.03l0.1,0.05l0.03,0.02
		l0.02,0.06l-0.04,0.09l0.02,0.05l0.04,0.02l0.09,0.01l0.04,0.03l0.03,0.04l0.03,0.08l0.03,0.04l0.04,0.07l0.16,0.72l0.08,0.16
		l0.24,0.31l-0.01,0.13l0.07,0.05l0.15,0.08l0.07,0.05l0.03,0.07l-0.01,0.18l0.01,0.08l0.09,0.15l0.13,0.09l0.27,0.11h-0.01
		l-0.19,0.1l-0.03,0.06l0.01,0.08l0.04,0.06l0.05,0.04l0.02,0.04l0.03,0.27l0.06,0.26l0.19,0.25l0.1,0.17l0.01,0.12l-0.04,0.14
		l0.06,0.14l0.12,0.12l0.11,0.08l0.18,0.03l0.04,0.02l0.02,0.06l0.01,0.1l0.02,0.1l0.05,0.04l0.1,0.02l0.64,0.33l0.12,0.12
		l0.05,0.17l0.01,0.1l0.02,0.05l0.09,0.1l0.09,0.08l0.05,0.02l-0.01,0.04l-0.02,0.05l-0.01,0.05l0.04,0.12l0.04,0.1l0.07,0.09
		l0.09,0.12l0.09,0.03l0.14,0.03l0.08,0.06l-0.08,0.11l0.06,0.1l0.1,0.14l0.12,0.12l0.1,0.04l0.02,0.03l-0.03,0.08l-0.06,0.12
		l0.02,0.08l0.05,0.04l0.06,0.03l0.05,0.07l0.01,0.07l-0.02,0.16l0.01,0.07l0.03,0.01l0.09,0.08l0.08,0.08l0.01,0.04L47.29,70
		l0.08,0.08l0.06,0.1l0.08,0.09l0.07,0.03l0.12,0.04l0.04,0.03l0.03,0.07l0.02,0.09l0.02,0.07l0.05,0.03l0.12,0.18L48,70.84h0.24
		l0.04,0.04L48.35,71l0.03,0.03h0.07l0.14-0.08l0.08-0.02l0.07,0.03l0.08,0.14l0.04,0.03l0.11,0.04l0.13,0.06l0.13,0.12l0.06,0.11
		v0.3l-0.02,0.17v0.08l0.04,0.03l0.1,0.01l0.05,0.03l0.03,0.06l0.02,0.1v0.03l0.01,0.28l-0.02,0.09l-0.05,0.17l-0.02,0.15
		l-0.03,0.09l-0.01,0.08l-0.02,0.07l-0.11,0.12l-0.01,0.01l-0.04,0.08l0.19,0.07l0.04,0.03l0.01,0.02l0.01,0.06l0.02,0.03l0.07,0.03
		l0.02,0.02l0.09,0.11l0.07,0.12l0.05,0.13l0.01,0.14l-0.02,0.14l-0.09,0.32l-0.02,0.15l0.02,0.03l0.03,0.04l0.03,0.05l0.01,0.07
		l-0.02,0.06l-0.13,0.24l0.12,0.17l0.03,0.04l0.1,0.08l0.06,0.03h0.05l0.05,0.01l0.04,0.06l0.02,0.08v0.15l0.03,0.08l0.06,0.06
		l0.27,0.21l0.07,0.1l0.21,0.26l0.09,0.12l0.12,0.12l0.09,0.12l0.1,0.32l0.09,0.35l0.27,0.78l0.02,0.12l0.05,0.37l0.04,0.17
		l0.16,0.07l0.17,0.04l0.08,0.1l0.08,0.2l0.02,0.09l-0.03,0.09l-0.06,0.09l-0.04,0.09l0.02,0.08l0.14,0.11l0.13,0.02l0.12-0.02
		l0.13,0.01l0.03,0.02l0.04,0.06l0.04,0.02l0.04-0.01l0.12-0.05l0.16,0.01L53,80.15l0.06,0.12l0.1-0.1l0.25,0.18l0.15-0.03
		l0.06,0.04l0.07,0.02l0.06-0.01l0.04-0.05h0.01l0.07,0.04l0.05-0.02l0.04-0.03l0.06,0.01l0.04,0.03l0.1,0.12l0.23,0.14l0.07,0.09
		l-0.03,0.12l0.09-0.01l0.08,0.01l0.08,0.03l0.07,0.07L54.68,81l0.01,0.04l0.06,0.01l0.05,0.02l0.14,0.13l0.08,0.04l0.09,0.02
		l0.39-0.15l0.19,0.1l0.21,0.06l0.19,0.07l0.14,0.16l0.09-0.11l0.02-0.02l0.19,0.06l0.21,0.12l0.18,0.05l-0.05,0.15v0.08l0.08,0.02
		h0.18l0.04,0.05l0.16,0.23l0.07,0.07l0.52,0.26l0.25,0.07l0.23,0.01l0.31-0.09l0.13,0.03l0.06,0.18l0.07,0.03l0.14-0.05l0.21-0.11
		l0.09-0.01l0.38,0.05l0.42-0.06l0.51-0.01l0.13,0.03l0.02,0.11l0.09,0.03l0.59,0.02l0.13,0.03l0.12,0.06l0.13,0.09l0.07,0.1
		l0.05,0.12l0.07,0.1l0.2,0.08l0.31,0.3l0.12,0.08l0.11,0.04l0.11,0.02h0.14l0.05,0.05l0.04,0.11l0.07,0.1l0.14,0.02l0.03-0.03l0,0
		v-0.04l0.01-0.03l0,0h0.05l0.05,0.04l0.02,0.05l0.03,0.05l0.07,0.02l0.13-0.06v-0.14l-0.05-0.17l-0.02-0.13l0.02-0.04l0,0
		l0.15-0.11l0.12,0.08l0.15-0.05l0.04-0.04l0.08-0.08l0,0l0.02-0.12l0,0l0.09-0.02l0.32,0.01l0.44-0.04l0.01-0.07l-0.03-0.33
		l-0.02-0.21l-0.06-0.2l-0.09-0.02l-0.07,0.05l-0.03,0.11l-0.01,0.13l-0.03,0.12l-0.04,0.08l-0.06,0.05l-0.16,0.08l-0.04,0.04
		l-0.01,0.03l-0.02,0.01l-0.07-0.03l-0.04-0.03l-0.02-0.04l-0.03-0.12v-0.1l0.07-0.18l0.01-0.13l0.1,0.04l0.07-0.02l0.04-0.07
		l0.02-0.11l-0.08-0.03l-0.08-0.02h-0.18l-0.08-0.01l-0.07-0.03l-0.05-0.03l-0.04-0.01l-0.08-0.08l-0.04-0.2l0.01-0.22l0.03-0.15
		l-0.1-0.15l-0.03-0.07l-0.02-0.09l0.03-0.06l0.04-0.05l0.02-0.06l-0.04-0.08l-0.05-0.04L63.8,80.8l-0.04,0.02l-0.06,0.02
		l-0.05-0.07l-0.01-0.16l0.03-0.15l0.06-0.07l0.04-0.03l-0.03-0.05l-0.05-0.03l-0.03,0.04l-0.02,0.03l-0.03,0.04l-0.04,0.02h-0.04
		l-0.02-0.05l0.06-0.15l-0.01-0.06l-0.04-0.02l-0.14-0.01l-0.05-0.02L63.29,80l-0.01-0.1l-0.03-0.08l-0.12-0.03h-0.09l-0.02-0.03
		l0.02-0.07l0.02-0.21l0.03-0.11l0.01-0.07l-0.23-0.07l0.18-0.05l0.06-0.05l0.03-0.1l0.02,0.04l0.05,0.06l0.02,0.05l-0.05-0.24
		l-0.16-0.48l-0.08-0.49l-0.17-0.47l-0.05-0.32l-0.04-0.12l-0.05-0.11l-0.08-0.08l-0.11-0.03h-0.09l-0.07-0.02l-0.05-0.09l-0.01-0.1
		l0.01-0.15l0.03-0.14l0.05-0.07l0.07,0.03l0.3,0.27l0.08-0.15l-0.09-0.09l-0.26-0.11l-0.08-0.09l-0.06-0.1l-0.04-0.13l-0.03-0.31
		l0.01-0.08l0.07-0.03l0.37-0.04l0.09-0.07l-0.01-0.13l-0.08-0.18l0.07-0.08l-0.04-0.1l-0.07-0.09l0.01-0.04l0.1-0.01l0.1-0.04
		l0.08-0.07l0.05-0.09l-0.02-0.09l-0.05-0.12l-0.02-0.1l0.06-0.04l0.03-0.06l0.01-0.13l-0.01-0.14l-0.02-0.08l0.08-0.03l0.04-0.08
		l0.01-0.1L63,73.47l-0.44,0.15l-0.13,0.09l-0.12,0.06h-0.17l-0.33-0.07l-0.14-0.05l-0.11-0.07l-0.1-0.05l-0.16-0.02l-0.33,0.03
		l-0.14-0.04l-0.09-0.14h0.16l0.15,0.03l0.16,0.02l0.15-0.06l0.07-0.1l-0.03-0.08l-0.1-0.03l-0.13,0.06l-0.02-0.03l-0.01-0.02
		l-0.01-0.05l0.13-0.07l-0.08-0.15l-0.24-0.23h0.09l-0.07-0.15l-0.23-0.22l-0.03-0.18l0.21,0.13l0.17,0.17l0.54,0.75l0.02,0.07
		l0.01,0.07l0.02,0.04l0.09,0.02l0.07-0.02l0.04-0.03l0.01-0.05l-0.03-0.05l0.12-0.18l0.06-0.03l0.04,0.1l0.1-0.09l0.05-0.03
		l0.07-0.03l-0.05-0.1l0.08-0.05l0.15-0.15l0.13-0.06l-0.02,0.14l-0.01,0.14l0.03,0.08l0.05,0.03l0.05-0.01l0.01-0.03l0.05,0.04
		h0.03v0.02l-0.05,0.07l-0.04,0.03l-0.07,0.01l-0.13-0.01l0.03,0.03l0.01,0.03l0.02,0.02l0.04,0.02l-0.08,0.08l-0.24,0.13l0.13,0.09
		l0.09-0.03l0.14-0.16l0.42-0.19l0.07-0.05l0.02-0.17l0.25-0.77l0.09-0.12l0.02-0.08l0.02-0.14l0.1-0.33l0.19-0.38L63.84,71
		l0.01-0.16l0.02-0.08l0.03-0.06l0.07-0.1l0.06-0.12l0.02-0.12l-0.05-0.09l-0.59-0.24l-0.1-0.1l-0.18-0.2l0.04-0.06l-0.02-0.07
		l0.05-0.22l-0.04-0.12l-0.05,0.07l-0.07,0.04h-0.08l-0.06-0.04l-0.22,0.05l-0.15-0.02l-0.12-0.1l-0.11-0.18l0.1-0.04l0.03-0.01
		l0.05,0.02l0.02,0.03l0.01,0.03l0.01,0.02l0.04,0.02l0.05,0.02l0.05,0.01l0.04-0.01l0.02-0.07l0.03-0.03l0.18-0.02l0.37,0.01
		L63.48,69l-0.02,0.05l-0.01,0.03l-0.02,0.03l-0.04,0.04l0.17-0.02l0.26-0.12l0.15-0.02l0.12,0.03l0.09,0.08l0.09,0.11l0.08,0.12
		l-0.14,0.01l0.01,0.05l0.17,0.02l0.14-0.11l0.5-0.76l0.23-0.44l0.01,0.02v0.02l0.01,0.01l0.03-0.01l0.11-0.23l0.04-0.06l0.07-0.07
		l0.01-0.04l-0.01-0.04l-0.01-0.1l0.03-0.29l-0.02-0.08l-0.07-0.05l-0.04,0.02l-0.02,0.02l-0.01,0.01l0.01,0.03l0.03,0.03
		l-0.11,0.13L65,67.55l-0.07,0.12l-0.01,0.09l-0.03,0.1l-0.04,0.09l-0.05,0.05l-0.08,0.03V68l0.03-0.07v-0.08l-0.07-0.1l-0.09-0.08
		l-0.12-0.05l-0.14-0.02l-0.06-0.07l0.12-0.16l0.26-0.28l-0.1-0.03l-0.03-0.07l0.02-0.08l0.05-0.06l0.08-0.02l0.09,0.02l0.05,0.06
		l-0.04,0.07l0.18-0.04l0.25-0.12l0.23-0.15l0.1-0.16h0.04l0.04,0.1l-0.03,0.23l0.04,0.08l-0.02,0.04l-0.02,0.03l-0.02,0.02
		l-0.02,0.02l0.24,0.07l0.07-0.03l0.09-0.15l0.06-0.15l0.03-0.13l-0.02-0.1l-0.09-0.08l0.15-0.24l0.09-0.12l0.08-0.01l0.01,0.11
		l-0.06,0.13l-0.03,0.13l0.09,0.14l-0.09,0.12l-0.05,0.12l-0.07,0.27l0.11-0.05L66.36,67l0.1-0.08l0.22-0.32l0.1-0.12l0.23-0.15
		l0.07-0.09l-0.13-0.28l0.02-0.13l0.06-0.13l0.03-0.13l-0.1-0.18l-0.2-0.23l-0.13-0.2l0.1-0.1l0.09,0.05L66.97,65l0.13,0.05
		l0.05-0.08l-0.02-0.12l-0.05-0.08l-0.16-0.13l-0.05,0.03l-0.02-0.04l0.02-0.08l0.05-0.05l0.05-0.03l0.06,0.05l0.12,0.18l0.03,0.02
		l0.08,0.04l0.03,0.03l0.02,0.04l0.01,0.07l0.02,0.06L67.34,65L67.46,65l0.06,0.04l0.02,0.08l0.02,0.27l0.04,0.12l0.07,0.06
		l0.11-0.04l0.12,0.09l0.7-0.42l0.1-0.03l0.22-0.15l0.13-0.03l0.46-0.27l-0.03-0.18l-0.19-0.16l-0.25-0.08l-0.2,0.06l-0.07,0.06
		l-0.11,0.07l-0.1,0.01l-0.05-0.12l0.05-0.02l0.34-0.18l-0.06-0.14l-0.03-0.05l-0.05-0.05l-0.04-0.04l-0.14-0.06l-0.19-0.12
		l-0.08-0.03l-0.06,0.07l-0.05,0.01l-0.06-0.08v-0.05l0.03-0.18l0.01-0.08l-0.02-0.07l-0.03-0.05l-0.19-0.25l-0.05-0.11l-0.03-0.13
		l-0.01-0.18l0.08,0.04l0.03,0.02l0.03,0.04l0.08-0.05l0.09-0.01l0.09,0.02l0.08,0.06l0.05,0.07l0.02,0.05l0.01,0.06l0.03,0.1
		l0.01,0.06v0.05l0.01,0.04l0.03,0.05l0.03,0.01l0.09-0.01l0.04,0.02l0.07,0.02l0.08-0.02l0.07-0.01l0.03,0.05l0.06,0.18l0.24-0.18
		l0.06,0.14l-0.04,0.14l-0.09,0.03l-0.12,0.02l-0.1,0.1l0.2-0.04l0.23-0.1l0.37-0.24l-0.23-0.06l-0.09-0.05l0.02-0.1l0.02-0.07
		l-0.02-0.05l-0.03-0.05l-0.01-0.06l0.02-0.03l0.04-0.03l0.04-0.04l0.02-0.07l-0.02-0.06l-0.05,0.02l-0.05,0.05l-0.05,0.02
		l-0.04-0.05l-0.05-0.11l-0.04-0.13l-0.01-0.11h0.04l0.03,0.06l0.12,0.19l0.03-0.03l0.06-0.04l0.04-0.04l0.09,0.1l0.04,0.11
		l-0.02,0.1l-0.06,0.09l0.03,0.07l0.2,0.18l0.04,0.07l0.01,0.05l0.03,0.02l0.11-0.04l0.13-0.09l0.17-0.22l0.13-0.07l-0.04,0.1
		l0.14-0.1l0.09-0.04l0.1-0.02h0.13l0.05,0.02l-0.03,0.08l-0.14,0.25l-0.03,0.09l0.03,0.05l0.13,0.02l0.09-0.02L71,63.21l0.09-0.02
		l0.11,0.01v0.05h-0.04l-0.1,0.09l-0.3,0.04l-0.11,0.07l-0.02,0.11h0.14l0.3-0.1l0.38-0.19l0.13-0.03l0.08-0.04l0.25-0.15l0.13-0.02
		l0.13,0.06l0.04,0.12l-0.02,0.12l-0.07,0.05l-0.14,0.04l-0.92,0.51l-0.22,0.17l-0.15,0.2l0.19-0.09l0.41-0.28l0.37-0.14l0.38-0.33
		l0.67-0.18l0.42-0.23l0.75-0.54l-0.23,0.03l-0.25,0.1l-0.88,0.55l-0.02,0.02l-0.04,0.02l-0.05,0.01L72.4,63.2l-0.03-0.04l0.01-0.03
		l0.02-0.03l0.01-0.12l0.02-0.07l0.01-0.08l-0.04-0.09l0.86-0.36l0.24-0.04l0.3,0.01l0.29-0.03l0.29-0.08l0.28-0.14l0.73-0.52
		l0.42-0.34l0.12-0.05l0.14-0.02l0.07-0.05l0.34-0.32l0.34-0.41l0.18-0.11l0.45-0.39l0.04-0.09l0.01-0.1l-0.01-0.12l-0.07-0.31
		l-0.01-0.16l0.05-0.17l-0.09-0.19l-0.05-0.06l0.12,0.05l0.1,0.01l0.08,0.04l0.06,0.14l0.18-0.12l0.14-0.12l0.41-0.51v-0.02
		l-0.01-0.07l0.01-0.02l0.02-0.01l0.05,0.01l0.02-0.01l0.13-0.1l0.05-0.07l0.02-0.09h0.05l0.1,0.08l0.09-0.06L79,57.68l0.02-0.16
		l0.04-0.15l0.12-0.04l0.14,0.03l0.1,0.07l0.02-0.03l0.02-0.01l0.02-0.01l0.02-0.01l-0.29-0.12l-0.09-0.01l-0.07-0.05l-0.19-0.3
		v0.02v0.02l-0.01,0.01h-0.01v0.02v0.02L78.86,57l0.01,0.06h-0.16l-0.03-0.1l-0.01-0.12l-0.12-0.07V56.7l0.09-0.03l0.09-0.05
		l0.07-0.08l0.04-0.1l-0.48-0.13l-0.22-0.13l0.04-0.2l0.07-0.08l0.09-0.13l0.03-0.13l-0.22-0.1l-0.04-0.12l0.03-0.14l0.12-0.09
		l-0.03-0.07l-0.04-0.03h-0.06h-0.07l-0.07-0.01l-0.05-0.04l-0.1-0.11l0.03-0.04l0.38-0.01l0.21,0.12l0.2,0.16l0.2,0.08l0.2-0.15
		l0.09-0.25l0.05-0.24l0.04-0.07l0.11-0.07l0.23-0.11l0.14-0.09l0.05-0.02l0.05,0.03l0.03,0.14l0.05,0.03l0.13,0.02l0.03,0.08
		l0.01,0.12l0.05,0.13l-0.04,0.17l-0.07,0.36l-0.08,0.27l-0.1,0.25l-0.08,0.12l-0.07,0.03l-0.09,0.02l-0.07,0.03l-0.01,0.06
		l0.05,0.06l0.07,0.03h0.08l0.34-0.06L81,55.81h0.12l0.1,0.04l0.1,0.09l0.13,0.04l0.09-0.08l0.05-0.06l0.01,0.1l-0.04,0.13
		l-0.08,0.07l-0.12,0.02l-0.32-0.01L81,56.19l-0.07,0.05l-0.18,0.21l-0.05,0.03l-0.06,0.04l-0.07,0.03l-0.15,0.03l-0.16,0.09
		l-0.5,0.54l-0.05,0.1l0.03,0.07l0.15,0.02l0.13-0.07l0.31-0.42l0.23-0.18l2.01-1.03l0.75-0.33l0.53-0.34l0.19-0.1l0.26-0.09
		l0.14-0.03l0.78-0.02l0.19,0.04l0.07-0.01l0.09-0.14l-0.12-0.22l-0.37-0.39l-0.17-0.26l0.04-0.27l0.46-0.75l0.05-0.14l0.02-0.14
		l0.08-0.04l0.17-0.02l0.13,0.01l0,0l0.12-0.24l0.35-0.45l-0.05-0.09l0.01-0.07l0.07-0.15l0.03-0.17l-0.01-0.12l-0.03-0.1
		l-0.02-0.14l-0.02-0.05l-0.07-0.1l-0.02-0.07l0.01-0.09l0.05-0.15l0.01-0.07l-0.04-0.17l-0.1-0.1l-0.1-0.08l-0.05-0.11l-0.04-0.32
		l0.02-0.14l0.08-0.17l0.15-0.2l0.04-0.1l0.01-0.14l-0.01-0.05l-0.09-0.22v-0.01l-0.01-0.14l-0.02-0.04l-0.05-0.03l-0.02-0.03
		l-0.01-0.15l0.05-0.13l0.09-0.1l0.13-0.04l0.01-0.08l0.07-0.37l0.05-0.12l0.2-0.18l0.05-0.11l0.03-0.36l0.2-0.44l0.03-0.13
		l0.01-0.07l-0.01-0.09l-0.01-0.08l-0.04-0.14l-0.01-0.08l0.02-0.08l0.06-0.07l0.09-0.09l0.04-0.08l0.01-0.03l-0.05-0.09L87,45.18
		l-0.11-0.15l-0.07-0.16l0.09-0.08l0.06-0.02l0.17-0.06l0.04-0.04l0.02-0.08L87.19,44.54z"/>
</g>
<g id="UTAH">
</g>
<g id="VIRGINIA">
</g>
<g id="VERMONT">
</g>
<g id="WASHINGTON">
</g>
<g id="WISCONSIN">
</g>
<g id="WEST_VIRGINIA">
</g>
<g id="WYOMING">
</g>
</svg>
