<?xml version="1.0" encoding="UTF-8"?>
<svg id="TEXAS" xmlns="http://www.w3.org/2000/svg" viewBox="0 0 90 90">
  <defs>
    <style>
      .cls-1 {
        fill: #e2e2e2;
        stroke: #f9f9f9;
        stroke-linecap: round;
        stroke-linejoin: round;
        stroke-width: .03px;
      }
    </style>
  </defs>
  <path id="TX" class="cls-1" d="M63.64,77.73l.09,.32,.06,.15,.08,.12,.03,.07,.09,.41,.07,.15,.17,.28,.05,.17,.09,.57,.07,.19,.12,.19,.05,.12,.17,1.51,.05,.13,.07,.04,.05-.13v-.13s-.09-.39-.09-.39l-.11-.23-.02-.15v-.31s-.03-.17-.03-.17l-.1-.29-.07-.44-.05-.16-.06-.09v-.09s-.74-2.27-.74-2.27l-.25-1.29-.1-1.89,.04-.14-.09,.11-.03,.35-.05,.15,.05,.13v.14l-.04,.28,.02,.15,.07,.26,.08,.69v.26s-.07,.25-.07,.25l.21,.29,.03,.06v.03s.04,.05,.04,.05v.04s0,.02,0,.02l-.07,.02v.03s0,.06,0,.06l.02,.06,.03,.04,.05,.04-.05,.06,.09,.17Zm1.65-8.49l-.05,.2-.04,.08-.27,.26-.17,.23-.34,.8h-.04l-.05-.08-.08-.05-.16-.06,.03,.12,.04,.08v.07s-.11,.08-.11,.08l.02,.14-.12,.2-.14,.2-.07,.14v.09s-.13,.25-.13,.25l-.03,.1-.05,.31-.19,.48-.09,.81-.04,.13,.06,.03,.04-.02,.07-.12,.1-.25,.12-.62,.36-1.05,.58-1.2,.8-1.24,.07-.08-.05-.07-.1,.03Zm1.34-2.18l-.09-.03-.08,.04-.05,.08-.03,.08-.04,.06-.09,.02-.36,.67v.04l.13,.03v.04s-.03,.09-.03,.09l-.03,.05-.19,.21-.23,.36-.08,.23,.06,.13,.03-.14,.09-.15,.23-.28,.26-.42,.56-.67,.02-.07v-.16s.02-.07,.02-.07l-.02-.06-.06-.07Zm2.86-2.05h-.03s-.04,.01-.04,.01l-.06,.02-.02,.03v.15s.01,.06,.01,.06l-.08,.14-.08,.04-.25-.02-.14,.02-.08,.05-.13,.14-.3,.15-.05,.04-.06,.07-.27,.16-.06,.13-.05,.04-.25,.16-.08,.03-.1,.02-.21,.07-.13,.02-.11,.06-.02,.13,.02,.14,.05,.08v.05l-.08,.08-.07,.12-.05,.14-.02,.13h.05l.05-.13,.08-.12,.17-.18,.35-.27,.15-.18,.61-.34,.35-.32,.2-.14,.21-.07,.47-.25v-.03s.06-.08,.06-.08l.02-.06v-.06s0-.2,0-.2l-.03-.07Zm.84-.64l-.24,.16-.36,.34v.05l.13-.02,.1-.08,.16-.18,.15-.05,.05-.07,.14-.1,.05-.03v-.02s.01-.02,.01-.02l.03-.02h.05s0-.05,0-.05l-.27,.09Zm9.14-6.85v-.04s-.03,0-.03,0h-.01s0,.05,0,.05v-.03s0,.02,0,.02h0s-.03,.01-.03,.01v.05l.12,.02,.02,.09-.04,.1-.06,.05h-.02s-.14,.05-.14,.05l-.03,.04-.04,.12-.26,.23-.02,.03h-.1s-.07,.03-.07,.03l-.05,.06v.1s-.08,.11-.08,.11l-.47,.32-.25,.25-.12,.14-.07,.17h.04s.1-.15,.1-.15l.9-.72,.29-.12,.93-.85-.41-.13h-.08Zm7.71-12.98l-.09-.08-.19-.26v-.08s.07-.1,.07-.1v-.07s0-.33,0-.33l-.04-.12-.12-.02-.12,.04h-.06s-.02-.02-.02-.02l-.02-.02-.02-.02-.02-.04-.04-.2v-.04s-.04-.05-.04-.05l-.02-.04-.02-.05v-.06s-.03-.04-.03-.04l-.02-.04-.02-.03-.07-.07-.17-.13-.03-.03-.02-.04-.02-.08v-.05s.02-.04,.02-.04l.02-.07,.02-.03,.07-.11v-.02s-.01-.02-.01-.02l-.09-.05-.1-.1-.07-.08-.03-.05-.02-.06-.03-.12-.02-.06-.03-.04-.03-.02h-.03s-.08-.03-.08-.03l-.03-.02-.02-.02-.02-.03-.02-.03-.02-.06v-.03s.02-.03,.02-.03l.07-.04h0s0-.01,0-.01l.02-.02,.02-.04v-.04s-.03-.03-.03-.03l-.03-.02-.04-.02-.15-.04-.04-.02-.03-.02-.05-.04-.18-.18-.07-.08-.04-.07-.02-.04-.02-.07v-.06s-.01-.05-.01-.05l.02-.08,.02-.05v-.04s.02-.06,.02-.06v-.21s0-.07,0-.07l.02-.12v-.08s-.03-.03-.03-.03l-.02-.03-.02-.02-.03-.06-.03-.09-.06-.29-.02-.07-.17-.23-.05-.09-.03-.07-.03-.07-.06-.1-.09-.1-.13-.12-.06-.04-.21-.09-.03-.02-.03-.02-.02-.03-.14-.23-.03-.03-.08-.06-.04-.02-.09-.06-.03-.04-.02-.02v-.02s-.03-.55-.03-.55l-.04-.87-.05-.86-.04-.87-.04-.87-.05-.87-.09-1.73-.04-.87-.06-.89-.05-.88-.05-.88-.05-.88-.03-.48h0s-.06-.03-.06-.03l-.1-.04-.18-.13-.11,.07h-.13s-.12-.01-.12-.01l-.22-.11-.09,.04-.08,.08-.09,.04-.3-.14h-.1s-.06,.1-.06,.1l-.04,.12-.05,.07-.13-.07-.13,.07-.12-.02-.04-.07,.07-.08v-.05l-.15,.03-.15-.04-.12-.1-.05-.15-.07-.13-.11-.02h-.03s-.15,0-.15,0l-.12-.05v.05l-.3-.09-.09-.04,.02-.04,.02-.03h-.13s-.16,.03-.16,.03l-.05-.07-.07-.04-.09-.02h-.09s-.04-.01-.04-.01l-.07,.04h-.04s-.03,0-.03,0l-.05-.07-.11-.05-.11-.17-.09-.03h-.08l-.16-.04-.4-.05-.24-.21-.1-.16-.03-.04-.07-.04-.05-.02-.04-.04-.02-.11-.02-.03-.04-.04-.05-.03h-.04s-.21-.01-.21-.01l-.09-.02-.1-.07-.21-.19-.11-.07-.19-.04-.04-.04-.03-.05-.03-.04-.07-.04-.41-.12-.1,.02-.11,.1-.03,.12v.13s-.03,.08-.03,.08l-.08-.04-.03,.06-.04,.03-.05,.03-.07,.04-.07-.04h-.04l-.02,.07v.09s-.04,.02-.04,.02l-.04,.02h-.05s-.52,.01-.52,.01l-.07,.02-.04-.05-.04-.03-.05-.02h-.06l-.02,.02-.04,.03-.03,.02-.02-.03-.03-.04-.02-.03h0s-.19,0-.19,0l-.08-.04,.05-.11-.05-.11-.07-.05-.08-.04-.08-.06-.08-.03-.07,.07-.08,.14h-.04l-.1-.03-.02,.02-.14,.08-.07,.02-.07,.04-.06,.05-.04,.05h-.15s-.2,.02-.2,.02l-.04,.05,.03,.2-.07,.05-.04-.02-.03-.03-.03-.05-.05,.02-.03,.04-.04,.05-.17,.04-.07-.02-.36-.21-.07-.07-.07-.02-.08,.05-.06,.07-.02,.06h-.04l-.09,.05-.11,.08-.21,.1h-.08s-.32,.02-.32,.02l-.06,.02-.12,.08-.07,.02-.06,.05-.1,.26-.05,.1-.12,.08-.11,.02-.26-.02-.16,.03-.04,.07v.11s-.02,.15-.02,.15l-.17,.13-.19-.17-.19-.27-.15-.17-.12-.02-.41,.04-.05-.02-.02-.06-.02-.07-.02-.06-.04-.03-.14-.07-.25-.07-.08-.08-.03-.03-.02-.03v-.04s-.01-.04-.01-.04v-.04s.07-.14,.07-.14l-.02-.04-.05-.05-.15-.06-.08-.02h-.07l-.03,.02-.02,.02-.04,.07-.07,.23-.02,.04-.02,.03-.02,.03-.03,.02-.05,.02-.06,.02-.12,.02h-.12s-.03-.02-.03-.02l-.17-.12-.07-.03h-.05s-.21,.03-.21,.03h-.06l-.05-.02-.03-.02-.08-.08-.04-.06-.03-.07-.04-.21-.03-.07-.03-.04-.05-.03-.08-.04h-.06s-.05,0-.05,0l-.21,.04-.04,.02-.03,.02-.04,.06v.1s0,.18,0,.18l-.09,.2-.09,.13-.13,.04-.22-.05v.12s.05,.05,.05,.05l.05,.03,.03,.07-.03,.06-.12,.07-.02,.08v.21s-.06,.19-.06,.19l-.11,.12-.2,.02-.15-.09-.12-.17-.09-.19-.03-.18,.02-.13,.11-.19,.02-.12-.02-.09-.05-.08-.07-.07-.08-.06-.04,.02-.08,.03-.03,.03-.02,.03-.02,.05-.1,.19-.03,.05-.17-.14-.07-.02-.1,.07v.02s-.04,.08-.04,.08l-.02,.03-.03,.04-.07,.04-.02,.03-.05,.04-.07,.02-.4,.04-.1-.06-.04-.17-.02-.15-.05-.09-.09-.05-.14-.02-.39,.03-.09-.05-.06-.14v-.28l-.06-.13-.23-.11-.24,.09-.21,.18-.52,.54-.24,.15-.27,.05-.26-.08-.14-.07-.06-.07,.02-.11v-.05s.02-.07,.02-.07l.04-.15v-.07l-.04-.08,.04-.08-.02-.08-.04-.06-.06,.02-.22-.07-.3-.06-.24-.12-.02-.24-.03-.16,.02-.22v-.19l-.1-.08-.15,.02-.29,.11-.19,.03-.82-.09-.15,.05-.1,.11-.07,.13-.08,.13-.04,.07-.15,.03h-.31s-.09-.04-.09-.04l-.21-.24-.08-.05-.04-.04-.1-.18-.07-.04-.2-.04h-.07l-.14,.03-.41,.18-.07-.04-.77-.16-.13-.04-.47-.3-.14-.03-.1,.03-.09,.04-.13,.03-.12-.02-.24-.07-.13-.02-.29,.02-.14-.03-.1-.09-.02-.12-.02-.4,.02-.09,.02-.06-.1-.13-.19-.17-.06-.12-.04-.13-.06-.11-.12-.05h-.12s-.06-.02-.06-.02l-.05-.02-.05-.05-.03-.06-.02-.05-.03-.04-.12-.08h-.09l-.06,.08-.03,.37-.05,.11-.09,.05-.14-.02-.13-.05-.23-.13-.3-.04-.06,.02-.05,.03-.07,.08-.04,.04-.11,.03-.37-.03-.12-.04-.08-.08-.12-.18-1.03-.99-.06-.04-.13-.03-.05-.03-.1-.03-.28,.04h-.09s0-.41,0-.41v-.84s0-.84,0-.84v-3.36s0-.84,0-.84v-3.36s0-.84,0-.84v-3.36s0-.37,0-.37h-3.13s-1.33-.02-1.33-.02h-1.48s-1.59-.03-1.59-.03l-1.63-.02-1.64-.03-1.58-.03-1.48-.03-1.33-.03-1.12-.03-.86-.02h-.56s-.2-.02-.2-.02h-.25s0,.13,0,.13v.23s-.04,1.03-.04,1.03l-.03,1.02-.03,1.03-.03,1.03-.03,1.02-.03,1.03-.03,1.03-.03,1.02-.03,1.03-.03,1.03-.03,1.03-.03,1.03-.03,1.02-.03,1.03-.04,1.03-.03,1.03-.03,1.03-.03,1.03-.03,1.03-.03,1.03-.03,1.03-.03,1.03-.03,1.03-.03,1.03-.03,1.03-.03,1.03-.03,1.03-.03,1.03-.03,1.03-.03,1.02-.03,1.03-.03,1.03-1.39-.04-1.4-.04-1.4-.04-1.4-.05-1.39-.05-1.4-.05-1.4-.06-1.39-.06-1.4-.06-1.39-.07-1.4-.07-1.39-.07-1.4-.07-1.39-.08-1.4-.08-1.39-.08h-.16s-.1-.02-.1-.02v.13l.12,.28,.02,.16v.17s.04,.13,.04,.13l.14,.24-.05,.05,.04,.09,.05,.07,.07,.05,.08,.02,.08,.06,.35,.41,.12,.04h.28s.23,.1,.23,.1l.2,.22,.15,.27,.11,.26,.13,.51,.07,.14,.25,.33,.05,.12,.02,.08v.04s.02,.03,.02,.03l.04,.06,.21,.14,.06,.09,.14,.07,.26,.09,.21,.14,.12,.06,.16,.03,.1,.04,.27,.2,.07,.08,.04,.07,.04,.13,.03,.07,.12,.08,.07,.06v.03l.1,.04,.11,.1,.46,.59,.04,.14,.05,.1,.47,.34,.1,.05,.04,.03,.15,.19,.13,.1,.1,.07,.09,.08,.07,.15,.07,.26,.05,.11,.16,.09,.2,.27,.5,.43,.23,.33,.08,.07,.19,.05,.35,.2,.04,.04,.03,.05,.03,.04,.07,.03h.03l.03-.02,.05-.05h.02s.07,.02,.07,.02h.04s.05,.04,.05,.04l.05,.11,.06,.03h.07s.05,.03,.05,.03l.03,.04v.08s.03-.01,.03-.01l.03,.02,.08,.09,.04-.05h0l.28,.37,.12,.05,.12,.03,.13,.07,.12,.1,.08,.12,.02,.08v.16s.05,.07,.05,.07l.07,.02,.2,.04,.04,.03,.03,.08,.18,.24,.07,.13v.07s.02,.16,.02,.16v.07s.12,.07,.12,.07l.02,.04v.04s-.04,.08-.04,.08v.05s0,.08,0,.08l.06,.1v.08s0,.1,0,.1v.05s0,.04,0,.04l.05,.09,.04,.05,.08,.05,.04,.05v.07s.01,.09,.01,.09v.07s.04,.03,.04,.03l.12,.08,.08,.18,.07,.21,.07,.15,.04,.04,.11,.06,.06,.06,.11,.27,.09,.12v.17s-.01,.27-.01,.27l-.03,.17-.1,.26-.03,.15v.18s.11,.41,.11,.41v.07l-.02,.11v.08s.03,.04,.03,.04l.08,.1,.02,.04,.02,.08,.12,.15,.08,.35,.02,.07,.11,.14,.11,.1,.08,.11,.04,.32,.1,.21,.04,.11v.1s0,.08,0,.08l.02,.07,.09,.1,.3,.23,.09,.09,.02,.05,.02,.07,.03,.07,.04,.03,.04,.02,.51,.36,.07,.1,.12-.06h.18s.16,.06,.16,.06l.1,.14,.15,.12,.05,.03,.04,.04,.1,.27,.2,.25,.13,.12,.22,.12,.3,.36,.24,.15,.58,.22,.41,.1,.45,.04,.07,.03,.06,.05,.03,.07-.06,.17,.04,.04,.07,.03,.06,.03,.3,.28,.19,.11,.57,.16h.18s.05,0,.05,0l.06,.04,.02,.05v.05s.05,.06,.05,.06l.32,.34,.28,.17,.08,.03,.05,.04,.18,.18,.09,.04,.08-.04,.06-.07h.06s.07,.12,.07,.12l.04-.02,.1-.03-.05,.15,.09,.06h.39s.35,.11,.35,.11l.25,.04,.16-.08,.09-.2,.04-.25h0l.06-.02,.02,.02,.04-.13,.03-.07,.05-.04,.26-.13,.05-.04h0l.06-.08,.19-.36,.08-.08,.04-.04h0l.14,.08,.04-.06,.3-.21,.18-.03,.07-.03h0l-.05-.08-.15-.11-.05-.07v-.09s.1-.29,.1-.29v-.13s.02-.08,.02-.08l.04-.05,.08-.06h.03s.03-.01,.03-.01h.05l.06-.03h0v-.03l-.05-.1v-.04s.07-.1,.07-.1v-.08s-.02-.09-.02-.09l-.02-.08,.02-.1,.04-.07,.04-.07,.21-.54h0l.06-.04h0s.04-.06,.04-.06l-.03-.1,.06-.03,.02-.03-.03-.1,.08-.03,.04-.04h0l.07-.12v-.02s.11-.2,.11-.2h.03s.03-.11,.03-.11l.19-.33,.02-.08v-.06s.03-.05,.03-.05l.05-.06h.29s.11-.02,.11-.02l.24-.12,.12-.04h.02s.03,.09,.03,.09l.03,.02h.04s.02-.02,.02-.02v-.02s.01,0,.01,0l.07-.05h0s.05-.09,.05-.09l.05-.02,.7,.07h0v-.03s.17-.23,.17-.23l.02-.07,.02-.2,.02-.07,.05-.05,.08-.02,.07-.03,.07-.13,.06-.04,.12,.04,.08,.08,.08,.07,.12-.03,.03,.14,.09,.04,.23,.03,.3,.17,.07,.07,.23,.11,.61-.05,.17,.04,.1-.09,.1,.03,.09,.08,.08,.04h.12s.05-.04,.05-.04l.04-.04,.05-.02h.07s.13,.05,.13,.05h.21l.08-.05h.04s.02,.08,.02,.08l.05,.04,1.05,.17,.34-.04,.1-.04,.07-.07h0s.03-.14,.03-.14l.02-.03h0l.04,.02,.05,.05,.02,.07v.03s-.07,.13-.07,.13l-.02,.06,.14,.04,.1-.05,.1-.08,.13-.04,.05,.02,.04,.09,.06,.04h.07s.07,0,.07,0l.07-.02,.05-.03-.03,.09,.02,.1,.04,.09,.1,.17,.04,.13,.07,.18,.04,.07,.05,.05,.08,.04h.17s.05,.04,.05,.04v.12s-.07,.16-.07,.16v.11s.06,.03,.06,.03l.12-.1,.16-.09,.16-.02,.1,.09v.19s-.05,.22-.05,.22l.02,.1,.07,.07h.07s.07,.03,.07,.03l.05,.04,.12,.16,.19,.1,.43,.14,.19,.07,.05,.13,.02,.21,.02,.1,.04,.08,.05,.07,.06,.06,.07,.04,.47,.22,.15,.14,.12,.16,.05,.04,.3,.15,.13,.1,.08,.11,.13,.25-.05,.16,.05,.1,.34,.29,.02,.04,.03,.04,.08,.02h.08s.06,.03,.06,.03l.05,.1,.05,.43,.13,.29,.02,.15-.05,.16,.04,.04,.03,.06v.08s.01,.09,.01,.09l.04,.05,.08,.05,.08,.08,.03,.12,.02,.03,.1,.05,.03,.02,.02,.06-.04,.09,.02,.05,.04,.02h.09s.04,.03,.04,.03l.03,.04,.03,.08,.03,.04,.04,.07,.16,.72,.08,.16,.24,.31v.13s.06,.05,.06,.05l.15,.08,.07,.05,.03,.07v.18s0,.08,0,.08l.09,.15,.13,.09,.27,.11h0l-.19,.1-.03,.06v.08s.06,.06,.06,.06l.05,.04,.02,.04,.03,.27,.06,.26,.19,.25,.1,.17v.12s-.04,.14-.04,.14l.06,.14,.12,.12,.11,.08,.18,.03,.04,.02,.02,.06v.1s.03,.1,.03,.1l.05,.04,.1,.02,.64,.33,.12,.12,.05,.17v.1s.02,.05,.02,.05l.09,.1,.09,.08,.05,.02v.04s-.02,.05-.02,.05v.05s.04,.12,.04,.12l.04,.1,.07,.09,.09,.12,.09,.03,.14,.03,.08,.06-.08,.11,.06,.1,.1,.14,.12,.12,.1,.04,.02,.03-.03,.08-.06,.12,.02,.08,.05,.04,.06,.03,.05,.07v.07s0,.16,0,.16v.07s.04,0,.04,0l.09,.08,.08,.08v.04s.16,.03,.16,.03l.08,.08,.06,.1,.08,.09,.07,.03,.12,.04,.04,.03,.03,.07,.02,.09,.02,.07,.05,.03,.12,.18,.03,.03h.24l.04,.04,.07,.13,.03,.03h.07l.14-.08,.08-.02,.07,.03,.08,.14,.04,.03,.11,.04,.13,.06,.13,.12,.06,.11v.3l-.02,.17v.08l.04,.03h.1s.05,.03,.05,.03l.03,.06,.02,.1v.31s-.02,.09-.02,.09l-.05,.17-.02,.15-.03,.09v.08s-.03,.07-.03,.07l-.11,.12h0s-.04,.08-.04,.08l.19,.07,.04,.03v.02s.02,.06,.02,.06l.02,.03,.07,.03,.02,.02,.09,.11,.07,.12,.05,.13v.14s-.01,.14-.01,.14l-.09,.32-.02,.15,.02,.03,.03,.04,.03,.05v.07s0,.06,0,.06l-.13,.24,.12,.17,.03,.04,.1,.08,.06,.03h.11s.04,.07,.04,.07l.02,.08v.15l.03,.08,.06,.06,.27,.21,.07,.1,.21,.26,.09,.12,.12,.12,.09,.12,.1,.32,.09,.35,.27,.78,.02,.12,.05,.37,.04,.17,.16,.07,.17,.04,.08,.1,.08,.2,.02,.09-.03,.09-.06,.09-.04,.09,.02,.08,.14,.11,.13,.02,.12-.02h.13s.03,.03,.03,.03l.04,.06,.04,.02h.04s.12-.06,.12-.06h.16s.06,.04,.06,.04l.06,.12,.1-.1,.25,.18,.15-.03,.06,.04,.07,.02h.06s.04-.06,.04-.06h0l.07,.04,.05-.02,.04-.03h.06s.04,.03,.04,.03l.1,.12,.23,.14,.07,.09-.03,.12h.09s.08,0,.08,0l.08,.03,.07,.07-.08,.1v.04s.07,0,.07,0l.05,.02,.14,.13,.08,.04,.09,.02,.39-.15,.19,.1,.21,.06,.19,.07,.14,.16,.09-.11,.02-.02,.19,.06,.21,.12,.18,.05-.05,.15v.08l.08,.02h.18l.04,.05,.16,.23,.07,.07,.52,.26,.25,.07h.23s.31-.08,.31-.08l.13,.03,.06,.18,.07,.03,.14-.05,.21-.11h.09s.38,.04,.38,.04l.42-.06h.51s.13,.03,.13,.03l.02,.11,.09,.03,.59,.02,.13,.03,.12,.06,.13,.09,.07,.1,.05,.12,.07,.1,.2,.08,.31,.3,.12,.08,.11,.04,.11,.02h.14l.05,.05,.04,.11,.07,.1,.14,.02,.03-.03h0v-.08h.07l.05,.04,.02,.05,.03,.05,.07,.02,.13-.06v-.14l-.05-.17-.02-.13,.02-.04h0l.15-.11,.12,.08,.15-.05,.04-.04,.08-.08h0l.02-.12h0l.09-.02h.32s.44-.03,.44-.03v-.07s-.02-.33-.02-.33l-.02-.21-.06-.2-.09-.02-.07,.05-.03,.11v.13s-.03,.12-.03,.12l-.04,.08-.06,.05-.16,.08-.04,.04v.03s-.03,.01-.03,.01l-.07-.03-.04-.03-.02-.04-.03-.12v-.1l.07-.18v-.13s.1,.04,.1,.04l.07-.02,.04-.07,.02-.11-.08-.03-.08-.02h-.26s-.07-.04-.07-.04l-.05-.03h-.04s-.08-.09-.08-.09l-.04-.2v-.22s.04-.15,.04-.15l-.1-.15-.03-.07-.02-.09,.03-.06,.04-.05,.02-.06-.04-.08-.05-.04h-.04s-.04,.03-.04,.03l-.06,.02-.05-.07v-.16s.03-.15,.03-.15l.06-.07,.04-.03-.03-.05-.05-.03-.03,.04-.02,.03-.03,.04-.04,.02h-.04l-.02-.05,.06-.15v-.06s-.05-.02-.05-.02h-.14s-.05-.03-.05-.03l-.04-.09v-.1s-.04-.08-.04-.08l-.12-.03h-.09l-.02-.03,.02-.07,.02-.21,.03-.11v-.07s-.22-.07-.22-.07l.18-.05,.06-.05,.03-.1,.02,.04,.05,.06,.02,.05-.05-.24-.16-.48-.08-.49-.17-.47-.05-.32-.04-.12-.05-.11-.08-.08-.11-.03h-.09l-.07-.02-.05-.09v-.1s0-.15,0-.15l.03-.14,.05-.07,.07,.03,.3,.27,.08-.15-.09-.09-.26-.11-.08-.09-.06-.1-.04-.13-.03-.31v-.08s.08-.03,.08-.03l.37-.04,.09-.07v-.13s-.09-.18-.09-.18l.07-.08-.04-.1-.07-.09v-.04s.11-.01,.11-.01l.1-.04,.08-.07,.05-.09-.02-.09-.05-.12-.02-.1,.06-.04,.03-.06v-.13s0-.14,0-.14l-.02-.08,.08-.03,.04-.08v-.1s-.03-.09-.03-.09l-.44,.15-.13,.09-.12,.06h-.17l-.33-.07-.14-.05-.11-.07-.1-.05-.16-.02-.33,.03-.14-.04-.09-.14h.16l.15,.03,.16,.02,.15-.06,.07-.1-.03-.08-.1-.03-.13,.06-.02-.03v-.02s-.02-.05-.02-.05l.13-.07-.08-.15-.24-.23h.09l-.07-.15-.23-.22-.03-.18,.21,.13,.17,.17,.54,.75,.02,.07v.07s.03,.04,.03,.04l.09,.02,.07-.02,.04-.03v-.05s-.02-.05-.02-.05l.12-.18,.06-.03,.04,.1,.1-.09,.05-.03,.07-.03-.05-.1,.08-.05,.15-.15,.13-.06-.02,.14v.14s.02,.08,.02,.08l.05,.03h.05s.01-.04,.01-.04l.05,.04h.03v.02l-.05,.07-.04,.03h-.07s-.13,0-.13,0l.03,.03v.03s.03,.02,.03,.02l.04,.02-.08,.08-.24,.13,.13,.09,.09-.03,.14-.16,.42-.19,.07-.05,.02-.17,.25-.77,.09-.12,.02-.08,.02-.14,.1-.33,.19-.38,.02-.06v-.16s.03-.08,.03-.08l.03-.06,.07-.1,.06-.12,.02-.12-.05-.09-.59-.24-.1-.1-.18-.2,.04-.06-.02-.07,.05-.22-.04-.12-.05,.07-.07,.04h-.08l-.06-.04-.22,.05-.15-.02-.12-.1-.11-.18,.1-.04h.03s.05,.01,.05,.01l.02,.03v.03s.02,.02,.02,.02l.04,.02,.05,.02h.05s.04,0,.04,0l.02-.07,.03-.03,.18-.02h.37s.17-.04,.17-.04l-.02,.05v.03s-.02,.03-.02,.03l-.04,.04,.17-.02,.26-.12,.15-.02,.12,.03,.09,.08,.09,.11,.08,.12h-.14s0,.06,0,.06l.17,.02,.14-.11,.5-.76,.23-.44v.02s.01,.02,.01,.02h.01s.03,0,.03,0l.11-.23,.04-.06,.07-.07v-.04s0-.04,0-.04v-.1s.02-.29,.02-.29l-.02-.08-.07-.05-.04,.02-.02,.02h-.01s.01,.03,.01,.03l.03,.03-.11,.13-.31,.14-.07,.12v.09s-.04,.1-.04,.1l-.04,.09-.05,.05-.08,.03v-.04l.03-.07v-.08l-.07-.1-.09-.08-.12-.05-.14-.02-.06-.07,.12-.16,.26-.28-.1-.03-.03-.07,.02-.08,.05-.06,.08-.02,.09,.02,.05,.06-.04,.07,.18-.04,.25-.12,.23-.15,.1-.16h.04l.04,.1-.03,.23,.04,.08-.02,.04-.02,.03-.02,.02-.02,.02,.24,.07,.07-.03,.09-.15,.06-.15,.03-.13-.02-.1-.09-.08,.15-.24,.09-.12h.08s.01,.1,.01,.1l-.06,.13-.03,.13,.09,.14-.09,.12-.05,.12-.07,.27,.11-.05,.21-.06,.1-.08,.22-.32,.1-.12,.23-.15,.07-.09-.13-.28,.02-.13,.06-.13,.03-.13-.1-.18-.2-.23-.13-.2,.1-.1,.09,.05,.14,.09,.13,.05,.05-.08-.02-.12-.05-.08-.16-.13-.05,.03-.02-.04,.02-.08,.05-.05,.05-.03,.06,.05,.12,.18,.03,.02,.08,.04,.03,.03,.02,.04v.07s.02,.06,.02,.06l.03,.03h.12s.06,.05,.06,.05l.02,.08,.02,.27,.04,.12,.07,.06,.11-.04,.12,.09,.7-.42,.1-.03,.22-.15,.13-.03,.46-.27-.03-.18-.19-.16-.25-.08-.2,.06-.07,.06-.11,.07h-.1s-.05-.12-.05-.12l.05-.02,.34-.18-.06-.14-.03-.05-.05-.05-.04-.04-.14-.06-.19-.12-.08-.03-.06,.07h-.05s-.06-.07-.06-.07v-.05l.03-.18v-.08s-.02-.07-.02-.07l-.03-.05-.19-.25-.05-.11-.03-.13v-.18s.07,.04,.07,.04l.03,.02,.03,.04,.08-.05h.09s.09,0,.09,0l.08,.06,.05,.07,.02,.05v.06s.04,.1,.04,.1v.06s.01,.05,.01,.05v.04s.04,.05,.04,.05h.03s.09,0,.09,0l.04,.02,.07,.02,.08-.02h.07s.03,.04,.03,.04l.06,.18,.24-.18,.06,.14-.04,.14-.09,.03-.12,.02-.1,.1,.2-.04,.23-.1,.37-.24-.23-.06-.09-.05,.02-.1,.02-.07-.02-.05-.03-.05v-.06s.02-.03,.02-.03l.04-.03,.04-.04,.02-.07-.02-.06-.05,.02-.05,.05-.05,.02-.04-.05-.05-.11-.04-.13v-.11s.03,0,.03,0l.03,.06,.12,.19,.03-.03,.06-.04,.04-.04,.09,.1,.04,.11-.02,.1-.06,.09,.03,.07,.2,.18,.04,.07v.05s.03,.02,.03,.02l.11-.04,.13-.09,.17-.22,.13-.07-.04,.1,.14-.1,.09-.04,.1-.02h.13l.05,.02-.03,.08-.14,.25-.03,.09,.03,.05,.13,.02,.09-.02,.08-.03,.09-.02h.11v.06h-.04l-.1,.09-.3,.04-.11,.07-.02,.11h.14l.3-.1,.38-.19,.13-.03,.08-.04,.25-.15,.13-.02,.13,.06,.04,.12-.02,.12-.07,.05-.14,.04-.92,.51-.22,.17-.15,.2,.19-.09,.41-.28,.37-.14,.38-.33,.67-.18,.42-.23,.75-.54-.23,.03-.25,.1-.88,.55-.02,.02-.04,.02h-.05s-.03,0-.03,0l-.03-.04v-.03s.02-.03,.02-.03v-.12s.03-.07,.03-.07v-.08s-.04-.09-.04-.09l.86-.36,.24-.04h.3s.29-.02,.29-.02l.29-.08,.28-.14,.73-.52,.42-.34,.12-.05,.14-.02,.07-.05,.34-.32,.34-.41,.18-.11,.45-.39,.04-.09v-.1s0-.12,0-.12l-.07-.31v-.16s.04-.17,.04-.17l-.09-.19-.05-.06,.12,.05h.1s.08,.05,.08,.05l.06,.14,.18-.12,.14-.12,.41-.51v-.08s0-.02,0-.02h.02s.05,0,.05,0h.02s.13-.11,.13-.11l.05-.07,.02-.09h.05l.1,.08,.09-.06,.07-.15,.02-.16,.04-.15,.12-.04,.14,.03,.1,.07,.02-.03h.02s.02-.02,.02-.02h.02s-.29-.13-.29-.13h-.09s-.07-.06-.07-.06l-.19-.3v.04h-.01s-.01,0-.01,0v.03l.03,.02v.06s-.16,0-.16,0l-.03-.1v-.12s-.13-.07-.13-.07v-.05l.09-.03,.09-.05,.07-.08,.04-.1-.48-.13-.22-.13,.04-.2,.07-.08,.09-.13,.03-.13-.22-.1-.04-.12,.03-.14,.12-.09-.03-.07-.04-.03h-.2s-.05-.05-.05-.05l-.1-.11,.03-.04h.38s.21,.11,.21,.11l.2,.16,.2,.08,.2-.15,.09-.25,.05-.24,.04-.07,.11-.07,.23-.11,.14-.09,.05-.02,.05,.03,.03,.14,.05,.03,.13,.02,.03,.08v.12s.06,.13,.06,.13l-.04,.17-.07,.36-.08,.27-.1,.25-.08,.12-.07,.03-.09,.02-.07,.03v.06s.04,.06,.04,.06l.07,.03h.08l.34-.06,.93-.33h.12l.1,.04,.1,.09,.13,.04,.09-.08,.05-.06v.1s-.03,.13-.03,.13l-.08,.07-.12,.02h-.32s-.06,.02-.06,.02l-.07,.05-.18,.21-.05,.03-.06,.04-.07,.03-.15,.03-.16,.09-.5,.54-.05,.1,.03,.07,.15,.02,.13-.07,.31-.42,.23-.18,2.01-1.03,.75-.33,.53-.34,.19-.1,.26-.09,.14-.03,.78-.02,.19,.04h.07s.09-.14,.09-.14l-.12-.22-.37-.39-.17-.26,.04-.27,.46-.75,.05-.14,.02-.14,.08-.04,.17-.02h.13s.12-.23,.12-.23l.35-.45-.05-.09v-.07s.08-.15,.08-.15l.03-.17v-.12s-.04-.1-.04-.1l-.02-.14-.02-.05-.07-.1-.02-.07v-.09s.06-.15,.06-.15v-.07s-.03-.17-.03-.17l-.1-.1-.1-.08-.05-.11-.04-.32,.02-.14,.08-.17,.15-.2,.04-.1v-.14s0-.05,0-.05l-.09-.22h0s-.01-.15-.01-.15l-.02-.04-.05-.03-.02-.03v-.15s.04-.13,.04-.13l.09-.1,.13-.04v-.08s.08-.37,.08-.37l.05-.12,.2-.18,.05-.11,.03-.36,.2-.44,.03-.13v-.07s0-.09,0-.09v-.08s-.05-.14-.05-.14v-.08s0-.08,0-.08l.06-.07,.09-.09,.04-.08v-.03s-.05-.09-.05-.09l-.05-.05-.11-.15-.07-.16,.09-.08,.06-.02,.17-.06,.04-.04,.02-.08-.03-.05Z"/>
  <g>
    <path d="M51.05,41.62v.98h-1.38v4.11h-1.24v-4.11h-1.37v-.98h3.99Z"/>
    <path d="M54.66,46.72l-1.07-1.58-.92,1.58h-1.41l1.63-2.62-1.68-2.47h1.46l1.04,1.53,.9-1.53h1.4l-1.61,2.56,1.71,2.53h-1.46Z"/>
  </g>
</svg>