<?xml version="1.0" encoding="utf-8"?>
<!-- Generator: Adobe Illustrator 26.5.0, SVG Export Plug-In . SVG Version: 6.00 Build 0)  -->
<svg version="1.1" xmlns="http://www.w3.org/2000/svg" xmlns:xlink="http://www.w3.org/1999/xlink" x="0px" y="0px"
	 viewBox="0 0 90 90" style="enable-background:new 0 0 90 90;" xml:space="preserve">
<style type="text/css">
	.st0{fill:#CECECE;stroke:#F9F9F9;stroke-width:0.025;stroke-linecap:round;stroke-linejoin:round;}
	.st1{display:none;fill:none;stroke:#47CCCC;stroke-width:0.5;stroke-linecap:round;stroke-linejoin:round;}
	.st2{fill:#CECECE;}
</style>
<g id="ALABAMA">
</g>
<g id="ALASKA">
</g>
<g id="ARIZONA">
</g>
<g id="ARKANSAS_1_">
</g>
<g id="CALIFORNIA">
</g>
<g id="COLORADO">
</g>
<g id="CONNECTICUT">
</g>
<g id="DELAWARE">
</g>
<g id="DC">
</g>
<g id="FLORIDA">
</g>
<g id="GEORGIA">
</g>
<g id="HAWAII">
</g>
<g id="IDAHO">
</g>
<g id="IOWA">
</g>
<g id="ILLINOIS">
</g>
<g id="INDIANA">
</g>
<g id="KANSAS">
</g>
<g id="KETUCKY">
</g>
<g id="LOUISANA">
</g>
<g id="MAINE">
</g>
<g id="MARYLAND">
</g>
<g id="MASSACHUSETTS">
</g>
<g id="MICHIGAN">
</g>
<g id="MINNESOTA">
</g>
<g id="MISSOURI">
</g>
<g id="MISSISSIPPI">
</g>
<g id="MONTANA">
</g>
<g id="NORTH_CAROLINA">
</g>
<g id="NORTH_DAKOTA">
</g>
<g id="NEBRASKA">
</g>
<g id="NEW_HAMPSHIRE">
</g>
<g id="NEW_JERSEY">
</g>
<g id="NEW_YORK">
</g>
<g id="NEW_MEXICO">
</g>
<g id="NEVADA">
</g>
<g id="OHIO">
</g>
<g id="OKLAHOMA">
</g>
<g id="OREGON">
</g>
<g id="PENNSYLVANIA">
</g>
<g id="RHODE_ISLAND">
</g>
<g id="SOUTH_CAROLINA">
</g>
<g id="SOUTH_DAKOTA">
</g>
<g id="TENNESSEE">
</g>
<g id="TEXAS">
</g>
<g id="UTAH">
	<path id="UT_1_" class="st0" d="M56.71,10.37l-0.1,0.88l-0.09,0.89l-0.09,0.88l-0.09,0.89l-0.1,0.89l-0.09,0.88l-0.09,0.9L56,17.47
		l-0.09,0.88l-0.1,0.89l-0.09,0.88l-0.09,0.9l-0.1,0.88l-0.09,0.89l-0.09,0.88l-0.09,0.9l0,0l0,0l0,0l0,0l0,0l0,0l0,0l1.39,0.14
		l1.39,0.13L59.45,25l1.39,0.13l1.39,0.14l1.39,0.13l1.39,0.13l1.39,0.13l1.39,0.12l1.39,0.13l1.39,0.12l1.38,0.12l1.4,0.12
		l1.38,0.12l1.4,0.12l1.38,0.12l-0.14,1.78l-0.14,1.79l-0.15,1.78l-0.15,1.79l-0.14,1.79l-0.15,1.78l-0.15,1.79l-0.14,1.79
		l-0.15,1.79l-0.14,1.79l-0.15,1.79l-0.15,1.79l-0.14,1.79l-0.15,1.79l-0.14,1.79l-0.15,1.8l-0.15,1.79l-0.14,1.79l-0.15,1.8
		l-0.15,1.79l-0.14,1.8l-0.15,1.8l-0.15,1.79l-0.14,1.8l-0.15,1.8l-0.15,1.8L73.57,75l-0.15,1.8l-0.15,1.8l-0.14,1.8l-0.15,1.8
		l-0.15,1.8l-1.81-0.15l-1.81-0.15l-1.81-0.16l-1.82-0.16l-1.81-0.16l-1.81-0.16l-1.81-0.16l-1.81-0.17l-1.81-0.17l-1.81-0.17
		l-1.81-0.17l-1.82-0.18l-1.81-0.18l-1.81-0.18l-1.8-0.19l-1.81-0.18l-1.81-0.19l-1.81-0.19l-1.81-0.19l-1.81-0.2l-1.8-0.21
		l-1.81-0.21l-1.81-0.2l-1.81-0.2l-1.8-0.22l-1.81-0.22l-1.81-0.22l-1.8-0.23l-1.81-0.22l-1.8-0.23l-1.81-0.23l-1.8-0.24l0.28-2.24
		l0.28-2.23l0.29-2.24l0.28-2.23l0.29-2.24l0.28-2.23l0.28-2.23L17.15,60l0.29-2.24l0.28-2.23l0.29-2.23l0.28-2.23l0.28-2.22
		l0.28-2.23l0.29-2.23l0.28-2.22l0.28-2.23L20,37.69l0.28-2.23l0.28-2.22l0.28-2.22l0.28-2.22l0.29-2.22l0.28-2.22l0.28-2.22
		l0.28-2.21l0.28-2.22l0.29-2.21l0.28-2.21l0.28-2.22l0.28-2.21l0.28-2.21l2.04,0.26l2.05,0.26l2.05,0.26l2.04,0.25l2.05,0.24
		l2.05,0.25l2.05,0.24l2.05,0.24l2.04,0.23l2.05,0.23l2.05,0.23l2.05,0.23l2.05,0.22l2.05,0.22l2.05,0.2L56.71,10.37L56.71,10.37z"
		/>
	<path id="UT_2_" class="st1" d="M56.71,10.37l-0.1,0.88l-0.09,0.89l-0.09,0.88l-0.09,0.89l-0.1,0.89l-0.09,0.88l-0.09,0.9L56,17.47
		l-0.09,0.88l-0.1,0.89l-0.09,0.88l-0.09,0.9l-0.1,0.88l-0.09,0.89l-0.09,0.88l-0.09,0.9l0,0l0,0l0,0l0,0l0,0l0,0l0,0l1.39,0.14
		l1.39,0.13L59.45,25l1.39,0.13l1.39,0.14l1.39,0.13l1.39,0.13l1.39,0.13l1.39,0.12l1.39,0.13l1.39,0.12l1.38,0.12l1.4,0.12
		l1.38,0.12l1.4,0.12l1.38,0.12l-0.14,1.78l-0.14,1.79l-0.15,1.78l-0.15,1.79l-0.14,1.79l-0.15,1.78l-0.15,1.79l-0.14,1.79
		l-0.15,1.79l-0.14,1.79l-0.15,1.79l-0.15,1.79l-0.14,1.79l-0.15,1.79l-0.14,1.79l-0.15,1.8l-0.15,1.79l-0.14,1.79l-0.15,1.8
		l-0.15,1.79l-0.14,1.8l-0.15,1.8l-0.15,1.79l-0.14,1.8l-0.15,1.8l-0.15,1.8L73.57,75l-0.15,1.8l-0.15,1.8l-0.14,1.8l-0.15,1.8
		l-0.15,1.8l-1.81-0.15l-1.81-0.15l-1.81-0.16l-1.82-0.16l-1.81-0.16l-1.81-0.16l-1.81-0.16l-1.81-0.17l-1.81-0.17l-1.81-0.17
		l-1.81-0.17l-1.82-0.18l-1.81-0.18l-1.81-0.18l-1.8-0.19l-1.81-0.18l-1.81-0.19l-1.81-0.19l-1.81-0.19l-1.81-0.2l-1.8-0.21
		l-1.81-0.21l-1.81-0.2l-1.81-0.2l-1.8-0.22l-1.81-0.22l-1.81-0.22l-1.8-0.23l-1.81-0.22l-1.8-0.23l-1.81-0.23l-1.8-0.24l0.28-2.24
		l0.28-2.23l0.29-2.24l0.28-2.23l0.29-2.24l0.28-2.23l0.28-2.23L17.15,60l0.29-2.24l0.28-2.23l0.29-2.23l0.28-2.23l0.28-2.22
		l0.28-2.23l0.29-2.23l0.28-2.22l0.28-2.23L20,37.69l0.28-2.23l0.28-2.22l0.28-2.22l0.28-2.22l0.29-2.22l0.28-2.22l0.28-2.22
		l0.28-2.21l0.28-2.22l0.29-2.21l0.28-2.21l0.28-2.22l0.28-2.21l0.28-2.21l2.04,0.26l2.05,0.26l2.05,0.26l2.04,0.25l2.05,0.24
		l2.05,0.25l2.05,0.24l2.05,0.24l2.04,0.23l2.05,0.23l2.05,0.23l2.05,0.23l2.05,0.22l2.05,0.22l2.05,0.2L56.71,10.37L56.71,10.37z"
		/>
</g>
<g id="VIRGINIA">
</g>
<g id="VERMONT">
</g>
<g id="WASHINGTON">
</g>
<g id="WISCONSIN">
</g>
<g id="WEST_VIRGINIA">
</g>
<g id="WYOMING">
</g>
</svg>
