<?xml version="1.0" encoding="UTF-8"?>
<svg id="UTAH" xmlns="http://www.w3.org/2000/svg" viewBox="0 0 90 90">
  <defs>
    <style>
      .cls-1 {
        fill: #e2e2e2;
        stroke: #f9f9f9;
        stroke-linecap: round;
        stroke-linejoin: round;
        stroke-width: .03px;
      }
    </style>
  </defs>
  <path id="UT" class="cls-1" d="M56.71,10.37l-.1,.88-.09,.89-.09,.88-.09,.89-.1,.89-.09,.88-.09,.9-.09,.88-.09,.88-.1,.89-.09,.88-.09,.9-.1,.88-.09,.89-.09,.88-.09,.9h0l1.39,.14,1.39,.13,1.38,.14,1.39,.13,1.39,.14,1.39,.13,1.39,.13,1.39,.13,1.39,.12,1.39,.13,1.39,.12,1.38,.12,1.4,.12,1.38,.12,1.4,.12,1.38,.12-.14,1.78-.14,1.79-.15,1.78-.15,1.79-.14,1.79-.15,1.78-.15,1.79-.14,1.79-.15,1.79-.14,1.79-.15,1.79-.15,1.79-.14,1.79-.15,1.79-.14,1.79-.15,1.8-.15,1.79-.14,1.79-.15,1.8-.15,1.79-.14,1.8-.15,1.8-.15,1.79-.14,1.8-.15,1.8-.15,1.8-.14,1.79-.15,1.8-.15,1.8-.14,1.8-.15,1.8-.15,1.8-1.81-.15-1.81-.15-1.81-.16-1.82-.16-1.81-.16-1.81-.16-1.81-.16-1.81-.17-1.81-.17-1.81-.17-1.81-.17-1.82-.18-1.81-.18-1.81-.18-1.8-.19-1.81-.18-1.81-.19-1.81-.19-1.81-.19-1.81-.2-1.8-.21-1.81-.21-1.81-.2-1.81-.2-1.8-.22-1.81-.22-1.81-.22-1.8-.23-1.81-.22-1.8-.23-1.81-.23-1.8-.24,.28-2.24,.28-2.23,.29-2.24,.28-2.23,.29-2.24,.28-2.23,.28-2.23,.28-2.23,.29-2.24,.28-2.23,.29-2.23,.28-2.23,.28-2.22,.28-2.23,.29-2.23,.28-2.22,.28-2.23,.29-2.22,.28-2.23,.28-2.22,.28-2.22,.28-2.22,.29-2.22,.28-2.22,.28-2.22,.28-2.21,.28-2.22,.29-2.21,.28-2.21,.28-2.22,.28-2.21,.28-2.21,2.04,.26,2.05,.26,2.05,.26,2.04,.25,2.05,.24,2.05,.25,2.05,.24,2.05,.24,2.04,.23,2.05,.23,2.05,.23,2.05,.23,2.05,.22,2.05,.22,2.05,.2,2.06,.22h0Z"/>
  <g>
    <path d="M43.94,46.38v2.94c0,.34,.08,.59,.23,.77,.15,.18,.37,.27,.66,.27s.51-.09,.66-.27c.15-.18,.23-.43,.23-.77v-2.94h1.23v2.94c0,.48-.09,.88-.28,1.21-.19,.33-.44,.58-.77,.74-.32,.17-.69,.25-1.1,.25s-.77-.08-1.08-.25c-.31-.16-.56-.41-.73-.74-.18-.33-.27-.74-.27-1.22v-2.94h1.22Z"/>
    <path d="M51.42,46.38v.98h-1.38v4.11h-1.24v-4.11h-1.37v-.98h3.99Z"/>
  </g>
</svg>