<?xml version="1.0" encoding="UTF-8"?>
<svg id="VERMONT" xmlns="http://www.w3.org/2000/svg" viewBox="0 0 90 90">
  <defs>
    <style>
      .cls-1 {
        fill: #e2e2e2;
        stroke: #f9f9f9;
        stroke-linecap: round;
        stroke-linejoin: round;
        stroke-width: .03px;
      }
    </style>
  </defs>
  <polygon id="VT" class="cls-1" points="28.04 13.68 26.84 13.98 26.49 14.08 24.44 14.61 23.55 14.83 23.55 14.81 22.95 15.2 23.22 15.65 23.35 15.95 23.4 16.25 23.32 16.6 23.2 16.73 23.08 16.75 23 16.83 23.05 17.32 23.27 18.47 23.2 19.4 23.25 19.99 23.37 20.57 23.57 20.92 24 21.17 24.3 21.44 24.37 21.84 24.22 22.49 24.07 22.66 23.92 22.69 23.77 22.76 23.67 23.09 23.7 23.49 23.77 23.59 23.95 23.66 24.35 24.01 24.52 24.14 24.67 24.34 24.74 24.66 24.67 24.91 24.49 24.91 24.35 24.78 24 24.31 23.7 24.31 23.5 24.63 23.52 25.31 23.85 26.13 23.87 26.61 23.57 27.01 23.8 27.25 23.95 27.5 24.02 27.8 24.02 28.05 24.17 28.03 24.25 28.45 24.49 29.1 24.82 29.65 25.07 29.87 25.64 29.95 25.89 30.37 25.84 30.92 25.52 31.4 26.12 32.05 26.34 32.44 26.34 32.89 26.27 33.32 26.29 33.76 26.42 34.19 26.67 34.56 26.54 34.01 26.52 33.29 26.62 32.72 26.89 32.64 27.01 32.99 27.39 34.74 27.49 34.84 27.64 34.99 27.81 35.21 28.26 36.26 28.56 37.16 28.74 37.58 28.99 37.91 29.34 38.28 28.09 40.5 27.54 41.03 28.04 42.07 27.99 45.49 28.43 46.79 28.51 46.44 28.74 46.11 28.91 46.04 29.14 46.21 29.16 46.26 29.24 46.64 29.26 47.29 29.68 48.96 29.93 49.51 30.28 50.03 30.71 50.45 30.93 50.75 31.08 51.1 31.1 51.5 31.03 52.15 31.05 52.53 31.25 52.85 31.93 53.27 32.18 53.52 32.28 53.8 32.5 54.8 32.6 54.62 32.6 54.87 32.1 58.34 32.1 58.64 32.15 59.01 32.33 59.71 32.48 60.09 32.68 60.41 32.93 60.68 33 60.76 33.08 60.76 33.15 60.71 33.4 60.53 33.62 60.26 33.7 60.11 33.77 59.96 33.8 59.76 33.77 59.16 33.8 58.98 33.87 58.81 33.97 58.69 34.1 58.59 34.25 58.49 34.43 58.44 34.6 58.39 35 58.39 35.2 58.41 35.37 58.54 35.52 58.69 36.14 59.73 36.42 59.96 36.57 60.01 36.84 60.19 37.1 60.38 37.24 61.08 37.29 61.33 37.44 61.98 37.67 63.03 37.97 64.37 38.34 65.95 38.74 67.72 39.16 69.61 40.04 73.53 40.46 75.43 40.86 77.22 41.21 78.8 41.51 80.14 41.73 81.19 41.88 81.86 41.96 82.09 42.01 82.44 42.08 82.99 42.08 84.18 42.71 85.16 43.23 85.95 46.87 85.18 48.1 84.93 49.32 84.68 50.54 84.43 51.74 84.16 52.96 83.91 54.18 83.66 55.38 83.38 56.6 83.14 57.82 82.89 59.04 82.61 60.24 82.36 61.46 82.09 62.69 81.84 62.69 81.81 62.29 80.94 61.64 80.39 60.32 79.62 60.02 79.32 59.82 79.04 59.62 78.7 59.45 78.22 59.32 77.65 59.35 77.22 59.42 76.85 59.5 76.35 59.32 74.93 59.35 74.33 59.72 73.98 60.24 73.63 60.34 73.03 60.07 71.56 60.05 69.66 59.92 68.92 59.57 68.12 59.47 67.74 59.27 66.4 59.4 66.17 59.47 66 59.47 65.8 59.42 65.6 59.32 65.52 59.24 65.47 59.19 65.4 59.14 64.97 59.17 64.62 59.27 64.27 59.45 63.93 59.6 63.25 59.47 62.53 59.07 61.33 57.87 55.87 57.8 55 57.92 54.47 58.57 53.5 58.77 52.85 58.82 52.18 58.7 50.8 58.5 49.68 58.57 49.31 59.09 48.63 59.3 48.13 60.27 46.69 60.42 46.11 60.44 45.44 60.42 44.72 60.29 44.02 60.27 43.32 60.44 42.57 61.46 40 61.46 39.75 61.27 39.63 60.99 39.48 60.82 39.23 60.84 38.7 61.41 36.66 61.49 35.56 61.32 34.31 60.59 31.54 60.37 29.87 60.59 28.6 61.32 27.7 62.47 27.15 63.66 26.91 64.21 26.65 64.58 26.23 65.14 25.06 65.41 24.63 67.18 22.81 67.75 22.41 67.88 22.06 68.13 21.29 68.78 20.42 69.07 19.74 68.95 19.17 68.75 18.62 68.75 17.97 68.95 17.75 69.25 17.67 69.52 17.55 69.65 17.17 69.57 16.87 69.32 16.58 68.9 16.23 67.71 14.61 67.48 14.16 67.15 13.63 66.7 13.31 66.36 12.86 66.23 12.03 66.53 10.76 67.25 8.94 67.93 7.22 67.95 6.4 67.6 5.95 67.15 5.57 66.8 4.88 66.65 4.03 66.8 3.65 67.18 3.43 64.81 4.05 62.44 4.7 60.07 5.33 57.7 5.97 55.33 6.6 52.96 7.22 50.59 7.85 48.22 8.47 45.85 9.09 43.46 9.72 41.08 10.34 38.71 10.94 33.97 12.19 31.58 12.78 29.39 13.33 29.21 13.38 28.43 13.58 28.04 13.68"/>
  <g>
    <path d="M41.73,36.5l1.25,3.83,1.25-3.83h1.32l-1.77,5.09h-1.59l-1.76-5.09h1.32Z"/>
    <path d="M49.67,36.5v.98h-1.38v4.11h-1.24v-4.11h-1.37v-.98h3.99Z"/>
  </g>
</svg>