<?xml version="1.0" encoding="UTF-8"?>
<svg id="VIRGINIA" xmlns="http://www.w3.org/2000/svg" viewBox="0 0 90 90">
  <defs>
    <style>
      .cls-1 {
        fill: #e2e2e2;
        stroke: #f9f9f9;
        stroke-linecap: round;
        stroke-linejoin: round;
        stroke-width: .03px;
      }
    </style>
  </defs>
  <path id="VA" class="cls-1" d="M84.37,57.72l-.14,.14,.1,.12v.02l.16-.04,.18-.04-.13-.33-.16,.12Zm-.83-8.59h-.08s.02,.1,.02,.1l.34-.11,.12-.22v-.33s-.11-.42-.11-.42l-.07,.02-.04,.24v.28s-.02,.27-.02,.27l-.16,.17Zm.95-2.72l.06-.29v-.3l-.08,.02-.06,.15-.15,.72v.07l.02,.1,.07-.02,.14-.45Zm1.23-8.18l-.28,.1-.43,.16-.49,.17-.33,.12-.42,.15-.24,.09-.05,.08-.04,.2-.04,.2,.11,.03-.1,.16-.15,.1-.31,.13-.21,.2-.2,.25,.02,.08,.24-.1h.31l.21,.11,.08,.17-.05,.12,.03,.11,.07,.11,.12,.1-.11,.05h-.24s-.07,.04-.07,.04l-.04,.14,.04,.15,.08,.12,.12,.09-.58,.21-.13-.03-.13-.07h-.12s-.08,.19-.08,.19l.25,.16,.04,.16-.1,.19-.17,.21,.02,.1,.21-.05,.04,.07-.27,.47v.11s.12,.18,.12,.18l-.23,.06-.18,.08-.12,.14-.07,.22,.2,.15-.11,.1-.2,.11-.16,.15,.15,.07v.11s-.07,.13-.07,.13l-.12,.14,.45,.09-.2,.18-.17,.23-.09,.31,.05,.37,.19-.14,.11,.05,.02,.14-.25,.2-.08,.2-.03,.24,.02,.22,.08-.02v-.09l.04-.02h.06l.02-.02,.02,.12-.04,.17-.08,.17-.15,.13,.09,.15v.25s-.11,.5-.11,.5l.09-.06,.05-.02,.15,.02-.13,.19-.1,.32,.05,.3,.26,.18,.02,.08-.02,.18,.35,.34,.13,.24,.12,.27,.15,.06,.15-.1,.09-.21v-.12l-.05-.46,.02-.14,.07-.15,.09-.08,.05,.04,.08,.55,.11,.14,.22-.17-.09-.12-.11-.27-.07-.1,.05-.25v-.31l-.16-1.15v-.15l.03-.15,.14-.35,.05-.17v-.1l-.04-.1-.07-.2v-.16s.14-.31,.14-.31l.03-.11,.11-.12,.75-.31-.11-.12-.14-.03h-.16s-.14,0-.14,0l.05-.2,.13-.23,.14-.12,.1,.14,.1,.21,.12,.12,.14,.1,.12,.14,.16-.24,.14-.31,.12-.34,.05-.31-.18-.07-.03-.34,.06-.41,.11-.41,.02-.48,.46-1.82,.29-.51,.03-.21-.15-.23,.16-.11v-.08s-.06-.08-.06-.08l-.06-.14-.08-.31-.03-.2,.02-.15,.12-.15,.14-.11,.11-.13v-.16s-.2,.08-.2,.08Zm1.47-.55l-.07,.03-.02,.08-.17,.35-.12,.33-.04,.16-.05,.44-.04,.12-.03,.15-.07,.1-.11,.07-.12,.04-.02,.06,.09,.09,.18,.16-.08,.07-.1,.06-.11,.03-.12,.02,.03,.1,.32-.1,.23-.32,.14-.42,.36-1.63-.1,.04Zm-3.74,17.09l-.43-1-.26-.29-.25,.03-.26,.15-.33,.08-.44-.08-.53,.07-1.05-.16-.35,.08-.17,.29,.07,.19,.13,.05,.07,.06-.1,.25v.14l.12,.14,.24,.22h-.17s-.19-.06-.19-.06l-.14-.12v-.15s-.26-.09-.26-.09l-.29-.02-.29,.05-.26,.11-.19,.17-.16,.2-.19,.17-.26,.09-.03-.1,.25-.27,.11-.17,.04-.13-.1-.15-.12-.12-.05-.12,.14-.15v-.09s-.71-.21-.71-.21l-.16-.1-.09-.03-.09-.02-.14,.02-.07-.04v-.08l.02-.03,.09-.1-.02-.08-.65-.04-.18-.06-.11-.16-.17-.77-.3-.71-.1-.12-.12,.09-.21,.4-.19,.08-.21-.1-.42-.32-.15-.05-.94,.19-.21-.04-.44-.2h-.24s-.11-.11-.11-.11l-.1-.24-.14-.22-.24-.05-.08,.07-.25,.32-.11,.09-.11-.07-.11-.11-.07-.06-.88,.18-.71-.12-.11,.06-.05-.03h-.11s-.12-.05-.12-.05l-.07-.16,.22-.32,.2,.17,.16,.04,.42-.11,.07,.02,.2,.08h.12l.1-.03,.19-.12,.12-.08,.1-.03,.09,.03,.12,.08,.05,.08,.11,.15,.11,.12,.02-.07,.05-.1,.26-.33,.1-.08h.14s.11,.09,.11,.09l.4,.43,.14,.2,.15,.11,.23-.08,.16-.19,.09-.15,.02-.13-.08-.34v-.13s.1-.12,.1-.12l.09,.22,.05,.29,.07,.24,.15,.08h.15s.41,.11,.41,.11h.18s.09,.04,.09,.04l.08,.1,.06,.12,.07,.09,.12,.05,.04-.08v-.13s.05-.1,.05-.1l.18-.1,.41-.12,.13-.12,.25,.12,.22,.24,.14,.32-.02,.38,.09,.08,.16,.14,.25,.18,.26,.12,.18-.05,1.07,.6,.16,.15,.22,.47,.15,.02,.15-.12,.23-.31,.12-.12,.17-.07,.25-.07,.17-.11,.1-.22,.03-.27v-.27s-.1-.36-.1-.36l-.12-.06-.39,.19-.18-.04,.1-.18,.2-.2,.11-.08-.11-.17-.24-.14-.34-.13v.15s-.13,0-.13,0l-.14-.09-.1-.11-.03-.12-.02-.16v-.14l.02-.03-.15-.13-.18,.03-.42,.17h-.22s-.27-.07-.27-.07l-.47-.18-.79-.43-.74-.58-.31-.35-.18-.17-.37-.13-.59-.66-.11-.04h-.12s-.11-.04-.11-.04l-.06-.08-.02-.14v-.13l.03-.1,.09-.06,.62,.41,.42,.51,.26,.23,.25,.07,.18,.08,.83,.87,.09,.05h.13l.11,.02,.13,.15,.32,.05,.45,.21,.21,.03,.77-.36,.03-.09-.09-.15-.12-.15-.11-.08h-.1s-.32,.09-.32,.09l-.02-.08,.27-.17,.04-.04-.04-.12-.07-.04h-.08s-.32-.15-.32-.15l-.07-.1,.02-.15,.08-.1,.11-.03h.12s.12,.04,.12,.04l-.06-.1-.07-.11-.1-.08h-.12s.07-.35,.07-.35l.22,.13,.43,.5,.19,.02,.13-.1,.12-.05,.07,.19,.53,.43,.12,.14h.06s-.05-.39-.05-.39l.09-.74-.08-.39-.13-.2-.12-.02-.12,.02-.12-.06-.03-.13,.07-.15,.12-.13,.1-.09-.02-.08-.35-.23h-.15v.29l-.07,.15-.24-.05-.39-.18h-.22l-.18-.07-.02-.11,.25-.15,.46-.14,.16-.11,.14-.18-.44-.05-.43,.05-.4-.05-.32-.33-.13,.11-.21,.05h-.64l-.18-.06-.17-.12-.2-.25-.14-.21-.04-.1-.02-.02-.13-.36-.09-.08-.34-.22-.12-.04h-.47s-.02-.03-.02-.03l-.02-.17-.02-.04h-.05s-.04,0-.04,0h-.04s-.13-.06-.13-.06l-.25-.03-.06-.05-.12-.14-.06-.02-.11-.08-.33-.38-.08-.13-.08-.23-.1-.1-.35-.06-.14-.05-.18-.11-.17-.13-.15-.26-.12-.05-.13-.03-.12-.06-.12-.11-.04-.07-.24-.69-.06-.07-.23-.16-.06-.06-.13-.1-.75-.03-.12-.07-.09-.09-.07-.12-.04-.16-.06-.09h-.08s-.12,.1-.12,.1l-.35,.02-.19-.04-.11-.13,.06-.14,.19-.02,.47,.02,.17,.05,.15,.15,.14,.18,.12,.13,.1-.04h.47l.17,.06,.14,.1,.26,.26,.43,.63,.11,.07,.46,.22,.22,.38,.68,.19,.23,.37,.5,.53,.16,.1,.14,.04,.13-.05,.1-.15,.03,.19,.08,.11,.1,.06,.11,.03,.1-.15,.08,.05,.07,.12,.07,.09,.36,.17,.06,.07,.13,.23,.45,.38,.17,.18,.03,.14,.12,.22,.15,.12,.15-.06v-.48s.07-.19,.07-.19l.17,.17,.05,.11,.12,.14,.1,.09h.04s.04-.07,.04-.07l.12,.06,.13,.11,.06,.06,.6,.09h.3s.13-.22,.13-.22l-.13,.04-.06-.08-.18-.16-.06-.12,.03-.1,.08-.07,.04-.09-.1-.16,.11,.02h.12l.12-.03,.08-.08-.05-.14-.38-.19-.12-.13v-.06s.08,0,.08,0h.08l.04-.03,.04-.18v-.13l-.02-.12-.08-.18-.3-.37-.12-.23,.08-.14,.17,.05,.4,.27,.18-.02,.07-.19-.02-.31-.12-.53-.11-.12-.2-.1-.23-.07-1-.15-.42-.17-.53-.08-.12-.05,.08-.03,.06-.07,.06-.03-.11-.08-.12-.06-.12-.04h-.12l-.35,.15-.06-.02-.05-.17-.02-.05,.1-.15v-.17s-.18-.14-.18-.14l-.4-.16-.28-.17-.06-.05-.04-.27-.05-.09-.1-.02-.12,.05-.19,.11-.12,.03-.09-.02-.09-.05-.1-.04h-.12l-.09,.1-.2,.19-.23,.12-.14-.12-.1-.14-.17-.07h-.2s-.21,.04-.21,.04h-.42s-.54-.07-.54-.07l-.43-.13-.2-.29v-.08s.02-.08,.02-.08l-.03-.1-.1-.09-.11-.04-.11-.03-.09-.04-.55-.39h-.06s-.11-.07-.11-.07l-.08-.07,.06-.05,.18-.03,.09-.03,.06-.06,.06-.2-.05-.21-.1-.19-.11-.12-.26-.09-.22,.15-.22,.24-.45,.26-.29,.31-.17,.1-.64,.22-.45-.04-.48,.05-.02-.09,.11-.05,.34-.05,.1-.07-.04-.1-.15-.13-.11-.12-.42-.29-.14-.13,.13-.12,.14,.06,.25,.22-.18-.45v-.57l.06-.5-.03-.24-.02-.1,.08-.05,.17-.17-.07-.05-.06-.08-.06-.02,.11-.16,.08-.21,.03-.23v-.2s.02-.2,.02-.2l.12-.13,.14-.03,.09,.11,.06,.2,.07,.09,.11-.03,.15-.12,.11-.12,.08-.14-.02-.12-.18-.06-.1-.12-.03-.15,.08-.15,.16-.07v.17s.08,.08,.08,.08l.08-.02v-.25s.09-.04,.09-.04h.11s.1-.08,.1-.08l.16-.17,.15-.09,.09-.13-.03-.32-.27-1.3-.03-.06-.08-.13-.05-.07-.25-.23h0l-.12-.11-.45-.23-.06-.05-.15-.13-.12-.07h-.32s-.37-.04-.37-.04h-.14l-.15-.04-.1-.15-.09-.19-.1-.16-.27-.18-.32-.1-.34-.03-.9,.1-.27-.08-.42-.29-.18-.11-.16-.13-.1-.18,.03-.23,.27-.36,.11-.22v-.26s-.16-.17-.16-.17l-.21-.05-.24-.02-.21-.09-.26-.28-.12-.08-.47-.02-.46-.08h-.19l-.5,.11-.21-.06v.06s-.05,.16-.05,.16l-.11,.55-.1,.42-.12,.63-.09,.4-.04,.17-.03,.16-.1-.06-.12-.06-.66-.34-.65-.34-.65-.34-.66-.33-.65-.34-.65-.34-.66-.34-.64-.34-.18-.09-.13,.1-.1,.25-.03,.13v.11l.03,.12,.14,.37,.03,.12v.15s0,.08,0,.08l-.02,.14-.1,.27-.22,.49-.02,.06v.07s0,.06,0,.06v.06s.03,.06,.03,.06l.02,.05,.04,.13v.07s0,.08,0,.08l-.03,.21v.16l.02,.07,.02,.06,.08,.17,.02,.06v.07s0,.05,0,.05l-.04,.08-.24,.46-.34,.38-.31,.55-.11,.3v.06s0,.05,0,.05l.02,.04,.02,.05v.05l-.03,.12-.19,.38-.06,.07-.08,.08-.14,.09-.11,.04-.08,.05-.05,.06-.04,.12-.06,.25-.06,.12-.04,.07-.07,.07-.21,.15-.08,.04-.06,.02h-.06s-.05-.03-.05-.03l-.04-.04-.04-.05-.04-.04-.04-.02h-.05s-.05,.05-.05,.05l-.16,.38-.22,.51-.27,.6-.2,.48-.05,.07-.05,.06h-.08s-.39-.18-.39-.18l-.49-.22-.34-.14h-.05s-.05,.07-.05,.07l-.31,.65-.06,.12-.02,.12v.07l-.02,.08-.03,.1-.12,.28-.03,.12v.08s.03,.73,.03,.73v.06s-.05,.06-.05,.06l-.07,.08-.13,.12-.09,.1-.09,.12-.06,.16-.03,.1v.09s-.03,.43-.03,.43v.04s0,.02,0,.02v.09l-.07,.46-.03,.14-.05,.12-.14,.28-.18,.39-.26,.56-.04,.05-.05,.04h-.08s-.66-.08-.66-.08l-.56-.07-.49-.07-.5-.07h-.03s-.02-.02-.02-.02v-.05s.03-.11,.03-.11v-.11s-.05-.06-.05-.06l-.52-.63-.04-.04-.04-.02h-.03s-.9-.16-.9-.16h-.07s-.05,.08-.05,.08l-.04,.11-.03,.23v.13s.02,.1,.02,.1l.02,.07v.08s0,.07,0,.07l-.03,.11-.13,.3v.22l.09,.53v.08s-.04,.09-.04,.09l-.12,.24-.03,.12-.04,.39-.03,.08-.1,.09-.17,.11-.04,.05-.02,.08-.02,.13-.04,.12-.08,.15-.04,.1v.12s.04,.08,.04,.08l.06,.12,.03,.06,.02,.06-.02,.09-.03,.09-.14,.21-.2,.19-.08,.11-.17,.31-.39,.52-.02,.07v.07s0,.11,0,.11l.05,.12v.09l-.1,.75-.16,.5-.22,.71-.25,.42-.44,.73-.35,.56-.28,.47-.35,.56v.05s-.04,.31-.04,.31l-.02,.1-.19,.59-.25,.75-.02,.13,.02,.05,.02,.03,.02,.02,.15,.1,.12,.06,.33,.1,.05,.04,.05,.07,.03,.12v.08s-.03,.07-.03,.07l-.09,.11-.18,.16-.16,.12-.06,.05-.07,.08-.09,.13-.03,.1v.09s0,.06,0,.06l.02,.06,.03,.05,.05,.04,.13,.06,.05,.05,.02,.13-.02,.08-.04,.07-1.12,.91-.26,.33-.05,.06-.06,.03h-.05s-.06,0-.06,0l-.05-.02-.05-.03-.04-.05-.03-.06v-.07s-.03-.11-.03-.11l-.02-.05-.02-.05-.05-.04h-.11s-.08,0-.08,0l-.23,.07-.23,.12-.38,.27-.45,.32-.41,.36-.41,.36-.04,.03-.08,.04h-.08s-.03-.04-.03-.04l-.03-.05-.04-.04-.05-.03h-.05s-.19-.02-.19-.02l-.05-.02-.03-.04-.02-.11-.02-.03-.04-.02h-.04s-.3-.02-.3-.02h-.09s-.1,.04-.1,.04l-.13,.08-.07,.07-.05,.06-.03,.08v.07s-.02,.08-.02,.08v.07s.02,.07,.02,.07l.03,.07,.2,.24,.02,.07v.1l-.04,.14-.05,.08-.04,.07-.61,.51-.07,.03h-.06l-.17-.1h-.08l-.1,.03-.26,.19-.09,.04-1.03,.32-.76,.58-.11,.05h-.03s-.03-.03-.03-.03l-.03-.04-.06-.08-.03-.05-.05-.03-.1-.06-.6-.25-.05-.03-.08-.06-.25-.25-.05-.04-.07-.03h-.09l-.13,.03-.08,.07-.04,.06-.02,.06-.04,.22-.03,.1-.04,.12-.1,.16-.08,.08-.07,.05-.39,.12-.15,.07-.08,.06-.06,.06-.43,.66-.07,.07-.07,.05-.24,.06-.64,.05-.12-.02-.29-.14-.39-.12-.06-.03-.1-.08-.17-.18-.05-.04-.05-.04-.07-.03-.06-.02-.1-.02h-.23s-.13,.04-.13,.04h-.14s-.04,0-.04,0l-.13-.05-.11-.08-.04-.04-.04-.05-.13-.22-.04-.05-.05-.05-.11-.07-.55-.26-.05-.04-.04-.05-.04-.06v-.07s-.03-.07-.03-.07v-.32s-.02-.07-.02-.07v-.07s-.04-.07-.04-.07l-.03-.06-.03-.05-.04-.04-.05-.03-.4-.17-.05-.04-.03-.05v-.06s0-.07,0-.07l.02-.05,.22-.23h0s0-.04,0-.04v-.12s0-.08,0-.08l-.02-.06-.04-.06-.04-.04-.11-.08-.49,.58-.76,.88-.54,.64-.85,.98-.77,.88-.22,.2-.68,.48-.75,.53-1,.7-.44,.42-.17,.21-.07,.14v.09s.08,.19,.08,.19l.06,.28v.15l-.02,.08-.03,.06-.03,.06-.1,.09-.84,.59-.22,.22-.09,.12-.04,.12,.03,.2,.02,.07,.03,.14v.19s0,.07,0,.07l-.02,.07v.07s-.04,.06-.04,.06l-.04,.06-.14,.11-.59,.34-.6,.35-.44,.08-.07,.03-.05,.04-.17,.25-.13,.44-.05,.12-.11,.15-.02,.05v.05l.04,.12v.07s0,.06,0,.06l-.06,.06-.08,.06-1.03,.33-1.01,.51-.37,.29-.12,.13-.07,.06-.11,.05-.98,.25-.86,.47-.07,.02-.19,.12-.39,.45,1.08-.15,1.08-.15,2.16-.32,1.08-.15,1.08-.16,1.08-.16,1.08-.16,1.08-.16,1.08-.16,1.08-.16,1.08-.16,1.07-.17,1.08-.16,1.08-.17,1.08-.16,.5-.09,.08-.05,.19-.23,.09-.04,.09-.02,.71-.09,.87-.12,.97-.12,.09,.13,.05,.03h.08s.23-.03,.23-.03l1.8-.29,1.81-.28,1.8-.3,1.8-.3,1.81-.29,1.8-.3,1.8-.31,1.8-.31,1.8-.31,1.8-.31,1.8-.32,1.8-.32,1.8-.32,1.8-.33,1.8-.33,1.8-.33,1.79-.33,1.8-.34,1.79-.34,1.8-.34,1.8-.35,1.79-.35,1.79-.35,1.8-.36,1.79-.36,1.79-.36,1.79-.36,1.8-.37,1.79-.37,1.79-.37,1.79-.37,1.51-.33,.27-.06-.06-.11-.07-.09-.07-.1-.05-.17,.43,.42,.47-.1-.02-.02-.23-.67-.15-1.33,.02-.14h.12s.13,.05,.13,.05l.09,.06,.1,.13,.41,.85,.07,.08,.15,.14,.07,.09,.03,.15v.15s0,.14,0,.14l.09,.15,.13-.03,.14-.03-.22-.5-1.55-2.53Z"/>
  <g>
    <path d="M51.6,48.72l1.25,3.83,1.25-3.83h1.32l-1.77,5.09h-1.59l-1.76-5.09h1.32Z"/>
    <path d="M59.04,52.88h-1.91l-.32,.93h-1.3l1.87-5.05h1.42l1.87,5.05h-1.31l-.32-.93Zm-.32-.94l-.63-1.87-.64,1.87h1.27Z"/>
  </g>
</svg>