<?xml version="1.0" encoding="utf-8"?>
<!-- Generator: Adobe Illustrator 26.5.0, SVG Export Plug-In . SVG Version: 6.00 Build 0)  -->
<svg version="1.1" xmlns="http://www.w3.org/2000/svg" xmlns:xlink="http://www.w3.org/1999/xlink" x="0px" y="0px"
	 viewBox="0 0 90 90" style="enable-background:new 0 0 90 90;" xml:space="preserve">
<style type="text/css">
	.st0{fill:#CECECE;stroke:#F9F9F9;stroke-width:0.025;stroke-linecap:round;stroke-linejoin:round;}
	.st1{display:none;fill:none;stroke:#47CCCC;stroke-width:0.5;stroke-linecap:round;stroke-linejoin:round;}
	.st2{fill:#CECECE;}
</style>
<g id="ALABAMA">
</g>
<g id="ALASKA">
</g>
<g id="ARIZONA">
</g>
<g id="ARKANSAS_1_">
</g>
<g id="CALIFORNIA">
</g>
<g id="COLORADO">
</g>
<g id="CONNECTICUT">
</g>
<g id="DELAWARE">
</g>
<g id="DC">
</g>
<g id="FLORIDA">
</g>
<g id="GEORGIA">
</g>
<g id="HAWAII">
</g>
<g id="IDAHO">
</g>
<g id="IOWA">
</g>
<g id="ILLINOIS">
</g>
<g id="INDIANA">
</g>
<g id="KANSAS">
</g>
<g id="KETUCKY">
</g>
<g id="LOUISANA">
</g>
<g id="MAINE">
</g>
<g id="MARYLAND">
</g>
<g id="MASSACHUSETTS">
</g>
<g id="MICHIGAN">
</g>
<g id="MINNESOTA">
</g>
<g id="MISSOURI">
</g>
<g id="MISSISSIPPI">
</g>
<g id="MONTANA">
</g>
<g id="NORTH_CAROLINA">
</g>
<g id="NORTH_DAKOTA">
</g>
<g id="NEBRASKA">
</g>
<g id="NEW_HAMPSHIRE">
</g>
<g id="NEW_JERSEY">
</g>
<g id="NEW_YORK">
</g>
<g id="NEW_MEXICO">
</g>
<g id="NEVADA">
</g>
<g id="OHIO">
</g>
<g id="OKLAHOMA">
</g>
<g id="OREGON">
</g>
<g id="PENNSYLVANIA">
</g>
<g id="RHODE_ISLAND">
</g>
<g id="SOUTH_CAROLINA">
</g>
<g id="SOUTH_DAKOTA">
</g>
<g id="TENNESSEE">
</g>
<g id="TEXAS">
</g>
<g id="UTAH">
</g>
<g id="VIRGINIA">
	<path id="VA_1_" class="st0" d="M84.37,57.72l-0.14,0.14l0.1,0.12v0.02l0.16-0.04l0.18-0.04l-0.13-0.33L84.37,57.72z M83.54,49.14
		l-0.08,0.01l0.02,0.09l0.34-0.11l0.12-0.22l-0.01-0.33l-0.1-0.42l-0.07,0.02l-0.04,0.24l0.01,0.28l-0.03,0.27L83.54,49.14z
		 M84.49,46.42l0.06-0.29v-0.3l-0.08,0.02l-0.06,0.15l-0.15,0.72v0.07l0.02,0.1l0.07-0.02L84.49,46.42z M85.72,38.24l-0.28,0.1
		l-0.43,0.16l-0.49,0.17l-0.33,0.12l-0.42,0.15l-0.24,0.09l-0.05,0.08l-0.04,0.2l-0.04,0.2l0.11,0.03l-0.1,0.16l-0.15,0.1
		l-0.31,0.13l-0.21,0.2l-0.2,0.25l0.02,0.08l0.24-0.1h0.31l0.21,0.11l0.08,0.17l-0.05,0.12l0.03,0.11l0.07,0.11l0.12,0.1l-0.11,0.05
		l-0.24,0.01l-0.07,0.03l-0.04,0.14l0.04,0.15l0.08,0.12l0.12,0.09l-0.58,0.21l-0.13-0.03l-0.13-0.07l-0.12,0.01l-0.08,0.18
		l0.25,0.16l0.04,0.16l-0.1,0.19l-0.17,0.21l0.02,0.1l0.21-0.05l0.04,0.07l-0.27,0.47l0.01,0.11l0.11,0.18l-0.23,0.06l-0.18,0.08
		l-0.12,0.14l-0.07,0.22l0.2,0.15l-0.11,0.1l-0.2,0.11l-0.16,0.15l0.15,0.07l0.01,0.11l-0.08,0.13l-0.12,0.14l0.45,0.09l-0.2,0.18
		l-0.17,0.23l-0.09,0.31l0.05,0.37l0.19-0.14l0.11,0.05l0.02,0.14l-0.25,0.2l-0.08,0.2l-0.03,0.24l0.02,0.22l0.08-0.02v-0.09
		l0.04-0.02h0.06l0.02-0.02l0.02,0.12l-0.04,0.17l-0.08,0.17l-0.15,0.13l0.09,0.15l-0.01,0.25l-0.1,0.5l0.09-0.06l0.05-0.02
		l0.15,0.02l-0.13,0.19l-0.1,0.32l0.05,0.3l0.26,0.18l0.02,0.08l-0.02,0.18l0.35,0.34l0.13,0.24l0.12,0.27l0.15,0.06l0.15-0.1
		l0.09-0.21v-0.12l-0.05-0.46l0.02-0.14l0.07-0.15l0.09-0.08l0.05,0.04l0.08,0.55l0.11,0.14l0.22-0.17l-0.09-0.12l-0.11-0.27
		l-0.07-0.1l0.05-0.25v-0.31l-0.16-1.15v-0.15l0.03-0.15l0.14-0.35l0.05-0.17v-0.1l-0.04-0.1l-0.07-0.2l0.01-0.16l0.13-0.31
		l0.03-0.11l0.11-0.12l0.75-0.31l-0.11-0.12l-0.14-0.03l-0.16,0.01l-0.14-0.02l0.05-0.2l0.13-0.23l0.14-0.12l0.1,0.14l0.1,0.21
		l0.12,0.12l0.14,0.1l0.12,0.14l0.16-0.24l0.14-0.31l0.12-0.34L85,44.28l-0.18-0.07l-0.03-0.34l0.06-0.41l0.11-0.41l0.02-0.48
		l0.46-1.82l0.29-0.51l0.03-0.21l-0.15-0.23l0.16-0.11l0.01-0.08l-0.07-0.08l-0.06-0.14l-0.08-0.31l-0.03-0.2l0.02-0.15l0.12-0.15
		l0.14-0.11l0.11-0.13l-0.01-0.16L85.72,38.24z M87.2,37.69l-0.07,0.03l-0.02,0.08l-0.17,0.35l-0.12,0.33l-0.04,0.16l-0.05,0.44
		l-0.04,0.12l-0.03,0.15l-0.07,0.1l-0.11,0.07l-0.12,0.04l-0.02,0.06l0.09,0.09l0.18,0.16l-0.08,0.07l-0.1,0.06L86.33,40l-0.12,0.02
		l0.03,0.1l0.32-0.1l0.23-0.32l0.14-0.42l0.36-1.63L87.2,37.69z M83.46,54.78l-0.43-1l-0.26-0.29l-0.25,0.03l-0.26,0.15l-0.33,0.08
		l-0.44-0.08l-0.53,0.07l-1.05-0.16l-0.35,0.08l-0.17,0.29l0.07,0.19l0.13,0.05l0.07,0.06l-0.1,0.25v0.14l0.12,0.14L79.93,55
		l-0.17,0.01l-0.19-0.07l-0.14-0.12l-0.01-0.15l-0.25-0.09l-0.29-0.02l-0.29,0.05l-0.26,0.11l-0.19,0.17l-0.16,0.2l-0.19,0.17
		l-0.26,0.09l-0.03-0.1l0.25-0.27l0.11-0.17l0.04-0.13l-0.1-0.15l-0.12-0.12l-0.05-0.12l0.14-0.15l-0.01-0.09l-0.7-0.21l-0.16-0.1
		l-0.09-0.03l-0.09-0.02l-0.14,0.02l-0.07-0.04v-0.08l0.02-0.03l0.09-0.1l-0.02-0.08l-0.65-0.04l-0.18-0.06l-0.11-0.16l-0.17-0.77
		l-0.3-0.71l-0.1-0.12l-0.12,0.09l-0.21,0.4l-0.19,0.08l-0.21-0.1l-0.42-0.32l-0.15-0.05l-0.94,0.19l-0.21-0.04l-0.44-0.2
		l-0.24-0.01l-0.11-0.1l-0.1-0.24L71.58,51l-0.24-0.05l-0.08,0.07l-0.25,0.32l-0.11,0.09l-0.11-0.07l-0.11-0.11l-0.07-0.06
		l-0.88,0.18l-0.71-0.12l-0.11,0.06l-0.05-0.03l-0.11-0.01l-0.12-0.04l-0.07-0.16l0.22-0.32l0.2,0.17l0.16,0.04l0.42-0.11l0.07,0.02
		l0.2,0.08h0.12l0.1-0.03l0.19-0.12l0.12-0.08l0.1-0.03l0.09,0.03l0.12,0.08l0.05,0.08l0.11,0.15l0.11,0.12L71,51.08l0.05-0.1
		l0.26-0.33l0.1-0.08l0.14,0.01l0.11,0.08l0.4,0.43l0.14,0.2l0.15,0.11l0.23-0.08l0.16-0.19l0.09-0.15l0.02-0.13l-0.08-0.34
		l0.01-0.13l0.09-0.12l0.09,0.22L73,50.78l0.07,0.24l0.15,0.08l0.15,0.01l0.41,0.1l0.18,0.01l0.09,0.03l0.08,0.1l0.06,0.12
		l0.07,0.09l0.12,0.05l0.04-0.08l0.01-0.13l0.04-0.1l0.18-0.1l0.41-0.12l0.13-0.12l0.25,0.12l0.22,0.24l0.14,0.32l-0.02,0.38
		l0.09,0.08l0.16,0.14l0.25,0.18l0.26,0.12l0.18-0.05l1.07,0.6l0.16,0.15l0.22,0.47l0.15,0.02l0.15-0.12l0.23-0.31l0.12-0.12
		L79,53.12l0.25-0.07l0.17-0.11l0.1-0.22l0.03-0.27l-0.01-0.27l-0.09-0.36l-0.12-0.06l-0.39,0.19l-0.18-0.04l0.1-0.18l0.2-0.2
		l0.11-0.08l-0.11-0.17l-0.24-0.14l-0.34-0.13l-0.01,0.15l-0.12-0.01l-0.14-0.09l-0.1-0.11l-0.03-0.12l-0.02-0.16v-0.14l0.02-0.03
		l-0.15-0.13l-0.18,0.03l-0.42,0.17l-0.22-0.01l-0.27-0.06l-0.47-0.18l-0.79-0.43l-0.74-0.58l-0.31-0.35l-0.18-0.17l-0.37-0.13
		L73.39,48l-0.11-0.04l-0.12-0.01l-0.11-0.03L73,47.85l-0.02-0.14v-0.13l0.03-0.1l0.09-0.06l0.62,0.41l0.42,0.51l0.26,0.23
		l0.25,0.07l0.18,0.08l0.83,0.87l0.09,0.05h0.13l0.11,0.02l0.13,0.15l0.32,0.05l0.45,0.21l0.21,0.03l0.77-0.36l0.03-0.09l-0.09-0.15
		l-0.12-0.15l-0.11-0.08l-0.1-0.01l-0.32,0.1l-0.02-0.08l0.27-0.17l0.04-0.04l-0.04-0.12l-0.07-0.04l-0.08-0.01l-0.32-0.15
		l-0.07-0.1l0.02-0.15l0.08-0.1l0.11-0.03l0.12,0.01l0.12,0.03l-0.06-0.1l-0.07-0.11l-0.1-0.08l-0.12-0.01l0.07-0.34l0.22,0.13
		l0.43,0.5l0.19,0.02l0.13-0.1l0.12-0.05l0.07,0.19l0.53,0.43l0.12,0.14l0.06-0.01l-0.05-0.39l0.09-0.74l-0.08-0.39l-0.13-0.2
		l-0.12-0.02l-0.12,0.02l-0.12-0.06l-0.03-0.13l0.07-0.15l0.12-0.13l0.1-0.09l-0.02-0.08l-0.35-0.23l-0.15,0.01v0.28l-0.07,0.15
		l-0.24-0.05l-0.39-0.18H77.2l-0.18-0.07L77,46.5l0.25-0.15l0.46-0.14l0.16-0.11l0.14-0.18l-0.44-0.05l-0.43,0.05l-0.4-0.05
		l-0.32-0.33l-0.13,0.11l-0.21,0.05h-0.64l-0.18-0.06l-0.17-0.12l-0.2-0.25l-0.14-0.21l-0.04-0.1l-0.02-0.02l-0.13-0.36l-0.09-0.08
		l-0.34-0.22l-0.12-0.04l-0.47,0.01l-0.02-0.04l-0.02-0.17l-0.02-0.04L73.43,44l-0.04,0.02l-0.04,0.01l-0.13-0.07l-0.25-0.03
		l-0.06-0.05l-0.12-0.14l-0.06-0.02l-0.11-0.08l-0.33-0.38l-0.08-0.13l-0.08-0.23l-0.1-0.1l-0.35-0.06l-0.14-0.05l-0.18-0.11
		l-0.17-0.13l-0.15-0.26l-0.12-0.05l-0.13-0.03l-0.12-0.06l-0.12-0.11l-0.04-0.07l-0.24-0.69l-0.06-0.07l-0.23-0.16l-0.06-0.06
		l-0.13-0.1l-0.75-0.03l-0.12-0.07l-0.09-0.09l-0.07-0.12l-0.04-0.16l-0.06-0.09l-0.08,0.01l-0.12,0.09l-0.35,0.02l-0.19-0.04
		l-0.11-0.13l0.06-0.14l0.19-0.02l0.47,0.02l0.17,0.05l0.15,0.15l0.14,0.18l0.12,0.13l0.1-0.04h0.47l0.17,0.06l0.14,0.1l0.26,0.26
		l0.43,0.63l0.11,0.07l0.46,0.22l0.22,0.38l0.68,0.19l0.23,0.37l0.5,0.53l0.16,0.1l0.14,0.04l0.13-0.05l0.1-0.15l0.03,0.19
		l0.08,0.11l0.1,0.06l0.11,0.03l0.1-0.15l0.08,0.05l0.07,0.12l0.07,0.09l0.36,0.17l0.06,0.07l0.13,0.23l0.45,0.38l0.17,0.18
		l0.03,0.14l0.12,0.22l0.15,0.12l0.15-0.06l0.01-0.48l0.06-0.19l0.17,0.17L76,44.84l0.12,0.14l0.1,0.09l0.04,0.01l0.04-0.08
		l0.12,0.06l0.13,0.11l0.06,0.06l0.6,0.09l0.3-0.01l0.13-0.21l-0.13,0.04l-0.06-0.08l-0.18-0.16l-0.06-0.12l0.03-0.1l0.08-0.07
		l0.04-0.09l-0.1-0.16l0.11,0.02h0.12l0.12-0.03l0.08-0.08l-0.05-0.14l-0.38-0.19l-0.12-0.13l0.01-0.06l0.07-0.01h0.08l0.04-0.03
		l0.04-0.18v-0.13l-0.02-0.12l-0.08-0.18l-0.3-0.37l-0.12-0.23l0.08-0.14l0.17,0.05l0.4,0.27l0.18-0.02l0.07-0.19l-0.02-0.31
		l-0.12-0.53l-0.11-0.12l-0.2-0.1l-0.23-0.07l-1-0.15L75.63,41l-0.53-0.08l-0.12-0.05l0.08-0.03l0.06-0.07l0.06-0.03l-0.11-0.08
		l-0.12-0.06l-0.12-0.04H74.7l-0.35,0.15l-0.06-0.02l-0.05-0.17l-0.02-0.05l0.1-0.15l-0.01-0.17l-0.17-0.14l-0.4-0.16l-0.28-0.17
		l-0.06-0.05l-0.04-0.27l-0.05-0.09l-0.1-0.02l-0.12,0.05l-0.19,0.11l-0.12,0.03l-0.09-0.02l-0.09-0.05l-0.1-0.04h-0.12l-0.09,0.1
		l-0.2,0.19l-0.23,0.12l-0.14-0.12l-0.1-0.14l-0.17-0.07l-0.2,0.01l-0.21,0.03l-0.42,0.01l-0.54-0.08l-0.43-0.13l-0.2-0.29
		l0.01-0.08l0.01-0.08l-0.03-0.1l-0.1-0.09l-0.11-0.04l-0.11-0.03l-0.09-0.04l-0.55-0.39l-0.06-0.01l-0.11-0.06l-0.08-0.07
		l0.06-0.05l0.18-0.03l0.09-0.03l0.06-0.06l0.06-0.2l-0.05-0.21l-0.1-0.19l-0.11-0.12l-0.26-0.09L68,37.19l-0.22,0.24l-0.45,0.26
		L67.04,38l-0.17,0.1l-0.64,0.22l-0.45-0.04l-0.48,0.05l-0.02-0.09l0.11-0.05l0.34-0.05l0.1-0.07l-0.04-0.1l-0.15-0.13l-0.11-0.12
		l-0.42-0.29l-0.14-0.13l0.13-0.12l0.14,0.06l0.25,0.22l-0.18-0.45v-0.57l0.06-0.5l-0.03-0.24l-0.02-0.1l0.08-0.05l0.17-0.17
		l-0.07-0.05l-0.06-0.08l-0.06-0.02l0.11-0.16l0.08-0.21l0.03-0.23l-0.01-0.2l0.03-0.2l0.12-0.13l0.14-0.03l0.09,0.11l0.06,0.2
		l0.07,0.09l0.11-0.03l0.15-0.12l0.11-0.12l0.08-0.14l-0.02-0.12l-0.18-0.06l-0.1-0.12l-0.03-0.15l0.08-0.15l0.16-0.07l0.01,0.17
		l0.07,0.08l0.08-0.02l0.01-0.25l0.08-0.04l0.11-0.01l0.1-0.07l0.16-0.17l0.15-0.09l0.09-0.13l-0.03-0.32l-0.27-1.3l-0.03-0.06
		l-0.08-0.13L66.82,31l-0.25-0.23h0.01l0,0l-0.12-0.11l-0.45-0.23l-0.06-0.05l-0.15-0.13l-0.12-0.07l-0.32,0.01l-0.37-0.05h-0.14
		l-0.15-0.04l-0.1-0.15l-0.09-0.19l-0.1-0.16l-0.27-0.18l-0.32-0.1l-0.34-0.03l-0.9,0.1l-0.27-0.08l-0.42-0.29l-0.18-0.11
		l-0.16-0.13l-0.1-0.18l0.03-0.23l0.27-0.36l0.11-0.22l-0.01-0.26l-0.15-0.17l-0.21-0.05l-0.24-0.02l-0.21-0.09l-0.26-0.28
		l-0.12-0.08l-0.47-0.02l-0.46-0.08h-0.19l-0.5,0.11l-0.21-0.06l-0.01,0.06l-0.04,0.16l-0.11,0.55l-0.1,0.42l-0.12,0.63l-0.09,0.4
		l-0.04,0.17l-0.03,0.16l-0.1-0.06l-0.12-0.06L57.4,28.9l-0.65-0.34l-0.65-0.34l-0.66-0.33l-0.65-0.34l-0.65-0.34l-0.66-0.34
		l-0.64-0.34l-0.18-0.09l-0.13,0.1l-0.1,0.25l-0.03,0.13v0.11l0.03,0.12l0.14,0.37l0.03,0.12l0.01,0.15v0.08l-0.02,0.14l-0.1,0.27
		l-0.22,0.49l-0.02,0.06l-0.01,0.07v0.06l0.01,0.06l0.02,0.06l0.02,0.05l0.04,0.13l0.01,0.07v0.08l-0.03,0.21v0.08v0.09l0.02,0.07
		l0.02,0.06l0.08,0.17l0.02,0.06l0.01,0.07l-0.01,0.05l-0.04,0.08l-0.24,0.46l-0.34,0.38l-0.31,0.55l-0.11,0.3l-0.01,0.06v0.05
		l0.02,0.04l0.02,0.05v0.05l-0.03,0.12l-0.19,0.38l-0.06,0.07l-0.08,0.08l-0.14,0.09l-0.11,0.04l-0.08,0.05l-0.05,0.06l-0.04,0.12
		l-0.06,0.25l-0.06,0.12l-0.04,0.07l-0.07,0.07l-0.21,0.15l-0.08,0.04l-0.06,0.02l-0.06-0.01l-0.05-0.02l-0.04-0.04l-0.04-0.05
		l-0.04-0.04l-0.04-0.02l-0.05,0.01l-0.05,0.04l-0.16,0.38l-0.22,0.51l-0.27,0.6l-0.2,0.48l-0.05,0.07l-0.05,0.06l-0.08-0.01
		l-0.39-0.17l-0.49-0.22l-0.34-0.14l-0.05,0.01l-0.05,0.06L47.1,36.1l-0.06,0.12l-0.02,0.12v0.07l-0.02,0.08l-0.03,0.1l-0.12,0.28
		l-0.03,0.12l-0.01,0.08l0.04,0.73l-0.01,0.06L46.8,37.9l-0.07,0.08l-0.13,0.12l-0.09,0.1l-0.09,0.12l-0.06,0.16l-0.03,0.1
		l-0.01,0.09l-0.02,0.43l-0.01,0.04v0.02v0.06v0.03l-0.07,0.46l-0.03,0.14l-0.05,0.12l-0.14,0.28l-0.18,0.39l-0.26,0.56l-0.04,0.05
		l-0.05,0.04l-0.08,0.01l-0.66-0.09l-0.56-0.07l-0.49-0.07l-0.5-0.07L43.17,41l-0.02-0.01l0.01-0.05l0.02-0.11v-0.05v-0.04
		l-0.01-0.02l-0.04-0.06l-0.52-0.63l-0.04-0.04l-0.04-0.02l-0.03-0.01l-0.9-0.15l-0.07,0.01L41.5,39.9l-0.04,0.11l-0.03,0.23
		l0.01,0.13l0.01,0.1l0.02,0.07l0.01,0.08l-0.01,0.07l-0.03,0.11l-0.13,0.3v0.03v0.19l0.09,0.53l-0.01,0.08l-0.03,0.09l-0.12,0.24
		l-0.03,0.12l-0.04,0.39l-0.03,0.08l-0.1,0.09l-0.17,0.11l-0.04,0.05l-0.02,0.08l-0.02,0.13l-0.04,0.12l-0.08,0.15l-0.04,0.1
		l0.01,0.12l0.03,0.08l0.06,0.12l0.03,0.06l0.02,0.06l-0.02,0.09l-0.03,0.09l-0.14,0.21l-0.2,0.19l-0.08,0.11l-0.17,0.31l-0.39,0.52
		l-0.02,0.07l-0.01,0.07l0.02,0.11l0.05,0.12v0.09l-0.1,0.75l-0.16,0.5l-0.22,0.71l-0.25,0.42l-0.44,0.73l-0.35,0.56L38,50.17
		l-0.35,0.56l-0.01,0.05l-0.03,0.31l-0.02,0.1l-0.19,0.59l-0.25,0.75l-0.02,0.13l0.02,0.05l0.02,0.03l0.02,0.02l0.15,0.1l0.12,0.06
		l0.33,0.1l0.05,0.04l0.05,0.07l0.03,0.12L37.9,53.3l-0.02,0.07l-0.09,0.11l-0.18,0.16l-0.16,0.12L37.4,53.8l-0.07,0.08L37.24,54
		l-0.03,0.1l-0.01,0.09l0.01,0.06l0.02,0.06l0.03,0.05l0.05,0.04l0.13,0.06l0.05,0.05l0.02,0.13L37.5,54.7l-0.04,0.07l-1.12,0.91
		l-0.26,0.33l-0.05,0.06l-0.06,0.03l-0.05,0.01h-0.06l-0.05-0.02l-0.05-0.03l-0.04-0.05l-0.03-0.06l-0.01-0.07l-0.02-0.11
		l-0.02-0.05l-0.02-0.05l-0.05-0.04l-0.11-0.01l-0.08,0.01l-0.23,0.07l-0.23,0.12l-0.38,0.27l-0.45,0.32l-0.41,0.36l-0.41,0.36
		l-0.04,0.03l-0.08,0.04h-0.04l-0.04-0.01l-0.03-0.03l-0.03-0.05l-0.04-0.04l-0.05-0.03l-0.05-0.01l-0.19-0.01l-0.05-0.02
		l-0.03-0.04l-0.02-0.11l-0.02-0.03l-0.04-0.02l-0.04-0.01l-0.3-0.01l-0.09,0.01l-0.1,0.03l-0.13,0.08l-0.07,0.07l-0.05,0.06
		l-0.03,0.08l-0.01,0.07l-0.01,0.08l0.01,0.07l0.01,0.07l0.03,0.07l0.2,0.24L32,57.77v0.1l-0.04,0.14l-0.05,0.08l-0.04,0.07
		l-0.61,0.51L31.2,58.7h-0.06l-0.17-0.1h-0.08l-0.1,0.03l-0.26,0.19l-0.09,0.04l-1.03,0.32l-0.76,0.58l-0.11,0.05l-0.03-0.01
		l-0.03-0.02l-0.03-0.04l-0.06-0.08l-0.03-0.05l-0.05-0.03l-0.1-0.06l-0.6-0.25l-0.05-0.03l-0.08-0.06l-0.25-0.25l-0.05-0.04
		l-0.07-0.03h-0.09l-0.13,0.03l-0.08,0.07l-0.04,0.06l-0.02,0.06l-0.04,0.22l-0.03,0.1l-0.04,0.12l-0.1,0.16l-0.08,0.08l-0.07,0.05
		l-0.39,0.12l-0.15,0.07l-0.08,0.06l-0.06,0.06l-0.43,0.66l-0.07,0.07l-0.07,0.05l-0.24,0.06l-0.64,0.05l-0.12-0.02l-0.29-0.14
		l-0.39-0.12l-0.06-0.03l-0.1-0.08l-0.17-0.18l-0.05-0.04l-0.05-0.04l-0.07-0.03l-0.06-0.02l-0.1-0.02l-0.23,0.01l-0.13,0.03
		l-0.14,0.01l-0.04-0.01l-0.13-0.05l-0.11-0.08l-0.04-0.04l-0.04-0.05l-0.13-0.22l-0.04-0.05l-0.05-0.05l-0.11-0.07l-0.55-0.26
		l-0.05-0.04l-0.04-0.05L21,59.29l-0.01-0.07l-0.02-0.07l-0.01-0.32l-0.01-0.07l-0.01-0.07l-0.03-0.07l-0.03-0.06l-0.03-0.05
		l-0.04-0.04l-0.05-0.03l-0.4-0.17l-0.05-0.04l-0.03-0.05l-0.01-0.06l0.02-0.07l0.02-0.05l0.22-0.23v-0.01l0.01-0.03V57.7l0.01-0.07
		l-0.02-0.08l-0.02-0.06l-0.04-0.06l-0.04-0.04l-0.11-0.08l-0.49,0.58l-0.76,0.88l-0.54,0.64L17.7,60.4l-0.77,0.88l-0.22,0.2
		l-0.68,0.48l-0.75,0.53l-1,0.7l-0.44,0.42l-0.17,0.21l-0.07,0.14l0.01,0.09l0.07,0.19l0.06,0.28v0.08v0.08l-0.02,0.08l-0.03,0.06
		l-0.03,0.06l-0.1,0.09l-0.84,0.59l-0.22,0.22l-0.09,0.12l-0.04,0.12l0.03,0.2l0.02,0.07l0.03,0.14l0.01,0.19v0.07l-0.02,0.07
		l-0.01,0.07l-0.03,0.06l-0.04,0.06l-0.14,0.11l-0.59,0.34l-0.6,0.35L10.6,67.8l-0.07,0.03l-0.05,0.04l-0.17,0.25l-0.13,0.44
		l-0.05,0.12l-0.11,0.15L10,68.89v0.05l0.04,0.12l0.01,0.07l-0.01,0.06l-0.06,0.06L9.91,69.3l-1.03,0.33l-1.01,0.51l-0.37,0.29
		l-0.12,0.13l-0.07,0.06L7.2,70.66l-0.98,0.25l-0.86,0.47L5.3,71.4L5.1,71.53l-0.39,0.45l1.08-0.15l1.08-0.15l2.16-0.32l1.08-0.15
		l1.08-0.16l1.08-0.16l1.08-0.16l1.08-0.16l1.08-0.16l1.08-0.16l1.08-0.16l1.07-0.17l1.08-0.16l1.08-0.17l1.08-0.16l0.5-0.09
		l0.08-0.05l0.19-0.23l0.09-0.04l0.09-0.02l0.71-0.09l0.87-0.12l0.97-0.12l0.09,0.13l0.05,0.03l0.08,0.01l0.23-0.04l1.8-0.29
		l1.81-0.28l1.8-0.3l1.8-0.3l1.81-0.29l1.8-0.3l1.8-0.31l1.8-0.31l1.8-0.31l1.8-0.31l1.8-0.32l1.8-0.32l1.8-0.32l1.8-0.33l1.8-0.33
		l1.8-0.33l1.79-0.33l1.8-0.34l1.79-0.34l1.8-0.34l1.8-0.35l1.79-0.35l1.79-0.35l1.8-0.36l1.79-0.36l1.79-0.36l1.79-0.36l1.8-0.37
		l1.79-0.37l1.79-0.37l1.79-0.37l1.51-0.33l0.27-0.06l-0.06-0.11L83.28,58l-0.07-0.1l-0.05-0.17l0.43,0.42l0.47-0.1l-0.02-0.02
		l-0.23-0.67l-0.15-1.33l0.02-0.14l0.12-0.01l0.13,0.06L84.03,56l0.1,0.13l0.41,0.85l0.07,0.08l0.15,0.14l0.07,0.09l0.03,0.15
		l-0.01,0.15l0.02,0.14l0.09,0.15l0.13-0.03l0.14-0.03l-0.22-0.5L83.46,54.78z"/>
	<path id="VA_2_" class="st1" d="M84.37,57.72l-0.14,0.14l0.1,0.12v0.02l0.16-0.04l0.18-0.04l-0.13-0.33L84.37,57.72z M83.54,49.14
		l-0.08,0.01l0.02,0.09l0.34-0.11l0.12-0.22l-0.01-0.33l-0.1-0.42l-0.07,0.02l-0.04,0.24l0.01,0.28l-0.03,0.27L83.54,49.14z
		 M84.49,46.42l0.06-0.29v-0.3l-0.08,0.02l-0.06,0.15l-0.15,0.72v0.07l0.02,0.1l0.07-0.02L84.49,46.42z M85.72,38.24l-0.28,0.1
		l-0.43,0.16l-0.49,0.17l-0.33,0.12l-0.42,0.15l-0.24,0.09l-0.05,0.08l-0.04,0.2l-0.04,0.2l0.11,0.03l-0.1,0.16l-0.15,0.1
		l-0.31,0.13l-0.21,0.2l-0.2,0.25l0.02,0.08l0.24-0.1h0.31l0.21,0.11l0.08,0.17l-0.05,0.12l0.03,0.11l0.07,0.11l0.12,0.1l-0.11,0.05
		l-0.24,0.01l-0.07,0.03l-0.04,0.14l0.04,0.15l0.08,0.12l0.12,0.09l-0.58,0.21l-0.13-0.03l-0.13-0.07l-0.12,0.01l-0.08,0.18
		l0.25,0.16l0.04,0.16l-0.1,0.19l-0.17,0.21l0.02,0.1l0.21-0.05l0.04,0.07l-0.27,0.47l0.01,0.11l0.11,0.18l-0.23,0.06l-0.18,0.08
		l-0.12,0.14l-0.07,0.22l0.2,0.15l-0.11,0.1l-0.2,0.11l-0.16,0.15l0.15,0.07l0.01,0.11l-0.08,0.13l-0.12,0.14l0.45,0.09l-0.2,0.18
		l-0.17,0.23l-0.09,0.31l0.05,0.37l0.19-0.14l0.11,0.05l0.02,0.14l-0.25,0.2l-0.08,0.2l-0.03,0.24l0.02,0.22l0.08-0.02v-0.09
		l0.04-0.02h0.06l0.02-0.02l0.02,0.12l-0.04,0.17l-0.08,0.17l-0.15,0.13l0.09,0.15l-0.01,0.25l-0.1,0.5l0.09-0.06l0.05-0.02
		l0.15,0.02l-0.13,0.19l-0.1,0.32l0.05,0.3l0.26,0.18l0.02,0.08l-0.02,0.18l0.35,0.34l0.13,0.24l0.12,0.27l0.15,0.06l0.15-0.1
		l0.09-0.21v-0.12l-0.05-0.46l0.02-0.14l0.07-0.15l0.09-0.08l0.05,0.04l0.08,0.55l0.11,0.14l0.22-0.17l-0.09-0.12l-0.11-0.27
		l-0.07-0.1l0.05-0.25v-0.31l-0.16-1.15v-0.15l0.03-0.15l0.14-0.35l0.05-0.17v-0.1l-0.04-0.1l-0.07-0.2l0.01-0.16l0.13-0.31
		l0.03-0.11l0.11-0.12l0.75-0.31l-0.11-0.12l-0.14-0.03l-0.16,0.01l-0.14-0.02l0.05-0.2l0.13-0.23l0.14-0.12l0.1,0.14l0.1,0.21
		l0.12,0.12l0.14,0.1l0.12,0.14l0.16-0.24l0.14-0.31l0.12-0.34L85,44.28l-0.18-0.07l-0.03-0.34l0.06-0.41l0.11-0.41l0.02-0.48
		l0.46-1.82l0.29-0.51l0.03-0.21l-0.15-0.23l0.16-0.11l0.01-0.08l-0.07-0.08l-0.06-0.14l-0.08-0.31l-0.03-0.2l0.02-0.15l0.12-0.15
		l0.14-0.11l0.11-0.13l-0.01-0.16L85.72,38.24z M87.2,37.69l-0.07,0.03l-0.02,0.08l-0.17,0.35l-0.12,0.33l-0.04,0.16l-0.05,0.44
		l-0.04,0.12l-0.03,0.15l-0.07,0.1l-0.11,0.07l-0.12,0.04l-0.02,0.06l0.09,0.09l0.18,0.16l-0.08,0.07l-0.1,0.06L86.33,40l-0.12,0.02
		l0.03,0.1l0.32-0.1l0.23-0.32l0.14-0.42l0.36-1.63L87.2,37.69z M83.46,54.78l-0.43-1l-0.26-0.29l-0.25,0.03l-0.26,0.15l-0.33,0.08
		l-0.44-0.08l-0.53,0.07l-1.05-0.16l-0.35,0.08l-0.17,0.29l0.07,0.19l0.13,0.05l0.07,0.06l-0.1,0.25v0.14l0.12,0.14L79.93,55
		l-0.17,0.01l-0.19-0.07l-0.14-0.12l-0.01-0.15l-0.25-0.09l-0.29-0.02l-0.29,0.05l-0.26,0.11l-0.19,0.17l-0.16,0.2l-0.19,0.17
		l-0.26,0.09l-0.03-0.1l0.25-0.27l0.11-0.17l0.04-0.13l-0.1-0.15l-0.12-0.12l-0.05-0.12l0.14-0.15l-0.01-0.09l-0.7-0.21l-0.16-0.1
		l-0.09-0.03l-0.09-0.02l-0.14,0.02l-0.07-0.04v-0.08l0.02-0.03l0.09-0.1l-0.02-0.08l-0.65-0.04l-0.18-0.06l-0.11-0.16l-0.17-0.77
		l-0.3-0.71l-0.1-0.12l-0.12,0.09l-0.21,0.4l-0.19,0.08l-0.21-0.1l-0.42-0.32l-0.15-0.05l-0.94,0.19l-0.21-0.04l-0.44-0.2
		l-0.24-0.01l-0.11-0.1l-0.1-0.24L71.58,51l-0.24-0.05l-0.08,0.07l-0.25,0.32l-0.11,0.09l-0.11-0.07l-0.11-0.11l-0.07-0.06
		l-0.88,0.18l-0.71-0.12l-0.11,0.06l-0.05-0.03l-0.11-0.01l-0.12-0.04l-0.07-0.16l0.22-0.32l0.2,0.17l0.16,0.04l0.42-0.11l0.07,0.02
		l0.2,0.08h0.12l0.1-0.03l0.19-0.12l0.12-0.08l0.1-0.03l0.09,0.03l0.12,0.08l0.05,0.08l0.11,0.15l0.11,0.12L71,51.08l0.05-0.1
		l0.26-0.33l0.1-0.08l0.14,0.01l0.11,0.08l0.4,0.43l0.14,0.2l0.15,0.11l0.23-0.08l0.16-0.19l0.09-0.15l0.02-0.13l-0.08-0.34
		l0.01-0.13l0.09-0.12l0.09,0.22L73,50.78l0.07,0.24l0.15,0.08l0.15,0.01l0.41,0.1l0.18,0.01l0.09,0.03l0.08,0.1l0.06,0.12
		l0.07,0.09l0.12,0.05l0.04-0.08l0.01-0.13l0.04-0.1l0.18-0.1l0.41-0.12l0.13-0.12l0.25,0.12l0.22,0.24l0.14,0.32l-0.02,0.38
		l0.09,0.08l0.16,0.14l0.25,0.18l0.26,0.12l0.18-0.05l1.07,0.6l0.16,0.15l0.22,0.47l0.15,0.02l0.15-0.12l0.23-0.31l0.12-0.12
		L79,53.12l0.25-0.07l0.17-0.11l0.1-0.22l0.03-0.27l-0.01-0.27l-0.09-0.36l-0.12-0.06l-0.39,0.19l-0.18-0.04l0.1-0.18l0.2-0.2
		l0.11-0.08l-0.11-0.17l-0.24-0.14l-0.34-0.13l-0.01,0.15l-0.12-0.01l-0.14-0.09l-0.1-0.11l-0.03-0.12l-0.02-0.16v-0.14l0.02-0.03
		l-0.15-0.13l-0.18,0.03l-0.42,0.17l-0.22-0.01l-0.27-0.06l-0.47-0.18l-0.79-0.43l-0.74-0.58l-0.31-0.35l-0.18-0.17l-0.37-0.13
		L73.39,48l-0.11-0.04l-0.12-0.01l-0.11-0.03L73,47.85l-0.02-0.14v-0.13l0.03-0.1l0.09-0.06l0.62,0.41l0.42,0.51l0.26,0.23
		l0.25,0.07l0.18,0.08l0.83,0.87l0.09,0.05h0.13l0.11,0.02l0.13,0.15l0.32,0.05l0.45,0.21l0.21,0.03l0.77-0.36l0.03-0.09l-0.09-0.15
		l-0.12-0.15l-0.11-0.08l-0.1-0.01l-0.32,0.1l-0.02-0.08l0.27-0.17l0.04-0.04l-0.04-0.12l-0.07-0.04l-0.08-0.01l-0.32-0.15
		l-0.07-0.1l0.02-0.15l0.08-0.1l0.11-0.03l0.12,0.01l0.12,0.03l-0.06-0.1l-0.07-0.11l-0.1-0.08l-0.12-0.01l0.07-0.34l0.22,0.13
		l0.43,0.5l0.19,0.02l0.13-0.1l0.12-0.05l0.07,0.19l0.53,0.43l0.12,0.14l0.06-0.01l-0.05-0.39l0.09-0.74l-0.08-0.39l-0.13-0.2
		l-0.12-0.02l-0.12,0.02l-0.12-0.06l-0.03-0.13l0.07-0.15l0.12-0.13l0.1-0.09l-0.02-0.08l-0.35-0.23l-0.15,0.01v0.28l-0.07,0.15
		l-0.24-0.05l-0.39-0.18H77.2l-0.18-0.07L77,46.5l0.25-0.15l0.46-0.14l0.16-0.11l0.14-0.18l-0.44-0.05l-0.43,0.05l-0.4-0.05
		l-0.32-0.33l-0.13,0.11l-0.21,0.05h-0.64l-0.18-0.06l-0.17-0.12l-0.2-0.25l-0.14-0.21l-0.04-0.1l-0.02-0.02l-0.13-0.36l-0.09-0.08
		l-0.34-0.22l-0.12-0.04l-0.47,0.01l-0.02-0.04l-0.02-0.17l-0.02-0.04L73.43,44l-0.04,0.02l-0.04,0.01l-0.13-0.07l-0.25-0.03
		l-0.06-0.05l-0.12-0.14l-0.06-0.02l-0.11-0.08l-0.33-0.38l-0.08-0.13l-0.08-0.23l-0.1-0.1l-0.35-0.06l-0.14-0.05l-0.18-0.11
		l-0.17-0.13l-0.15-0.26l-0.12-0.05l-0.13-0.03l-0.12-0.06l-0.12-0.11l-0.04-0.07l-0.24-0.69l-0.06-0.07l-0.23-0.16l-0.06-0.06
		l-0.13-0.1l-0.75-0.03l-0.12-0.07l-0.09-0.09l-0.07-0.12l-0.04-0.16l-0.06-0.09l-0.08,0.01l-0.12,0.09l-0.35,0.02l-0.19-0.04
		l-0.11-0.13l0.06-0.14l0.19-0.02l0.47,0.02l0.17,0.05l0.15,0.15l0.14,0.18l0.12,0.13l0.1-0.04h0.47l0.17,0.06l0.14,0.1l0.26,0.26
		l0.43,0.63l0.11,0.07l0.46,0.22l0.22,0.38l0.68,0.19l0.23,0.37l0.5,0.53l0.16,0.1l0.14,0.04l0.13-0.05l0.1-0.15l0.03,0.19
		l0.08,0.11l0.1,0.06l0.11,0.03l0.1-0.15l0.08,0.05l0.07,0.12l0.07,0.09l0.36,0.17l0.06,0.07l0.13,0.23l0.45,0.38l0.17,0.18
		l0.03,0.14l0.12,0.22l0.15,0.12l0.15-0.06l0.01-0.48l0.06-0.19l0.17,0.17L76,44.84l0.12,0.14l0.1,0.09l0.04,0.01l0.04-0.08
		l0.12,0.06l0.13,0.11l0.06,0.06l0.6,0.09l0.3-0.01l0.13-0.21l-0.13,0.04l-0.06-0.08l-0.18-0.16l-0.06-0.12l0.03-0.1l0.08-0.07
		l0.04-0.09l-0.1-0.16l0.11,0.02h0.12l0.12-0.03l0.08-0.08l-0.05-0.14l-0.38-0.19l-0.12-0.13l0.01-0.06l0.07-0.01h0.08l0.04-0.03
		l0.04-0.18v-0.13l-0.02-0.12l-0.08-0.18l-0.3-0.37l-0.12-0.23l0.08-0.14l0.17,0.05l0.4,0.27l0.18-0.02l0.07-0.19l-0.02-0.31
		l-0.12-0.53l-0.11-0.12l-0.2-0.1l-0.23-0.07l-1-0.15L75.63,41l-0.53-0.08l-0.12-0.05l0.08-0.03l0.06-0.07l0.06-0.03l-0.11-0.08
		l-0.12-0.06l-0.12-0.04H74.7l-0.35,0.15l-0.06-0.02l-0.05-0.17l-0.02-0.05l0.1-0.15l-0.01-0.17l-0.17-0.14l-0.4-0.16l-0.28-0.17
		l-0.06-0.05l-0.04-0.27l-0.05-0.09l-0.1-0.02l-0.12,0.05l-0.19,0.11l-0.12,0.03l-0.09-0.02l-0.09-0.05l-0.1-0.04h-0.12l-0.09,0.1
		l-0.2,0.19l-0.23,0.12l-0.14-0.12l-0.1-0.14l-0.17-0.07l-0.2,0.01l-0.21,0.03l-0.42,0.01l-0.54-0.08l-0.43-0.13l-0.2-0.29
		l0.01-0.08l0.01-0.08l-0.03-0.1l-0.1-0.09l-0.11-0.04l-0.11-0.03l-0.09-0.04l-0.55-0.39l-0.06-0.01l-0.11-0.06l-0.08-0.07
		l0.06-0.05l0.18-0.03l0.09-0.03l0.06-0.06l0.06-0.2l-0.05-0.21l-0.1-0.19l-0.11-0.12l-0.26-0.09L68,37.19l-0.22,0.24l-0.45,0.26
		L67.04,38l-0.17,0.1l-0.64,0.22l-0.45-0.04l-0.48,0.05l-0.02-0.09l0.11-0.05l0.34-0.05l0.1-0.07l-0.04-0.1l-0.15-0.13l-0.11-0.12
		l-0.42-0.29l-0.14-0.13l0.13-0.12l0.14,0.06l0.25,0.22l-0.18-0.45v-0.57l0.06-0.5l-0.03-0.24l-0.02-0.1l0.08-0.05l0.17-0.17
		l-0.07-0.05l-0.06-0.08l-0.06-0.02l0.11-0.16l0.08-0.21l0.03-0.23l-0.01-0.2l0.03-0.2l0.12-0.13l0.14-0.03l0.09,0.11l0.06,0.2
		l0.07,0.09l0.11-0.03l0.15-0.12l0.11-0.12l0.08-0.14l-0.02-0.12l-0.18-0.06l-0.1-0.12l-0.03-0.15l0.08-0.15l0.16-0.07l0.01,0.17
		l0.07,0.08l0.08-0.02l0.01-0.25l0.08-0.04l0.11-0.01l0.1-0.07l0.16-0.17l0.15-0.09l0.09-0.13l-0.03-0.32l-0.27-1.3l-0.03-0.06
		l-0.08-0.13L66.82,31l-0.25-0.23h0.01l0,0l-0.12-0.11l-0.45-0.23l-0.06-0.05l-0.15-0.13l-0.12-0.07l-0.32,0.01l-0.37-0.05h-0.14
		l-0.15-0.04l-0.1-0.15l-0.09-0.19l-0.1-0.16l-0.27-0.18l-0.32-0.1l-0.34-0.03l-0.9,0.1l-0.27-0.08l-0.42-0.29l-0.18-0.11
		l-0.16-0.13l-0.1-0.18l0.03-0.23l0.27-0.36l0.11-0.22l-0.01-0.26l-0.15-0.17l-0.21-0.05l-0.24-0.02l-0.21-0.09l-0.26-0.28
		l-0.12-0.08l-0.47-0.02l-0.46-0.08h-0.19l-0.5,0.11l-0.21-0.06l-0.01,0.06l-0.04,0.16l-0.11,0.55l-0.1,0.42l-0.12,0.63l-0.09,0.4
		l-0.04,0.17l-0.03,0.16l-0.1-0.06l-0.12-0.06L57.4,28.9l-0.65-0.34l-0.65-0.34l-0.66-0.33l-0.65-0.34l-0.65-0.34l-0.66-0.34
		l-0.64-0.34l-0.18-0.09l-0.13,0.1l-0.1,0.25l-0.03,0.13v0.11l0.03,0.12l0.14,0.37l0.03,0.12l0.01,0.15v0.08l-0.02,0.14l-0.1,0.27
		l-0.22,0.49l-0.02,0.06l-0.01,0.07v0.06l0.01,0.06l0.02,0.06l0.02,0.05l0.04,0.13l0.01,0.07v0.08l-0.03,0.21v0.08v0.09l0.02,0.07
		l0.02,0.06l0.08,0.17l0.02,0.06l0.01,0.07l-0.01,0.05l-0.04,0.08l-0.24,0.46l-0.34,0.38l-0.31,0.55l-0.11,0.3l-0.01,0.06v0.05
		l0.02,0.04l0.02,0.05v0.05l-0.03,0.12l-0.19,0.38l-0.06,0.07l-0.08,0.08l-0.14,0.09l-0.11,0.04l-0.08,0.05l-0.05,0.06l-0.04,0.12
		l-0.06,0.25l-0.06,0.12l-0.04,0.07l-0.07,0.07l-0.21,0.15l-0.08,0.04l-0.06,0.02l-0.06-0.01l-0.05-0.02l-0.04-0.04l-0.04-0.05
		l-0.04-0.04l-0.04-0.02l-0.05,0.01l-0.05,0.04l-0.16,0.38l-0.22,0.51l-0.27,0.6l-0.2,0.48l-0.05,0.07l-0.05,0.06l-0.08-0.01
		l-0.39-0.17l-0.49-0.22l-0.34-0.14l-0.05,0.01l-0.05,0.06L47.1,36.1l-0.06,0.12l-0.02,0.12v0.07l-0.02,0.08l-0.03,0.1l-0.12,0.28
		l-0.03,0.12l-0.01,0.08l0.04,0.73l-0.01,0.06L46.8,37.9l-0.07,0.08l-0.13,0.12l-0.09,0.1l-0.09,0.12l-0.06,0.16l-0.03,0.1
		l-0.01,0.09l-0.02,0.43l-0.01,0.04v0.02v0.06v0.03l-0.07,0.46l-0.03,0.14l-0.05,0.12l-0.14,0.28l-0.18,0.39l-0.26,0.56l-0.04,0.05
		l-0.05,0.04l-0.08,0.01l-0.66-0.09l-0.56-0.07l-0.49-0.07l-0.5-0.07L43.17,41l-0.02-0.01l0.01-0.05l0.02-0.11v-0.05v-0.04
		l-0.01-0.02l-0.04-0.06l-0.52-0.63l-0.04-0.04l-0.04-0.02l-0.03-0.01l-0.9-0.15l-0.07,0.01L41.5,39.9l-0.04,0.11l-0.03,0.23
		l0.01,0.13l0.01,0.1l0.02,0.07l0.01,0.08l-0.01,0.07l-0.03,0.11l-0.13,0.3v0.03v0.19l0.09,0.53l-0.01,0.08l-0.03,0.09l-0.12,0.24
		l-0.03,0.12l-0.04,0.39l-0.03,0.08l-0.1,0.09l-0.17,0.11l-0.04,0.05l-0.02,0.08l-0.02,0.13l-0.04,0.12l-0.08,0.15l-0.04,0.1
		l0.01,0.12l0.03,0.08l0.06,0.12l0.03,0.06l0.02,0.06l-0.02,0.09l-0.03,0.09l-0.14,0.21l-0.2,0.19l-0.08,0.11l-0.17,0.31l-0.39,0.52
		l-0.02,0.07l-0.01,0.07l0.02,0.11l0.05,0.12v0.09l-0.1,0.75l-0.16,0.5l-0.22,0.71l-0.25,0.42l-0.44,0.73l-0.35,0.56L38,50.17
		l-0.35,0.56l-0.01,0.05l-0.03,0.31l-0.02,0.1l-0.19,0.59l-0.25,0.75l-0.02,0.13l0.02,0.05l0.02,0.03l0.02,0.02l0.15,0.1l0.12,0.06
		l0.33,0.1l0.05,0.04l0.05,0.07l0.03,0.12L37.9,53.3l-0.02,0.07l-0.09,0.11l-0.18,0.16l-0.16,0.12L37.4,53.8l-0.07,0.08L37.24,54
		l-0.03,0.1l-0.01,0.09l0.01,0.06l0.02,0.06l0.03,0.05l0.05,0.04l0.13,0.06l0.05,0.05l0.02,0.13L37.5,54.7l-0.04,0.07l-1.12,0.91
		l-0.26,0.33l-0.05,0.06l-0.06,0.03l-0.05,0.01h-0.06l-0.05-0.02l-0.05-0.03l-0.04-0.05l-0.03-0.06l-0.01-0.07l-0.02-0.11
		l-0.02-0.05l-0.02-0.05l-0.05-0.04l-0.11-0.01l-0.08,0.01l-0.23,0.07l-0.23,0.12l-0.38,0.27l-0.45,0.32l-0.41,0.36l-0.41,0.36
		l-0.04,0.03l-0.08,0.04h-0.04l-0.04-0.01l-0.03-0.03l-0.03-0.05l-0.04-0.04l-0.05-0.03l-0.05-0.01l-0.19-0.01l-0.05-0.02
		l-0.03-0.04l-0.02-0.11l-0.02-0.03l-0.04-0.02l-0.04-0.01l-0.3-0.01l-0.09,0.01l-0.1,0.03l-0.13,0.08l-0.07,0.07l-0.05,0.06
		l-0.03,0.08l-0.01,0.07l-0.01,0.08l0.01,0.07l0.01,0.07l0.03,0.07l0.2,0.24L32,57.77v0.1l-0.04,0.14l-0.05,0.08l-0.04,0.07
		l-0.61,0.51L31.2,58.7h-0.06l-0.17-0.1h-0.08l-0.1,0.03l-0.26,0.19l-0.09,0.04l-1.03,0.32l-0.76,0.58l-0.11,0.05l-0.03-0.01
		l-0.03-0.02l-0.03-0.04l-0.06-0.08l-0.03-0.05l-0.05-0.03l-0.1-0.06l-0.6-0.25l-0.05-0.03l-0.08-0.06l-0.25-0.25l-0.05-0.04
		l-0.07-0.03h-0.09l-0.13,0.03l-0.08,0.07l-0.04,0.06l-0.02,0.06l-0.04,0.22l-0.03,0.1l-0.04,0.12l-0.1,0.16l-0.08,0.08l-0.07,0.05
		l-0.39,0.12l-0.15,0.07l-0.08,0.06l-0.06,0.06l-0.43,0.66l-0.07,0.07l-0.07,0.05l-0.24,0.06l-0.64,0.05l-0.12-0.02l-0.29-0.14
		l-0.39-0.12l-0.06-0.03l-0.1-0.08l-0.17-0.18l-0.05-0.04l-0.05-0.04l-0.07-0.03l-0.06-0.02l-0.1-0.02l-0.23,0.01l-0.13,0.03
		l-0.14,0.01l-0.04-0.01l-0.13-0.05l-0.11-0.08l-0.04-0.04l-0.04-0.05l-0.13-0.22l-0.04-0.05l-0.05-0.05l-0.11-0.07l-0.55-0.26
		l-0.05-0.04l-0.04-0.05L21,59.29l-0.01-0.07l-0.02-0.07l-0.01-0.32l-0.01-0.07l-0.01-0.07l-0.03-0.07l-0.03-0.06l-0.03-0.05
		l-0.04-0.04l-0.05-0.03l-0.4-0.17l-0.05-0.04l-0.03-0.05l-0.01-0.06l0.02-0.07l0.02-0.05l0.22-0.23v-0.01l0.01-0.03V57.7l0.01-0.07
		l-0.02-0.08l-0.02-0.06l-0.04-0.06l-0.04-0.04l-0.11-0.08l-0.49,0.58l-0.76,0.88l-0.54,0.64L17.7,60.4l-0.77,0.88l-0.22,0.2
		l-0.68,0.48l-0.75,0.53l-1,0.7l-0.44,0.42l-0.17,0.21l-0.07,0.14l0.01,0.09l0.07,0.19l0.06,0.28v0.08v0.08l-0.02,0.08l-0.03,0.06
		l-0.03,0.06l-0.1,0.09l-0.84,0.59l-0.22,0.22l-0.09,0.12l-0.04,0.12l0.03,0.2l0.02,0.07l0.03,0.14l0.01,0.19v0.07l-0.02,0.07
		l-0.01,0.07l-0.03,0.06l-0.04,0.06l-0.14,0.11l-0.59,0.34l-0.6,0.35L10.6,67.8l-0.07,0.03l-0.05,0.04l-0.17,0.25l-0.13,0.44
		l-0.05,0.12l-0.11,0.15L10,68.89v0.05l0.04,0.12l0.01,0.07l-0.01,0.06l-0.06,0.06L9.91,69.3l-1.03,0.33l-1.01,0.51l-0.37,0.29
		l-0.12,0.13l-0.07,0.06L7.2,70.66l-0.98,0.25l-0.86,0.47L5.3,71.4L5.1,71.53l-0.39,0.45l1.08-0.15l1.08-0.15l2.16-0.32l1.08-0.15
		l1.08-0.16l1.08-0.16l1.08-0.16l1.08-0.16l1.08-0.16l1.08-0.16l1.08-0.16l1.07-0.17l1.08-0.16l1.08-0.17l1.08-0.16l0.5-0.09
		l0.08-0.05l0.19-0.23l0.09-0.04l0.09-0.02l0.71-0.09l0.87-0.12l0.97-0.12l0.09,0.13l0.05,0.03l0.08,0.01l0.23-0.04l1.8-0.29
		l1.81-0.28l1.8-0.3l1.8-0.3l1.81-0.29l1.8-0.3l1.8-0.31l1.8-0.31l1.8-0.31l1.8-0.31l1.8-0.32l1.8-0.32l1.8-0.32l1.8-0.33l1.8-0.33
		l1.8-0.33l1.79-0.33l1.8-0.34l1.79-0.34l1.8-0.34l1.8-0.35l1.79-0.35l1.79-0.35l1.8-0.36l1.79-0.36l1.79-0.36l1.79-0.36l1.8-0.37
		l1.79-0.37l1.79-0.37l1.79-0.37l1.51-0.33l0.27-0.06l-0.06-0.11L83.28,58l-0.07-0.1l-0.05-0.17l0.43,0.42l0.47-0.1l-0.02-0.02
		l-0.23-0.67l-0.15-1.33l0.02-0.14l0.12-0.01l0.13,0.06L84.03,56l0.1,0.13l0.41,0.85l0.07,0.08l0.15,0.14l0.07,0.09l0.03,0.15
		l-0.01,0.15l0.02,0.14l0.09,0.15l0.13-0.03l0.14-0.03l-0.22-0.5L83.46,54.78z"/>
</g>
<g id="VERMONT">
</g>
<g id="WASHINGTON">
</g>
<g id="WISCONSIN">
</g>
<g id="WEST_VIRGINIA">
</g>
<g id="WYOMING">
</g>
</svg>
