<?xml version="1.0" encoding="utf-8"?>
<!-- Generator: Adobe Illustrator 26.5.0, SVG Export Plug-In . SVG Version: 6.00 Build 0)  -->
<svg version="1.1" xmlns="http://www.w3.org/2000/svg" xmlns:xlink="http://www.w3.org/1999/xlink" x="0px" y="0px"
	 viewBox="0 0 90 90" style="enable-background:new 0 0 90 90;" xml:space="preserve">
<g id="ALABAMA">
</g>
<g id="ALASKA">
</g>
<g id="ARIZONA">
</g>
<g id="ARKANSAS_1_">
</g>
<g id="CALIFORNIA">
</g>
<g id="COLORADO">
</g>
<g id="CONNECTICUT">
</g>
<g id="DELAWARE">
</g>
<g id="DC">
</g>
<g id="FLORIDA">
</g>
<g id="GEORGIA">
</g>
<g id="HAWAII">
</g>
<g id="IDAHO">
</g>
<g id="IOWA">
</g>
<g id="ILLINOIS">
</g>
<g id="INDIANA">
</g>
<g id="KANSAS">
</g>
<g id="KETUCKY">
</g>
<g id="LOUISANA">
</g>
<g id="MAINE">
</g>
<g id="MARYLAND">
</g>
<g id="MASSACHUSETTS">
</g>
<g id="MICHIGAN">
</g>
<g id="MINNESOTA">
</g>
<g id="MISSOURI">
</g>
<g id="MISSISSIPPI">
</g>
<g id="MONTANA">
</g>
<g id="NORTH_CAROLINA">
</g>
<g id="NORTH_DAKOTA">
</g>
<g id="NEBRASKA">
</g>
<g id="NEW_HAMPSHIRE">
</g>
<g id="NEW_JERSEY">
</g>
<g id="NEW_YORK">
</g>
<g id="NEW_MEXICO">
</g>
<g id="NEVADA">
</g>
<g id="OHIO">
</g>
<g id="OKLAHOMA">
</g>
<g id="OREGON">
</g>
<g id="PENNSYLVANIA">
</g>
<g id="RHODE_ISLAND">
</g>
<g id="SOUTH_CAROLINA">
</g>
<g id="SOUTH_DAKOTA">
</g>
<g id="TENNESSEE">
</g>
<g id="TEXAS">
</g>
<g id="UTAH">
</g>
<g id="VIRGINIA">
</g>
<g id="VERMONT">
</g>
<g id="WASHINGTON">
	<path id="WA_1_" class="st0" d="M26.07,24.83l-0.33-0.08l-0.11,0.04l-0.08,0.07l-0.01,0.04L25.62,25l0.02,0.07l0.03,0.03l0.01,0.08
		l-0.08,0.17l0.03,0.02l0.02-0.01l0.03-0.04l0.17-0.09l0.17-0.16l0.02-0.06L26.04,25L26,24.95l0.03-0.09L26.07,24.83z M25.37,26.23
		l0.18-0.1l0.12-0.19l0.02-0.24l-0.09-0.23l-0.2,0.14l-0.12-0.05l-0.07-0.18l0.01-0.24l0.13-0.45l0.03-0.26l-0.1-0.41l-0.1,0.01
		l-0.29,0.18l-0.04,0.08l-0.07,0.1l-0.02,0.13l0.03,0.16l-0.17,0.06l-0.17,0.17l-0.11,0.24v0.26l0.15,0.13l0.24,0.1l0.14,0.11
		l-0.11,0.24L25.37,26.23z M24.43,22.42l-0.1,0.03l-0.29,0.2l-0.08,0.07l-0.03,0.15l0.02,0.11l0.09,0.21l0.11,0.15l0.1-0.09
		l0.08-0.2l0.04-0.19l0.07-0.07l0.11,0.09l0.15,0.19l0.03,0.15l0.01,0.17l0.06,0.16l0.16,0.09l0.3,0.04l0.15-0.02l0.16-0.09
		l-0.34-0.89l0.07-0.1l0.01-0.08l-0.01-0.09l0.02-0.16l0.07-0.11l0.11-0.02l0.09,0.08l0.02,0.12l-0.01,0.16l0.07,0.42l0.17,0.45
		l0.08,0.15l0.1,0.07h0.12l0.06-0.08l0.03-0.09l0.06-0.08l0.51-0.19l0.08-0.05l0.08-0.12l-1.02-0.87l-0.39-0.13l-0.23-0.03
		l-0.12,0.01l-0.63,0.46L24.43,22.42z M25.26,31.53l0.02,0.2l0.08,0.3l0.14,0.25l0.2,0.04l0.14-0.21l0.03-0.36l-0.03-0.36
		l-0.08-0.38l-0.07-0.08l-0.1-0.02l-0.12,0.06l0.14,0.22l0.06,0.29l-0.04,0.22l-0.16-0.02l-0.02-0.1l0.03-0.3l-0.04-0.11l-0.1-0.01
		l-0.04,0.11L25.26,31.53z M25.44,21.21H25.4l0.02,0.09l0.04,0.04l-0.03,0.01l0.03,0.03l0.07,0.04l0.02-0.02l-0.02-0.03h0.03
		l0.04,0.07l0.12,0.04l-0.11-0.18l-0.04,0.01l-0.08-0.08l0.1-0.03l0.09,0.01l0.12,0.06l-0.09-0.1L25.6,21.1l-0.15,0.01l-0.02,0.04
		l0.03,0.03v0.02L25.44,21.21z M24.14,23.88v0.08l0.33,0.18l0.08-0.03l0.02-0.08l0.03-0.04l0.03-0.03h0.06l0.07,0.02h0.04l0.03-0.01
		l0.07-0.03l0.07-0.11l-0.01-0.11l-0.08-0.02h-0.08l-0.04,0.02l-0.01,0.07l-0.04,0.01l-0.02-0.07l0.02-0.07l-0.01-0.03l-0.19-0.08
		l-0.08-0.09l-0.37,0.04l-0.12-0.02l-0.02,0.04l0.03,0.06l0.12,0.04l0.03,0.03l0.09,0.18v0.05L24.14,23.88z M27.75,26.97l-0.11,0.02
		l-0.13,0.1l-0.17,0.03l-0.27-0.06l-0.19,0.28l-1.19,1.42l-0.1,0.27l0.04,0.36l0.07,0.11l0.11,0.12l0.12,0.11l0.1,0.04l0.06,0.08
		l0.17,0.47l0.29-0.1l0.23,0.02l0.13,0.17l0.01,0.35l-0.32,0.74v0.23l0.13,0.29l-0.06,0.24l0.08,0.31l0.13,0.28l0.12,0.13l0.07,0.13
		l0.08,0.09l0.13,0.03l0.12-0.03l0.24-0.17l0.14,0.01l0.13,0.16l0.06,0.28v0.34l-0.03,0.31l0.04,0.08h0.15l0.25-0.04l0.04,0.04
		l-0.01,0.09v0.08l0.07,0.02l0.06-0.03l0.06-0.09l0.07-0.06l0.26-0.28l0.07-0.04l0.04-0.06l-0.01-0.16l-0.04-0.24v-0.34l-0.11-0.27
		l-0.72-0.7L28,31.96l-0.12-0.24l-0.19-0.2l-0.13,0.14l-0.06,0.33l0.08,0.33l-0.19,0.3l-0.17,0.06l-0.08-0.18l0.06-0.71l0.12-0.79
		v-0.66L27.28,30l-0.11-0.27l-0.2-0.15l-0.11-0.06l-0.21-0.19l-0.13-0.06l-0.34,0.02l-0.15-0.06l-0.1-0.2l0.63,0.01l0.17-0.08
		l0.07-0.17l0.07-0.26l0.08-0.09l0.09,0.33l0.11-0.19l0.17-0.21l0.18-0.09l0.17,0.18l0.1,0.19l0.16,0.1h0.17l0.17-0.11l0.09-0.39
		l-0.54-0.62l0.04-0.29l-0.03-0.06v-0.04v-0.11L27.75,26.97z M28.3,22.6l-0.03-0.04l-0.13-0.01l-0.08-0.03l0.08,0.09l0.2,0.24
		l0.11-0.03l0.04-0.2l-0.02-0.09l-0.07-0.07l0.01,0.03v0.12l-0.03,0.01L28.3,22.6z M27.85,22.54l-0.2-0.48l-0.16-0.1l-0.09,0.19
		l0.01,0.15l0.11,0.13l0.19,0.33l0.12,0.28l0.06,0.1l0.19,0.22l0.11,0.11l0.09-0.02v-0.15l-0.03-0.16l-0.04-0.14l-0.06-0.1
		l-0.1-0.12l-0.14-0.14L27.85,22.54z M27.31,23.64l0.16,0.18l0.18,0.11l0.01-0.12l-0.01-0.1l-0.04-0.07l-0.21-0.02L27.31,23.64z
		 M27.25,24.06l-0.04-0.12l-0.11-0.1l-0.14,0.03l-0.11,0.13l-0.06,0.18l0.06,0.44l0.08,0.11l0.11,0.02h0.1l0.07-0.04l0.06-0.13
		l0.09-0.09l0.06-0.04l-0.02-0.07l-0.12-0.21L27.25,24.06z M26.26,41.75l-0.16,0.02l-0.11,0.13l-0.04,0.19l0.02,0.19l0.24-0.11
		l0.4-0.26l0.5-0.09l0.08,0.01L27,41.65l-0.18-0.12l-0.15-0.16l-0.09-0.27v-0.15l0.04-0.29l0.01-0.16l-0.06-0.14l-0.08-0.09
		l-0.02-0.1l0.1-0.18l-0.17,0.03l-0.24,0.15l-0.2,0.18l-0.1,0.16l-0.29,1.04l-0.06,0.08l-0.09,0.1l-0.07,0.12l0.01,0.16l0.07,0.15
		l0.07,0.09l0.07,0.03l0.09-0.06l0.07-0.1L25.8,42l0.06-0.28l0.07-0.08l0.12-0.04l0.23-0.04l-0.06-0.11h0.18l0.05,0.12l-0.06,0.14
		L26.26,41.75z M25.6,38.3l0.06,0.1h0.15l0.16,0.07l0.16,0.35l0.22,0.09l0.14-0.12l0.1-0.07l-0.08-0.06l-0.03-0.07v-0.11V38.4
		l-0.02-0.08l0.02-0.1l-0.09-0.15l0.09-0.01l0.07-0.04l0.11-0.09l-0.09-0.13l-0.02-0.22l0.04-0.47L26.53,37l-0.08-0.11l-0.1-0.1
		l-0.1-0.05l-0.11,0.02l-0.03,0.11l-0.02,0.15l-0.07,0.13l-0.23,0.19l-0.04,0.08l-0.02,0.21l0.01,0.16l0.06,0.14l-0.06,0.16
		L25.6,38.3z M23.02,43.97l-0.15-0.01l-0.08,0.11l-0.09,0.13l-0.1,0.04l-0.1,0.04l0.01,0.14l0.04,0.02l0.11,0.18l0.08,0.08
		l0.08,0.08l0.06,0.01l0.14-0.06l0.17-0.11l0.09-0.21l0.05-0.13l-0.01-0.17l-0.09-0.09L23.02,43.97z M21.55,42.38l0.04-0.13
		l0.17-0.07l0.1-0.17l-0.13,0.06l-0.08,0.02l-0.2,0.04l-0.1,0.06l-0.16-0.03l-0.09,0.11l-0.08,0.19l-0.12,0.25l-0.03,0.11l0.08,0.17
		l0.12,0.17l0.05,0.14l0.01,0.11l0.02,0.19v0.12l0.06,0.08l0.18-0.11l0.16-0.2l0.04-0.19l0.03-0.18l-0.07-0.19l-0.09-0.18l0.06-0.18
		L21.55,42.38z M7.34,51.04l-0.08,0.11l0.12,0.16l0.19,0.52l0.08-0.13l0.06-0.15l0.08-0.34l-0.02-0.12l-0.16-0.2l-0.02-0.19v-0.06
		L7.56,50.5l-0.09,0.07l-0.1,0.08l0.02,0.14l-0.01,0.13L7.34,51.04z M22.56,22.3l0.14,0.08l0.08,0.08l0.33,0.12l0.01-0.01
		l-0.02-0.03l-0.03-0.01L23,22.45l-0.11-0.06l-0.15-0.08l-0.06-0.03l-0.1-0.04L22.56,22.3z M23.95,21.89l-0.03,0.21l0.04,0.03
		l0.29-0.09l0.06-0.07l0.01-0.07l0.04-0.27l-0.03-0.08h-0.29l-0.07,0.06l-0.16,0.07l-0.08,0.06l0.18,0.12L23.95,21.89z M22.84,22.73
		l-0.33,0.01l-0.25,0.18l-0.02,0.29l-0.01,0.07l-0.01,0.44l0.03,0.45l0.03,0.11l0.08,0.17l0.08,0.1l0.12,0.11l0.12,0.08l0.11,0.04
		l0.23,0.03l0.04,0.03l0.1,0.1l0.08,0.11l0.05,0.11l0.08,0.09l0.13,0.07l0.16,0.01l0.12-0.01l0.11,0.01l0.14,0.1l0.02-0.09
		l-0.17-0.12l-0.08-0.07l-0.07-0.09l-0.11-0.37l-0.02-0.04l0.07-0.17l0.07,0.01l0.08,0.06l0.11-0.04l0.17-0.13l0.03-0.08l-0.25-0.17
		l-0.15-0.38l-0.31-0.21l-0.16-0.19l-0.13-0.22l-0.06-0.19L22.84,22.73z M86.01,28.92l-2.3-0.36l-2.29-0.36l-2.29-0.37l-2.29-0.37
		l-2.28-0.38l-2.29-0.38l-2.29-0.39l-2.28-0.39l-2.3-0.39l-2.28-0.4l-2.3-0.41l-2.28-0.41l-2.28-0.42l-2.28-0.43l-2.28-0.43
		l-2.28-0.43l-2.28-0.43l-2.28-0.44l-2.28-0.45l-2.28-0.44l-2.27-0.45l-2.28-0.46l-2.27-0.46l-2.27-0.46l-2.28-0.47l-1.02-0.21l0,0
		l0.08,0.25l0.04,0.27l-0.46-0.18l-0.25-0.01l-0.16,0.11v0.26l0.52,0.09l0.08,0.28l-0.06,0.07l-0.11,0.07l-0.12,0.1l-0.08,0.13
		l0.01,0.19l0.08,0.16l0.38,0.46l0.07,0.17v0.22l-0.12,0.34l0.13-0.17l0.17,0.15l0.16,0.27l0.04,0.2l-0.04,0.07l-0.18,0.11L27.97,22
		l-0.01,0.17l0.06,0.15l0.08,0.08l0.12-0.03l0.42-0.45l0.21-0.18l0.23-0.04l0.19,0.08l0.24,0.18l0.18,0.22l0.06,0.25l-0.33,0.38
		l-0.09,0.22l0.21,0.16l-0.01,0.07l-0.02,0.38l0.02,0.16l0.07,0.13l0.08,0.07l0.08,0.06l0.08,0.09l0.08,0.32l-0.02,0.33l-0.12,0.25
		l-0.24,0.06l-0.17-0.11l-0.35-0.42l-0.2-0.11h-0.23l0.09,0.15l0.36,0.35l0.09,0.22l0.06,0.23l0.01,0.24l-0.04,0.38v0.15l0.01,0.09
		l-0.02,0.09l-0.11,0.11l-0.14,0.03l-0.13-0.07l-0.11-0.12l-0.19-0.35l-0.16-0.16l-0.15,0.04l-0.08,0.37l-0.11-0.26l-0.1-0.41
		l-0.16-0.27l-0.31,0.14l-0.15,0.02l-0.17-0.05h-0.15l-0.06,0.16l0.07,0.09l0.13,0.06l0.12,0.12l0.01,0.26l-0.08,0.12l-0.12,0.07
		l-0.08,0.11l0.06,0.26l0.1,0.12l0.15,0.08l0.18,0.01l0.17-0.03l0.09-0.07l0.23-0.23l0.09-0.03l0.1,0.03l0.15,0.07l0.06,0.11
		l-0.18,0.11l-0.02,0.1l0.11,0.16l0.12,0.42l0.1,0.1l0.17,0.05l0.15,0.08l0.12,0.1l0.19,0.29l0.28,0.24l0.28,0.36l0.04,0.09
		l0.02,0.11v0.16l0.02,0.08l-0.21,0.26l-0.07,0.13l0.02,0.16l-0.13,0.04l-0.08-0.11l-0.06-0.16l-0.1-0.14l-0.16-0.06l-0.2-0.03
		l-0.38,0.03l-0.26,0.14l-0.17,0.26l-0.09,0.33v0.37l0.1,0.37l0.16,0.28l0.76,0.79l0.07,0.1l0.15,0.34l0.1,0.12l0.18,0.03
		l-0.12-0.49l-0.11-0.26l-0.15-0.13l-0.13-0.09l-0.16-0.18l-0.14-0.2l-0.08-0.16l-0.03-0.22l0.01-0.27l0.08-0.2l0.24-0.1l0.03-0.29
		l0.08-0.12l0.09-0.01l0.08,0.04l0.04,0.08l0.04,0.04l0.4,0.26l0.03,0.34l-0.11,0.44l-0.04,0.53l0.13,0.51l0.27,0.42l0.62,0.71
		l0.2-0.13l0.15,0.03L30.81,33l0.07,0.06l0.01,0.07l-0.06,0.05l-0.07,0.04l-0.07,0.04l-0.07,0.2l-0.08,0.18l-0.24,0.08l-0.1,0.06
		h-0.39l-0.1,0.04l-0.09,0.07l-0.24,0.1l-0.09,0.06l-0.07,0.1l-0.03,0.13l-0.15,0.18l-0.07,0.21l-0.09,0.3l-0.19,0.2l-0.36,0.18
		l-0.14,0.15l-0.11,0.17l-0.1,0.22l-0.08,0.27l0.03,0.24l0.09,0.17l-0.01,0.24l-0.01,0.24l-0.07,0.15l-0.22,0.21l-0.09,0.1
		l-0.04,0.12l-0.07,0.09l-0.13,0.01l-0.05,0.06l0.02,0.15l0.08,0.14l0.09,0.09l0.43,0.28l0.11,0.2l0.02,0.19l-0.06,0.22l-0.11,0.28
		l-0.08-0.14l-0.07-0.23l-0.09-0.17h-0.15l-0.17,0.14l-0.08,0.09l-0.01,0.14l0.08,0.67l0.03,0.17l0.08,0.21l0.01,0.17l-0.14,0.62
		l0.03,0.18l0.21,0.43l0.04,0.2l-0.03,0.27l-0.1,0.2l-0.15,0.12L27,42.45l-0.22,0.06l-0.21,0.08l-0.16,0.1l-0.11,0.13v0.13
		l0.08,0.12l0.16,0.16l-0.23,0.12l-0.17,0.03l-0.15-0.08l-0.33-0.39l-0.33-0.29l-0.16-0.18l-0.1,0.53l-0.25,0.48l-0.31,0.43
		l-1.1,0.97L23,45.1l-0.44,0.14l-0.01-0.16l-0.07-0.18l-0.1-0.15l-0.24-0.17l-0.07-0.16l-0.06-0.18l-0.06-0.15l-0.18-0.16
		l-0.07,0.07l-0.05,0.23v0.04l-0.11,0.04l-0.18,0.04l-0.15-0.01l0.1-0.09l0.07-0.11l0.03-0.12l-0.03-0.16l-0.48,0.23l-0.12,0.16
		l-0.03,0.17l0.01,0.2l-0.03,0.17l-0.16,0.11l0.04,0.18l0.03,0.21l-0.03,0.15l-0.15-0.05l-0.09-0.14l-0.01-0.34l-0.07-0.18
		l0.09-0.12l0.06-0.15l0.01-0.16l-0.03-0.14l-0.18,0.3L20,44.7l-0.27,0.08l-0.25-0.08l0.23-0.08l0.17-0.12l0.64-0.73l0.09-0.19
		l-0.11-0.08l-0.31,0.34l-0.06,0.03l-0.07,0.01l-1.02,0.43l-0.23,0.04l0.16-0.2l0.23-0.03l0.21-0.01l0.15-0.09V43.8l-0.2-0.04
		l-0.26,0.06l-0.18,0.06l0.16-0.19l0.29-0.07l0.59-0.03l0.31-0.17l0.23-0.27l0.54-1l0.09-0.09h0.18l0.14-0.02l0.19-0.08l0.3-0.19
		l0.15-0.24l0.33-0.65l0.19-0.18l-0.09,0.19l0.02,0.11l0.07,0.09l0.06,0.11l0.01,0.21v0.11l-0.08,0.39l-0.09,0.26l-0.13,0.2
		l-0.23,0.04l-0.07,0.34l0.03,0.69l0.18,0.51l0.37-0.2l0.02-0.09l-0.01-0.1l-0.02-0.09l-0.01-0.03l0.06-0.04l0.07-0.07l0.06-0.02
		l-0.01,0.07l0.09-0.1l0.08-0.06L23,43.12l-0.18-0.46l-0.01-0.21l0.09-0.19l0.21-0.2l0.07-0.11l0.03-0.13l0.06-0.11l0.08-0.03
		l0.1-0.02l0.09-0.07l0.1-0.09l0.1-0.07l0.39-0.09l0.17-0.11l0.13-0.25l-0.02,0.36l-0.16,0.21l-0.2,0.17l-0.12,0.22L23.8,42.1
		l-0.17,0.09l-0.06,0.12l0.23,0.25l0.75,0.51l0.16,0.03l0.18-0.27l0.01-0.24l-0.17-0.56l0.2-0.01l0.16-0.06l0.14-0.12l0.12-0.18
		l-0.13-0.35l0.11-0.3l0.2-0.3l0.16-0.34l0.14-0.25l0.2-0.27l0.07-0.25l-0.25-0.16l-0.05-0.21l0.06-0.36l-0.06-0.26l-0.38,0.12
		l-0.26,0.15l-0.28,0.11l-0.59,0.12l0.08-0.13l0.25-0.15l0.13-0.13l0.12-0.16v-0.03L24.8,38.5l-0.33-0.27l-0.07-0.1l-0.02-0.2
		l0.02-0.19l0.06-0.15l0.09-0.12l0.1-0.1l0.24,0.88l0.21,0.36l0.29-0.07l-0.06-0.12l0.09-0.08l-0.09-1.44l-0.03-0.1l-0.08-0.11
		l-0.08-0.09l-0.06-0.11l0.01-0.18l0.1-0.01l0.47,0.7l0.18-0.06l0.2-0.17l0.15-0.21l0.01-0.17l0.18,0.01l0.48,0.2h0.11l0.04-0.06
		l0.08-0.08l0.09-0.11l0.02-0.17l-0.04-0.12l-0.08-0.1L27,35.87l-0.09-0.04l0.2-0.19l-0.01-0.16l-0.09-0.14l-0.03-0.16l0.03-0.5
		l0.03-0.21L27,34.11l-0.21-0.27l-0.55-0.48l-0.01,0.13l0.12,0.39l0.02,0.1l0.03,0.71l-0.01,0.33l-0.09,0.2l-0.21-0.09l-0.02-0.12
		l0.06-0.11v-0.11l-0.17-0.08l-0.12,0.02l-0.14,0.08l-1.33,1.16l-0.15,0.2l-0.28,0.6l-0.1,0.17l-0.15,0.09l-0.27,0.08l-0.86,0.12
		l-0.73,0.27l-0.17,0.04l-0.99,0.89l-0.63,0.84l-0.12,0.13l-0.36,0.3L19.4,39.9l-0.07,0.19l0.16,0.38l0.42,0.09l0.87-0.17l0.83-0.3
		l0.45-0.09l0.29,0.12l-0.41,0.23l-0.4,0.14l-1.93,0.34L19,40.77l-0.28-0.3l0.07-0.2l0.39-0.52l0.26-0.49l0.24-0.18l0.26-0.14
		l0.2-0.17l0.52-0.73l0.17-0.19l1.03-0.81l0.15-0.07l0.14-0.02l0.1-0.06l0.14-0.3l0.22-0.18l0.17-0.29L23,35.81l0.28-0.13
		l-0.12-0.45l-0.02-0.27l0.03-0.22l0.16-0.21l0.09,0.1l0.01,0.27l-0.04,0.28l0.21-0.1l0.09-0.26l0.07-0.27l0.16-0.16l-0.03,0.53
		l-0.1,0.42l-0.37,0.87l-0.18,0.25L23.2,36.6l0.16,0.1h0.12l0.14-0.03l0.1-0.09l0.07-0.14l0.08-0.23l0.12-0.25l0.3-0.48l0.2-0.25
		l0.57-0.44l0.12-0.13l0.13-0.25l0.11-0.11h0.1l0.33,0.06l0.09-0.04l-0.02-0.18l-0.42-0.76l-0.02-0.12l0.03-0.31l-0.01-0.11
		l-0.05-0.1l-0.18-0.16l-0.07-0.11l-0.29-0.8l-0.02-0.22l-0.02-0.1l-0.08-0.12l-0.04-0.16l0.04-0.19l0.09-0.07l0.28-0.08l0.11-0.06
		l-0.14-0.38l-0.26-0.04l-0.33,0.08l-0.36,0.01l-0.15,0.06l-0.13,0.16l-0.08,0.2l0.01,0.18l0.33,0.51l0.09,0.22l-0.26,0.39
		l-0.17,0.11l-0.2-0.02l0.02-0.1l0.24-0.09l0.01-0.28l-0.1-0.32l-0.11-0.21l-0.12-0.08L23.47,31l-0.07-0.08l0.01-0.22l-0.03-0.15
		l-0.14-0.07l-0.17-0.02l-0.46-0.01l-0.1,0.17l-0.02,0.59l-0.12-0.02l-0.2-0.15l-0.12-0.24l0.15-0.32l-0.17-0.42l-0.24-0.34
		l-0.3-0.24l-0.39-0.15l0.02-0.11h0.16l0.16-0.04l0.12-0.08l0.08-0.17l-0.43,0.15l-0.83,0.44l-0.38,0.08l-1.71-0.46L18.08,29
		l0.02-0.07l0.1-0.01l0.09-0.01l0.11-0.03l-0.76-0.07l-0.19-0.07L17,28.47l-0.64-0.04l-0.29,0.06l-0.16-0.12l-0.24-0.28l-0.35-0.16
		l-0.76-0.11l-1.55-0.44l-1.34-0.68l-0.19-0.13l-0.24-0.51l-0.18-0.2l-0.75-0.53l-0.22-0.1L9.6,25.18l-0.17-0.09l-0.2-0.28
		l-0.09-0.07l-0.71-0.36l-0.34-0.41l-1.51-1.15L6.1,22.57L5.55,22.4l-0.07,0.2l0.03,0.19l0.24,0.36l0.2,0.25l0.03,0.06l-0.07,0.13
		l-0.2,0.18l-0.07,0.12l-0.11,0.52l-0.04,0.07l-0.11,0.08l-0.03,0.07l-0.01,0.07l0.04,0.11l-0.02,0.08l-0.17,0.45l-0.13,0.19
		l-0.19,0.06L4.81,25.7L5,26.47l-0.1,0.52l-0.07,0.52v0.54l0.06,0.56l0.09,0.52l0.23,0.69l0.07,0.08l0.27,0.1l0.11,0.08l0.09,0.1
		l0.49,0.82l0.09,0.28l0.04,0.51l0.06,0.18l0.1,0.11l0.12,0.07l0.09,0.09l-0.01,0.51l0.19,0.9l0.01,0.25l-0.15,1.17l0.01,0.6
		l-0.21,2.18l0.08,0.09l0.21,0.1l0.1,0.1l-0.08,0.1l-0.04,0.16l0.01,0.15l0.08,0.09l0.13,0.06l0.06,0.1l0.12,0.51l0.08,0.64v0.59
		L7.2,41.68l0.01,0.65l-0.03,0.32l-0.29,0.99l-0.07,0.15l-0.06,0.07l-0.04,0.16l-0.01,0.17l0.04,0.1l0.08-0.03l0.44-0.34l0.07-0.01
		l0.04-0.05l-0.02-0.1L7.3,43.61v-0.07l0.02-0.27l-0.04-0.24v-0.11l0.15-0.19l0.27-0.06l0.29,0.02l0.24,0.08l0.19,0.15l0.15,0.22
		l0.07,0.28l-0.01,0.3l0.08,0.2l0.28,0.09l0.55,0.06l-0.02,0.09l-0.03,0.02l-0.06,0.07l0.65,0.09l0.33,0.1l0.22,0.18l-0.85,0.04
		l-0.86,0.18l-0.36,0.13l-0.17,0.03L8.15,45l-0.19,0.07l-0.12,0.19l0.01,0.16l0.19-0.05l0.07,0.18l0.04,0.13l-0.02,0.12l-0.11,0.12
		L7.94,45.9l-0.12-0.11l-0.16-0.11l-0.16-0.01v-0.24l-0.16-0.32l0.09-0.16l-0.08-0.35l-0.25,0.15l-0.08,0.17l0.06,0.56v0.6
		l-0.07,0.99l0.04,0.2L7.2,47.4l0.37,0.11l0.18,0.02l0.09,0.03l0.1,0.1l0.08,0.11l0.09,0.06l0.16-0.06l-0.14-0.14l0.02-0.09
		l0.53,0.24l0.16-0.03l0.13-0.11l0.09-0.06l0.11,0.02l0.16,0.1l0.25,0.29l0.17,0.33l0.19,0.28l0.33,0.12l-0.17,0.12l-0.23,0.06
		l-0.17-0.07l-0.03-0.19l-0.02-0.27l-0.17-0.1l-0.37-0.01l-0.39,0.07l-0.2,0.31L8.5,49.07l0.15,0.42l-0.16-0.07l-0.25-0.27
		l-0.18-0.09l0.07,0.27l0.18,0.42l0.09,0.39l0.03,0.08l0.01,0.1l-0.02,0.19l-0.04,0.13l-0.07,0.1l-0.09,0.06l-0.27,0.02l-0.07,0.1
		L7.87,51.1l0.01,0.16l0.03,0.08l0.06,0.08l0.07,0.07l0.06,0.02l0.02,0.04L8.1,51.69v0.08l0.17,0.16l0.23,0.16l0.15,0.19l-0.12,0.26
		l-0.15-0.2l-0.39-0.41l-0.06-0.14l-0.09-0.01l-0.1,0.33l-0.2,0.28l-0.26,0.16L7,52.49l-0.12-0.22l-0.06-0.36l0.01-0.76l0.07-0.38
		l0.33-1.07l-0.01-0.34l-0.08-0.27l-0.01-0.24l0.19-0.26l-0.3,0.07L6.84,49.2l-0.36,2.4L6.32,52.2l-0.2,0.42l0.03,0.19l-0.03,0.15
		L5.99,53.2l-0.18,0.26l-0.12,0.16l-0.1,0.09l0.09,0.11l0.1,0.03l0.24-0.04l0.06,0.02l0.03,0.06l0.03,0.03l0.1-0.07l-0.02-0.02
		L6.2,53.74v-0.11l0.02-0.07l0.21-0.12l0.19,0.01l0.18,0.11l0.15,0.16l0.43,0.69l0.23,0.16l0.28,0.04l0.24-0.1l0.21-0.14l0.26-0.09
		l0.12,0.02l0.33,0.17h0.11l0.17-0.09l0.35-0.03l0.12-0.11l0.1-0.05l0.12,0.2l0.03,0.14v0.12l0.02,0.11l0.61,0.28l1.37,0.06
		l0.3,0.11l0.24,0.19l0.04,0.3l0.01,0.27l0.13,0.24l0.7,0.81l0.18,0.15l0.29,0.1h0.26l0.52-0.12l0.27,0.04l0.71,0.02l0.19,0.1
		l0.12,0.16l0.31,0.35l0.14,0.11l0.31,0.12l0.32,0.21l0.29,0.26l0.24,0.26l0.15,0.27l0.12,0.33l0.08,0.35v0.57l0.11,0.19l0.15,0.17
		l0.11,0.21l0.01,0.25l-0.04,0.66l0.09,0.54l-0.07,0.26l-0.11,0.28l-0.07,0.33l0.17,0.45l0.01,0.15l-0.04,0.16l-0.1,0.27l-0.04,0.16
		l-0.07,0.56v0.34l0.06,0.26l0.15,0.24l0.21,0.25l0.24,0.2l0.81,0.33l0.46-0.01l0.16,0.03l0.31,0.25l0.53,0.25l0.28,0.24l0.91,0.2
		L23.02,68l0.21-0.01l0.21-0.08l0.86-0.07l2.07-0.3l0.48-0.17l0.86-0.44l0.49-0.15l0.31,0.01l0.78,0.32l1.64,0.04l3.16,0.92
		l0.48,0.27l0.18,0.21l0.07,0.24l0.04,0.27l0.08,0.33l0.17,0.17l0.25,0.02l1.03-0.22h0.06l0.24,0.05l0.11,0.06l0.06,0.01l0.36,0.06
		l0.11,0.03l0.15,0.1l0.45,0.13l0.48-0.03l0.15,0.02l0.07-0.01l0.54-0.27l0.09-0.01h0.8l0.54-0.1l0.07-0.1l0.09-0.07l0.31-0.12h0.12
		l1.58,0.6l0.12,0.01l0.28-0.07h0.1l0.54,0.19l0.12,0.01l0.27-0.04l0.47-0.16l0.11-0.01l0.17,0.03l0.3,0.12l0.17,0.01l0.33-0.07
		l0.32-0.15l0.38-0.25l0.23-0.08l0.52,0.01l1.7-0.34l3.03,0.04l0.52-0.26l0.37-0.31l0.19-0.06l0.29,0.01l0.74,0.17h0.56h0.98
		l2.69,0.43l0.56-0.13l0.54-0.42l0.1,0.01l0.49,0.09l1.4,0.24l1.39,0.24l1.39,0.24l1.38,0.22l1.39,0.24l2.79,0.46l1.39,0.22
		l1.4,0.23l1.39,0.22l1.4,0.22l1.39,0.21l1.4,0.22l1.39,0.21l1.39,0.21l1.47,0.22l-0.16-0.69l-0.46-0.78l-0.04-0.17l0.38-0.28
		l0.16-0.18l0.16-0.28l0.04-0.3l-0.18-0.43l-0.01-0.72l-0.1-0.33l-0.27-0.63l-0.42-0.7l-0.04-0.23l0.08-0.26l0.24-0.43l0.06-0.42
		l0.35-2.28l0.35-2.27l0.34-2.28l0.35-2.27l0.34-2.27l0.35-2.26l0.34-2.27l0.35-2.26l0.34-2.26l0.34-2.26l0.35-2.26l0.34-2.25
		l0.34-2.25l0.35-2.25l0.34-2.25l0.34-2.24L86.01,28.92z M24.92,17.71l-0.57-0.11v0.07l-0.04,0.23l0.48-0.08L24.92,17.71z
		 M22.33,22.05l0.07-0.03l-0.01-0.08l-0.09-0.06l-0.01-0.03l0.08,0.02l0.1,0.08l0.07,0.01l0.06-0.06l-0.01-0.07l-0.03-0.04
		l-0.03-0.01l-0.11,0.04l-0.07-0.01l-0.11-0.1l-0.01-0.04l-0.06-0.08L22,21.52l-0.1,0.03l0.02,0.1L22.33,22.05z M27.63,25.06
		l0.19,0.05l0.25-0.05l0.09,0.01l0.08,0.09h0.07l0.02-0.1v-0.13l-0.41-0.4l-0.11-0.25l-0.08-0.04l-0.06,0.1l-0.03,0.12l0.02,0.07
		l-0.11,0.33L27.63,25.06z"/>
	<path id="WA_2_" class="st1" d="M26.07,24.83l-0.33-0.08l-0.11,0.04l-0.08,0.07l-0.01,0.04L25.62,25l0.02,0.07l0.03,0.03l0.01,0.08
		l-0.08,0.17l0.03,0.02l0.02-0.01l0.03-0.04l0.17-0.09l0.17-0.16l0.02-0.06L26.04,25L26,24.95l0.03-0.09L26.07,24.83z M25.37,26.23
		l0.18-0.1l0.12-0.19l0.02-0.24l-0.09-0.23l-0.2,0.14l-0.12-0.05l-0.07-0.18l0.01-0.24l0.13-0.45l0.03-0.26l-0.1-0.41l-0.1,0.01
		l-0.29,0.18l-0.04,0.08l-0.07,0.1l-0.02,0.13l0.03,0.16l-0.17,0.06l-0.17,0.17l-0.11,0.24v0.26l0.15,0.13l0.24,0.1l0.14,0.11
		l-0.11,0.24L25.37,26.23z M24.43,22.42l-0.1,0.03l-0.29,0.2l-0.08,0.07l-0.03,0.15l0.02,0.11l0.09,0.21l0.11,0.15l0.1-0.09
		l0.08-0.2l0.04-0.19l0.07-0.07l0.11,0.09l0.15,0.19l0.03,0.15l0.01,0.17l0.06,0.16l0.16,0.09l0.3,0.04l0.15-0.02l0.16-0.09
		l-0.34-0.89l0.07-0.1l0.01-0.08l-0.01-0.09l0.02-0.16l0.07-0.11l0.11-0.02l0.09,0.08l0.02,0.12l-0.01,0.16l0.07,0.42l0.17,0.45
		l0.08,0.15l0.1,0.07h0.12l0.06-0.08l0.03-0.09l0.06-0.08l0.51-0.19l0.08-0.05l0.08-0.12l-1.02-0.87l-0.39-0.13l-0.23-0.03
		l-0.12,0.01l-0.63,0.46L24.43,22.42z M25.26,31.53l0.02,0.2l0.08,0.3l0.14,0.25l0.2,0.04l0.14-0.21l0.03-0.36l-0.03-0.36
		l-0.08-0.38l-0.07-0.08l-0.1-0.02l-0.12,0.06l0.14,0.22l0.06,0.29l-0.04,0.22l-0.16-0.02l-0.02-0.1l0.03-0.3l-0.04-0.11l-0.1-0.01
		l-0.04,0.11L25.26,31.53z M25.44,21.21H25.4l0.02,0.09l0.04,0.04l-0.03,0.01l0.03,0.03l0.07,0.04l0.02-0.02l-0.02-0.03h0.03
		l0.04,0.07l0.12,0.04l-0.11-0.18l-0.04,0.01l-0.08-0.08l0.1-0.03l0.09,0.01l0.12,0.06l-0.09-0.1L25.6,21.1l-0.15,0.01l-0.02,0.04
		l0.03,0.03v0.02L25.44,21.21z M24.14,23.88v0.08l0.33,0.18l0.08-0.03l0.02-0.08l0.03-0.04l0.03-0.03h0.06l0.07,0.02h0.04l0.03-0.01
		l0.07-0.03l0.07-0.11l-0.01-0.11l-0.08-0.02h-0.08l-0.04,0.02l-0.01,0.07l-0.04,0.01l-0.02-0.07l0.02-0.07l-0.01-0.03l-0.19-0.08
		l-0.08-0.09l-0.37,0.04l-0.12-0.02l-0.02,0.04l0.03,0.06l0.12,0.04l0.03,0.03l0.09,0.18v0.05L24.14,23.88z M27.75,26.97l-0.11,0.02
		l-0.13,0.1l-0.17,0.03l-0.27-0.06l-0.19,0.28l-1.19,1.42l-0.1,0.27l0.04,0.36l0.07,0.11l0.11,0.12l0.12,0.11l0.1,0.04l0.06,0.08
		l0.17,0.47l0.29-0.1l0.23,0.02l0.13,0.17l0.01,0.35l-0.32,0.74v0.23l0.13,0.29l-0.06,0.24l0.08,0.31l0.13,0.28l0.12,0.13l0.07,0.13
		l0.08,0.09l0.13,0.03l0.12-0.03l0.24-0.17l0.14,0.01l0.13,0.16l0.06,0.28v0.34l-0.03,0.31l0.04,0.08h0.15l0.25-0.04l0.04,0.04
		l-0.01,0.09v0.08l0.07,0.02l0.06-0.03l0.06-0.09l0.07-0.06l0.26-0.28l0.07-0.04l0.04-0.06l-0.01-0.16l-0.04-0.24v-0.34l-0.11-0.27
		l-0.72-0.7L28,31.96l-0.12-0.24l-0.19-0.2l-0.13,0.14l-0.06,0.33l0.08,0.33l-0.19,0.3l-0.17,0.06l-0.08-0.18l0.06-0.71l0.12-0.79
		v-0.66L27.28,30l-0.11-0.27l-0.2-0.15l-0.11-0.06l-0.21-0.19l-0.13-0.06l-0.34,0.02l-0.15-0.06l-0.1-0.2l0.63,0.01l0.17-0.08
		l0.07-0.17l0.07-0.26l0.08-0.09l0.09,0.33l0.11-0.19l0.17-0.21l0.18-0.09l0.17,0.18l0.1,0.19l0.16,0.1h0.17l0.17-0.11l0.09-0.39
		l-0.54-0.62l0.04-0.29l-0.03-0.06v-0.04v-0.11L27.75,26.97z M28.3,22.6l-0.03-0.04l-0.13-0.01l-0.08-0.03l0.08,0.09l0.2,0.24
		l0.11-0.03l0.04-0.2l-0.02-0.09l-0.07-0.07l0.01,0.03v0.12l-0.03,0.01L28.3,22.6z M27.85,22.54l-0.2-0.48l-0.16-0.1l-0.09,0.19
		l0.01,0.15l0.11,0.13l0.19,0.33l0.12,0.28l0.06,0.1l0.19,0.22l0.11,0.11l0.09-0.02v-0.15l-0.03-0.16l-0.04-0.14l-0.06-0.1
		l-0.1-0.12l-0.14-0.14L27.85,22.54z M27.31,23.64l0.16,0.18l0.18,0.11l0.01-0.12l-0.01-0.1l-0.04-0.07l-0.21-0.02L27.31,23.64z
		 M27.25,24.06l-0.04-0.12l-0.11-0.1l-0.14,0.03l-0.11,0.13l-0.06,0.18l0.06,0.44l0.08,0.11l0.11,0.02h0.1l0.07-0.04l0.06-0.13
		l0.09-0.09l0.06-0.04l-0.02-0.07l-0.12-0.21L27.25,24.06z M26.26,41.75l-0.16,0.02l-0.11,0.13l-0.04,0.19l0.02,0.19l0.24-0.11
		l0.4-0.26l0.5-0.09l0.08,0.01L27,41.65l-0.18-0.12l-0.15-0.16l-0.09-0.27v-0.15l0.04-0.29l0.01-0.16l-0.06-0.14l-0.08-0.09
		l-0.02-0.1l0.1-0.18l-0.17,0.03l-0.24,0.15l-0.2,0.18l-0.1,0.16l-0.29,1.04l-0.06,0.08l-0.09,0.1l-0.07,0.12l0.01,0.16l0.07,0.15
		l0.07,0.09l0.07,0.03l0.09-0.06l0.07-0.1L25.8,42l0.06-0.28l0.07-0.08l0.12-0.04l0.23-0.04l-0.06-0.11h0.18l0.05,0.12l-0.06,0.14
		L26.26,41.75z M25.6,38.3l0.06,0.1h0.15l0.16,0.07l0.16,0.35l0.22,0.09l0.14-0.12l0.1-0.07l-0.08-0.06l-0.03-0.07v-0.11V38.4
		l-0.02-0.08l0.02-0.1l-0.09-0.15l0.09-0.01l0.07-0.04l0.11-0.09l-0.09-0.13l-0.02-0.22l0.04-0.47L26.53,37l-0.08-0.11l-0.1-0.1
		l-0.1-0.05l-0.11,0.02l-0.03,0.11l-0.02,0.15l-0.07,0.13l-0.23,0.19l-0.04,0.08l-0.02,0.21l0.01,0.16l0.06,0.14l-0.06,0.16
		L25.6,38.3z M23.02,43.97l-0.15-0.01l-0.08,0.11l-0.09,0.13l-0.1,0.04l-0.1,0.04l0.01,0.14l0.04,0.02l0.11,0.18l0.08,0.08
		l0.08,0.08l0.06,0.01l0.14-0.06l0.17-0.11l0.09-0.21l0.05-0.13l-0.01-0.17l-0.09-0.09L23.02,43.97z M21.55,42.38l0.04-0.13
		l0.17-0.07l0.1-0.17l-0.13,0.06l-0.08,0.02l-0.2,0.04l-0.1,0.06l-0.16-0.03l-0.09,0.11l-0.08,0.19l-0.12,0.25l-0.03,0.11l0.08,0.17
		l0.12,0.17l0.05,0.14l0.01,0.11l0.02,0.19v0.12l0.06,0.08l0.18-0.11l0.16-0.2l0.04-0.19l0.03-0.18l-0.07-0.19l-0.09-0.18l0.06-0.18
		L21.55,42.38z M7.34,51.04l-0.08,0.11l0.12,0.16l0.19,0.52l0.08-0.13l0.06-0.15l0.08-0.34l-0.02-0.12l-0.16-0.2l-0.02-0.19v-0.06
		L7.56,50.5l-0.09,0.07l-0.1,0.08l0.02,0.14l-0.01,0.13L7.34,51.04z M22.56,22.3l0.14,0.08l0.08,0.08l0.33,0.12l0.01-0.01
		l-0.02-0.03l-0.03-0.01L23,22.45l-0.11-0.06l-0.15-0.08l-0.06-0.03l-0.1-0.04L22.56,22.3z M23.95,21.89l-0.03,0.21l0.04,0.03
		l0.29-0.09l0.06-0.07l0.01-0.07l0.04-0.27l-0.03-0.08h-0.29l-0.07,0.06l-0.16,0.07l-0.08,0.06l0.18,0.12L23.95,21.89z M22.84,22.73
		l-0.33,0.01l-0.25,0.18l-0.02,0.29l-0.01,0.07l-0.01,0.44l0.03,0.45l0.03,0.11l0.08,0.17l0.08,0.1l0.12,0.11l0.12,0.08l0.11,0.04
		l0.23,0.03l0.04,0.03l0.1,0.1l0.08,0.11l0.05,0.11l0.08,0.09l0.13,0.07l0.16,0.01l0.12-0.01l0.11,0.01l0.14,0.1l0.02-0.09
		l-0.17-0.12l-0.08-0.07l-0.07-0.09l-0.11-0.37l-0.02-0.04l0.07-0.17l0.07,0.01l0.08,0.06l0.11-0.04l0.17-0.13l0.03-0.08l-0.25-0.17
		l-0.15-0.38l-0.31-0.21l-0.16-0.19l-0.13-0.22l-0.06-0.19L22.84,22.73z M86.01,28.92l-2.3-0.36l-2.29-0.36l-2.29-0.37l-2.29-0.37
		l-2.28-0.38l-2.29-0.38l-2.29-0.39l-2.28-0.39l-2.3-0.39l-2.28-0.4l-2.3-0.41l-2.28-0.41l-2.28-0.42l-2.28-0.43l-2.28-0.43
		l-2.28-0.43l-2.28-0.43l-2.28-0.44l-2.28-0.45l-2.28-0.44l-2.27-0.45l-2.28-0.46l-2.27-0.46l-2.27-0.46l-2.28-0.47l-1.02-0.21l0,0
		l0.08,0.25l0.04,0.27l-0.46-0.18l-0.25-0.01l-0.16,0.11v0.26l0.52,0.09l0.08,0.28l-0.06,0.07l-0.11,0.07l-0.12,0.1l-0.08,0.13
		l0.01,0.19l0.08,0.16l0.38,0.46l0.07,0.17v0.22l-0.12,0.34l0.13-0.17l0.17,0.15l0.16,0.27l0.04,0.2l-0.04,0.07l-0.18,0.11L27.97,22
		l-0.01,0.17l0.06,0.15l0.08,0.08l0.12-0.03l0.42-0.45l0.21-0.18l0.23-0.04l0.19,0.08l0.24,0.18l0.18,0.22l0.06,0.25l-0.33,0.38
		l-0.09,0.22l0.21,0.16l-0.01,0.07l-0.02,0.38l0.02,0.16l0.07,0.13l0.08,0.07l0.08,0.06l0.08,0.09l0.08,0.32l-0.02,0.33l-0.12,0.25
		l-0.24,0.06l-0.17-0.11l-0.35-0.42l-0.2-0.11h-0.23l0.09,0.15l0.36,0.35l0.09,0.22l0.06,0.23l0.01,0.24l-0.04,0.38v0.15l0.01,0.09
		l-0.02,0.09l-0.11,0.11l-0.14,0.03l-0.13-0.07l-0.11-0.12l-0.19-0.35l-0.16-0.16l-0.15,0.04l-0.08,0.37l-0.11-0.26l-0.1-0.41
		l-0.16-0.27l-0.31,0.14l-0.15,0.02l-0.17-0.05h-0.15l-0.06,0.16l0.07,0.09l0.13,0.06l0.12,0.12l0.01,0.26l-0.08,0.12l-0.12,0.07
		l-0.08,0.11l0.06,0.26l0.1,0.12l0.15,0.08l0.18,0.01l0.17-0.03l0.09-0.07l0.23-0.23l0.09-0.03l0.1,0.03l0.15,0.07l0.06,0.11
		l-0.18,0.11l-0.02,0.1l0.11,0.16l0.12,0.42l0.1,0.1l0.17,0.05l0.15,0.08l0.12,0.1l0.19,0.29l0.28,0.24l0.28,0.36l0.04,0.09
		l0.02,0.11v0.16l0.02,0.08l-0.21,0.26l-0.07,0.13l0.02,0.16l-0.13,0.04l-0.08-0.11l-0.06-0.16l-0.1-0.14l-0.16-0.06l-0.2-0.03
		l-0.38,0.03l-0.26,0.14l-0.17,0.26l-0.09,0.33v0.37l0.1,0.37l0.16,0.28l0.76,0.79l0.07,0.1l0.15,0.34l0.1,0.12l0.18,0.03
		l-0.12-0.49l-0.11-0.26l-0.15-0.13l-0.13-0.09l-0.16-0.18l-0.14-0.2l-0.08-0.16l-0.03-0.22l0.01-0.27l0.08-0.2l0.24-0.1l0.03-0.29
		l0.08-0.12l0.09-0.01l0.08,0.04l0.04,0.08l0.04,0.04l0.4,0.26l0.03,0.34l-0.11,0.44l-0.04,0.53l0.13,0.51l0.27,0.42l0.62,0.71
		l0.2-0.13l0.15,0.03L30.81,33l0.07,0.06l0.01,0.07l-0.06,0.05l-0.07,0.04l-0.07,0.04l-0.07,0.2l-0.08,0.18l-0.24,0.08l-0.1,0.06
		h-0.39l-0.1,0.04l-0.09,0.07l-0.24,0.1l-0.09,0.06l-0.07,0.1l-0.03,0.13l-0.15,0.18l-0.07,0.21l-0.09,0.3l-0.19,0.2l-0.36,0.18
		l-0.14,0.15l-0.11,0.17l-0.1,0.22l-0.08,0.27l0.03,0.24l0.09,0.17l-0.01,0.24l-0.01,0.24l-0.07,0.15l-0.22,0.21l-0.09,0.1
		l-0.04,0.12l-0.07,0.09l-0.13,0.01l-0.05,0.06l0.02,0.15l0.08,0.14l0.09,0.09l0.43,0.28l0.11,0.2l0.02,0.19l-0.06,0.22l-0.11,0.28
		l-0.08-0.14l-0.07-0.23l-0.09-0.17h-0.15l-0.17,0.14l-0.08,0.09l-0.01,0.14l0.08,0.67l0.03,0.17l0.08,0.21l0.01,0.17l-0.14,0.62
		l0.03,0.18l0.21,0.43l0.04,0.2l-0.03,0.27l-0.1,0.2l-0.15,0.12L27,42.45l-0.22,0.06l-0.21,0.08l-0.16,0.1l-0.11,0.13v0.13
		l0.08,0.12l0.16,0.16l-0.23,0.12l-0.17,0.03l-0.15-0.08l-0.33-0.39l-0.33-0.29l-0.16-0.18l-0.1,0.53l-0.25,0.48l-0.31,0.43
		l-1.1,0.97L23,45.1l-0.44,0.14l-0.01-0.16l-0.07-0.18l-0.1-0.15l-0.24-0.17l-0.07-0.16l-0.06-0.18l-0.06-0.15l-0.18-0.16
		l-0.07,0.07l-0.05,0.23v0.04l-0.11,0.04l-0.18,0.04l-0.15-0.01l0.1-0.09l0.07-0.11l0.03-0.12l-0.03-0.16l-0.48,0.23l-0.12,0.16
		l-0.03,0.17l0.01,0.2l-0.03,0.17l-0.16,0.11l0.04,0.18l0.03,0.21l-0.03,0.15l-0.15-0.05l-0.09-0.14l-0.01-0.34l-0.07-0.18
		l0.09-0.12l0.06-0.15l0.01-0.16l-0.03-0.14l-0.18,0.3L20,44.7l-0.27,0.08l-0.25-0.08l0.23-0.08l0.17-0.12l0.64-0.73l0.09-0.19
		l-0.11-0.08l-0.31,0.34l-0.06,0.03l-0.07,0.01l-1.02,0.43l-0.23,0.04l0.16-0.2l0.23-0.03l0.21-0.01l0.15-0.09V43.8l-0.2-0.04
		l-0.26,0.06l-0.18,0.06l0.16-0.19l0.29-0.07l0.59-0.03l0.31-0.17l0.23-0.27l0.54-1l0.09-0.09h0.18l0.14-0.02l0.19-0.08l0.3-0.19
		l0.15-0.24l0.33-0.65l0.19-0.18l-0.09,0.19l0.02,0.11l0.07,0.09l0.06,0.11l0.01,0.21v0.11l-0.08,0.39l-0.09,0.26l-0.13,0.2
		l-0.23,0.04l-0.07,0.34l0.03,0.69l0.18,0.51l0.37-0.2l0.02-0.09l-0.01-0.1l-0.02-0.09l-0.01-0.03l0.06-0.04l0.07-0.07l0.06-0.02
		l-0.01,0.07l0.09-0.1l0.08-0.06L23,43.12l-0.18-0.46l-0.01-0.21l0.09-0.19l0.21-0.2l0.07-0.11l0.03-0.13l0.06-0.11l0.08-0.03
		l0.1-0.02l0.09-0.07l0.1-0.09l0.1-0.07l0.39-0.09l0.17-0.11l0.13-0.25l-0.02,0.36l-0.16,0.21l-0.2,0.17l-0.12,0.22L23.8,42.1
		l-0.17,0.09l-0.06,0.12l0.23,0.25l0.75,0.51l0.16,0.03l0.18-0.27l0.01-0.24l-0.17-0.56l0.2-0.01l0.16-0.06l0.14-0.12l0.12-0.18
		l-0.13-0.35l0.11-0.3l0.2-0.3l0.16-0.34l0.14-0.25l0.2-0.27l0.07-0.25l-0.25-0.16l-0.05-0.21l0.06-0.36l-0.06-0.26l-0.38,0.12
		l-0.26,0.15l-0.28,0.11l-0.59,0.12l0.08-0.13l0.25-0.15l0.13-0.13l0.12-0.16v-0.03L24.8,38.5l-0.33-0.27l-0.07-0.1l-0.02-0.2
		l0.02-0.19l0.06-0.15l0.09-0.12l0.1-0.1l0.24,0.88l0.21,0.36l0.29-0.07l-0.06-0.12l0.09-0.08l-0.09-1.44l-0.03-0.1l-0.08-0.11
		l-0.08-0.09l-0.06-0.11l0.01-0.18l0.1-0.01l0.47,0.7l0.18-0.06l0.2-0.17l0.15-0.21l0.01-0.17l0.18,0.01l0.48,0.2h0.11l0.04-0.06
		l0.08-0.08l0.09-0.11l0.02-0.17l-0.04-0.12l-0.08-0.1L27,35.87l-0.09-0.04l0.2-0.19l-0.01-0.16l-0.09-0.14l-0.03-0.16l0.03-0.5
		l0.03-0.21L27,34.11l-0.21-0.27l-0.55-0.48l-0.01,0.13l0.12,0.39l0.02,0.1l0.03,0.71l-0.01,0.33l-0.09,0.2l-0.21-0.09l-0.02-0.12
		l0.06-0.11v-0.11l-0.17-0.08l-0.12,0.02l-0.14,0.08l-1.33,1.16l-0.15,0.2l-0.28,0.6l-0.1,0.17l-0.15,0.09l-0.27,0.08l-0.86,0.12
		l-0.73,0.27l-0.17,0.04l-0.99,0.89l-0.63,0.84l-0.12,0.13l-0.36,0.3L19.4,39.9l-0.07,0.19l0.16,0.38l0.42,0.09l0.87-0.17l0.83-0.3
		l0.45-0.09l0.29,0.12l-0.41,0.23l-0.4,0.14l-1.93,0.34L19,40.77l-0.28-0.3l0.07-0.2l0.39-0.52l0.26-0.49l0.24-0.18l0.26-0.14
		l0.2-0.17l0.52-0.73l0.17-0.19l1.03-0.81l0.15-0.07l0.14-0.02l0.1-0.06l0.14-0.3l0.22-0.18l0.17-0.29L23,35.81l0.28-0.13
		l-0.12-0.45l-0.02-0.27l0.03-0.22l0.16-0.21l0.09,0.1l0.01,0.27l-0.04,0.28l0.21-0.1l0.09-0.26l0.07-0.27l0.16-0.16l-0.03,0.53
		l-0.1,0.42l-0.37,0.87l-0.18,0.25L23.2,36.6l0.16,0.1h0.12l0.14-0.03l0.1-0.09l0.07-0.14l0.08-0.23l0.12-0.25l0.3-0.48l0.2-0.25
		l0.57-0.44l0.12-0.13l0.13-0.25l0.11-0.11h0.1l0.33,0.06l0.09-0.04l-0.02-0.18l-0.42-0.76l-0.02-0.12l0.03-0.31l-0.01-0.11
		l-0.05-0.1l-0.18-0.16l-0.07-0.11l-0.29-0.8l-0.02-0.22l-0.02-0.1l-0.08-0.12l-0.04-0.16l0.04-0.19l0.09-0.07l0.28-0.08l0.11-0.06
		l-0.14-0.38l-0.26-0.04l-0.33,0.08l-0.36,0.01l-0.15,0.06l-0.13,0.16l-0.08,0.2l0.01,0.18l0.33,0.51l0.09,0.22l-0.26,0.39
		l-0.17,0.11l-0.2-0.02l0.02-0.1l0.24-0.09l0.01-0.28l-0.1-0.32l-0.11-0.21l-0.12-0.08L23.47,31l-0.07-0.08l0.01-0.22l-0.03-0.15
		l-0.14-0.07l-0.17-0.02l-0.46-0.01l-0.1,0.17l-0.02,0.59l-0.12-0.02l-0.2-0.15l-0.12-0.24l0.15-0.32l-0.17-0.42l-0.24-0.34
		l-0.3-0.24l-0.39-0.15l0.02-0.11h0.16l0.16-0.04l0.12-0.08l0.08-0.17l-0.43,0.15l-0.83,0.44l-0.38,0.08l-1.71-0.46L18.08,29
		l0.02-0.07l0.1-0.01l0.09-0.01l0.11-0.03l-0.76-0.07l-0.19-0.07L17,28.47l-0.64-0.04l-0.29,0.06l-0.16-0.12l-0.24-0.28l-0.35-0.16
		l-0.76-0.11l-1.55-0.44l-1.34-0.68l-0.19-0.13l-0.24-0.51l-0.18-0.2l-0.75-0.53l-0.22-0.1L9.6,25.18l-0.17-0.09l-0.2-0.28
		l-0.09-0.07l-0.71-0.36l-0.34-0.41l-1.51-1.15L6.1,22.57L5.55,22.4l-0.07,0.2l0.03,0.19l0.24,0.36l0.2,0.25l0.03,0.06l-0.07,0.13
		l-0.2,0.18l-0.07,0.12l-0.11,0.52l-0.04,0.07l-0.11,0.08l-0.03,0.07l-0.01,0.07l0.04,0.11l-0.02,0.08l-0.17,0.45l-0.13,0.19
		l-0.19,0.06L4.81,25.7L5,26.47l-0.1,0.52l-0.07,0.52v0.54l0.06,0.56l0.09,0.52l0.23,0.69l0.07,0.08l0.27,0.1l0.11,0.08l0.09,0.1
		l0.49,0.82l0.09,0.28l0.04,0.51l0.06,0.18l0.1,0.11l0.12,0.07l0.09,0.09l-0.01,0.51l0.19,0.9l0.01,0.25l-0.15,1.17l0.01,0.6
		l-0.21,2.18l0.08,0.09l0.21,0.1l0.1,0.1l-0.08,0.1l-0.04,0.16l0.01,0.15l0.08,0.09l0.13,0.06l0.06,0.1l0.12,0.51l0.08,0.64v0.59
		L7.2,41.68l0.01,0.65l-0.03,0.32l-0.29,0.99l-0.07,0.15l-0.06,0.07l-0.04,0.16l-0.01,0.17l0.04,0.1l0.08-0.03l0.44-0.34l0.07-0.01
		l0.04-0.05l-0.02-0.1L7.3,43.61v-0.07l0.02-0.27l-0.04-0.24v-0.11l0.15-0.19l0.27-0.06l0.29,0.02l0.24,0.08l0.19,0.15l0.15,0.22
		l0.07,0.28l-0.01,0.3l0.08,0.2l0.28,0.09l0.55,0.06l-0.02,0.09l-0.03,0.02l-0.06,0.07l0.65,0.09l0.33,0.1l0.22,0.18l-0.85,0.04
		l-0.86,0.18l-0.36,0.13l-0.17,0.03L8.15,45l-0.19,0.07l-0.12,0.19l0.01,0.16l0.19-0.05l0.07,0.18l0.04,0.13l-0.02,0.12l-0.11,0.12
		L7.94,45.9l-0.12-0.11l-0.16-0.11l-0.16-0.01v-0.24l-0.16-0.32l0.09-0.16l-0.08-0.35l-0.25,0.15l-0.08,0.17l0.06,0.56v0.6
		l-0.07,0.99l0.04,0.2L7.2,47.4l0.37,0.11l0.18,0.02l0.09,0.03l0.1,0.1l0.08,0.11l0.09,0.06l0.16-0.06l-0.14-0.14l0.02-0.09
		l0.53,0.24l0.16-0.03l0.13-0.11l0.09-0.06l0.11,0.02l0.16,0.1l0.25,0.29l0.17,0.33l0.19,0.28l0.33,0.12l-0.17,0.12l-0.23,0.06
		l-0.17-0.07l-0.03-0.19l-0.02-0.27l-0.17-0.1l-0.37-0.01l-0.39,0.07l-0.2,0.31L8.5,49.07l0.15,0.42l-0.16-0.07l-0.25-0.27
		l-0.18-0.09l0.07,0.27l0.18,0.42l0.09,0.39l0.03,0.08l0.01,0.1l-0.02,0.19l-0.04,0.13l-0.07,0.1l-0.09,0.06l-0.27,0.02l-0.07,0.1
		L7.87,51.1l0.01,0.16l0.03,0.08l0.06,0.08l0.07,0.07l0.06,0.02l0.02,0.04L8.1,51.69v0.08l0.17,0.16l0.23,0.16l0.15,0.19l-0.12,0.26
		l-0.15-0.2l-0.39-0.41l-0.06-0.14l-0.09-0.01l-0.1,0.33l-0.2,0.28l-0.26,0.16L7,52.49l-0.12-0.22l-0.06-0.36l0.01-0.76l0.07-0.38
		l0.33-1.07l-0.01-0.34l-0.08-0.27l-0.01-0.24l0.19-0.26l-0.3,0.07L6.84,49.2l-0.36,2.4L6.32,52.2l-0.2,0.42l0.03,0.19l-0.03,0.15
		L5.99,53.2l-0.18,0.26l-0.12,0.16l-0.1,0.09l0.09,0.11l0.1,0.03l0.24-0.04l0.06,0.02l0.03,0.06l0.03,0.03l0.1-0.07l-0.02-0.02
		L6.2,53.74v-0.11l0.02-0.07l0.21-0.12l0.19,0.01l0.18,0.11l0.15,0.16l0.43,0.69l0.23,0.16l0.28,0.04l0.24-0.1l0.21-0.14l0.26-0.09
		l0.12,0.02l0.33,0.17h0.11l0.17-0.09l0.35-0.03l0.12-0.11l0.1-0.05l0.12,0.2l0.03,0.14v0.12l0.02,0.11l0.61,0.28l1.37,0.06
		l0.3,0.11l0.24,0.19l0.04,0.3l0.01,0.27l0.13,0.24l0.7,0.81l0.18,0.15l0.29,0.1h0.26l0.52-0.12l0.27,0.04l0.71,0.02l0.19,0.1
		l0.12,0.16l0.31,0.35l0.14,0.11l0.31,0.12l0.32,0.21l0.29,0.26l0.24,0.26l0.15,0.27l0.12,0.33l0.08,0.35v0.57l0.11,0.19l0.15,0.17
		l0.11,0.21l0.01,0.25l-0.04,0.66l0.09,0.54l-0.07,0.26l-0.11,0.28l-0.07,0.33l0.17,0.45l0.01,0.15l-0.04,0.16l-0.1,0.27l-0.04,0.16
		l-0.07,0.56v0.34l0.06,0.26l0.15,0.24l0.21,0.25l0.24,0.2l0.81,0.33l0.46-0.01l0.16,0.03l0.31,0.25l0.53,0.25l0.28,0.24l0.91,0.2
		L23.02,68l0.21-0.01l0.21-0.08l0.86-0.07l2.07-0.3l0.48-0.17l0.86-0.44l0.49-0.15l0.31,0.01l0.78,0.32l1.64,0.04l3.16,0.92
		l0.48,0.27l0.18,0.21l0.07,0.24l0.04,0.27l0.08,0.33l0.17,0.17l0.25,0.02l1.03-0.22h0.06l0.24,0.05l0.11,0.06l0.06,0.01l0.36,0.06
		l0.11,0.03l0.15,0.1l0.45,0.13l0.48-0.03l0.15,0.02l0.07-0.01l0.54-0.27l0.09-0.01h0.8l0.54-0.1l0.07-0.1l0.09-0.07l0.31-0.12h0.12
		l1.58,0.6l0.12,0.01l0.28-0.07h0.1l0.54,0.19l0.12,0.01l0.27-0.04l0.47-0.16l0.11-0.01l0.17,0.03l0.3,0.12l0.17,0.01l0.33-0.07
		l0.32-0.15l0.38-0.25l0.23-0.08l0.52,0.01l1.7-0.34l3.03,0.04l0.52-0.26l0.37-0.31l0.19-0.06l0.29,0.01l0.74,0.17h0.56h0.98
		l2.69,0.43l0.56-0.13l0.54-0.42l0.1,0.01l0.49,0.09l1.4,0.24l1.39,0.24l1.39,0.24l1.38,0.22l1.39,0.24l2.79,0.46l1.39,0.22
		l1.4,0.23l1.39,0.22l1.4,0.22l1.39,0.21l1.4,0.22l1.39,0.21l1.39,0.21l1.47,0.22l-0.16-0.69l-0.46-0.78l-0.04-0.17l0.38-0.28
		l0.16-0.18l0.16-0.28l0.04-0.3l-0.18-0.43l-0.01-0.72l-0.1-0.33l-0.27-0.63l-0.42-0.7l-0.04-0.23l0.08-0.26l0.24-0.43l0.06-0.42
		l0.35-2.28l0.35-2.27l0.34-2.28l0.35-2.27l0.34-2.27l0.35-2.26l0.34-2.27l0.35-2.26l0.34-2.26l0.34-2.26l0.35-2.26l0.34-2.25
		l0.34-2.25l0.35-2.25l0.34-2.25l0.34-2.24L86.01,28.92z M24.92,17.71l-0.57-0.11v0.07l-0.04,0.23l0.48-0.08L24.92,17.71z
		 M22.33,22.05l0.07-0.03l-0.01-0.08l-0.09-0.06l-0.01-0.03l0.08,0.02l0.1,0.08l0.07,0.01l0.06-0.06l-0.01-0.07l-0.03-0.04
		l-0.03-0.01l-0.11,0.04l-0.07-0.01l-0.11-0.1l-0.01-0.04l-0.06-0.08L22,21.52l-0.1,0.03l0.02,0.1L22.33,22.05z M27.63,25.06
		l0.19,0.05l0.25-0.05l0.09,0.01l0.08,0.09h0.07l0.02-0.1v-0.13l-0.41-0.4l-0.11-0.25l-0.08-0.04l-0.06,0.1l-0.03,0.12l0.02,0.07
		l-0.11,0.33L27.63,25.06z"/>
</g>
<g id="WISCONSIN">
</g>
<g id="WEST_VIRGINIA">
</g>
<g id="WYOMING">
</g>
</svg>
