<?xml version="1.0" encoding="UTF-8"?>
<svg id="WASHINGTON" xmlns="http://www.w3.org/2000/svg" viewBox="0 0 90 90">
  <defs>
    <style>
      .cls-1 {
        fill: #e2e2e2;
        stroke: #f9f9f9;
        stroke-linecap: round;
        stroke-linejoin: round;
        stroke-width: .03px;
      }
    </style>
  </defs>
  <path id="WA" class="cls-1" d="M26.07,24.83l-.33-.08-.11,.04-.08,.07v.04s.07,.09,.07,.09l.02,.07,.03,.03v.08s-.07,.17-.07,.17l.03,.02h.02s.03-.06,.03-.06l.17-.09,.17-.16,.02-.06h-.02s-.03-.06-.03-.06l.03-.09,.03-.03Zm-.7,1.41l.18-.1,.12-.19,.02-.24-.09-.23-.2,.14-.12-.05-.07-.18v-.24s.15-.45,.15-.45l.03-.26-.1-.41h-.1s-.29,.19-.29,.19l-.04,.08-.07,.1-.02,.13,.03,.16-.17,.06-.17,.17-.11,.24v.26l.15,.13,.24,.1,.14,.11-.11,.24,.62,.22Zm-.95-3.81l-.1,.03-.29,.2-.08,.07-.03,.15,.02,.11,.09,.21,.11,.15,.1-.09,.08-.2,.04-.19,.07-.07,.11,.09,.15,.19,.03,.15v.17s.07,.16,.07,.16l.16,.09,.3,.04,.15-.02,.16-.09-.34-.89,.07-.1v-.08s0-.09,0-.09l.02-.16,.07-.11,.11-.02,.09,.08,.02,.12v.16s.06,.42,.06,.42l.17,.45,.08,.15,.1,.07h.12l.06-.08,.03-.09,.06-.08,.51-.19,.08-.05,.08-.12-1.02-.87-.39-.13-.23-.03h-.12s-.63,.47-.63,.47l-.12,.03Zm.83,9.11l.02,.2,.08,.3,.14,.25,.2,.04,.14-.21,.03-.36-.03-.36-.08-.38-.07-.08-.1-.02-.12,.06,.14,.22,.06,.29-.04,.22-.16-.02-.02-.1,.03-.3-.04-.11h-.1s-.04,.1-.04,.1v.27Zm.17-10.33h-.03l.02,.09,.04,.04h-.03s.03,.04,.03,.04l.07,.04,.02-.02-.02-.03h.03l.04,.07,.12,.04-.11-.18h-.04s-.08-.07-.08-.07l.1-.03h.09s.12,.07,.12,.07l-.09-.1-.13-.07h-.15s-.02,.06-.02,.06l.03,.03v.02h-.02Zm-1.29,2.67v.08l.33,.18,.08-.03,.02-.08,.03-.04,.03-.03h.06l.07,.02h.08s.07-.04,.07-.04l.07-.11v-.11s-.09-.02-.09-.02h-.08l-.04,.02v.07s-.06,.01-.06,.01l-.02-.07,.02-.07v-.03s-.2-.08-.2-.08l-.08-.09-.37,.04-.12-.02-.02,.04,.03,.06,.12,.04,.03,.03,.09,.18v.05h-.04Zm3.6,3.09l-.11,.02-.13,.1-.17,.03-.27-.06-.19,.28-1.19,1.42-.1,.27,.04,.36,.07,.11,.11,.12,.12,.11,.1,.04,.06,.08,.17,.47,.29-.1,.23,.02,.13,.17v.35s-.3,.74-.3,.74v.23l.13,.29-.06,.24,.08,.31,.13,.28,.12,.13,.07,.13,.08,.09,.13,.03,.12-.03,.24-.17h.14s.13,.17,.13,.17l.06,.28v.34l-.03,.31,.04,.08h.15l.25-.04,.04,.04v.09s-.01,.08-.01,.08l.07,.02,.06-.03,.06-.09,.07-.06,.26-.28,.07-.04,.04-.06v-.16s-.06-.24-.06-.24v-.34l-.11-.27-.72-.7-.15-.2-.12-.24-.19-.2-.13,.14-.06,.33,.08,.33-.19,.3-.17,.06-.08-.18,.06-.71,.12-.79v-.66l-.03-.33-.11-.27-.2-.15-.11-.06-.21-.19-.13-.06-.34,.02-.15-.06-.1-.2h.63s.17-.07,.17-.07l.07-.17,.07-.26,.08-.09,.09,.33,.11-.19,.17-.21,.18-.09,.17,.18,.1,.19,.16,.1h.17l.17-.11,.09-.39-.54-.62,.04-.29-.03-.06v-.16l-.07-.17Zm.55-4.37l-.03-.04h-.13s-.08-.04-.08-.04l.08,.09,.2,.24,.11-.03,.04-.2-.02-.09-.07-.07v.03s.01,.12,.01,.12h-.03s-.08,0-.08,0Zm-.45-.06l-.2-.48-.16-.1-.09,.19v.15s.12,.13,.12,.13l.19,.33,.12,.28,.06,.1,.19,.22,.11,.11,.09-.02v-.15l-.03-.16-.04-.14-.06-.1-.1-.12-.14-.14-.07-.11Zm-.54,1.09l.16,.18,.18,.11v-.12s0-.1,0-.1l-.04-.07-.21-.02-.08,.02Zm-.06,.43l-.04-.12-.11-.1-.14,.03-.11,.13-.06,.18,.06,.44,.08,.11,.11,.02h.1l.07-.04,.06-.13,.09-.09,.06-.04-.02-.07-.12-.21v-.1Zm-1,17.69l-.16,.02-.11,.13-.04,.19,.02,.19,.24-.11,.4-.26,.5-.09h.08s-.18-.18-.18-.18l-.18-.12-.15-.16-.09-.27v-.15l.04-.29v-.16s-.04-.14-.04-.14l-.08-.09-.02-.1,.1-.18-.17,.03-.24,.15-.2,.18-.1,.16-.29,1.04-.06,.08-.09,.1-.07,.12v.16s.08,.15,.08,.15l.07,.09,.07,.03,.09-.06,.07-.1,.06-.13,.06-.28,.07-.08,.12-.04,.23-.04-.06-.11h.18l.05,.12-.06,.14-.12,.06Zm-.66-3.45l.06,.1h.15l.16,.07,.16,.35,.22,.09,.14-.12,.1-.07-.08-.06-.03-.07v-.19l-.02-.08,.02-.1-.09-.15h.09s.07-.06,.07-.06l.11-.09-.09-.13-.02-.22,.04-.47-.04-.1-.08-.11-.1-.1-.1-.05-.11,.02-.03,.11-.02,.15-.07,.13-.23,.19-.04,.08-.02,.21v.16s.07,.14,.07,.14l-.06,.16-.13,.21Zm-2.58,5.67h-.15s-.08,.1-.08,.1l-.09,.13-.1,.04-.1,.04v.14s.06,.02,.06,.02l.11,.18,.08,.08,.08,.08h.06s.14-.04,.14-.04l.17-.11,.09-.21,.05-.13v-.17s-.1-.09-.1-.09l-.2-.06Zm-1.47-1.59l.04-.13,.17-.07,.1-.17-.13,.06-.08,.02-.2,.04-.1,.06-.16-.03-.09,.11-.08,.19-.12,.25-.03,.11,.08,.17,.12,.17,.05,.14v.11s.03,.19,.03,.19v.12l.06,.08,.18-.11,.16-.2,.04-.19,.03-.18-.07-.19-.09-.18,.06-.18,.03-.18Zm-14.21,8.66l-.08,.11,.12,.16,.19,.52,.08-.13,.06-.15,.08-.34-.02-.12-.16-.2-.02-.19v-.06l-.02-.13-.09,.07-.1,.08,.02,.14v.13s-.06,.12-.06,.12Zm15.22-28.75l.14,.08,.08,.08,.33,.12h.01s-.02-.04-.02-.04h-.03s-.06-.08-.06-.08l-.11-.06-.15-.08-.06-.03-.1-.04-.02,.06Zm1.4-.4l-.03,.21,.04,.03,.29-.09,.06-.07v-.07s.06-.27,.06-.27l-.03-.08h-.29l-.07,.06-.16,.07-.08,.06,.18,.12,.03,.02Zm-1.11,.84h-.33s-.25,.19-.25,.19l-.02,.29v.07s-.02,.44-.02,.44l.03,.45,.03,.11,.08,.17,.08,.1,.12,.11,.12,.08,.11,.04,.23,.03,.04,.03,.1,.1,.08,.11,.05,.11,.08,.09,.13,.07h.16s.12,0,.12,0h.11s.14,.11,.14,.11l.02-.09-.17-.12-.08-.07-.07-.09-.11-.37-.02-.04,.07-.17h.07s.08,.07,.08,.07l.11-.04,.17-.13,.03-.08-.25-.17-.15-.38-.31-.21-.16-.19-.13-.22-.06-.19-.25-.2Zm63.17,6.19l-2.3-.36-2.29-.36-2.29-.37-2.29-.37-2.28-.38-2.29-.38-2.29-.39-2.28-.39-2.3-.39-2.28-.4-2.3-.41-2.28-.41-2.28-.42-2.28-.43-2.28-.43-2.28-.43-2.28-.43-2.28-.44-2.28-.45-2.28-.44-2.27-.45-2.28-.46-2.27-.46-2.27-.46-2.28-.47-1.02-.21h0l.08,.25,.04,.27-.46-.18h-.25s-.16,.1-.16,.1v.26l.52,.09,.08,.28-.06,.07-.11,.07-.12,.1-.08,.13v.19s.09,.16,.09,.16l.38,.46,.07,.17v.22l-.12,.34,.13-.17,.17,.15,.16,.27,.04,.2-.04,.07-.18,.11-.05,.07v.17s.05,.15,.05,.15l.08,.08,.12-.03,.42-.45,.21-.18,.23-.04,.19,.08,.24,.18,.18,.22,.06,.25-.33,.38-.09,.22,.21,.16v.07s-.03,.38-.03,.38l.02,.16,.07,.13,.08,.07,.08,.06,.08,.09,.08,.32-.02,.33-.12,.25-.24,.06-.17-.11-.35-.42-.2-.11h-.23l.09,.15,.36,.35,.09,.22,.06,.23v.24s-.03,.38-.03,.38v.24s-.01,.09-.01,.09l-.11,.11-.14,.03-.13-.07-.11-.12-.19-.35-.16-.16-.15,.04-.08,.37-.11-.26-.1-.41-.16-.27-.31,.14-.15,.02-.17-.05h-.15l-.06,.16,.07,.09,.13,.06,.12,.12v.26s-.07,.12-.07,.12l-.12,.07-.08,.11,.06,.26,.1,.12,.15,.08h.18s.17-.02,.17-.02l.09-.07,.23-.23,.09-.03,.1,.03,.15,.07,.06,.11-.18,.11-.02,.1,.11,.16,.12,.42,.1,.1,.17,.05,.15,.08,.12,.1,.19,.29,.28,.24,.28,.36,.04,.09,.02,.11v.16l.02,.08-.21,.26-.07,.13,.02,.16-.13,.04-.08-.11-.06-.16-.1-.14-.16-.06-.2-.03-.38,.03-.26,.14-.17,.26-.09,.33v.37l.1,.37,.16,.28,.76,.79,.07,.1,.15,.34,.1,.12,.18,.03-.12-.49-.11-.26-.15-.13-.13-.09-.16-.18-.14-.2-.08-.16-.03-.22v-.27s.09-.2,.09-.2l.24-.1,.03-.29,.08-.12h.09s.08,.03,.08,.03l.04,.08,.04,.04,.4,.26,.03,.34-.11,.44-.04,.53,.13,.51,.27,.42,.62,.71,.2-.13,.15,.03,.06,.07,.07,.06v.07s-.05,.05-.05,.05l-.07,.04-.07,.04-.07,.2-.08,.18-.24,.08-.1,.06h-.39l-.1,.04-.09,.07-.24,.1-.09,.06-.07,.1-.03,.13-.15,.18-.07,.21-.09,.3-.19,.2-.36,.18-.14,.15-.11,.17-.1,.22-.08,.27,.03,.24,.09,.17v.24s-.02,.24-.02,.24l-.07,.15-.22,.21-.09,.1-.04,.12-.07,.09h-.13s-.05,.07-.05,.07l.02,.15,.08,.14,.09,.09,.43,.28,.11,.2,.02,.19-.06,.22-.11,.28-.08-.14-.07-.23-.09-.17h-.15l-.17,.14-.08,.09v.14s.07,.67,.07,.67l.03,.17,.08,.21v.17s-.12,.62-.12,.62l.03,.18,.21,.43,.04,.2-.03,.27-.1,.2-.15,.12-.36,.02-.22,.06-.21,.08-.16,.1-.11,.13v.13l.08,.12,.16,.16-.23,.12-.17,.03-.15-.08-.33-.39-.33-.29-.16-.18-.1,.53-.25,.48-.31,.43-1.1,.97-.42,.26-.44,.14v-.16s-.08-.18-.08-.18l-.1-.15-.24-.17-.07-.16-.06-.18-.06-.15-.18-.16-.07,.07-.05,.23v.04l-.11,.04-.18,.04h-.15s.1-.1,.1-.1l.07-.11,.03-.12-.03-.16-.48,.23-.12,.16-.03,.17v.2s-.02,.17-.02,.17l-.16,.11,.04,.18,.03,.21-.03,.15-.15-.05-.09-.14v-.34s-.08-.18-.08-.18l.09-.12,.06-.15v-.16s-.02-.14-.02-.14l-.18,.3-.25,.2-.27,.08-.25-.08,.23-.08,.17-.12,.64-.73,.09-.19-.11-.08-.31,.34-.06,.03h-.07s-1.02,.44-1.02,.44l-.23,.04,.16-.2,.23-.03h.21s.15-.1,.15-.1v-.21l-.2-.04-.26,.06-.18,.06,.16-.19,.29-.07,.59-.03,.31-.17,.23-.27,.54-1,.09-.09h.18l.14-.02,.19-.08,.3-.19,.15-.24,.33-.65,.19-.18-.09,.19,.02,.11,.07,.09,.06,.11v.21s.01,.11,.01,.11l-.08,.39-.09,.26-.13,.2-.23,.04-.07,.34,.03,.69,.18,.51,.37-.2,.02-.09v-.1s-.03-.09-.03-.09v-.03s.05-.04,.05-.04l.07-.07,.06-.02v.07s.08-.1,.08-.1l.08-.06,.03-.08-.18-.46v-.21s.08-.19,.08-.19l.21-.2,.07-.11,.03-.13,.06-.11,.08-.03,.1-.02,.09-.07,.1-.09,.1-.07,.39-.09,.17-.11,.13-.25-.02,.36-.16,.21-.2,.17-.12,.22-.14,.17-.17,.09-.06,.12,.23,.25,.75,.51,.16,.03,.18-.27v-.24s-.16-.56-.16-.56h.2s.16-.07,.16-.07l.14-.12,.12-.18-.13-.35,.11-.3,.2-.3,.16-.34,.14-.25,.2-.27,.07-.25-.25-.16-.05-.21,.06-.36-.06-.26-.38,.12-.26,.15-.28,.11-.59,.12,.08-.13,.25-.15,.13-.13,.12-.16v-.03h-.08s-.33-.28-.33-.28l-.07-.1-.02-.2,.02-.19,.06-.15,.09-.12,.1-.1,.24,.88,.21,.36,.29-.07-.06-.12,.09-.08-.09-1.44-.03-.1-.08-.11-.08-.09-.06-.11v-.18s.11-.01,.11-.01l.47,.7,.18-.06,.2-.17,.15-.21v-.17s.19,.01,.19,.01l.48,.2h.11l.04-.06,.08-.08,.09-.11,.02-.17-.04-.12-.08-.1-.1-.08-.09-.04,.2-.19v-.16s-.1-.14-.1-.14l-.03-.16,.03-.5,.03-.21-.04-.36-.21-.27-.55-.48v.13s.11,.39,.11,.39l.02,.1,.03,.71v.33s-.1,.2-.1,.2l-.21-.09-.02-.12,.06-.11v-.11l-.17-.08-.12,.02-.14,.08-1.33,1.16-.15,.2-.28,.6-.1,.17-.15,.09-.27,.08-.86,.12-.73,.27-.17,.04-.99,.89-.63,.84-.12,.13-.36,.3-.17,.19-.07,.19,.16,.38,.42,.09,.87-.17,.83-.3,.45-.09,.29,.12-.41,.23-.4,.14-1.93,.34-.6-.07-.28-.3,.07-.2,.39-.52,.26-.49,.24-.18,.26-.14,.2-.17,.52-.73,.17-.19,1.03-.81,.15-.07,.14-.02,.1-.06,.14-.3,.22-.18,.17-.29,.23-.29,.28-.13-.12-.45-.02-.27,.03-.22,.16-.21,.09,.1v.27s-.03,.28-.03,.28l.21-.1,.09-.26,.07-.27,.16-.16-.03,.53-.1,.42-.37,.87-.18,.25-.02,.16,.16,.1h.12l.14-.03,.1-.09,.07-.14,.08-.23,.12-.25,.3-.48,.2-.25,.57-.44,.12-.13,.13-.25,.11-.11h.1l.33,.06,.09-.04-.02-.18-.42-.76-.02-.12,.03-.31v-.11s-.06-.1-.06-.1l-.18-.16-.07-.11-.29-.8-.02-.22-.02-.1-.08-.12-.04-.16,.04-.19,.09-.07,.28-.08,.11-.06-.14-.38-.26-.04-.33,.08h-.36s-.15,.07-.15,.07l-.13,.16-.08,.2v.18s.34,.51,.34,.51l.09,.22-.26,.39-.17,.11-.2-.02,.02-.1,.24-.09v-.28s-.09-.32-.09-.32l-.11-.21-.12-.08-.11-.02-.07-.08v-.22s-.02-.15-.02-.15l-.14-.07-.17-.02h-.46s-.1,.16-.1,.16l-.02,.59-.12-.02-.2-.15-.12-.24,.15-.32-.17-.42-.24-.34-.3-.24-.39-.15,.02-.11h.16l.16-.04,.12-.08,.08-.17-.43,.15-.83,.44-.38,.08-1.71-.46-.19-.15,.02-.07h.1s.09-.02,.09-.02l.11-.03-.76-.07-.19-.07-.45-.27-.64-.04-.29,.06-.16-.12-.24-.28-.35-.16-.76-.11-1.55-.44-1.34-.68-.19-.13-.24-.51-.18-.2-.75-.53-.22-.1-.48-.04-.17-.09-.2-.28-.09-.07-.71-.36-.34-.41-1.51-1.15-.48-.26-.55-.17-.07,.2,.03,.19,.24,.36,.2,.25,.03,.06-.07,.13-.2,.18-.07,.12-.11,.52-.04,.07-.11,.08-.03,.07v.07s.03,.11,.03,.11l-.02,.08-.17,.45-.13,.19-.19,.06-.06,.11,.19,.77-.1,.52-.07,.52v.54l.06,.56,.09,.52,.23,.69,.07,.08,.27,.1,.11,.08,.09,.1,.49,.82,.09,.28,.04,.51,.06,.18,.1,.11,.12,.07,.09,.09v.51s.18,.9,.18,.9v.25s-.14,1.17-.14,1.17v.6s-.2,2.18-.2,2.18l.08,.09,.21,.1,.1,.1-.08,.1-.04,.16v.15s.09,.09,.09,.09l.13,.06,.06,.1,.12,.51,.08,.64v.59l-.14,1.17v.65s-.02,.32-.02,.32l-.29,.99-.07,.15-.06,.07-.04,.16v.17s.03,.1,.03,.1l.08-.03,.44-.34h.07s.04-.06,.04-.06l-.02-.1-.06-.15v-.07l.02-.27-.04-.24v-.11l.15-.19,.27-.06,.29,.02,.24,.08,.19,.15,.15,.22,.07,.28v.3s.07,.2,.07,.2l.28,.09,.55,.06-.02,.09-.03,.02-.06,.07,.65,.09,.33,.1,.22,.18-.85,.04-.86,.18-.36,.13-.17,.03-.24-.02-.19,.07-.12,.19v.16s.2-.05,.2-.05l.07,.18,.04,.13-.02,.12-.11,.12-.07-.03-.12-.11-.16-.11h-.16v-.25l-.16-.32,.09-.16-.08-.35-.25,.15-.08,.17,.06,.56v.6l-.07,.99,.04,.2,.13,.12,.37,.11,.18,.02,.09,.03,.1,.1,.08,.11,.09,.06,.16-.06-.14-.14,.02-.09,.53,.24,.16-.03,.13-.11,.09-.06,.11,.02,.16,.1,.25,.29,.17,.33,.19,.28,.33,.12-.17,.12-.23,.06-.17-.07-.03-.19-.02-.27-.17-.1h-.37s-.39,.06-.39,.06l-.2,.31-.02,.43,.15,.42-.16-.07-.25-.27-.18-.09,.07,.27,.18,.42,.09,.39,.03,.08v.1s-.01,.19-.01,.19l-.04,.13-.07,.1-.09,.06-.27,.02-.07,.1v.17s0,.16,0,.16l.03,.08,.06,.08,.07,.07,.06,.02,.02,.04v.15s-.01,.08-.01,.08l.17,.16,.23,.16,.15,.19-.12,.26-.15-.2-.39-.41-.06-.14h-.09s-.1,.31-.1,.31l-.2,.28-.26,.16-.27-.04-.12-.22-.06-.36v-.76s.08-.38,.08-.38l.33-1.07v-.34s-.09-.27-.09-.27v-.24s.18-.26,.18-.26l-.3,.07-.17,.54-.36,2.4-.16,.61-.2,.42,.03,.19-.03,.15-.13,.25-.18,.26-.12,.16-.1,.09,.09,.11,.1,.03,.24-.04,.06,.02,.03,.06,.03,.03,.1-.07-.02-.02v-.09s-.01-.11-.01-.11l.02-.07,.21-.12h.19s.18,.12,.18,.12l.15,.16,.43,.69,.23,.16,.28,.04,.24-.1,.21-.14,.26-.09,.12,.02,.33,.17h.11l.17-.09,.35-.03,.12-.11,.1-.05,.12,.2,.03,.14v.12l.02,.11,.61,.28,1.37,.06,.3,.11,.24,.19,.04,.3v.27s.15,.24,.15,.24l.7,.81,.18,.15,.29,.1h.26l.52-.12,.27,.04,.71,.02,.19,.1,.12,.16,.31,.35,.14,.11,.31,.12,.32,.21,.29,.26,.24,.26,.15,.27,.12,.33,.08,.35v.57l.11,.19,.15,.17,.11,.21v.25s-.03,.66-.03,.66l.09,.54-.07,.26-.11,.28-.07,.33,.17,.45v.15s-.03,.16-.03,.16l-.1,.27-.04,.16-.07,.56v.34l.06,.26,.15,.24,.21,.25,.24,.2,.81,.33h.46s.16,.02,.16,.02l.31,.25,.53,.25,.28,.24,.91,.2,.81,.48h.21s.21-.09,.21-.09l.86-.07,2.07-.3,.48-.17,.86-.44,.49-.15h.31s.78,.33,.78,.33l1.64,.04,3.16,.92,.48,.27,.18,.21,.07,.24,.04,.27,.08,.33,.17,.17,.25,.02,1.03-.22h.06l.24,.05,.11,.06h.06s.36,.07,.36,.07l.11,.03,.15,.1,.45,.13,.48-.03,.15,.02h.07s.54-.28,.54-.28h.09s.8-.01,.8-.01l.54-.1,.07-.1,.09-.07,.31-.12h.12l1.58,.6h.12s.28-.06,.28-.06h.1l.54,.19h.12s.27-.03,.27-.03l.47-.16h.11s.17,.02,.17,.02l.3,.12h.17s.33-.06,.33-.06l.32-.15,.38-.25,.23-.08h.52s1.7-.33,1.7-.33l3.03,.04,.52-.26,.37-.31,.19-.06h.29s.74,.18,.74,.18h1.54l2.69,.43,.56-.13,.54-.42h.1s.49,.1,.49,.1l1.4,.24,1.39,.24,1.39,.24,1.38,.22,1.39,.24,2.79,.46,1.39,.22,1.4,.23,1.39,.22,1.4,.22,1.39,.21,1.4,.22,1.39,.21,1.39,.21,1.47,.22-.16-.69-.46-.78-.04-.17,.38-.28,.16-.18,.16-.28,.04-.3-.18-.43v-.72s-.11-.33-.11-.33l-.27-.63-.42-.7-.04-.23,.08-.26,.24-.43,.06-.42,.35-2.28,.35-2.27,.34-2.28,.35-2.27,.34-2.27,.35-2.26,.34-2.27,.35-2.26,.34-2.26,.34-2.26,.35-2.26,.34-2.25,.34-2.25,.35-2.25,.34-2.25,.34-2.24-1.26-.2ZM24.92,17.71l-.57-.11v.07l-.04,.23,.48-.08,.14-.1Zm-2.59,4.34l.07-.03v-.08s-.1-.06-.1-.06v-.03s.07,.02,.07,.02l.1,.08h.07s.06-.04,.06-.04v-.07s-.04-.04-.04-.04h-.03s-.11,.03-.11,.03h-.07s-.11-.11-.11-.11v-.04s-.07-.08-.07-.08l-.16-.07-.1,.03,.02,.1,.42,.39Zm5.3,3.01l.19,.05,.25-.05h.09s.08,.1,.08,.1h.07l.02-.1v-.13l-.41-.4-.11-.25-.08-.04-.06,.1-.03,.12,.02,.07-.11,.33,.08,.21Z"/>
  <g>
    <path d="M51.8,43.09l-1.22,5.09h-1.53l-.81-3.41-.82,3.41h-1.53l-1.22-5.09h1.34l.66,3.69,.89-3.69h1.35l.89,3.69,.66-3.69h1.33Z"/>
    <path d="M55.6,47.25h-1.91l-.32,.93h-1.3l1.86-5.05h1.42l1.86,5.05h-1.31l-.32-.93Zm-.32-.94l-.63-1.87-.64,1.87h1.27Z"/>
  </g>
</svg>