<?xml version="1.0" encoding="utf-8"?>
<!-- Generator: Adobe Illustrator 26.5.0, SVG Export Plug-In . SVG Version: 6.00 Build 0)  -->
<svg version="1.1" xmlns="http://www.w3.org/2000/svg" xmlns:xlink="http://www.w3.org/1999/xlink" x="0px" y="0px"
	 viewBox="0 0 90 90" style="enable-background:new 0 0 90 90;" xml:space="preserve">
<style type="text/css">
	.st0{fill:#CECECE;stroke:#F9F9F9;stroke-width:0.025;stroke-linecap:round;stroke-linejoin:round;}
	.st1{display:none;fill:none;stroke:#47CCCC;stroke-width:0.5;stroke-linecap:round;stroke-linejoin:round;}
	.st2{fill:#CECECE;}
</style>
<g id="ALABAMA">
</g>
<g id="ALASKA">
</g>
<g id="ARIZONA">
</g>
<g id="ARKANSAS_1_">
</g>
<g id="CALIFORNIA">
</g>
<g id="COLORADO">
</g>
<g id="CONNECTICUT">
</g>
<g id="DELAWARE">
</g>
<g id="DC">
</g>
<g id="FLORIDA">
</g>
<g id="GEORGIA">
</g>
<g id="HAWAII">
</g>
<g id="IDAHO">
</g>
<g id="IOWA">
</g>
<g id="ILLINOIS">
</g>
<g id="INDIANA">
</g>
<g id="KANSAS">
</g>
<g id="KETUCKY">
</g>
<g id="LOUISANA">
</g>
<g id="MAINE">
</g>
<g id="MARYLAND">
</g>
<g id="MASSACHUSETTS">
</g>
<g id="MICHIGAN">
</g>
<g id="MINNESOTA">
</g>
<g id="MISSOURI">
</g>
<g id="MISSISSIPPI">
</g>
<g id="MONTANA">
</g>
<g id="NORTH_CAROLINA">
</g>
<g id="NORTH_DAKOTA">
</g>
<g id="NEBRASKA">
</g>
<g id="NEW_HAMPSHIRE">
</g>
<g id="NEW_JERSEY">
</g>
<g id="NEW_YORK">
</g>
<g id="NEW_MEXICO">
</g>
<g id="NEVADA">
</g>
<g id="OHIO">
</g>
<g id="OKLAHOMA">
</g>
<g id="OREGON">
</g>
<g id="PENNSYLVANIA">
</g>
<g id="RHODE_ISLAND">
</g>
<g id="SOUTH_CAROLINA">
</g>
<g id="SOUTH_DAKOTA">
</g>
<g id="TENNESSEE">
</g>
<g id="TEXAS">
</g>
<g id="UTAH">
</g>
<g id="VIRGINIA">
</g>
<g id="VERMONT">
</g>
<g id="WASHINGTON">
</g>
<g id="WISCONSIN">
</g>
<g id="WEST_VIRGINIA">
	<path id="WV_1_" class="st0" d="M55.53,24.22l1.77,10.47l0.05,0.06l0.08-0.02l0.14-0.11l0.17-0.17l1.51-1.93l0.13-0.06l0.64-0.25
		l0.12-0.08l0.05-0.09l0.11-0.47l0.08-0.2l0.17-0.25l0.39-0.44l0.67-0.54l0.08-0.06l0.05-0.09l0.14-0.3l0.26-0.28l0.05-0.08
		l0.05-0.08l0.03-0.09l0.03-0.06l0.09-0.56l0.03-0.09l0.05-0.11l0.08-0.08l0.55-0.42l0.12-0.05l0.14-0.02l0.29,0.06l0.3,0.09
		l0.36,0.23l0.19,0.06h0.13l0.14-0.03l0.16-0.11L64.98,28l0.05-0.09l0.12-0.28l0.76-1.17l0.16-0.3l0.09-0.31l0.05-0.08l0.05-0.08
		l0.06-0.06l0.06-0.06l0.08-0.05l0.26-0.11l0.09-0.06l0.03-0.06l-0.03-0.05l-0.08-0.11l-0.03-0.08l-0.02-0.11l0.02-0.12l0.03-0.09
		l0.17-0.41l0.05-0.19l0.05-0.17l0.02-0.08l0.05-0.08l0.05-0.03h0.08l0.14,0.08l0.06,0.08l0.17,0.12l0.2,0.09l0.05,0.06v0.05
		l-0.08,0.05l-0.12,0.11l-0.02,0.05l-0.03,0.06v0.08l0.02,0.08l0.02,0.06v0.03l0.03,0.02l0.11,0.11l0.05,0.03l0.06,0.03l0.62,0.16
		l0.31,0.14l0.08,0.05l0.09,0.04l0.42,0.06l1.34-0.05l0.03-0.08l0.51-0.28l1.18-0.08l0.42-0.45l0.05-0.23l-0.11-0.08l-0.34-0.05
		v-0.3l0.25-0.14l0.31-0.06l0.19-0.11l-0.56-0.53l0.14-0.14l0.14-0.05h0.33l0.14-0.05l0.37-0.3l0.31-0.12h0.67l0.31-0.06l0.11-0.13
		l0.22-0.42l0.16-0.19l0.36-0.67l0.11-0.11l0.14-0.11l0.17-0.09l0.84-0.11l0.82,0.33l1.46,0.98l0.36,0.14l0.38,0.06l0.36-0.06
		l0.22-0.19l0.16-0.09l0.48,0.03l0.08-0.08l0.05-0.17l0.19-0.08h0.24l0.17,0.03l0.3,0.26l-0.02,0.33l-0.25,0.31l-0.38,0.18l0.14,0.2
		l0.39,0.71l0.09-0.03v-0.2l0.05-0.23l0.09-0.16l0.16,0.03l0.14,0.2l-0.02,0.17l-0.08,0.12l0.02,0.14l0.25,0.2l0.23-0.04l0.26-0.14
		l0.28-0.08l0.03,0.14l-0.2,0.09l-0.08,0.18l0.05,0.22l0.16,0.23l-0.3,0.33l0.25,0.16l0.79,0.17l0.22,0.31l-0.02,0.39l-0.05,0.41
		l0.09,0.37l0.31,0.34h0.03l-0.02,0.09l-0.06,0.27l-0.17,0.89l-0.16,0.68l-0.2,1.01l-0.14,0.65l-0.06,0.28l-0.05,0.27l-0.16-0.09
		l-0.2-0.09l-1.06-0.54l-1.04-0.54L80.67,29l-1.06-0.53l-1.06-0.54l-1.04-0.54l-1.06-0.54l-1.04-0.54l-0.3-0.14l-0.2,0.16l-0.16,0.4
		l-0.05,0.22v0.17l0.05,0.2l0.22,0.59l0.05,0.2l0.02,0.25v0.12l-0.03,0.23l-0.16,0.44l-0.36,0.79l-0.03,0.09l-0.02,0.11v0.09
		l0.02,0.09l0.03,0.09l0.03,0.08l0.06,0.22l0.02,0.11v0.12l-0.05,0.34v0.12v0.14l0.03,0.11l0.03,0.09l0.12,0.28l0.03,0.09l0.02,0.11
		l-0.02,0.08l-0.06,0.12l-0.39,0.75l-0.54,0.62l-0.5,0.89l-0.17,0.48l-0.02,0.09v0.08l0.03,0.06l0.03,0.08v0.08l-0.05,0.19
		l-0.31,0.61l-0.09,0.11l-0.12,0.12l-0.23,0.14l-0.17,0.06l-0.12,0.08l-0.08,0.09l-0.06,0.19l-0.09,0.4l-0.09,0.19l-0.06,0.11
		l-0.11,0.11l-0.34,0.23l-0.12,0.06L71,38.29l-0.09-0.02l-0.08-0.03l-0.06-0.06l-0.06-0.08l-0.06-0.06l-0.06-0.03l-0.08,0.02
		l-0.08,0.06l-0.26,0.61l-0.36,0.82l-0.44,0.96l-0.33,0.78l-0.08,0.11l-0.08,0.09l-0.12-0.02l-0.64-0.28l-0.79-0.36l-0.54-0.23
		l-0.08,0.02l-0.08,0.09l-0.5,1.04l-0.09,0.2l-0.03,0.19v0.11l-0.03,0.12l-0.05,0.16l-0.2,0.45l-0.05,0.19l-0.02,0.12l0.06,1.18
		l-0.02,0.09l-0.06,0.09l-0.11,0.12l-0.22,0.2l-0.14,0.16l-0.14,0.2l-0.09,0.26l-0.05,0.16l-0.02,0.14l-0.03,0.7l-0.02,0.06v0.03
		v0.09v0.05l-0.11,0.75l-0.05,0.23l-0.08,0.2l-0.22,0.45l-0.3,0.62l-0.42,0.9l-0.06,0.08l-0.08,0.06l-0.12,0.02l-1.07-0.14
		l-0.9-0.11l-0.79-0.11l-0.81-0.11l-0.05-0.02l-0.03-0.02l0.02-0.08l0.03-0.17V49.3v-0.06l-0.02-0.03l-0.06-0.09l-0.84-1.01
		l-0.06-0.06l-0.06-0.03l-0.05-0.02l-1.45-0.25l-0.11,0.02l-0.08,0.11l-0.06,0.17l-0.05,0.37l0.02,0.2l0.02,0.16l0.03,0.11L57.05,49
		l-0.02,0.11l-0.05,0.17l-0.22,0.48v0.05v0.31l0.14,0.86L56.9,51.1l-0.05,0.14l-0.2,0.39l-0.05,0.2l-0.06,0.64l-0.05,0.12
		l-0.16,0.14l-0.28,0.17L56,52.98l-0.03,0.12l-0.03,0.2l-0.06,0.19l-0.13,0.23l-0.06,0.16l0.02,0.2l0.05,0.12l0.1,0.19l0.05,0.09
		l0.03,0.09l-0.03,0.14l-0.05,0.14l-0.22,0.34l-0.33,0.31l-0.12,0.17l-0.28,0.5l-0.64,0.84l-0.03,0.11l-0.02,0.11l0.03,0.17
		l0.08,0.19v0.14l-0.16,1.21l-0.25,0.81l-0.36,1.15l-0.4,0.68l-0.71,1.18l-0.56,0.9l-0.45,0.76l-0.56,0.9l-0.02,0.08l-0.05,0.5
		l-0.03,0.16l-0.31,0.95l-0.4,1.21l-0.03,0.22l0.03,0.08l0.03,0.05l0.03,0.03l0.25,0.16l0.19,0.09l0.53,0.16l0.08,0.06l0.08,0.11
		l0.05,0.19l-0.02,0.12l-0.03,0.11l-0.14,0.17l-0.3,0.26l-0.25,0.19l-0.09,0.08l-0.11,0.12l-0.14,0.2l-0.05,0.16l-0.02,0.14
		l0.02,0.09l0.03,0.09l0.05,0.08l0.08,0.06l0.22,0.09l0.08,0.08l0.03,0.22l-0.03,0.12l-0.07,0.11l-1.8,1.48l-0.42,0.53l-0.08,0.09
		l-0.09,0.05l-0.08,0.02h-0.09l-0.08-0.03l-0.08-0.05l-0.06-0.08l-0.05-0.09l-0.02-0.11l-0.03-0.17l-0.03-0.08l-0.03-0.08
		l-0.08-0.06l-0.17-0.02l-0.12,0.02l-0.38,0.11l-0.37,0.2l-0.62,0.44l-0.73,0.51l-0.67,0.57l-0.67,0.57l-0.06,0.05l-0.12,0.06h-0.07
		l-0.06-0.02l-0.05-0.05l-0.05-0.08l-0.06-0.06l-0.08-0.05l-0.08-0.02l-0.31-0.02l-0.08-0.03l-0.05-0.06l-0.03-0.17l-0.03-0.05
		l-0.06-0.03l-0.06-0.02l-0.48-0.02l-0.14,0.02l-0.16,0.05l-0.22,0.12l-0.11,0.11l-0.08,0.09l-0.05,0.12l-0.02,0.11l-0.02,0.12
		l0.02,0.11l0.02,0.11l0.05,0.11l0.33,0.39l0.03,0.11v0.16l-0.06,0.23l-0.08,0.12l-0.06,0.11l-0.98,0.83l-0.11,0.05h-0.09
		l-0.28-0.16h-0.12l-0.16,0.05l-0.42,0.31l-0.14,0.06L37.57,79l-1.23,0.93l-0.17,0.08L36.12,80l-0.05-0.03l-0.05-0.06l-0.09-0.12
		l-0.05-0.08l-0.08-0.05l-0.16-0.09l-0.97-0.41l-0.08-0.05l-0.12-0.09l-0.4-0.4l-0.08-0.06L33.9,78.5h-0.14l-0.22,0.05l-0.12,0.11
		l-0.06,0.09l-0.03,0.09l-0.06,0.36l-0.05,0.16l-0.06,0.19L33,79.81l-0.12,0.12l-0.11,0.08l-0.64,0.19l-0.25,0.11l-0.12,0.09
		l-0.09,0.09l-0.7,1.06l-0.11,0.11l-0.11,0.08l-0.39,0.09l-1.03,0.08l-0.2-0.03l-0.47-0.23l-0.64-0.2l-0.09-0.05l-0.16-0.13
		l-0.28-0.29l-0.08-0.06l-0.08-0.06l-0.11-0.05l-0.09-0.03l-0.16-0.03l-0.37,0.02l-0.22,0.05l-0.22,0.02l-0.06-0.02l-0.22-0.08
		l-0.17-0.12l-0.06-0.06l-0.06-0.08l-0.22-0.36l-0.06-0.08l-0.08-0.08l-0.17-0.11l-0.89-0.42l-0.08-0.06l-0.06-0.08l-0.06-0.09
		l-0.02-0.11l-0.03-0.11l-0.02-0.51l-0.02-0.11l-0.02-0.11l-0.05-0.11l-0.05-0.09l-0.05-0.08l-0.06-0.06l-0.08-0.05l-0.65-0.28
		l-0.08-0.06l-0.05-0.08l-0.02-0.09l0.03-0.11l0.03-0.08l0.36-0.37v-0.02l0.02-0.05v-0.09l0.02-0.11l-0.03-0.12L23.2,76.3
		l-0.06-0.09l-0.06-0.06l-0.17-0.12l-0.33-0.12l-0.19,0.02l-0.48,0.19l-0.19,0.02l-1.38-0.2l-0.25-0.08l-0.12-0.11l-0.02-0.11v-0.12
		l-0.05-0.09l-0.05-0.09l-0.08-0.08l-0.16-0.12l-0.58-0.39h-0.14l-0.08,0.05l-0.06,0.05l-0.05-0.03l-0.37-0.39l-0.19-0.14
		l-0.14-0.06l-0.14-0.05l-0.69-0.14l-0.16-0.06l-0.09-0.11l-0.12-0.29l-0.36-0.64l-0.03-0.11l-0.02-0.11l-0.16-0.2l-0.25-0.25
		l-1.21-0.88l-0.05-0.08l-0.06-0.09l-0.08-0.2l-0.19-0.64l-0.05-0.14l-0.09-0.12l-0.16-0.2l-0.11-0.09l-0.11-0.08l-0.75-0.37
		l-0.09-0.09l-0.03-0.11l0.02-0.06l0.16-0.36l0.03-0.09v-0.08l-0.05-0.09l-0.08-0.16l-0.11-0.11l-0.06-0.06l-1.03-0.65l-0.14-0.12
		l-0.11-0.17l-0.14-0.28l-0.11-0.17l-1.51-1.54L9.8,64.99L9.76,64.9V64.8v-0.08l0.03-0.05l0.05-0.06l0.25-0.26l0.11-0.16l0.03-0.09
		l0.02-0.08v-0.11l-0.08-0.34v-0.11l0.02-0.09l0.03-0.06l0.08-0.05l0.2-0.06l0.07-0.06l0.03-0.08l-0.02-0.11l-0.02-0.11l-0.03-0.11
		l-0.05-0.22l-0.03-0.47v-0.27l-0.05-0.2l-0.09-0.23l-0.4-0.59L9.83,60.6l-0.02-0.05L9.8,60.48l-0.02-0.54L9.75,59.7l-0.02-0.12
		l0.02,0.02l0.62,0.17l0.72-0.19l1.31-0.72l1.2-0.3l0.28-0.16l0.17-0.4l0.06-0.37l0.06-1.87l0.12-0.48l0.19-0.22l0.81-0.02
		l0.34-0.13l0.2-0.37l-0.02-0.22l-0.1-0.26l-0.11-0.25l-0.2-0.34l-0.02-0.22l0.06-0.31l-0.14-0.5l-0.19-0.33l-0.19-0.25l-0.17-0.34
		l-0.03-0.48l0.23-0.3l0.28-0.25L15.36,50l0.16-0.39l0.05-0.2l-0.03-0.85l0.16-0.69l0.34-0.85l0.42-0.81l0.45-0.47l0.39-0.06
		l0.34,0.16l0.28,0.19l0.54,0.12l0.26,0.22l0.2,0.29l0.12,0.31l0.08,0.09l0.06,0.11l0.05,0.14l-0.03,0.11l-0.06,0.08l-0.08,0.05
		l-0.03,0.06v0.28l-0.06,0.14l-0.02,0.09l0.16,0.22l0.33,0.09l0.33-0.23l0.26-0.39l0.14-0.33l0.05-0.51l0.05-0.25l0.16-0.14
		l0.22,0.05l0.33,0.25l0.2,0.05l0.3-0.16l-0.05-0.23l-0.2-0.3l-0.17-0.33l-0.03-0.75l-0.1-0.36l-0.23-0.12l-0.11-0.03l-0.14-0.08
		l-0.14-0.12l-0.08-0.12l-0.12-0.25V44l0.09-0.02l0.76-0.47l0.1-0.22l-0.03-0.47l-0.19-0.75l-0.02-0.26l0.08-0.34l0.62-1.03
		l0.14-0.73l0.31-0.16l0.39-0.08l0.34-0.19l0.13,0.12l0.12-0.12l0.08-0.05l0.11,0.02l0.16,0.08l0.14-0.28l-0.03-0.81l0.08-0.39
		l1.03-1.35l0.23-0.17l0.68-0.11l0.19,0.14l0.2,0.33l0.28,0.34l0.36,0.19l0.37-0.12l0.48-0.61l0.31-0.19l0.33-0.09l0.33-0.16
		l0.31-0.2l0.22-0.2l0.37-0.57l0.25-0.28L30,34.46l0.19-0.36l0.26-0.75l0.42-0.65L32.42,31l1-0.82l-0.02-0.2l0.09-0.59v-0.11
		l-0.06-0.22v-0.09l0.05-0.09l0.23-0.26l0.02-0.4l-0.11-0.26l-0.2-0.2L33.1,27.5l-0.12-0.23l0.09-0.2l0.31-0.28l0.05-0.22v-0.42
		l0.02-0.22l0.06-0.25l0.08-0.2l0.23-0.42l0.02-0.17l-0.11-0.2l-0.12-0.23l-0.08-0.2l0.02-0.33h0.17L33.95,24l0.2-0.06l0.06-0.22
		l-0.05-0.18l-0.09-0.16l-0.05-0.14l0.05-0.37l0.11-0.27l0.08-0.31l-0.03-0.47l-0.17-0.84l-0.02-0.41l0.09-0.53l0.22-0.78l0.08-0.39
		l-0.02-0.75l0.06-0.5l0.2-0.86l0.12-0.18l0.36-0.42l0.08-0.14l0.05-0.67l0.05-0.12l-0.08-0.27l-0.19-0.45l-0.02-0.09l-0.02-0.22
		L35,14.13l-0.09-0.06l-0.11-0.03h-0.11h-0.05l-0.06-0.47l0.19-0.86v-0.48l-0.11-0.28l-0.2-0.34l-0.48-0.62l-0.64-0.61l-0.19-0.33
		l0.09-0.44l0.25-0.26l0.39-0.2l0.4-0.09l0.29,0.11l0.62-0.62l0.23-0.11v0.02l0,0v0.02v0.02V8.5h0.02v0.02v0.02l0.29,1.63l0.28,1.63
		l0.3,1.63l0.29,1.63l0.3,1.63l0.29,1.63l0.28,1.63l0.3,1.65l0.25,1.42l0.26,1.42l0.25,1.43l0.25,1.41l2.1-0.37l2.08-0.37l2.1-0.39
		l2.09-0.37l2.1-0.39l2.08-0.39l2.08-0.39L55.53,24.22L55.53,24.22z"/>
	<path id="WV_2_" class="st1" d="M55.53,24.22l1.77,10.47l0.05,0.06l0.08-0.02l0.14-0.11l0.17-0.17l1.51-1.93l0.13-0.06l0.64-0.25
		l0.12-0.08l0.05-0.09l0.11-0.47l0.08-0.2l0.17-0.25l0.39-0.44l0.67-0.54l0.08-0.06l0.05-0.09l0.14-0.3l0.26-0.28l0.05-0.08
		l0.05-0.08l0.03-0.09l0.03-0.06l0.09-0.56l0.03-0.09l0.05-0.11l0.08-0.08l0.55-0.42l0.12-0.05l0.14-0.02l0.29,0.06l0.3,0.09
		l0.36,0.23l0.19,0.06h0.13l0.14-0.03l0.16-0.11L64.98,28l0.05-0.09l0.12-0.28l0.76-1.17l0.16-0.3l0.09-0.31l0.05-0.08l0.05-0.08
		l0.06-0.06l0.06-0.06l0.08-0.05l0.26-0.11l0.09-0.06l0.03-0.06l-0.03-0.05l-0.08-0.11l-0.03-0.08l-0.02-0.11l0.02-0.12l0.03-0.09
		l0.17-0.41l0.05-0.19l0.05-0.17l0.02-0.08l0.05-0.08l0.05-0.03h0.08l0.14,0.08l0.06,0.08l0.17,0.12l0.2,0.09l0.05,0.06v0.05
		l-0.08,0.05l-0.12,0.11l-0.02,0.05l-0.03,0.06v0.08l0.02,0.08l0.02,0.06v0.03l0.03,0.02l0.11,0.11l0.05,0.03l0.06,0.03l0.62,0.16
		l0.31,0.14l0.08,0.05l0.09,0.04l0.42,0.06l1.34-0.05l0.03-0.08l0.51-0.28l1.18-0.08l0.42-0.45l0.05-0.23l-0.11-0.08l-0.34-0.05
		v-0.3l0.25-0.14l0.31-0.06l0.19-0.11l-0.56-0.53l0.14-0.14l0.14-0.05h0.33l0.14-0.05l0.37-0.3l0.31-0.12h0.67l0.31-0.06l0.11-0.13
		l0.22-0.42l0.16-0.19l0.36-0.67l0.11-0.11l0.14-0.11l0.17-0.09l0.84-0.11l0.82,0.33l1.46,0.98l0.36,0.14l0.38,0.06l0.36-0.06
		l0.22-0.19l0.16-0.09l0.48,0.03l0.08-0.08l0.05-0.17l0.19-0.08h0.24l0.17,0.03l0.3,0.26l-0.02,0.33l-0.25,0.31l-0.38,0.18l0.14,0.2
		l0.39,0.71l0.09-0.03v-0.2l0.05-0.23l0.09-0.16l0.16,0.03l0.14,0.2l-0.02,0.17l-0.08,0.12l0.02,0.14l0.25,0.2l0.23-0.04l0.26-0.14
		l0.28-0.08l0.03,0.14l-0.2,0.09l-0.08,0.18l0.05,0.22l0.16,0.23l-0.3,0.33l0.25,0.16l0.79,0.17l0.22,0.31l-0.02,0.39l-0.05,0.41
		l0.09,0.37l0.31,0.34h0.03l-0.02,0.09l-0.06,0.27l-0.17,0.89l-0.16,0.68l-0.2,1.01l-0.14,0.65l-0.06,0.28l-0.05,0.27l-0.16-0.09
		l-0.2-0.09l-1.06-0.54l-1.04-0.54L80.67,29l-1.06-0.53l-1.06-0.54l-1.04-0.54l-1.06-0.54l-1.04-0.54l-0.3-0.14l-0.2,0.16l-0.16,0.4
		l-0.05,0.22v0.17l0.05,0.2l0.22,0.59l0.05,0.2l0.02,0.25v0.12l-0.03,0.23l-0.16,0.44l-0.36,0.79l-0.03,0.09l-0.02,0.11v0.09
		l0.02,0.09l0.03,0.09l0.03,0.08l0.06,0.22l0.02,0.11v0.12l-0.05,0.34v0.12v0.14l0.03,0.11l0.03,0.09l0.12,0.28l0.03,0.09l0.02,0.11
		l-0.02,0.08l-0.06,0.12l-0.39,0.75l-0.54,0.62l-0.5,0.89l-0.17,0.48l-0.02,0.09v0.08l0.03,0.06l0.03,0.08v0.08l-0.05,0.19
		l-0.31,0.61l-0.09,0.11l-0.12,0.12l-0.23,0.14l-0.17,0.06l-0.12,0.08l-0.08,0.09l-0.06,0.19l-0.09,0.4l-0.09,0.19l-0.06,0.11
		l-0.11,0.11l-0.34,0.23l-0.12,0.06L71,38.29l-0.09-0.02l-0.08-0.03l-0.06-0.06l-0.06-0.08l-0.06-0.06l-0.06-0.03l-0.08,0.02
		l-0.08,0.06l-0.26,0.61l-0.36,0.82l-0.44,0.96l-0.33,0.78l-0.08,0.11l-0.08,0.09l-0.12-0.02l-0.64-0.28l-0.79-0.36l-0.54-0.23
		l-0.08,0.02l-0.08,0.09l-0.5,1.04l-0.09,0.2l-0.03,0.19v0.11l-0.03,0.12l-0.05,0.16l-0.2,0.45l-0.05,0.19l-0.02,0.12l0.06,1.18
		l-0.02,0.09l-0.06,0.09l-0.11,0.12l-0.22,0.2l-0.14,0.16l-0.14,0.2l-0.09,0.26l-0.05,0.16l-0.02,0.14l-0.03,0.7l-0.02,0.06v0.03
		v0.09v0.05l-0.11,0.75l-0.05,0.23l-0.08,0.2l-0.22,0.45l-0.3,0.62l-0.42,0.9l-0.06,0.08l-0.08,0.06l-0.12,0.02l-1.07-0.14
		l-0.9-0.11l-0.79-0.11l-0.81-0.11l-0.05-0.02l-0.03-0.02l0.02-0.08l0.03-0.17V49.3v-0.06l-0.02-0.03l-0.06-0.09l-0.84-1.01
		l-0.06-0.06l-0.06-0.03l-0.05-0.02l-1.45-0.25l-0.11,0.02l-0.08,0.11l-0.06,0.17l-0.05,0.37l0.02,0.2l0.02,0.16l0.03,0.11L57.05,49
		l-0.02,0.11l-0.05,0.17l-0.22,0.48v0.05v0.31l0.14,0.86L56.9,51.1l-0.05,0.14l-0.2,0.39l-0.05,0.2l-0.06,0.64l-0.05,0.12
		l-0.16,0.14l-0.28,0.17L56,52.98l-0.03,0.12l-0.03,0.2l-0.06,0.19l-0.13,0.23l-0.06,0.16l0.02,0.2l0.05,0.12l0.1,0.19l0.05,0.09
		l0.03,0.09l-0.03,0.14l-0.05,0.14l-0.22,0.34l-0.33,0.31l-0.12,0.17l-0.28,0.5l-0.64,0.84l-0.03,0.11l-0.02,0.11l0.03,0.17
		l0.08,0.19v0.14l-0.16,1.21l-0.25,0.81l-0.36,1.15l-0.4,0.68l-0.71,1.18l-0.56,0.9l-0.45,0.76l-0.56,0.9l-0.02,0.08l-0.05,0.5
		l-0.03,0.16l-0.31,0.95l-0.4,1.21l-0.03,0.22l0.03,0.08l0.03,0.05l0.03,0.03l0.25,0.16l0.19,0.09l0.53,0.16l0.08,0.06l0.08,0.11
		l0.05,0.19l-0.02,0.12l-0.03,0.11l-0.14,0.17l-0.3,0.26l-0.25,0.19l-0.09,0.08l-0.11,0.12l-0.14,0.2l-0.05,0.16l-0.02,0.14
		l0.02,0.09l0.03,0.09l0.05,0.08l0.08,0.06l0.22,0.09l0.08,0.08l0.03,0.22l-0.03,0.12l-0.07,0.11l-1.8,1.48l-0.42,0.53l-0.08,0.09
		l-0.09,0.05l-0.08,0.02h-0.09l-0.08-0.03l-0.08-0.05l-0.06-0.08l-0.05-0.09l-0.02-0.11l-0.03-0.17l-0.03-0.08l-0.03-0.08
		l-0.08-0.06l-0.17-0.02l-0.12,0.02l-0.38,0.11l-0.37,0.2l-0.62,0.44l-0.73,0.51l-0.67,0.57l-0.67,0.57l-0.06,0.05l-0.12,0.06h-0.07
		l-0.06-0.02l-0.05-0.05l-0.05-0.08l-0.06-0.06l-0.08-0.05l-0.08-0.02l-0.31-0.02l-0.08-0.03l-0.05-0.06l-0.03-0.17l-0.03-0.05
		l-0.06-0.03l-0.06-0.02l-0.48-0.02l-0.14,0.02l-0.16,0.05l-0.22,0.12l-0.11,0.11l-0.08,0.09l-0.05,0.12l-0.02,0.11l-0.02,0.12
		l0.02,0.11l0.02,0.11l0.05,0.11l0.33,0.39l0.03,0.11v0.16l-0.06,0.23l-0.08,0.12l-0.06,0.11l-0.98,0.83l-0.11,0.05h-0.09
		l-0.28-0.16h-0.12l-0.16,0.05l-0.42,0.31l-0.14,0.06L37.57,79l-1.23,0.93l-0.17,0.08L36.12,80l-0.05-0.03l-0.05-0.06l-0.09-0.12
		l-0.05-0.08l-0.08-0.05l-0.16-0.09l-0.97-0.41l-0.08-0.05l-0.12-0.09l-0.4-0.4l-0.08-0.06L33.9,78.5h-0.14l-0.22,0.05l-0.12,0.11
		l-0.06,0.09l-0.03,0.09l-0.06,0.36l-0.05,0.16l-0.06,0.19L33,79.81l-0.12,0.12l-0.11,0.08l-0.64,0.19l-0.25,0.11l-0.12,0.09
		l-0.09,0.09l-0.7,1.06l-0.11,0.11l-0.11,0.08l-0.39,0.09l-1.03,0.08l-0.2-0.03l-0.47-0.23l-0.64-0.2l-0.09-0.05l-0.16-0.13
		l-0.28-0.29l-0.08-0.06l-0.08-0.06l-0.11-0.05l-0.09-0.03l-0.16-0.03l-0.37,0.02l-0.22,0.05l-0.22,0.02l-0.06-0.02l-0.22-0.08
		l-0.17-0.12l-0.06-0.06l-0.06-0.08l-0.22-0.36l-0.06-0.08l-0.08-0.08l-0.17-0.11l-0.89-0.42l-0.08-0.06l-0.06-0.08l-0.06-0.09
		l-0.02-0.11l-0.03-0.11l-0.02-0.51l-0.02-0.11l-0.02-0.11l-0.05-0.11l-0.05-0.09l-0.05-0.08l-0.06-0.06l-0.08-0.05l-0.65-0.28
		l-0.08-0.06l-0.05-0.08l-0.02-0.09l0.03-0.11l0.03-0.08l0.36-0.37v-0.02l0.02-0.05v-0.09l0.02-0.11l-0.03-0.12L23.2,76.3
		l-0.06-0.09l-0.06-0.06l-0.17-0.12l-0.33-0.12l-0.19,0.02l-0.48,0.19l-0.19,0.02l-1.38-0.2l-0.25-0.08l-0.12-0.11l-0.02-0.11v-0.12
		l-0.05-0.09l-0.05-0.09l-0.08-0.08l-0.16-0.12l-0.58-0.39h-0.14l-0.08,0.05l-0.06,0.05l-0.05-0.03l-0.37-0.39l-0.19-0.14
		l-0.14-0.06l-0.14-0.05l-0.69-0.14l-0.16-0.06l-0.09-0.11l-0.12-0.29l-0.36-0.64l-0.03-0.11l-0.02-0.11l-0.16-0.2l-0.25-0.25
		l-1.21-0.88l-0.05-0.08l-0.06-0.09l-0.08-0.2l-0.19-0.64l-0.05-0.14l-0.09-0.12l-0.16-0.2l-0.11-0.09l-0.11-0.08l-0.75-0.37
		l-0.09-0.09l-0.03-0.11l0.02-0.06l0.16-0.36l0.03-0.09v-0.08l-0.05-0.09l-0.08-0.16l-0.11-0.11l-0.06-0.06l-1.03-0.65l-0.14-0.12
		l-0.11-0.17l-0.14-0.28l-0.11-0.17l-1.51-1.54L9.8,64.99L9.76,64.9V64.8v-0.08l0.03-0.05l0.05-0.06l0.25-0.26l0.11-0.16l0.03-0.09
		l0.02-0.08v-0.11l-0.08-0.34v-0.11l0.02-0.09l0.03-0.06l0.08-0.05l0.2-0.06l0.07-0.06l0.03-0.08l-0.02-0.11l-0.02-0.11l-0.03-0.11
		l-0.05-0.22l-0.03-0.47v-0.27l-0.05-0.2l-0.09-0.23l-0.4-0.59L9.83,60.6l-0.02-0.05L9.8,60.48l-0.02-0.54L9.75,59.7l-0.02-0.12
		l0.02,0.02l0.62,0.17l0.72-0.19l1.31-0.72l1.2-0.3l0.28-0.16l0.17-0.4l0.06-0.37l0.06-1.87l0.12-0.48l0.19-0.22l0.81-0.02
		l0.34-0.13l0.2-0.37l-0.02-0.22l-0.1-0.26l-0.11-0.25l-0.2-0.34l-0.02-0.22l0.06-0.31l-0.14-0.5l-0.19-0.33l-0.19-0.25l-0.17-0.34
		l-0.03-0.48l0.23-0.3l0.28-0.25L15.36,50l0.16-0.39l0.05-0.2l-0.03-0.85l0.16-0.69l0.34-0.85l0.42-0.81l0.45-0.47l0.39-0.06
		l0.34,0.16l0.28,0.19l0.54,0.12l0.26,0.22l0.2,0.29l0.12,0.31l0.08,0.09l0.06,0.11l0.05,0.14l-0.03,0.11l-0.06,0.08l-0.08,0.05
		l-0.03,0.06v0.28l-0.06,0.14l-0.02,0.09l0.16,0.22l0.33,0.09l0.33-0.23l0.26-0.39l0.14-0.33l0.05-0.51l0.05-0.25l0.16-0.14
		l0.22,0.05l0.33,0.25l0.2,0.05l0.3-0.16l-0.05-0.23l-0.2-0.3l-0.17-0.33l-0.03-0.75l-0.1-0.36l-0.23-0.12l-0.11-0.03l-0.14-0.08
		l-0.14-0.12l-0.08-0.12l-0.12-0.25V44l0.09-0.02l0.76-0.47l0.1-0.22l-0.03-0.47l-0.19-0.75l-0.02-0.26l0.08-0.34l0.62-1.03
		l0.14-0.73l0.31-0.16l0.39-0.08l0.34-0.19l0.13,0.12l0.12-0.12l0.08-0.05l0.11,0.02l0.16,0.08l0.14-0.28l-0.03-0.81l0.08-0.39
		l1.03-1.35l0.23-0.17l0.68-0.11l0.19,0.14l0.2,0.33l0.28,0.34l0.36,0.19l0.37-0.12l0.48-0.61l0.31-0.19l0.33-0.09l0.33-0.16
		l0.31-0.2l0.22-0.2l0.37-0.57l0.25-0.28L30,34.46l0.19-0.36l0.26-0.75l0.42-0.65L32.42,31l1-0.82l-0.02-0.2l0.09-0.59v-0.11
		l-0.06-0.22v-0.09l0.05-0.09l0.23-0.26l0.02-0.4l-0.11-0.26l-0.2-0.2L33.1,27.5l-0.12-0.23l0.09-0.2l0.31-0.28l0.05-0.22v-0.42
		l0.02-0.22l0.06-0.25l0.08-0.2l0.23-0.42l0.02-0.17l-0.11-0.2l-0.12-0.23l-0.08-0.2l0.02-0.33h0.17L33.95,24l0.2-0.06l0.06-0.22
		l-0.05-0.18l-0.09-0.16l-0.05-0.14l0.05-0.37l0.11-0.27l0.08-0.31l-0.03-0.47l-0.17-0.84l-0.02-0.41l0.09-0.53l0.22-0.78l0.08-0.39
		l-0.02-0.75l0.06-0.5l0.2-0.86l0.12-0.18l0.36-0.42l0.08-0.14l0.05-0.67l0.05-0.12l-0.08-0.27l-0.19-0.45l-0.02-0.09l-0.02-0.22
		L35,14.13l-0.09-0.06l-0.11-0.03h-0.11h-0.05l-0.06-0.47l0.19-0.86v-0.48l-0.11-0.28l-0.2-0.34l-0.48-0.62l-0.64-0.61l-0.19-0.33
		l0.09-0.44l0.25-0.26l0.39-0.2l0.4-0.09l0.29,0.11l0.62-0.62l0.23-0.11v0.02l0,0v0.02v0.02V8.5h0.02v0.02v0.02l0.29,1.63l0.28,1.63
		l0.3,1.63l0.29,1.63l0.3,1.63l0.29,1.63l0.28,1.63l0.3,1.65l0.25,1.42l0.26,1.42l0.25,1.43l0.25,1.41l2.1-0.37l2.08-0.37l2.1-0.39
		l2.09-0.37l2.1-0.39l2.08-0.39l2.08-0.39L55.53,24.22L55.53,24.22z"/>
</g>
<g id="WYOMING">
</g>
</svg>
