<?xml version="1.0" encoding="UTF-8"?>
<svg id="WEST_VIRGINIA" data-name="WEST VIRGINIA" xmlns="http://www.w3.org/2000/svg" viewBox="0 0 90 90">
  <defs>
    <style>
      .cls-1 {
        fill: #e2e2e2;
        stroke: #f9f9f9;
        stroke-linecap: round;
        stroke-linejoin: round;
        stroke-width: .03px;
      }
    </style>
  </defs>
  <path id="WV" class="cls-1" d="M55.53,24.22l1.77,10.47,.05,.06,.08-.02,.14-.11,.17-.17,1.51-1.93,.13-.06,.64-.25,.12-.08,.05-.09,.11-.47,.08-.2,.17-.25,.39-.44,.67-.54,.08-.06,.05-.09,.14-.3,.26-.28,.05-.08,.05-.08,.03-.09,.03-.06,.09-.56,.03-.09,.05-.11,.08-.08,.55-.42,.12-.05,.14-.02,.29,.06,.3,.09,.36,.23,.19,.06h.13l.14-.03,.16-.11,.09-.09,.05-.09,.12-.28,.76-1.17,.16-.3,.09-.31,.05-.08,.05-.08,.06-.06,.06-.06,.08-.05,.26-.11,.09-.06,.03-.06-.03-.05-.08-.11-.03-.08-.02-.11,.02-.12,.03-.09,.17-.41,.05-.19,.05-.17,.02-.08,.05-.08,.05-.03h.08l.14,.08,.06,.08,.17,.12,.2,.09,.05,.06v.05l-.08,.05-.12,.11-.02,.05-.03,.06v.08l.02,.08,.02,.06v.03l.03,.02,.11,.11,.05,.03,.06,.03,.62,.16,.31,.14,.08,.05,.09,.04,.42,.06,1.34-.05,.03-.08,.51-.28,1.18-.08,.42-.45,.05-.23-.11-.08-.34-.05v-.3l.25-.14,.31-.06,.19-.11-.56-.53,.14-.14,.14-.05h.33l.14-.05,.37-.3,.31-.12h.67l.31-.06,.11-.13,.22-.42,.16-.19,.36-.67,.11-.11,.14-.11,.17-.09,.84-.11,.82,.33,1.46,.98,.36,.14,.38,.06,.36-.06,.22-.19,.16-.09,.48,.03,.08-.08,.05-.17,.19-.08h.24l.17,.03,.3,.26-.02,.33-.25,.31-.38,.18,.14,.2,.39,.71,.09-.03v-.2l.05-.23,.09-.16,.16,.03,.14,.2-.02,.17-.08,.12,.02,.14,.25,.2,.23-.04,.26-.14,.28-.08,.03,.14-.2,.09-.08,.18,.05,.22,.16,.23-.3,.33,.25,.16,.79,.17,.22,.31-.02,.39-.05,.41,.09,.37,.31,.34h.03l-.02,.09-.06,.27-.17,.89-.16,.68-.2,1.01-.14,.65-.06,.28-.05,.27-.16-.09-.2-.09-1.06-.54-1.04-.54-1.06-.55-1.06-.53-1.06-.54-1.04-.54-1.06-.54-1.04-.54-.3-.14-.2,.16-.16,.4-.05,.22v.17l.05,.2,.22,.59,.05,.2,.02,.25v.12l-.03,.23-.16,.44-.36,.79-.03,.09-.02,.11v.09l.02,.09,.03,.09,.03,.08,.06,.22,.02,.11v.12l-.05,.34v.26l.03,.11,.03,.09,.12,.28,.03,.09,.02,.11-.02,.08-.06,.12-.39,.75-.54,.62-.5,.89-.17,.48-.02,.09v.08l.03,.06,.03,.08v.08l-.05,.19-.31,.61-.09,.11-.12,.12-.23,.14-.17,.06-.12,.08-.08,.09-.06,.19-.09,.4-.09,.19-.06,.11-.11,.11-.34,.23-.12,.06-.09,.03-.09-.02-.08-.03-.06-.06-.06-.08-.06-.06-.06-.03-.08,.02-.08,.06-.26,.61-.36,.82-.44,.96-.33,.78-.08,.11-.08,.09-.12-.02-.64-.28-.79-.36-.54-.23-.08,.02-.08,.09-.5,1.04-.09,.2-.03,.19v.11l-.03,.12-.05,.16-.2,.45-.05,.19-.02,.12,.06,1.18-.02,.09-.06,.09-.11,.12-.22,.2-.14,.16-.14,.2-.09,.26-.05,.16-.02,.14-.03,.7-.02,.06v.17l-.11,.75-.05,.23-.08,.2-.22,.45-.3,.62-.42,.9-.06,.08-.08,.06-.12,.02-1.07-.14-.9-.11-.79-.11-.81-.11-.05-.02-.03-.02,.02-.08,.03-.17v-.14l-.02-.03-.06-.09-.84-1.01-.06-.06-.06-.03-.05-.02-1.45-.25-.11,.02-.08,.11-.06,.17-.05,.37,.02,.2,.02,.16,.03,.11,.02,.12-.02,.11-.05,.17-.22,.48v.36l.14,.86-.02,.12-.05,.14-.2,.39-.05,.2-.06,.64-.05,.12-.16,.14-.28,.17-.06,.08-.03,.12-.03,.2-.06,.19-.13,.23-.06,.16,.02,.2,.05,.12,.1,.19,.05,.09,.03,.09-.03,.14-.05,.14-.22,.34-.33,.31-.12,.17-.28,.5-.64,.84-.03,.11-.02,.11,.03,.17,.08,.19v.14l-.16,1.21-.25,.81-.36,1.15-.4,.68-.71,1.18-.56,.9-.45,.76-.56,.9-.02,.08-.05,.5-.03,.16-.31,.95-.4,1.21-.03,.22,.03,.08,.03,.05,.03,.03,.25,.16,.19,.09,.53,.16,.08,.06,.08,.11,.05,.19-.02,.12-.03,.11-.14,.17-.3,.26-.25,.19-.09,.08-.11,.12-.14,.2-.05,.16-.02,.14,.02,.09,.03,.09,.05,.08,.08,.06,.22,.09,.08,.08,.03,.22-.03,.12-.07,.11-1.8,1.48-.42,.53-.08,.09-.09,.05-.08,.02h-.09l-.08-.03-.08-.05-.06-.08-.05-.09-.02-.11-.03-.17-.03-.08-.03-.08-.08-.06-.17-.02-.12,.02-.38,.11-.37,.2-.62,.44-.73,.51-.67,.57-.67,.57-.06,.05-.12,.06h-.07l-.06-.02-.05-.05-.05-.08-.06-.06-.08-.05-.08-.02-.31-.02-.08-.03-.05-.06-.03-.17-.03-.05-.06-.03-.06-.02-.48-.02-.14,.02-.16,.05-.22,.12-.11,.11-.08,.09-.05,.12-.02,.11-.02,.12,.02,.11,.02,.11,.05,.11,.33,.39,.03,.11v.16l-.06,.23-.08,.12-.06,.11-.98,.83-.11,.05h-.09l-.28-.16h-.12l-.16,.05-.42,.31-.14,.06-1.66,.51-1.23,.93-.17,.08-.05-.02-.05-.03-.05-.06-.09-.12-.05-.08-.08-.05-.16-.09-.97-.41-.08-.05-.12-.09-.4-.4-.08-.06-.11-.05h-.14l-.22,.05-.12,.11-.06,.09-.03,.09-.06,.36-.05,.16-.06,.19-.16,.27-.12,.12-.11,.08-.64,.19-.25,.11-.12,.09-.09,.09-.7,1.06-.11,.11-.11,.08-.39,.09-1.03,.08-.2-.03-.47-.23-.64-.2-.09-.05-.16-.13-.28-.29-.08-.06-.08-.06-.11-.05-.09-.03-.16-.03-.37,.02-.22,.05-.22,.02-.06-.02-.22-.08-.17-.12-.06-.06-.06-.08-.22-.36-.06-.08-.08-.08-.17-.11-.89-.42-.08-.06-.06-.08-.06-.09-.02-.11-.03-.11-.02-.51-.02-.11-.02-.11-.05-.11-.05-.09-.05-.08-.06-.06-.08-.05-.65-.28-.08-.06-.05-.08-.02-.09,.03-.11,.03-.08,.36-.37v-.02l.02-.05v-.09l.02-.11-.03-.12-.03-.09-.06-.09-.06-.06-.17-.12-.33-.12-.19,.02-.48,.19-.19,.02-1.38-.2-.25-.08-.12-.11-.02-.11v-.12l-.05-.09-.05-.09-.08-.08-.16-.12-.58-.39h-.14l-.08,.05-.06,.05-.05-.03-.37-.39-.19-.14-.14-.06-.14-.05-.69-.14-.16-.06-.09-.11-.12-.29-.36-.64-.03-.11-.02-.11-.16-.2-.25-.25-1.21-.88-.05-.08-.06-.09-.08-.2-.19-.64-.05-.14-.09-.12-.16-.2-.11-.09-.11-.08-.75-.37-.09-.09-.03-.11,.02-.06,.16-.36,.03-.09v-.08l-.05-.09-.08-.16-.11-.11-.06-.06-1.03-.65-.14-.12-.11-.17-.14-.28-.11-.17-1.51-1.54-.12-.17-.03-.09v-.17l.03-.05,.05-.06,.25-.26,.11-.16,.03-.09,.02-.08v-.11l-.08-.34v-.11l.02-.09,.03-.06,.08-.05,.2-.06,.07-.06,.03-.08-.02-.11-.02-.11-.03-.11-.05-.22-.03-.47v-.27l-.05-.2-.09-.23-.4-.59-.08-.16-.02-.05-.02-.08-.02-.54-.03-.23-.02-.12,.02,.02,.62,.17,.72-.19,1.31-.72,1.2-.3,.28-.16,.17-.4,.06-.37,.06-1.87,.12-.48,.19-.22,.81-.02,.34-.13,.2-.37-.02-.22-.1-.26-.11-.25-.2-.34-.02-.22,.06-.31-.14-.5-.19-.33-.19-.25-.17-.34-.03-.48,.23-.3,.28-.25,.11-.51,.16-.39,.05-.2-.03-.85,.16-.69,.34-.85,.42-.81,.45-.47,.39-.06,.34,.16,.28,.19,.54,.12,.26,.22,.2,.29,.12,.31,.08,.09,.06,.11,.05,.14-.03,.11-.06,.08-.08,.05-.03,.06v.28l-.06,.14-.02,.09,.16,.22,.33,.09,.33-.23,.26-.39,.14-.33,.05-.51,.05-.25,.16-.14,.22,.05,.33,.25,.2,.05,.3-.16-.05-.23-.2-.3-.17-.33-.03-.75-.1-.36-.23-.12-.11-.03-.14-.08-.14-.12-.08-.12-.12-.25v-.08l.09-.02,.76-.47,.1-.22-.03-.47-.19-.75-.02-.26,.08-.34,.62-1.03,.14-.73,.31-.16,.39-.08,.34-.19,.13,.12,.12-.12,.08-.05,.11,.02,.16,.08,.14-.28-.03-.81,.08-.39,1.03-1.35,.23-.17,.68-.11,.19,.14,.2,.33,.28,.34,.36,.19,.37-.12,.48-.61,.31-.19,.33-.09,.33-.16,.31-.2,.22-.2,.37-.57,.25-.28,.59-.34,.19-.36,.26-.75,.42-.65,1.56-1.71,1-.82-.02-.2,.09-.59v-.11l-.06-.22v-.09l.05-.09,.23-.26,.02-.4-.11-.26-.2-.2-.31-.23-.12-.23,.09-.2,.31-.28,.05-.22v-.42l.02-.22,.06-.25,.08-.2,.23-.42,.02-.17-.11-.2-.12-.23-.08-.2,.02-.33h.17l.23,.08,.2-.06,.06-.22-.05-.18-.09-.16-.05-.14,.05-.37,.11-.27,.08-.31-.03-.47-.17-.84-.02-.41,.09-.53,.22-.78,.08-.39-.02-.75,.06-.5,.2-.86,.12-.18,.36-.42,.08-.14,.05-.67,.05-.12-.08-.27-.19-.45-.02-.09-.02-.22-.03-.09-.09-.06-.11-.03h-.16l-.06-.47,.19-.86v-.48l-.11-.28-.2-.34-.48-.62-.64-.61-.19-.33,.09-.44,.25-.26,.39-.2,.4-.09,.29,.11,.62-.62,.23-.11v.02h0v.05h.02v.03l.29,1.63,.28,1.63,.3,1.63,.29,1.63,.3,1.63,.29,1.63,.28,1.63,.3,1.65,.25,1.42,.26,1.42,.25,1.43,.25,1.41,2.1-.37,2.08-.37,2.1-.39,2.09-.37,2.1-.39,2.08-.39,2.08-.39,2.1-.39h0Z"/>
  <g>
    <path d="M39.81,48.76l-1.22,5.09h-1.53l-.81-3.41-.82,3.41h-1.53l-1.22-5.09h1.34l.66,3.69,.89-3.69h1.35l.89,3.69,.66-3.69h1.33Z"/>
    <path d="M41.41,48.76l1.25,3.83,1.25-3.83h1.32l-1.77,5.09h-1.59l-1.76-5.09h1.32Z"/>
  </g>
</svg>