<?xml version="1.0" encoding="utf-8"?>
<!-- Generator: Adobe Illustrator 26.5.0, SVG Export Plug-In . SVG Version: 6.00 Build 0)  -->
<svg version="1.1" xmlns="http://www.w3.org/2000/svg" xmlns:xlink="http://www.w3.org/1999/xlink" x="0px" y="0px"
	 viewBox="0 0 90 90" style="enable-background:new 0 0 90 90;" xml:space="preserve">
<style type="text/css">
	.st0{fill:#CECECE;stroke:#F9F9F9;stroke-width:0.025;stroke-linecap:round;stroke-linejoin:round;}
	.st1{display:none;fill:none;stroke:#47CCCC;stroke-width:0.5;stroke-linecap:round;stroke-linejoin:round;}
	.st2{fill:#CECECE;}
</style>
<g id="ALABAMA">
</g>
<g id="ALASKA">
</g>
<g id="ARIZONA">
</g>
<g id="ARKANSAS_1_">
</g>
<g id="CALIFORNIA">
</g>
<g id="COLORADO">
</g>
<g id="CONNECTICUT">
</g>
<g id="DELAWARE">
</g>
<g id="DC">
</g>
<g id="FLORIDA">
</g>
<g id="GEORGIA">
</g>
<g id="HAWAII">
</g>
<g id="IDAHO">
</g>
<g id="IOWA">
</g>
<g id="ILLINOIS">
</g>
<g id="INDIANA">
</g>
<g id="KANSAS">
</g>
<g id="KETUCKY">
</g>
<g id="LOUISANA">
</g>
<g id="MAINE">
</g>
<g id="MARYLAND">
</g>
<g id="MASSACHUSETTS">
</g>
<g id="MICHIGAN">
</g>
<g id="MINNESOTA">
</g>
<g id="MISSOURI">
</g>
<g id="MISSISSIPPI">
</g>
<g id="MONTANA">
</g>
<g id="NORTH_CAROLINA">
</g>
<g id="NORTH_DAKOTA">
</g>
<g id="NEBRASKA">
</g>
<g id="NEW_HAMPSHIRE">
</g>
<g id="NEW_JERSEY">
</g>
<g id="NEW_YORK">
</g>
<g id="NEW_MEXICO">
</g>
<g id="NEVADA">
</g>
<g id="OHIO">
</g>
<g id="OKLAHOMA">
</g>
<g id="OREGON">
</g>
<g id="PENNSYLVANIA">
</g>
<g id="RHODE_ISLAND">
</g>
<g id="SOUTH_CAROLINA">
</g>
<g id="SOUTH_DAKOTA">
</g>
<g id="TENNESSEE">
</g>
<g id="TEXAS">
</g>
<g id="UTAH">
</g>
<g id="VIRGINIA">
</g>
<g id="VERMONT">
</g>
<g id="WASHINGTON">
</g>
<g id="WISCONSIN">
	<path id="WI_1_" class="st0" d="M32.76,16.91l0.04,0.26l0.17,0.07l0.48-0.39l0.61-0.21l0.13-0.26l-0.2-0.01l0.09-0.19l0.26-0.24
		l0.27-0.12l0.29-0.06l0.18-0.11v-0.17l-0.21-0.23l-0.22,0.06l-0.63,0.36l-0.12,0.14l-0.12,0.2l-0.83,0.56L32.76,16.91z
		 M34.81,14.52l0.2,0.01l0.2,0.05l0.18,0.13l-0.07-0.22l0.04-0.17l0.11-0.14l0.11-0.12l-0.01-0.22l-0.18-0.01L34.94,14l-0.55,0.18
		l-0.13,0.09l-0.17,0.27l0.11,0.08L34.81,14.52z M30.59,14.21l0.19-0.09l0.14-0.21L31,13.69l-0.19-0.19l-0.12,0.15l-0.31,0.26v0.15
		L30.59,14.21z M75.35,43.01l-0.29-0.06l-0.25-0.2l-0.39-0.48l-0.39-0.25l-0.25,0.19l-0.21,0.21l-0.29-0.14l-0.39,0.51l-0.17,0.14
		l0.04-0.27l-0.3,0.01l-0.31,0.21l-0.26,0.29l-0.18,0.25l-0.34,0.67l-0.3,0.78l0.13,0.22l-0.09,0.27l-0.17,0.25l-0.08,0.19
		l-0.12,0.15l-0.79,0.42l-0.47,0.43l-0.24,0.28l-0.07,0.28l-0.07,0.37l-0.24,0.19L68.57,48l-0.28-0.04l-0.22-0.11l-0.25-0.19
		l-0.15-0.19l0.12-0.09l0.05-0.47l0.01-0.34l0.05-0.14l0.07-0.12l0.08-0.21l0.07-0.06l0.04-0.08l-0.09-0.23l-0.02-0.08l0.05-0.38
		l0.05-0.15l0.11-0.18l0.24-0.25l0.12-0.15l0.04-0.18v-0.18l0.04-0.2l0.06-0.19l0.06-0.15l0.57-0.78l0.15-0.44L69.31,42l0.29-0.45
		l0.51-0.27l1-0.34l0.24-0.13l0.19-0.15l0.12-0.24l0.01-0.33l-0.05-0.32l-0.01-0.18l0.02-0.13l0.26-0.48l0.02-0.1l-0.65-0.17
		l-0.21-0.13l-0.04-0.07l-0.07-0.09l-0.14-0.14l-0.29-0.22l-0.2-0.2l-0.09-0.13l-0.02-0.1v-0.5l0.02-0.19l0.15-0.65l0.22-0.65
		l0.07-0.14l0.15-0.2l0.05-0.1V35.1l-0.02-0.08l-0.09-0.12l-0.11-0.13l-0.08-0.08l-0.08-0.03h-0.07l-0.07,0.02l-0.8,0.52l-0.08,0.04
		l-0.08,0.01h-0.09L69,35.19l-0.09,0.01l-0.07,0.02l-0.13,0.09l-0.1,0.02l-0.11-0.01l-0.19-0.08l-0.08-0.1l-0.05-0.09l0.01-0.09
		l0.09-0.33l0.01-0.11V34.4l-0.05-0.19l-0.01-0.12L68.27,34l0.05-0.07l0.34-0.31l0.05-0.06l0.05-0.07l0.07-0.15l0.05-0.17l0.01-0.08
		v-0.05l-0.01-0.11l-0.14-0.46l-0.14-0.3l-0.01-0.14l0.05-0.07l0.08-0.04l0.06-0.04l0.06-0.06l0.04-0.09l0.01-0.12l-0.02-0.21
		l-0.04-0.11l-0.05-0.08l-0.23-0.28l-0.11-0.15l-0.01-0.12l0.01-0.08l0.12-0.12l0.04-0.05l0.02-0.09v-0.05l-0.02-0.05l-0.08-0.07
		l-0.18-0.15l-0.15-0.15l-0.13-0.08l-0.29-0.15l-0.06-0.06l-0.17-0.17l-0.05-0.06l-0.07-0.04l-0.07-0.04l-0.1-0.01l-0.51,0.01
		l-0.2-0.04l-0.07-0.02l-0.07-0.05l-0.06-0.05l-0.15-0.15l-0.04-0.02l-0.06-0.01h-0.06l-0.23,0.11l-0.19,0.04h-0.09l-0.19-0.02
		l-0.19-0.05l-0.18-0.07l-0.09-0.07l-0.13-0.13l-0.05-0.11v-0.11l0.02-0.08l0.02-0.08L64.96,28L65,27.93l0.04-0.09l-0.01-0.14
		l-0.05-0.11l-0.37-0.58l-0.11-0.1l-0.11-0.06l-0.19-0.05l-0.08-0.02l-0.31-0.2l-0.09-0.02l-0.09,0.01l-0.17,0.05l-0.09,0.01h-0.1
		l-0.21-0.05l-0.21-0.09l-0.09-0.02h-0.09l-0.4,0.04l-0.19-0.01L62,26.48l-0.32-0.2l-0.11-0.04l-0.11-0.01l-0.22,0.09h-0.11h-0.11
		l-0.42-0.17l-0.09-0.02l-0.08,0.01l-0.07,0.04l-0.09,0.01l-0.12-0.02l-0.2-0.12L59.83,26l-0.12-0.04h-0.09l-0.08,0.02l-0.08,0.02
		l-0.13,0.09l-0.08,0.02h-0.08l-0.09-0.01h-0.08l-0.07,0.04l-0.24,0.2l-0.09,0.02l-0.13-0.01l-0.42-0.15l-0.26-0.05l-0.19-0.07
		l-0.12-0.02h-0.12l-0.08,0.01l-0.22,0.12l-0.09,0.01l-0.12-0.01l-0.09-0.07l-0.08-0.02l-0.08,0.01l-0.17,0.05l-0.08,0.01h-0.15
		l-0.28-0.12l-0.72-0.3l-0.72-0.3l-0.71-0.29l-0.71-0.29l-0.26-0.09l-0.42-0.07l-0.13-0.01l-0.34-0.06l-0.53-0.08l-0.71-0.11
		l-0.83-0.13l-0.92-0.15l-0.99-0.15l-1.03-0.15l-1.02-0.17l-0.99-0.17l-0.92-0.14l-0.83-0.14l-0.7-0.11l-0.54-0.09L41.53,23
		l-0.13-0.02l-0.33-0.06l-0.06-0.06l-0.05-0.08l-0.12-0.29l-0.22-0.4l-0.37-0.63l-0.22-0.41l-0.14-0.25l-0.15-0.17l-0.17-0.15
		l-0.12-0.06l-0.12-0.02h-0.11l-0.14-0.04l-0.09-0.06l-0.12-0.09l-0.12-0.02l-0.21-0.02l-0.07-0.06l-0.14-0.21l-0.08-0.04
		l-0.07,0.01L37.97,20l-0.07,0.04l-0.09,0.01l-0.13-0.01L37.59,20l-0.06-0.06l-0.06-0.15l-0.08-0.28l0.04-0.08l-0.28,0.22
		l-0.22,0.01l-0.51-0.22l-0.84-0.12l-1.1-0.48l-0.91-0.7l-0.25-0.12l0.08,0.05l0.25,0.24h-0.13l-0.12,0.04l-0.11,0.05l-0.11,0.07
		l0.01,0.09l0.4-0.04l-0.19,0.32l-0.28,0.23l-1.32,0.65l-0.32,0.09l-0.32-0.12l0.12-0.32l0.17-0.31l0.66-0.89l0.05-0.19l-0.07-0.14
		l-0.09-0.14l-0.06-0.14v-0.27l0.05-0.33l0.11-0.28l0.2-0.14l0.18-0.17l0.24-0.71l0.17-0.22l-0.07-0.14l-0.04-0.06l0.26-0.15
		l-0.05-0.12l-0.16-0.09l-0.09-0.09l-0.07-0.29l-0.12-0.08l-0.34,0.05l-0.06-0.04l-0.04-0.09l-0.02-0.11l-0.02-0.06l-0.11-0.05
		l-0.11-0.02l-0.22-0.01l-0.09,0.06l-0.04,0.11l-0.02,0.12l-0.02,0.07l-0.11,0.05l-0.13,0.05l-0.24,0.04l-0.09-0.01l-0.18-0.05
		l-0.07-0.01l-0.11,0.04l-0.07,0.07l-0.05,0.07l-0.04,0.05l-0.47,0.25l-0.12,0.12l-0.05,0.1l-0.01,0.11l-0.02,0.08l-0.09,0.05
		l-0.22,0.02l-0.09,0.04l-0.09,0.07l-0.15,0.36l-0.14,0.13l-0.22-0.12l0.01-0.09l-0.01-0.04l-0.01-0.02l-0.01-0.07l-0.2,0.25
		l-0.25,0.11l-0.17-0.07l0.06-0.34l-0.32,0.11l-0.53,0.51l-0.84,0.6l-0.52,0.54l-0.17-0.12l-0.83,0.4L24,17.84l-2.47,1.09
		l-1.65,0.37H19.6L18.86,19l-0.18-0.04l-0.2-0.09l-0.3-0.22l-0.26-0.26l-0.08-0.14l-0.15,0.07l-0.18,0.14l-0.07,0.15l-0.08,0.26
		l-0.04,0.06l-0.06,0.05l-0.18,0.06l-0.07,0.04l-0.05,0.05l-0.05,0.07l-0.04,0.08l-0.01,0.09l-0.02,0.39l-0.02,0.07l-0.02,0.04
		l-0.04,0.06l-0.06,0.04l-0.17,0.06l-0.19,0.02h-0.21l-0.17-0.05l-0.05-0.01l-0.02,0.06l0.02,0.33l0.06,0.97l0.07,0.97l0.06,0.96
		l0.07,0.97l0.06,0.97l0.07,0.97l0.07,0.97l0.06,0.97l0.02,0.23l0.02,0.5l-0.21,0.06L16.14,29L16,29.18l-0.11,0.21l-0.04,0.21
		l-0.11,0.14h-0.26l-0.29-0.04H15l-0.17,0.15l-0.22,0.41l-0.17,0.09l-0.47,0.04l-0.11,0.05l-0.08,0.07l-0.07,0.08l-0.04,0.04
		l-0.01,0.04l-0.12,0.22l-0.06,0.07l-0.08,0.06l-0.29,0.06l-0.6,0.41l-0.2,0.06l-0.34,0.19l-0.31,0.4l-0.4,0.86l0.08,0.44
		l-0.29,0.47l-0.93,0.98l-0.09,0.19l-0.02,0.26l-0.01,1.17l0.26,0.52l0.5,0.08l0.59-0.05l0.45,0.13l0.14,0.22l0.21,0.58l0.11,0.21
		l0.21,0.24l0.22,0.2l0.18,0.23l0.07,0.29l-0.02,0.27l-0.31,0.55l-0.05,0.35l-0.05,0.28l-0.14,0.19l-0.17,0.15l-0.15,0.2l-0.08,0.26
		l-0.02,0.28l0.04,0.69l-0.06,0.33l-0.01,0.18l0.06,0.08l0.24,0.5l0.04,0.34l-0.05,0.31l-0.14,0.22l-0.22,0.1l-0.16,0.17l0.11,0.33
		l0.32,0.67l0.15,0.65l0.09,0.65l-0.04,0.11l-0.14,0.27l-0.02,0.17l0.09,0.48l0.02,0.19l-0.05,0.42l-0.42,0.99l0.33,0.25l0.75,0.39
		l0.86,0.74l0.22,0.12l0.08,0.13l0.06,0.14l0.06,0.08l0.53,0.27l1.83,0.16l0.42,0.12l0.42,0.28l0.37,0.38l0.35,0.65l0.11,0.17
		l0.13,0.12l0.17,0.06l1.38,0.13l0.64,0.18l1.9,1.43l0.5,0.7l1,1.58l0.25,0.28l0.47,0.17l1.45,1.08l0.14,0.07l0.16,0.02l1.13-0.08
		l0.07,0.02l0.71,0.47l0.08,0.03l0.11,0.02h0.44l0.14,0.06l0.08,0.07l0.06,0.08l0.04,0.09l0.04,0.12l0.09,0.21l0.29,0.31l0.11,0.2
		l0.52,0.14l0.17,0.08l0.13,0.12l0.08,0.14l0.07,0.17l0.08,0.38l0.04,0.36l0.01,0.45l0.01,0.14L30.9,63l0.06,0.12l0.07,0.11
		l0.18,0.18l0.08,0.11l0.05,0.14l0.07,0.3l0.02,0.29l-0.08,0.85l0.01,0.14l0.13,0.4l0.01,0.17l-0.01,0.48l0.02,0.21l0.11,0.39
		l0.04,0.2l-0.01,0.2l-0.04,0.37v0.02v0.2l0.02,0.19l0.05,0.18l0.07,0.17l0.19,0.31l0.07,0.14l0.05,0.17l0.09,0.43l0.11,0.15
		l0.14,0.09l1.05,0.32l0.32,0.33l0.07,0.58l-0.19,0.48l-0.55,0.89L33,72.85l0.15,1.09l0.13,0.52l0.05,0.57l0.04,0.18l0.07,0.18
		l0.07,0.71l0.09,0.34l0.15,0.25l0.37,0.38l0.14,0.21l0.09,0.27l0.08,0.66l0.07,0.29l0.46,0.74l0.17,0.19l0.29,0.18l0.53,0.18
		L38.04,80l0.56,0.15l0.28,0.01l0.29,0.07l0.2,0.21l0.29,0.61l0.12,0.18l0.34,0.41l0.12,0.22l-0.01,0.18l-0.13,0.36h0.01l0,0l0,0
		h0.01l0,0l0,0l0.01-0.01l0,0l0,0l0,0h0.01l0,0l0,0l0,0l2.13-0.15l2.12-0.17l2.12-0.18l2.11-0.17l2.13-0.18l2.13-0.18l2.11-0.19
		l2.12-0.18l2.11-0.19l2.13-0.2l2.12-0.19l2.11-0.2l2.12-0.2l2.12-0.21l2.12-0.21l2.08-0.2l-0.21-1.18l0.01-0.15l0.04-0.18v-0.18
		l-0.13-0.26l-0.04-0.19l-0.02-0.21v-0.15l0.07-0.29l0.2-0.52l0.01-1.06l-0.05-0.28l-0.18-0.32l-0.57-0.58l-0.14-0.21l-0.06-0.15
		l-0.18-1.25l-0.13-0.35l-0.24-0.31l-0.34-0.06l-0.11-0.19l0.04-0.28l0.18-0.58l0.01-0.13l-0.01-0.19l-0.06-0.08l-0.25-0.17
		l-0.07-0.14l0.01-0.35l0.06-0.25l0.01-0.26l-0.13-0.35l-0.13-0.27l-0.07-0.17l-0.07-0.56l0.2-1.21l0.04-0.48l0.59-1.51l0.11-0.63
		l-0.18-0.48l0.02-0.38l0.09-0.32l0.58-1.32l0.22-0.76l-0.11-0.09l0.06-0.18l-0.02-0.05l-0.07-0.1l0.08-0.17l0.02-0.15l-0.02-0.14
		l-0.06-0.18l-0.31-0.41l-0.04-0.07l-0.11-0.17l-0.06-0.4l-0.02-1.18l0.01-0.16l0.18-0.36l0.01-0.14V56.1l0.05-0.33l0.46-1.43
		l0.15-0.28l0.15-0.15l0.64-0.41l0.2-0.24l0.17-0.28l0.12-0.33l0.02-0.33l-0.11-0.23l-0.54-0.59l-0.14-0.52v-0.18l0.07-0.32
		l0.04-0.25l0.13-0.34l0.02-0.17l-0.02-0.36l0.14-1.76l0.15-0.7l0.24-0.6l0.47-0.74l0.08-0.31l0.13-0.28l0.02-0.08V44.7l0.02-0.18
		l0.25-1.05l-0.02-0.34L75.35,43.01z M33.35,14.77l0.21-0.14l0.11-0.11l-0.04-0.15l-0.18-0.24l-0.08-0.05L33.16,14l-0.12-0.06
		l-0.04,0.13l-0.04,0.11l-0.05,0.11l-0.07,0.11l0.37,0.24L33.35,14.77z M36.82,12.68l-0.09-0.51l0.02-0.06l0.02-0.05l0.01-0.05
		v-0.07l-0.35,0.04l-0.21,0.28l-0.09,0.45v0.51l0.47-0.25L36.82,12.68z M79.88,34.08l0.07-0.25l0.07-0.27L80,33.3l-0.15-0.17
		l-0.21,0.01l-0.21,0.11l-0.2,0.05l-0.18-0.18l-0.13-0.11l-0.09,0.12l-0.04,0.25v0.25l0.09,0.38l-0.02,0.15l-0.14,0.17l0.12,0.06
		l0.14-0.02l0.29-0.09l0.73,0.01l-0.07-0.14L79.88,34.08z M78.67,35.65l-0.02-0.13l0.04-0.13l0.04-0.21l-0.09-0.04l-0.28,0.08
		l-0.35,0.04l-0.14-0.05l-0.18-0.13l-0.06,0.12l-0.04,0.11l-0.01,0.13l0.01,0.14l-0.02,0.08l-0.09,0.05l-0.11,0.02l-0.07,0.05
		l-0.11,0.7l-0.01,0.21l-0.07,0.15l-0.38,0.19l-0.07,0.15l-0.06,0.17l-0.19,0.01l-0.22-0.05l-0.15-0.01l-0.14,0.17l-0.09,0.26
		l-0.05,0.31v0.5l-0.04,0.17l-0.13,0.25v0.07l0.04,0.18v0.06l-0.05,0.02l-0.14-0.01l-0.05,0.01l-0.58,0.88l-0.22,0.58l-0.08,0.67
		l0.15,0.59l0.37,0.56l0.46,0.32l0.47-0.06l0.18-0.17l0.47-0.8l0.07-0.15l0.02-0.31l0.05-0.13l0.09-0.11l0.24-0.15l0.09-0.12
		l-0.31-0.25l0.09-0.5l0.44-0.87l0.07-0.33l0.06-0.15l0.12-0.07l0.09,0.02l0.11,0.04l0.1,0.02l0.04-0.06l-0.05-0.28l0.01-0.07
		l0.06-0.14l0.05-0.06l0.09-0.01l0.09-0.05l0.06-0.13l-0.5-0.38l-0.13-0.19l0.14-0.08l0.16,0.01l0.34,0.11l-0.05-0.14l-0.14-0.2
		l-0.04-0.15v-0.15l0.08-0.5l-0.06-0.09l-0.09-0.08l-0.04-0.07L78.1,36l0.12,0.02l0.48,0.23l0.11-0.33l-0.08-0.13L78.67,35.65z"/>
	<path id="WI_2_" class="st1" d="M32.76,16.91l0.04,0.26l0.17,0.07l0.48-0.39l0.61-0.21l0.13-0.26l-0.2-0.01l0.09-0.19l0.26-0.24
		l0.27-0.12l0.29-0.06l0.18-0.11v-0.17l-0.21-0.23l-0.22,0.06l-0.63,0.36l-0.12,0.14l-0.12,0.2l-0.83,0.56L32.76,16.91z
		 M34.81,14.52l0.2,0.01l0.2,0.05l0.18,0.13l-0.07-0.22l0.04-0.17l0.11-0.14l0.11-0.12l-0.01-0.22l-0.18-0.01L34.94,14l-0.55,0.18
		l-0.13,0.09l-0.17,0.27l0.11,0.08L34.81,14.52z M30.59,14.21l0.19-0.09l0.14-0.21L31,13.69l-0.19-0.19l-0.12,0.15l-0.31,0.26v0.15
		L30.59,14.21z M75.35,43.01l-0.29-0.06l-0.25-0.2l-0.39-0.48l-0.39-0.25l-0.25,0.19l-0.21,0.21l-0.29-0.14l-0.39,0.51l-0.17,0.14
		l0.04-0.27l-0.3,0.01l-0.31,0.21l-0.26,0.29l-0.18,0.25l-0.34,0.67l-0.3,0.78l0.13,0.22l-0.09,0.27l-0.17,0.25l-0.08,0.19
		l-0.12,0.15l-0.79,0.42l-0.47,0.43l-0.24,0.28l-0.07,0.28l-0.07,0.37l-0.24,0.19L68.57,48l-0.28-0.04l-0.22-0.11l-0.25-0.19
		l-0.15-0.19l0.12-0.09l0.05-0.47l0.01-0.34l0.05-0.14l0.07-0.12l0.08-0.21l0.07-0.06l0.04-0.08l-0.09-0.23l-0.02-0.08l0.05-0.38
		l0.05-0.15l0.11-0.18l0.24-0.25l0.12-0.15l0.04-0.18v-0.18l0.04-0.2l0.06-0.19l0.06-0.15l0.57-0.78l0.15-0.44L69.31,42l0.29-0.45
		l0.51-0.27l1-0.34l0.24-0.13l0.19-0.15l0.12-0.24l0.01-0.33l-0.05-0.32l-0.01-0.18l0.02-0.13l0.26-0.48l0.02-0.1l-0.65-0.17
		l-0.21-0.13l-0.04-0.07l-0.07-0.09l-0.14-0.14l-0.29-0.22l-0.2-0.2l-0.09-0.13l-0.02-0.1v-0.5l0.02-0.19l0.15-0.65l0.22-0.65
		l0.07-0.14l0.15-0.2l0.05-0.1V35.1l-0.02-0.08l-0.09-0.12l-0.11-0.13l-0.08-0.08l-0.08-0.03h-0.07l-0.07,0.02l-0.8,0.52l-0.08,0.04
		l-0.08,0.01h-0.09L69,35.19l-0.09,0.01l-0.07,0.02l-0.13,0.09l-0.1,0.02l-0.11-0.01l-0.19-0.08l-0.08-0.1l-0.05-0.09l0.01-0.09
		l0.09-0.33l0.01-0.11V34.4l-0.05-0.19l-0.01-0.12L68.27,34l0.05-0.07l0.34-0.31l0.05-0.06l0.05-0.07l0.07-0.15l0.05-0.17l0.01-0.08
		v-0.05l-0.01-0.11l-0.14-0.46l-0.14-0.3l-0.01-0.14l0.05-0.07l0.08-0.04l0.06-0.04l0.06-0.06l0.04-0.09l0.01-0.12l-0.02-0.21
		l-0.04-0.11l-0.05-0.08l-0.23-0.28l-0.11-0.15l-0.01-0.12l0.01-0.08l0.12-0.12l0.04-0.05l0.02-0.09v-0.05l-0.02-0.05l-0.08-0.07
		l-0.18-0.15l-0.15-0.15l-0.13-0.08l-0.29-0.15l-0.06-0.06l-0.17-0.17l-0.05-0.06l-0.07-0.04l-0.07-0.04l-0.1-0.01l-0.51,0.01
		l-0.2-0.04l-0.07-0.02l-0.07-0.05l-0.06-0.05l-0.15-0.15l-0.04-0.02l-0.06-0.01h-0.06l-0.23,0.11l-0.19,0.04h-0.09l-0.19-0.02
		l-0.19-0.05l-0.18-0.07l-0.09-0.07l-0.13-0.13l-0.05-0.11v-0.11l0.02-0.08l0.02-0.08L64.96,28L65,27.93l0.04-0.09l-0.01-0.14
		l-0.05-0.11l-0.37-0.58l-0.11-0.1l-0.11-0.06l-0.19-0.05l-0.08-0.02l-0.31-0.2l-0.09-0.02l-0.09,0.01l-0.17,0.05l-0.09,0.01h-0.1
		l-0.21-0.05l-0.21-0.09l-0.09-0.02h-0.09l-0.4,0.04l-0.19-0.01L62,26.48l-0.32-0.2l-0.11-0.04l-0.11-0.01l-0.22,0.09h-0.11h-0.11
		l-0.42-0.17l-0.09-0.02l-0.08,0.01l-0.07,0.04l-0.09,0.01l-0.12-0.02l-0.2-0.12L59.83,26l-0.12-0.04h-0.09l-0.08,0.02l-0.08,0.02
		l-0.13,0.09l-0.08,0.02h-0.08l-0.09-0.01h-0.08l-0.07,0.04l-0.24,0.2l-0.09,0.02l-0.13-0.01l-0.42-0.15l-0.26-0.05l-0.19-0.07
		l-0.12-0.02h-0.12l-0.08,0.01l-0.22,0.12l-0.09,0.01l-0.12-0.01l-0.09-0.07l-0.08-0.02l-0.08,0.01l-0.17,0.05l-0.08,0.01h-0.15
		l-0.28-0.12l-0.72-0.3l-0.72-0.3l-0.71-0.29l-0.71-0.29l-0.26-0.09l-0.42-0.07l-0.13-0.01l-0.34-0.06l-0.53-0.08l-0.71-0.11
		l-0.83-0.13l-0.92-0.15l-0.99-0.15l-1.03-0.15l-1.02-0.17l-0.99-0.17l-0.92-0.14l-0.83-0.14l-0.7-0.11l-0.54-0.09L41.53,23
		l-0.13-0.02l-0.33-0.06l-0.06-0.06l-0.05-0.08l-0.12-0.29l-0.22-0.4l-0.37-0.63l-0.22-0.41l-0.14-0.25l-0.15-0.17l-0.17-0.15
		l-0.12-0.06l-0.12-0.02h-0.11l-0.14-0.04l-0.09-0.06l-0.12-0.09l-0.12-0.02l-0.21-0.02l-0.07-0.06l-0.14-0.21l-0.08-0.04
		l-0.07,0.01L37.97,20l-0.07,0.04l-0.09,0.01l-0.13-0.01L37.59,20l-0.06-0.06l-0.06-0.15l-0.08-0.28l0.04-0.08l-0.28,0.22
		l-0.22,0.01l-0.51-0.22l-0.84-0.12l-1.1-0.48l-0.91-0.7l-0.25-0.12l0.08,0.05l0.25,0.24h-0.13l-0.12,0.04l-0.11,0.05l-0.11,0.07
		l0.01,0.09l0.4-0.04l-0.19,0.32l-0.28,0.23l-1.32,0.65l-0.32,0.09l-0.32-0.12l0.12-0.32l0.17-0.31l0.66-0.89l0.05-0.19l-0.07-0.14
		l-0.09-0.14l-0.06-0.14v-0.27l0.05-0.33l0.11-0.28l0.2-0.14l0.18-0.17l0.24-0.71l0.17-0.22l-0.07-0.14l-0.04-0.06l0.26-0.15
		l-0.05-0.12l-0.16-0.09l-0.09-0.09l-0.07-0.29l-0.12-0.08l-0.34,0.05l-0.06-0.04l-0.04-0.09l-0.02-0.11l-0.02-0.06l-0.11-0.05
		l-0.11-0.02l-0.22-0.01l-0.09,0.06l-0.04,0.11l-0.02,0.12l-0.02,0.07l-0.11,0.05l-0.13,0.05l-0.24,0.04l-0.09-0.01l-0.18-0.05
		l-0.07-0.01l-0.11,0.04l-0.07,0.07l-0.05,0.07l-0.04,0.05l-0.47,0.25l-0.12,0.12l-0.05,0.1l-0.01,0.11l-0.02,0.08l-0.09,0.05
		l-0.22,0.02l-0.09,0.04l-0.09,0.07l-0.15,0.36l-0.14,0.13l-0.22-0.12l0.01-0.09l-0.01-0.04l-0.01-0.02l-0.01-0.07l-0.2,0.25
		l-0.25,0.11l-0.17-0.07l0.06-0.34l-0.32,0.11l-0.53,0.51l-0.84,0.6l-0.52,0.54l-0.17-0.12l-0.83,0.4L24,17.84l-2.47,1.09
		l-1.65,0.37H19.6L18.86,19l-0.18-0.04l-0.2-0.09l-0.3-0.22l-0.26-0.26l-0.08-0.14l-0.15,0.07l-0.18,0.14l-0.07,0.15l-0.08,0.26
		l-0.04,0.06l-0.06,0.05l-0.18,0.06l-0.07,0.04l-0.05,0.05l-0.05,0.07l-0.04,0.08l-0.01,0.09l-0.02,0.39l-0.02,0.07l-0.02,0.04
		l-0.04,0.06l-0.06,0.04l-0.17,0.06l-0.19,0.02h-0.21l-0.17-0.05l-0.05-0.01l-0.02,0.06l0.02,0.33l0.06,0.97l0.07,0.97l0.06,0.96
		l0.07,0.97l0.06,0.97l0.07,0.97l0.07,0.97l0.06,0.97l0.02,0.23l0.02,0.5l-0.21,0.06L16.14,29L16,29.18l-0.11,0.21l-0.04,0.21
		l-0.11,0.14h-0.26l-0.29-0.04H15l-0.17,0.15l-0.22,0.41l-0.17,0.09l-0.47,0.04l-0.11,0.05l-0.08,0.07l-0.07,0.08l-0.04,0.04
		l-0.01,0.04l-0.12,0.22l-0.06,0.07l-0.08,0.06l-0.29,0.06l-0.6,0.41l-0.2,0.06l-0.34,0.19l-0.31,0.4l-0.4,0.86l0.08,0.44
		l-0.29,0.47l-0.93,0.98l-0.09,0.19l-0.02,0.26l-0.01,1.17l0.26,0.52l0.5,0.08l0.59-0.05l0.45,0.13l0.14,0.22l0.21,0.58l0.11,0.21
		l0.21,0.24l0.22,0.2l0.18,0.23l0.07,0.29l-0.02,0.27l-0.31,0.55l-0.05,0.35l-0.05,0.28l-0.14,0.19l-0.17,0.15l-0.15,0.2l-0.08,0.26
		l-0.02,0.28l0.04,0.69l-0.06,0.33l-0.01,0.18l0.06,0.08l0.24,0.5l0.04,0.34l-0.05,0.31l-0.14,0.22l-0.22,0.1l-0.16,0.17l0.11,0.33
		l0.32,0.67l0.15,0.65l0.09,0.65l-0.04,0.11l-0.14,0.27l-0.02,0.17l0.09,0.48l0.02,0.19l-0.05,0.42l-0.42,0.99l0.33,0.25l0.75,0.39
		l0.86,0.74l0.22,0.12l0.08,0.13l0.06,0.14l0.06,0.08l0.53,0.27l1.83,0.16l0.42,0.12l0.42,0.28l0.37,0.38l0.35,0.65l0.11,0.17
		l0.13,0.12l0.17,0.06l1.38,0.13l0.64,0.18l1.9,1.43l0.5,0.7l1,1.58l0.25,0.28l0.47,0.17l1.45,1.08l0.14,0.07l0.16,0.02l1.13-0.08
		l0.07,0.02l0.71,0.47l0.08,0.03l0.11,0.02h0.44l0.14,0.06l0.08,0.07l0.06,0.08l0.04,0.09l0.04,0.12l0.09,0.21l0.29,0.31l0.11,0.2
		l0.52,0.14l0.17,0.08l0.13,0.12l0.08,0.14l0.07,0.17l0.08,0.38l0.04,0.36l0.01,0.45l0.01,0.14L30.9,63l0.06,0.12l0.07,0.11
		l0.18,0.18l0.08,0.11l0.05,0.14l0.07,0.3l0.02,0.29l-0.08,0.85l0.01,0.14l0.13,0.4l0.01,0.17l-0.01,0.48l0.02,0.21l0.11,0.39
		l0.04,0.2l-0.01,0.2l-0.04,0.37v0.02v0.2l0.02,0.19l0.05,0.18l0.07,0.17l0.19,0.31l0.07,0.14l0.05,0.17l0.09,0.43l0.11,0.15
		l0.14,0.09l1.05,0.32l0.32,0.33l0.07,0.58l-0.19,0.48l-0.55,0.89L33,72.85l0.15,1.09l0.13,0.52l0.05,0.57l0.04,0.18l0.07,0.18
		l0.07,0.71l0.09,0.34l0.15,0.25l0.37,0.38l0.14,0.21l0.09,0.27l0.08,0.66l0.07,0.29l0.46,0.74l0.17,0.19l0.29,0.18l0.53,0.18
		L38.04,80l0.56,0.15l0.28,0.01l0.29,0.07l0.2,0.21l0.29,0.61l0.12,0.18l0.34,0.41l0.12,0.22l-0.01,0.18l-0.13,0.36h0.01l0,0l0,0
		h0.01l0,0l0,0l0.01-0.01l0,0l0,0l0,0h0.01l0,0l0,0l0,0l2.13-0.15l2.12-0.17l2.12-0.18l2.11-0.17l2.13-0.18l2.13-0.18l2.11-0.19
		l2.12-0.18l2.11-0.19l2.13-0.2l2.12-0.19l2.11-0.2l2.12-0.2l2.12-0.21l2.12-0.21l2.08-0.2l-0.21-1.18l0.01-0.15l0.04-0.18v-0.18
		l-0.13-0.26l-0.04-0.19l-0.02-0.21v-0.15l0.07-0.29l0.2-0.52l0.01-1.06l-0.05-0.28l-0.18-0.32l-0.57-0.58l-0.14-0.21l-0.06-0.15
		l-0.18-1.25l-0.13-0.35l-0.24-0.31l-0.34-0.06l-0.11-0.19l0.04-0.28l0.18-0.58l0.01-0.13l-0.01-0.19l-0.06-0.08l-0.25-0.17
		l-0.07-0.14l0.01-0.35l0.06-0.25l0.01-0.26l-0.13-0.35l-0.13-0.27l-0.07-0.17l-0.07-0.56l0.2-1.21l0.04-0.48l0.59-1.51l0.11-0.63
		l-0.18-0.48l0.02-0.38l0.09-0.32l0.58-1.32l0.22-0.76l-0.11-0.09l0.06-0.18l-0.02-0.05l-0.07-0.1l0.08-0.17l0.02-0.15l-0.02-0.14
		l-0.06-0.18l-0.31-0.41l-0.04-0.07l-0.11-0.17l-0.06-0.4l-0.02-1.18l0.01-0.16l0.18-0.36l0.01-0.14V56.1l0.05-0.33l0.46-1.43
		l0.15-0.28l0.15-0.15l0.64-0.41l0.2-0.24l0.17-0.28l0.12-0.33l0.02-0.33l-0.11-0.23l-0.54-0.59l-0.14-0.52v-0.18l0.07-0.32
		l0.04-0.25l0.13-0.34l0.02-0.17l-0.02-0.36l0.14-1.76l0.15-0.7l0.24-0.6l0.47-0.74l0.08-0.31l0.13-0.28l0.02-0.08V44.7l0.02-0.18
		l0.25-1.05l-0.02-0.34L75.35,43.01z M33.35,14.77l0.21-0.14l0.11-0.11l-0.04-0.15l-0.18-0.24l-0.08-0.05L33.16,14l-0.12-0.06
		l-0.04,0.13l-0.04,0.11l-0.05,0.11l-0.07,0.11l0.37,0.24L33.35,14.77z M36.82,12.68l-0.09-0.51l0.02-0.06l0.02-0.05l0.01-0.05
		v-0.07l-0.35,0.04l-0.21,0.28l-0.09,0.45v0.51l0.47-0.25L36.82,12.68z M79.88,34.08l0.07-0.25l0.07-0.27L80,33.3l-0.15-0.17
		l-0.21,0.01l-0.21,0.11l-0.2,0.05l-0.18-0.18l-0.13-0.11l-0.09,0.12l-0.04,0.25v0.25l0.09,0.38l-0.02,0.15l-0.14,0.17l0.12,0.06
		l0.14-0.02l0.29-0.09l0.73,0.01l-0.07-0.14L79.88,34.08z M78.67,35.65l-0.02-0.13l0.04-0.13l0.04-0.21l-0.09-0.04l-0.28,0.08
		l-0.35,0.04l-0.14-0.05l-0.18-0.13l-0.06,0.12l-0.04,0.11l-0.01,0.13l0.01,0.14l-0.02,0.08l-0.09,0.05l-0.11,0.02l-0.07,0.05
		l-0.11,0.7l-0.01,0.21l-0.07,0.15l-0.38,0.19l-0.07,0.15l-0.06,0.17l-0.19,0.01l-0.22-0.05l-0.15-0.01l-0.14,0.17l-0.09,0.26
		l-0.05,0.31v0.5l-0.04,0.17l-0.13,0.25v0.07l0.04,0.18v0.06l-0.05,0.02l-0.14-0.01l-0.05,0.01l-0.58,0.88l-0.22,0.58l-0.08,0.67
		l0.15,0.59l0.37,0.56l0.46,0.32l0.47-0.06l0.18-0.17l0.47-0.8l0.07-0.15l0.02-0.31l0.05-0.13l0.09-0.11l0.24-0.15l0.09-0.12
		l-0.31-0.25l0.09-0.5l0.44-0.87l0.07-0.33l0.06-0.15l0.12-0.07l0.09,0.02l0.11,0.04l0.1,0.02l0.04-0.06l-0.05-0.28l0.01-0.07
		l0.06-0.14l0.05-0.06l0.09-0.01l0.09-0.05l0.06-0.13l-0.5-0.38l-0.13-0.19l0.14-0.08l0.16,0.01l0.34,0.11l-0.05-0.14l-0.14-0.2
		l-0.04-0.15v-0.15l0.08-0.5l-0.06-0.09l-0.09-0.08l-0.04-0.07L78.1,36l0.12,0.02l0.48,0.23l0.11-0.33l-0.08-0.13L78.67,35.65z"/>
</g>
<g id="WEST_VIRGINIA">
</g>
<g id="WYOMING">
</g>
</svg>
