<?xml version="1.0" encoding="UTF-8"?>
<svg id="WISCONSIN" xmlns="http://www.w3.org/2000/svg" viewBox="0 0 90 90">
  <defs>
    <style>
      .cls-1 {
        fill: #e2e2e2;
        stroke: #f9f9f9;
        stroke-linecap: round;
        stroke-linejoin: round;
        stroke-width: .03px;
      }
    </style>
  </defs>
  <path id="WI" class="cls-1" d="M32.76,16.91l.04,.26,.17,.07,.48-.39,.61-.21,.13-.26h-.2s.09-.2,.09-.2l.26-.24,.27-.12,.29-.06,.18-.11v-.17l-.21-.23-.22,.06-.63,.36-.12,.14-.12,.2-.83,.56-.2,.33Zm2.04-2.39h.2s.2,.06,.2,.06l.18,.13-.07-.22,.04-.17,.11-.14,.11-.12v-.22s-.19-.01-.19-.01l-.44,.18-.55,.18-.13,.09-.17,.27,.11,.08,.62-.11Zm-4.22-.31l.19-.09,.14-.21,.08-.21-.19-.19-.12,.15-.31,.26v.15l.2,.14Zm44.76,28.8l-.29-.06-.25-.2-.39-.48-.39-.25-.25,.19-.21,.21-.29-.14-.39,.51-.17,.14,.04-.27h-.3s-.31,.23-.31,.23l-.26,.29-.18,.25-.34,.67-.3,.78,.13,.22-.09,.27-.17,.25-.08,.19-.12,.15-.79,.42-.47,.43-.24,.28-.07,.28-.07,.37-.24,.19-.31,.06-.28-.04-.22-.11-.25-.19-.15-.19,.12-.09,.05-.47v-.34s.06-.14,.06-.14l.07-.12,.08-.21,.07-.06,.04-.08-.09-.23-.02-.08,.05-.38,.05-.15,.11-.18,.24-.25,.12-.15,.04-.18v-.18l.04-.2,.06-.19,.06-.15,.57-.78,.15-.44-.18-.42,.29-.45,.51-.27,1-.34,.24-.13,.19-.15,.12-.24v-.33s-.04-.32-.04-.32v-.18s.01-.13,.01-.13l.26-.48,.02-.1-.65-.17-.21-.13-.04-.07-.07-.09-.14-.14-.29-.22-.2-.2-.09-.13-.02-.1v-.5l.02-.19,.15-.65,.22-.65,.07-.14,.15-.2,.05-.1v-.08l-.02-.08-.09-.12-.11-.13-.08-.08-.08-.03h-.07l-.07,.02-.8,.52-.08,.04h-.08s-.09,.01-.09,.01l-.27-.05h-.09s-.07,.04-.07,.04l-.13,.09-.1,.02h-.11s-.19-.09-.19-.09l-.08-.1-.05-.09v-.09s.11-.33,.11-.33v-.11s.01-.13,.01-.13l-.05-.19v-.12s.01-.09,.01-.09l.05-.07,.34-.31,.05-.06,.05-.07,.07-.15,.05-.17v-.08s.01-.05,.01-.05v-.11s-.15-.46-.15-.46l-.14-.3v-.14s.04-.07,.04-.07l.08-.04,.06-.04,.06-.06,.04-.09v-.12s-.01-.21-.01-.21l-.04-.11-.05-.08-.23-.28-.11-.15v-.12s0-.08,0-.08l.12-.12,.04-.05,.02-.09v-.05l-.02-.05-.08-.07-.18-.15-.15-.15-.13-.08-.29-.15-.06-.06-.17-.17-.05-.06-.07-.04-.07-.04h-.1s-.51,0-.51,0l-.2-.04-.07-.02-.07-.05-.06-.05-.15-.15-.04-.02h-.06s-.06-.01-.06-.01l-.23,.11-.19,.04h-.09l-.19-.02-.19-.05-.18-.07-.09-.07-.13-.13-.05-.11v-.11l.02-.08,.02-.08,.22-.34,.04-.07,.04-.09v-.14s-.06-.11-.06-.11l-.37-.58-.11-.1-.11-.06-.19-.05-.08-.02-.31-.2-.09-.02h-.09s-.17,.06-.17,.06h-.09s-.1,.01-.1,.01l-.21-.05-.21-.09-.09-.02h-.09l-.4,.04h-.19s-.07-.02-.07-.02l-.32-.2-.11-.04h-.11s-.22,.08-.22,.08h-.21l-.42-.17-.09-.02h-.08s-.07,.05-.07,.05h-.09s-.12-.01-.12-.01l-.2-.12-.13-.05-.12-.04h-.09l-.08,.02-.08,.02-.13,.09-.08,.02h-.18s-.08-.01-.08-.01l-.07,.04-.24,.2-.09,.02h-.13s-.42-.17-.42-.17l-.26-.05-.19-.07-.12-.02h-.2s-.22,.13-.22,.13h-.09s-.12,0-.12,0l-.09-.07-.08-.02h-.08s-.17,.06-.17,.06h-.08s-.15,.01-.15,.01l-.28-.12-.72-.3-.72-.3-.71-.29-.71-.29-.26-.09-.42-.07h-.13s-.34-.07-.34-.07l-.53-.08-.71-.11-.83-.13-.92-.15-.99-.15-1.03-.15-1.02-.17-.99-.17-.92-.14-.83-.14-.7-.11-.54-.09-.34-.05-.13-.02-.33-.06-.06-.06-.05-.08-.12-.29-.22-.4-.37-.63-.22-.41-.14-.25-.15-.17-.17-.15-.12-.06-.12-.02h-.11l-.14-.04-.09-.06-.12-.09-.12-.02-.21-.02-.07-.06-.14-.21-.08-.04h-.07s-.2,.15-.2,.15l-.07,.04h-.09s-.13,0-.13,0l-.08-.04-.06-.06-.06-.15-.08-.28,.04-.08-.28,.22h-.22s-.51-.21-.51-.21l-.84-.12-1.1-.48-.91-.7-.25-.12,.08,.05,.25,.24h-.13l-.12,.04-.11,.05-.11,.07v.09s.41-.04,.41-.04l-.19,.32-.28,.23-1.32,.65-.32,.09-.32-.12,.12-.32,.17-.31,.66-.89,.05-.19-.07-.14-.09-.14-.06-.14v-.27l.05-.33,.11-.28,.2-.14,.18-.17,.24-.71,.17-.22-.07-.14-.04-.06,.26-.15-.05-.12-.16-.09-.09-.09-.07-.29-.12-.08-.34,.05-.06-.04-.04-.09-.02-.11-.02-.06-.11-.05-.11-.02h-.22s-.09,.05-.09,.05l-.04,.11-.02,.12-.02,.07-.11,.05-.13,.05-.24,.04h-.09s-.18-.06-.18-.06h-.07s-.11,.02-.11,.02l-.07,.07-.05,.07-.04,.05-.47,.25-.12,.12-.05,.1v.11s-.04,.08-.04,.08l-.09,.05-.22,.02-.09,.04-.09,.07-.15,.36-.14,.13-.22-.12v-.09s0-.04,0-.04v-.02s-.02-.07-.02-.07l-.2,.25-.25,.11-.17-.07,.06-.34-.32,.11-.53,.51-.84,.6-.52,.54-.17-.12-.83,.4-.9,.19-2.47,1.09-1.65,.37h-.27l-.74-.3-.18-.04-.2-.09-.3-.22-.26-.26-.08-.14-.15,.07-.18,.14-.07,.15-.08,.26-.04,.06-.06,.05-.18,.06-.07,.04-.05,.05-.05,.07-.04,.08v.09s-.04,.39-.04,.39l-.02,.07-.02,.04-.04,.06-.06,.04-.17,.06-.19,.02h-.21l-.17-.05h-.05s-.02,.05-.02,.05l.02,.33,.06,.97,.07,.97,.06,.96,.07,.97,.06,.97,.07,.97,.07,.97,.06,.97,.02,.23,.02,.5-.21,.06-.14,.12-.14,.18-.11,.21-.04,.21-.11,.14h-.26l-.29-.04h-.2l-.17,.15-.22,.41-.17,.09-.47,.04-.11,.05-.08,.07-.07,.08-.04,.04v.04s-.13,.22-.13,.22l-.06,.07-.08,.06-.29,.06-.6,.41-.2,.06-.34,.19-.31,.4-.4,.86,.08,.44-.29,.47-.93,.98-.09,.19-.02,.26v1.17s.25,.52,.25,.52l.5,.08,.59-.05,.45,.13,.14,.22,.21,.58,.11,.21,.21,.24,.22,.2,.18,.23,.07,.29-.02,.27-.31,.55-.05,.35-.05,.28-.14,.19-.17,.15-.15,.2-.08,.26-.02,.28,.04,.69-.06,.33v.18s.05,.08,.05,.08l.24,.5,.04,.34-.05,.31-.14,.22-.22,.1-.16,.17,.11,.33,.32,.67,.15,.65,.09,.65-.04,.11-.14,.27-.02,.17,.09,.48,.02,.19-.05,.42-.42,.99,.33,.25,.75,.39,.86,.74,.22,.12,.08,.13,.06,.14,.06,.08,.53,.27,1.83,.16,.42,.12,.42,.28,.37,.38,.35,.65,.11,.17,.13,.12,.17,.06,1.38,.13,.64,.18,1.9,1.43,.5,.7,1,1.58,.25,.28,.47,.17,1.45,1.08,.14,.07,.16,.02,1.13-.08,.07,.02,.71,.47,.08,.03,.11,.02h.44l.14,.06,.08,.07,.06,.08,.04,.09,.04,.12,.09,.21,.29,.31,.11,.2,.52,.14,.17,.08,.13,.12,.08,.14,.07,.17,.08,.38,.04,.36v.45s.02,.14,.02,.14l.04,.13,.06,.12,.07,.11,.18,.18,.08,.11,.05,.14,.07,.3,.02,.29-.08,.85v.14s.14,.4,.14,.4v.17s0,.48,0,.48l.02,.21,.11,.39,.04,.2v.2s-.05,.37-.05,.37v.23l.02,.19,.05,.18,.07,.17,.19,.31,.07,.14,.05,.17,.09,.43,.11,.15,.14,.09,1.05,.32,.32,.33,.07,.58-.19,.48-.55,.89-.09,.56,.15,1.09,.13,.52,.05,.57,.04,.18,.07,.18,.07,.71,.09,.34,.15,.25,.37,.38,.14,.21,.09,.27,.08,.66,.07,.29,.46,.74,.17,.19,.29,.18,.53,.18,2.08,.22,.56,.15h.28s.29,.08,.29,.08l.2,.21,.29,.61,.12,.18,.34,.41,.12,.22v.18s-.14,.36-.14,.36h.04s.01-.01,.01-.01h0l2.13-.15,2.12-.17,2.12-.18,2.11-.17,2.13-.18,2.13-.18,2.11-.19,2.12-.18,2.11-.19,2.13-.2,2.12-.19,2.11-.2,2.12-.2,2.12-.21,2.12-.21,2.08-.2-.21-1.18v-.15s.05-.18,.05-.18v-.18l-.13-.26-.04-.19-.02-.21v-.15l.07-.29,.2-.52v-1.06s-.04-.28-.04-.28l-.18-.32-.57-.58-.14-.21-.06-.15-.18-1.25-.13-.35-.24-.31-.34-.06-.11-.19,.04-.28,.18-.58v-.13s0-.19,0-.19l-.06-.08-.25-.17-.07-.14v-.35s.07-.25,.07-.25v-.26s-.12-.35-.12-.35l-.13-.27-.07-.17-.07-.56,.2-1.21,.04-.48,.59-1.51,.11-.63-.18-.48,.02-.38,.09-.32,.58-1.32,.22-.76-.11-.09,.06-.18-.02-.05-.07-.1,.08-.17,.02-.15-.02-.14-.06-.18-.31-.41-.04-.07-.11-.17-.06-.4-.02-1.18v-.16s.19-.36,.19-.36v-.14s.01-.39,.01-.39l.05-.33,.46-1.43,.15-.28,.15-.15,.64-.41,.2-.24,.17-.28,.12-.33,.02-.33-.11-.23-.54-.59-.14-.52v-.18l.07-.32,.04-.25,.13-.34,.02-.17-.02-.36,.14-1.76,.15-.7,.24-.6,.47-.74,.08-.31,.13-.28,.02-.08v-.18l.02-.18,.25-1.05-.02-.34-.25-.12ZM33.35,14.77l.21-.14,.11-.11-.04-.15-.18-.24-.08-.05-.21-.08-.12-.06-.04,.13-.04,.11-.05,.11-.07,.11,.37,.24,.13,.14Zm3.47-2.09l-.09-.51,.02-.06,.02-.05v-.05s.01-.07,.01-.07l-.35,.04-.21,.28-.09,.45v.51l.47-.25,.22-.3Zm43.06,21.41l.07-.25,.07-.27-.02-.26-.15-.17h-.21s-.21,.12-.21,.12l-.2,.05-.18-.18-.13-.11-.09,.12-.04,.25v.25l.09,.38-.02,.15-.14,.17,.12,.06,.14-.02,.29-.09h.73s-.07-.13-.07-.13l-.04-.06Zm-1.22,1.57l-.02-.13,.04-.13,.04-.21-.09-.04-.28,.08-.35,.04-.14-.05-.18-.13-.06,.12-.04,.11v.13s0,.14,0,.14l-.02,.08-.09,.05-.11,.02-.07,.05-.11,.7v.21s-.08,.15-.08,.15l-.38,.19-.07,.15-.06,.17h-.19s-.22-.04-.22-.04h-.15s-.14,.15-.14,.15l-.09,.26-.05,.31v.5l-.04,.17-.13,.25v.07l.04,.18v.06l-.05,.02h-.14s-.05,0-.05,0l-.58,.88-.22,.58-.08,.67,.15,.59,.37,.56,.46,.32,.47-.06,.18-.17,.47-.8,.07-.15,.02-.31,.05-.13,.09-.11,.24-.15,.09-.12-.31-.25,.09-.5,.44-.87,.07-.33,.06-.15,.12-.07,.09,.02,.11,.04,.1,.02,.04-.06-.05-.28v-.07s.07-.14,.07-.14l.05-.06h.09s.09-.06,.09-.06l.06-.13-.5-.38-.13-.19,.14-.08h.16s.34,.12,.34,.12l-.05-.14-.14-.2-.04-.15v-.15l.08-.5-.06-.09-.09-.08-.04-.07,.15-.07,.12,.02,.48,.23,.11-.33-.08-.13-.06-.13Z"/>
  <g>
    <path d="M50.21,46.26l-1.22,5.09h-1.53l-.81-3.41-.82,3.41h-1.53l-1.22-5.09h1.34l.66,3.69,.89-3.69h1.35l.89,3.69,.66-3.69h1.33Z"/>
    <path d="M52.09,46.26v5.09h-1.23v-5.09h1.23Z"/>
  </g>
</svg>