<?xml version="1.0" encoding="UTF-8"?>
<svg id="WYOMING" xmlns="http://www.w3.org/2000/svg" viewBox="0 0 90 90">
  <defs>
    <style>
      .cls-1 {
        fill: #e2e2e2;
        stroke: #f9f9f9;
        stroke-linecap: round;
        stroke-linejoin: round;
        stroke-width: .03px;
      }
    </style>
  </defs>
  <path id="WY" class="cls-1" d="M80.05,48.45l-.05,1.61-.06,1.61-.05,1.61-.06,1.61-.06,1.61-.05,1.62-.06,1.61-.05,1.62-.06,1.61-.05,1.61-.06,1.62-.05,1.61-.06,1.62-.05,1.62-.06,1.62-.06,1.61-1.59-.06-1.58-.06-1.58-.06-1.59-.07-1.58-.07-1.58-.07-1.58-.08-1.58-.07-1.58-.08-1.59-.08-1.58-.09-1.58-.08-1.59-.09-1.58-.09-1.58-.09-1.58-.1-1.58-.09-1.58-.1-1.59-.1-1.58-.11-1.59-.1-1.58-.11-1.58-.11-1.58-.12-1.58-.11-1.58-.12-1.58-.12-1.59-.12-1.58-.12-1.59-.13-1.58-.13-1.58-.13-1.25-.11-1.27-.11-1.25-.11-1.27-.11-1.25-.11-1.26-.11-1.26-.12-1.26-.11-1.26-.12-1.26-.12-1.26-.12-1.26-.13-1.26-.12-1.25-.13-1.26-.12-1.26-.13h0l.08-.81,.08-.8,.08-.81,.09-.8,.08-.81,.08-.8,.09-.81,.08-.8,.08-.8,.08-.81,.08-.8,.09-.8,.08-.81,.08-.8,.08-.8,.09-.8,.2-2.01,.2-2.01,.21-2,.21-2.01,.2-2.01,.2-2.01,.21-2,.2-2,.21-2.01,.2-2,.2-2,.21-2,.2-2,.2-1.99,.21-2,.2-1.99,.04-.38,.04-.39,.04-.39,.04-.38,.04-.39,.04-.38,.04-.38,.04-.39,.04-.38,.04-.39,.04-.38,.04-.39,.04-.38,.04-.39,.04-.38,.04-.39,.02-.21,.49,.05,1.04,.11,1.05,.1,1.05,.11,1.05,.1,1.05,.1,1.04,.1,1.05,.1,1.05,.1,1.05,.1,1.05,.09,1.05,.1,1.05,.09,1.04,.1,1.05,.09,1.05,.09,1.05,.09,1.05,.09,1.05,.09,1.05,.09,1.05,.08,1.05,.09,1.05,.08,1.05,.08,1.05,.09,1.05,.08,1.05,.08,1.05,.07,1.05,.08,1.05,.08,1.05,.07,1.05,.08,1.05,.07,1.05,.07,1.05,.07,1.05,.07,1.05,.07,1.05,.07,1.05,.07,1.06,.06,1.05,.07,1.04,.06,1.06,.07,1.05,.06,1.05,.06,1.05,.06,1.05,.06,1.05,.05,1.06,.06,1.05,.06,1.05,.05,1.05,.05,1.05,.06,1.05,.05,1.06,.05,1.05,.05,1.05,.04,1.05,.05,1.05,.05,1.05,.04,1.06,.05,1.05,.04,1.05,.04,1.05,.04,1.05,.04-.05,1.59-.06,1.59-.05,1.6-.05,1.59-.06,1.6-.05,1.6-.06,1.6-.05,1.59-.05,1.6-.06,1.61-.05,1.6-.06,1.6-.05,1.61-.06,1.6-.05,1.6-.06,1.62h0Z"/>
  <g>
    <path d="M45.93,43.76l-1.22,5.09h-1.53l-.81-3.41-.82,3.41h-1.53l-1.22-5.09h1.34l.66,3.69,.89-3.69h1.35l.89,3.69,.66-3.69h1.33Z"/>
    <path d="M50.98,43.76l-1.76,3.4v1.69h-1.24v-1.69l-1.76-3.4h1.41l.98,2.07,.98-2.07h1.4Z"/>
  </g>
</svg>