<?xml version="1.0" encoding="utf-8"?>
<!-- Generator: Adobe Illustrator 26.5.0, SVG Export Plug-In . SVG Version: 6.00 Build 0)  -->
<svg version="1.1" xmlns="http://www.w3.org/2000/svg" xmlns:xlink="http://www.w3.org/1999/xlink" x="0px" y="0px"
	 viewBox="0 0 90 90" style="enable-background:new 0 0 90 90;" xml:space="preserve">
<style type="text/css">
	.st0{fill:#CECECE;stroke:#F9F9F9;stroke-width:0.025;stroke-linecap:round;stroke-linejoin:round;}
	.st1{display:none;fill:none;stroke:#47CCCC;stroke-width:0.5;stroke-linecap:round;stroke-linejoin:round;}
	.st2{fill:#CECECE;}
</style>
<g id="ALABAMA">
</g>
<g id="ALASKA">
</g>
<g id="ARIZONA">
</g>
<g id="ARKANSAS_1_">
</g>
<g id="CALIFORNIA">
</g>
<g id="COLORADO">
</g>
<g id="CONNECTICUT">
</g>
<g id="DELAWARE">
</g>
<g id="DC">
</g>
<g id="FLORIDA">
</g>
<g id="GEORGIA">
</g>
<g id="HAWAII">
</g>
<g id="IDAHO">
</g>
<g id="IOWA">
</g>
<g id="ILLINOIS">
</g>
<g id="INDIANA">
</g>
<g id="KANSAS">
</g>
<g id="KETUCKY">
</g>
<g id="LOUISANA">
</g>
<g id="MAINE">
</g>
<g id="MARYLAND">
</g>
<g id="MASSACHUSETTS">
</g>
<g id="MICHIGAN">
</g>
<g id="MINNESOTA">
</g>
<g id="MISSOURI">
</g>
<g id="MISSISSIPPI">
</g>
<g id="MONTANA">
</g>
<g id="NORTH_CAROLINA">
</g>
<g id="NORTH_DAKOTA">
</g>
<g id="NEBRASKA">
</g>
<g id="NEW_HAMPSHIRE">
</g>
<g id="NEW_JERSEY">
</g>
<g id="NEW_YORK">
</g>
<g id="NEW_MEXICO">
</g>
<g id="NEVADA">
</g>
<g id="OHIO">
</g>
<g id="OKLAHOMA">
</g>
<g id="OREGON">
</g>
<g id="PENNSYLVANIA">
</g>
<g id="RHODE_ISLAND">
</g>
<g id="SOUTH_CAROLINA">
</g>
<g id="SOUTH_DAKOTA">
</g>
<g id="TENNESSEE">
</g>
<g id="TEXAS">
</g>
<g id="UTAH">
</g>
<g id="VIRGINIA">
</g>
<g id="VERMONT">
</g>
<g id="WASHINGTON">
</g>
<g id="WISCONSIN">
</g>
<g id="WEST_VIRGINIA">
</g>
<g id="WYOMING">
	<path id="WY_1_" class="st0" d="M80.05,48.45L80,50.06l-0.06,1.61l-0.05,1.61l-0.06,1.61l-0.06,1.61l-0.05,1.62l-0.06,1.61
		l-0.05,1.62l-0.06,1.61l-0.05,1.61l-0.06,1.62l-0.05,1.61l-0.06,1.62l-0.05,1.62l-0.06,1.62l-0.06,1.61l-1.59-0.06l-1.58-0.06
		l-1.58-0.06l-1.59-0.07L71.24,74l-1.58-0.07l-1.58-0.08l-1.59-0.07l-1.58-0.08l-1.59-0.08l-1.58-0.09l-1.59-0.08l-1.59-0.09
		l-1.58-0.09l-1.58-0.09l-1.58-0.1l-1.58-0.09l-1.58-0.1l-1.59-0.1l-1.58-0.11l-1.59-0.1l-1.58-0.11l-1.58-0.11l-1.58-0.12
		l-1.58-0.11l-1.58-0.12l-1.58-0.12l-1.59-0.12l-1.58-0.12l-1.59-0.13l-1.58-0.13l-1.58-0.13l-1.25-0.11l-1.27-0.11L24.68,71
		l-1.27-0.11l-1.25-0.11l-1.26-0.11l-1.26-0.12l-1.26-0.11l-1.26-0.12l-1.26-0.12l-1.26-0.12l-1.26-0.13l-1.26-0.12l-1.25-0.13
		l-1.26-0.12l-1.26-0.13l0,0l0,0l0,0l0,0l0,0l0,0l0,0l0.08-0.81l0.08-0.8l0.08-0.81l0.09-0.8l0.08-0.81l0.08-0.8l0.09-0.81l0.08-0.8
		L9,62.23l0.08-0.81l0.08-0.8l0.09-0.8L9.33,59l0.08-0.8l0.08-0.8l0.09-0.8l0.2-2.01l0.2-2.01l0.21-2l0.21-2.01l0.2-2.01l0.2-2.01
		l0.21-2l0.2-2l0.21-2.01l0.2-2l0.2-2l0.21-2l0.2-2l0.2-1.99l0.21-2l0.2-1.99l0.04-0.38l0.04-0.39l0.04-0.39l0.04-0.38l0.04-0.39
		l0.04-0.38l0.04-0.38l0.04-0.39l0.04-0.38l0.04-0.39l0.04-0.38l0.04-0.39l0.04-0.38l0.04-0.39l0.04-0.38l0.04-0.39l0.02-0.21
		l0.49,0.05l1.04,0.11l1.05,0.1l1.05,0.11l1.05,0.1l1.05,0.1l1.04,0.1l1.05,0.1l1.05,0.1l1.05,0.1l1.05,0.09l1.05,0.1l1.05,0.09
		l1.04,0.1l1.05,0.09l1.05,0.09l1.05,0.09l1.05,0.09l1.05,0.09l1.05,0.09l1.05,0.08l1.05,0.09l1.05,0.08l1.05,0.08l1.05,0.09
		l1.05,0.08l1.05,0.08l1.05,0.07l1.05,0.08l1.05,0.08l1.05,0.07l1.05,0.08l1.05,0.07l1.05,0.07l1.05,0.07l1.05,0.07l1.05,0.07
		l1.05,0.07l1.05,0.07l1.06,0.06l1.05,0.07l1.04,0.06l1.06,0.07l1.05,0.06l1.05,0.06l1.05,0.06l1.05,0.06L63.07,22l1.06,0.06
		l1.05,0.06l1.05,0.05l1.05,0.05l1.05,0.06l1.05,0.05l1.06,0.05l1.05,0.05l1.05,0.04l1.05,0.05l1.05,0.05l1.05,0.04l1.06,0.05
		l1.05,0.04l1.05,0.04l1.05,0.04l1.05,0.04l-0.05,1.59L80.79,26l-0.05,1.6l-0.05,1.59l-0.06,1.6l-0.05,1.6L80.53,34l-0.05,1.59
		l-0.05,1.6l-0.06,1.61l-0.05,1.6l-0.06,1.6l-0.05,1.61l-0.06,1.6l-0.05,1.6L80.05,48.45L80.05,48.45z"/>
	<path id="WY_2_" class="st1" d="M80.05,48.45L80,50.06l-0.06,1.61l-0.05,1.61l-0.06,1.61l-0.06,1.61l-0.05,1.62l-0.06,1.61
		l-0.05,1.62l-0.06,1.61l-0.05,1.61l-0.06,1.62l-0.05,1.61l-0.06,1.62l-0.05,1.62l-0.06,1.62l-0.06,1.61l-1.59-0.06l-1.58-0.06
		l-1.58-0.06l-1.59-0.07L71.24,74l-1.58-0.07l-1.58-0.08l-1.59-0.07l-1.58-0.08l-1.59-0.08l-1.58-0.09l-1.59-0.08l-1.59-0.09
		l-1.58-0.09l-1.58-0.09l-1.58-0.1l-1.58-0.09l-1.58-0.1l-1.59-0.1l-1.58-0.11l-1.59-0.1l-1.58-0.11l-1.58-0.11l-1.58-0.12
		l-1.58-0.11l-1.58-0.12l-1.58-0.12l-1.59-0.12l-1.58-0.12l-1.59-0.13l-1.58-0.13l-1.58-0.13l-1.25-0.11l-1.27-0.11L24.68,71
		l-1.27-0.11l-1.25-0.11l-1.26-0.11l-1.26-0.12l-1.26-0.11l-1.26-0.12l-1.26-0.12l-1.26-0.12l-1.26-0.13l-1.26-0.12l-1.25-0.13
		l-1.26-0.12l-1.26-0.13l0,0l0,0l0,0l0,0l0,0l0,0l0,0l0.08-0.81l0.08-0.8l0.08-0.81l0.09-0.8l0.08-0.81l0.08-0.8l0.09-0.81l0.08-0.8
		L9,62.23l0.08-0.81l0.08-0.8l0.09-0.8L9.33,59l0.08-0.8l0.08-0.8l0.09-0.8l0.2-2.01l0.2-2.01l0.21-2l0.21-2.01l0.2-2.01l0.2-2.01
		l0.21-2l0.2-2l0.21-2.01l0.2-2l0.2-2l0.21-2l0.2-2l0.2-1.99l0.21-2l0.2-1.99l0.04-0.38l0.04-0.39l0.04-0.39l0.04-0.38l0.04-0.39
		l0.04-0.38l0.04-0.38l0.04-0.39l0.04-0.38l0.04-0.39l0.04-0.38l0.04-0.39l0.04-0.38l0.04-0.39l0.04-0.38l0.04-0.39l0.02-0.21
		l0.49,0.05l1.04,0.11l1.05,0.1l1.05,0.11l1.05,0.1l1.05,0.1l1.04,0.1l1.05,0.1l1.05,0.1l1.05,0.1l1.05,0.09l1.05,0.1l1.05,0.09
		l1.04,0.1l1.05,0.09l1.05,0.09l1.05,0.09l1.05,0.09l1.05,0.09l1.05,0.09l1.05,0.08l1.05,0.09l1.05,0.08l1.05,0.08l1.05,0.09
		l1.05,0.08l1.05,0.08l1.05,0.07l1.05,0.08l1.05,0.08l1.05,0.07l1.05,0.08l1.05,0.07l1.05,0.07l1.05,0.07l1.05,0.07l1.05,0.07
		l1.05,0.07l1.05,0.07l1.06,0.06l1.05,0.07l1.04,0.06l1.06,0.07l1.05,0.06l1.05,0.06l1.05,0.06l1.05,0.06L63.07,22l1.06,0.06
		l1.05,0.06l1.05,0.05l1.05,0.05l1.05,0.06l1.05,0.05l1.06,0.05l1.05,0.05l1.05,0.04l1.05,0.05l1.05,0.05l1.05,0.04l1.06,0.05
		l1.05,0.04l1.05,0.04l1.05,0.04l1.05,0.04l-0.05,1.59L80.79,26l-0.05,1.6l-0.05,1.59l-0.06,1.6l-0.05,1.6L80.53,34l-0.05,1.59
		l-0.05,1.6l-0.06,1.61l-0.05,1.6l-0.06,1.6l-0.05,1.61l-0.06,1.6l-0.05,1.6L80.05,48.45L80.05,48.45z"/>
</g>
</svg>
